<?xml version="1.0" encoding="UTF-8" standalone="no"?>
<svg width="1121px" height="402px" viewBox="0 0 1121 402" version="1.1" xmlns="http://www.w3.org/2000/svg" xmlns:xlink="http://www.w3.org/1999/xlink" xmlns:sketch="http://www.bohemiancoding.com/sketch/ns">
    <!-- Generator: Sketch 3.1.1 (8761) - http://www.bohemiancoding.com/sketch -->
    <title>box_shadow-u 2</title>
    <desc>Created with Sketch.</desc>
    <defs>
        <rect id="path-1" x="0" y="0" width="1049" height="361"></rect>
        <rect id="path-3" x="0" y="0" width="1049" height="361"></rect>
        <rect id="path-5" x="0" y="0" width="1049" height="361"></rect>
        <rect id="path-7" x="0" y="0" width="1049" height="361"></rect>
    </defs>
    <g id="Page-1" stroke="none" stroke-width="1" fill="none" fill-rule="evenodd" sketch:type="MSPage">
        <g id="box_shadow" sketch:type="MSLayerGroup" transform="translate(1.000000, -2.000000)">
            <rect id="Rectangle-path" fill="#FFFFFF" sketch:type="MSShapeGroup" x="0" y="3" width="1119" height="400" rx="5"></rect>
            <g id="Group" transform="translate(60.000000, 14.000000)" stroke="#C0C0C0" sketch:type="MSShapeGroup">
                <path d="M0,301.5 L1049,301.5" id="Shape"></path>
                <path d="M0,240.5 L1049,240.5" id="Shape"></path>
                <path d="M0,180.5 L1049,180.5" id="Shape"></path>
                <path d="M0,120.5 L1049,120.5" id="Shape"></path>
                <path d="M0,59.5 L1049,59.5" id="Shape"></path>
                <path d="M0,-0.5 L1049,-0.5" id="Shape"></path>
                <path d="M0,360.5 L1049,360.5" id="Shape"></path>
            </g>
            <g id="Group" transform="translate(60.000000, 375.000000)" stroke="#C0D0E0" sketch:type="MSShapeGroup">
                <path d="M101.5,0 L101.5,5" id="Shape"></path>
                <path d="M193.5,0 L193.5,5" id="Shape"></path>
                <path d="M9.5,0 L9.5,5" id="Shape"></path>
                <path d="M285.5,0 L285.5,5" id="Shape"></path>
                <path d="M378.5,0 L378.5,5" id="Shape"></path>
                <path d="M470.5,0 L470.5,5" id="Shape"></path>
                <path d="M562.5,0 L562.5,5" id="Shape"></path>
                <path d="M654.5,0 L654.5,5" id="Shape"></path>
                <path d="M746.5,0 L746.5,5" id="Shape"></path>
                <path d="M838.5,0 L838.5,5" id="Shape"></path>
                <path d="M930.5,0 L930.5,5" id="Shape"></path>
                <path d="M1022.5,0 L1022.5,5" id="Shape"></path>
                <path d="M0,-0.5 L1049,-0.5" id="Shape"></path>
            </g>
            <g id="Group" transform="translate(7.000000, 189.406250) rotate(270.000000) translate(-7.000000, -189.406250) translate(-21.000000, 182.406250)" font-size="12" font-family="Helvetica" fill="#4D759E" sketch:type="MSTextLayer" font-weight="normal">
                <text id="Amperage">
                    <tspan x="-0.40625" y="11" fill="#000000">Amperage</tspan>
                </text>
            </g>
            <g id="Group" transform="translate(0.000000, 3.000000)">
                <g id="Clipped">
                    <mask id="mask-2" sketch:name="Rectangle-path" fill="white">
                        <use xlink:href="#path-1"></use>
                    </mask>
                    <g id="Rectangle-path"></g>
                    <g id="Group" mask="url(#mask-2)" stroke="#2F7ED8" stroke-width="4" sketch:type="MSShapeGroup" stroke-linejoin="round">
                        <g transform="translate(70.000000, 82.000000)" id="Shape">
                            <path d="M0.284313725,216.3 L1.20502221,216.3 L2.12573069,216.1 L3.04643917,216.1 L3.96714765,217.3 L4.88785613,217.3 L5.80856461,217.9 L6.72927309,217.9 L7.64998157,224.1 L8.57069005,224.1 L9.49139853,235.3 L10.412107,235.3 L11.3328155,212.5 L12.253524,212.5 L13.1742325,178.7 L14.0949409,178.7 L15.0156494,183.9 L15.9363579,183.9 L16.8570664,215 L17.7777749,215 L18.6984833,216.8 L19.6191918,216.8 L20.5399003,211.7 L21.4606088,211.7 L22.3813173,206.1 L23.3020257,206.1 L24.2227342,226.6 L25.1434427,226.6 L26.0641512,204.2 L26.9848597,204.2 L27.9055681,207.2 L28.8262766,207.2 L29.7469851,200 L30.6676936,200 L31.5884021,204.6 L32.5091105,204.6 L33.429819,216.6 L34.3505275,216.6 L35.271236,218.1 L36.1919445,223 L37.1126529,223 L38.0333614,234.1 L38.9540699,234.1 L39.8747784,217.5 L40.7954869,217.5 L41.7161953,215.5 L42.6369038,215.5 L43.5576123,216.9 L44.4783208,216.9 L45.3990293,208.4 L46.3197377,208.4 L47.2404462,199.2 L48.1611547,199.2 L49.0818632,224.6 L50.0025717,224.6 L50.9232801,201.1 L51.8439886,201.1 L52.7646971,209.2 L53.6854056,209.2 L54.6061141,216.5 L55.5268225,216.5 L56.447531,208.3 L57.3682395,208.3 L58.288948,140.2 L59.2096565,140.2 L60.1303649,103.8 L61.0510734,103.8 L61.9717819,134.6 L62.8924904,134.6 L63.8131989,149.4 L64.7339073,149.4 L65.6546158,126.8 L66.5753243,126.8 L67.4960328,62.4 L68.4167413,62.4 L69.3374498,40.7 L70.2581582,40.7 L71.1788667,45.4 L72.0995752,45.4 L73.0202837,39.3 L73.9409922,39.3 L74.8617006,75.8 L75.7824091,75.8 L76.7031176,111.2 L77.6238261,111.2 L78.5445346,126.7 L79.465243,126.7 L80.3859515,131.4 L81.30666,131.4 L82.2273685,121.1 L83.148077,121.1 L84.0687854,170.5 L84.9894939,72.7 L85.9102024,67.4 L86.8309109,67.4 L87.7516194,160.6 L88.6723278,160.6 L89.5930363,233.3 L90.5137448,233.3 L91.4344533,225.6 L92.3551618,225.6 L93.2758702,210.8 L94.1965787,210.8 L95.1172872,211.7 L96.0379957,198.2 L96.9587042,198.2 L97.8794126,151.5 L98.8001211,151.5 L99.7208296,171.1 L100.641538,171.1 L101.562247,139.4 L102.482955,139.4 L103.403664,129.5 L104.324372,129.5 L105.24508,132.5 L106.165789,132.5 L107.086497,117.7 L108.007206,117.7 L108.927914,84.4 L109.848623,84.4 L110.769331,0.3 L111.69004,0.3 L112.610748,25.7 L113.531457,25.7 L114.452165,133.8 L115.372874,133.8 L116.293582,187.4 L117.214291,187.4 L118.134999,207.5 L119.055708,207.5 L119.976416,240.8 L120.897125,240.8 L121.817833,218.8 L122.738542,218.8 L123.65925,211.2 L124.579959,211.2 L125.500667,211.1 L126.421376,211.1 L127.342084,208.2 L128.262792,208.2 L129.183501,190.4 L130.104209,188.5 L131.024918,188.5 L131.945626,223.2 L132.866335,223.2 L133.787043,216.8 L134.707752,216.8 L135.62846,200.4 L136.549169,200.4 L137.469877,210.4 L138.390586,210.4 L139.311294,202.5 L140.232003,202.5 L141.152711,183.4 L142.07342,183.4 L142.994128,203.2 L143.914837,203.2 L144.835545,207.7 L145.756254,207.7 L146.676962,227.1 L147.597671,227.1 L148.518379,235.1 L149.439088,235.1 L150.359796,206.5 L151.280505,206.5 L152.201213,209.8 L153.121921,209.8 L154.04263,178.5 L154.963338,178.5 L155.884047,183.9 L156.804755,183.9 L157.725464,210.6 L158.646172,210.6 L159.566881,204 L160.487589,204 L161.408298,195.5 L162.329006,195.5 L163.249715,226.9 L164.170423,226.9 L165.091132,211.7 L166.01184,211.7 L166.932549,199.4 L167.853257,199.4 L168.773966,207 L169.694674,207 L170.615383,211 L171.536091,198.1 L172.4568,198.1 L173.377508,158.3 L174.298217,158.3 L175.218925,203.6 L176.139633,203.6 L177.060342,197.8 L177.98105,197.8 L178.901759,210.4 L179.822467,210.4 L180.743176,209.9 L181.663884,209.9 L182.584593,212.9 L183.505301,212.9 L184.42601,204.8 L185.346718,204.8 L186.267427,201 L187.188135,201 L188.108844,227.9 L189.029552,227.9 L189.950261,208.9 L190.870969,208.9 L191.791678,202.8 L192.712386,202.8 L193.633095,210.7 L194.553803,210.7 L195.474512,212.6 L196.39522,212.6 L197.315929,212.5 L198.236637,213.2 L199.157345,213.2 L200.078054,212.4 L200.998762,212.4 L201.919471,237.2 L202.840179,237.2 L203.760888,238 L204.681596,238 L205.602305,216.5 L206.523013,216.5 L207.443722,207.6 L208.36443,207.6 L209.285139,199.8 L210.205847,199.8 L211.126556,211.1 L212.047264,211.1 L212.967973,213 L213.888681,213 L214.80939,204.4 L215.730098,204.4 L216.650807,209.1 L217.571515,209.1 L218.492224,229.9 L219.412932,229.9 L220.333641,206.1 L221.254349,206.1 L222.175057,212.5 L223.095766,212.5 L224.016474,212.6 L224.937183,212.6 L225.857891,212.4 L226.7786,212.4 L227.699308,212.5 L228.620017,214.9 L229.540725,214.9 L230.461434,237.8 L231.382142,237.8 L232.302851,232.7 L233.223559,232.7 L234.144268,211.6 L235.064976,211.6 L235.985685,183.9 L236.906393,183.9 L237.827102,187.5 L238.74781,187.5 L239.668519,210.4 L240.589227,210.4 L241.509936,209.9 L242.430644,209.9 L243.351353,202.7 L244.272061,202.7"></path>
                        </g>
                    </g>
                </g>
                <g transform="translate(60.000000, 82.000000)" id="Shape" stroke-opacity="0.0001" stroke="#C0C0C0" stroke-width="21" sketch:type="MSShapeGroup">
                    <path d="M0.284313725,216.3 L10.2843137,216.3 L11.2050222,216.3 L12.1257307,216.1 L13.0464392,216.1 L13.9671476,217.3 L14.8878561,217.3 L15.8085646,217.9 L16.7292731,217.9 L17.6499816,224.1 L18.57069,224.1 L19.4913985,235.3 L20.412107,235.3 L21.3328155,212.5 L22.253524,212.5 L23.1742325,178.7 L24.0949409,178.7 L25.0156494,183.9 L25.9363579,183.9 L26.8570664,215 L27.7777749,215 L28.6984833,216.8 L29.6191918,216.8 L30.5399003,211.7 L31.4606088,211.7 L32.3813173,206.1 L33.3020257,206.1 L34.2227342,226.6 L35.1434427,226.6 L36.0641512,204.2 L36.9848597,204.2 L37.9055681,207.2 L38.8262766,207.2 L39.7469851,200 L40.6676936,200 L41.5884021,204.6 L42.5091105,204.6 L43.429819,216.6 L44.3505275,216.6 L45.271236,218.1 L46.1919445,223 L47.1126529,223 L48.0333614,234.1 L48.9540699,234.1 L49.8747784,217.5 L50.7954869,217.5 L51.7161953,215.5 L52.6369038,215.5 L53.5576123,216.9 L54.4783208,216.9 L55.3990293,208.4 L56.3197377,208.4 L57.2404462,199.2 L58.1611547,199.2 L59.0818632,224.6 L60.0025717,224.6 L60.9232801,201.1 L61.8439886,201.1 L62.7646971,209.2 L63.6854056,209.2 L64.6061141,216.5 L65.5268225,216.5 L66.447531,208.3 L67.3682395,208.3 L68.288948,140.2 L69.2096565,140.2 L70.1303649,103.8 L71.0510734,103.8 L71.9717819,134.6 L72.8924904,134.6 L73.8131989,149.4 L74.7339073,149.4 L75.6546158,126.8 L76.5753243,126.8 L77.4960328,62.4 L78.4167413,62.4 L79.3374498,40.7 L80.2581582,40.7 L81.1788667,45.4 L82.0995752,45.4 L83.0202837,39.3 L83.9409922,39.3 L84.8617006,75.8 L85.7824091,75.8 L86.7031176,111.2 L87.6238261,111.2 L88.5445346,126.7 L89.465243,126.7 L90.3859515,131.4 L91.30666,131.4 L92.2273685,121.1 L93.148077,121.1 L94.0687854,170.5 L94.9894939,72.7 L95.9102024,67.4 L96.8309109,67.4 L97.7516194,160.6 L98.6723278,160.6 L99.5930363,233.3 L100.513745,233.3 L101.434453,225.6 L102.355162,225.6 L103.27587,210.8 L104.196579,210.8 L105.117287,211.7 L106.037996,198.2 L106.958704,198.2 L107.879413,151.5 L108.800121,151.5 L109.72083,171.1 L110.641538,171.1 L111.562247,139.4 L112.482955,139.4 L113.403664,129.5 L114.324372,129.5 L115.24508,132.5 L116.165789,132.5 L117.086497,117.7 L118.007206,117.7 L118.927914,84.4 L119.848623,84.4 L120.769331,0.3 L121.69004,0.3 L122.610748,25.7 L123.531457,25.7 L124.452165,133.8 L125.372874,133.8 L126.293582,187.4 L127.214291,187.4 L128.134999,207.5 L129.055708,207.5 L129.976416,240.8 L130.897125,240.8 L131.817833,218.8 L132.738542,218.8 L133.65925,211.2 L134.579959,211.2 L135.500667,211.1 L136.421376,211.1 L137.342084,208.2 L138.262792,208.2 L139.183501,190.4 L140.104209,188.5 L141.024918,188.5 L141.945626,223.2 L142.866335,223.2 L143.787043,216.8 L144.707752,216.8 L145.62846,200.4 L146.549169,200.4 L147.469877,210.4 L148.390586,210.4 L149.311294,202.5 L150.232003,202.5 L151.152711,183.4 L152.07342,183.4 L152.994128,203.2 L153.914837,203.2 L154.835545,207.7 L155.756254,207.7 L156.676962,227.1 L157.597671,227.1 L158.518379,235.1 L159.439088,235.1 L160.359796,206.5 L161.280505,206.5 L162.201213,209.8 L163.121921,209.8 L164.04263,178.5 L164.963338,178.5 L165.884047,183.9 L166.804755,183.9 L167.725464,210.6 L168.646172,210.6 L169.566881,204 L170.487589,204 L171.408298,195.5 L172.329006,195.5 L173.249715,226.9 L174.170423,226.9 L175.091132,211.7 L176.01184,211.7 L176.932549,199.4 L177.853257,199.4 L178.773966,207 L179.694674,207 L180.615383,211 L181.536091,198.1 L182.4568,198.1 L183.377508,158.3 L184.298217,158.3 L185.218925,203.6 L186.139633,203.6 L187.060342,197.8 L187.98105,197.8 L188.901759,210.4 L189.822467,210.4 L190.743176,209.9 L191.663884,209.9 L192.584593,212.9 L193.505301,212.9 L194.42601,204.8 L195.346718,204.8 L196.267427,201 L197.188135,201 L198.108844,227.9 L199.029552,227.9 L199.950261,208.9 L200.870969,208.9 L201.791678,202.8 L202.712386,202.8 L203.633095,210.7 L204.553803,210.7 L205.474512,212.6 L206.39522,212.6 L207.315929,212.5 L208.236637,213.2 L209.157345,213.2 L210.078054,212.4 L210.998762,212.4 L211.919471,237.2 L212.840179,237.2 L213.760888,238 L214.681596,238 L215.602305,216.5 L216.523013,216.5 L217.443722,207.6 L218.36443,207.6 L219.285139,199.8 L220.205847,199.8 L221.126556,211.1 L222.047264,211.1 L222.967973,213 L223.888681,213 L224.80939,204.4 L225.730098,204.4 L226.650807,209.1 L227.571515,209.1 L228.492224,229.9 L229.412932,229.9 L230.333641,206.1 L231.254349,206.1 L232.175057,212.5 L233.095766,212.5 L234.016474,212.6 L234.937183,212.6 L235.857891,212.4 L236.7786,212.4 L237.699308,212.5 L238.620017,214.9 L239.540725,214.9 L240.461434,237.8 L241.382142,237.8 L242.302851,232.7 L243.223559,232.7 L244.144268,211.6 L245.064976,211.6 L245.985685,183.9 L246.906393,183.9 L247.827102,187.5 L248.74781,187.5 L249.668519,210.4 L250.589227,210.4 L251.509936,209.9 L252.430644,209.9 L253.351353,202.7 L254.272061,202.7 L264.272061,202.7"></path>
                </g>
                <g id="Clipped">
                    <mask id="mask-4" sketch:name="Rectangle-path" fill="white">
                        <use xlink:href="#path-3"></use>
                    </mask>
                    <g id="Rectangle-path"></g>
                    <g id="Group" mask="url(#mask-4)" stroke="#8BBC21" stroke-width="4" sketch:type="MSShapeGroup" stroke-linejoin="round">
                        <g transform="translate(72.000000, 86.000000)" id="Shape">
                            <path d="M0.125730686,286 L1.96714765,286 L3.80856461,286 L5.64998157,286 L7.49139853,286 L9.33281549,286 L11.1742325,286 L13.0156494,286 L14.8570664,286 L16.6984833,286 L18.5399003,286 L20.3813173,286 L22.2227342,286 L24.0641512,286 L25.9055681,286 L27.7469851,286 L29.5884021,286 L31.429819,286 L33.271236,286 L35.1126529,286 L36.9540699,286 L38.7954869,286 L40.6369038,286 L42.4783208,286 L44.3197377,286 L46.1611547,286 L48.0025717,286 L49.8439886,286 L51.6854056,286 L53.5268225,286 L55.3682395,286 L57.2096565,286 L59.0510734,286 L60.8924904,286 L62.7339073,286 L64.5753243,286 L66.4167413,286 L68.2581582,286 L70.0995752,286 L71.9409922,286 L73.7824091,286 L75.6238261,286 L77.465243,286 L79.30666,286 L81.148077,286 L82.9894939,286 L84.8309109,286 L86.6723278,286 L88.5137448,286 L90.3551618,286 L92.1965787,286 L94.0379957,286 L95.8794126,286 L97.7208296,286 L99.5622466,286 L101.403664,286 L103.24508,286 L105.086497,286 L106.927914,286 L108.769331,286 L110.610748,286 L112.452165,286 L114.293582,286 L116.134999,286 L117.976416,286 L119.817833,286 L121.65925,286 L123.500667,286 L125.342084,286 L127.183501,286 L129.024918,286 L130.866335,286 L132.707752,286 L134.549169,286 L136.390586,286 L138.232003,286 L140.07342,286 L141.914837,286 L143.756254,286 L145.597671,286 L147.439088,286 L149.280505,286 L151.121921,286 L152.963338,286 L154.804755,286 L156.646172,286 L158.487589,286 L160.329006,286 L162.170423,286 L164.01184,286 L165.853257,286 L167.694674,286 L169.536091,286 L171.377508,286 L173.218925,286 L175.060342,286 L176.901759,286 L178.743176,286 L180.584593,286 L182.42601,286 L184.267427,286 L186.108844,286 L187.950261,286 L189.791678,286 L191.633095,286 L193.474512,286 L195.315929,286 L197.157345,286 L198.998762,286 L200.840179,286 L202.681596,286 L204.523013,286 L206.36443,286 L208.205847,286 L210.047264,286 L211.888681,286 L213.730098,286 L215.571515,286 L217.412932,286 L219.254349,286 L221.095766,286 L222.937183,286 L224.7786,286 L226.620017,286 L228.461434,286 L230.302851,286 L232.144268,286 L233.064976,205.2 L233.985685,193.3 L235.827102,222.1 L237.668519,237 L239.509936,236.2 L241.351353,218.2 L243.192769,212.3 L245.034186,211.8 L246.875603,211.7 L248.71702,181 L250.558437,195.6 L252.399854,219.1 L254.241271,227.8 L256.082688,210.7 L257.924105,204 L259.765522,211.7 L261.606939,212.6 L263.448356,201.7 L265.289773,196.4 L266.210482,225.9 L268.051898,238 L269.893315,233.1 L271.734732,194.7 L273.576149,212 L275.417566,210 L277.258983,191.1 L279.1004,207.5 L280.941817,216.8 L282.783234,224.7 L284.624651,207.1 L286.466068,206.3 L288.307485,212.5 L290.148902,212.1 L291.06961,183.8 L292.911027,119.5 L294.752444,121.7 L296.593861,142.7 L298.435278,135.9 L300.276695,109.9 L302.118112,93.1 L303.959529,101.8 L305.800946,106.2 L307.642363,105.3 L309.48378,102.3 L311.325197,103.3 L313.166614,70.4 L315.008031,39.2 L316.849448,61.5 L318.690865,41.1 L320.532282,135.9 L322.373699,217.2 L324.215116,227.2 L326.056533,205.5 L327.89795,192.1 L328.818658,204.8 L330.660075,200.9 L332.501492,189.1 L334.342909,150.6 L336.184326,122.1 L338.025743,137.7 L339.86716,111.7 L341.708577,52.7 L343.549994,0.2 L345.391411,108.7 L347.232828,168.3 L349.074245,183.8 L350.915662,190.6 L352.757079,236.1 L354.598496,220.1 L356.439913,207.5 L358.28133,207.1 L360.122747,208.7 L361.964163,197.6 L363.80558,195.2 L364.726289,219.2 L366.567706,212.9 L368.409123,185.2 L370.25054,202.7 L372.091957,208 L373.933374,205.3 L375.774791,195.8 L377.616208,204.1 L379.457625,224.4 L381.299042,232.7 L383.140459,205.9 L384.981875,157.4 L386.823292,200.2 L388.664709,208.4 L390.506126,195.3 L392.347543,195.2 L394.18896,196.2 L396.030377,225 L397.871794,215.5 L399.713211,197.1 L401.554628,205.7 L403.396045,207.9 L405.237462,203.6 L407.078879,194.3 L408.920296,204.3 L410.761713,203.3 L412.60313,203.6 L414.444547,183 L416.285964,191 L417.206672,201.3 L419.048089,208 L420.889506,227.6 L422.730923,211.7 L424.57234,197.9 L426.413757,206.4 L428.255174,207.9 L430.096591,201.4 L431.938008,193.2 L433.779425,213.7"></path>
                        </g>
                    </g>
                </g>
                <g transform="translate(60.000000, 86.000000)" id="Shape" stroke-opacity="0.0001" stroke="#C0C0C0" stroke-width="21" sketch:type="MSShapeGroup">
                    <path d="M0.284313725,286 L10.2843137,286 L11.2050222,286 L12.1257307,286 L13.0464392,286 L13.9671476,286 L14.8878561,286 L15.8085646,286 L16.7292731,286 L17.6499816,286 L18.57069,286 L19.4913985,286 L20.412107,286 L21.3328155,286 L22.253524,286 L23.1742325,286 L24.0949409,286 L25.0156494,286 L25.9363579,286 L26.8570664,286 L27.7777749,286 L28.6984833,286 L29.6191918,286 L30.5399003,286 L31.4606088,286 L32.3813173,286 L33.3020257,286 L34.2227342,286 L35.1434427,286 L36.0641512,286 L36.9848597,286 L37.9055681,286 L38.8262766,286 L39.7469851,286 L40.6676936,286 L41.5884021,286 L42.5091105,286 L43.429819,286 L44.3505275,286 L45.271236,286 L46.1919445,286 L47.1126529,286 L48.0333614,286 L48.9540699,286 L49.8747784,286 L50.7954869,286 L51.7161953,286 L52.6369038,286 L53.5576123,286 L54.4783208,286 L55.3990293,286 L56.3197377,286 L57.2404462,286 L58.1611547,286 L59.0818632,286 L60.0025717,286 L60.9232801,286 L61.8439886,286 L62.7646971,286 L63.6854056,286 L64.6061141,286 L65.5268225,286 L66.447531,286 L67.3682395,286 L68.288948,286 L69.2096565,286 L70.1303649,286 L71.0510734,286 L71.9717819,286 L72.8924904,286 L73.8131989,286 L74.7339073,286 L75.6546158,286 L76.5753243,286 L77.4960328,286 L78.4167413,286 L79.3374498,286 L80.2581582,286 L81.1788667,286 L82.0995752,286 L83.0202837,286 L83.9409922,286 L84.8617006,286 L85.7824091,286 L86.7031176,286 L87.6238261,286 L88.5445346,286 L89.465243,286 L90.3859515,286 L91.30666,286 L92.2273685,286 L93.148077,286 L94.0687854,286 L94.9894939,286 L95.9102024,286 L96.8309109,286 L97.7516194,286 L98.6723278,286 L99.5930363,286 L100.513745,286 L101.434453,286 L102.355162,286 L103.27587,286 L104.196579,286 L105.117287,286 L106.037996,286 L106.958704,286 L107.879413,286 L108.800121,286 L109.72083,286 L110.641538,286 L111.562247,286 L112.482955,286 L113.403664,286 L114.324372,286 L115.24508,286 L116.165789,286 L117.086497,286 L118.007206,286 L118.927914,286 L119.848623,286 L120.769331,286 L121.69004,286 L122.610748,286 L123.531457,286 L124.452165,286 L125.372874,286 L126.293582,286 L127.214291,286 L128.134999,286 L129.055708,286 L129.976416,286 L130.897125,286 L131.817833,286 L132.738542,286 L133.65925,286 L134.579959,286 L135.500667,286 L136.421376,286 L137.342084,286 L138.262792,286 L139.183501,286 L140.104209,286 L141.024918,286 L141.945626,286 L142.866335,286 L143.787043,286 L144.707752,286 L145.62846,286 L146.549169,286 L147.469877,286 L148.390586,286 L149.311294,286 L150.232003,286 L151.152711,286 L152.07342,286 L152.994128,286 L153.914837,286 L154.835545,286 L155.756254,286 L156.676962,286 L157.597671,286 L158.518379,286 L159.439088,286 L160.359796,286 L161.280505,286 L162.201213,286 L163.121921,286 L164.04263,286 L164.963338,286 L165.884047,286 L166.804755,286 L167.725464,286 L168.646172,286 L169.566881,286 L170.487589,286 L171.408298,286 L172.329006,286 L173.249715,286 L174.170423,286 L175.091132,286 L176.01184,286 L176.932549,286 L177.853257,286 L178.773966,286 L179.694674,286 L180.615383,286 L181.536091,286 L182.4568,286 L183.377508,286 L184.298217,286 L185.218925,286 L186.139633,286 L187.060342,286 L187.98105,286 L188.901759,286 L189.822467,286 L190.743176,286 L191.663884,286 L192.584593,286 L193.505301,286 L194.42601,286 L195.346718,286 L196.267427,286 L197.188135,286 L198.108844,286 L199.029552,286 L199.950261,286 L200.870969,286 L201.791678,286 L202.712386,286 L203.633095,286 L204.553803,286 L205.474512,286 L206.39522,286 L207.315929,286 L208.236637,286 L209.157345,286 L210.078054,286 L210.998762,286 L211.919471,286 L212.840179,286 L213.760888,286 L214.681596,286 L215.602305,286 L216.523013,286 L217.443722,286 L218.36443,286 L219.285139,286 L220.205847,286 L221.126556,286 L222.047264,286 L222.967973,286 L223.888681,286 L224.80939,286 L225.730098,286 L226.650807,286 L227.571515,286 L228.492224,286 L229.412932,286 L230.333641,286 L231.254349,286 L232.175057,286 L233.095766,286 L234.016474,286 L234.937183,286 L235.857891,286 L236.7786,286 L237.699308,286 L238.620017,286 L239.540725,286 L240.461434,286 L241.382142,286 L242.302851,286 L243.223559,286 L244.144268,286 L245.064976,205.2 L245.985685,193.3 L246.906393,193.3 L247.827102,222.1 L248.74781,222.1 L249.668519,237 L250.589227,237 L251.509936,236.2 L252.430644,236.2 L253.351353,218.2 L254.272061,218.2 L255.192769,212.3 L256.113478,212.3 L257.034186,211.8 L257.954895,211.8 L258.875603,211.7 L259.796312,211.7 L260.71702,181 L261.637729,181 L262.558437,195.6 L263.479146,195.6 L264.399854,219.1 L265.320563,219.1 L266.241271,227.8 L267.16198,227.8 L268.082688,210.7 L269.003397,210.7 L269.924105,204 L270.844814,204 L271.765522,211.7 L272.686231,211.7 L273.606939,212.6 L274.527648,212.6 L275.448356,201.7 L276.369065,201.7 L277.289773,196.4 L278.210482,225.9 L279.13119,225.9 L280.051898,238 L280.972607,238 L281.893315,233.1 L282.814024,233.1 L283.734732,194.7 L284.655441,194.7 L285.576149,212 L286.496858,212 L287.417566,210 L288.338275,210 L289.258983,191.1 L290.179692,191.1 L291.1004,207.5 L292.021109,207.5 L292.941817,216.8 L293.862526,216.8 L294.783234,224.7 L295.703943,224.7 L296.624651,207.1 L297.54536,207.1 L298.466068,206.3 L299.386777,206.3 L300.307485,212.5 L301.228194,212.5 L302.148902,212.1 L303.06961,183.8 L303.990319,183.8 L304.911027,119.5 L305.831736,119.5 L306.752444,121.7 L307.673153,121.7 L308.593861,142.7 L309.51457,142.7 L310.435278,135.9 L311.355987,135.9 L312.276695,109.9 L313.197404,109.9 L314.118112,93.1 L315.038821,93.1 L315.959529,101.8 L316.880238,101.8 L317.800946,106.2 L318.721655,106.2 L319.642363,105.3 L320.563072,105.3 L321.48378,102.3 L322.404489,102.3 L323.325197,103.3 L324.245906,103.3 L325.166614,70.4 L326.087322,70.4 L327.008031,39.2 L327.928739,39.2 L328.849448,61.5 L329.770156,61.5 L330.690865,41.1 L331.611573,41.1 L332.532282,135.9 L333.45299,135.9 L334.373699,217.2 L335.294407,217.2 L336.215116,227.2 L337.135824,227.2 L338.056533,205.5 L338.977241,205.5 L339.89795,192.1 L340.818658,204.8 L341.739367,204.8 L342.660075,200.9 L343.580784,200.9 L344.501492,189.1 L345.422201,189.1 L346.342909,150.6 L347.263618,150.6 L348.184326,122.1 L349.105034,122.1 L350.025743,137.7 L350.946451,137.7 L351.86716,111.7 L352.787868,111.7 L353.708577,52.7 L354.629285,52.7 L355.549994,0.2 L356.470702,0.2 L357.391411,108.7 L358.312119,108.7 L359.232828,168.3 L360.153536,168.3 L361.074245,183.8 L361.994953,183.8 L362.915662,190.6 L363.83637,190.6 L364.757079,236.1 L365.677787,236.1 L366.598496,220.1 L367.519204,220.1 L368.439913,207.5 L369.360621,207.5 L370.28133,207.1 L371.202038,207.1 L372.122747,208.7 L373.043455,208.7 L373.964163,197.6 L374.884872,197.6 L375.80558,195.2 L376.726289,219.2 L377.646997,219.2 L378.567706,212.9 L379.488414,212.9 L380.409123,185.2 L381.329831,185.2 L382.25054,202.7 L383.171248,202.7 L384.091957,208 L385.012665,208 L385.933374,205.3 L386.854082,205.3 L387.774791,195.8 L388.695499,195.8 L389.616208,204.1 L390.536916,204.1 L391.457625,224.4 L392.378333,224.4 L393.299042,232.7 L394.21975,232.7 L395.140459,205.9 L396.061167,205.9 L396.981875,157.4 L397.902584,157.4 L398.823292,200.2 L399.744001,200.2 L400.664709,208.4 L401.585418,208.4 L402.506126,195.3 L403.426835,195.3 L404.347543,195.2 L405.268252,195.2 L406.18896,196.2 L407.109669,196.2 L408.030377,225 L408.951086,225 L409.871794,215.5 L410.792503,215.5 L411.713211,197.1 L412.63392,197.1 L413.554628,205.7 L414.475337,205.7 L415.396045,207.9 L416.316754,207.9 L417.237462,203.6 L418.158171,203.6 L419.078879,194.3 L419.999587,194.3 L420.920296,204.3 L421.841004,204.3 L422.761713,203.3 L423.682421,203.3 L424.60313,203.6 L425.523838,203.6 L426.444547,183 L427.365255,183 L428.285964,191 L429.206672,201.3 L430.127381,201.3 L431.048089,208 L431.968798,208 L432.889506,227.6 L433.810215,227.6 L434.730923,211.7 L435.651632,211.7 L436.57234,197.9 L437.493049,197.9 L438.413757,206.4 L439.334466,206.4 L440.255174,207.9 L441.175883,207.9 L442.096591,201.4 L443.017299,201.4 L443.938008,193.2 L444.858716,193.2 L445.779425,213.7 L446.700133,213.7 L456.700133,213.7"></path>
                </g>
                <g id="Clipped">
                    <mask id="mask-6" sketch:name="Rectangle-path" fill="white">
                        <use xlink:href="#path-5"></use>
                    </mask>
                    <g id="Rectangle-path"></g>
                    <g id="Group" mask="url(#mask-6)" stroke="#2F7ED8" stroke-width="4" sketch:type="MSShapeGroup" stroke-linejoin="round">
                        <g transform="translate(70.000000, 82.000000)" id="Shape">
                            <path d="M0.284313725,290 L3.04643917,290 L5.80856461,290 L8.57069005,290 L11.3328155,290 L14.0949409,290 L16.8570664,290 L19.6191918,290 L22.3813173,290 L25.1434427,290 L27.9055681,290 L30.6676936,290 L33.429819,290 L36.1919445,290 L38.9540699,290 L41.7161953,290 L44.4783208,290 L47.2404462,290 L50.0025717,290 L52.7646971,290 L55.5268225,290 L58.288948,290 L61.0510734,290 L63.8131989,290 L66.5753243,290 L69.3374498,290 L72.0995752,290 L74.8617006,290 L77.6238261,290 L80.3859515,290 L83.148077,290 L85.9102024,290 L88.6723278,290 L91.4344533,290 L94.1965787,290 L96.9587042,290 L99.7208296,290 L102.482955,290 L105.24508,290 L108.007206,290 L110.769331,290 L113.531457,290 L116.293582,290 L119.055708,290 L121.817833,290 L124.579959,290 L127.342084,290 L130.104209,290 L132.866335,290 L135.62846,290 L138.390586,290 L141.152711,290 L143.914837,290 L146.676962,290 L149.439088,290 L152.201213,290 L154.963338,290 L157.725464,290 L160.487589,290 L163.249715,290 L166.01184,290 L168.773966,290 L171.536091,290 L174.298217,290 L177.060342,290 L179.822467,290 L182.584593,290 L185.346718,290 L188.108844,290 L190.870969,290 L193.633095,290 L196.39522,290 L199.157345,290 L201.919471,290 L204.681596,290 L207.443722,290 L210.205847,290 L212.967973,290 L215.730098,290 L218.492224,290 L221.254349,290 L224.016474,290 L226.7786,290 L229.540725,290 L232.302851,290 L235.064976,290 L237.827102,290 L240.589227,290 L243.351353,290 L246.113478,290 L248.875603,290 L251.637729,290 L254.399854,290 L257.16198,290 L259.924105,290 L262.686231,290 L265.448356,290 L268.210482,290 L270.972607,290 L273.734732,290 L276.496858,290 L279.258983,290 L282.021109,290 L284.783234,290 L287.54536,290 L290.307485,290 L293.06961,290 L295.831736,290 L298.593861,290 L301.355987,290 L304.118112,290 L306.880238,290 L309.642363,290 L312.404489,290 L315.166614,290 L317.928739,290 L320.690865,290 L323.45299,290 L326.215116,290 L328.977241,290 L331.739367,290 L334.501492,290 L337.263618,290 L340.025743,290 L342.787868,290 L345.549994,290 L348.312119,290 L351.074245,290 L353.83637,290 L356.598496,290 L359.360621,290 L362.122747,290 L364.884872,290 L367.646997,290 L370.409123,290 L373.171248,290 L375.933374,290 L378.695499,290 L381.457625,290 L384.21975,290 L386.981875,290 L389.744001,290 L392.506126,290 L395.268252,290 L398.030377,290 L400.792503,290 L403.554628,290 L406.316754,290 L409.078879,290 L411.841004,290 L414.60313,290 L417.365255,290 L420.127381,290 L422.889506,290 L425.651632,290 L428.413757,290 L431.175883,290 L433.938008,290 L436.700133,217.4 L438.54155,216.1 L441.303676,216.5 L442.224384,217.6 L444.065801,210.9 L445.907218,194.2 L447.748635,224.9 L449.590052,215.6 L451.431469,218 L453.272886,216.3 L455.114303,189.1 L456.95572,210.9 L458.797137,245.6 L459.717845,234.6 L461.559262,215.7 L463.400679,216.3 L465.242096,215 L467.083513,200.6 L468.92493,183.6 L470.766347,198.4 L472.607764,225.8 L474.449181,224.1 L476.290598,206.5 L478.132015,210.2 L479.973432,216 L481.814849,217.4 L483.656266,215.4 L485.497683,198.1 L487.3391,234.7 L489.180517,242.5 L491.021934,214.2 L492.863351,204.6 L494.704768,217.1 L496.546185,217.7 L497.466893,202.5 L499.30831,199.2 L501.149727,229.5 L502.991144,225.8 L504.832561,205.7 L506.673978,193.8 L508.515395,162.9 L510.356812,207.9 L512.198229,193.6 L514.039646,197.7 L515.881063,238.3 L517.72248,234.9 L519.563897,225.2 L521.405314,215.7 L524.167439,216.8 L526.929564,217.2 L527.850273,198 L529.69169,206.7 L531.533107,231.5 L533.374524,216.5 L535.215941,184.6 L537.057358,210.4 L538.898775,216.3 L539.819483,203 L540.740192,242.5 L542.581609,244.5 L544.423026,224.1 L546.264443,216.1 L548.10586,216.8 L550.867985,217 L551.788693,203.8 L553.63011,179.1 L555.471527,201.6 L557.312944,196.5 L559.154361,197.5 L560.995778,204.7 L562.837195,214.2 L564.678612,216.2 L566.520029,202.7 L568.361446,141.2 L570.202863,145.6 L571.123572,155.5 L572.964989,147.1 L574.806405,117.6 L576.647822,112.7 L578.489239,119 L580.330656,118 L582.172073,110.9 L584.01349,104.2 L584.934199,124.5 L585.854907,136.1 L587.696324,120.9 L588.617033,93.2 L590.45845,95.8 L592.299867,114.6 L594.141284,172.2 L595.982701,175.2 L597.824117,192.1 L599.665534,141.5 L601.506951,79.7 L603.348368,119.6 L605.189785,118.5 L607.951911,118.5 L608.872619,117.5 L610.714036,113.8 L612.555453,119.7 L614.39687,132.5 L616.238287,145.8 L618.079704,120 L619.921121,92.8 L621.762538,42.1 L623.603955,61.6 L625.445372,109.5 L627.286789,101.8 L629.128206,118 L630.048914,137.1 L630.969623,136.2 L631.890331,120.9 L633.731748,126.8 L635.573165,118.8 L637.414582,97.4 L639.255999,31.9 L641.097416,67.4 L642.938833,160.6 L644.78025,215.9 L646.621667,203 L648.463084,204.4 L650.304501,210.4 L652.145918,198.6 L653.987335,199.9 L655.828752,190.3 L657.670169,160 L659.511586,155.4 L661.353003,144.5 L663.19442,123.4 L665.035837,68 L666.877253,0 L668.71867,78.2 L670.560087,185.3 L672.401504,161.4 L674.242921,204.2 L675.16363,182.5 L677.005047,157.5 L678.846464,197.7 L680.687881,211.1 L682.529298,208.8 L684.370715,196.8 L686.212132,223.9 L688.053549,244.8 L689.894966,218.5 L691.736382,207.3 L693.577799,211.1 L695.419216,208 L696.339925,198.4 L698.181342,201.1 L700.022759,192.9 L701.864176,219.8 L703.705593,197.7 L705.54701,193.8 L707.388427,201.6 L709.229844,212 L711.991969,211.9 L712.912678,208.7 L714.754094,200.3 L716.595511,232.9 L718.436928,237.9 L720.278345,211.9 L723.040471,211.9 L725.802596,211.5 L726.723305,198 L728.564722,205.5 L730.406139,227.6 L732.247556,218.7 L734.088973,201.9 L735.93039,208.4 L738.692515,208.3 L739.613223,193.4 L741.45464,196 L743.296057,205.8 L745.137474,238.5 L746.978891,223.9 L748.820308,211.1 L750.661725,195.3 L752.503142,209.2 L754.344559,211.9 L756.185976,209.9 L758.027393,193.8 L759.86881,202.3 L761.710227,221.2 L763.551644,204.9 L765.393061,212.2 L767.234478,203.1 L769.075895,210.4 L770.917312,239.9"></path>
                        </g>
                    </g>
                </g>
                <g transform="translate(60.000000, 82.000000)" id="Shape" stroke-opacity="0.0001" stroke="#C0C0C0" stroke-width="21" sketch:type="MSShapeGroup">
                    <path d="M0.284313725,290 L10.2843137,290 L11.2050222,290 L12.1257307,290 L13.0464392,290 L13.9671476,290 L14.8878561,290 L15.8085646,290 L16.7292731,290 L17.6499816,290 L18.57069,290 L19.4913985,290 L20.412107,290 L21.3328155,290 L22.253524,290 L23.1742325,290 L24.0949409,290 L25.0156494,290 L25.9363579,290 L26.8570664,290 L27.7777749,290 L28.6984833,290 L29.6191918,290 L30.5399003,290 L31.4606088,290 L32.3813173,290 L33.3020257,290 L34.2227342,290 L35.1434427,290 L36.0641512,290 L36.9848597,290 L37.9055681,290 L38.8262766,290 L39.7469851,290 L40.6676936,290 L41.5884021,290 L42.5091105,290 L43.429819,290 L44.3505275,290 L45.271236,290 L46.1919445,290 L47.1126529,290 L48.0333614,290 L48.9540699,290 L49.8747784,290 L50.7954869,290 L51.7161953,290 L52.6369038,290 L53.5576123,290 L54.4783208,290 L55.3990293,290 L56.3197377,290 L57.2404462,290 L58.1611547,290 L59.0818632,290 L60.0025717,290 L60.9232801,290 L61.8439886,290 L62.7646971,290 L63.6854056,290 L64.6061141,290 L65.5268225,290 L66.447531,290 L67.3682395,290 L68.288948,290 L69.2096565,290 L70.1303649,290 L71.0510734,290 L71.9717819,290 L72.8924904,290 L73.8131989,290 L74.7339073,290 L75.6546158,290 L76.5753243,290 L77.4960328,290 L78.4167413,290 L79.3374498,290 L80.2581582,290 L81.1788667,290 L82.0995752,290 L83.0202837,290 L83.9409922,290 L84.8617006,290 L85.7824091,290 L86.7031176,290 L87.6238261,290 L88.5445346,290 L89.465243,290 L90.3859515,290 L91.30666,290 L92.2273685,290 L93.148077,290 L94.0687854,290 L94.9894939,290 L95.9102024,290 L96.8309109,290 L97.7516194,290 L98.6723278,290 L99.5930363,290 L100.513745,290 L101.434453,290 L102.355162,290 L103.27587,290 L104.196579,290 L105.117287,290 L106.037996,290 L106.958704,290 L107.879413,290 L108.800121,290 L109.72083,290 L110.641538,290 L111.562247,290 L112.482955,290 L113.403664,290 L114.324372,290 L115.24508,290 L116.165789,290 L117.086497,290 L118.007206,290 L118.927914,290 L119.848623,290 L120.769331,290 L121.69004,290 L122.610748,290 L123.531457,290 L124.452165,290 L125.372874,290 L126.293582,290 L127.214291,290 L128.134999,290 L129.055708,290 L129.976416,290 L130.897125,290 L131.817833,290 L132.738542,290 L133.65925,290 L134.579959,290 L135.500667,290 L136.421376,290 L137.342084,290 L138.262792,290 L139.183501,290 L140.104209,290 L141.024918,290 L141.945626,290 L142.866335,290 L143.787043,290 L144.707752,290 L145.62846,290 L146.549169,290 L147.469877,290 L148.390586,290 L149.311294,290 L150.232003,290 L151.152711,290 L152.07342,290 L152.994128,290 L153.914837,290 L154.835545,290 L155.756254,290 L156.676962,290 L157.597671,290 L158.518379,290 L159.439088,290 L160.359796,290 L161.280505,290 L162.201213,290 L163.121921,290 L164.04263,290 L164.963338,290 L165.884047,290 L166.804755,290 L167.725464,290 L168.646172,290 L169.566881,290 L170.487589,290 L171.408298,290 L172.329006,290 L173.249715,290 L174.170423,290 L175.091132,290 L176.01184,290 L176.932549,290 L177.853257,290 L178.773966,290 L179.694674,290 L180.615383,290 L181.536091,290 L182.4568,290 L183.377508,290 L184.298217,290 L185.218925,290 L186.139633,290 L187.060342,290 L187.98105,290 L188.901759,290 L189.822467,290 L190.743176,290 L191.663884,290 L192.584593,290 L193.505301,290 L194.42601,290 L195.346718,290 L196.267427,290 L197.188135,290 L198.108844,290 L199.029552,290 L199.950261,290 L200.870969,290 L201.791678,290 L202.712386,290 L203.633095,290 L204.553803,290 L205.474512,290 L206.39522,290 L207.315929,290 L208.236637,290 L209.157345,290 L210.078054,290 L210.998762,290 L211.919471,290 L212.840179,290 L213.760888,290 L214.681596,290 L215.602305,290 L216.523013,290 L217.443722,290 L218.36443,290 L219.285139,290 L220.205847,290 L221.126556,290 L222.047264,290 L222.967973,290 L223.888681,290 L224.80939,290 L225.730098,290 L226.650807,290 L227.571515,290 L228.492224,290 L229.412932,290 L230.333641,290 L231.254349,290 L232.175057,290 L233.095766,290 L234.016474,290 L234.937183,290 L235.857891,290 L236.7786,290 L237.699308,290 L238.620017,290 L239.540725,290 L240.461434,290 L241.382142,290 L242.302851,290 L243.223559,290 L244.144268,290 L245.064976,290 L245.985685,290 L246.906393,290 L247.827102,290 L248.74781,290 L249.668519,290 L250.589227,290 L251.509936,290 L252.430644,290 L253.351353,290 L254.272061,290 L255.192769,290 L256.113478,290 L257.034186,290 L257.954895,290 L258.875603,290 L259.796312,290 L260.71702,290 L261.637729,290 L262.558437,290 L263.479146,290 L264.399854,290 L265.320563,290 L266.241271,290 L267.16198,290 L268.082688,290 L269.003397,290 L269.924105,290 L270.844814,290 L271.765522,290 L272.686231,290 L273.606939,290 L274.527648,290 L275.448356,290 L276.369065,290 L277.289773,290 L278.210482,290 L279.13119,290 L280.051898,290 L280.972607,290 L281.893315,290 L282.814024,290 L283.734732,290 L284.655441,290 L285.576149,290 L286.496858,290 L287.417566,290 L288.338275,290 L289.258983,290 L290.179692,290 L291.1004,290 L292.021109,290 L292.941817,290 L293.862526,290 L294.783234,290 L295.703943,290 L296.624651,290 L297.54536,290 L298.466068,290 L299.386777,290 L300.307485,290 L301.228194,290 L302.148902,290 L303.06961,290 L303.990319,290 L304.911027,290 L305.831736,290 L306.752444,290 L307.673153,290 L308.593861,290 L309.51457,290 L310.435278,290 L311.355987,290 L312.276695,290 L313.197404,290 L314.118112,290 L315.038821,290 L315.959529,290 L316.880238,290 L317.800946,290 L318.721655,290 L319.642363,290 L320.563072,290 L321.48378,290 L322.404489,290 L323.325197,290 L324.245906,290 L325.166614,290 L326.087322,290 L327.008031,290 L327.928739,290 L328.849448,290 L329.770156,290 L330.690865,290 L331.611573,290 L332.532282,290 L333.45299,290 L334.373699,290 L335.294407,290 L336.215116,290 L337.135824,290 L338.056533,290 L338.977241,290 L339.89795,290 L340.818658,290 L341.739367,290 L342.660075,290 L343.580784,290 L344.501492,290 L345.422201,290 L346.342909,290 L347.263618,290 L348.184326,290 L349.105034,290 L350.025743,290 L350.946451,290 L351.86716,290 L352.787868,290 L353.708577,290 L354.629285,290 L355.549994,290 L356.470702,290 L357.391411,290 L358.312119,290 L359.232828,290 L360.153536,290 L361.074245,290 L361.994953,290 L362.915662,290 L363.83637,290 L364.757079,290 L365.677787,290 L366.598496,290 L367.519204,290 L368.439913,290 L369.360621,290 L370.28133,290 L371.202038,290 L372.122747,290 L373.043455,290 L373.964163,290 L374.884872,290 L375.80558,290 L376.726289,290 L377.646997,290 L378.567706,290 L379.488414,290 L380.409123,290 L381.329831,290 L382.25054,290 L383.171248,290 L384.091957,290 L385.012665,290 L385.933374,290 L386.854082,290 L387.774791,290 L388.695499,290 L389.616208,290 L390.536916,290 L391.457625,290 L392.378333,290 L393.299042,290 L394.21975,290 L395.140459,290 L396.061167,290 L396.981875,290 L397.902584,290 L398.823292,290 L399.744001,290 L400.664709,290 L401.585418,290 L402.506126,290 L403.426835,290 L404.347543,290 L405.268252,290 L406.18896,290 L407.109669,290 L408.030377,290 L408.951086,290 L409.871794,290 L410.792503,290 L411.713211,290 L412.63392,290 L413.554628,290 L414.475337,290 L415.396045,290 L416.316754,290 L417.237462,290 L418.158171,290 L419.078879,290 L419.999587,290 L420.920296,290 L421.841004,290 L422.761713,290 L423.682421,290 L424.60313,290 L425.523838,290 L426.444547,290 L427.365255,290 L428.285964,290 L429.206672,290 L430.127381,290 L431.048089,290 L431.968798,290 L432.889506,290 L433.810215,290 L434.730923,290 L435.651632,290 L436.57234,290 L437.493049,290 L438.413757,290 L439.334466,290 L440.255174,290 L441.175883,290 L442.096591,290 L443.017299,290 L443.938008,290 L444.858716,290 L445.779425,290 L446.700133,217.4 L447.620842,217.4 L448.54155,216.1 L449.462259,216.1 L450.382967,216.5 L451.303676,216.5 L452.224384,217.6 L453.145093,217.6 L454.065801,210.9 L454.98651,210.9 L455.907218,194.2 L456.827927,194.2 L457.748635,224.9 L458.669344,224.9 L459.590052,215.6 L460.510761,215.6 L461.431469,218 L462.352178,218 L463.272886,216.3 L464.193595,216.3 L465.114303,189.1 L466.035011,189.1 L466.95572,210.9 L467.876428,210.9 L468.797137,245.6 L469.717845,234.6 L470.638554,234.6 L471.559262,215.7 L472.479971,215.7 L473.400679,216.3 L474.321388,216.3 L475.242096,215 L476.162805,215 L477.083513,200.6 L478.004222,200.6 L478.92493,183.6 L479.845639,183.6 L480.766347,198.4 L481.687056,198.4 L482.607764,225.8 L483.528473,225.8 L484.449181,224.1 L485.36989,224.1 L486.290598,206.5 L487.211307,206.5 L488.132015,210.2 L489.052724,210.2 L489.973432,216 L490.89414,216 L491.814849,217.4 L492.735557,217.4 L493.656266,215.4 L494.576974,215.4 L495.497683,198.1 L496.418391,198.1 L497.3391,234.7 L498.259808,234.7 L499.180517,242.5 L500.101225,242.5 L501.021934,214.2 L501.942642,214.2 L502.863351,204.6 L503.784059,204.6 L504.704768,217.1 L505.625476,217.7 L506.546185,217.7 L507.466893,202.5 L508.387602,202.5 L509.30831,199.2 L510.229019,199.2 L511.149727,229.5 L512.070436,229.5 L512.991144,225.8 L513.911852,225.8 L514.832561,205.7 L515.753269,205.7 L516.673978,193.8 L517.594686,193.8 L518.515395,162.9 L519.436103,162.9 L520.356812,207.9 L521.27752,207.9 L522.198229,193.6 L523.118937,193.6 L524.039646,197.7 L524.960354,197.7 L525.881063,238.3 L526.801771,238.3 L527.72248,234.9 L528.643188,234.9 L529.563897,225.2 L530.484605,225.2 L531.405314,215.7 L532.326022,216.2 L533.246731,216.2 L534.167439,216.8 L535.088148,216.8 L536.008856,217.2 L536.929564,217.2 L537.850273,198 L538.770981,198 L539.69169,206.7 L540.612398,206.7 L541.533107,231.5 L542.453815,231.5 L543.374524,216.5 L544.295232,216.5 L545.215941,184.6 L546.136649,184.6 L547.057358,210.4 L547.978066,210.4 L548.898775,216.3 L549.819483,203 L550.740192,242.5 L551.6609,242.5 L552.581609,244.5 L553.502317,244.5 L554.423026,224.1 L555.343734,224.1 L556.264443,216.1 L557.185151,216.1 L558.10586,216.8 L559.026568,216.8 L559.947276,217 L560.867985,217 L561.788693,203.8 L562.709402,203.8 L563.63011,179.1 L564.550819,179.1 L565.471527,201.6 L566.392236,201.6 L567.312944,196.5 L568.233653,196.5 L569.154361,197.5 L570.07507,197.5 L570.995778,204.7 L571.916487,204.7 L572.837195,214.2 L573.757904,214.2 L574.678612,216.2 L575.599321,216.2 L576.520029,202.7 L577.440738,202.7 L578.361446,141.2 L579.282155,141.2 L580.202863,145.6 L581.123572,155.5 L582.04428,155.5 L582.964989,147.1 L583.885697,147.1 L584.806405,117.6 L585.727114,117.6 L586.647822,112.7 L587.568531,112.7 L588.489239,119 L589.409948,119 L590.330656,118 L591.251365,118 L592.172073,110.9 L593.092782,110.9 L594.01349,104.2 L594.934199,124.5 L595.854907,136.1 L596.775616,136.1 L597.696324,120.9 L598.617033,93.2 L599.537741,93.2 L600.45845,95.8 L601.379158,95.8 L602.299867,114.6 L603.220575,114.6 L604.141284,172.2 L605.061992,172.2 L605.982701,175.2 L606.903409,175.2 L607.824117,192.1 L608.744826,192.1 L609.665534,141.5 L610.586243,141.5 L611.506951,79.7 L612.42766,79.7 L613.348368,119.6 L614.269077,119.6 L615.189785,118.5 L616.110494,118.5 L617.031202,118.5 L617.951911,118.5 L618.872619,117.5 L619.793328,117.5 L620.714036,113.8 L621.634745,113.8 L622.555453,119.7 L623.476162,119.7 L624.39687,132.5 L625.317579,132.5 L626.238287,145.8 L627.158996,145.8 L628.079704,120 L629.000413,120 L629.921121,92.8 L630.841829,92.8 L631.762538,42.1 L632.683246,42.1 L633.603955,61.6 L634.524663,61.6 L635.445372,109.5 L636.36608,109.5 L637.286789,101.8 L638.207497,101.8 L639.128206,118 L640.048914,137.1 L640.969623,136.2 L641.890331,120.9 L642.81104,120.9 L643.731748,126.8 L644.652457,126.8 L645.573165,118.8 L646.493874,118.8 L647.414582,97.4 L648.335291,97.4 L649.255999,31.9 L650.176708,31.9 L651.097416,67.4 L652.018125,67.4 L652.938833,160.6 L653.859541,160.6 L654.78025,215.9 L655.700958,215.9 L656.621667,203 L657.542375,203 L658.463084,204.4 L659.383792,204.4 L660.304501,210.4 L661.225209,210.4 L662.145918,198.6 L663.066626,198.6 L663.987335,199.9 L664.908043,199.9 L665.828752,190.3 L666.74946,190.3 L667.670169,160 L668.590877,160 L669.511586,155.4 L670.432294,155.4 L671.353003,144.5 L672.273711,144.5 L673.19442,123.4 L674.115128,123.4 L675.035837,68 L675.956545,68 L676.877253,0 L677.797962,0 L678.71867,78.2 L679.639379,78.2 L680.560087,185.3 L681.480796,185.3 L682.401504,161.4 L683.322213,161.4 L684.242921,204.2 L685.16363,182.5 L686.084338,182.5 L687.005047,157.5 L687.925755,157.5 L688.846464,197.7 L689.767172,197.7 L690.687881,211.1 L691.608589,211.1 L692.529298,208.8 L693.450006,208.8 L694.370715,196.8 L695.291423,196.8 L696.212132,223.9 L697.13284,223.9 L698.053549,244.8 L698.974257,244.8 L699.894966,218.5 L700.815674,218.5 L701.736382,207.3 L702.657091,207.3 L703.577799,211.1 L704.498508,211.1 L705.419216,208 L706.339925,198.4 L707.260633,198.4 L708.181342,201.1 L709.10205,201.1 L710.022759,192.9 L710.943467,192.9 L711.864176,219.8 L712.784884,219.8 L713.705593,197.7 L714.626301,197.7 L715.54701,193.8 L716.467718,193.8 L717.388427,201.6 L718.309135,201.6 L719.229844,212 L720.150552,212 L721.071261,211.9 L721.991969,211.9 L722.912678,208.7 L723.833386,208.7 L724.754094,200.3 L725.674803,200.3 L726.595511,232.9 L727.51622,232.9 L728.436928,237.9 L729.357637,237.9 L730.278345,211.9 L731.199054,211.9 L732.119762,211.9 L733.040471,211.9 L733.961179,212.5 L734.881888,211.5 L735.802596,211.5 L736.723305,198 L737.644013,198 L738.564722,205.5 L739.48543,205.5 L740.406139,227.6 L741.326847,227.6 L742.247556,218.7 L743.168264,218.7 L744.088973,201.9 L745.009681,201.9 L745.93039,208.4 L746.851098,208.4 L747.771806,208.3 L748.692515,208.3 L749.613223,193.4 L750.533932,193.4 L751.45464,196 L752.375349,196 L753.296057,205.8 L754.216766,205.8 L755.137474,238.5 L756.058183,238.5 L756.978891,223.9 L757.8996,223.9 L758.820308,211.1 L759.741017,211.1 L760.661725,195.3 L761.582434,195.3 L762.503142,209.2 L763.423851,209.2 L764.344559,211.9 L765.265268,211.9 L766.185976,209.9 L767.106685,209.9 L768.027393,193.8 L768.948102,193.8 L769.86881,202.3 L770.789518,202.3 L771.710227,221.2 L772.630935,221.2 L773.551644,204.9 L774.472352,204.9 L775.393061,212.2 L776.313769,212.2 L777.234478,203.1 L778.155186,203.1 L779.075895,210.4 L779.996603,210.4 L780.917312,239.9 L781.83802,239.9 L791.83802,239.9"></path>
                </g>
                <g id="Clipped">
                    <mask id="mask-8" sketch:name="Rectangle-path" fill="white">
                        <use xlink:href="#path-7"></use>
                    </mask>
                    <g id="Rectangle-path"></g>
                    <g id="Group" mask="url(#mask-8)" stroke="#8BBC21" stroke-width="4" sketch:type="MSShapeGroup" stroke-linejoin="round">
                        <g transform="translate(70.000000, 5.000000)" id="Shape">
                            <path d="M0.284313725,367 L1.20502221,367 L2.12573069,367 L3.04643917,367 L3.96714765,367 L4.88785613,367 L5.80856461,367 L6.72927309,367 L7.64998157,367 L8.57069005,367 L9.49139853,367 L10.412107,367 L11.3328155,367 L12.253524,367 L13.1742325,367 L14.0949409,367 L15.0156494,367 L15.9363579,367 L16.8570664,367 L17.7777749,367 L18.6984833,367 L19.6191918,367 L20.5399003,367 L21.4606088,367 L22.3813173,367 L23.3020257,367 L24.2227342,367 L25.1434427,367 L26.0641512,367 L26.9848597,367 L27.9055681,367 L28.8262766,367 L29.7469851,367 L30.6676936,367 L31.5884021,367 L32.5091105,367 L33.429819,367 L34.3505275,367 L35.271236,367 L36.1919445,367 L37.1126529,367 L38.0333614,367 L38.9540699,367 L39.8747784,367 L40.7954869,367 L41.7161953,367 L42.6369038,367 L43.5576123,367 L44.4783208,367 L45.3990293,367 L46.3197377,367 L47.2404462,367 L48.1611547,367 L49.0818632,367 L50.0025717,367 L50.9232801,367 L51.8439886,367 L52.7646971,367 L53.6854056,367 L54.6061141,367 L55.5268225,367 L56.447531,367 L57.3682395,367 L58.288948,367 L59.2096565,367 L60.1303649,367 L61.0510734,367 L61.9717819,367 L62.8924904,367 L63.8131989,367 L64.7339073,367 L65.6546158,367 L66.5753243,367 L67.4960328,367 L68.4167413,367 L69.3374498,367 L70.2581582,367 L71.1788667,367 L72.0995752,367 L73.0202837,367 L73.9409922,367 L74.8617006,367 L75.7824091,367 L76.7031176,367 L77.6238261,367 L78.5445346,367 L79.465243,367 L80.3859515,367 L81.30666,367 L82.2273685,367 L83.148077,367 L84.0687854,367 L84.9894939,367 L85.9102024,367 L86.8309109,367 L87.7516194,367 L88.6723278,367 L89.5930363,367 L90.5137448,367 L91.4344533,367 L92.3551618,367 L93.2758702,367 L94.1965787,367 L95.1172872,367 L96.0379957,367 L96.9587042,367 L97.8794126,367 L98.8001211,367 L99.7208296,367 L100.641538,367 L101.562247,367 L102.482955,367 L103.403664,367 L104.324372,367 L105.24508,367 L106.165789,367 L107.086497,367 L108.007206,367 L108.927914,367 L109.848623,367 L110.769331,367 L111.69004,367 L112.610748,367 L113.531457,367 L114.452165,367 L115.372874,367 L116.293582,367 L117.214291,367 L118.134999,367 L119.055708,367 L119.976416,367 L120.897125,367 L121.817833,367 L122.738542,367 L123.65925,367 L124.579959,367 L125.500667,367 L126.421376,367 L127.342084,367 L128.262792,367 L129.183501,367 L130.104209,367 L131.024918,367 L131.945626,367 L132.866335,367 L133.787043,367 L134.707752,367 L135.62846,367 L136.549169,367 L137.469877,367 L138.390586,367 L139.311294,367 L140.232003,367 L141.152711,367 L142.07342,367 L142.994128,367 L143.914837,367 L144.835545,367 L145.756254,367 L146.676962,367 L147.597671,367 L148.518379,367 L149.439088,367 L150.359796,367 L151.280505,367 L152.201213,367 L153.121921,367 L154.04263,367 L154.963338,367 L155.884047,367 L156.804755,367 L157.725464,367 L158.646172,367 L159.566881,367 L160.487589,367 L161.408298,367 L162.329006,367 L163.249715,367 L164.170423,367 L165.091132,367 L166.01184,367 L166.932549,367 L167.853257,367 L168.773966,367 L169.694674,367 L170.615383,367 L171.536091,367 L172.4568,367 L173.377508,367 L174.298217,367 L175.218925,367 L176.139633,367 L177.060342,367 L177.98105,367 L178.901759,367 L179.822467,367 L180.743176,367 L181.663884,367 L182.584593,367 L183.505301,367 L184.42601,367 L185.346718,367 L186.267427,367 L187.188135,367 L188.108844,367 L189.029552,367 L189.950261,367 L190.870969,367 L191.791678,367 L192.712386,367 L193.633095,367 L194.553803,367 L195.474512,367 L196.39522,367 L197.315929,367 L198.236637,367 L199.157345,367 L200.078054,367 L200.998762,367 L201.919471,367 L202.840179,367 L203.760888,367 L204.681596,367 L205.602305,367 L206.523013,367 L207.443722,367 L208.36443,367 L209.285139,367 L210.205847,367 L211.126556,367 L212.047264,367 L212.967973,367 L213.888681,367 L214.80939,367 L215.730098,367 L216.650807,367 L217.571515,367 L218.492224,367 L219.412932,367 L220.333641,367 L221.254349,367 L222.175057,367 L223.095766,367 L224.016474,367 L224.937183,367 L225.857891,367 L226.7786,367 L227.699308,367 L228.620017,367 L229.540725,367 L230.461434,367 L231.382142,367 L232.302851,367 L233.223559,367 L234.144268,367 L235.064976,367 L235.985685,367 L236.906393,367 L237.827102,367 L238.74781,367 L239.668519,367 L240.589227,367 L241.509936,367 L242.430644,367 L243.351353,367 L244.272061,367 L245.192769,367 L246.113478,367 L247.034186,367 L247.954895,367 L248.875603,367 L249.796312,367 L250.71702,367 L251.637729,367 L252.558437,367 L253.479146,367 L254.399854,367 L255.320563,367 L256.241271,367 L257.16198,367 L258.082688,367 L259.003397,367 L259.924105,367 L260.844814,367 L261.765522,367 L262.686231,367 L263.606939,367 L264.527648,367 L265.448356,367 L266.369065,367 L267.289773,367 L268.210482,367 L269.13119,367 L270.051898,367 L270.972607,367 L271.893315,367 L272.814024,367 L273.734732,367 L274.655441,367 L275.576149,367 L276.496858,367 L277.417566,367 L278.338275,367 L279.258983,367 L280.179692,367 L281.1004,367 L282.021109,367 L282.941817,367 L283.862526,367 L284.783234,367 L285.703943,367 L286.624651,367 L287.54536,367 L288.466068,367 L289.386777,367 L290.307485,367 L291.228194,367 L292.148902,367 L293.06961,367 L293.990319,367 L294.911027,367 L295.831736,367 L296.752444,367 L297.673153,367 L298.593861,367 L299.51457,367 L300.435278,367 L301.355987,367 L302.276695,367 L303.197404,367 L304.118112,367 L305.038821,367 L305.959529,367 L306.880238,367 L307.800946,367 L308.721655,367 L309.642363,367 L310.563072,367 L311.48378,367 L312.404489,367 L313.325197,367 L314.245906,367 L315.166614,367 L316.087322,367 L317.008031,367 L317.928739,367 L318.849448,367 L319.770156,367 L320.690865,367 L321.611573,367 L322.532282,367 L323.45299,367 L324.373699,367 L325.294407,367 L326.215116,367 L327.135824,367 L328.056533,367 L328.977241,367 L329.89795,367 L330.818658,367 L331.739367,367 L332.660075,367 L333.580784,367 L334.501492,367 L335.422201,367 L336.342909,367 L337.263618,367 L338.184326,367 L339.105034,367 L340.025743,367 L340.946451,367 L341.86716,367 L342.787868,367 L343.708577,367 L344.629285,367 L345.549994,367 L346.470702,367 L347.391411,367 L348.312119,367 L349.232828,367 L350.153536,367 L351.074245,367 L351.994953,367 L352.915662,367 L353.83637,367 L354.757079,367 L355.677787,367 L356.598496,367 L357.519204,367 L358.439913,367 L359.360621,367 L360.28133,367 L361.202038,367 L362.122747,367 L363.043455,367 L363.964163,367 L364.884872,367 L365.80558,367 L366.726289,367 L367.646997,367 L368.567706,367 L369.488414,367 L370.409123,367 L371.329831,367 L372.25054,367 L373.171248,367 L374.091957,367 L375.012665,367 L375.933374,367 L376.854082,367 L377.774791,367 L378.695499,367 L379.616208,367 L380.536916,367 L381.457625,367 L382.378333,367 L383.299042,367 L384.21975,367 L385.140459,367 L386.061167,367 L386.981875,367 L387.902584,367 L388.823292,367 L389.744001,367 L390.664709,367 L391.585418,367 L392.506126,367 L393.426835,367 L394.347543,367 L395.268252,367 L396.18896,367 L397.109669,367 L398.030377,367 L398.951086,367 L399.871794,367 L400.792503,367 L401.713211,367 L402.63392,367 L403.554628,367 L404.475337,367 L405.396045,367 L406.316754,367 L407.237462,367 L408.158171,367 L409.078879,367 L409.999587,367 L410.920296,367 L411.841004,367 L412.761713,367 L413.682421,367 L414.60313,367 L415.523838,367 L416.444547,367 L417.365255,367 L418.285964,367 L419.206672,367 L420.127381,367 L421.048089,367 L421.968798,367 L422.889506,367 L423.810215,367 L424.730923,367 L425.651632,367 L426.57234,367 L427.493049,367 L428.413757,367 L429.334466,367 L430.255174,367 L431.175883,367 L432.096591,367 L433.017299,367 L433.938008,367 L434.858716,367 L435.779425,367 L436.700133,367 L437.620842,367 L438.54155,367 L439.462259,367 L440.382967,367 L441.303676,367 L442.224384,367 L443.145093,367 L444.065801,367 L444.98651,367 L445.907218,367 L446.827927,367 L447.748635,367 L448.669344,367 L449.590052,367 L450.510761,367 L451.431469,367 L452.352178,367 L453.272886,367 L454.193595,367 L455.114303,367 L456.035011,367 L456.95572,367 L457.876428,367 L458.797137,367 L459.717845,367 L460.638554,367 L461.559262,367 L462.479971,367 L463.400679,367 L464.321388,367 L465.242096,367 L466.162805,367 L467.083513,367 L468.004222,367 L468.92493,367 L469.845639,367 L470.766347,367 L471.687056,367 L472.607764,367 L473.528473,367 L474.449181,367 L475.36989,367 L476.290598,367 L477.211307,367 L478.132015,367 L479.052724,367 L479.973432,367 L480.89414,367 L481.814849,367 L482.735557,367 L483.656266,367 L484.576974,367 L485.497683,367 L486.418391,367 L487.3391,367 L488.259808,367 L489.180517,367 L490.101225,367 L491.021934,367 L491.942642,367 L492.863351,367 L493.784059,367 L494.704768,367 L495.625476,367 L496.546185,367 L497.466893,367 L498.387602,367 L499.30831,367 L500.229019,367 L501.149727,367 L502.070436,367 L502.991144,367 L503.911852,367 L504.832561,367 L505.753269,367 L506.673978,367 L507.594686,367 L508.515395,367 L509.436103,367 L510.356812,367 L511.27752,367 L512.198229,367 L513.118937,367 L514.039646,367 L514.960354,367 L515.881063,367 L516.801771,367 L517.72248,367 L518.643188,367 L519.563897,367 L520.484605,367 L521.405314,367 L522.326022,367 L523.246731,367 L524.167439,367 L525.088148,367 L526.008856,367 L526.929564,367 L527.850273,367 L528.770981,367 L529.69169,367 L530.612398,367 L531.533107,367 L532.453815,367 L533.374524,367 L534.295232,367 L535.215941,367 L536.136649,367 L537.057358,367 L537.978066,367 L538.898775,367 L539.819483,367 L540.740192,367 L541.6609,367 L542.581609,367 L543.502317,367 L544.423026,367 L545.343734,367 L546.264443,367 L547.185151,367 L548.10586,367 L549.026568,367 L549.947276,367 L550.867985,367 L551.788693,367 L552.709402,367 L553.63011,367 L554.550819,367 L555.471527,367 L556.392236,367 L557.312944,367 L558.233653,367 L559.154361,367 L560.07507,367 L560.995778,367 L561.916487,367 L562.837195,367 L563.757904,367 L564.678612,367 L565.599321,367 L566.520029,367 L567.440738,367 L568.361446,367 L569.282155,367 L570.202863,367 L571.123572,367 L572.04428,367 L572.964989,367 L573.885697,367 L574.806405,367 L575.727114,367 L576.647822,367 L577.568531,367 L578.489239,367 L579.409948,367 L580.330656,367 L581.251365,367 L582.172073,367 L583.092782,367 L584.01349,367 L584.934199,367 L585.854907,367 L586.775616,367 L587.696324,367 L588.617033,367 L589.537741,367 L590.45845,367 L591.379158,367 L592.299867,367 L593.220575,367 L594.141284,367 L595.061992,367 L595.982701,367 L596.903409,367 L597.824117,367 L598.744826,367 L599.665534,367 L600.586243,367 L601.506951,367 L602.42766,367 L603.348368,367 L604.269077,367 L605.189785,367 L606.110494,367 L607.031202,367 L607.951911,367 L608.872619,367 L609.793328,367 L610.714036,367 L611.634745,367 L612.555453,367 L613.476162,367 L614.39687,367 L615.317579,367 L616.238287,367 L617.158996,367 L618.079704,367 L619.000413,367 L619.921121,367 L620.841829,367 L621.762538,367 L622.683246,367 L623.603955,367 L624.524663,367 L625.445372,367 L626.36608,367 L627.286789,367 L628.207497,367 L629.128206,367 L630.048914,367 L630.969623,367 L631.890331,367 L632.81104,367 L633.731748,367 L634.652457,367 L635.573165,367 L636.493874,367 L637.414582,367 L638.335291,367 L639.255999,367 L640.176708,367 L641.097416,367 L642.018125,367 L642.938833,367 L643.859541,367 L644.78025,367 L645.700958,367 L646.621667,367 L647.542375,367 L648.463084,367 L649.383792,367 L650.304501,367 L651.225209,367 L652.145918,367 L653.066626,367 L653.987335,367 L654.908043,367 L655.828752,367 L656.74946,367 L657.670169,367 L658.590877,367 L659.511586,367 L660.432294,367 L661.353003,367 L662.273711,367 L663.19442,367 L664.115128,367 L665.035837,367 L665.956545,367 L666.877253,367 L667.797962,367 L668.71867,367 L669.639379,367 L670.560087,367 L671.480796,367 L672.401504,367 L673.322213,367 L674.242921,367 L675.16363,367 L676.084338,367 L677.005047,367 L677.925755,367 L678.846464,367 L679.767172,367 L680.687881,367 L681.608589,367 L682.529298,367 L683.450006,367 L684.370715,367 L685.291423,367 L686.212132,367 L687.13284,367 L688.053549,367 L688.974257,367 L689.894966,367 L690.815674,367 L691.736382,367 L692.657091,367 L693.577799,367 L694.498508,367 L695.419216,367 L696.339925,367 L697.260633,367 L698.181342,367 L699.10205,367 L700.022759,367 L700.943467,367 L701.864176,367 L702.784884,367 L703.705593,367 L704.626301,367 L705.54701,367 L706.467718,367 L707.388427,367 L708.309135,367 L709.229844,367 L710.150552,367 L711.071261,367 L711.991969,367 L712.912678,367 L713.833386,367 L714.754094,367 L715.674803,367 L716.595511,367 L717.51622,367 L718.436928,367 L719.357637,367 L720.278345,367 L721.199054,367 L722.119762,367 L723.040471,367 L723.961179,367 L724.881888,367 L725.802596,367 L726.723305,367 L727.644013,367 L728.564722,367 L729.48543,367 L730.406139,367 L731.326847,367 L732.247556,367 L733.168264,367 L734.088973,367 L735.009681,367 L735.93039,367 L736.851098,367 L737.771806,367 L738.692515,367 L739.613223,367 L740.533932,367 L741.45464,367 L742.375349,367 L743.296057,367 L744.216766,367 L745.137474,367 L746.058183,367 L746.978891,367 L747.8996,367 L748.820308,367 L749.741017,367 L750.661725,367 L751.582434,367 L752.503142,367 L753.423851,367 L754.344559,367 L755.265268,367 L756.185976,367 L757.106685,367 L758.027393,367 L758.948102,367 L759.86881,367 L760.789518,367 L761.710227,367 L762.630935,367 L763.551644,367 L764.472352,367 L765.393061,367 L766.313769,367 L767.234478,367 L768.155186,367 L769.075895,367 L769.996603,367 L770.917312,367 L771.83802,305.9 L772.758729,318.5 L773.679437,318.5 L774.600146,299.1 L775.520854,299.1 L776.441563,296 L777.362271,296 L778.28298,293.6 L779.203688,293.6 L780.124397,294.6 L781.045105,294.6 L781.965814,295 L782.886522,295 L783.807231,293.6 L784.727939,293.6 L785.648647,285.2 L786.569356,285.2 L787.490064,277 L788.410773,277 L789.331481,291.1 L790.25219,291.1 L791.172898,279.5 L792.093607,279.5 L793.014315,278.1 L793.935024,278.1 L794.855732,288.1 L795.776441,288.1 L796.697149,290 L797.617858,290 L798.538566,286.9 L799.459275,286.9 L800.379983,246.5 L801.300692,246.5 L802.2214,215.2 L803.142109,215.2 L804.062817,280.8 L804.983526,292.3 L805.904234,292.3 L806.824943,279.4 L807.745651,279.4 L808.666359,278.1 L809.587068,278.1 L810.507776,290.3 L811.428485,290.3 L812.349193,240.2 L813.269902,240.2 L814.19061,239.8 L815.111319,239.8 L816.032027,297.7 L816.952736,297.7 L817.873444,289.9 L818.794153,289.9 L819.714861,282.2 L820.63557,282.2 L821.556278,280.8 L822.476987,280.8 L823.397695,290.5 L824.318404,290.5 L825.239112,294.6 L826.159821,294.6 L827.080529,293.6 L828.001238,293.6 L828.921946,293.8 L829.842655,293.8 L830.763363,291 L831.684071,291 L832.60478,304.5 L833.525488,304.5 L834.446197,301.2 L835.366905,301.2 L836.287614,292.3 L837.208322,292.3 L838.129031,288.7 L839.049739,288.7 L839.970448,294.1 L840.891156,294.1 L841.811865,293.9 L842.732573,293.9 L843.653282,271.5 L844.57399,271.5 L845.494699,222.6 L846.415407,230.5 L847.336116,230.5 L848.256824,227.3 L849.177533,227.3 L850.098241,212.9 L851.01895,212.9 L851.939658,211.6 L852.860367,194.1 L853.781075,194.1 L854.701783,209.4 L855.622492,209.4 L856.5432,208.4 L857.463909,208.4 L858.384617,212.7 L859.305326,212.7 L860.226034,226.9 L861.146743,226.9 L862.067451,215.8 L862.98816,215.8 L863.908868,200.8 L864.829577,200.8 L865.750285,196.7 L866.670994,196.7 L867.591702,202.4 L868.512411,202.4 L869.433119,207.5 L870.353828,207.5 L871.274536,174.7 L872.195245,174.7 L873.115953,129.7 L874.036662,129.7 L874.95737,101.8 L875.878079,101.8 L876.798787,103.9 L877.719495,103.9 L878.640204,145 L879.560912,145 L880.481621,209.6 L881.402329,209.6 L882.323038,259.1 L883.243746,259.1 L884.164455,262.3 L885.085163,262.3 L886.005872,253.2 L886.92658,253.2 L887.847289,150.6 L888.767997,150.6 L889.688706,147.5 L890.609414,147.5 L891.530123,215.8 L892.450831,215.8 L893.37154,207.2 L894.292248,207.2 L895.212957,195.7 L896.133665,196.1 L897.054374,196.1 L897.975082,200 L898.895791,200 L899.816499,187.3 L900.737208,187.3 L901.657916,205.3 L902.578624,205.3 L903.499333,222.1 L904.420041,222.1 L905.34075,214.2 L906.261458,214.2 L907.182167,205.3 L908.102875,205.3 L909.023584,149.3 L909.944292,149.3 L910.865001,76.6 L911.785709,76.6 L912.706418,181.1 L913.627126,181.1 L914.547835,198.1 L915.468543,198.1 L916.389252,206 L917.30996,206 L918.230669,226.7 L919.151377,226.7 L920.072086,234.6 L920.992794,234.6 L921.913503,214.4 L922.834211,214.4 L923.75492,204.4 L924.675628,204.4 L925.596336,204.9 L926.517045,204.9 L927.437753,211.5 L928.358462,211.5 L929.27917,211.9 L930.199879,211.9 L931.120587,114.2 L932.041296,114.2 L932.962004,100.5 L933.882713,100.5 L934.803421,232.3 L935.72413,232.3 L936.644838,278.8 L937.565547,278.8 L938.486255,277 L939.406964,277 L940.327672,289.5 L941.248381,289.5 L942.169089,260.4 L943.089798,227.8 L944.010506,227.8 L944.931215,232.5 L945.851923,232.5 L946.772632,217.7 L947.69334,217.7 L948.614048,170.8 L949.534757,170.8 L950.455465,0.3 L951.376174,0.3 L952.296882,77.2 L953.217591,77.2 L954.138299,247.8 L955.059008,247.8 L955.979716,276.3 L956.900425,276.3 L957.821133,256.5 L958.741842,256.5 L959.66255,291.2 L960.583259,291.2 L961.503967,285 L962.424676,285 L963.345384,274 L964.266093,274 L965.186801,283.5 L966.10751,283.5 L967.028218,289.6 L967.948927,289.6 L968.869635,290.4 L969.790344,290.4 L970.711052,289.6 L971.63176,289.6 L972.552469,284.4 L973.473177,284.4 L974.393886,302.4 L975.314594,302.4 L976.235303,299.6 L977.156011,299.6 L978.07672,292.7 L978.997428,292.7 L979.918137,286.2 L980.838845,286.2 L981.759554,286.9 L982.680262,286.9 L983.600971,272 L984.521679,242.1 L985.442388,277.8 L986.363096,286.3 L987.283805,286.3 L988.204513,292.7 L989.125222,292.7 L990.04593,283.1 L990.966639,283.1 L991.887347,281.4 L992.808056,281.4 L993.728764,288.1 L994.649473,288.1 L995.570181,280.8 L996.490889,280.8 L997.411598,280.1 L998.332306,280.1 L999.253015,277 L1000.17372,277 L1001.09443,270.4 L1002.01514,270.4 L1002.93585,313.1 L1003.85656,313.1 L1004.77727,305.5 L1005.69797,305.5 L1006.61868,290.2 L1007.53939,290.2 L1008.4601,284.4 L1009.38081,284.4 L1010.30152,288.9 L1011.22223,288.9 L1012.14293,288.7 L1013.06364,288.7 L1013.98435,289.7 L1014.90506,283.5 L1015.82577,283.5 L1016.74648,294.1 L1017.66718,294.1 L1018.58789,289.6 L1019.5086,289.6 L1020.42931,282.2 L1021.35002,282.2 L1022.27073,278.9 L1023.19144,278.9 L1024.11214,287 L1025.03285,287 L1025.95356,288.3 L1026.87427,288.3 L1027.79498,288.9 L1028.71569,288.9"></path>
                        </g>
                    </g>
                </g>
                <g transform="translate(60.000000, 5.000000)" id="Shape" stroke-opacity="0.0001" stroke="#C0C0C0" stroke-width="21" sketch:type="MSShapeGroup">
                    <path d="M0.284313725,367 L10.2843137,367 L11.2050222,367 L12.1257307,367 L13.0464392,367 L13.9671476,367 L14.8878561,367 L15.8085646,367 L16.7292731,367 L17.6499816,367 L18.57069,367 L19.4913985,367 L20.412107,367 L21.3328155,367 L22.253524,367 L23.1742325,367 L24.0949409,367 L25.0156494,367 L25.9363579,367 L26.8570664,367 L27.7777749,367 L28.6984833,367 L29.6191918,367 L30.5399003,367 L31.4606088,367 L32.3813173,367 L33.3020257,367 L34.2227342,367 L35.1434427,367 L36.0641512,367 L36.9848597,367 L37.9055681,367 L38.8262766,367 L39.7469851,367 L40.6676936,367 L41.5884021,367 L42.5091105,367 L43.429819,367 L44.3505275,367 L45.271236,367 L46.1919445,367 L47.1126529,367 L48.0333614,367 L48.9540699,367 L49.8747784,367 L50.7954869,367 L51.7161953,367 L52.6369038,367 L53.5576123,367 L54.4783208,367 L55.3990293,367 L56.3197377,367 L57.2404462,367 L58.1611547,367 L59.0818632,367 L60.0025717,367 L60.9232801,367 L61.8439886,367 L62.7646971,367 L63.6854056,367 L64.6061141,367 L65.5268225,367 L66.447531,367 L67.3682395,367 L68.288948,367 L69.2096565,367 L70.1303649,367 L71.0510734,367 L71.9717819,367 L72.8924904,367 L73.8131989,367 L74.7339073,367 L75.6546158,367 L76.5753243,367 L77.4960328,367 L78.4167413,367 L79.3374498,367 L80.2581582,367 L81.1788667,367 L82.0995752,367 L83.0202837,367 L83.9409922,367 L84.8617006,367 L85.7824091,367 L86.7031176,367 L87.6238261,367 L88.5445346,367 L89.465243,367 L90.3859515,367 L91.30666,367 L92.2273685,367 L93.148077,367 L94.0687854,367 L94.9894939,367 L95.9102024,367 L96.8309109,367 L97.7516194,367 L98.6723278,367 L99.5930363,367 L100.513745,367 L101.434453,367 L102.355162,367 L103.27587,367 L104.196579,367 L105.117287,367 L106.037996,367 L106.958704,367 L107.879413,367 L108.800121,367 L109.72083,367 L110.641538,367 L111.562247,367 L112.482955,367 L113.403664,367 L114.324372,367 L115.24508,367 L116.165789,367 L117.086497,367 L118.007206,367 L118.927914,367 L119.848623,367 L120.769331,367 L121.69004,367 L122.610748,367 L123.531457,367 L124.452165,367 L125.372874,367 L126.293582,367 L127.214291,367 L128.134999,367 L129.055708,367 L129.976416,367 L130.897125,367 L131.817833,367 L132.738542,367 L133.65925,367 L134.579959,367 L135.500667,367 L136.421376,367 L137.342084,367 L138.262792,367 L139.183501,367 L140.104209,367 L141.024918,367 L141.945626,367 L142.866335,367 L143.787043,367 L144.707752,367 L145.62846,367 L146.549169,367 L147.469877,367 L148.390586,367 L149.311294,367 L150.232003,367 L151.152711,367 L152.07342,367 L152.994128,367 L153.914837,367 L154.835545,367 L155.756254,367 L156.676962,367 L157.597671,367 L158.518379,367 L159.439088,367 L160.359796,367 L161.280505,367 L162.201213,367 L163.121921,367 L164.04263,367 L164.963338,367 L165.884047,367 L166.804755,367 L167.725464,367 L168.646172,367 L169.566881,367 L170.487589,367 L171.408298,367 L172.329006,367 L173.249715,367 L174.170423,367 L175.091132,367 L176.01184,367 L176.932549,367 L177.853257,367 L178.773966,367 L179.694674,367 L180.615383,367 L181.536091,367 L182.4568,367 L183.377508,367 L184.298217,367 L185.218925,367 L186.139633,367 L187.060342,367 L187.98105,367 L188.901759,367 L189.822467,367 L190.743176,367 L191.663884,367 L192.584593,367 L193.505301,367 L194.42601,367 L195.346718,367 L196.267427,367 L197.188135,367 L198.108844,367 L199.029552,367 L199.950261,367 L200.870969,367 L201.791678,367 L202.712386,367 L203.633095,367 L204.553803,367 L205.474512,367 L206.39522,367 L207.315929,367 L208.236637,367 L209.157345,367 L210.078054,367 L210.998762,367 L211.919471,367 L212.840179,367 L213.760888,367 L214.681596,367 L215.602305,367 L216.523013,367 L217.443722,367 L218.36443,367 L219.285139,367 L220.205847,367 L221.126556,367 L222.047264,367 L222.967973,367 L223.888681,367 L224.80939,367 L225.730098,367 L226.650807,367 L227.571515,367 L228.492224,367 L229.412932,367 L230.333641,367 L231.254349,367 L232.175057,367 L233.095766,367 L234.016474,367 L234.937183,367 L235.857891,367 L236.7786,367 L237.699308,367 L238.620017,367 L239.540725,367 L240.461434,367 L241.382142,367 L242.302851,367 L243.223559,367 L244.144268,367 L245.064976,367 L245.985685,367 L246.906393,367 L247.827102,367 L248.74781,367 L249.668519,367 L250.589227,367 L251.509936,367 L252.430644,367 L253.351353,367 L254.272061,367 L255.192769,367 L256.113478,367 L257.034186,367 L257.954895,367 L258.875603,367 L259.796312,367 L260.71702,367 L261.637729,367 L262.558437,367 L263.479146,367 L264.399854,367 L265.320563,367 L266.241271,367 L267.16198,367 L268.082688,367 L269.003397,367 L269.924105,367 L270.844814,367 L271.765522,367 L272.686231,367 L273.606939,367 L274.527648,367 L275.448356,367 L276.369065,367 L277.289773,367 L278.210482,367 L279.13119,367 L280.051898,367 L280.972607,367 L281.893315,367 L282.814024,367 L283.734732,367 L284.655441,367 L285.576149,367 L286.496858,367 L287.417566,367 L288.338275,367 L289.258983,367 L290.179692,367 L291.1004,367 L292.021109,367 L292.941817,367 L293.862526,367 L294.783234,367 L295.703943,367 L296.624651,367 L297.54536,367 L298.466068,367 L299.386777,367 L300.307485,367 L301.228194,367 L302.148902,367 L303.06961,367 L303.990319,367 L304.911027,367 L305.831736,367 L306.752444,367 L307.673153,367 L308.593861,367 L309.51457,367 L310.435278,367 L311.355987,367 L312.276695,367 L313.197404,367 L314.118112,367 L315.038821,367 L315.959529,367 L316.880238,367 L317.800946,367 L318.721655,367 L319.642363,367 L320.563072,367 L321.48378,367 L322.404489,367 L323.325197,367 L324.245906,367 L325.166614,367 L326.087322,367 L327.008031,367 L327.928739,367 L328.849448,367 L329.770156,367 L330.690865,367 L331.611573,367 L332.532282,367 L333.45299,367 L334.373699,367 L335.294407,367 L336.215116,367 L337.135824,367 L338.056533,367 L338.977241,367 L339.89795,367 L340.818658,367 L341.739367,367 L342.660075,367 L343.580784,367 L344.501492,367 L345.422201,367 L346.342909,367 L347.263618,367 L348.184326,367 L349.105034,367 L350.025743,367 L350.946451,367 L351.86716,367 L352.787868,367 L353.708577,367 L354.629285,367 L355.549994,367 L356.470702,367 L357.391411,367 L358.312119,367 L359.232828,367 L360.153536,367 L361.074245,367 L361.994953,367 L362.915662,367 L363.83637,367 L364.757079,367 L365.677787,367 L366.598496,367 L367.519204,367 L368.439913,367 L369.360621,367 L370.28133,367 L371.202038,367 L372.122747,367 L373.043455,367 L373.964163,367 L374.884872,367 L375.80558,367 L376.726289,367 L377.646997,367 L378.567706,367 L379.488414,367 L380.409123,367 L381.329831,367 L382.25054,367 L383.171248,367 L384.091957,367 L385.012665,367 L385.933374,367 L386.854082,367 L387.774791,367 L388.695499,367 L389.616208,367 L390.536916,367 L391.457625,367 L392.378333,367 L393.299042,367 L394.21975,367 L395.140459,367 L396.061167,367 L396.981875,367 L397.902584,367 L398.823292,367 L399.744001,367 L400.664709,367 L401.585418,367 L402.506126,367 L403.426835,367 L404.347543,367 L405.268252,367 L406.18896,367 L407.109669,367 L408.030377,367 L408.951086,367 L409.871794,367 L410.792503,367 L411.713211,367 L412.63392,367 L413.554628,367 L414.475337,367 L415.396045,367 L416.316754,367 L417.237462,367 L418.158171,367 L419.078879,367 L419.999587,367 L420.920296,367 L421.841004,367 L422.761713,367 L423.682421,367 L424.60313,367 L425.523838,367 L426.444547,367 L427.365255,367 L428.285964,367 L429.206672,367 L430.127381,367 L431.048089,367 L431.968798,367 L432.889506,367 L433.810215,367 L434.730923,367 L435.651632,367 L436.57234,367 L437.493049,367 L438.413757,367 L439.334466,367 L440.255174,367 L441.175883,367 L442.096591,367 L443.017299,367 L443.938008,367 L444.858716,367 L445.779425,367 L446.700133,367 L447.620842,367 L448.54155,367 L449.462259,367 L450.382967,367 L451.303676,367 L452.224384,367 L453.145093,367 L454.065801,367 L454.98651,367 L455.907218,367 L456.827927,367 L457.748635,367 L458.669344,367 L459.590052,367 L460.510761,367 L461.431469,367 L462.352178,367 L463.272886,367 L464.193595,367 L465.114303,367 L466.035011,367 L466.95572,367 L467.876428,367 L468.797137,367 L469.717845,367 L470.638554,367 L471.559262,367 L472.479971,367 L473.400679,367 L474.321388,367 L475.242096,367 L476.162805,367 L477.083513,367 L478.004222,367 L478.92493,367 L479.845639,367 L480.766347,367 L481.687056,367 L482.607764,367 L483.528473,367 L484.449181,367 L485.36989,367 L486.290598,367 L487.211307,367 L488.132015,367 L489.052724,367 L489.973432,367 L490.89414,367 L491.814849,367 L492.735557,367 L493.656266,367 L494.576974,367 L495.497683,367 L496.418391,367 L497.3391,367 L498.259808,367 L499.180517,367 L500.101225,367 L501.021934,367 L501.942642,367 L502.863351,367 L503.784059,367 L504.704768,367 L505.625476,367 L506.546185,367 L507.466893,367 L508.387602,367 L509.30831,367 L510.229019,367 L511.149727,367 L512.070436,367 L512.991144,367 L513.911852,367 L514.832561,367 L515.753269,367 L516.673978,367 L517.594686,367 L518.515395,367 L519.436103,367 L520.356812,367 L521.27752,367 L522.198229,367 L523.118937,367 L524.039646,367 L524.960354,367 L525.881063,367 L526.801771,367 L527.72248,367 L528.643188,367 L529.563897,367 L530.484605,367 L531.405314,367 L532.326022,367 L533.246731,367 L534.167439,367 L535.088148,367 L536.008856,367 L536.929564,367 L537.850273,367 L538.770981,367 L539.69169,367 L540.612398,367 L541.533107,367 L542.453815,367 L543.374524,367 L544.295232,367 L545.215941,367 L546.136649,367 L547.057358,367 L547.978066,367 L548.898775,367 L549.819483,367 L550.740192,367 L551.6609,367 L552.581609,367 L553.502317,367 L554.423026,367 L555.343734,367 L556.264443,367 L557.185151,367 L558.10586,367 L559.026568,367 L559.947276,367 L560.867985,367 L561.788693,367 L562.709402,367 L563.63011,367 L564.550819,367 L565.471527,367 L566.392236,367 L567.312944,367 L568.233653,367 L569.154361,367 L570.07507,367 L570.995778,367 L571.916487,367 L572.837195,367 L573.757904,367 L574.678612,367 L575.599321,367 L576.520029,367 L577.440738,367 L578.361446,367 L579.282155,367 L580.202863,367 L581.123572,367 L582.04428,367 L582.964989,367 L583.885697,367 L584.806405,367 L585.727114,367 L586.647822,367 L587.568531,367 L588.489239,367 L589.409948,367 L590.330656,367 L591.251365,367 L592.172073,367 L593.092782,367 L594.01349,367 L594.934199,367 L595.854907,367 L596.775616,367 L597.696324,367 L598.617033,367 L599.537741,367 L600.45845,367 L601.379158,367 L602.299867,367 L603.220575,367 L604.141284,367 L605.061992,367 L605.982701,367 L606.903409,367 L607.824117,367 L608.744826,367 L609.665534,367 L610.586243,367 L611.506951,367 L612.42766,367 L613.348368,367 L614.269077,367 L615.189785,367 L616.110494,367 L617.031202,367 L617.951911,367 L618.872619,367 L619.793328,367 L620.714036,367 L621.634745,367 L622.555453,367 L623.476162,367 L624.39687,367 L625.317579,367 L626.238287,367 L627.158996,367 L628.079704,367 L629.000413,367 L629.921121,367 L630.841829,367 L631.762538,367 L632.683246,367 L633.603955,367 L634.524663,367 L635.445372,367 L636.36608,367 L637.286789,367 L638.207497,367 L639.128206,367 L640.048914,367 L640.969623,367 L641.890331,367 L642.81104,367 L643.731748,367 L644.652457,367 L645.573165,367 L646.493874,367 L647.414582,367 L648.335291,367 L649.255999,367 L650.176708,367 L651.097416,367 L652.018125,367 L652.938833,367 L653.859541,367 L654.78025,367 L655.700958,367 L656.621667,367 L657.542375,367 L658.463084,367 L659.383792,367 L660.304501,367 L661.225209,367 L662.145918,367 L663.066626,367 L663.987335,367 L664.908043,367 L665.828752,367 L666.74946,367 L667.670169,367 L668.590877,367 L669.511586,367 L670.432294,367 L671.353003,367 L672.273711,367 L673.19442,367 L674.115128,367 L675.035837,367 L675.956545,367 L676.877253,367 L677.797962,367 L678.71867,367 L679.639379,367 L680.560087,367 L681.480796,367 L682.401504,367 L683.322213,367 L684.242921,367 L685.16363,367 L686.084338,367 L687.005047,367 L687.925755,367 L688.846464,367 L689.767172,367 L690.687881,367 L691.608589,367 L692.529298,367 L693.450006,367 L694.370715,367 L695.291423,367 L696.212132,367 L697.13284,367 L698.053549,367 L698.974257,367 L699.894966,367 L700.815674,367 L701.736382,367 L702.657091,367 L703.577799,367 L704.498508,367 L705.419216,367 L706.339925,367 L707.260633,367 L708.181342,367 L709.10205,367 L710.022759,367 L710.943467,367 L711.864176,367 L712.784884,367 L713.705593,367 L714.626301,367 L715.54701,367 L716.467718,367 L717.388427,367 L718.309135,367 L719.229844,367 L720.150552,367 L721.071261,367 L721.991969,367 L722.912678,367 L723.833386,367 L724.754094,367 L725.674803,367 L726.595511,367 L727.51622,367 L728.436928,367 L729.357637,367 L730.278345,367 L731.199054,367 L732.119762,367 L733.040471,367 L733.961179,367 L734.881888,367 L735.802596,367 L736.723305,367 L737.644013,367 L738.564722,367 L739.48543,367 L740.406139,367 L741.326847,367 L742.247556,367 L743.168264,367 L744.088973,367 L745.009681,367 L745.93039,367 L746.851098,367 L747.771806,367 L748.692515,367 L749.613223,367 L750.533932,367 L751.45464,367 L752.375349,367 L753.296057,367 L754.216766,367 L755.137474,367 L756.058183,367 L756.978891,367 L757.8996,367 L758.820308,367 L759.741017,367 L760.661725,367 L761.582434,367 L762.503142,367 L763.423851,367 L764.344559,367 L765.265268,367 L766.185976,367 L767.106685,367 L768.027393,367 L768.948102,367 L769.86881,367 L770.789518,367 L771.710227,367 L772.630935,367 L773.551644,367 L774.472352,367 L775.393061,367 L776.313769,367 L777.234478,367 L778.155186,367 L779.075895,367 L779.996603,367 L780.917312,367 L781.83802,305.9 L782.758729,318.5 L783.679437,318.5 L784.600146,299.1 L785.520854,299.1 L786.441563,296 L787.362271,296 L788.28298,293.6 L789.203688,293.6 L790.124397,294.6 L791.045105,294.6 L791.965814,295 L792.886522,295 L793.807231,293.6 L794.727939,293.6 L795.648647,285.2 L796.569356,285.2 L797.490064,277 L798.410773,277 L799.331481,291.1 L800.25219,291.1 L801.172898,279.5 L802.093607,279.5 L803.014315,278.1 L803.935024,278.1 L804.855732,288.1 L805.776441,288.1 L806.697149,290 L807.617858,290 L808.538566,286.9 L809.459275,286.9 L810.379983,246.5 L811.300692,246.5 L812.2214,215.2 L813.142109,215.2 L814.062817,280.8 L814.983526,292.3 L815.904234,292.3 L816.824943,279.4 L817.745651,279.4 L818.666359,278.1 L819.587068,278.1 L820.507776,290.3 L821.428485,290.3 L822.349193,240.2 L823.269902,240.2 L824.19061,239.8 L825.111319,239.8 L826.032027,297.7 L826.952736,297.7 L827.873444,289.9 L828.794153,289.9 L829.714861,282.2 L830.63557,282.2 L831.556278,280.8 L832.476987,280.8 L833.397695,290.5 L834.318404,290.5 L835.239112,294.6 L836.159821,294.6 L837.080529,293.6 L838.001238,293.6 L838.921946,293.8 L839.842655,293.8 L840.763363,291 L841.684071,291 L842.60478,304.5 L843.525488,304.5 L844.446197,301.2 L845.366905,301.2 L846.287614,292.3 L847.208322,292.3 L848.129031,288.7 L849.049739,288.7 L849.970448,294.1 L850.891156,294.1 L851.811865,293.9 L852.732573,293.9 L853.653282,271.5 L854.57399,271.5 L855.494699,222.6 L856.415407,230.5 L857.336116,230.5 L858.256824,227.3 L859.177533,227.3 L860.098241,212.9 L861.01895,212.9 L861.939658,211.6 L862.860367,194.1 L863.781075,194.1 L864.701783,209.4 L865.622492,209.4 L866.5432,208.4 L867.463909,208.4 L868.384617,212.7 L869.305326,212.7 L870.226034,226.9 L871.146743,226.9 L872.067451,215.8 L872.98816,215.8 L873.908868,200.8 L874.829577,200.8 L875.750285,196.7 L876.670994,196.7 L877.591702,202.4 L878.512411,202.4 L879.433119,207.5 L880.353828,207.5 L881.274536,174.7 L882.195245,174.7 L883.115953,129.7 L884.036662,129.7 L884.95737,101.8 L885.878079,101.8 L886.798787,103.9 L887.719495,103.9 L888.640204,145 L889.560912,145 L890.481621,209.6 L891.402329,209.6 L892.323038,259.1 L893.243746,259.1 L894.164455,262.3 L895.085163,262.3 L896.005872,253.2 L896.92658,253.2 L897.847289,150.6 L898.767997,150.6 L899.688706,147.5 L900.609414,147.5 L901.530123,215.8 L902.450831,215.8 L903.37154,207.2 L904.292248,207.2 L905.212957,195.7 L906.133665,196.1 L907.054374,196.1 L907.975082,200 L908.895791,200 L909.816499,187.3 L910.737208,187.3 L911.657916,205.3 L912.578624,205.3 L913.499333,222.1 L914.420041,222.1 L915.34075,214.2 L916.261458,214.2 L917.182167,205.3 L918.102875,205.3 L919.023584,149.3 L919.944292,149.3 L920.865001,76.6 L921.785709,76.6 L922.706418,181.1 L923.627126,181.1 L924.547835,198.1 L925.468543,198.1 L926.389252,206 L927.30996,206 L928.230669,226.7 L929.151377,226.7 L930.072086,234.6 L930.992794,234.6 L931.913503,214.4 L932.834211,214.4 L933.75492,204.4 L934.675628,204.4 L935.596336,204.9 L936.517045,204.9 L937.437753,211.5 L938.358462,211.5 L939.27917,211.9 L940.199879,211.9 L941.120587,114.2 L942.041296,114.2 L942.962004,100.5 L943.882713,100.5 L944.803421,232.3 L945.72413,232.3 L946.644838,278.8 L947.565547,278.8 L948.486255,277 L949.406964,277 L950.327672,289.5 L951.248381,289.5 L952.169089,260.4 L953.089798,227.8 L954.010506,227.8 L954.931215,232.5 L955.851923,232.5 L956.772632,217.7 L957.69334,217.7 L958.614048,170.8 L959.534757,170.8 L960.455465,0.3 L961.376174,0.3 L962.296882,77.2 L963.217591,77.2 L964.138299,247.8 L965.059008,247.8 L965.979716,276.3 L966.900425,276.3 L967.821133,256.5 L968.741842,256.5 L969.66255,291.2 L970.583259,291.2 L971.503967,285 L972.424676,285 L973.345384,274 L974.266093,274 L975.186801,283.5 L976.10751,283.5 L977.028218,289.6 L977.948927,289.6 L978.869635,290.4 L979.790344,290.4 L980.711052,289.6 L981.63176,289.6 L982.552469,284.4 L983.473177,284.4 L984.393886,302.4 L985.314594,302.4 L986.235303,299.6 L987.156011,299.6 L988.07672,292.7 L988.997428,292.7 L989.918137,286.2 L990.838845,286.2 L991.759554,286.9 L992.680262,286.9 L993.600971,272 L994.521679,242.1 L995.442388,277.8 L996.363096,286.3 L997.283805,286.3 L998.204513,292.7 L999.125222,292.7 L1000.04593,283.1 L1000.96664,283.1 L1001.88735,281.4 L1002.80806,281.4 L1003.72876,288.1 L1004.64947,288.1 L1005.57018,280.8 L1006.49089,280.8 L1007.4116,280.1 L1008.33231,280.1 L1009.25301,277 L1010.17372,277 L1011.09443,270.4 L1012.01514,270.4 L1012.93585,313.1 L1013.85656,313.1 L1014.77727,305.5 L1015.69797,305.5 L1016.61868,290.2 L1017.53939,290.2 L1018.4601,284.4 L1019.38081,284.4 L1020.30152,288.9 L1021.22223,288.9 L1022.14293,288.7 L1023.06364,288.7 L1023.98435,289.7 L1024.90506,283.5 L1025.82577,283.5 L1026.74648,294.1 L1027.66718,294.1 L1028.58789,289.6 L1029.5086,289.6 L1030.42931,282.2 L1031.35002,282.2 L1032.27073,278.9 L1033.19144,278.9 L1034.11214,287 L1035.03285,287 L1035.95356,288.3 L1036.87427,288.3 L1037.79498,288.9 L1038.71569,288.9 L1048.71569,288.9"></path>
                </g>
            </g>
            <g id="Group" transform="translate(64.000000, 379.000000)" font-size="20" font-family="Helvetica" fill="#666666" sketch:type="MSTextLayer" font-weight="normal">
                <text id="0">
                    <tspan x="-0.215686275" y="19" fill="#000000">0</tspan>
                </text>
                <text id="100">
                    <tspan x="78.8551618" y="19" fill="#000000">100</tspan>
                </text>
                <text id="200">
                    <tspan x="170.92601" y="19" fill="#000000">200</tspan>
                </text>
                <text id="300">
                    <tspan x="262.996858" y="19" fill="#000000">300</tspan>
                </text>
                <text id="400">
                    <tspan x="355.067706" y="19" fill="#000000">400</tspan>
                </text>
                <text id="500">
                    <tspan x="447.138554" y="19" fill="#000000">500</tspan>
                </text>
                <text id="600">
                    <tspan x="539.209402" y="19" fill="#000000">600</tspan>
                </text>
                <text id="700">
                    <tspan x="631.28025" y="19" fill="#000000">700</tspan>
                </text>
                <text id="800">
                    <tspan x="723.351098" y="19" fill="#000000">800</tspan>
                </text>
                <text id="900">
                    <tspan x="815.421946" y="19" fill="#000000">900</tspan>
                </text>
                <text id="1,000">
                    <tspan x="902.992794" y="19" fill="#000000">1,000</tspan>
                </text>
                <text id="1,100">
                    <tspan x="995.063642" y="19" fill="#000000">1,100</tspan>
                </text>
            </g>
            <g id="Group" transform="translate(28.000000, 0.000000)" font-size="20" font-family="Helvetica" fill="#666666" sketch:type="MSTextLayer" font-weight="normal">
                <text id="0">
                    <tspan x="9" y="381.115625" fill="#000000">0</tspan>
                </text>
                <text id="0.1">
                    <tspan x="0" y="320.782292" fill="#000000">0.1</tspan>
                </text>
                <text id="0.2">
                    <tspan x="0" y="260.448958" fill="#000000">0.2</tspan>
                </text>
                <text id="0.3">
                    <tspan x="0" y="200.115625" fill="#000000">0.3</tspan>
                </text>
                <text id="0.4">
                    <tspan x="0" y="139.782292" fill="#000000">0.4</tspan>
                </text>
                <text id="0.5">
                    <tspan x="0" y="79.4489583" fill="#000000">0.5</tspan>
                </text>
                <text id="0.6">
                    <tspan x="0" y="19.115625" fill="#000000">0.6</tspan>
                </text>
            </g>
            <text id="--box-shadow" sketch:type="MSTextLayer" font-family="Helvetica" font-size="24" font-weight="normal" fill="#2F7ED8">
                <tspan x="96" y="48">- box-shadow</tspan>
            </text>
            <text id="+-box-shadow" sketch:type="MSTextLayer" font-family="Helvetica" font-size="24" font-weight="normal" fill="#8BBC21">
                <tspan x="336" y="48">+ box-shadow</tspan>
            </text>
            <text id="--box-shadow-x100" sketch:type="MSTextLayer" font-family="Helvetica" font-size="24" font-weight="normal" fill="#2F7ED8">
                <tspan x="586" y="48">- box-shadow x100</tspan>
            </text>
            <text id="+-box-shadow-x100" sketch:type="MSTextLayer" font-family="Helvetica" font-size="24" font-weight="normal" fill="#8BBC21">
                <tspan x="866" y="48">+ box-shadow x100</tspan>
            </text>
            <text id="Highcharts.com" fill="#909090" sketch:type="MSTextLayer" font-family="Helvetica" font-size="9" font-weight="normal">
                <tspan x="1046" y="398" fill="#000000">Highcharts.com</tspan>
            </text>
        </g>
    </g>
</svg>