<svg xmlns="http://www.w3.org/2000/svg" version="1.1" width="1120" height="400"><desc>Created with Highcharts 3.0.2</desc><defs><clipPath id="highcharts-1"><rect fill="none" x="0" y="0" width="1050" height="361"></rect></clipPath></defs><rect rx="5" ry="5" fill="#FFFFFF" x="0" y="0" width="1120" height="400"></rect><g class="highcharts-grid" zIndex="1"></g><g class="highcharts-grid" zIndex="1"><path fill="none" d="M 60 312.5 L 1110 312.5" stroke="#C0C0C0" stroke-width="1" zIndex="1" opacity="1"></path><path fill="none" d="M 60 251.5 L 1110 251.5" stroke="#C0C0C0" stroke-width="1" zIndex="1" opacity="1"></path><path fill="none" d="M 60 191.5 L 1110 191.5" stroke="#C0C0C0" stroke-width="1" zIndex="1" opacity="1"></path><path fill="none" d="M 60 131.5 L 1110 131.5" stroke="#C0C0C0" stroke-width="1" zIndex="1" opacity="1"></path><path fill="none" d="M 60 70.5 L 1110 70.5" stroke="#C0C0C0" stroke-width="1" zIndex="1" opacity="1"></path><path fill="none" d="M 60 10.5 L 1110 10.5" stroke="#C0C0C0" stroke-width="1" zIndex="1" opacity="1"></path><path fill="none" d="M 60 371.5 L 1110 371.5" stroke="#C0C0C0" stroke-width="1" zIndex="1" opacity="1"></path></g><g class="highcharts-axis" zIndex="2"><path fill="none" d="M 160.5 372 L 160.5 377" stroke="#C0D0E0" stroke-width="1" opacity="1"></path><path fill="none" d="M 251.5 372 L 251.5 377" stroke="#C0D0E0" stroke-width="1" opacity="1"></path><path fill="none" d="M 342.5 372 L 342.5 377" stroke="#C0D0E0" stroke-width="1" opacity="1"></path><path fill="none" d="M 433.5 372 L 433.5 377" stroke="#C0D0E0" stroke-width="1" opacity="1"></path><path fill="none" d="M 524.5 372 L 524.5 377" stroke="#C0D0E0" stroke-width="1" opacity="1"></path><path fill="none" d="M 615.5 372 L 615.5 377" stroke="#C0D0E0" stroke-width="1" opacity="1"></path><path fill="none" d="M 706.5 372 L 706.5 377" stroke="#C0D0E0" stroke-width="1" opacity="1"></path><path fill="none" d="M 797.5 372 L 797.5 377" stroke="#C0D0E0" stroke-width="1" opacity="1"></path><path fill="none" d="M 888.5 372 L 888.5 377" stroke="#C0D0E0" stroke-width="1" opacity="1"></path><path fill="none" d="M 979.5 372 L 979.5 377" stroke="#C0D0E0" stroke-width="1" opacity="1"></path><path fill="none" d="M 1070.5 372 L 1070.5 377" stroke="#C0D0E0" stroke-width="1" opacity="1"></path><path fill="none" d="M 69.5 372 L 69.5 377" stroke="#C0D0E0" stroke-width="1" opacity="1"></path><path fill="none" d="M 60 371.5 L 1110 371.5" stroke="#C0D0E0" stroke-width="1" zIndex="7" visibility="visible"></path></g><g class="highcharts-axis" zIndex="2"><text x="24.59375" y="191" style="font-family:&quot;Lucida Grande&quot;, &quot;Lucida Sans Unicode&quot;, Verdana, Arial, Helvetica, sans-serif;font-size:12px;color:#4d759e;font-weight:bold;fill:#4d759e;" zIndex="7" text-anchor="middle" transform="translate(0,0) rotate(270 24.59375 191)" visibility="visible"><tspan x="24.59375">Amperage</tspan></text></g><g class="highcharts-series-group" zIndex="3"><g class="highcharts-series" visibility="visible" zIndex="0.1" transform="translate(60,10) scale(1 1)" clip-path="url(#highcharts-1)"><path fill="none" d="M 10.294117647058824 351.3 L 11.204296042024238 351.2 L 12.114474436989651 351.3 L 13.024652831955065 351.2 L 13.934831226920478 351.2 L 14.845009621885893 351.2 L 15.755188016851307 351.1 L 16.66536641181672 350.1 L 17.575544806782133 349.9 L 18.485723201747547 317.6 L 19.39590159671296 283.2 L 20.306079991678374 285.5 L 21.216258386643787 287.2 L 22.1264367816092 299.8 L 23.036615176574614 260.5 L 23.946793571540027 223.7 L 24.85697196650544 49.3 L 25.767150361470854 153 L 26.677328756436268 162.2 L 27.58750715140168 141.3 L 28.497685546367094 152.6 L 29.407863941332504 147.1 L 30.318042336297918 99 L 31.22822073126333 80.7 L 32.13839912622875 62 L 33.04857752119416 140.5 L 33.958755916159575 140.1 L 34.86893431112499 105.5 L 35.7791127060904 65.1 L 36.689291101055815 32.1 L 37.59946949602123 -65.5 L 38.50964789098664 -51 L 39.419826285952055 -73.3 L 40.33000468091747 -79 L 41.24018307588288 -90.2 L 42.150361470848296 -92.9 L 43.06053986581371 -93 L 43.970718260779115 -92.4 L 44.88089665574453 -74.3 L 45.79107505070994 -16.9 L 46.701253445675356 33.7 L 47.61143184064077 36.9 L 48.52161023560618 -1 L 49.431788630571596 60.4 L 50.34196702553701 1.5 L 51.25214542050242 -88.7 L 52.162323815467836 -29.6 L 53.07250221043325 -27 L 53.98268060539866 -14.2 L 54.892859000364076 38.1 L 55.80303739532949 13 L 56.7132157902949 -8 L 57.62339418526032 28.4 L 58.53357258022573 10.6 L 59.44375097519114 -4.6 L 60.35392937015656 7.1 L 61.26410776512197 -7.3 L 62.174286160087384 -24.8 L 63.0844645550528 2 L 63.99464295001821 27.3 L 64.90482134498363 13.9 L 65.81499973994904 29 L 66.72517813491446 25 L 67.63535652987987 -4.2 L 68.54553492484528 33.6 L 69.4557133198107 121.2 L 70.36589171477611 46.2 L 71.27607010974153 26.3 L 72.18624850470694 34.7 L 73.09642689967234 18.1 L 74.00660529463775 89.2 L 74.91678368960316 95.8 L 75.82696208456858 45.2 L 76.73714047953399 65.1 L 77.6473188744994 69.5 L 78.55749726946482 22.7 L 79.46767566443023 88.5 L 80.37785405939564 109.2 L 81.28803245436106 108.3 L 82.19821084932647 96.8 L 83.10838924429189 85 L 84.0185676392573 62.1 L 84.92874603422271 14.5 L 85.83892442918813 -18.4 L 86.74910282415354 92.6 L 87.65928121911895 86.1 L 88.56945961408437 112.4 L 89.47963800904978 63.5 L 90.38981640401519 65.7 L 91.2999947989806 38.9 L 92.21017319394602 58.8 L 93.12035158891143 78.9 L 94.03052998387685 70.6 L 94.94070837884226 80.2 L 95.85088677380767 73.7 L 96.76106516877309 84 L 97.6712435637385 103.2 L 98.58142195870391 81.2 L 99.49160035366933 102 L 100.40177874863474 69.9 L 101.31195714360015 80.5 L 102.22213553856557 85.2 L 103.13231393353098 88.8 L 104.0424923284964 87.6 L 104.95267072346181 97.3 L 105.86284911842722 99.8 L 106.77302751339263 96.1 L 107.68320590835805 102.1 L 108.59338430332346 88.8 L 109.50356269828887 115.7 L 110.41374109325429 119.3 L 111.3239194882197 255.4 L 112.23409788318511 219.9 L 113.14427627815053 169 L 114.05445467311594 155.4 L 114.96463306808135 -3.1 L 115.87481146304677 -20.5 L 116.78498985801218 176.5 L 117.6951682529776 263.1 L 118.60534664794301 278.6 L 119.51552504290842 274.2 L 120.42570343787384 290.9 L 121.33588183283925 268.6 L 122.24606022780466 290 L 123.15623862277008 298.5 L 124.06641701773549 294.3 L 124.9765954127009 301.1 L 125.88677380766632 287.7 L 126.79695220263173 301.2 L 127.70713059759714 309.8 L 128.61730899256256 305.3 L 129.52748738752797 307.4 L 130.43766578249338 308.5 L 131.3478441774588 307.6 L 132.2580225724242 312.7 L 133.16820096738962 313.5 L 134.07837936235504 298.6 L 134.98855775732045 227.3 L 135.89873615228586 315.6 L 136.80891454725128 302.5 L 137.7190929422167 308.9 L 138.6292713371821 307.9 L 139.53944973214752 307.6 L 140.44962812711293 308.5 L 141.35980652207834 265.7 L 142.26998491704376 311.1 L 143.18016331200917 305.2 L 144.09034170697458 313.4 L 145.00052010194 304.3 L 145.9106984969054 310.6 L 146.82087689187082 311.9 L 147.73105528683624 305.9 L 148.64123368180165 301.4 L 149.55141207676706 305.1 L 150.46159047173248 304.4 L 151.3717688666979 315.1 L 152.2819472616633 305.8 L 153.19212565662872 311 L 154.10230405159413 307.4 L 155.01248244655955 305.1 L 155.92266084152496 310.7 L 156.83283923649037 312.5 L 157.74301763145579 310.1 L 158.6531960264212 307 L 159.5633744213866 304.3 L 160.47355281635203 298.2 L 161.38373121131744 285.1 L 162.29390960628285 311 L 163.20408800124827 313.8 L 164.11426639621368 304 L 165.0244447911791 304.8 L 165.9346231861445 312.6 L 166.84480158110992 308.3 L 167.75497997607533 301.8 L 168.66515837104075 312.2 L 169.57533676600616 304.9 L 170.48551516097157 306.6 L 171.395693555937 307.2 L 172.3058719509024 315 L 173.2160503458678 307.3 L 174.12622874083323 308.1 L 175.03640713579864 304.8 L 175.94658553076405 298.9 L 176.85676392572947 302.1 L 177.76694232069488 314.2 L 178.6771207156603 309 L 179.5872991106257 311.4 L 180.49747750559112 303.6 L 181.40765590055653 315.8 L 182.31783429552195 311 L 183.22801269048736 307.6 L 184.13819108545277 304.1 L 185.0483694804182 310.7 L 185.9585478753836 301.9 L 186.86872627034901 315 L 187.77890466531443 313.2 L 188.68908306027984 310.8 L 189.59926145524526 304.1 L 190.50943985021067 310.8 L 191.41961824517608 301.7 L 192.3297966401415 322.5 L 193.2399750351069 305.1 L 194.15015343007232 304 L 195.06033182503774 297.3 L 195.97051022000315 314 L 196.88068861496856 313 L 197.79086700993398 325 L 198.7010454048994 310.8 L 199.6112237998648 310.6 L 200.52140219483022 311.1 L 201.43158058979563 320.1 L 202.34175898476104 313.5 L 203.25193737972646 311.9 L 204.16211577469187 309.4 L 205.07229416965728 311.2 L 205.9824725646227 324.1 L 206.8926509595881 314.4 L 207.80282935455352 307.1 L 208.71300774951894 311.9 L 209.62318614448435 313.1 L 210.53336453944976 322.3 L 211.44354293441518 294.2 L 212.3537213293806 303.8 L 213.263899724346 311.4 L 214.17407811931142 314.1 L 215.08425651427683 317.3 L 215.99443490924224 322.7 L 216.90461330420766 312.8 L 217.81479169917307 311.5 L 218.72497009413848 310.8 L 219.6351484891039 322.1 L 220.5453268840693 315.8 L 221.45550527903472 321.4 L 222.36568367400014 311.8 L 223.27586206896555 305.5 L 224.18604046393096 308.2 L 225.09621885889638 323.3 L 226.0063972538618 310.4 L 226.9165756488272 300.7 L 227.82675404379262 302.4 L 228.73693243875803 310.1 L 229.64711083372345 317.1 L 230.55728922868886 315.6 L 231.46746762365427 303.3 L 232.37764601861969 304.8 L 233.2878244135851 299.2 L 234.1980028085505 318.4 L 235.10818120351593 311.8 L 236.01835959848134 304.3 L 236.92853799344675 302.9 L 237.83871638841217 273.7 L 238.74889478337758 275.1 L 239.659073178343 267.9 L 240.5692515733084 321.9 L 241.47942996827382 329.6 L 242.38960836323923 331.3 L 243.29978675820465 331.2 L 244.20996515317006 331.4 L 245.12014354813547 331.1 L 246.0303219431009 331.2 L 246.9405003380663 329.8 L 247.85067873303169 331.3 L 248.7608571279971 331.1 L 249.6710355229625 331.3 L 250.58121391792793 331.2 L 251.49139231289334 327.7 L 252.40157070785875 331.2 L 253.31174910282417 331.3 L 254.22192749778958 331.2 L 255.132105892755 327.3 L 256.0422842877204 310.2 L 256.95246268268585 323.5 L 257.86264107765123 331.2 L 258.7728194726167 331.3 L 259.68299786758206 331.2 L 260.5931762625475 329.6 L 261.5033546575129 331.2 L 262.41353305247833 331.2 L 263.3237114474437 331.2 L 264.23388984240916 329.9 L 265.14406823737454 331.1 L 266.05424663234 331.3 L 266.96442502730537 329.6 L 267.8746034222708 331.3 L 268.7847818172362 331.3 L 269.69496021220164 331.2 L 270.605138607167 331.1 L 271.51531700213246 331.3 L 272.42549539709785 331.3 L 273.3356737920633 324.1 L 274.2458521870287 331.2 L 275.1560305819941 328.4 L 276.0662089769595 331.2 L 276.97638737192494 331.3 L 277.8865657668903 331.3 L 278.79674416185577 331.2 L 279.70692255682116 328.7 L 280.6171009517866 331.2 L 281.527279346752 331.1 L 282.4374577417174 330 L 283.3476361366828 331.1 L 284.25781453164825 331.4 L 285.16799292661364 331.2 L 286.0781713215791 331.2 L 286.98834971654446 331.4 L 287.8985281115099 331.1 L 288.8087065064753 331.3 L 289.71888490144073 331.3 L 290.6290632964061 331.2 L 291.53924169137156 331.2 L 292.44942008633694 331.3 L 293.3595984813024 331.2 L 294.26977687626777 325.2 L 295.1799552712332 330.8 L 296.0901336661986 331.3 L 297.00031206116404 331.3 L 297.9104904561294 331.2 L 298.82066885109487 330.7 L 299.73084724606025 329.7 L 300.6410256410257 331.2 L 301.5512040359911 331.4 L 302.4613824309565 331.3 L 303.3715608259219 322.5 L 304.28173922088735 325.7 L 305.19191761585273 340 L 306.1020960108182 340 L 307.01227440578356 340.1 L 307.922452800749 307.2 L 308.8326311957144 331 L 309.7428095906798 337.5 L 310.6529879856452 322.6 L 311.56316638061065 321.6 L 312.47334477557604 336.5 L 313.3835231705415 336.4 L 314.29370156550686 339.8 L 315.2038799604723 339.8 L 316.1140583554377 330.2 L 317.02423675040313 332.1 L 317.9344151453685 338.4 L 318.84459354033396 340.1 L 319.75477193529935 340.1 L 320.6649503302648 340 L 321.5751287252302 340.2 L 322.4853071201956 336.5 L 323.395485515161 339.7 L 324.30566391012644 340.2 L 325.2158423050918 340 L 326.12602070005727 339.8 L 327.03619909502265 340.2 L 327.9463774899881 339.9 L 328.8565558849535 340 L 329.7667342799189 340.2 L 330.6769126748843 340 L 331.58709106984975 339.2 L 332.49726946481513 340.2 L 333.4074478597806 340.1 L 334.31762625474596 290.4 L 335.2278046497114 293.6 L 336.1379830446768 261.4 L 337.04816143964223 301.7 L 337.9583398346076 334.8 L 338.86851822957306 339.9 L 339.77869662453844 340.1 L 340.6888750195039 340.2 L 341.59905341446927 340 L 342.5092318094347 332.8 L 343.4194102044001 340.2 L 344.32958859936554 339.9 L 345.2397669943309 340.1 L 346.14994538929636 340 L 347.06012378426175 340.2 L 347.9703021792272 340.1 L 348.8804805741926 339.9 L 349.790658969158 340.1 L 350.7008373641234 340.1 L 351.61101575908884 340 L 352.5211941540542 340.1 L 353.43137254901967 330.1 L 354.34155094398506 332.2 L 355.2517293389505 340.1 L 356.1619077339159 333.9 L 357.0720861288813 339.9 L 357.9822645238467 340.1 L 358.89244291881215 340.1 L 359.80262131377754 339.8 L 360.712799708743 340.2 L 361.62297810370836 340.1 L 362.5331564986738 340 L 363.4433348936392 337.2 L 364.3535132886046 339.3 L 365.26369168357 302.5 L 366.1738700785354 340 L 367.08404847350084 340.1 L 367.9942268684662 340 L 368.90440526343167 340.1 L 369.81458365839705 339.7 L 370.7247620533625 338.5 L 371.6349404483279 340.2 L 372.5451188432933 337.2 L 373.4552972382587 340 L 374.36547563322415 340.1 L 375.27565402818954 339.9 L 376.185832423155 340.1 L 377.09601081812036 340.2 L 378.0061892130858 338.9 L 378.9163676080512 338 L 379.82654600301663 340.1 L 380.736724397982 340.1 L 381.64690279294746 340 L 382.55708118791284 340 L 383.4672595828783 340.1 L 384.37743797784367 340.1 L 385.2876163728091 340 L 386.1977947677745 339.9 L 387.10797316273994 336.9 L 388.0181515577053 311.7 L 388.92832995267077 333.9 L 389.83850834763615 340.1 L 390.7486867426016 337.8 L 391.658865137567 338.8 L 392.5690435325324 340.1 L 393.4792219274978 328.2 L 394.38940032246325 340.2 L 395.29957871742863 340 L 396.2097571123941 339.9 L 397.11993550735946 332.9 L 398.0301139023249 340 L 398.9402922972903 340 L 399.8504706922557 340.3 L 400.7606490872211 340.1 L 401.67082748218655 340 L 402.58100587715194 340.1 L 403.4911842721174 334.2 L 404.40136266708276 340.1 L 405.3115410620482 339.1 L 406.2217194570136 339.6 L 407.13189785197903 340 L 408.0420762469444 340.1 L 408.95225464190986 339.9 L 409.86243303687525 340.1 L 410.7726114318407 340 L 411.6827898268061 340 L 412.5929682217715 335.5 L 413.5031466167369 340.1 L 414.41332501170234 340 L 415.3235034066677 340.1 L 416.23368180163317 340.1 L 417.14386019659855 334.4 L 418.054038591564 340.1 L 418.9642169865294 331 L 419.8743953814948 340.1 L 420.7845737764602 337.1 L 421.69475217142565 339.9 L 422.60493056639103 340.2 L 423.5151089613565 338.7 L 424.42528735632186 337.2 L 425.3354657512873 340.3 L 426.2456441462527 340.3 L 427.15582254121813 339.8 L 428.0660009361835 338.4 L 428.97617933114896 339.9 L 429.88635772611434 340.1 L 430.7965361210798 340.3 L 431.70671451604517 340 L 432.6168929110106 340.1 L 433.527071305976 337.9 L 434.43724970094144 338.9 L 435.3474280959068 340.2 L 436.25760649087226 340.1 L 437.16778488583765 340 L 438.0779632808031 340.2 L 438.9881416757685 340 L 439.8983200707339 340 L 440.8084984656993 339.2 L 441.71867686066474 340.1 L 442.6288552556301 337.6 L 443.53903365059557 340 L 444.44921204556096 340.2 L 445.3593904405264 340.1 L 446.2695688354918 340 L 447.1797472304572 336.7 L 448.0899256254226 340.2 L 449.00010402038805 340 L 449.91028241535344 340 L 450.8204608103189 340.2 L 451.73063920528426 340 L 452.6408176002497 340.1 L 453.5509959952151 340.2 L 454.46117439018053 340 L 455.3713527851459 340 L 456.28153118011136 340.1 L 457.19170957507674 339.9 L 458.1018879700422 340.1 L 459.01206636500757 318 L 459.922244759973 340.1 L 460.8324231549384 340 L 461.74260154990384 340.1 L 462.6527799448692 339.9 L 463.56295833983467 340.1 L 464.47313673480005 340.1 L 465.3833151297655 340.1 L 466.2934935247308 340 L 467.20367191969626 340 L 468.11385031466165 340.2 L 469.0240287096271 340 L 469.9342071045925 339.9 L 470.8443854995579 340.1 L 471.7545638945233 340.1 L 472.66474228948874 339.8 L 473.5749206844541 340.2 L 474.48509907941957 336.7 L 475.39527747438495 339.4 L 476.3054558693504 337.7 L 477.2156342643158 337.9 L 478.1258126592812 336.5 L 479.0359910542466 340.1 L 479.94616944921205 340.2 L 480.85634784417744 339.9 L 481.7665262391429 340.2 L 482.67670463410826 340.1 L 483.5868830290737 337.5 L 484.4970614240391 339.2 L 485.40723981900453 340.1 L 486.3174182139699 340.1 L 487.22759660893536 340.3 L 488.13777500390074 340.1 L 489.0479533988662 338.1 L 489.95813179383157 339.1 L 490.868310188797 340 L 491.7784885837624 340.1 L 492.68866697872784 340.2 L 493.5988453736932 338.5 L 494.50902376865866 323.6 L 495.41920216362405 340.2 L 496.3293805585895 336.2 L 497.2395589535549 340.1 L 498.1497373485203 319.9 L 499.0599157434857 340 L 499.97009413845115 340.1 L 500.88027253341653 340.2 L 501.790450928382 340.1 L 502.70062932334736 336.7 L 503.6108077183128 339.8 L 504.5209861132782 340.1 L 505.4311645082436 340.1 L 506.341342903209 340.1 L 507.25152129817445 340.1 L 508.16169969313984 340 L 509.0718780881053 340 L 509.98205648307066 340 L 510.8922348780361 340.1 L 511.8024132730015 338.3 L 512.7125916679669 340 L 513.6227700629323 340 L 514.5329484578978 340 L 515.4431268528632 340 L 516.3533052478285 339.9 L 517.263483642794 340.1 L 518.1736620377594 340 L 519.0838404327249 340.1 L 519.9940188276902 340 L 520.9041972226556 340 L 521.8143756176211 340.3 L 522.7245540125865 340.2 L 523.6347324075518 339.9 L 524.5449108025173 340.2 L 525.4550891974827 340 L 526.3652675924482 340.1 L 527.2754459874135 340.2 L 528.1856243823789 340 L 529.0958027773444 340.1 L 530.0059811723098 338.3 L 530.9161595672751 330.6 L 531.8263379622406 339.2 L 532.736516357206 339.4 L 533.6466947521715 338 L 534.5568731471368 340.1 L 535.4670515421022 340.1 L 536.3772299370677 340 L 537.2874083320331 340.2 L 538.1975867269985 340.1 L 539.1077651219639 340.2 L 540.0179435169293 330 L 540.9281219118948 333.8 L 541.8383003068601 340.2 L 542.7484787018255 340.1 L 543.658657096791 339.9 L 544.5688354917564 340.3 L 545.4790138867218 339.3 L 546.3891922816872 338.3 L 547.2993706766526 338.6 L 548.2095490716181 339.8 L 549.1197274665834 339.8 L 550.0299058615489 340.3 L 550.9400842565143 339.8 L 551.8502626514797 340.1 L 552.7604410464451 340.3 L 553.6706194414105 340 L 554.580797836376 337.1 L 555.4909762313414 340.2 L 556.4011546263067 339.9 L 557.3113330212722 340.1 L 558.2215114162376 340.3 L 559.131689811203 337.7 L 560.0418682061684 340.1 L 560.9520466011338 340.2 L 561.8622249960993 340.1 L 562.7724033910647 339.9 L 563.68258178603 339.9 L 564.5927601809955 340.2 L 565.5029385759609 338.3 L 566.4131169709264 340.1 L 567.3232953658917 340.2 L 568.2334737608571 340 L 569.1436521558226 340.1 L 570.053830550788 340.2 L 570.9640089457533 340 L 571.8741873407188 340 L 572.7843657356842 340.2 L 573.6945441306497 340 L 574.604722525615 334.8 L 575.5149009205804 340.3 L 576.4250793155459 333.3 L 577.3352577105113 340.1 L 578.2454361054766 340.2 L 579.1556145004421 340.1 L 580.0657928954075 340 L 580.975971290373 340 L 581.8861496853383 340 L 582.7963280803037 326.8 L 583.7065064752692 340 L 584.6166848702346 340.1 L 585.5268632652 335.7 L 586.4370416601654 339.9 L 587.3472200551308 331.9 L 588.2573984500963 332.5 L 589.1675768450616 336.5 L 590.077755240027 335.9 L 590.9879336349925 334 L 591.8981120299579 340.2 L 592.8082904249233 338.1 L 593.7184688198887 336.6 L 594.6286472148541 316.3 L 595.5388256098196 331.9 L 596.4490040047849 335.4 L 597.3591823997504 340.1 L 598.2693607947158 340 L 599.1795391896812 340.4 L 600.0897175846466 338.7 L 600.999895979612 333.8 L 601.9100743745774 339.2 L 602.8202527695429 340 L 603.7304311645082 340.3 L 604.6406095594737 340 L 605.5507879544391 340.1 L 606.4609663494045 340.1 L 607.3711447443699 339.9 L 608.2813231393353 340 L 609.1915015343008 340.2 L 610.1016799292662 337.5 L 611.0118583242315 339 L 611.922036719197 340.1 L 612.8322151141624 274.8 L 613.7423935091279 287.5 L 614.6525719040932 265.5 L 615.5627502990586 314.3 L 616.4729286940241 340 L 617.3831070889895 340.2 L 618.2932854839548 338.2 L 619.2034638789203 331.7 L 620.1136422738857 340.2 L 621.0238206688512 340 L 621.9339990638165 340.1 L 622.8441774587819 339.9 L 623.7543558537474 340.1 L 624.6645342487128 340.1 L 625.5747126436781 340 L 626.4848910386436 340.1 L 627.395069433609 340.1 L 628.3052478285745 340.2 L 629.2154262235398 340.2 L 630.1256046185052 340 L 631.0357830134707 340.1 L 631.9459614084361 340.1 L 632.8561398034014 340 L 633.7663181983669 340 L 634.6764965933323 340.2 L 635.5866749882978 339.1 L 636.4968533832631 323.6 L 637.4070317782285 339.5 L 638.317210173194 339.9 L 639.2273885681593 340.1 L 640.1375669631248 340.1 L 641.0477453580902 340 L 641.9579237530556 340.2 L 642.868102148021 315.5 L 643.7782805429864 334 L 644.6884589379519 338.8 L 645.5986373329173 338.3 L 646.5088157278826 340.3 L 647.4189941228481 338.7 L 648.3291725178135 338 L 649.239350912779 340.1 L 650.1495293077443 339.9 L 651.0597077027097 337 L 651.9698860976752 337.3 L 652.8800644926406 339.9 L 653.7902428876059 338.1 L 654.7004212825714 340.2 L 655.6105996775368 339.7 L 656.5207780725023 340 L 657.4309564674676 339.7 L 658.341134862433 337.3 L 659.2513132573985 339.9 L 660.1614916523639 340.2 L 661.0716700473292 340 L 661.9818484422947 340 L 662.8920268372601 334.6 L 663.8022052322256 340 L 664.7123836271909 340 L 665.6225620221563 340.2 L 666.5327404171218 336.7 L 667.4429188120872 315 L 668.3530972070525 340 L 669.263275602018 340.1 L 670.1734539969834 339.9 L 671.0836323919489 335.7 L 671.9938107869142 339.4 L 672.9039891818796 340 L 673.8141675768451 332 L 674.7243459718105 340.2 L 675.6345243667758 340 L 676.5447027617413 340 L 677.4548811567067 340.2 L 678.3650595516722 236.5 L 679.2752379466375 234.9 L 680.185416341603 241.4 L 681.0955947365684 248.1 L 682.0057731315338 199.2 L 682.9159515264992 228 L 683.8261299214646 322.5 L 684.73630831643 331.5 L 685.6464867113955 330.1 L 686.5566651063608 323.7 L 687.4668435013263 331.5 L 688.3770218962917 332.1 L 689.2872002912571 327.5 L 690.1973786862225 330.9 L 691.1075570811879 319.1 L 692.0177354761533 339.3 L 692.9279138711188 340.3 L 693.8380922660841 333.2 L 694.7482706610496 340.2 L 695.658449056015 340.2 L 696.5686274509804 340.3 L 697.4788058459458 340.3 L 698.3889842409112 340.4 L 699.2991626358767 337.7 L 700.2093410308421 340.2 L 701.1195194258074 337.2 L 702.0296978207729 340.4 L 702.9398762157383 340.1 L 703.8500546107038 340.1 L 704.7602330056691 340.1 L 705.6704114006345 340.2 L 706.5805897956 338.5 L 707.4907681905654 339.8 L 708.4009465855307 336.4 L 709.3111249804962 323 L 710.2213033754616 340.2 L 711.1314817704271 340.2 L 712.0416601653924 340.2 L 712.9518385603578 340.3 L 713.8620169553233 337.9 L 714.7721953502887 340.2 L 715.682373745254 340.2 L 716.5925521402195 340 L 717.5027305351849 340.4 L 718.4129089301504 340.3 L 719.3230873251157 326.9 L 720.2332657200811 335.8 L 721.1434441150466 340.3 L 722.053622510012 337.8 L 722.9638009049773 340.3 L 723.8739792999428 338.4 L 724.7841576949082 333.8 L 725.6943360898737 340.4 L 726.604514484839 338.8 L 727.5146928798044 339.4 L 728.4248712747699 340.3 L 729.3350496697353 340.1 L 730.2452280647007 340.2 L 731.1554064596661 340.2 L 732.0655848546315 340.1 L 732.975763249597 340.2 L 733.8859416445623 340.3 L 734.7961200395278 340.1 L 735.7062984344932 340.2 L 736.6164768294586 340.3 L 737.526655224424 340.1 L 738.4368336193894 340.1 L 739.3470120143548 340.3 L 740.2571904093203 340.2 L 741.1673688042856 340.3 L 742.0775471992511 338.6 L 742.9877255942165 340.2 L 743.8979039891819 340.1 L 744.8080823841473 340.1 L 745.7182607791127 340.3 L 746.6284391740782 340.2 L 747.5386175690436 340.2 L 748.4487959640089 340.2 L 749.3589743589744 340.2 L 750.2691527539398 340.2 L 751.1793311489052 340.3 L 752.0895095438706 340.1 L 752.999687938836 340.1 L 753.9098663338015 340.4 L 754.8200447287669 331.1 L 755.7302231237322 340.1 L 756.6404015186977 338.8 L 757.5505799136631 338.8 L 758.4607583086286 340.1 L 759.3709367035939 340.1 L 760.2811150985593 338.6 L 761.1912934935248 340.1 L 762.1014718884902 340.2 L 763.0116502834555 340.2 L 763.921828678421 340.3 L 764.8320070733864 340.1 L 765.7421854683519 340.1 L 766.6523638633172 340.3 L 767.5625422582826 340.2 L 768.4727206532481 340.1 L 769.3828990482135 336.9 L 770.2930774431788 340.2 L 771.2032558381443 340.2 L 772.1134342331097 340.2 L 773.0236126280752 340.1 L 773.9337910230405 340.3 L 774.8439694180059 340.1 L 775.7541478129714 340.2 L 776.6643262079368 340.3 L 777.5745046029022 332.2 L 778.4846829978676 332.1 L 779.394861392833 340.3 L 780.3050397877985 340.1 L 781.2152181827638 331.9 L 782.1253965777292 340.3 L 783.0355749726947 338 L 783.9457533676601 340.1 L 784.8559317626255 340.3 L 785.7661101575909 334.2 L 786.6762885525563 338 L 787.5864669475218 340.3 L 788.4966453424871 340 L 789.4068237374526 340.2 L 790.317002132418 340.3 L 791.2271805273834 340.2 L 792.1373589223488 340.1 L 793.0475373173142 340.5 L 793.9577157122797 340 L 794.8678941072451 339.2 L 795.7780725022104 340.3 L 796.6882508971759 340.2 L 797.5984292921413 340.2 L 798.5086076871067 340.4 L 799.4187860820721 340.2 L 800.3289644770375 340.2 L 801.239142872003 340.1 L 802.1493212669684 340.3 L 803.0594996619337 340.3 L 803.9696780568992 340.2 L 804.8798564518646 340.4 L 805.79003484683 340.2 L 806.7002132417954 340.1 L 807.6103916367608 340.4 L 808.5205700317263 340.1 L 809.4307484266917 340.3 L 810.340926821657 333.3 L 811.2511052166225 337 L 812.1612836115879 340.2 L 813.0714620065534 339.4 L 813.9816404015187 340.1 L 814.8918187964841 340.2 L 815.8019971914496 340.3 L 816.712175586415 340.1 L 817.6223539813803 340.4 L 818.5325323763458 340.2 L 819.4427107713112 340.2 L 820.3528891662767 340.4 L 821.263067561242 340.3 L 822.1732459562074 340.1 L 823.0834243511729 340.3 L 823.9936027461383 340.2 L 824.9037811411037 336.7 L 825.8139595360691 340.2 L 826.7241379310345 340.3 L 827.634316326 340.3 L 828.5444947209653 340.3 L 829.4546731159307 340 L 830.3648515108962 339 L 831.2750299058616 340.1 L 832.185208300827 340.3 L 833.0953866957924 340.3 L 834.0055650907578 338.8 L 834.9157434857233 340 L 835.8259218806886 340.4 L 836.736100275654 340.1 L 837.6462786706195 340.2 L 838.5564570655849 338.1 L 839.4666354605503 340 L 840.3768138555157 340.3 L 841.2869922504811 340.3 L 842.1971706454466 340.1 L 843.1073490404119 340.3 L 844.0175274353774 340.2 L 844.9277058303428 340.3 L 845.8378842253082 340.3 L 846.7480626202736 338.7 L 847.658241015239 336.2 L 848.5684194102045 339.3 L 849.4785978051699 340.2 L 850.3887762001352 340.4 L 851.2989545951007 340.2 L 852.2091329900661 340.2 L 853.1193113850316 339.2 L 854.0294897799969 339 L 854.9396681749623 340.2 L 855.8498465699278 340.3 L 856.7600249648932 340.4 L 857.6702033598585 340.2 L 858.580381754824 340.3 L 859.4905601497894 340.2 L 860.4007385447549 340.2 L 861.3109169397202 340.2 L 862.2210953346856 333.8 L 863.1312737296511 333.1 L 864.0414521246165 336 L 864.9516305195818 340.4 L 865.8618089145473 340.2 L 866.7719873095127 332 L 867.6821657044782 338.1 L 868.5923440994435 340.1 L 869.5025224944089 338.5 L 870.4127008893744 340.2 L 871.3228792843398 339.9 L 872.2330576793051 338.1 L 873.1432360742706 340.4 L 874.053414469236 340 L 874.9635928642014 338 L 875.8737712591668 340.3 L 876.7839496541322 340.2 L 877.6941280490977 339.7 L 878.604306444063 335.4 L 879.5144848390285 340.2 L 880.4246632339939 340.2 L 881.3348416289593 338 L 882.2450200239247 340.2 L 883.1551984188901 340.2 L 884.0653768138556 338.8 L 884.975555208821 340.2 L 885.8857336037863 340.2 L 886.7959119987518 340.1 L 887.7060903937172 340.3 L 888.6162687886826 340.3 L 889.526447183648 340.2 L 890.4366255786134 340.2 L 891.3468039735789 340.3 L 892.2569823685443 283 L 893.1671607635096 288.1 L 894.0773391584751 267 L 894.9875175534405 308.2 L 895.897695948406 340.1 L 896.8078743433713 340.5 L 897.7180527383367 339.9 L 898.6282311333022 340.4 L 899.5384095282676 340.3 L 900.4485879232329 340 L 901.3587663181984 339.1 L 902.2689447131638 339.8 L 903.1791231081293 340 L 904.0893015030946 340.4 L 904.99947989806 340.2 L 905.9096582930255 340 L 906.8198366879909 334.4 L 907.7300150829562 340 L 908.6401934779217 335.2 L 909.5503718728871 340.3 L 910.4605502678526 340.2 L 911.3707286628179 331.3 L 912.2809070577833 340.3 L 913.1910854527488 338.6 L 914.1012638477142 338.6 L 915.0114422426795 332.9 L 915.921620637645 340.3 L 916.8317990326104 338.4 L 917.7419774275759 340.1 L 918.6521558225412 340.2 L 919.5623342175066 335.8 L 920.4725126124721 334 L 921.3826910074375 340.3 L 922.2928694024029 340.2 L 923.2030477973683 237.2 L 924.1132261923337 242.1 L 925.0234045872992 200.2 L 925.9335829822645 192.9 L 926.84376137723 235.3 L 927.7539397721954 223.8 L 928.6641181671608 261.9 L 929.5742965621262 211.1 L 930.4844749570916 212.7 L 931.394653352057 204.1 L 932.3048317470225 173 L 933.2150101419878 196.3 L 934.1251885369533 212.5 L 935.0353669319187 218.9 L 935.9455453268841 201.2 L 936.8557237218495 261.4 L 937.7659021168149 311.1 L 938.6760805117804 308 L 939.5862589067458 307.8 L 940.4964373017111 313 L 941.4066156966766 313.9 L 942.316794091642 314.1 L 943.2269724866075 314.2 L 944.1371508815728 312.7 L 945.0473292765382 314.2 L 945.9575076715037 306.2 L 946.8676860664691 294.3 L 947.7778644614344 314.5 L 948.6880428563999 314.6 L 949.5982212513653 313.6 L 950.5083996463308 314.5 L 951.4185780412961 313 L 952.3287564362615 314.2 L 953.238934831227 314.5 L 954.1491132261924 314.4 L 955.0592916211577 313.1 L 955.9694700161232 313.1 L 956.8796484110886 314.7 L 957.7898268060541 303.4 L 958.7000052010194 311.1 L 959.6101835959848 314.5 L 960.5203619909503 303.9 L 961.4305403859157 311.9 L 962.340718780881 314.3 L 963.2508971758465 314.6 L 964.1610755708119 313.2 L 965.0712539657774 314.4 L 965.9814323607427 314.6 L 966.8916107557081 313.3 L 967.8017891506736 314.7 L 968.711967545639 314.6 L 969.6221459406044 313.5 L 970.5323243355698 311.6 L 971.4425027305352 317 L 972.3526811255007 295.6 L 973.262859520466 235.9 L 974.1730379154315 306.8 L 975.0832163103969 328.4 L 975.9933947053623 296.3 L 976.9035731003277 321 L 977.8137514952931 333.6 L 978.7239298902585 345.6 L 979.634108285224 345.7 L 980.5442866801893 345.7 L 981.4544650751548 343.3 L 982.3646434701202 345.7 L 983.2748218650856 345.8 L 984.185000260051 345.5 L 985.0951786550164 345.9 L 986.0053570499819 345.8 L 986.9155354449473 345.5 L 987.8257138399126 345.6 L 988.7358922348781 345.7 L 989.6460706298435 344.3 L 990.556249024809 345.5 L 991.4664274197743 345.7 L 992.3766058147397 345.6 L 993.2867842097052 345.5 L 994.1969626046706 345.6 L 995.1071409996359 345.5 L 996.0173193946014 345.6 L 996.9274977895668 345.7 L 997.8376761845323 345.6 L 998.7478545794976 345.7 L 999.658032974463 345.7 L 1000.5682113694285 345.6 L 1001.4783897643939 345.6 L 1002.3885681593592 345.6 L 1003.2987465543247 345.7 L 1004.2089249492901 345.7 L 1005.1191033442556 345.7 L 1006.0292817392209 345.6 L 1006.9394601341863 345.5 L 1007.8496385291518 344.2 L 1008.7598169241172 345.7 L 1009.6699953190825 345.8 L 1010.580173714048 345.5 L 1011.4903521090134 345.7 L 1012.4005305039789 345.6 L 1013.3107088989442 345.6 L 1014.2208872939096 345.6 L 1015.1310656888751 345.8 L 1016.0412440838405 345.6 L 1016.9514224788059 345.6 L 1017.8616008737713 345.6 L 1018.7717792687367 345.6 L 1019.6819576637022 345.8 L 1020.5921360586675 345.6 L 1021.502314453633 345.6 L 1022.4124928485984 345.7 L 1023.3226712435638 345.6 L 1024.2328496385292 345.5 L 1025.1430280334946 344.2 L 1026.05320642846 345.7 L 1026.9633848234255 345.5 L 1027.873563218391 345.7 L 1028.7837416133564 345.7 L 1029.6939200083216 345.7 L 1030.604098403287 351 L 1031.5142767982525 351.4 L 1032.424455193218 351.4 L 1033.3346335881834 351.3 L 1034.2448119831488 351.3 L 1035.1549903781142 351.4 L 1036.0651687730797 351.4 L 1036.975347168045 349 L 1037.8855255630103 351.3 L 1038.7957039579758 351.2 L 1039.7058823529412 351.5" stroke="#2f7ed8" stroke-width="1" zIndex="1"></path></g><g class="highcharts-markers" visibility="visible" zIndex="0.1" transform="translate(60,10) scale(1 1)" clip-path="none"><path fill="none" d="M 0.29411764705882426 351.3 L 10.294117647058824 351.3 L 11.204296042024238 351.2 L 12.114474436989651 351.3 L 13.024652831955065 351.2 L 13.934831226920478 351.2 L 14.845009621885893 351.2 L 15.755188016851307 351.1 L 16.66536641181672 350.1 L 17.575544806782133 349.9 L 18.485723201747547 317.6 L 19.39590159671296 283.2 L 20.306079991678374 285.5 L 21.216258386643787 287.2 L 22.1264367816092 299.8 L 23.036615176574614 260.5 L 23.946793571540027 223.7 L 24.85697196650544 49.3 L 25.767150361470854 153 L 26.677328756436268 162.2 L 27.58750715140168 141.3 L 28.497685546367094 152.6 L 29.407863941332504 147.1 L 30.318042336297918 99 L 31.22822073126333 80.7 L 32.13839912622875 62 L 33.04857752119416 140.5 L 33.958755916159575 140.1 L 34.86893431112499 105.5 L 35.7791127060904 65.1 L 36.689291101055815 32.1 L 37.59946949602123 -65.5 L 38.50964789098664 -51 L 39.419826285952055 -73.3 L 40.33000468091747 -79 L 41.24018307588288 -90.2 L 42.150361470848296 -92.9 L 43.06053986581371 -93 L 43.970718260779115 -92.4 L 44.88089665574453 -74.3 L 45.79107505070994 -16.9 L 46.701253445675356 33.7 L 47.61143184064077 36.9 L 48.52161023560618 -1 L 49.431788630571596 60.4 L 50.34196702553701 1.5 L 51.25214542050242 -88.7 L 52.162323815467836 -29.6 L 53.07250221043325 -27 L 53.98268060539866 -14.2 L 54.892859000364076 38.1 L 55.80303739532949 13 L 56.7132157902949 -8 L 57.62339418526032 28.4 L 58.53357258022573 10.6 L 59.44375097519114 -4.6 L 60.35392937015656 7.1 L 61.26410776512197 -7.3 L 62.174286160087384 -24.8 L 63.0844645550528 2 L 63.99464295001821 27.3 L 64.90482134498363 13.9 L 65.81499973994904 29 L 66.72517813491446 25 L 67.63535652987987 -4.2 L 68.54553492484528 33.6 L 69.4557133198107 121.2 L 70.36589171477611 46.2 L 71.27607010974153 26.3 L 72.18624850470694 34.7 L 73.09642689967234 18.1 L 74.00660529463775 89.2 L 74.91678368960316 95.8 L 75.82696208456858 45.2 L 76.73714047953399 65.1 L 77.6473188744994 69.5 L 78.55749726946482 22.7 L 79.46767566443023 88.5 L 80.37785405939564 109.2 L 81.28803245436106 108.3 L 82.19821084932647 96.8 L 83.10838924429189 85 L 84.0185676392573 62.1 L 84.92874603422271 14.5 L 85.83892442918813 -18.4 L 86.74910282415354 92.6 L 87.65928121911895 86.1 L 88.56945961408437 112.4 L 89.47963800904978 63.5 L 90.38981640401519 65.7 L 91.2999947989806 38.9 L 92.21017319394602 58.8 L 93.12035158891143 78.9 L 94.03052998387685 70.6 L 94.94070837884226 80.2 L 95.85088677380767 73.7 L 96.76106516877309 84 L 97.6712435637385 103.2 L 98.58142195870391 81.2 L 99.49160035366933 102 L 100.40177874863474 69.9 L 101.31195714360015 80.5 L 102.22213553856557 85.2 L 103.13231393353098 88.8 L 104.0424923284964 87.6 L 104.95267072346181 97.3 L 105.86284911842722 99.8 L 106.77302751339263 96.1 L 107.68320590835805 102.1 L 108.59338430332346 88.8 L 109.50356269828887 115.7 L 110.41374109325429 119.3 L 111.3239194882197 255.4 L 112.23409788318511 219.9 L 113.14427627815053 169 L 114.05445467311594 155.4 L 114.96463306808135 -3.1 L 115.87481146304677 -20.5 L 116.78498985801218 176.5 L 117.6951682529776 263.1 L 118.60534664794301 278.6 L 119.51552504290842 274.2 L 120.42570343787384 290.9 L 121.33588183283925 268.6 L 122.24606022780466 290 L 123.15623862277008 298.5 L 124.06641701773549 294.3 L 124.9765954127009 301.1 L 125.88677380766632 287.7 L 126.79695220263173 301.2 L 127.70713059759714 309.8 L 128.61730899256256 305.3 L 129.52748738752797 307.4 L 130.43766578249338 308.5 L 131.3478441774588 307.6 L 132.2580225724242 312.7 L 133.16820096738962 313.5 L 134.07837936235504 298.6 L 134.98855775732045 227.3 L 135.89873615228586 315.6 L 136.80891454725128 302.5 L 137.7190929422167 308.9 L 138.6292713371821 307.9 L 139.53944973214752 307.6 L 140.44962812711293 308.5 L 141.35980652207834 265.7 L 142.26998491704376 311.1 L 143.18016331200917 305.2 L 144.09034170697458 313.4 L 145.00052010194 304.3 L 145.9106984969054 310.6 L 146.82087689187082 311.9 L 147.73105528683624 305.9 L 148.64123368180165 301.4 L 149.55141207676706 305.1 L 150.46159047173248 304.4 L 151.3717688666979 315.1 L 152.2819472616633 305.8 L 153.19212565662872 311 L 154.10230405159413 307.4 L 155.01248244655955 305.1 L 155.92266084152496 310.7 L 156.83283923649037 312.5 L 157.74301763145579 310.1 L 158.6531960264212 307 L 159.5633744213866 304.3 L 160.47355281635203 298.2 L 161.38373121131744 285.1 L 162.29390960628285 311 L 163.20408800124827 313.8 L 164.11426639621368 304 L 165.0244447911791 304.8 L 165.9346231861445 312.6 L 166.84480158110992 308.3 L 167.75497997607533 301.8 L 168.66515837104075 312.2 L 169.57533676600616 304.9 L 170.48551516097157 306.6 L 171.395693555937 307.2 L 172.3058719509024 315 L 173.2160503458678 307.3 L 174.12622874083323 308.1 L 175.03640713579864 304.8 L 175.94658553076405 298.9 L 176.85676392572947 302.1 L 177.76694232069488 314.2 L 178.6771207156603 309 L 179.5872991106257 311.4 L 180.49747750559112 303.6 L 181.40765590055653 315.8 L 182.31783429552195 311 L 183.22801269048736 307.6 L 184.13819108545277 304.1 L 185.0483694804182 310.7 L 185.9585478753836 301.9 L 186.86872627034901 315 L 187.77890466531443 313.2 L 188.68908306027984 310.8 L 189.59926145524526 304.1 L 190.50943985021067 310.8 L 191.41961824517608 301.7 L 192.3297966401415 322.5 L 193.2399750351069 305.1 L 194.15015343007232 304 L 195.06033182503774 297.3 L 195.97051022000315 314 L 196.88068861496856 313 L 197.79086700993398 325 L 198.7010454048994 310.8 L 199.6112237998648 310.6 L 200.52140219483022 311.1 L 201.43158058979563 320.1 L 202.34175898476104 313.5 L 203.25193737972646 311.9 L 204.16211577469187 309.4 L 205.07229416965728 311.2 L 205.9824725646227 324.1 L 206.8926509595881 314.4 L 207.80282935455352 307.1 L 208.71300774951894 311.9 L 209.62318614448435 313.1 L 210.53336453944976 322.3 L 211.44354293441518 294.2 L 212.3537213293806 303.8 L 213.263899724346 311.4 L 214.17407811931142 314.1 L 215.08425651427683 317.3 L 215.99443490924224 322.7 L 216.90461330420766 312.8 L 217.81479169917307 311.5 L 218.72497009413848 310.8 L 219.6351484891039 322.1 L 220.5453268840693 315.8 L 221.45550527903472 321.4 L 222.36568367400014 311.8 L 223.27586206896555 305.5 L 224.18604046393096 308.2 L 225.09621885889638 323.3 L 226.0063972538618 310.4 L 226.9165756488272 300.7 L 227.82675404379262 302.4 L 228.73693243875803 310.1 L 229.64711083372345 317.1 L 230.55728922868886 315.6 L 231.46746762365427 303.3 L 232.37764601861969 304.8 L 233.2878244135851 299.2 L 234.1980028085505 318.4 L 235.10818120351593 311.8 L 236.01835959848134 304.3 L 236.92853799344675 302.9 L 237.83871638841217 273.7 L 238.74889478337758 275.1 L 239.659073178343 267.9 L 240.5692515733084 321.9 L 241.47942996827382 329.6 L 242.38960836323923 331.3 L 243.29978675820465 331.2 L 244.20996515317006 331.4 L 245.12014354813547 331.1 L 246.0303219431009 331.2 L 246.9405003380663 329.8 L 247.85067873303169 331.3 L 248.7608571279971 331.1 L 249.6710355229625 331.3 L 250.58121391792793 331.2 L 251.49139231289334 327.7 L 252.40157070785875 331.2 L 253.31174910282417 331.3 L 254.22192749778958 331.2 L 255.132105892755 327.3 L 256.0422842877204 310.2 L 256.95246268268585 323.5 L 257.86264107765123 331.2 L 258.7728194726167 331.3 L 259.68299786758206 331.2 L 260.5931762625475 329.6 L 261.5033546575129 331.2 L 262.41353305247833 331.2 L 263.3237114474437 331.2 L 264.23388984240916 329.9 L 265.14406823737454 331.1 L 266.05424663234 331.3 L 266.96442502730537 329.6 L 267.8746034222708 331.3 L 268.7847818172362 331.3 L 269.69496021220164 331.2 L 270.605138607167 331.1 L 271.51531700213246 331.3 L 272.42549539709785 331.3 L 273.3356737920633 324.1 L 274.2458521870287 331.2 L 275.1560305819941 328.4 L 276.0662089769595 331.2 L 276.97638737192494 331.3 L 277.8865657668903 331.3 L 278.79674416185577 331.2 L 279.70692255682116 328.7 L 280.6171009517866 331.2 L 281.527279346752 331.1 L 282.4374577417174 330 L 283.3476361366828 331.1 L 284.25781453164825 331.4 L 285.16799292661364 331.2 L 286.0781713215791 331.2 L 286.98834971654446 331.4 L 287.8985281115099 331.1 L 288.8087065064753 331.3 L 289.71888490144073 331.3 L 290.6290632964061 331.2 L 291.53924169137156 331.2 L 292.44942008633694 331.3 L 293.3595984813024 331.2 L 294.26977687626777 325.2 L 295.1799552712332 330.8 L 296.0901336661986 331.3 L 297.00031206116404 331.3 L 297.9104904561294 331.2 L 298.82066885109487 330.7 L 299.73084724606025 329.7 L 300.6410256410257 331.2 L 301.5512040359911 331.4 L 302.4613824309565 331.3 L 303.3715608259219 322.5 L 304.28173922088735 325.7 L 305.19191761585273 340 L 306.1020960108182 340 L 307.01227440578356 340.1 L 307.922452800749 307.2 L 308.8326311957144 331 L 309.7428095906798 337.5 L 310.6529879856452 322.6 L 311.56316638061065 321.6 L 312.47334477557604 336.5 L 313.3835231705415 336.4 L 314.29370156550686 339.8 L 315.2038799604723 339.8 L 316.1140583554377 330.2 L 317.02423675040313 332.1 L 317.9344151453685 338.4 L 318.84459354033396 340.1 L 319.75477193529935 340.1 L 320.6649503302648 340 L 321.5751287252302 340.2 L 322.4853071201956 336.5 L 323.395485515161 339.7 L 324.30566391012644 340.2 L 325.2158423050918 340 L 326.12602070005727 339.8 L 327.03619909502265 340.2 L 327.9463774899881 339.9 L 328.8565558849535 340 L 329.7667342799189 340.2 L 330.6769126748843 340 L 331.58709106984975 339.2 L 332.49726946481513 340.2 L 333.4074478597806 340.1 L 334.31762625474596 290.4 L 335.2278046497114 293.6 L 336.1379830446768 261.4 L 337.04816143964223 301.7 L 337.9583398346076 334.8 L 338.86851822957306 339.9 L 339.77869662453844 340.1 L 340.6888750195039 340.2 L 341.59905341446927 340 L 342.5092318094347 332.8 L 343.4194102044001 340.2 L 344.32958859936554 339.9 L 345.2397669943309 340.1 L 346.14994538929636 340 L 347.06012378426175 340.2 L 347.9703021792272 340.1 L 348.8804805741926 339.9 L 349.790658969158 340.1 L 350.7008373641234 340.1 L 351.61101575908884 340 L 352.5211941540542 340.1 L 353.43137254901967 330.1 L 354.34155094398506 332.2 L 355.2517293389505 340.1 L 356.1619077339159 333.9 L 357.0720861288813 339.9 L 357.9822645238467 340.1 L 358.89244291881215 340.1 L 359.80262131377754 339.8 L 360.712799708743 340.2 L 361.62297810370836 340.1 L 362.5331564986738 340 L 363.4433348936392 337.2 L 364.3535132886046 339.3 L 365.26369168357 302.5 L 366.1738700785354 340 L 367.08404847350084 340.1 L 367.9942268684662 340 L 368.90440526343167 340.1 L 369.81458365839705 339.7 L 370.7247620533625 338.5 L 371.6349404483279 340.2 L 372.5451188432933 337.2 L 373.4552972382587 340 L 374.36547563322415 340.1 L 375.27565402818954 339.9 L 376.185832423155 340.1 L 377.09601081812036 340.2 L 378.0061892130858 338.9 L 378.9163676080512 338 L 379.82654600301663 340.1 L 380.736724397982 340.1 L 381.64690279294746 340 L 382.55708118791284 340 L 383.4672595828783 340.1 L 384.37743797784367 340.1 L 385.2876163728091 340 L 386.1977947677745 339.9 L 387.10797316273994 336.9 L 388.0181515577053 311.7 L 388.92832995267077 333.9 L 389.83850834763615 340.1 L 390.7486867426016 337.8 L 391.658865137567 338.8 L 392.5690435325324 340.1 L 393.4792219274978 328.2 L 394.38940032246325 340.2 L 395.29957871742863 340 L 396.2097571123941 339.9 L 397.11993550735946 332.9 L 398.0301139023249 340 L 398.9402922972903 340 L 399.8504706922557 340.3 L 400.7606490872211 340.1 L 401.67082748218655 340 L 402.58100587715194 340.1 L 403.4911842721174 334.2 L 404.40136266708276 340.1 L 405.3115410620482 339.1 L 406.2217194570136 339.6 L 407.13189785197903 340 L 408.0420762469444 340.1 L 408.95225464190986 339.9 L 409.86243303687525 340.1 L 410.7726114318407 340 L 411.6827898268061 340 L 412.5929682217715 335.5 L 413.5031466167369 340.1 L 414.41332501170234 340 L 415.3235034066677 340.1 L 416.23368180163317 340.1 L 417.14386019659855 334.4 L 418.054038591564 340.1 L 418.9642169865294 331 L 419.8743953814948 340.1 L 420.7845737764602 337.1 L 421.69475217142565 339.9 L 422.60493056639103 340.2 L 423.5151089613565 338.7 L 424.42528735632186 337.2 L 425.3354657512873 340.3 L 426.2456441462527 340.3 L 427.15582254121813 339.8 L 428.0660009361835 338.4 L 428.97617933114896 339.9 L 429.88635772611434 340.1 L 430.7965361210798 340.3 L 431.70671451604517 340 L 432.6168929110106 340.1 L 433.527071305976 337.9 L 434.43724970094144 338.9 L 435.3474280959068 340.2 L 436.25760649087226 340.1 L 437.16778488583765 340 L 438.0779632808031 340.2 L 438.9881416757685 340 L 439.8983200707339 340 L 440.8084984656993 339.2 L 441.71867686066474 340.1 L 442.6288552556301 337.6 L 443.53903365059557 340 L 444.44921204556096 340.2 L 445.3593904405264 340.1 L 446.2695688354918 340 L 447.1797472304572 336.7 L 448.0899256254226 340.2 L 449.00010402038805 340 L 449.91028241535344 340 L 450.8204608103189 340.2 L 451.73063920528426 340 L 452.6408176002497 340.1 L 453.5509959952151 340.2 L 454.46117439018053 340 L 455.3713527851459 340 L 456.28153118011136 340.1 L 457.19170957507674 339.9 L 458.1018879700422 340.1 L 459.01206636500757 318 L 459.922244759973 340.1 L 460.8324231549384 340 L 461.74260154990384 340.1 L 462.6527799448692 339.9 L 463.56295833983467 340.1 L 464.47313673480005 340.1 L 465.3833151297655 340.1 L 466.2934935247308 340 L 467.20367191969626 340 L 468.11385031466165 340.2 L 469.0240287096271 340 L 469.9342071045925 339.9 L 470.8443854995579 340.1 L 471.7545638945233 340.1 L 472.66474228948874 339.8 L 473.5749206844541 340.2 L 474.48509907941957 336.7 L 475.39527747438495 339.4 L 476.3054558693504 337.7 L 477.2156342643158 337.9 L 478.1258126592812 336.5 L 479.0359910542466 340.1 L 479.94616944921205 340.2 L 480.85634784417744 339.9 L 481.7665262391429 340.2 L 482.67670463410826 340.1 L 483.5868830290737 337.5 L 484.4970614240391 339.2 L 485.40723981900453 340.1 L 486.3174182139699 340.1 L 487.22759660893536 340.3 L 488.13777500390074 340.1 L 489.0479533988662 338.1 L 489.95813179383157 339.1 L 490.868310188797 340 L 491.7784885837624 340.1 L 492.68866697872784 340.2 L 493.5988453736932 338.5 L 494.50902376865866 323.6 L 495.41920216362405 340.2 L 496.3293805585895 336.2 L 497.2395589535549 340.1 L 498.1497373485203 319.9 L 499.0599157434857 340 L 499.97009413845115 340.1 L 500.88027253341653 340.2 L 501.790450928382 340.1 L 502.70062932334736 336.7 L 503.6108077183128 339.8 L 504.5209861132782 340.1 L 505.4311645082436 340.1 L 506.341342903209 340.1 L 507.25152129817445 340.1 L 508.16169969313984 340 L 509.0718780881053 340 L 509.98205648307066 340 L 510.8922348780361 340.1 L 511.8024132730015 338.3 L 512.7125916679669 340 L 513.6227700629323 340 L 514.5329484578978 340 L 515.4431268528632 340 L 516.3533052478285 339.9 L 517.263483642794 340.1 L 518.1736620377594 340 L 519.0838404327249 340.1 L 519.9940188276902 340 L 520.9041972226556 340 L 521.8143756176211 340.3 L 522.7245540125865 340.2 L 523.6347324075518 339.9 L 524.5449108025173 340.2 L 525.4550891974827 340 L 526.3652675924482 340.1 L 527.2754459874135 340.2 L 528.1856243823789 340 L 529.0958027773444 340.1 L 530.0059811723098 338.3 L 530.9161595672751 330.6 L 531.8263379622406 339.2 L 532.736516357206 339.4 L 533.6466947521715 338 L 534.5568731471368 340.1 L 535.4670515421022 340.1 L 536.3772299370677 340 L 537.2874083320331 340.2 L 538.1975867269985 340.1 L 539.1077651219639 340.2 L 540.0179435169293 330 L 540.9281219118948 333.8 L 541.8383003068601 340.2 L 542.7484787018255 340.1 L 543.658657096791 339.9 L 544.5688354917564 340.3 L 545.4790138867218 339.3 L 546.3891922816872 338.3 L 547.2993706766526 338.6 L 548.2095490716181 339.8 L 549.1197274665834 339.8 L 550.0299058615489 340.3 L 550.9400842565143 339.8 L 551.8502626514797 340.1 L 552.7604410464451 340.3 L 553.6706194414105 340 L 554.580797836376 337.1 L 555.4909762313414 340.2 L 556.4011546263067 339.9 L 557.3113330212722 340.1 L 558.2215114162376 340.3 L 559.131689811203 337.7 L 560.0418682061684 340.1 L 560.9520466011338 340.2 L 561.8622249960993 340.1 L 562.7724033910647 339.9 L 563.68258178603 339.9 L 564.5927601809955 340.2 L 565.5029385759609 338.3 L 566.4131169709264 340.1 L 567.3232953658917 340.2 L 568.2334737608571 340 L 569.1436521558226 340.1 L 570.053830550788 340.2 L 570.9640089457533 340 L 571.8741873407188 340 L 572.7843657356842 340.2 L 573.6945441306497 340 L 574.604722525615 334.8 L 575.5149009205804 340.3 L 576.4250793155459 333.3 L 577.3352577105113 340.1 L 578.2454361054766 340.2 L 579.1556145004421 340.1 L 580.0657928954075 340 L 580.975971290373 340 L 581.8861496853383 340 L 582.7963280803037 326.8 L 583.7065064752692 340 L 584.6166848702346 340.1 L 585.5268632652 335.7 L 586.4370416601654 339.9 L 587.3472200551308 331.9 L 588.2573984500963 332.5 L 589.1675768450616 336.5 L 590.077755240027 335.9 L 590.9879336349925 334 L 591.8981120299579 340.2 L 592.8082904249233 338.1 L 593.7184688198887 336.6 L 594.6286472148541 316.3 L 595.5388256098196 331.9 L 596.4490040047849 335.4 L 597.3591823997504 340.1 L 598.2693607947158 340 L 599.1795391896812 340.4 L 600.0897175846466 338.7 L 600.999895979612 333.8 L 601.9100743745774 339.2 L 602.8202527695429 340 L 603.7304311645082 340.3 L 604.6406095594737 340 L 605.5507879544391 340.1 L 606.4609663494045 340.1 L 607.3711447443699 339.9 L 608.2813231393353 340 L 609.1915015343008 340.2 L 610.1016799292662 337.5 L 611.0118583242315 339 L 611.922036719197 340.1 L 612.8322151141624 274.8 L 613.7423935091279 287.5 L 614.6525719040932 265.5 L 615.5627502990586 314.3 L 616.4729286940241 340 L 617.3831070889895 340.2 L 618.2932854839548 338.2 L 619.2034638789203 331.7 L 620.1136422738857 340.2 L 621.0238206688512 340 L 621.9339990638165 340.1 L 622.8441774587819 339.9 L 623.7543558537474 340.1 L 624.6645342487128 340.1 L 625.5747126436781 340 L 626.4848910386436 340.1 L 627.395069433609 340.1 L 628.3052478285745 340.2 L 629.2154262235398 340.2 L 630.1256046185052 340 L 631.0357830134707 340.1 L 631.9459614084361 340.1 L 632.8561398034014 340 L 633.7663181983669 340 L 634.6764965933323 340.2 L 635.5866749882978 339.1 L 636.4968533832631 323.6 L 637.4070317782285 339.5 L 638.317210173194 339.9 L 639.2273885681593 340.1 L 640.1375669631248 340.1 L 641.0477453580902 340 L 641.9579237530556 340.2 L 642.868102148021 315.5 L 643.7782805429864 334 L 644.6884589379519 338.8 L 645.5986373329173 338.3 L 646.5088157278826 340.3 L 647.4189941228481 338.7 L 648.3291725178135 338 L 649.239350912779 340.1 L 650.1495293077443 339.9 L 651.0597077027097 337 L 651.9698860976752 337.3 L 652.8800644926406 339.9 L 653.7902428876059 338.1 L 654.7004212825714 340.2 L 655.6105996775368 339.7 L 656.5207780725023 340 L 657.4309564674676 339.7 L 658.341134862433 337.3 L 659.2513132573985 339.9 L 660.1614916523639 340.2 L 661.0716700473292 340 L 661.9818484422947 340 L 662.8920268372601 334.6 L 663.8022052322256 340 L 664.7123836271909 340 L 665.6225620221563 340.2 L 666.5327404171218 336.7 L 667.4429188120872 315 L 668.3530972070525 340 L 669.263275602018 340.1 L 670.1734539969834 339.9 L 671.0836323919489 335.7 L 671.9938107869142 339.4 L 672.9039891818796 340 L 673.8141675768451 332 L 674.7243459718105 340.2 L 675.6345243667758 340 L 676.5447027617413 340 L 677.4548811567067 340.2 L 678.3650595516722 236.5 L 679.2752379466375 234.9 L 680.185416341603 241.4 L 681.0955947365684 248.1 L 682.0057731315338 199.2 L 682.9159515264992 228 L 683.8261299214646 322.5 L 684.73630831643 331.5 L 685.6464867113955 330.1 L 686.5566651063608 323.7 L 687.4668435013263 331.5 L 688.3770218962917 332.1 L 689.2872002912571 327.5 L 690.1973786862225 330.9 L 691.1075570811879 319.1 L 692.0177354761533 339.3 L 692.9279138711188 340.3 L 693.8380922660841 333.2 L 694.7482706610496 340.2 L 695.658449056015 340.2 L 696.5686274509804 340.3 L 697.4788058459458 340.3 L 698.3889842409112 340.4 L 699.2991626358767 337.7 L 700.2093410308421 340.2 L 701.1195194258074 337.2 L 702.0296978207729 340.4 L 702.9398762157383 340.1 L 703.8500546107038 340.1 L 704.7602330056691 340.1 L 705.6704114006345 340.2 L 706.5805897956 338.5 L 707.4907681905654 339.8 L 708.4009465855307 336.4 L 709.3111249804962 323 L 710.2213033754616 340.2 L 711.1314817704271 340.2 L 712.0416601653924 340.2 L 712.9518385603578 340.3 L 713.8620169553233 337.9 L 714.7721953502887 340.2 L 715.682373745254 340.2 L 716.5925521402195 340 L 717.5027305351849 340.4 L 718.4129089301504 340.3 L 719.3230873251157 326.9 L 720.2332657200811 335.8 L 721.1434441150466 340.3 L 722.053622510012 337.8 L 722.9638009049773 340.3 L 723.8739792999428 338.4 L 724.7841576949082 333.8 L 725.6943360898737 340.4 L 726.604514484839 338.8 L 727.5146928798044 339.4 L 728.4248712747699 340.3 L 729.3350496697353 340.1 L 730.2452280647007 340.2 L 731.1554064596661 340.2 L 732.0655848546315 340.1 L 732.975763249597 340.2 L 733.8859416445623 340.3 L 734.7961200395278 340.1 L 735.7062984344932 340.2 L 736.6164768294586 340.3 L 737.526655224424 340.1 L 738.4368336193894 340.1 L 739.3470120143548 340.3 L 740.2571904093203 340.2 L 741.1673688042856 340.3 L 742.0775471992511 338.6 L 742.9877255942165 340.2 L 743.8979039891819 340.1 L 744.8080823841473 340.1 L 745.7182607791127 340.3 L 746.6284391740782 340.2 L 747.5386175690436 340.2 L 748.4487959640089 340.2 L 749.3589743589744 340.2 L 750.2691527539398 340.2 L 751.1793311489052 340.3 L 752.0895095438706 340.1 L 752.999687938836 340.1 L 753.9098663338015 340.4 L 754.8200447287669 331.1 L 755.7302231237322 340.1 L 756.6404015186977 338.8 L 757.5505799136631 338.8 L 758.4607583086286 340.1 L 759.3709367035939 340.1 L 760.2811150985593 338.6 L 761.1912934935248 340.1 L 762.1014718884902 340.2 L 763.0116502834555 340.2 L 763.921828678421 340.3 L 764.8320070733864 340.1 L 765.7421854683519 340.1 L 766.6523638633172 340.3 L 767.5625422582826 340.2 L 768.4727206532481 340.1 L 769.3828990482135 336.9 L 770.2930774431788 340.2 L 771.2032558381443 340.2 L 772.1134342331097 340.2 L 773.0236126280752 340.1 L 773.9337910230405 340.3 L 774.8439694180059 340.1 L 775.7541478129714 340.2 L 776.6643262079368 340.3 L 777.5745046029022 332.2 L 778.4846829978676 332.1 L 779.394861392833 340.3 L 780.3050397877985 340.1 L 781.2152181827638 331.9 L 782.1253965777292 340.3 L 783.0355749726947 338 L 783.9457533676601 340.1 L 784.8559317626255 340.3 L 785.7661101575909 334.2 L 786.6762885525563 338 L 787.5864669475218 340.3 L 788.4966453424871 340 L 789.4068237374526 340.2 L 790.317002132418 340.3 L 791.2271805273834 340.2 L 792.1373589223488 340.1 L 793.0475373173142 340.5 L 793.9577157122797 340 L 794.8678941072451 339.2 L 795.7780725022104 340.3 L 796.6882508971759 340.2 L 797.5984292921413 340.2 L 798.5086076871067 340.4 L 799.4187860820721 340.2 L 800.3289644770375 340.2 L 801.239142872003 340.1 L 802.1493212669684 340.3 L 803.0594996619337 340.3 L 803.9696780568992 340.2 L 804.8798564518646 340.4 L 805.79003484683 340.2 L 806.7002132417954 340.1 L 807.6103916367608 340.4 L 808.5205700317263 340.1 L 809.4307484266917 340.3 L 810.340926821657 333.3 L 811.2511052166225 337 L 812.1612836115879 340.2 L 813.0714620065534 339.4 L 813.9816404015187 340.1 L 814.8918187964841 340.2 L 815.8019971914496 340.3 L 816.712175586415 340.1 L 817.6223539813803 340.4 L 818.5325323763458 340.2 L 819.4427107713112 340.2 L 820.3528891662767 340.4 L 821.263067561242 340.3 L 822.1732459562074 340.1 L 823.0834243511729 340.3 L 823.9936027461383 340.2 L 824.9037811411037 336.7 L 825.8139595360691 340.2 L 826.7241379310345 340.3 L 827.634316326 340.3 L 828.5444947209653 340.3 L 829.4546731159307 340 L 830.3648515108962 339 L 831.2750299058616 340.1 L 832.185208300827 340.3 L 833.0953866957924 340.3 L 834.0055650907578 338.8 L 834.9157434857233 340 L 835.8259218806886 340.4 L 836.736100275654 340.1 L 837.6462786706195 340.2 L 838.5564570655849 338.1 L 839.4666354605503 340 L 840.3768138555157 340.3 L 841.2869922504811 340.3 L 842.1971706454466 340.1 L 843.1073490404119 340.3 L 844.0175274353774 340.2 L 844.9277058303428 340.3 L 845.8378842253082 340.3 L 846.7480626202736 338.7 L 847.658241015239 336.2 L 848.5684194102045 339.3 L 849.4785978051699 340.2 L 850.3887762001352 340.4 L 851.2989545951007 340.2 L 852.2091329900661 340.2 L 853.1193113850316 339.2 L 854.0294897799969 339 L 854.9396681749623 340.2 L 855.8498465699278 340.3 L 856.7600249648932 340.4 L 857.6702033598585 340.2 L 858.580381754824 340.3 L 859.4905601497894 340.2 L 860.4007385447549 340.2 L 861.3109169397202 340.2 L 862.2210953346856 333.8 L 863.1312737296511 333.1 L 864.0414521246165 336 L 864.9516305195818 340.4 L 865.8618089145473 340.2 L 866.7719873095127 332 L 867.6821657044782 338.1 L 868.5923440994435 340.1 L 869.5025224944089 338.5 L 870.4127008893744 340.2 L 871.3228792843398 339.9 L 872.2330576793051 338.1 L 873.1432360742706 340.4 L 874.053414469236 340 L 874.9635928642014 338 L 875.8737712591668 340.3 L 876.7839496541322 340.2 L 877.6941280490977 339.7 L 878.604306444063 335.4 L 879.5144848390285 340.2 L 880.4246632339939 340.2 L 881.3348416289593 338 L 882.2450200239247 340.2 L 883.1551984188901 340.2 L 884.0653768138556 338.8 L 884.975555208821 340.2 L 885.8857336037863 340.2 L 886.7959119987518 340.1 L 887.7060903937172 340.3 L 888.6162687886826 340.3 L 889.526447183648 340.2 L 890.4366255786134 340.2 L 891.3468039735789 340.3 L 892.2569823685443 283 L 893.1671607635096 288.1 L 894.0773391584751 267 L 894.9875175534405 308.2 L 895.897695948406 340.1 L 896.8078743433713 340.5 L 897.7180527383367 339.9 L 898.6282311333022 340.4 L 899.5384095282676 340.3 L 900.4485879232329 340 L 901.3587663181984 339.1 L 902.2689447131638 339.8 L 903.1791231081293 340 L 904.0893015030946 340.4 L 904.99947989806 340.2 L 905.9096582930255 340 L 906.8198366879909 334.4 L 907.7300150829562 340 L 908.6401934779217 335.2 L 909.5503718728871 340.3 L 910.4605502678526 340.2 L 911.3707286628179 331.3 L 912.2809070577833 340.3 L 913.1910854527488 338.6 L 914.1012638477142 338.6 L 915.0114422426795 332.9 L 915.921620637645 340.3 L 916.8317990326104 338.4 L 917.7419774275759 340.1 L 918.6521558225412 340.2 L 919.5623342175066 335.8 L 920.4725126124721 334 L 921.3826910074375 340.3 L 922.2928694024029 340.2 L 923.2030477973683 237.2 L 924.1132261923337 242.1 L 925.0234045872992 200.2 L 925.9335829822645 192.9 L 926.84376137723 235.3 L 927.7539397721954 223.8 L 928.6641181671608 261.9 L 929.5742965621262 211.1 L 930.4844749570916 212.7 L 931.394653352057 204.1 L 932.3048317470225 173 L 933.2150101419878 196.3 L 934.1251885369533 212.5 L 935.0353669319187 218.9 L 935.9455453268841 201.2 L 936.8557237218495 261.4 L 937.7659021168149 311.1 L 938.6760805117804 308 L 939.5862589067458 307.8 L 940.4964373017111 313 L 941.4066156966766 313.9 L 942.316794091642 314.1 L 943.2269724866075 314.2 L 944.1371508815728 312.7 L 945.0473292765382 314.2 L 945.9575076715037 306.2 L 946.8676860664691 294.3 L 947.7778644614344 314.5 L 948.6880428563999 314.6 L 949.5982212513653 313.6 L 950.5083996463308 314.5 L 951.4185780412961 313 L 952.3287564362615 314.2 L 953.238934831227 314.5 L 954.1491132261924 314.4 L 955.0592916211577 313.1 L 955.9694700161232 313.1 L 956.8796484110886 314.7 L 957.7898268060541 303.4 L 958.7000052010194 311.1 L 959.6101835959848 314.5 L 960.5203619909503 303.9 L 961.4305403859157 311.9 L 962.340718780881 314.3 L 963.2508971758465 314.6 L 964.1610755708119 313.2 L 965.0712539657774 314.4 L 965.9814323607427 314.6 L 966.8916107557081 313.3 L 967.8017891506736 314.7 L 968.711967545639 314.6 L 969.6221459406044 313.5 L 970.5323243355698 311.6 L 971.4425027305352 317 L 972.3526811255007 295.6 L 973.262859520466 235.9 L 974.1730379154315 306.8 L 975.0832163103969 328.4 L 975.9933947053623 296.3 L 976.9035731003277 321 L 977.8137514952931 333.6 L 978.7239298902585 345.6 L 979.634108285224 345.7 L 980.5442866801893 345.7 L 981.4544650751548 343.3 L 982.3646434701202 345.7 L 983.2748218650856 345.8 L 984.185000260051 345.5 L 985.0951786550164 345.9 L 986.0053570499819 345.8 L 986.9155354449473 345.5 L 987.8257138399126 345.6 L 988.7358922348781 345.7 L 989.6460706298435 344.3 L 990.556249024809 345.5 L 991.4664274197743 345.7 L 992.3766058147397 345.6 L 993.2867842097052 345.5 L 994.1969626046706 345.6 L 995.1071409996359 345.5 L 996.0173193946014 345.6 L 996.9274977895668 345.7 L 997.8376761845323 345.6 L 998.7478545794976 345.7 L 999.658032974463 345.7 L 1000.5682113694285 345.6 L 1001.4783897643939 345.6 L 1002.3885681593592 345.6 L 1003.2987465543247 345.7 L 1004.2089249492901 345.7 L 1005.1191033442556 345.7 L 1006.0292817392209 345.6 L 1006.9394601341863 345.5 L 1007.8496385291518 344.2 L 1008.7598169241172 345.7 L 1009.6699953190825 345.8 L 1010.580173714048 345.5 L 1011.4903521090134 345.7 L 1012.4005305039789 345.6 L 1013.3107088989442 345.6 L 1014.2208872939096 345.6 L 1015.1310656888751 345.8 L 1016.0412440838405 345.6 L 1016.9514224788059 345.6 L 1017.8616008737713 345.6 L 1018.7717792687367 345.6 L 1019.6819576637022 345.8 L 1020.5921360586675 345.6 L 1021.502314453633 345.6 L 1022.4124928485984 345.7 L 1023.3226712435638 345.6 L 1024.2328496385292 345.5 L 1025.1430280334946 344.2 L 1026.05320642846 345.7 L 1026.9633848234255 345.5 L 1027.873563218391 345.7 L 1028.7837416133564 345.7 L 1029.6939200083216 345.7 L 1030.604098403287 351 L 1031.5142767982525 351.4 L 1032.424455193218 351.4 L 1033.3346335881834 351.3 L 1034.2448119831488 351.3 L 1035.1549903781142 351.4 L 1036.0651687730797 351.4 L 1036.975347168045 349 L 1037.8855255630103 351.3 L 1038.7957039579758 351.2 L 1039.7058823529412 351.5 L 1049.7058823529412 351.5" class="highcharts-tracker highcharts-tracker" stroke-linejoin="round" visibility="visible" stroke-opacity="0.0001" stroke="rgb(192,192,192)" stroke-width="21" zIndex="2" style=""></path></g></g><g class="highcharts-axis-labels" zIndex="7"><text x="70.29411764705883" y="386" style="font-family:&quot;Lucida Grande&quot;, &quot;Lucida Sans Unicode&quot;, Verdana, Arial, Helvetica, sans-serif;font-size:11px;color:#666;cursor:default;line-height:14px;fill:#666;" text-anchor="middle" opacity="1"><tspan x="70.29411764705883">0</tspan></text><text x="161.31195714360015" y="386" style="font-family:&quot;Lucida Grande&quot;, &quot;Lucida Sans Unicode&quot;, Verdana, Arial, Helvetica, sans-serif;font-size:11px;color:#666;cursor:default;line-height:14px;fill:#666;" text-anchor="middle" opacity="1"><tspan x="161.31195714360015">1 500</tspan></text><text x="252.3297966401415" y="386" style="font-family:&quot;Lucida Grande&quot;, &quot;Lucida Sans Unicode&quot;, Verdana, Arial, Helvetica, sans-serif;font-size:11px;color:#666;cursor:default;line-height:14px;fill:#666;" text-anchor="middle" opacity="1"><tspan x="252.3297966401415">3 000</tspan></text><text x="343.3476361366828" y="386" style="font-family:&quot;Lucida Grande&quot;, &quot;Lucida Sans Unicode&quot;, Verdana, Arial, Helvetica, sans-serif;font-size:11px;color:#666;cursor:default;line-height:14px;fill:#666;" text-anchor="middle" opacity="1"><tspan x="343.3476361366828">4 500</tspan></text><text x="434.36547563322415" y="386" style="font-family:&quot;Lucida Grande&quot;, &quot;Lucida Sans Unicode&quot;, Verdana, Arial, Helvetica, sans-serif;font-size:11px;color:#666;cursor:default;line-height:14px;fill:#666;" text-anchor="middle" opacity="1"><tspan x="434.36547563322415">6 000</tspan></text><text x="525.3833151297655" y="386" style="font-family:&quot;Lucida Grande&quot;, &quot;Lucida Sans Unicode&quot;, Verdana, Arial, Helvetica, sans-serif;font-size:11px;color:#666;cursor:default;line-height:14px;fill:#666;" text-anchor="middle" opacity="1"><tspan x="525.3833151297655">7 500</tspan></text><text x="616.4011546263067" y="386" style="font-family:&quot;Lucida Grande&quot;, &quot;Lucida Sans Unicode&quot;, Verdana, Arial, Helvetica, sans-serif;font-size:11px;color:#666;cursor:default;line-height:14px;fill:#666;" text-anchor="middle" opacity="1"><tspan x="616.4011546263067">9 000</tspan></text><text x="707.4189941228481" y="386" style="font-family:&quot;Lucida Grande&quot;, &quot;Lucida Sans Unicode&quot;, Verdana, Arial, Helvetica, sans-serif;font-size:11px;color:#666;cursor:default;line-height:14px;fill:#666;" text-anchor="middle" opacity="1"><tspan x="707.4189941228481">10500</tspan></text><text x="798.4368336193894" y="386" style="font-family:&quot;Lucida Grande&quot;, &quot;Lucida Sans Unicode&quot;, Verdana, Arial, Helvetica, sans-serif;font-size:11px;color:#666;cursor:default;line-height:14px;fill:#666;" text-anchor="middle" opacity="1"><tspan x="798.4368336193894">12000</tspan></text><text x="889.4546731159307" y="386" style="font-family:&quot;Lucida Grande&quot;, &quot;Lucida Sans Unicode&quot;, Verdana, Arial, Helvetica, sans-serif;font-size:11px;color:#666;cursor:default;line-height:14px;fill:#666;" text-anchor="middle" opacity="1"><tspan x="889.4546731159307">13500</tspan></text><text x="980.4725126124721" y="386" style="font-family:&quot;Lucida Grande&quot;, &quot;Lucida Sans Unicode&quot;, Verdana, Arial, Helvetica, sans-serif;font-size:11px;color:#666;cursor:default;line-height:14px;fill:#666;" text-anchor="middle" opacity="1"><tspan x="980.4725126124721">15000</tspan></text><text x="1071.4903521090134" y="386" style="font-family:&quot;Lucida Grande&quot;, &quot;Lucida Sans Unicode&quot;, Verdana, Arial, Helvetica, sans-serif;font-size:11px;color:#666;cursor:default;line-height:14px;fill:#666;" text-anchor="middle" opacity="1"><tspan x="1071.4903521090134">16500</tspan></text></g><g class="highcharts-axis-labels" zIndex="7"><text x="52" y="378.115625" style="font-family:&quot;Lucida Grande&quot;, &quot;Lucida Sans Unicode&quot;, Verdana, Arial, Helvetica, sans-serif;font-size:11px;width:530px;color:#666;cursor:default;line-height:14px;fill:#666;" text-anchor="end" opacity="1"><tspan x="52">0</tspan></text><text x="52" y="317.78229166666665" style="font-family:&quot;Lucida Grande&quot;, &quot;Lucida Sans Unicode&quot;, Verdana, Arial, Helvetica, sans-serif;font-size:11px;width:530px;color:#666;cursor:default;line-height:14px;fill:#666;" text-anchor="end" opacity="1"><tspan x="52">0.1</tspan></text><text x="52" y="257.44895833333334" style="font-family:&quot;Lucida Grande&quot;, &quot;Lucida Sans Unicode&quot;, Verdana, Arial, Helvetica, sans-serif;font-size:11px;width:530px;color:#666;cursor:default;line-height:14px;fill:#666;" text-anchor="end" opacity="1"><tspan x="52">0.2</tspan></text><text x="52" y="197.115625" style="font-family:&quot;Lucida Grande&quot;, &quot;Lucida Sans Unicode&quot;, Verdana, Arial, Helvetica, sans-serif;font-size:11px;width:530px;color:#666;cursor:default;line-height:14px;fill:#666;" text-anchor="end" opacity="1"><tspan x="52">0.3</tspan></text><text x="52" y="136.78229166666662" style="font-family:&quot;Lucida Grande&quot;, &quot;Lucida Sans Unicode&quot;, Verdana, Arial, Helvetica, sans-serif;font-size:11px;width:530px;color:#666;cursor:default;line-height:14px;fill:#666;" text-anchor="end" opacity="1"><tspan x="52">0.4</tspan></text><text x="52" y="76.44895833333331" style="font-family:&quot;Lucida Grande&quot;, &quot;Lucida Sans Unicode&quot;, Verdana, Arial, Helvetica, sans-serif;font-size:11px;width:530px;color:#666;cursor:default;line-height:14px;fill:#666;" text-anchor="end" opacity="1"><tspan x="52">0.5</tspan></text><text x="52" y="16.115625" style="font-family:&quot;Lucida Grande&quot;, &quot;Lucida Sans Unicode&quot;, Verdana, Arial, Helvetica, sans-serif;font-size:11px;width:530px;color:#666;cursor:default;line-height:14px;fill:#666;" text-anchor="end" opacity="1"><tspan x="52">0.6</tspan></text></g><g class="highcharts-tooltip" zIndex="8" style="cursor:default;padding:0;white-space:nowrap;" visibility="hidden" transform="translate(149,26)" opacity="0"><rect rx="3" ry="3" fill="none" x="0.5" y="0.5" width="290" height="44.203125" fill-opacity="0.85" isShadow="true" stroke="black" stroke-opacity="0.049999999999999996" stroke-width="5" transform="translate(1, 1)"></rect><rect rx="3" ry="3" fill="none" x="0.5" y="0.5" width="290" height="44.203125" fill-opacity="0.85" isShadow="true" stroke="black" stroke-opacity="0.09999999999999999" stroke-width="3" transform="translate(1, 1)"></rect><rect rx="3" ry="3" fill="none" x="0.5" y="0.5" width="290" height="44.203125" fill-opacity="0.85" isShadow="true" stroke="black" stroke-opacity="0.15" stroke-width="1" transform="translate(1, 1)"></rect><rect rx="3" ry="3" fill="rgb(255,255,255)" x="0.5" y="0.5" width="290" height="44.203125" fill-opacity="0.85" stroke="#2f7ed8" stroke-width="1" anchorX="-11.586679424432816" anchorY="29.15576171875"></rect><text x="8" y="21" style="font-family:&quot;Lucida Grande&quot;, &quot;Lucida Sans Unicode&quot;, Verdana, Arial, Helvetica, sans-serif;font-size:12px;color:#333333;fill:#333333;" zIndex="1"><tspan style="font-size: 10px" x="8">72</tspan><tspan style="fill:#2f7ed8" x="8" dy="16">WiFiOff checkTimeOpt</tspan><tspan dx="0">: </tspan><tspan style="font-weight:bold" dx="0">0.5250344599577833</tspan></text></g><text x="1110" y="395" style="font-family:&quot;Lucida Grande&quot;, &quot;Lucida Sans Unicode&quot;, Verdana, Arial, Helvetica, sans-serif;font-size:9px;cursor:pointer;color:#909090;fill:#909090;" text-anchor="end" zIndex="8"><tspan x="1110">Highcharts.com</tspan></text></svg>