<svg xmlns="http://www.w3.org/2000/svg" version="1.1" width="1119" height="400"><desc>Created with Highcharts 3.0.2</desc><defs><clipPath id="highcharts-1"><rect fill="none" x="0" y="0" width="1049" height="361"></rect></clipPath></defs><rect rx="5" ry="5" fill="#FFFFFF" x="0" y="0" width="1119" height="400"></rect><g class="highcharts-grid" zIndex="1"></g><g class="highcharts-grid" zIndex="1"><path fill="none" d="M 60 312.5 L 1109 312.5" stroke="#C0C0C0" stroke-width="1" zIndex="1" opacity="1"></path><path fill="none" d="M 60 251.5 L 1109 251.5" stroke="#C0C0C0" stroke-width="1" zIndex="1" opacity="1"></path><path fill="none" d="M 60 191.5 L 1109 191.5" stroke="#C0C0C0" stroke-width="1" zIndex="1" opacity="1"></path><path fill="none" d="M 60 131.5 L 1109 131.5" stroke="#C0C0C0" stroke-width="1" zIndex="1" opacity="1"></path><path fill="none" d="M 60 70.5 L 1109 70.5" stroke="#C0C0C0" stroke-width="1" zIndex="1" opacity="1"></path><path fill="none" d="M 60 10.5 L 1109 10.5" stroke="#C0C0C0" stroke-width="1" zIndex="1" opacity="1"></path><path fill="none" d="M 60 371.5 L 1109 371.5" stroke="#C0C0C0" stroke-width="1" zIndex="1" opacity="1"></path></g><g class="highcharts-axis" zIndex="2"><path fill="none" d="M 152.5 372 L 152.5 377" stroke="#C0D0E0" stroke-width="1" opacity="1"></path><path fill="none" d="M 234.5 372 L 234.5 377" stroke="#C0D0E0" stroke-width="1" opacity="1"></path><path fill="none" d="M 316.5 372 L 316.5 377" stroke="#C0D0E0" stroke-width="1" opacity="1"></path><path fill="none" d="M 399.5 372 L 399.5 377" stroke="#C0D0E0" stroke-width="1" opacity="1"></path><path fill="none" d="M 481.5 372 L 481.5 377" stroke="#C0D0E0" stroke-width="1" opacity="1"></path><path fill="none" d="M 563.5 372 L 563.5 377" stroke="#C0D0E0" stroke-width="1" opacity="1"></path><path fill="none" d="M 646.5 372 L 646.5 377" stroke="#C0D0E0" stroke-width="1" opacity="1"></path><path fill="none" d="M 728.5 372 L 728.5 377" stroke="#C0D0E0" stroke-width="1" opacity="1"></path><path fill="none" d="M 810.5 372 L 810.5 377" stroke="#C0D0E0" stroke-width="1" opacity="1"></path><path fill="none" d="M 893.5 372 L 893.5 377" stroke="#C0D0E0" stroke-width="1" opacity="1"></path><path fill="none" d="M 975.5 372 L 975.5 377" stroke="#C0D0E0" stroke-width="1" opacity="1"></path><path fill="none" d="M 1057.5 372 L 1057.5 377" stroke="#C0D0E0" stroke-width="1" opacity="1"></path><path fill="none" d="M 69.5 372 L 69.5 377" stroke="#C0D0E0" stroke-width="1" opacity="1"></path><path fill="none" d="M 60 371.5 L 1109 371.5" stroke="#C0D0E0" stroke-width="1" zIndex="7" visibility="visible"></path></g><g class="highcharts-axis" zIndex="2"><text x="24.59375" y="191" style="font-family:&quot;Lucida Grande&quot;, &quot;Lucida Sans Unicode&quot;, Verdana, Arial, Helvetica, sans-serif;font-size:12px;color:#4d759e;font-weight:bold;fill:#4d759e;" zIndex="7" text-anchor="middle" transform="translate(0,0) rotate(270 24.59375 191)" visibility="visible"><tspan x="24.59375">Amperage</tspan></text></g><g class="highcharts-series-group" zIndex="3"><g class="highcharts-series" visibility="visible" zIndex="0.1" transform="translate(60,10) scale(1 1)" clip-path="url(#highcharts-1)"><path fill="none" d="M 10.284313725490197 280.1 L 11.107717546586288 285.5 L 11.931121367682382 277.6 L 12.754525188778475 285.7 L 13.577929009874568 284.7 L 14.401332830970661 281.4 L 15.224736652066753 287.6 L 16.048140473162846 278.2 L 16.87154429425894 283.9 L 17.694948115355032 279.5 L 18.518351936451122 280.2 L 19.341755757547215 287.4 L 20.16515957864331 283.7 L 20.9885633997394 283.9 L 21.811967220835495 287.8 L 22.635371041931585 279.6 L 23.458774863027678 284.3 L 24.28217868412377 287.1 L 25.105582505219864 250.3 L 25.928986326315957 213.5 L 26.752390147412047 276.4 L 27.57579396850814 284.3 L 28.399197789604234 281.3 L 29.222601610700327 243 L 30.04600543179642 186.1 L 30.869409252892513 219.5 L 31.692813073988603 202.4 L 32.516216895084696 167.6 L 33.33962071618079 173.5 L 34.16302453727688 166 L 34.986428358372976 196.8 L 35.80983217946907 202.6 L 36.63323600056516 169.2 L 37.456639821661255 191.6 L 38.28004364275734 166.7 L 39.103447463853435 171.3 L 39.92685128494953 191.1 L 40.75025510604562 210.7 L 41.573658927141715 259.5 L 42.39706274823781 160.5 L 43.2204665693339 -193.9 L 44.043870390429994 -99.3 L 44.86727421152609 -207.9 L 45.69067803262218 -213.4 L 46.51408185371827 -215 L 47.33748567481436 -212.6 L 48.16088949591045 -212.6 L 48.984293317006546 -212.9 L 49.80769713810264 -209.4 L 50.63110095919873 -204.4 L 51.454504780294826 -113.9 L 52.27790860139092 -134.6 L 53.101312422487005 -71.5 L 53.9247162435831 54.1 L 54.74812006467919 37.9 L 55.571523885775285 -11.1 L 56.39492770687138 76.9 L 57.218331527967464 154.6 L 58.04173534906356 329.5 L 58.86513917015965 328.9 L 59.688542991255744 196.9 L 60.51194681235184 125.3 L 61.33535063344793 169.6 L 62.158754454544024 286 L 62.98215827564012 330.8 L 63.80556209673621 328.4 L 64.6289659178323 338.5 L 65.4523697389284 338.5 L 66.27577356002449 335.5 L 67.09917738112058 335 L 67.92258120221668 246.2 L 68.74598502331277 236.6 L 69.56938884440886 227.9 L 70.39279266550494 215.2 L 71.21619648660104 337.4 L 72.03960030769713 336.1 L 72.86300412879322 336.8 L 73.68640794988931 336.9 L 74.50981177098541 339.1 L 75.3332155920815 336.5 L 76.1566194131776 315.7 L 76.98002323427369 243.8 L 77.80342705536978 220.9 L 78.62683087646587 246.1 L 79.45023469756197 205 L 80.27363851865806 301.2 L 81.09704233975415 333.7 L 81.92044616085025 332.6 L 82.74384998194634 316.1 L 83.56725380304243 338.8 L 84.39065762413853 334.7 L 85.21406144523462 334.5 L 86.03746526633071 298 L 86.8608690874268 329.6 L 87.68427290852289 338.6 L 88.50767672961898 328.5 L 89.33108055071507 327.4 L 90.15448437181117 337.4 L 90.97788819290726 333.8 L 91.80129201400335 332.8 L 92.62469583509944 339.2 L 93.44809965619554 337.9 L 94.27150347729163 338.9 L 95.09490729838772 281.7 L 95.91831111948382 339.1 L 96.74171494057991 339.2 L 97.565118761676 334.1 L 98.3885225827721 338.8 L 99.21192640386819 339.3 L 100.03533022496428 339.1 L 100.85873404606038 339.1 L 101.68213786715647 336.8 L 102.50554168825256 337.2 L 103.32894550934866 337 L 104.15234933044475 339.3 L 104.97575315154084 339.2 L 105.79915697263694 338 L 106.62256079373303 331.3 L 107.44596461482912 337.4 L 108.26936843592522 339.2 L 109.09277225702131 338.5 L 109.9161760781174 327.8 L 110.7395798992135 339.2 L 111.56298372030959 339.2 L 112.38638754140568 337.1 L 113.20979136250178 338 L 114.03319518359787 337.8 L 114.85659900469396 339.3 L 115.68000282579005 337.2 L 116.50340664688615 337.8 L 117.32681046798224 338.5 L 118.15021428907833 336.7 L 118.97361811017443 338.9 L 119.7970219312705 338.1 L 120.6204257523666 339.3 L 121.4438295734627 337.2 L 122.26723339455879 339.2 L 123.09063721565488 333.1 L 123.91404103675097 339.2 L 124.73744485784707 331.1 L 125.56084867894316 333.2 L 126.38425250003925 339.2 L 127.20765632113535 337.1 L 128.03106014223144 296 L 128.85446396332753 259.6 L 129.67786778442363 336.3 L 130.50127160551972 338.7 L 131.3246754266158 336.4 L 132.1480792477119 339.3 L 132.971483068808 330.7 L 133.7948868899041 337.3 L 134.61829071100018 331.6 L 135.44169453209628 339.2 L 136.26509835319237 336.5 L 137.08850217428846 337.4 L 137.91190599538456 338.1 L 138.73530981648065 338 L 139.55871363757674 339.3 L 140.38211745867284 337.1 L 141.20552127976893 337.6 L 142.02892510086502 339.4 L 142.85232892196112 336.5 L 143.6757327430572 335.5 L 144.4991365641533 338 L 145.3225403852494 339.4 L 146.14594420634546 337.2 L 146.96934802744155 339.3 L 147.79275184853765 339.4 L 148.61615566963374 336.1 L 149.43955949072983 322.8 L 150.26296331182593 284.1 L 151.08636713292202 304 L 151.90977095401811 336.7 L 152.7331747751142 330.4 L 153.5565785962103 339.3 L 154.3799824173064 339.3 L 155.2033862384025 332 L 156.02679005949858 339.2 L 156.85019388059467 338.4 L 157.67359770169077 336.7 L 158.49700152278686 337.9 L 159.32040534388295 339.3 L 160.14380916497905 339.2 L 160.96721298607514 336.8 L 161.79061680717123 334.6 L 162.61402062826733 338 L 163.43742444936342 335.6 L 164.2608282704595 337.3 L 165.0842320915556 339.2 L 165.9076359126517 338.4 L 166.7310397337478 335.2 L 167.55444355484389 337.1 L 168.37784737593998 339.3 L 169.20125119703607 338.1 L 170.02465501813217 337.6 L 170.84805883922826 339.5 L 171.67146266032435 339.4 L 172.49486648142044 329.5 L 173.31827030251654 337.7 L 174.14167412361263 327.8 L 174.96507794470872 338.2 L 175.78848176580482 338.9 L 176.6118855869009 339.3 L 177.435289407997 339 L 178.2586932290931 339.3 L 179.0820970501892 336.6 L 179.90550087128528 337 L 180.72890469238138 337.5 L 181.55230851347744 339.3 L 182.37571233457354 337.2 L 183.19911615566963 339.4 L 184.02251997676572 339.3 L 184.84592379786181 334.6 L 185.6693276189579 307.9 L 186.492731440054 336.8 L 187.3161352611501 339.1 L 188.1395390822462 334.7 L 188.96294290334228 337.8 L 189.78634672443837 334.8 L 190.60975054553447 335.7 L 191.43315436663056 338.3 L 192.25655818772665 339.4 L 193.07996200882275 338.5 L 193.90336582991884 337.3 L 194.72676965101493 335.1 L 195.55017347211103 339.3 L 196.37357729320712 339.3 L 197.1969811143032 337.3 L 198.0203849353993 339.3 L 198.8437887564954 339.4 L 199.6671925775915 337.5 L 200.4905963986876 339.1 L 201.31400021978368 339.4 L 202.13740404087977 339.4 L 202.96080786197587 337.7 L 203.78421168307196 338.6 L 204.60761550416805 339.4 L 205.43101932526415 338.5 L 206.25442314636024 337.2 L 207.07782696745633 326.8 L 207.90123078855243 339.3 L 208.72463460964852 337.8 L 209.5480384307446 339.4 L 210.3714422518407 339.4 L 211.1948460729368 339.4 L 212.0182498940329 336.4 L 212.84165371512898 338.2 L 213.66505753622508 305.7 L 214.48846135732117 320.9 L 215.31186517841726 338.7 L 216.13526899951336 338.2 L 216.95867282060942 339.3 L 217.78207664170552 324.5 L 218.6054804628016 339.3 L 219.4288842838977 338 L 220.2522881049938 292.4 L 221.0756919260899 206.5 L 221.89909574718598 208.3 L 222.72249956828207 210.6 L 223.54590338937817 244.3 L 224.36930721047426 251.8 L 225.19271103157035 248.5 L 226.01611485266645 246.4 L 226.83951867376254 245.4 L 227.66292249485863 244.3 L 228.48632631595473 246.4 L 229.30973013705082 247.3 L 230.1331339581469 247.7 L 230.956537779243 247.1 L 231.7799416003391 246.9 L 232.6033454214352 259.3 L 233.4267492425313 230.4 L 234.25015306362738 254.8 L 235.07355688472347 260.4 L 235.89696070581957 260.8 L 236.72036452691566 261 L 237.54376834801175 263.9 L 238.36717216910785 261.3 L 239.19057599020394 262 L 240.01397981130003 256.8 L 240.83738363239613 256.4 L 241.66078745349222 253.6 L 242.4841912745883 202.8 L 243.3075950956844 222.5 L 244.1309989167805 240.1 L 244.9544027378766 234.2 L 245.77780655897269 242.6 L 246.60121038006878 237.5 L 247.42461420116487 230.5 L 248.24801802226096 238.5 L 249.07142184335706 276.8 L 249.89482566445315 337.7 L 250.71822948554924 338.1 L 251.5416333066453 339.1 L 252.3650371277414 335.7 L 253.1884409488375 338.7 L 254.0118447699336 339.2 L 254.83524859102968 335.2 L 255.65865241212578 328.6 L 256.4820562332219 339.2 L 257.30546005431796 338.7 L 258.1288638754141 337.2 L 258.95226769651015 338.3 L 259.77567151760627 339.4 L 260.59907533870233 338.2 L 261.42247915979846 337.3 L 262.2458829808945 338.7 L 263.06928680199064 337.8 L 263.8926906230867 336.6 L 264.71609444418283 339.4 L 265.5394982652789 337.7 L 266.362902086375 338.4 L 267.1863059074711 336.6 L 268.0097097285672 339.3 L 268.83311354966327 337.8 L 269.65651737075933 337.9 L 270.47992119185545 339.3 L 271.3033250129515 337.6 L 272.12672883404764 336 L 272.9501326551437 336.5 L 273.7735364762398 307.4 L 274.5969402973359 269.3 L 275.420344118432 329.6 L 276.2437479395281 337 L 277.0671517606242 339.3 L 277.89055558172026 339.3 L 278.7139594028164 332.3 L 279.53736322391245 337.4 L 280.3607670450086 339.4 L 281.18417086610464 339.4 L 282.00757468720076 336.3 L 282.8309785082968 339.3 L 283.65438232939294 339.4 L 284.477786150489 338.5 L 285.30118997158513 338.1 L 286.1245937926812 339.5 L 286.9479976137773 337.6 L 287.7714014348734 331.7 L 288.5948052559695 338.5 L 289.41820907706557 335.7 L 290.2416128981617 310.1 L 291.06501671925776 337.2 L 291.8884205403539 336.8 L 292.71182436144994 339.4 L 293.53522818254606 332.7 L 294.35863200364213 251.2 L 295.18203582473825 327.1 L 296.0054396458343 337.7 L 296.82884346693044 334.7 L 297.6522472880265 327 L 298.4756511091226 335.2 L 299.2990549302187 336.5 L 300.1224587513148 339.3 L 300.9458625724109 339.3 L 301.769266393507 339.4 L 302.59267021460306 336.6 L 303.4160740356992 339.3 L 304.23947785679525 337.1 L 305.0628816778913 339.4 L 305.88628549898743 335.7 L 306.7096893200835 335.9 L 307.5330931411796 339.3 L 308.3564969622757 337.2 L 309.1799007833718 337.5 L 310.00330460446787 339.4 L 310.826708425564 339.3 L 311.65011224666006 336 L 312.4735160677562 337.9 L 313.29691988885224 338.5 L 314.12032370994837 338.3 L 314.94372753104443 334.4 L 315.76713135214055 339.3 L 316.5905351732366 337.8 L 317.41393899433274 336.7 L 318.2373428154288 337.9 L 319.0607466365249 339.4 L 319.884150457621 339.4 L 320.7075542787171 336.6 L 321.5309580998132 338.4 L 322.3543619209093 339.4 L 323.17776574200536 336.8 L 324.0011695631015 338.2 L 324.82457338419755 339.4 L 325.64797720529367 339.4 L 326.47138102638974 333 L 327.29478484748586 339.4 L 328.1181886685819 339.4 L 328.94159248967804 337.1 L 329.7649963107741 339.1 L 330.58840013187023 339.4 L 331.4118039529663 339.5 L 332.2352077740624 337.3 L 333.0586115951585 339.4 L 333.8820154162546 339.4 L 334.70541923735067 323 L 335.5288230584468 336 L 336.35222687954285 337.8 L 337.175630700639 334.2 L 337.99903452173504 337 L 338.82243834283116 335.6 L 339.6458421639272 336.1 L 340.4692459850233 339.4 L 341.2926498061194 337.3 L 342.1160536272155 334.9 L 342.9394574483116 324.3 L 343.76286126940767 337.6 L 344.5862650905038 338.6 L 345.40966891159985 339.2 L 346.233072732696 339.4 L 347.05647655379204 336.8 L 347.87988037488816 339.3 L 348.7032841959842 338.2 L 349.52668801708035 339.4 L 350.3500918381764 337.2 L 351.17349565927253 339.4 L 351.9968994803686 339.5 L 352.8203033014647 335.9 L 353.6437071225608 336.1 L 354.4671109436569 338 L 355.29051476475297 339.4 L 356.1139185858491 337.5 L 356.93732240694516 339.5 L 357.7607262280413 339.4 L 358.58413004913734 338.3 L 359.40753387023346 338.4 L 360.23093769132953 338.8 L 361.05434151242565 329.3 L 361.8777453335217 337.3 L 362.70114915461784 338 L 363.5245529757139 339.4 L 364.34795679681 337.7 L 365.1713606179061 337.8 L 365.9947644390022 338.4 L 366.8181682600983 339.3 L 367.6415720811944 337.7 L 368.46497590229046 337.3 L 369.2883797233866 335.7 L 370.11178354448265 339.3 L 370.93518736557877 339.1 L 371.75859118667483 339.4 L 372.58199500777096 335.8 L 373.405398828867 339.3 L 374.22880264996314 337.7 L 375.0522064710592 339.3 L 375.8756102921553 339.4 L 376.6990141132514 336.1 L 377.52241793434746 339.4 L 378.3458217554436 339.4 L 379.16922557653965 339.5 L 379.99262939763577 336.6 L 380.81603321873183 338 L 381.63943703982795 337.4 L 382.462840860924 338.7 L 383.28624468202014 338 L 384.1096485031162 338.7 L 384.9330523242123 339.3 L 385.7564561453084 335.1 L 386.5798599664045 339.3 L 387.4032637875006 338 L 388.2266676085967 339.5 L 389.05007142969276 336.2 L 389.8734752507889 339.4 L 390.69687907188495 338.4 L 391.5202828929811 312.4 L 392.34368671407714 338.2 L 393.16709053517326 337 L 393.9904943562693 339.2 L 394.81389817736545 336.3 L 395.6373019984615 335.5 L 396.46070581955763 335 L 397.2841096406537 305.3 L 398.1075134617498 272.9 L 398.9309172828459 338.9 L 399.754321103942 338.5 L 400.57772492503807 337.7 L 401.4011287461342 339.4 L 402.22453256723026 339.4 L 403.0479363883264 339.1 L 403.87134020942244 337 L 404.69474403051856 339.4 L 405.51814785161463 339.4 L 406.34155167271075 337 L 407.1649554938068 338.5 L 407.98835931490294 336.3 L 408.811763135999 339.3 L 409.63516695709507 336.7 L 410.4585707781912 337.6 L 411.28197459928725 339.4 L 412.1053784203834 336.4 L 412.92878224147944 338.5 L 413.75218606257556 338.2 L 414.5755898836716 339.4 L 415.39899370476775 336 L 416.2223975258638 339.3 L 417.04580134695993 337.8 L 417.869205168056 337.2 L 418.6926089891521 336.7 L 419.5160128102482 339.4 L 420.3394166313443 339.4 L 421.16282045244037 325.2 L 421.9862242735365 339.4 L 422.80962809463256 337.1 L 423.6330319157287 315.7 L 424.45643573682474 336.6 L 425.27983955792087 339.4 L 426.10324337901693 270.9 L 426.92664720011305 251.7 L 427.7500510212091 234.1 L 428.57345484230524 300.1 L 429.3968586634013 339.1 L 430.2202624844974 315.2 L 431.0436663055935 325.1 L 431.8670701266896 337.8 L 432.6904739477857 335.5 L 433.5138777688818 334.7 L 434.33728158997786 338 L 435.160685411074 336.1 L 435.98408923217005 336.8 L 436.80749305326617 338 L 437.63089687436224 339.4 L 438.45430069545836 337.2 L 439.2777045165544 337.3 L 440.10110833765054 338.4 L 440.9245121587466 339.3 L 441.74791597984273 335.8 L 442.5713198009388 339.4 L 443.3947236220349 339.3 L 444.218127443131 339.4 L 445.04153126422705 337.8 L 445.86493508532317 339.3 L 446.68833890641923 338.6 L 447.51174272751535 336.7 L 448.3351465486114 339 L 449.15855036970754 339.4 L 449.9819541908036 339.4 L 450.8053580118997 333.4 L 451.6287618329958 339.3 L 452.4521656540919 339.4 L 453.275569475188 339.4 L 454.0989732962841 337.5 L 454.92237711738017 338.3 L 455.7457809384763 339.5 L 456.56918475957235 337.4 L 457.3925885806685 339.2 L 458.21599240176454 339.4 L 459.03939622286066 339.4 L 459.8628000439567 335.6 L 460.68620386505285 339.4 L 461.5096076861489 338.1 L 462.33301150724503 336.6 L 463.1564153283411 337.5 L 463.9798191494372 339.3 L 464.8032229705333 338.5 L 465.6266267916294 337.4 L 466.45003061272547 339.4 L 467.2734344338216 339.4 L 468.09683825491766 339.5 L 468.9202420760138 338.1 L 469.74364589710984 338.4 L 470.56704971820596 339.3 L 471.39045353930203 337.8 L 472.21385736039815 337.8 L 473.0372611814942 339.4 L 473.86066500259034 339.5 L 474.6840688236864 337.3 L 475.5074726447825 339.4 L 476.3308764658786 339.4 L 477.1542802869747 338.7 L 477.9776841080708 333.6 L 478.8010879291669 339.4 L 479.62449175026296 339.4 L 480.447895571359 336.9 L 481.27129939245515 339.4 L 482.0947032135512 339.4 L 482.91810703464733 339.4 L 483.7415108557434 331.4 L 484.5649146768395 338.7 L 485.3883184979356 334.3 L 486.2117223190317 333.1 L 487.0351261401278 339.5 L 487.8585299612239 324.5 L 488.68193378231996 339.4 L 489.5053376034161 334.4 L 490.32874142451215 339.3 L 491.15214524560827 338.1 L 491.97554906670433 337.6 L 492.79895288780045 339.4 L 493.6223567088965 339.1 L 494.44576052999264 339.5 L 495.2691643510887 331.5 L 496.0925681721848 339.4 L 496.9159719932809 337.9 L 497.739375814377 339.5 L 498.5627796354731 321.8 L 499.3861834565692 300.6 L 500.20958727766526 303 L 501.0329910987614 300.8 L 501.85639491985745 298.8 L 502.6797987409536 297.3 L 503.50320256204964 302 L 504.32660638314576 306.8 L 505.1500102042418 307.3 L 505.97341402533795 308.2 L 506.796817846434 306.8 L 507.62022166753013 308.4 L 508.4436254886262 325.5 L 509.2670293097223 338.4 L 510.0904331308184 337.4 L 510.9138369519145 338.6 L 511.73724077301057 339.4 L 512.5606445941066 338.2 L 513.3840484152028 337.5 L 514.2074522362989 338.6 L 515.0308560573949 339.4 L 515.854259878491 336.6 L 516.6776636995871 335.4 L 517.5010675206833 339.4 L 518.3244713417793 339.3 L 519.1478751628754 337.4 L 519.9712789839715 332.6 L 520.7946828050676 282.5 L 521.6180866261636 301.8 L 522.4414904472598 339.4 L 523.2648942683559 339.5 L 524.088298089452 338.7 L 524.911701910548 337.1 L 525.7351057316441 339.4 L 526.5585095527402 339.5 L 527.3819133738364 339.3 L 528.2053171949324 334.3 L 529.0287210160285 339.4 L 529.8521248371246 338 L 530.6755286582207 337.8 L 531.4989324793167 339.5 L 532.3223363004129 335.4 L 533.145740121509 339.5 L 533.9691439426051 336.6 L 534.7925477637011 339.4 L 535.6159515847972 338 L 536.4393554058934 335.1 L 537.2627592269895 338.3 L 538.0861630480855 339.5 L 538.9095668691816 338.6 L 539.7329706902777 336.8 L 540.5563745113739 339 L 541.3797783324699 339.5 L 542.203182153566 338.3 L 543.0265859746621 338 L 543.8499897957582 336.7 L 544.6733936168542 335.6 L 545.4967974379504 337.3 L 546.3202012590465 338.1 L 547.1436050801426 339.6 L 547.9670089012386 331 L 548.7904127223347 337.2 L 549.6138165434309 339.5 L 550.4372203645269 339.5 L 551.260624185623 336.7 L 552.0840280067191 337.4 L 552.9074318278152 339.5 L 553.7308356489112 335.8 L 554.5542394700074 338.2 L 555.3776432911035 336.6 L 556.2010471121996 339.4 L 557.0244509332956 337.4 L 557.8478547543917 339.4 L 558.6712585754879 338.3 L 559.494662396584 334.8 L 560.31806621768 332.7 L 561.1414700387761 339.4 L 561.9648738598722 338.9 L 562.7882776809683 339.5 L 563.6116815020644 336.8 L 564.4350853231605 339.4 L 565.2584891442566 337.9 L 566.0818929653527 336.9 L 566.9052967864487 339.5 L 567.7287006075449 336.1 L 568.552104428641 339.5 L 569.3755082497371 337.4 L 570.1989120708331 339.4 L 571.0223158919292 335.5 L 571.8457197130253 337.2 L 572.6691235341215 339.5 L 573.4925273552175 339.4 L 574.3159311763136 339.5 L 575.1393349974097 336.7 L 575.9627388185058 339.5 L 576.7861426396018 339.5 L 577.609546460698 339.4 L 578.4329502817941 337.6 L 579.2563541028902 338.6 L 580.0797579239862 339.4 L 580.9031617450823 337.3 L 581.7265655661785 339.5 L 582.5499693872746 339.4 L 583.3733732083706 339 L 584.1967770294667 337.5 L 585.0201808505628 338.4 L 585.8435846716588 339.5 L 586.666988492755 326 L 587.4903923138511 338.9 L 588.3137961349472 337.9 L 589.1371999560432 339.5 L 589.9606037771393 336.4 L 590.7840075982355 339.5 L 591.6074114193316 339.5 L 592.4308152404276 339.4 L 593.2542190615237 338.3 L 594.0776228826198 339.5 L 594.901026703716 338.6 L 595.724430524812 334.7 L 596.5478343459081 335.8 L 597.3712381670042 339.3 L 598.1946419881003 336.6 L 599.0180458091963 337.6 L 599.8414496302925 339.4 L 600.6648534513886 339.5 L 601.4882572724847 337.4 L 602.3116610935807 338.6 L 603.1350649146768 339.4 L 603.958468735773 339.5 L 604.7818725568691 337.4 L 605.6052763779651 339.4 L 606.4286801990612 339.5 L 607.2520840201573 338.6 L 608.0754878412534 337.8 L 608.8988916623495 339.5 L 609.7222954834456 337.9 L 610.5456993045417 330.2 L 611.3691031256378 337.8 L 612.1925069467338 339.5 L 613.01591076783 337.6 L 613.8393145889261 334 L 614.6627184100222 338.8 L 615.4861222311182 339.5 L 616.3095260522143 336.8 L 617.1329298733104 339.5 L 617.9563336944066 338.5 L 618.7797375155026 334.4 L 619.6031413365987 337.3 L 620.4265451576948 337.8 L 621.2499489787908 338.2 L 622.073352799887 339.2 L 622.8967566209831 338.3 L 623.7201604420792 339.5 L 624.5435642631752 339.5 L 625.3669680842713 334 L 626.1903719053674 338.8 L 627.0137757264636 339.5 L 627.8371795475596 339 L 628.6605833686557 337.3 L 629.4839871897518 339.5 L 630.3073910108479 339.3 L 631.130794831944 337.3 L 631.9541986530401 339.5 L 632.7776024741362 337.8 L 633.6010062952323 338.4 L 634.4244101163283 333.5 L 635.2478139374244 338.4 L 636.0712177585206 339 L 636.8946215796167 336.4 L 637.7180254007127 339.5 L 638.5414292218088 338.4 L 639.3648330429049 339.4 L 640.188236864001 333.8 L 641.0116406850971 339.4 L 641.8350445061932 339.5 L 642.6584483272893 337.5 L 643.4818521483854 291.5 L 644.3052559694814 290.8 L 645.1286597905776 337.9 L 645.9520636116737 337.1 L 646.7754674327698 339.6 L 647.5988712538658 339.5 L 648.4222750749619 337.1 L 649.245678896058 338.7 L 650.0690827171542 339.4 L 650.8924865382502 339.4 L 651.7158903593463 336.3 L 652.5392941804424 339.5 L 653.3626980015385 339.5 L 654.1861018226346 339.5 L 655.0095056437307 337.8 L 655.8329094648268 339.4 L 656.6563132859228 337.9 L 657.4797171070189 336.3 L 658.303120928115 338 L 659.1265247492112 339.5 L 659.9499285703072 338.2 L 660.7733323914033 337.3 L 661.5967362124994 339.5 L 662.4201400335955 339.4 L 663.2435438546916 336.6 L 664.0669476757877 338.7 L 664.8903514968838 339.5 L 665.7137553179799 339.4 L 666.5371591390759 337 L 667.360562960172 324.4 L 668.1839667812682 339.5 L 669.0073706023643 339.4 L 669.8307744234603 338.6 L 670.6541782445564 339.4 L 671.4775820656525 339.5 L 672.3009858867487 328.3 L 673.1243897078447 338.7 L 673.9477935289408 339.5 L 674.7711973500369 339.5 L 675.594601171133 335.5 L 676.418004992229 339.5 L 677.2414088133252 339.5 L 678.0648126344213 337.1 L 678.8882164555174 336.2 L 679.7116202766134 339.3 L 680.5350240977095 338.9 L 681.3584279188057 336.2 L 682.1818317399018 339.4 L 683.0052355609978 338.1 L 683.8286393820939 339.4 L 684.65204320319 337.8 L 685.4754470242862 339.5 L 686.2988508453822 338.4 L 687.1222546664783 337.4 L 687.9456584875744 337.7 L 688.7690623086705 339.5 L 689.5924661297665 339.4 L 690.4158699508627 337 L 691.2392737719588 339.5 L 692.0626775930548 339.4 L 692.8860814141509 337.5 L 693.709485235247 338.3 L 694.5328890563432 334.8 L 695.3562928774392 338.7 L 696.1796966985353 337.1 L 697.0031005196314 339.5 L 697.8265043407275 339.5 L 698.6499081618235 339.5 L 699.4733119829197 339 L 700.2967158040158 339.5 L 701.1201196251119 339.6 L 701.9435234462079 337.3 L 702.766927267304 339.5 L 703.5903310884001 338.6 L 704.4137349094963 339.4 L 705.2371387305923 337 L 706.0605425516884 326.5 L 706.8839463727845 296 L 707.7073501938806 335.7 L 708.5307540149767 339.3 L 709.3541578360728 337.7 L 710.1775616571689 335.8 L 711.000965478265 336 L 711.824369299361 339.5 L 712.6477731204571 338.9 L 713.4711769415533 337.5 L 714.2945807626494 339.5 L 715.1179845837454 339.4 L 715.9413884048415 339.5 L 716.7647922259376 336.7 L 717.5881960470338 339.4 L 718.4115998681298 338.4 L 719.2350036892259 337.1 L 720.058407510322 333.9 L 720.8818113314181 339.4 L 721.7052151525141 334 L 722.5286189736103 337.5 L 723.3520227947064 339.5 L 724.1754266158025 339.4 L 724.9988304368985 339.5 L 725.8222342579946 337.5 L 726.6456380790908 338.5 L 727.4690419001868 339.5 L 728.2924457212829 337.4 L 729.115849542379 339.5 L 729.9392533634751 339.5 L 730.7626571845711 338.2 L 731.5860610056673 338.1 L 732.4094648267634 336.1 L 733.2328686478595 339.2 L 734.0562724689555 335.7 L 734.8796762900516 329.5 L 735.7030801111478 338.9 L 736.5264839322439 339.5 L 737.3498877533399 336.9 L 738.173291574436 339.4 L 738.9966953955321 339.6 L 739.8200992166283 339.5 L 740.6435030377243 330.8 L 741.4669068588204 339.4 L 742.2903106799165 339 L 743.1137145010126 337.2 L 743.9371183221086 339.6 L 744.7605221432048 338.4 L 745.5839259643009 332.7 L 746.407329785397 338.5 L 747.230733606493 339.5 L 748.0541374275891 326.6 L 748.8775412486852 335.1 L 749.7009450697814 338.7 L 750.5243488908774 338.7 L 751.3477527119735 339.5 L 752.1711565330696 336.9 L 752.9945603541657 339.5 L 753.8179641752617 339.5 L 754.6413679963579 339.5 L 755.464771817454 334.9 L 756.2881756385501 339.5 L 757.1115794596461 338 L 757.9349832807422 336.9 L 758.7583871018384 338.7 L 759.5817909229345 336.7 L 760.4051947440305 339 L 761.2285985651266 337.5 L 762.0520023862227 338.9 L 762.8754062073187 339.5 L 763.6988100284149 337.2 L 764.522213849511 339.1 L 765.3456176706071 338.7 L 766.1690214917031 301.9 L 766.9924253127992 270.2 L 767.8158291338954 337.9 L 768.6392329549915 339.4 L 769.4626367760875 339.5 L 770.2860405971836 337.6 L 771.1094444182797 339.5 L 771.9328482393759 338.2 L 772.7562520604719 337.5 L 773.579655881568 338.6 L 774.4030597026641 339.4 L 775.2264635237602 335.7 L 776.0498673448562 336.4 L 776.8732711659524 339.4 L 777.6966749870485 339.6 L 778.5200788081446 337.2 L 779.3434826292406 339.4 L 780.1668864503367 338.3 L 780.9902902714329 338.6 L 781.813694092529 336.6 L 782.637097913625 339.1 L 783.4605017347211 338.8 L 784.2839055558172 330.4 L 785.1073093769133 339.1 L 785.9307131980094 339.5 L 786.7541170191055 333.1 L 787.5775208402016 337.4 L 788.4009246612977 339.5 L 789.2243284823937 338.8 L 790.0477323034899 328 L 790.871136124586 336.6 L 791.6945399456821 339.5 L 792.5179437667781 338.3 L 793.3413475878742 336.7 L 794.1647514089703 339.4 L 794.9881552300665 339.5 L 795.8115590511625 296.5 L 796.6349628722586 205.1 L 797.4583666933547 275.2 L 798.2817705144507 338.9 L 799.1051743355468 339.1 L 799.928578156643 339.1 L 800.7519819777391 335.7 L 801.5753857988351 339.3 L 802.3987896199312 337.2 L 803.2221934410273 339.4 L 804.0455972621235 339.5 L 804.8690010832195 331.9 L 805.6924049043156 339.1 L 806.5158087254117 338.3 L 807.3392125465078 338.5 L 808.1626163676038 339.3 L 808.9860201887 338.4 L 809.8094240097961 339.5 L 810.6328278308922 338.6 L 811.4562316519882 336.1 L 812.2796354730843 338.6 L 813.1030392941805 339.4 L 813.9264431152766 336.1 L 814.7498469363726 339.5 L 815.5732507574687 339.5 L 816.3966545785648 339.5 L 817.220058399661 337 L 818.043462220757 339.5 L 818.8668660418531 339.5 L 819.6902698629492 331 L 820.5136736840453 338.7 L 821.3370775051413 339.5 L 822.1604813262375 339.4 L 822.9838851473336 339.4 L 823.8072889684297 339.5 L 824.6306927895257 339.6 L 825.4540966106218 339.5 L 826.277500431718 339.4 L 827.1009042528141 339.5 L 827.9243080739101 338.7 L 828.7477118950062 339.5 L 829.5711157161023 337.7 L 830.3945195371984 339.5 L 831.2179233582945 338.1 L 832.0413271793906 332.6 L 832.8647310004867 339.6 L 833.6881348215827 299.2 L 834.5115386426788 332 L 835.334942463775 337.6 L 836.1583462848711 335.6 L 836.9817501059671 339.2 L 837.8051539270632 339.1 L 838.6285577481593 334.6 L 839.4519615692554 339.5 L 840.2753653903515 339.5 L 841.0987692114476 336.4 L 841.9221730325437 337.8 L 842.7455768536398 338.2 L 843.5689806747358 338.6 L 844.392384495832 339.5 L 845.2157883169281 339.5 L 846.0391921380242 339.6 L 846.8625959591202 339.5 L 847.6859997802163 339.5 L 848.5094036013124 338.3 L 849.3328074224086 336.3 L 850.1562112435046 339.6 L 850.9796150646007 339.3 L 851.8030188856968 338.8 L 852.6264227067929 339.5 L 853.449826527889 339.5 L 854.2732303489851 337.7 L 855.0966341700812 339.6 L 855.9200379911773 338.1 L 856.7434418122733 334.3 L 857.5668456333694 339.5 L 858.3902494544656 338.4 L 859.2136532755617 330.5 L 860.0370570966577 338.8 L 860.8604609177538 339.6 L 861.6838647388499 339.5 L 862.507268559946 339.5 L 863.3306723810421 339.6 L 864.1540762021382 331.9 L 864.9774800232343 339.6 L 865.8008838443304 339.5 L 866.6242876654264 337.8 L 867.4476914865226 338.7 L 868.2710953076187 335 L 869.0944991287147 339.4 L 869.9179029498108 339.5 L 870.7413067709069 339.5 L 871.564710592003 339.6 L 872.3881144130991 337.5 L 873.2115182341952 339.6 L 874.0349220552913 339.6 L 874.8583258763874 338.6 L 875.6817296974834 339.5 L 876.5051335185796 339.5 L 877.3285373396757 339.6 L 878.1519411607718 339.5 L 878.9753449818678 338.3 L 879.7987488029639 339.4 L 880.62215262406 338.8 L 881.4455564451562 338.4 L 882.2689602662522 338.6 L 883.0923640873483 337.3 L 883.9157679084444 334.8 L 884.7391717295405 338.3 L 885.5625755506366 339.5 L 886.3859793717327 339.5 L 887.2093831928288 339.5 L 888.0327870139249 337.1 L 888.8561908350209 316.3 L 889.679594656117 284.5 L 890.5029984772132 316.7 L 891.3264022983093 338.7 L 892.1498061194053 339.5 L 892.9732099405014 339.4 L 893.7966137615975 339.5 L 894.6200175826937 339.5 L 895.4434214037897 336.9 L 896.2668252248858 339.5 L 897.0902290459819 339.5 L 897.913632867078 339.1 L 898.737036688174 339.5 L 899.5604405092702 335.5 L 900.3838443303663 339.5 L 901.2072481514624 339.5 L 902.0306519725584 339.6 L 902.8540557936545 339.5 L 903.6774596147507 338.9 L 904.5008634358467 339.6 L 905.3242672569428 338.1 L 906.1476710780389 338.6 L 906.971074899135 339.5 L 907.794478720231 337.8 L 908.6178825413272 339.5 L 909.4412863624233 338.5 L 910.2646901835194 339.5 L 911.0880940046154 335.5 L 911.9114978257115 339.4 L 912.7349016468077 329.3 L 913.5583054679038 337.8 L 914.3817092889998 339.4 L 915.2051131100959 339.6 L 916.028516931192 338.3 L 916.8519207522882 339.6 L 917.6753245733842 339.5 L 918.4987283944803 339.5 L 919.3221322155764 259.3 L 920.1455360366725 189.9 L 920.9689398577685 216.2 L 921.7923436788647 242 L 922.6157474999608 225 L 923.4391513210569 181.7 L 924.2625551421529 266.5 L 925.085958963249 309.5 L 925.9093627843451 308.9 L 926.7327666054413 313.1 L 927.5561704265373 310.9 L 928.3795742476334 312.7 L 929.2029780687295 309.5 L 930.0263818898256 313 L 930.8497857109217 312.7 L 931.6731895320178 314 L 932.4965933531139 312.8 L 933.31999717421 313 L 934.143400995306 312.2 L 934.9668048164021 311.4 L 935.7902086374983 313.2 L 936.6136124585943 313.9 L 937.4370162796904 312.8 L 938.2604201007865 309.4 L 939.0838239218826 313.9 L 939.9072277429786 314.1 L 940.7306315640748 311.4 L 941.5540353851709 254.7 L 942.377439206267 320 L 943.200843027363 307.5 L 944.0242468484591 342.4 L 944.8476506695553 344.5 L 945.6710544906514 345.2 L 946.4944583117474 345.1 L 947.3178621328435 345.2 L 948.1412659539396 345.2 L 948.9646697750358 345.2 L 949.7880735961318 345.2 L 950.6114774172279 345.2 L 951.434881238324 345.1 L 952.2582850594201 344.7 L 953.0816888805161 345.1 L 953.9050927016123 345.1 L 954.7284965227084 343.9 L 955.5519003438045 345.3 L 956.3753041649005 345.1 L 957.1987079859966 345.2 L 958.0221118070928 345.2 L 958.8455156281889 345.1 L 959.6689194492849 345.2 L 960.492323270381 344.5 L 961.3157270914771 345.1 L 962.1391309125733 345.2 L 962.9625347336693 345.2 L 963.7859385547654 345.1 L 964.6093423758615 345.2 L 965.4327461969576 345.2 L 966.2561500180536 345.1 L 967.0795538391498 350.3 L 967.9029576602459 350.8 L 968.726361481342 350.8 L 969.549765302438 350.8 L 970.3731691235341 350.8 L 971.1965729446302 350.8 L 972.0199767657263 350.8 L 972.8433805868224 350.8 L 973.6667844079185 350.9 L 974.4901882290146 350.8 L 975.3135920501106 350.8 L 976.1369958712068 350.1 L 976.9603996923029 350.8 L 977.783803513399 350.8 L 978.607207334495 350.8 L 979.4306111555911 349.6 L 980.2540149766872 350.8 L 981.0774187977834 350.9 L 981.9008226188794 350.8 L 982.7242264399755 350.8 L 983.5476302610716 349.1 L 984.3710340821677 350.4 L 985.1944379032637 350.8 L 986.0178417243599 350.8 L 986.841245545456 350.8 L 987.6646493665521 350.8 L 988.4880531876481 350.8 L 989.3114570087442 350.7 L 990.1348608298404 350.7 L 990.9582646509365 350.9 L 991.7816684720325 350.1 L 992.6050722931286 350.7 L 993.4284761142247 350.9 L 994.2518799353209 350.9 L 995.0752837564169 350.8 L 995.898687577513 350.8 L 996.7220913986091 350.9 L 997.5454952197052 350.8 L 998.3688990408012 350.8 L 999.1923028618974 350.2 L 1000.0157066829935 350.8 L 1000.8391105040896 350.9 L 1001.6625143251856 350.9 L 1002.4859181462817 350.8 L 1003.3093219673779 350.3 L 1004.132725788474 350 L 1004.95612960957 350.8 L 1005.7795334306661 350.7 L 1006.6029372517622 350.7 L 1007.4263410728582 350.6 L 1008.2497448939544 350.7 L 1009.0731487150505 350.9 L 1009.8965525361466 350.8 L 1010.7199563572426 350.8 L 1011.5433601783387 350.8 L 1012.3667639994349 350.8 L 1013.190167820531 350.9 L 1014.013571641627 350.8 L 1014.8369754627231 350 L 1015.6603792838192 350.8 L 1016.4837831049153 350.9 L 1017.3071869260114 350.7 L 1018.1305907471075 350.9 L 1018.9539945682036 350.8 L 1019.7773983892997 350.8 L 1020.6008022103957 350.8 L 1021.4242060314918 350.8 L 1022.247609852588 350 L 1023.0710136736841 350.8 L 1023.8944174947801 350.8 L 1024.7178213158763 350.9 L 1025.5412251369723 350.7 L 1026.3646289580684 350.9 L 1027.1880327791646 350.9 L 1028.0114366002606 349.4 L 1028.8348404213566 350.8 L 1029.6582442424528 350.9 L 1030.4816480635488 350 L 1031.305051884645 350.9 L 1032.128455705741 350.8 L 1032.951859526837 350.8 L 1033.7752633479333 350.9 L 1034.5986671690293 350.8 L 1035.4220709901253 350.8 L 1036.2454748112216 350.8 L 1037.0688786323176 350.9 L 1037.8922824534138 350.5 L 1038.7156862745098 350.9" stroke="#492970" stroke-width="1" zIndex="1"></path></g><g class="highcharts-markers" visibility="visible" zIndex="0.1" transform="translate(60,10) scale(1 1)" clip-path="none"><path fill="none" d="M 0.28431372549019684 280.1 L 10.284313725490197 280.1 L 11.107717546586288 285.5 L 11.931121367682382 277.6 L 12.754525188778475 285.7 L 13.577929009874568 284.7 L 14.401332830970661 281.4 L 15.224736652066753 287.6 L 16.048140473162846 278.2 L 16.87154429425894 283.9 L 17.694948115355032 279.5 L 18.518351936451122 280.2 L 19.341755757547215 287.4 L 20.16515957864331 283.7 L 20.9885633997394 283.9 L 21.811967220835495 287.8 L 22.635371041931585 279.6 L 23.458774863027678 284.3 L 24.28217868412377 287.1 L 25.105582505219864 250.3 L 25.928986326315957 213.5 L 26.752390147412047 276.4 L 27.57579396850814 284.3 L 28.399197789604234 281.3 L 29.222601610700327 243 L 30.04600543179642 186.1 L 30.869409252892513 219.5 L 31.692813073988603 202.4 L 32.516216895084696 167.6 L 33.33962071618079 173.5 L 34.16302453727688 166 L 34.986428358372976 196.8 L 35.80983217946907 202.6 L 36.63323600056516 169.2 L 37.456639821661255 191.6 L 38.28004364275734 166.7 L 39.103447463853435 171.3 L 39.92685128494953 191.1 L 40.75025510604562 210.7 L 41.573658927141715 259.5 L 42.39706274823781 160.5 L 43.2204665693339 -193.9 L 44.043870390429994 -99.3 L 44.86727421152609 -207.9 L 45.69067803262218 -213.4 L 46.51408185371827 -215 L 47.33748567481436 -212.6 L 48.16088949591045 -212.6 L 48.984293317006546 -212.9 L 49.80769713810264 -209.4 L 50.63110095919873 -204.4 L 51.454504780294826 -113.9 L 52.27790860139092 -134.6 L 53.101312422487005 -71.5 L 53.9247162435831 54.1 L 54.74812006467919 37.9 L 55.571523885775285 -11.1 L 56.39492770687138 76.9 L 57.218331527967464 154.6 L 58.04173534906356 329.5 L 58.86513917015965 328.9 L 59.688542991255744 196.9 L 60.51194681235184 125.3 L 61.33535063344793 169.6 L 62.158754454544024 286 L 62.98215827564012 330.8 L 63.80556209673621 328.4 L 64.6289659178323 338.5 L 65.4523697389284 338.5 L 66.27577356002449 335.5 L 67.09917738112058 335 L 67.92258120221668 246.2 L 68.74598502331277 236.6 L 69.56938884440886 227.9 L 70.39279266550494 215.2 L 71.21619648660104 337.4 L 72.03960030769713 336.1 L 72.86300412879322 336.8 L 73.68640794988931 336.9 L 74.50981177098541 339.1 L 75.3332155920815 336.5 L 76.1566194131776 315.7 L 76.98002323427369 243.8 L 77.80342705536978 220.9 L 78.62683087646587 246.1 L 79.45023469756197 205 L 80.27363851865806 301.2 L 81.09704233975415 333.7 L 81.92044616085025 332.6 L 82.74384998194634 316.1 L 83.56725380304243 338.8 L 84.39065762413853 334.7 L 85.21406144523462 334.5 L 86.03746526633071 298 L 86.8608690874268 329.6 L 87.68427290852289 338.6 L 88.50767672961898 328.5 L 89.33108055071507 327.4 L 90.15448437181117 337.4 L 90.97788819290726 333.8 L 91.80129201400335 332.8 L 92.62469583509944 339.2 L 93.44809965619554 337.9 L 94.27150347729163 338.9 L 95.09490729838772 281.7 L 95.91831111948382 339.1 L 96.74171494057991 339.2 L 97.565118761676 334.1 L 98.3885225827721 338.8 L 99.21192640386819 339.3 L 100.03533022496428 339.1 L 100.85873404606038 339.1 L 101.68213786715647 336.8 L 102.50554168825256 337.2 L 103.32894550934866 337 L 104.15234933044475 339.3 L 104.97575315154084 339.2 L 105.79915697263694 338 L 106.62256079373303 331.3 L 107.44596461482912 337.4 L 108.26936843592522 339.2 L 109.09277225702131 338.5 L 109.9161760781174 327.8 L 110.7395798992135 339.2 L 111.56298372030959 339.2 L 112.38638754140568 337.1 L 113.20979136250178 338 L 114.03319518359787 337.8 L 114.85659900469396 339.3 L 115.68000282579005 337.2 L 116.50340664688615 337.8 L 117.32681046798224 338.5 L 118.15021428907833 336.7 L 118.97361811017443 338.9 L 119.7970219312705 338.1 L 120.6204257523666 339.3 L 121.4438295734627 337.2 L 122.26723339455879 339.2 L 123.09063721565488 333.1 L 123.91404103675097 339.2 L 124.73744485784707 331.1 L 125.56084867894316 333.2 L 126.38425250003925 339.2 L 127.20765632113535 337.1 L 128.03106014223144 296 L 128.85446396332753 259.6 L 129.67786778442363 336.3 L 130.50127160551972 338.7 L 131.3246754266158 336.4 L 132.1480792477119 339.3 L 132.971483068808 330.7 L 133.7948868899041 337.3 L 134.61829071100018 331.6 L 135.44169453209628 339.2 L 136.26509835319237 336.5 L 137.08850217428846 337.4 L 137.91190599538456 338.1 L 138.73530981648065 338 L 139.55871363757674 339.3 L 140.38211745867284 337.1 L 141.20552127976893 337.6 L 142.02892510086502 339.4 L 142.85232892196112 336.5 L 143.6757327430572 335.5 L 144.4991365641533 338 L 145.3225403852494 339.4 L 146.14594420634546 337.2 L 146.96934802744155 339.3 L 147.79275184853765 339.4 L 148.61615566963374 336.1 L 149.43955949072983 322.8 L 150.26296331182593 284.1 L 151.08636713292202 304 L 151.90977095401811 336.7 L 152.7331747751142 330.4 L 153.5565785962103 339.3 L 154.3799824173064 339.3 L 155.2033862384025 332 L 156.02679005949858 339.2 L 156.85019388059467 338.4 L 157.67359770169077 336.7 L 158.49700152278686 337.9 L 159.32040534388295 339.3 L 160.14380916497905 339.2 L 160.96721298607514 336.8 L 161.79061680717123 334.6 L 162.61402062826733 338 L 163.43742444936342 335.6 L 164.2608282704595 337.3 L 165.0842320915556 339.2 L 165.9076359126517 338.4 L 166.7310397337478 335.2 L 167.55444355484389 337.1 L 168.37784737593998 339.3 L 169.20125119703607 338.1 L 170.02465501813217 337.6 L 170.84805883922826 339.5 L 171.67146266032435 339.4 L 172.49486648142044 329.5 L 173.31827030251654 337.7 L 174.14167412361263 327.8 L 174.96507794470872 338.2 L 175.78848176580482 338.9 L 176.6118855869009 339.3 L 177.435289407997 339 L 178.2586932290931 339.3 L 179.0820970501892 336.6 L 179.90550087128528 337 L 180.72890469238138 337.5 L 181.55230851347744 339.3 L 182.37571233457354 337.2 L 183.19911615566963 339.4 L 184.02251997676572 339.3 L 184.84592379786181 334.6 L 185.6693276189579 307.9 L 186.492731440054 336.8 L 187.3161352611501 339.1 L 188.1395390822462 334.7 L 188.96294290334228 337.8 L 189.78634672443837 334.8 L 190.60975054553447 335.7 L 191.43315436663056 338.3 L 192.25655818772665 339.4 L 193.07996200882275 338.5 L 193.90336582991884 337.3 L 194.72676965101493 335.1 L 195.55017347211103 339.3 L 196.37357729320712 339.3 L 197.1969811143032 337.3 L 198.0203849353993 339.3 L 198.8437887564954 339.4 L 199.6671925775915 337.5 L 200.4905963986876 339.1 L 201.31400021978368 339.4 L 202.13740404087977 339.4 L 202.96080786197587 337.7 L 203.78421168307196 338.6 L 204.60761550416805 339.4 L 205.43101932526415 338.5 L 206.25442314636024 337.2 L 207.07782696745633 326.8 L 207.90123078855243 339.3 L 208.72463460964852 337.8 L 209.5480384307446 339.4 L 210.3714422518407 339.4 L 211.1948460729368 339.4 L 212.0182498940329 336.4 L 212.84165371512898 338.2 L 213.66505753622508 305.7 L 214.48846135732117 320.9 L 215.31186517841726 338.7 L 216.13526899951336 338.2 L 216.95867282060942 339.3 L 217.78207664170552 324.5 L 218.6054804628016 339.3 L 219.4288842838977 338 L 220.2522881049938 292.4 L 221.0756919260899 206.5 L 221.89909574718598 208.3 L 222.72249956828207 210.6 L 223.54590338937817 244.3 L 224.36930721047426 251.8 L 225.19271103157035 248.5 L 226.01611485266645 246.4 L 226.83951867376254 245.4 L 227.66292249485863 244.3 L 228.48632631595473 246.4 L 229.30973013705082 247.3 L 230.1331339581469 247.7 L 230.956537779243 247.1 L 231.7799416003391 246.9 L 232.6033454214352 259.3 L 233.4267492425313 230.4 L 234.25015306362738 254.8 L 235.07355688472347 260.4 L 235.89696070581957 260.8 L 236.72036452691566 261 L 237.54376834801175 263.9 L 238.36717216910785 261.3 L 239.19057599020394 262 L 240.01397981130003 256.8 L 240.83738363239613 256.4 L 241.66078745349222 253.6 L 242.4841912745883 202.8 L 243.3075950956844 222.5 L 244.1309989167805 240.1 L 244.9544027378766 234.2 L 245.77780655897269 242.6 L 246.60121038006878 237.5 L 247.42461420116487 230.5 L 248.24801802226096 238.5 L 249.07142184335706 276.8 L 249.89482566445315 337.7 L 250.71822948554924 338.1 L 251.5416333066453 339.1 L 252.3650371277414 335.7 L 253.1884409488375 338.7 L 254.0118447699336 339.2 L 254.83524859102968 335.2 L 255.65865241212578 328.6 L 256.4820562332219 339.2 L 257.30546005431796 338.7 L 258.1288638754141 337.2 L 258.95226769651015 338.3 L 259.77567151760627 339.4 L 260.59907533870233 338.2 L 261.42247915979846 337.3 L 262.2458829808945 338.7 L 263.06928680199064 337.8 L 263.8926906230867 336.6 L 264.71609444418283 339.4 L 265.5394982652789 337.7 L 266.362902086375 338.4 L 267.1863059074711 336.6 L 268.0097097285672 339.3 L 268.83311354966327 337.8 L 269.65651737075933 337.9 L 270.47992119185545 339.3 L 271.3033250129515 337.6 L 272.12672883404764 336 L 272.9501326551437 336.5 L 273.7735364762398 307.4 L 274.5969402973359 269.3 L 275.420344118432 329.6 L 276.2437479395281 337 L 277.0671517606242 339.3 L 277.89055558172026 339.3 L 278.7139594028164 332.3 L 279.53736322391245 337.4 L 280.3607670450086 339.4 L 281.18417086610464 339.4 L 282.00757468720076 336.3 L 282.8309785082968 339.3 L 283.65438232939294 339.4 L 284.477786150489 338.5 L 285.30118997158513 338.1 L 286.1245937926812 339.5 L 286.9479976137773 337.6 L 287.7714014348734 331.7 L 288.5948052559695 338.5 L 289.41820907706557 335.7 L 290.2416128981617 310.1 L 291.06501671925776 337.2 L 291.8884205403539 336.8 L 292.71182436144994 339.4 L 293.53522818254606 332.7 L 294.35863200364213 251.2 L 295.18203582473825 327.1 L 296.0054396458343 337.7 L 296.82884346693044 334.7 L 297.6522472880265 327 L 298.4756511091226 335.2 L 299.2990549302187 336.5 L 300.1224587513148 339.3 L 300.9458625724109 339.3 L 301.769266393507 339.4 L 302.59267021460306 336.6 L 303.4160740356992 339.3 L 304.23947785679525 337.1 L 305.0628816778913 339.4 L 305.88628549898743 335.7 L 306.7096893200835 335.9 L 307.5330931411796 339.3 L 308.3564969622757 337.2 L 309.1799007833718 337.5 L 310.00330460446787 339.4 L 310.826708425564 339.3 L 311.65011224666006 336 L 312.4735160677562 337.9 L 313.29691988885224 338.5 L 314.12032370994837 338.3 L 314.94372753104443 334.4 L 315.76713135214055 339.3 L 316.5905351732366 337.8 L 317.41393899433274 336.7 L 318.2373428154288 337.9 L 319.0607466365249 339.4 L 319.884150457621 339.4 L 320.7075542787171 336.6 L 321.5309580998132 338.4 L 322.3543619209093 339.4 L 323.17776574200536 336.8 L 324.0011695631015 338.2 L 324.82457338419755 339.4 L 325.64797720529367 339.4 L 326.47138102638974 333 L 327.29478484748586 339.4 L 328.1181886685819 339.4 L 328.94159248967804 337.1 L 329.7649963107741 339.1 L 330.58840013187023 339.4 L 331.4118039529663 339.5 L 332.2352077740624 337.3 L 333.0586115951585 339.4 L 333.8820154162546 339.4 L 334.70541923735067 323 L 335.5288230584468 336 L 336.35222687954285 337.8 L 337.175630700639 334.2 L 337.99903452173504 337 L 338.82243834283116 335.6 L 339.6458421639272 336.1 L 340.4692459850233 339.4 L 341.2926498061194 337.3 L 342.1160536272155 334.9 L 342.9394574483116 324.3 L 343.76286126940767 337.6 L 344.5862650905038 338.6 L 345.40966891159985 339.2 L 346.233072732696 339.4 L 347.05647655379204 336.8 L 347.87988037488816 339.3 L 348.7032841959842 338.2 L 349.52668801708035 339.4 L 350.3500918381764 337.2 L 351.17349565927253 339.4 L 351.9968994803686 339.5 L 352.8203033014647 335.9 L 353.6437071225608 336.1 L 354.4671109436569 338 L 355.29051476475297 339.4 L 356.1139185858491 337.5 L 356.93732240694516 339.5 L 357.7607262280413 339.4 L 358.58413004913734 338.3 L 359.40753387023346 338.4 L 360.23093769132953 338.8 L 361.05434151242565 329.3 L 361.8777453335217 337.3 L 362.70114915461784 338 L 363.5245529757139 339.4 L 364.34795679681 337.7 L 365.1713606179061 337.8 L 365.9947644390022 338.4 L 366.8181682600983 339.3 L 367.6415720811944 337.7 L 368.46497590229046 337.3 L 369.2883797233866 335.7 L 370.11178354448265 339.3 L 370.93518736557877 339.1 L 371.75859118667483 339.4 L 372.58199500777096 335.8 L 373.405398828867 339.3 L 374.22880264996314 337.7 L 375.0522064710592 339.3 L 375.8756102921553 339.4 L 376.6990141132514 336.1 L 377.52241793434746 339.4 L 378.3458217554436 339.4 L 379.16922557653965 339.5 L 379.99262939763577 336.6 L 380.81603321873183 338 L 381.63943703982795 337.4 L 382.462840860924 338.7 L 383.28624468202014 338 L 384.1096485031162 338.7 L 384.9330523242123 339.3 L 385.7564561453084 335.1 L 386.5798599664045 339.3 L 387.4032637875006 338 L 388.2266676085967 339.5 L 389.05007142969276 336.2 L 389.8734752507889 339.4 L 390.69687907188495 338.4 L 391.5202828929811 312.4 L 392.34368671407714 338.2 L 393.16709053517326 337 L 393.9904943562693 339.2 L 394.81389817736545 336.3 L 395.6373019984615 335.5 L 396.46070581955763 335 L 397.2841096406537 305.3 L 398.1075134617498 272.9 L 398.9309172828459 338.9 L 399.754321103942 338.5 L 400.57772492503807 337.7 L 401.4011287461342 339.4 L 402.22453256723026 339.4 L 403.0479363883264 339.1 L 403.87134020942244 337 L 404.69474403051856 339.4 L 405.51814785161463 339.4 L 406.34155167271075 337 L 407.1649554938068 338.5 L 407.98835931490294 336.3 L 408.811763135999 339.3 L 409.63516695709507 336.7 L 410.4585707781912 337.6 L 411.28197459928725 339.4 L 412.1053784203834 336.4 L 412.92878224147944 338.5 L 413.75218606257556 338.2 L 414.5755898836716 339.4 L 415.39899370476775 336 L 416.2223975258638 339.3 L 417.04580134695993 337.8 L 417.869205168056 337.2 L 418.6926089891521 336.7 L 419.5160128102482 339.4 L 420.3394166313443 339.4 L 421.16282045244037 325.2 L 421.9862242735365 339.4 L 422.80962809463256 337.1 L 423.6330319157287 315.7 L 424.45643573682474 336.6 L 425.27983955792087 339.4 L 426.10324337901693 270.9 L 426.92664720011305 251.7 L 427.7500510212091 234.1 L 428.57345484230524 300.1 L 429.3968586634013 339.1 L 430.2202624844974 315.2 L 431.0436663055935 325.1 L 431.8670701266896 337.8 L 432.6904739477857 335.5 L 433.5138777688818 334.7 L 434.33728158997786 338 L 435.160685411074 336.1 L 435.98408923217005 336.8 L 436.80749305326617 338 L 437.63089687436224 339.4 L 438.45430069545836 337.2 L 439.2777045165544 337.3 L 440.10110833765054 338.4 L 440.9245121587466 339.3 L 441.74791597984273 335.8 L 442.5713198009388 339.4 L 443.3947236220349 339.3 L 444.218127443131 339.4 L 445.04153126422705 337.8 L 445.86493508532317 339.3 L 446.68833890641923 338.6 L 447.51174272751535 336.7 L 448.3351465486114 339 L 449.15855036970754 339.4 L 449.9819541908036 339.4 L 450.8053580118997 333.4 L 451.6287618329958 339.3 L 452.4521656540919 339.4 L 453.275569475188 339.4 L 454.0989732962841 337.5 L 454.92237711738017 338.3 L 455.7457809384763 339.5 L 456.56918475957235 337.4 L 457.3925885806685 339.2 L 458.21599240176454 339.4 L 459.03939622286066 339.4 L 459.8628000439567 335.6 L 460.68620386505285 339.4 L 461.5096076861489 338.1 L 462.33301150724503 336.6 L 463.1564153283411 337.5 L 463.9798191494372 339.3 L 464.8032229705333 338.5 L 465.6266267916294 337.4 L 466.45003061272547 339.4 L 467.2734344338216 339.4 L 468.09683825491766 339.5 L 468.9202420760138 338.1 L 469.74364589710984 338.4 L 470.56704971820596 339.3 L 471.39045353930203 337.8 L 472.21385736039815 337.8 L 473.0372611814942 339.4 L 473.86066500259034 339.5 L 474.6840688236864 337.3 L 475.5074726447825 339.4 L 476.3308764658786 339.4 L 477.1542802869747 338.7 L 477.9776841080708 333.6 L 478.8010879291669 339.4 L 479.62449175026296 339.4 L 480.447895571359 336.9 L 481.27129939245515 339.4 L 482.0947032135512 339.4 L 482.91810703464733 339.4 L 483.7415108557434 331.4 L 484.5649146768395 338.7 L 485.3883184979356 334.3 L 486.2117223190317 333.1 L 487.0351261401278 339.5 L 487.8585299612239 324.5 L 488.68193378231996 339.4 L 489.5053376034161 334.4 L 490.32874142451215 339.3 L 491.15214524560827 338.1 L 491.97554906670433 337.6 L 492.79895288780045 339.4 L 493.6223567088965 339.1 L 494.44576052999264 339.5 L 495.2691643510887 331.5 L 496.0925681721848 339.4 L 496.9159719932809 337.9 L 497.739375814377 339.5 L 498.5627796354731 321.8 L 499.3861834565692 300.6 L 500.20958727766526 303 L 501.0329910987614 300.8 L 501.85639491985745 298.8 L 502.6797987409536 297.3 L 503.50320256204964 302 L 504.32660638314576 306.8 L 505.1500102042418 307.3 L 505.97341402533795 308.2 L 506.796817846434 306.8 L 507.62022166753013 308.4 L 508.4436254886262 325.5 L 509.2670293097223 338.4 L 510.0904331308184 337.4 L 510.9138369519145 338.6 L 511.73724077301057 339.4 L 512.5606445941066 338.2 L 513.3840484152028 337.5 L 514.2074522362989 338.6 L 515.0308560573949 339.4 L 515.854259878491 336.6 L 516.6776636995871 335.4 L 517.5010675206833 339.4 L 518.3244713417793 339.3 L 519.1478751628754 337.4 L 519.9712789839715 332.6 L 520.7946828050676 282.5 L 521.6180866261636 301.8 L 522.4414904472598 339.4 L 523.2648942683559 339.5 L 524.088298089452 338.7 L 524.911701910548 337.1 L 525.7351057316441 339.4 L 526.5585095527402 339.5 L 527.3819133738364 339.3 L 528.2053171949324 334.3 L 529.0287210160285 339.4 L 529.8521248371246 338 L 530.6755286582207 337.8 L 531.4989324793167 339.5 L 532.3223363004129 335.4 L 533.145740121509 339.5 L 533.9691439426051 336.6 L 534.7925477637011 339.4 L 535.6159515847972 338 L 536.4393554058934 335.1 L 537.2627592269895 338.3 L 538.0861630480855 339.5 L 538.9095668691816 338.6 L 539.7329706902777 336.8 L 540.5563745113739 339 L 541.3797783324699 339.5 L 542.203182153566 338.3 L 543.0265859746621 338 L 543.8499897957582 336.7 L 544.6733936168542 335.6 L 545.4967974379504 337.3 L 546.3202012590465 338.1 L 547.1436050801426 339.6 L 547.9670089012386 331 L 548.7904127223347 337.2 L 549.6138165434309 339.5 L 550.4372203645269 339.5 L 551.260624185623 336.7 L 552.0840280067191 337.4 L 552.9074318278152 339.5 L 553.7308356489112 335.8 L 554.5542394700074 338.2 L 555.3776432911035 336.6 L 556.2010471121996 339.4 L 557.0244509332956 337.4 L 557.8478547543917 339.4 L 558.6712585754879 338.3 L 559.494662396584 334.8 L 560.31806621768 332.7 L 561.1414700387761 339.4 L 561.9648738598722 338.9 L 562.7882776809683 339.5 L 563.6116815020644 336.8 L 564.4350853231605 339.4 L 565.2584891442566 337.9 L 566.0818929653527 336.9 L 566.9052967864487 339.5 L 567.7287006075449 336.1 L 568.552104428641 339.5 L 569.3755082497371 337.4 L 570.1989120708331 339.4 L 571.0223158919292 335.5 L 571.8457197130253 337.2 L 572.6691235341215 339.5 L 573.4925273552175 339.4 L 574.3159311763136 339.5 L 575.1393349974097 336.7 L 575.9627388185058 339.5 L 576.7861426396018 339.5 L 577.609546460698 339.4 L 578.4329502817941 337.6 L 579.2563541028902 338.6 L 580.0797579239862 339.4 L 580.9031617450823 337.3 L 581.7265655661785 339.5 L 582.5499693872746 339.4 L 583.3733732083706 339 L 584.1967770294667 337.5 L 585.0201808505628 338.4 L 585.8435846716588 339.5 L 586.666988492755 326 L 587.4903923138511 338.9 L 588.3137961349472 337.9 L 589.1371999560432 339.5 L 589.9606037771393 336.4 L 590.7840075982355 339.5 L 591.6074114193316 339.5 L 592.4308152404276 339.4 L 593.2542190615237 338.3 L 594.0776228826198 339.5 L 594.901026703716 338.6 L 595.724430524812 334.7 L 596.5478343459081 335.8 L 597.3712381670042 339.3 L 598.1946419881003 336.6 L 599.0180458091963 337.6 L 599.8414496302925 339.4 L 600.6648534513886 339.5 L 601.4882572724847 337.4 L 602.3116610935807 338.6 L 603.1350649146768 339.4 L 603.958468735773 339.5 L 604.7818725568691 337.4 L 605.6052763779651 339.4 L 606.4286801990612 339.5 L 607.2520840201573 338.6 L 608.0754878412534 337.8 L 608.8988916623495 339.5 L 609.7222954834456 337.9 L 610.5456993045417 330.2 L 611.3691031256378 337.8 L 612.1925069467338 339.5 L 613.01591076783 337.6 L 613.8393145889261 334 L 614.6627184100222 338.8 L 615.4861222311182 339.5 L 616.3095260522143 336.8 L 617.1329298733104 339.5 L 617.9563336944066 338.5 L 618.7797375155026 334.4 L 619.6031413365987 337.3 L 620.4265451576948 337.8 L 621.2499489787908 338.2 L 622.073352799887 339.2 L 622.8967566209831 338.3 L 623.7201604420792 339.5 L 624.5435642631752 339.5 L 625.3669680842713 334 L 626.1903719053674 338.8 L 627.0137757264636 339.5 L 627.8371795475596 339 L 628.6605833686557 337.3 L 629.4839871897518 339.5 L 630.3073910108479 339.3 L 631.130794831944 337.3 L 631.9541986530401 339.5 L 632.7776024741362 337.8 L 633.6010062952323 338.4 L 634.4244101163283 333.5 L 635.2478139374244 338.4 L 636.0712177585206 339 L 636.8946215796167 336.4 L 637.7180254007127 339.5 L 638.5414292218088 338.4 L 639.3648330429049 339.4 L 640.188236864001 333.8 L 641.0116406850971 339.4 L 641.8350445061932 339.5 L 642.6584483272893 337.5 L 643.4818521483854 291.5 L 644.3052559694814 290.8 L 645.1286597905776 337.9 L 645.9520636116737 337.1 L 646.7754674327698 339.6 L 647.5988712538658 339.5 L 648.4222750749619 337.1 L 649.245678896058 338.7 L 650.0690827171542 339.4 L 650.8924865382502 339.4 L 651.7158903593463 336.3 L 652.5392941804424 339.5 L 653.3626980015385 339.5 L 654.1861018226346 339.5 L 655.0095056437307 337.8 L 655.8329094648268 339.4 L 656.6563132859228 337.9 L 657.4797171070189 336.3 L 658.303120928115 338 L 659.1265247492112 339.5 L 659.9499285703072 338.2 L 660.7733323914033 337.3 L 661.5967362124994 339.5 L 662.4201400335955 339.4 L 663.2435438546916 336.6 L 664.0669476757877 338.7 L 664.8903514968838 339.5 L 665.7137553179799 339.4 L 666.5371591390759 337 L 667.360562960172 324.4 L 668.1839667812682 339.5 L 669.0073706023643 339.4 L 669.8307744234603 338.6 L 670.6541782445564 339.4 L 671.4775820656525 339.5 L 672.3009858867487 328.3 L 673.1243897078447 338.7 L 673.9477935289408 339.5 L 674.7711973500369 339.5 L 675.594601171133 335.5 L 676.418004992229 339.5 L 677.2414088133252 339.5 L 678.0648126344213 337.1 L 678.8882164555174 336.2 L 679.7116202766134 339.3 L 680.5350240977095 338.9 L 681.3584279188057 336.2 L 682.1818317399018 339.4 L 683.0052355609978 338.1 L 683.8286393820939 339.4 L 684.65204320319 337.8 L 685.4754470242862 339.5 L 686.2988508453822 338.4 L 687.1222546664783 337.4 L 687.9456584875744 337.7 L 688.7690623086705 339.5 L 689.5924661297665 339.4 L 690.4158699508627 337 L 691.2392737719588 339.5 L 692.0626775930548 339.4 L 692.8860814141509 337.5 L 693.709485235247 338.3 L 694.5328890563432 334.8 L 695.3562928774392 338.7 L 696.1796966985353 337.1 L 697.0031005196314 339.5 L 697.8265043407275 339.5 L 698.6499081618235 339.5 L 699.4733119829197 339 L 700.2967158040158 339.5 L 701.1201196251119 339.6 L 701.9435234462079 337.3 L 702.766927267304 339.5 L 703.5903310884001 338.6 L 704.4137349094963 339.4 L 705.2371387305923 337 L 706.0605425516884 326.5 L 706.8839463727845 296 L 707.7073501938806 335.7 L 708.5307540149767 339.3 L 709.3541578360728 337.7 L 710.1775616571689 335.8 L 711.000965478265 336 L 711.824369299361 339.5 L 712.6477731204571 338.9 L 713.4711769415533 337.5 L 714.2945807626494 339.5 L 715.1179845837454 339.4 L 715.9413884048415 339.5 L 716.7647922259376 336.7 L 717.5881960470338 339.4 L 718.4115998681298 338.4 L 719.2350036892259 337.1 L 720.058407510322 333.9 L 720.8818113314181 339.4 L 721.7052151525141 334 L 722.5286189736103 337.5 L 723.3520227947064 339.5 L 724.1754266158025 339.4 L 724.9988304368985 339.5 L 725.8222342579946 337.5 L 726.6456380790908 338.5 L 727.4690419001868 339.5 L 728.2924457212829 337.4 L 729.115849542379 339.5 L 729.9392533634751 339.5 L 730.7626571845711 338.2 L 731.5860610056673 338.1 L 732.4094648267634 336.1 L 733.2328686478595 339.2 L 734.0562724689555 335.7 L 734.8796762900516 329.5 L 735.7030801111478 338.9 L 736.5264839322439 339.5 L 737.3498877533399 336.9 L 738.173291574436 339.4 L 738.9966953955321 339.6 L 739.8200992166283 339.5 L 740.6435030377243 330.8 L 741.4669068588204 339.4 L 742.2903106799165 339 L 743.1137145010126 337.2 L 743.9371183221086 339.6 L 744.7605221432048 338.4 L 745.5839259643009 332.7 L 746.407329785397 338.5 L 747.230733606493 339.5 L 748.0541374275891 326.6 L 748.8775412486852 335.1 L 749.7009450697814 338.7 L 750.5243488908774 338.7 L 751.3477527119735 339.5 L 752.1711565330696 336.9 L 752.9945603541657 339.5 L 753.8179641752617 339.5 L 754.6413679963579 339.5 L 755.464771817454 334.9 L 756.2881756385501 339.5 L 757.1115794596461 338 L 757.9349832807422 336.9 L 758.7583871018384 338.7 L 759.5817909229345 336.7 L 760.4051947440305 339 L 761.2285985651266 337.5 L 762.0520023862227 338.9 L 762.8754062073187 339.5 L 763.6988100284149 337.2 L 764.522213849511 339.1 L 765.3456176706071 338.7 L 766.1690214917031 301.9 L 766.9924253127992 270.2 L 767.8158291338954 337.9 L 768.6392329549915 339.4 L 769.4626367760875 339.5 L 770.2860405971836 337.6 L 771.1094444182797 339.5 L 771.9328482393759 338.2 L 772.7562520604719 337.5 L 773.579655881568 338.6 L 774.4030597026641 339.4 L 775.2264635237602 335.7 L 776.0498673448562 336.4 L 776.8732711659524 339.4 L 777.6966749870485 339.6 L 778.5200788081446 337.2 L 779.3434826292406 339.4 L 780.1668864503367 338.3 L 780.9902902714329 338.6 L 781.813694092529 336.6 L 782.637097913625 339.1 L 783.4605017347211 338.8 L 784.2839055558172 330.4 L 785.1073093769133 339.1 L 785.9307131980094 339.5 L 786.7541170191055 333.1 L 787.5775208402016 337.4 L 788.4009246612977 339.5 L 789.2243284823937 338.8 L 790.0477323034899 328 L 790.871136124586 336.6 L 791.6945399456821 339.5 L 792.5179437667781 338.3 L 793.3413475878742 336.7 L 794.1647514089703 339.4 L 794.9881552300665 339.5 L 795.8115590511625 296.5 L 796.6349628722586 205.1 L 797.4583666933547 275.2 L 798.2817705144507 338.9 L 799.1051743355468 339.1 L 799.928578156643 339.1 L 800.7519819777391 335.7 L 801.5753857988351 339.3 L 802.3987896199312 337.2 L 803.2221934410273 339.4 L 804.0455972621235 339.5 L 804.8690010832195 331.9 L 805.6924049043156 339.1 L 806.5158087254117 338.3 L 807.3392125465078 338.5 L 808.1626163676038 339.3 L 808.9860201887 338.4 L 809.8094240097961 339.5 L 810.6328278308922 338.6 L 811.4562316519882 336.1 L 812.2796354730843 338.6 L 813.1030392941805 339.4 L 813.9264431152766 336.1 L 814.7498469363726 339.5 L 815.5732507574687 339.5 L 816.3966545785648 339.5 L 817.220058399661 337 L 818.043462220757 339.5 L 818.8668660418531 339.5 L 819.6902698629492 331 L 820.5136736840453 338.7 L 821.3370775051413 339.5 L 822.1604813262375 339.4 L 822.9838851473336 339.4 L 823.8072889684297 339.5 L 824.6306927895257 339.6 L 825.4540966106218 339.5 L 826.277500431718 339.4 L 827.1009042528141 339.5 L 827.9243080739101 338.7 L 828.7477118950062 339.5 L 829.5711157161023 337.7 L 830.3945195371984 339.5 L 831.2179233582945 338.1 L 832.0413271793906 332.6 L 832.8647310004867 339.6 L 833.6881348215827 299.2 L 834.5115386426788 332 L 835.334942463775 337.6 L 836.1583462848711 335.6 L 836.9817501059671 339.2 L 837.8051539270632 339.1 L 838.6285577481593 334.6 L 839.4519615692554 339.5 L 840.2753653903515 339.5 L 841.0987692114476 336.4 L 841.9221730325437 337.8 L 842.7455768536398 338.2 L 843.5689806747358 338.6 L 844.392384495832 339.5 L 845.2157883169281 339.5 L 846.0391921380242 339.6 L 846.8625959591202 339.5 L 847.6859997802163 339.5 L 848.5094036013124 338.3 L 849.3328074224086 336.3 L 850.1562112435046 339.6 L 850.9796150646007 339.3 L 851.8030188856968 338.8 L 852.6264227067929 339.5 L 853.449826527889 339.5 L 854.2732303489851 337.7 L 855.0966341700812 339.6 L 855.9200379911773 338.1 L 856.7434418122733 334.3 L 857.5668456333694 339.5 L 858.3902494544656 338.4 L 859.2136532755617 330.5 L 860.0370570966577 338.8 L 860.8604609177538 339.6 L 861.6838647388499 339.5 L 862.507268559946 339.5 L 863.3306723810421 339.6 L 864.1540762021382 331.9 L 864.9774800232343 339.6 L 865.8008838443304 339.5 L 866.6242876654264 337.8 L 867.4476914865226 338.7 L 868.2710953076187 335 L 869.0944991287147 339.4 L 869.9179029498108 339.5 L 870.7413067709069 339.5 L 871.564710592003 339.6 L 872.3881144130991 337.5 L 873.2115182341952 339.6 L 874.0349220552913 339.6 L 874.8583258763874 338.6 L 875.6817296974834 339.5 L 876.5051335185796 339.5 L 877.3285373396757 339.6 L 878.1519411607718 339.5 L 878.9753449818678 338.3 L 879.7987488029639 339.4 L 880.62215262406 338.8 L 881.4455564451562 338.4 L 882.2689602662522 338.6 L 883.0923640873483 337.3 L 883.9157679084444 334.8 L 884.7391717295405 338.3 L 885.5625755506366 339.5 L 886.3859793717327 339.5 L 887.2093831928288 339.5 L 888.0327870139249 337.1 L 888.8561908350209 316.3 L 889.679594656117 284.5 L 890.5029984772132 316.7 L 891.3264022983093 338.7 L 892.1498061194053 339.5 L 892.9732099405014 339.4 L 893.7966137615975 339.5 L 894.6200175826937 339.5 L 895.4434214037897 336.9 L 896.2668252248858 339.5 L 897.0902290459819 339.5 L 897.913632867078 339.1 L 898.737036688174 339.5 L 899.5604405092702 335.5 L 900.3838443303663 339.5 L 901.2072481514624 339.5 L 902.0306519725584 339.6 L 902.8540557936545 339.5 L 903.6774596147507 338.9 L 904.5008634358467 339.6 L 905.3242672569428 338.1 L 906.1476710780389 338.6 L 906.971074899135 339.5 L 907.794478720231 337.8 L 908.6178825413272 339.5 L 909.4412863624233 338.5 L 910.2646901835194 339.5 L 911.0880940046154 335.5 L 911.9114978257115 339.4 L 912.7349016468077 329.3 L 913.5583054679038 337.8 L 914.3817092889998 339.4 L 915.2051131100959 339.6 L 916.028516931192 338.3 L 916.8519207522882 339.6 L 917.6753245733842 339.5 L 918.4987283944803 339.5 L 919.3221322155764 259.3 L 920.1455360366725 189.9 L 920.9689398577685 216.2 L 921.7923436788647 242 L 922.6157474999608 225 L 923.4391513210569 181.7 L 924.2625551421529 266.5 L 925.085958963249 309.5 L 925.9093627843451 308.9 L 926.7327666054413 313.1 L 927.5561704265373 310.9 L 928.3795742476334 312.7 L 929.2029780687295 309.5 L 930.0263818898256 313 L 930.8497857109217 312.7 L 931.6731895320178 314 L 932.4965933531139 312.8 L 933.31999717421 313 L 934.143400995306 312.2 L 934.9668048164021 311.4 L 935.7902086374983 313.2 L 936.6136124585943 313.9 L 937.4370162796904 312.8 L 938.2604201007865 309.4 L 939.0838239218826 313.9 L 939.9072277429786 314.1 L 940.7306315640748 311.4 L 941.5540353851709 254.7 L 942.377439206267 320 L 943.200843027363 307.5 L 944.0242468484591 342.4 L 944.8476506695553 344.5 L 945.6710544906514 345.2 L 946.4944583117474 345.1 L 947.3178621328435 345.2 L 948.1412659539396 345.2 L 948.9646697750358 345.2 L 949.7880735961318 345.2 L 950.6114774172279 345.2 L 951.434881238324 345.1 L 952.2582850594201 344.7 L 953.0816888805161 345.1 L 953.9050927016123 345.1 L 954.7284965227084 343.9 L 955.5519003438045 345.3 L 956.3753041649005 345.1 L 957.1987079859966 345.2 L 958.0221118070928 345.2 L 958.8455156281889 345.1 L 959.6689194492849 345.2 L 960.492323270381 344.5 L 961.3157270914771 345.1 L 962.1391309125733 345.2 L 962.9625347336693 345.2 L 963.7859385547654 345.1 L 964.6093423758615 345.2 L 965.4327461969576 345.2 L 966.2561500180536 345.1 L 967.0795538391498 350.3 L 967.9029576602459 350.8 L 968.726361481342 350.8 L 969.549765302438 350.8 L 970.3731691235341 350.8 L 971.1965729446302 350.8 L 972.0199767657263 350.8 L 972.8433805868224 350.8 L 973.6667844079185 350.9 L 974.4901882290146 350.8 L 975.3135920501106 350.8 L 976.1369958712068 350.1 L 976.9603996923029 350.8 L 977.783803513399 350.8 L 978.607207334495 350.8 L 979.4306111555911 349.6 L 980.2540149766872 350.8 L 981.0774187977834 350.9 L 981.9008226188794 350.8 L 982.7242264399755 350.8 L 983.5476302610716 349.1 L 984.3710340821677 350.4 L 985.1944379032637 350.8 L 986.0178417243599 350.8 L 986.841245545456 350.8 L 987.6646493665521 350.8 L 988.4880531876481 350.8 L 989.3114570087442 350.7 L 990.1348608298404 350.7 L 990.9582646509365 350.9 L 991.7816684720325 350.1 L 992.6050722931286 350.7 L 993.4284761142247 350.9 L 994.2518799353209 350.9 L 995.0752837564169 350.8 L 995.898687577513 350.8 L 996.7220913986091 350.9 L 997.5454952197052 350.8 L 998.3688990408012 350.8 L 999.1923028618974 350.2 L 1000.0157066829935 350.8 L 1000.8391105040896 350.9 L 1001.6625143251856 350.9 L 1002.4859181462817 350.8 L 1003.3093219673779 350.3 L 1004.132725788474 350 L 1004.95612960957 350.8 L 1005.7795334306661 350.7 L 1006.6029372517622 350.7 L 1007.4263410728582 350.6 L 1008.2497448939544 350.7 L 1009.0731487150505 350.9 L 1009.8965525361466 350.8 L 1010.7199563572426 350.8 L 1011.5433601783387 350.8 L 1012.3667639994349 350.8 L 1013.190167820531 350.9 L 1014.013571641627 350.8 L 1014.8369754627231 350 L 1015.6603792838192 350.8 L 1016.4837831049153 350.9 L 1017.3071869260114 350.7 L 1018.1305907471075 350.9 L 1018.9539945682036 350.8 L 1019.7773983892997 350.8 L 1020.6008022103957 350.8 L 1021.4242060314918 350.8 L 1022.247609852588 350 L 1023.0710136736841 350.8 L 1023.8944174947801 350.8 L 1024.7178213158763 350.9 L 1025.5412251369723 350.7 L 1026.3646289580684 350.9 L 1027.1880327791646 350.9 L 1028.0114366002606 349.4 L 1028.8348404213566 350.8 L 1029.6582442424528 350.9 L 1030.4816480635488 350 L 1031.305051884645 350.9 L 1032.128455705741 350.8 L 1032.951859526837 350.8 L 1033.7752633479333 350.9 L 1034.5986671690293 350.8 L 1035.4220709901253 350.8 L 1036.2454748112216 350.8 L 1037.0688786323176 350.9 L 1037.8922824534138 350.5 L 1038.7156862745098 350.9 L 1048.7156862745098 350.9" class="highcharts-tracker highcharts-tracker" stroke-linejoin="round" visibility="visible" stroke-opacity="0.0001" stroke="rgb(192,192,192)" stroke-width="21" zIndex="2" style=""></path></g></g><g class="highcharts-axis-labels" zIndex="7"><text x="70.2843137254902" y="386" style="font-family:&quot;Lucida Grande&quot;, &quot;Lucida Sans Unicode&quot;, Verdana, Arial, Helvetica, sans-serif;font-size:11px;color:#666;cursor:default;line-height:14px;fill:#666;" text-anchor="middle" opacity="1"><tspan x="70.2843137254902">0</tspan></text><text x="152.62469583509943" y="386" style="font-family:&quot;Lucida Grande&quot;, &quot;Lucida Sans Unicode&quot;, Verdana, Arial, Helvetica, sans-serif;font-size:11px;color:#666;cursor:default;line-height:14px;fill:#666;" text-anchor="middle" opacity="1"><tspan x="152.62469583509943">3 000</tspan></text><text x="234.96507794470872" y="386" style="font-family:&quot;Lucida Grande&quot;, &quot;Lucida Sans Unicode&quot;, Verdana, Arial, Helvetica, sans-serif;font-size:11px;color:#666;cursor:default;line-height:14px;fill:#666;" text-anchor="middle" opacity="1"><tspan x="234.96507794470872">6 000</tspan></text><text x="317.30546005431796" y="386" style="font-family:&quot;Lucida Grande&quot;, &quot;Lucida Sans Unicode&quot;, Verdana, Arial, Helvetica, sans-serif;font-size:11px;color:#666;cursor:default;line-height:14px;fill:#666;" text-anchor="middle" opacity="1"><tspan x="317.30546005431796">9 000</tspan></text><text x="399.6458421639272" y="386" style="font-family:&quot;Lucida Grande&quot;, &quot;Lucida Sans Unicode&quot;, Verdana, Arial, Helvetica, sans-serif;font-size:11px;color:#666;cursor:default;line-height:14px;fill:#666;" text-anchor="middle" opacity="1"><tspan x="399.6458421639272">12 000</tspan></text><text x="481.9862242735365" y="386" style="font-family:&quot;Lucida Grande&quot;, &quot;Lucida Sans Unicode&quot;, Verdana, Arial, Helvetica, sans-serif;font-size:11px;color:#666;cursor:default;line-height:14px;fill:#666;" text-anchor="middle" opacity="1"><tspan x="481.9862242735365">15000</tspan></text><text x="564.3266063831458" y="386" style="font-family:&quot;Lucida Grande&quot;, &quot;Lucida Sans Unicode&quot;, Verdana, Arial, Helvetica, sans-serif;font-size:11px;color:#666;cursor:default;line-height:14px;fill:#666;" text-anchor="middle" opacity="1"><tspan x="564.3266063831458">18000</tspan></text><text x="646.666988492755" y="386" style="font-family:&quot;Lucida Grande&quot;, &quot;Lucida Sans Unicode&quot;, Verdana, Arial, Helvetica, sans-serif;font-size:11px;color:#666;cursor:default;line-height:14px;fill:#666;" text-anchor="middle" opacity="1"><tspan x="646.666988492755">21000</tspan></text><text x="729.0073706023643" y="386" style="font-family:&quot;Lucida Grande&quot;, &quot;Lucida Sans Unicode&quot;, Verdana, Arial, Helvetica, sans-serif;font-size:11px;color:#666;cursor:default;line-height:14px;fill:#666;" text-anchor="middle" opacity="1"><tspan x="729.0073706023643">24000</tspan></text><text x="811.3477527119735" y="386" style="font-family:&quot;Lucida Grande&quot;, &quot;Lucida Sans Unicode&quot;, Verdana, Arial, Helvetica, sans-serif;font-size:11px;color:#666;cursor:default;line-height:14px;fill:#666;" text-anchor="middle" opacity="1"><tspan x="811.3477527119735">27000</tspan></text><text x="893.6881348215827" y="386" style="font-family:&quot;Lucida Grande&quot;, &quot;Lucida Sans Unicode&quot;, Verdana, Arial, Helvetica, sans-serif;font-size:11px;color:#666;cursor:default;line-height:14px;fill:#666;" text-anchor="middle" opacity="1"><tspan x="893.6881348215827">30000</tspan></text><text x="976.028516931192" y="386" style="font-family:&quot;Lucida Grande&quot;, &quot;Lucida Sans Unicode&quot;, Verdana, Arial, Helvetica, sans-serif;font-size:11px;color:#666;cursor:default;line-height:14px;fill:#666;" text-anchor="middle" opacity="1"><tspan x="976.028516931192">33 000</tspan></text><text x="1058.3688990408014" y="386" style="font-family:&quot;Lucida Grande&quot;, &quot;Lucida Sans Unicode&quot;, Verdana, Arial, Helvetica, sans-serif;font-size:11px;color:#666;cursor:default;line-height:14px;fill:#666;" text-anchor="middle" opacity="1"><tspan x="1058.3688990408014">36 000</tspan></text></g><g class="highcharts-axis-labels" zIndex="7"><text x="52" y="378.115625" style="font-family:&quot;Lucida Grande&quot;, &quot;Lucida Sans Unicode&quot;, Verdana, Arial, Helvetica, sans-serif;font-size:11px;width:505px;color:#666;cursor:default;line-height:14px;fill:#666;" text-anchor="end" opacity="1"><tspan x="52">0</tspan></text><text x="52" y="317.78229166666665" style="font-family:&quot;Lucida Grande&quot;, &quot;Lucida Sans Unicode&quot;, Verdana, Arial, Helvetica, sans-serif;font-size:11px;width:505px;color:#666;cursor:default;line-height:14px;fill:#666;" text-anchor="end" opacity="1"><tspan x="52">0.1</tspan></text><text x="52" y="257.44895833333334" style="font-family:&quot;Lucida Grande&quot;, &quot;Lucida Sans Unicode&quot;, Verdana, Arial, Helvetica, sans-serif;font-size:11px;width:505px;color:#666;cursor:default;line-height:14px;fill:#666;" text-anchor="end" opacity="1"><tspan x="52">0.2</tspan></text><text x="52" y="197.115625" style="font-family:&quot;Lucida Grande&quot;, &quot;Lucida Sans Unicode&quot;, Verdana, Arial, Helvetica, sans-serif;font-size:11px;width:505px;color:#666;cursor:default;line-height:14px;fill:#666;" text-anchor="end" opacity="1"><tspan x="52">0.3</tspan></text><text x="52" y="136.78229166666662" style="font-family:&quot;Lucida Grande&quot;, &quot;Lucida Sans Unicode&quot;, Verdana, Arial, Helvetica, sans-serif;font-size:11px;width:505px;color:#666;cursor:default;line-height:14px;fill:#666;" text-anchor="end" opacity="1"><tspan x="52">0.4</tspan></text><text x="52" y="76.44895833333331" style="font-family:&quot;Lucida Grande&quot;, &quot;Lucida Sans Unicode&quot;, Verdana, Arial, Helvetica, sans-serif;font-size:11px;width:505px;color:#666;cursor:default;line-height:14px;fill:#666;" text-anchor="end" opacity="1"><tspan x="52">0.5</tspan></text><text x="52" y="16.115625" style="font-family:&quot;Lucida Grande&quot;, &quot;Lucida Sans Unicode&quot;, Verdana, Arial, Helvetica, sans-serif;font-size:11px;width:505px;color:#666;cursor:default;line-height:14px;fill:#666;" text-anchor="end" opacity="1"><tspan x="52">0.6</tspan></text></g><g class="highcharts-tooltip" zIndex="8" style="cursor:default;padding:0;white-space:nowrap;" visibility="hidden" transform="translate(347,251)" opacity="0"><rect rx="3" ry="3" fill="none" x="0.5" y="0.5" width="349" height="44.203125" fill-opacity="0.85" isShadow="true" stroke="black" stroke-opacity="0.049999999999999996" stroke-width="5" transform="translate(1, 1)"></rect><rect rx="3" ry="3" fill="none" x="0.5" y="0.5" width="349" height="44.203125" fill-opacity="0.85" isShadow="true" stroke="black" stroke-opacity="0.09999999999999999" stroke-width="3" transform="translate(1, 1)"></rect><rect rx="3" ry="3" fill="none" x="0.5" y="0.5" width="349" height="44.203125" fill-opacity="0.85" isShadow="true" stroke="black" stroke-opacity="0.15" stroke-width="1" transform="translate(1, 1)"></rect><rect rx="3" ry="3" fill="rgb(255,255,255)" x="0.5" y="0.5" width="349" height="44.203125" fill-opacity="0.85" stroke="#492970" stroke-width="1" anchorX="-11.188635952228879" anchorY="28.543944023964343"></rect><text x="8" y="21" style="font-family:&quot;Lucida Grande&quot;, &quot;Lucida Sans Unicode&quot;, Verdana, Arial, Helvetica, sans-serif;font-size:12px;color:#333333;fill:#333333;" zIndex="1"><tspan style="font-size: 10px" x="8">321</tspan><tspan style="fill:#492970" x="8" dy="16">WiFiOff clickToPowerOffBtnOpt</tspan><tspan dx="0">: </tspan><tspan style="font-weight:bold" dx="0">0.15362274611530732</tspan></text></g><text x="1109" y="395" style="font-family:&quot;Lucida Grande&quot;, &quot;Lucida Sans Unicode&quot;, Verdana, Arial, Helvetica, sans-serif;font-size:9px;cursor:pointer;color:#909090;fill:#909090;" text-anchor="end" zIndex="8"><tspan x="1109">Highcharts.com</tspan></text></svg>