<?xml version="1.0" encoding="UTF-8" standalone="no"?>
<svg width="1121px" height="409px" viewBox="0 0 1121 409" version="1.1" xmlns="http://www.w3.org/2000/svg" xmlns:xlink="http://www.w3.org/1999/xlink" xmlns:sketch="http://www.bohemiancoding.com/sketch/ns">
    <!-- Generator: Sketch 3.1.1 (8761) - http://www.bohemiancoding.com/sketch -->
    <title>Untitled 3</title>
    <desc>Created with Sketch.</desc>
    <defs>
        <rect id="path-1" x="0" y="0" width="1049" height="361"></rect>
    </defs>
    <g id="Page-1" stroke="none" stroke-width="1" fill="none" fill-rule="evenodd" sketch:type="MSPage">
        <g id="clickToPowerButton" sketch:type="MSLayerGroup" transform="translate(1.000000, -197.000000)">
            <rect id="Rectangle-path" fill="#FFFFFF" sketch:type="MSShapeGroup" x="0" y="205" width="1119" height="400" rx="5"></rect>
            <g id="Group" transform="translate(60.000000, 216.000000)" stroke="#C0C0C0" sketch:type="MSShapeGroup">
                <path d="M0,301.5 L1049,301.5" id="Shape"></path>
                <path d="M0,240.5 L1049,240.5" id="Shape"></path>
                <path d="M0,180.5 L1049,180.5" id="Shape"></path>
                <path d="M0,120.5 L1049,120.5" id="Shape"></path>
                <path d="M0,59.5 L1049,59.5" id="Shape"></path>
                <path d="M0,-0.5 L1049,-0.5" id="Shape"></path>
                <path d="M0,360.5 L1049,360.5" id="Shape"></path>
            </g>
            <g id="Group" transform="translate(60.000000, 577.000000)" stroke="#C0D0E0" sketch:type="MSShapeGroup">
                <path d="M92.5,0 L92.5,5" id="Shape"></path>
                <path d="M174.5,0 L174.5,5" id="Shape"></path>
                <path d="M256.5,0 L256.5,5" id="Shape"></path>
                <path d="M339.5,0 L339.5,5" id="Shape"></path>
                <path d="M421.5,0 L421.5,5" id="Shape"></path>
                <path d="M503.5,0 L503.5,5" id="Shape"></path>
                <path d="M586.5,0 L586.5,5" id="Shape"></path>
                <path d="M668.5,0 L668.5,5" id="Shape"></path>
                <path d="M750.5,0 L750.5,5" id="Shape"></path>
                <path d="M833.5,0 L833.5,5" id="Shape"></path>
                <path d="M915.5,0 L915.5,5" id="Shape"></path>
                <path d="M997.5,0 L997.5,5" id="Shape"></path>
                <path d="M9.5,0 L9.5,5" id="Shape"></path>
                <path d="M0,-0.5 L1049,-0.5" id="Shape"></path>
            </g>
            <g id="Group" transform="translate(7.000000, 397.406250) rotate(270.000000) translate(-7.000000, -397.406250) translate(-21.000000, 390.406250)" font-size="12" font-family="Helvetica" fill="#4D759E" sketch:type="MSTextLayer" font-weight="normal">
                <text id="Amperage">
                    <tspan x="-0.40625" y="11" fill="#000000">Amperage</tspan>
                </text>
            </g>
            <g id="Group">
                <g id="Clipped" transform="translate(0.000000, 205.000000)">
                    <mask id="mask-2" sketch:name="Rectangle-path" fill="white">
                        <use xlink:href="#path-1"></use>
                    </mask>
                    <g id="Rectangle-path"></g>
                    <g id="Group" mask="url(#mask-2)" stroke="#4990E2" stroke-width="5" sketch:type="MSShapeGroup" stroke-linecap="round" stroke-linejoin="round">
                        <g transform="translate(70.000000, -205.000000)" id="Shape">
                            <path d="M0.284313725,495.1 L1.10771755,500.5 L1.93112137,492.6 L2.75452519,500.7 L3.57792901,499.7 L4.40133283,496.4 L5.22473665,502.6 L6.04814047,493.2 L6.87154429,498.9 L7.69494812,494.5 L8.51835194,495.2 L9.34175576,502.4 L10.1651596,498.7 L10.9885634,498.9 L11.8119672,502.8 L12.635371,494.6 L13.4587749,499.3 L14.2821787,502.1 L15.1055825,465.3 L15.9289863,428.5 L16.7523901,491.4 L17.575794,499.3 L18.3991978,496.3 L19.2226016,458 L20.0460054,401.1 L20.8694093,434.5 L21.6928131,417.4 L22.5162169,382.6 L23.3396207,388.5 L24.1630245,381 L24.9864284,411.8 L25.8098322,417.6 L26.633236,384.2 L27.4566398,406.6 L28.2800436,381.7 L29.1034475,386.3 L29.9268513,406.1 L30.7502551,425.7 L31.5736589,474.5 L32.3970627,375.5 L33.2204666,21.1 L34.0438704,115.7 L34.8672742,7.1 L35.690678,1.6 L36.5140819,0 L37.3374857,2.4 L38.1608895,2.4 L38.9842933,2.1 L39.8076971,5.6 L40.631101,10.6 L41.4545048,101.1 L42.2779086,80.4 L43.1013124,143.5 L43.9247162,269.1 L44.7481201,252.9 L45.5715239,203.9 L46.3949277,291.9 L47.2183315,369.6 L48.0417353,544.5 L48.8651392,543.9 L49.688543,411.9 L50.5119468,340.3 L51.3353506,384.6 L52.1587545,501 L52.9821583,545.8 L53.8055621,543.4 L54.6289659,553.5 L55.4523697,553.5 L56.2757736,550.5 L57.0991774,550 L57.9225812,461.2 L58.745985,451.6 L59.5693888,442.9 L60.3927927,430.2 L61.2161965,552.4 L62.0396003,551.1 L62.8630041,551.8 L63.6864079,551.9 L64.5098118,554.1 L65.3332156,551.5 L66.1566194,530.7 L66.9800232,458.8 L67.8034271,435.9 L68.6268309,461.1 L69.4502347,420 L70.2736385,516.2 L71.0970423,548.7 L71.9204462,547.6 L72.74385,531.1 L73.5672538,553.8 L74.3906576,549.7 L75.2140614,549.5 L76.0374653,513 L76.8608691,544.6 L77.6842729,553.6 L78.5076767,543.5 L79.3310806,542.4 L80.1544844,552.4 L80.9778882,548.8 L81.801292,547.8 L82.6246958,554.2 L83.4480997,552.9 L84.2715035,553.9 L85.0949073,496.7 L85.9183111,554.1 L86.7417149,554.2 L87.5651188,549.1 L88.3885226,553.8 L89.2119264,554.3 L90.0353302,554.1 L90.858734,554.1 L91.6821379,551.8 L92.5055417,552.2 L93.3289455,552 L94.1523493,554.3 L94.9757532,554.2 L95.799157,553 L96.6225608,546.3 L97.4459646,552.4 L98.2693684,554.2 L99.0927723,553.5 L99.9161761,542.8 L100.73958,554.2 L101.562984,554.2 L102.386388,552.1 L103.209791,553 L104.033195,552.8 L104.856599,554.3 L105.680003,552.2 L106.503407,552.8 L107.32681,553.5 L108.150214,551.7 L108.973618,553.9 L109.797022,553.1 L110.620426,554.3 L111.44383,552.2 L112.267233,554.2 L113.090637,548.1 L113.914041,554.2 L114.737445,546.1 L115.560849,548.2 L116.384253,554.2 L117.207656,552.1 L118.03106,511 L118.854464,474.6 L119.677868,551.3 L120.501272,553.7 L121.324675,551.4 L122.148079,554.3 L122.971483,545.7 L123.794887,552.3 L124.618291,546.6 L125.441695,554.2 L126.265098,551.5 L127.088502,552.4 L127.911906,553.1 L128.73531,553 L129.558714,554.3 L130.382117,552.1 L131.205521,552.6 L132.028925,554.4 L132.852329,551.5 L133.675733,550.5 L134.499137,553 L135.32254,554.4 L136.145944,552.2 L136.969348,554.3 L137.792752,554.4 L138.616156,551.1 L139.439559,537.8 L140.262963,499.1 L141.086367,519 L141.909771,551.7 L142.733175,545.4 L143.556579,554.3 L144.379982,554.3 L145.203386,547 L146.02679,554.2 L146.850194,553.4 L147.673598,551.7 L148.497002,552.9 L149.320405,554.3 L150.143809,554.2 L150.967213,551.8 L151.790617,549.6 L152.614021,553 L153.437424,550.6 L154.260828,552.3 L155.084232,554.2 L155.907636,553.4 L156.73104,550.2 L157.554444,552.1 L158.377847,554.3 L159.201251,553.1 L160.024655,552.6 L160.848059,554.5 L161.671463,554.4 L162.494866,544.5 L163.31827,552.7 L164.141674,542.8 L164.965078,553.2 L165.788482,553.9 L166.611886,554.3 L167.435289,554 L168.258693,554.3 L169.082097,551.6 L169.905501,552 L170.728905,552.5 L171.552309,554.3 L172.375712,552.2 L173.199116,554.4 L174.02252,554.3 L174.845924,549.6 L175.669328,522.9 L176.492731,551.8 L177.316135,554.1 L178.139539,549.7 L178.962943,552.8 L179.786347,549.8 L180.609751,550.7 L181.433154,553.3 L182.256558,554.4 L183.079962,553.5 L183.903366,552.3 L184.72677,550.1 L185.550173,554.3 L186.373577,554.3 L187.196981,552.3 L188.020385,554.3 L188.843789,554.4 L189.667193,552.5 L190.490596,554.1 L191.314,554.4 L192.137404,554.4 L192.960808,552.7 L193.784212,553.6 L194.607616,554.4 L195.431019,553.5 L196.254423,552.2 L197.077827,541.8 L197.901231,554.3 L198.724635,552.8 L199.548038,554.4 L200.371442,554.4 L201.194846,554.4 L202.01825,551.4 L202.841654,553.2 L203.665058,520.7 L204.488461,535.9 L205.311865,553.7 L206.135269,553.2 L206.958673,554.3 L207.782077,539.5 L208.60548,554.3 L209.428884,553 L210.252288,507.4 L211.075692,421.5 L211.899096,423.3 L212.7225,425.6 L213.545903,459.3 L214.369307,466.8 L215.192711,463.5 L216.016115,461.4 L216.839519,460.4 L217.662922,459.3 L218.486326,461.4 L219.30973,462.3 L220.133134,462.7 L220.956538,462.1 L221.779942,461.9 L222.603345,474.3 L223.426749,445.4 L224.250153,469.8 L225.073557,475.4 L225.896961,475.8 L226.720365,476 L227.543768,478.9 L228.367172,476.3 L229.190576,477 L230.01398,471.8 L230.837384,471.4 L231.660787,468.6 L232.484191,417.8 L233.307595,437.5 L234.130999,455.1 L234.954403,449.2 L235.777807,457.6 L236.60121,452.5 L237.424614,445.5 L238.248018,453.5 L239.071422,491.8 L239.894826,552.7 L240.718229,553.1 L241.541633,554.1 L242.365037,550.7 L243.188441,553.7 L244.011845,554.2 L244.835249,550.2 L245.658652,543.6 L246.482056,554.2 L247.30546,553.7 L248.128864,552.2 L248.952268,553.3 L249.775672,554.4 L250.599075,553.2 L251.422479,552.3 L252.245883,553.7 L253.069287,552.8 L253.892691,551.6 L254.716094,554.4 L255.539498,552.7 L256.362902,553.4 L257.186306,551.6 L258.00971,554.3 L258.833114,552.8 L259.656517,552.9 L260.479921,554.3 L261.303325,552.6 L262.126729,551 L262.950133,551.5 L263.773536,522.4 L264.59694,484.3 L265.420344,544.6 L266.243748,552 L267.067152,554.3 L267.890556,554.3 L268.713959,547.3 L269.537363,552.4 L270.360767,554.4 L271.184171,554.4 L272.007575,551.3 L272.830979,554.3 L273.654382,554.4 L274.477786,553.5 L275.30119,553.1 L276.124594,554.5 L276.947998,552.6 L277.771401,546.7 L278.594805,553.5 L279.418209,550.7 L280.241613,525.1 L281.065017,552.2 L281.888421,551.8 L282.711824,554.4 L283.535228,547.7 L284.358632,466.2 L285.182036,542.1 L286.00544,552.7 L286.828843,549.7 L287.652247,542 L288.475651,550.2 L289.299055,551.5 L290.122459,554.3 L290.945863,554.3 L291.769266,554.4 L292.59267,551.6 L293.416074,554.3 L294.239478,552.1 L295.062882,554.4 L295.886285,550.7 L296.709689,550.9 L297.533093,554.3 L298.356497,552.2 L299.179901,552.5 L300.003305,554.4 L300.826708,554.3 L301.650112,551 L302.473516,552.9 L303.29692,553.5 L304.120324,553.3 L304.943728,549.4 L305.767131,554.3 L306.590535,552.8 L307.413939,551.7 L308.237343,552.9 L309.060747,554.4 L309.88415,554.4 L310.707554,551.6 L311.530958,553.4 L312.354362,554.4 L313.177766,551.8 L314.00117,553.2 L314.824573,554.4 L315.647977,554.4 L316.471381,548 L317.294785,554.4 L318.118189,554.4 L318.941592,552.1 L319.764996,554.1 L320.5884,554.4 L321.411804,554.5 L322.235208,552.3 L323.058612,554.4 L323.882015,554.4 L324.705419,538 L325.528823,551 L326.352227,552.8 L327.175631,549.2 L327.999035,552 L328.822438,550.6 L329.645842,551.1 L330.469246,554.4 L331.29265,552.3 L332.116054,549.9 L332.939457,539.3 L333.762861,552.6 L334.586265,553.6 L335.409669,554.2 L336.233073,554.4 L337.056477,551.8 L337.87988,554.3 L338.703284,553.2 L339.526688,554.4 L340.350092,552.2 L341.173496,554.4 L341.996899,554.5 L342.820303,550.9 L343.643707,551.1 L344.467111,553 L345.290515,554.4 L346.113919,552.5 L346.937322,554.5 L347.760726,554.4 L348.58413,553.3 L349.407534,553.4 L350.230938,553.8 L351.054342,544.3 L351.877745,552.3 L352.701149,553 L353.524553,554.4 L354.347957,552.7 L355.171361,552.8 L355.994764,553.4 L356.818168,554.3 L357.641572,552.7 L358.464976,552.3 L359.28838,550.7 L360.111784,554.3 L360.935187,554.1 L361.758591,554.4 L362.581995,550.8 L363.405399,554.3 L364.228803,552.7 L365.052206,554.3 L365.87561,554.4 L366.699014,551.1 L367.522418,554.4 L368.345822,554.4 L369.169226,554.5 L369.992629,551.6 L370.816033,553 L371.639437,552.4 L372.462841,553.7 L373.286245,553 L374.109649,553.7 L374.933052,554.3 L375.756456,550.1 L376.57986,554.3 L377.403264,553 L378.226668,554.5 L379.050071,551.2 L379.873475,554.4 L380.696879,553.4 L381.520283,527.4 L382.343687,553.2 L383.167091,552 L383.990494,554.2 L384.813898,551.3 L385.637302,550.5 L386.460706,550 L387.28411,520.3 L388.107513,487.9 L388.930917,553.9 L389.754321,553.5 L390.577725,552.7 L391.401129,554.4 L392.224533,554.4 L393.047936,554.1 L393.87134,552 L394.694744,554.4 L395.518148,554.4 L396.341552,552 L397.164955,553.5 L397.988359,551.3 L398.811763,554.3 L399.635167,551.7 L400.458571,552.6 L401.281975,554.4 L402.105378,551.4 L402.928782,553.5 L403.752186,553.2 L404.57559,554.4 L405.398994,551 L406.222398,554.3 L407.045801,552.8 L407.869205,552.2 L408.692609,551.7 L409.516013,554.4 L410.339417,554.4 L411.16282,540.2 L411.986224,554.4 L412.809628,552.1 L413.633032,530.7 L414.456436,551.6 L415.27984,554.4 L416.103243,485.9 L416.926647,466.7 L417.750051,449.1 L418.573455,515.1 L419.396859,554.1 L420.220262,530.2 L421.043666,540.1 L421.86707,552.8 L422.690474,550.5 L423.513878,549.7 L424.337282,553 L425.160685,551.1 L425.984089,551.8 L426.807493,553 L427.630897,554.4 L428.454301,552.2 L429.277705,552.3 L430.101108,553.4 L430.924512,554.3 L431.747916,550.8 L432.57132,554.4 L433.394724,554.3 L434.218127,554.4 L435.041531,552.8 L435.864935,554.3 L436.688339,553.6 L437.511743,551.7 L438.335147,554 L439.15855,554.4 L439.981954,554.4 L440.805358,548.4 L441.628762,554.3 L442.452166,554.4 L443.275569,554.4 L444.098973,552.5 L444.922377,553.3 L445.745781,554.5 L446.569185,552.4 L447.392589,554.2 L448.215992,554.4 L449.039396,554.4 L449.8628,550.6 L450.686204,554.4 L451.509608,553.1 L452.333012,551.6 L453.156415,552.5 L453.979819,554.3 L454.803223,553.5 L455.626627,552.4 L456.450031,554.4 L457.273434,554.4 L458.096838,554.5 L458.920242,553.1 L459.743646,553.4 L460.56705,554.3 L461.390454,552.8 L462.213857,552.8 L463.037261,554.4 L463.860665,554.5 L464.684069,552.3 L465.507473,554.4 L466.330876,554.4 L467.15428,553.7 L467.977684,548.6 L468.801088,554.4 L469.624492,554.4 L470.447896,551.9 L471.271299,554.4 L472.094703,554.4 L472.918107,554.4 L473.741511,546.4 L474.564915,553.7 L475.388318,549.3 L476.211722,548.1 L477.035126,554.5 L477.85853,539.5 L478.681934,554.4 L479.505338,549.4 L480.328741,554.3 L481.152145,553.1 L481.975549,552.6 L482.798953,554.4 L483.622357,554.1 L484.445761,554.5 L485.269164,546.5 L486.092568,554.4 L486.915972,552.9 L487.739376,554.5 L488.56278,536.8 L489.386183,515.6 L490.209587,518 L491.032991,515.8 L491.856395,513.8 L492.679799,512.3 L493.503203,517 L494.326606,521.8 L495.15001,522.3 L495.973414,523.2 L496.796818,521.8 L497.620222,523.4 L498.443625,540.5 L499.267029,553.4 L500.090433,552.4 L500.913837,553.6 L501.737241,554.4 L502.560645,553.2 L503.384048,552.5 L504.207452,553.6 L505.030856,554.4 L505.85426,551.6 L506.677664,550.4 L507.501068,554.4 L508.324471,554.3 L509.147875,552.4 L509.971279,547.6 L510.794683,497.5 L511.618087,516.8 L512.44149,554.4 L513.264894,554.5 L514.088298,553.7 L514.911702,552.1 L515.735106,554.4 L516.55851,554.5 L517.381913,554.3 L518.205317,549.3 L519.028721,554.4 L519.852125,553 L520.675529,552.8 L521.498932,554.5 L522.322336,550.4 L523.14574,554.5 L523.969144,551.6 L524.792548,554.4 L525.615952,553 L526.439355,550.1 L527.262759,553.3 L528.086163,554.5 L528.909567,553.6 L529.732971,551.8 L530.556375,554 L531.379778,554.5 L532.203182,553.3 L533.026586,553 L533.84999,551.7 L534.673394,550.6 L535.496797,552.3 L536.320201,553.1 L537.143605,554.6 L537.967009,546 L538.790413,552.2 L539.613817,554.5 L540.43722,554.5 L541.260624,551.7 L542.084028,552.4 L542.907432,554.5 L543.730836,550.8 L544.554239,553.2 L545.377643,551.6 L546.201047,554.4 L547.024451,552.4 L547.847855,554.4 L548.671259,553.3 L549.494662,549.8 L550.318066,547.7 L551.14147,554.4 L551.964874,553.9 L552.788278,554.5 L553.611682,551.8 L554.435085,554.4 L555.258489,552.9 L556.081893,551.9 L556.905297,554.5 L557.728701,551.1 L558.552104,554.5 L559.375508,552.4 L560.198912,554.4 L561.022316,550.5 L561.84572,552.2 L562.669124,554.5 L563.492527,554.4 L564.315931,554.5 L565.139335,551.7 L565.962739,554.5 L566.786143,554.5 L567.609546,554.4 L568.43295,552.6 L569.256354,553.6 L570.079758,554.4 L570.903162,552.3 L571.726566,554.5 L572.549969,554.4 L573.373373,554 L574.196777,552.5 L575.020181,553.4 L575.843585,554.5 L576.666988,541 L577.490392,553.9 L578.313796,552.9 L579.1372,554.5 L579.960604,551.4 L580.784008,554.5 L581.607411,554.5 L582.430815,554.4 L583.254219,553.3 L584.077623,554.5 L584.901027,553.6 L585.724431,549.7 L586.547834,550.8 L587.371238,554.3 L588.194642,551.6 L589.018046,552.6 L589.84145,554.4 L590.664853,554.5 L591.488257,552.4 L592.311661,553.6 L593.135065,554.4 L593.958469,554.5 L594.781873,552.4 L595.605276,554.4 L596.42868,554.5 L597.252084,553.6 L598.075488,552.8 L598.898892,554.5 L599.722295,552.9 L600.545699,545.2 L601.369103,552.8 L602.192507,554.5 L603.015911,552.6 L603.839315,549 L604.662718,553.8 L605.486122,554.5 L606.309526,551.8 L607.13293,554.5 L607.956334,553.5 L608.779738,549.4 L609.603141,552.3 L610.426545,552.8 L611.249949,553.2 L612.073353,554.2 L612.896757,553.3 L613.72016,554.5 L614.543564,554.5 L615.366968,549 L616.190372,553.8 L617.013776,554.5 L617.83718,554 L618.660583,552.3 L619.483987,554.5 L620.307391,554.3 L621.130795,552.3 L621.954199,554.5 L622.777602,552.8 L623.601006,553.4 L624.42441,548.5 L625.247814,553.4 L626.071218,554 L626.894622,551.4 L627.718025,554.5 L628.541429,553.4 L629.364833,554.4 L630.188237,548.8 L631.011641,554.4 L631.835045,554.5 L632.658448,552.5 L633.481852,506.5 L634.305256,505.8 L635.12866,552.9 L635.952064,552.1 L636.775467,554.6 L637.598871,554.5 L638.422275,552.1 L639.245679,553.7 L640.069083,554.4 L640.892487,554.4 L641.71589,551.3 L642.539294,554.5 L643.362698,554.5 L644.186102,554.5 L645.009506,552.8 L645.832909,554.4 L646.656313,552.9 L647.479717,551.3 L648.303121,553 L649.126525,554.5 L649.949929,553.2 L650.773332,552.3 L651.596736,554.5 L652.42014,554.4 L653.243544,551.6 L654.066948,553.7 L654.890351,554.5 L655.713755,554.4 L656.537159,552 L657.360563,539.4 L658.183967,554.5 L659.007371,554.4 L659.830774,553.6 L660.654178,554.4 L661.477582,554.5 L662.300986,543.3 L663.12439,553.7 L663.947794,554.5 L664.771197,554.5 L665.594601,550.5 L666.418005,554.5 L667.241409,554.5 L668.064813,552.1 L668.888216,551.2 L669.71162,554.3 L670.535024,553.9 L671.358428,551.2 L672.181832,554.4 L673.005236,553.1 L673.828639,554.4 L674.652043,552.8 L675.475447,554.5 L676.298851,553.4 L677.122255,552.4 L677.945658,552.7 L678.769062,554.5 L679.592466,554.4 L680.41587,552 L681.239274,554.5 L682.062678,554.4 L682.886081,552.5 L683.709485,553.3 L684.532889,549.8 L685.356293,553.7 L686.179697,552.1 L687.003101,554.5 L687.826504,554.5 L688.649908,554.5 L689.473312,554 L690.296716,554.5 L691.12012,554.6 L691.943523,552.3 L692.766927,554.5 L693.590331,553.6 L694.413735,554.4 L695.237139,552 L696.060543,541.5 L696.883946,511 L697.70735,550.7 L698.530754,554.3 L699.354158,552.7 L700.177562,550.8 L701.000965,551 L701.824369,554.5 L702.647773,553.9 L703.471177,552.5 L704.294581,554.5 L705.117985,554.4 L705.941388,554.5 L706.764792,551.7 L707.588196,554.4 L708.4116,553.4 L709.235004,552.1 L710.058408,548.9 L710.881811,554.4 L711.705215,549 L712.528619,552.5 L713.352023,554.5 L714.175427,554.4 L714.99883,554.5 L715.822234,552.5 L716.645638,553.5 L717.469042,554.5 L718.292446,552.4 L719.11585,554.5 L719.939253,554.5 L720.762657,553.2 L721.586061,553.1 L722.409465,551.1 L723.232869,554.2 L724.056272,550.7 L724.879676,544.5 L725.70308,553.9 L726.526484,554.5 L727.349888,551.9 L728.173292,554.4 L728.996695,554.6 L729.820099,554.5 L730.643503,545.8 L731.466907,554.4 L732.290311,554 L733.113715,552.2 L733.937118,554.6 L734.760522,553.4 L735.583926,547.7 L736.40733,553.5 L737.230734,554.5 L738.054137,541.6 L738.877541,550.1 L739.700945,553.7 L740.524349,553.7 L741.347753,554.5 L742.171157,551.9 L742.99456,554.5 L743.817964,554.5 L744.641368,554.5 L745.464772,549.9 L746.288176,554.5 L747.111579,553 L747.934983,551.9 L748.758387,553.7 L749.581791,551.7 L750.405195,554 L751.228599,552.5 L752.052002,553.9 L752.875406,554.5 L753.69881,552.2 L754.522214,554.1 L755.345618,553.7 L756.169021,516.9 L756.992425,485.2 L757.815829,552.9 L758.639233,554.4 L759.462637,554.5 L760.286041,552.6 L761.109444,554.5 L761.932848,553.2 L762.756252,552.5 L763.579656,553.6 L764.40306,554.4 L765.226464,550.7 L766.049867,551.4 L766.873271,554.4 L767.696675,554.6 L768.520079,552.2 L769.343483,554.4 L770.166886,553.3 L770.99029,553.6 L771.813694,551.6 L772.637098,554.1 L773.460502,553.8 L774.283906,545.4 L775.107309,554.1 L775.930713,554.5 L776.754117,548.1 L777.577521,552.4 L778.400925,554.5 L779.224328,553.8 L780.047732,543 L780.871136,551.6 L781.69454,554.5 L782.517944,553.3 L783.341348,551.7 L784.164751,554.4 L784.988155,554.5 L785.811559,511.5 L786.634963,420.1 L787.458367,490.2 L788.281771,553.9 L789.105174,554.1 L789.928578,554.1 L790.751982,550.7 L791.575386,554.3 L792.39879,552.2 L793.222193,554.4 L794.045597,554.5 L794.869001,546.9 L795.692405,554.1 L796.515809,553.3 L797.339213,553.5 L798.162616,554.3 L798.98602,553.4 L799.809424,554.5 L800.632828,553.6 L801.456232,551.1 L802.279635,553.6 L803.103039,554.4 L803.926443,551.1 L804.749847,554.5 L805.573251,554.5 L806.396655,554.5 L807.220058,552 L808.043462,554.5 L808.866866,554.5 L809.69027,546 L810.513674,553.7 L811.337078,554.5 L812.160481,554.4 L812.983885,554.4 L813.807289,554.5 L814.630693,554.6 L815.454097,554.5 L816.2775,554.4 L817.100904,554.5 L817.924308,553.7 L818.747712,554.5 L819.571116,552.7 L820.39452,554.5 L821.217923,553.1 L822.041327,547.6 L822.864731,554.6 L823.688135,514.2 L824.511539,547 L825.334942,552.6 L826.158346,550.6 L826.98175,554.2 L827.805154,554.1 L828.628558,549.6 L829.451962,554.5 L830.275365,554.5 L831.098769,551.4 L831.922173,552.8 L832.745577,553.2 L833.568981,553.6 L834.392384,554.5 L835.215788,554.5 L836.039192,554.6 L836.862596,554.5 L837.686,554.5 L838.509404,553.3 L839.332807,551.3 L840.156211,554.6 L840.979615,554.3 L841.803019,553.8 L842.626423,554.5 L843.449827,554.5 L844.27323,552.7 L845.096634,554.6 L845.920038,553.1 L846.743442,549.3 L847.566846,554.5 L848.390249,553.4 L849.213653,545.5 L850.037057,553.8 L850.860461,554.6 L851.683865,554.5 L852.507269,554.5 L853.330672,554.6 L854.154076,546.9 L854.97748,554.6 L855.800884,554.5 L856.624288,552.8 L857.447691,553.7 L858.271095,550 L859.094499,554.4 L859.917903,554.5 L860.741307,554.5 L861.564711,554.6 L862.388114,552.5 L863.211518,554.6 L864.034922,554.6 L864.858326,553.6 L865.68173,554.5 L866.505134,554.5 L867.328537,554.6 L868.151941,554.5 L868.975345,553.3 L869.798749,554.4 L870.622153,553.8 L871.445556,553.4 L872.26896,553.6 L873.092364,552.3 L873.915768,549.8 L874.739172,553.3 L875.562576,554.5 L876.385979,554.5 L877.209383,554.5 L878.032787,552.1 L878.856191,531.3 L879.679595,499.5 L880.502998,531.7 L881.326402,553.7 L882.149806,554.5 L882.97321,554.4 L883.796614,554.5 L884.620018,554.5 L885.443421,551.9 L886.266825,554.5 L887.090229,554.5 L887.913633,554.1 L888.737037,554.5 L889.560441,550.5 L890.383844,554.5 L891.207248,554.5 L892.030652,554.6 L892.854056,554.5 L893.67746,553.9 L894.500863,554.6 L895.324267,553.1 L896.147671,553.6 L896.971075,554.5 L897.794479,552.8 L898.617883,554.5 L899.441286,553.5 L900.26469,554.5 L901.088094,550.5 L901.911498,554.4 L902.734902,544.3 L903.558305,552.8 L904.381709,554.4 L905.205113,554.6 L906.028517,553.3 L906.851921,554.6 L907.675325,554.5 L908.498728,554.5 L909.322132,474.3 L910.145536,404.9 L910.96894,431.2 L911.792344,457 L912.615747,440 L913.439151,396.7 L914.262555,481.5 L915.085959,524.5 L915.909363,523.9 L916.732767,528.1 L917.55617,525.9 L918.379574,527.7 L919.202978,524.5 L920.026382,528 L920.849786,527.7 L921.67319,529 L922.496593,527.8 L923.319997,528 L924.143401,527.2 L924.966805,526.4 L925.790209,528.2 L926.613612,528.9 L927.437016,527.8 L928.26042,524.4 L929.083824,528.9 L929.907228,529.1 L930.730632,526.4 L931.554035,469.7 L932.377439,535 L933.200843,522.5 L934.024247,557.4 L934.847651,559.5 L935.671054,560.2 L936.494458,560.1 L937.317862,560.2 L938.141266,560.2 L938.96467,560.2 L939.788074,560.2 L940.611477,560.2 L941.434881,560.1 L942.258285,559.7 L943.081689,560.1 L943.905093,560.1 L944.728497,558.9 L945.5519,560.3 L946.375304,560.1 L947.198708,560.2 L948.022112,560.2 L948.845516,560.1 L949.668919,560.2 L950.492323,559.5 L951.315727,560.1 L952.139131,560.2 L952.962535,560.2 L953.785939,560.1 L954.609342,560.2 L955.432746,560.2 L956.25615,560.1 L957.079554,565.3 L957.902958,565.8 L958.726361,565.8 L959.549765,565.8 L960.373169,565.8 L961.196573,565.8 L962.019977,565.8 L962.843381,565.8 L963.666784,565.9 L964.490188,565.8 L965.313592,565.8 L966.136996,565.1 L966.9604,565.8 L967.783804,565.8 L968.607207,565.8 L969.430611,564.6 L970.254015,565.8 L971.077419,565.9 L971.900823,565.8 L972.724226,565.8 L973.54763,564.1 L974.371034,565.4 L975.194438,565.8 L976.017842,565.8 L976.841246,565.8 L977.664649,565.8 L978.488053,565.8 L979.311457,565.7 L980.134861,565.7 L980.958265,565.9 L981.781668,565.1 L982.605072,565.7 L983.428476,565.9 L984.25188,565.9 L985.075284,565.8 L985.898688,565.8 L986.722091,565.9 L987.545495,565.8 L988.368899,565.8 L989.192303,565.2 L990.015707,565.8 L990.839111,565.9 L991.662514,565.9 L992.485918,565.8 L993.309322,565.3 L994.132726,565 L994.95613,565.8 L995.779533,565.7 L996.602937,565.7 L997.426341,565.6 L998.249745,565.7 L999.073149,565.9 L999.896553,565.8 L1000.71996,565.8 L1001.54336,565.8 L1002.36676,565.8 L1003.19017,565.9 L1004.01357,565.8 L1004.83698,565 L1005.66038,565.8 L1006.48378,565.9 L1007.30719,565.7 L1008.13059,565.9 L1008.95399,565.8 L1009.7774,565.8 L1010.6008,565.8 L1011.42421,565.8 L1012.24761,565 L1013.07101,565.8 L1013.89442,565.8 L1014.71782,565.9 L1015.54123,565.7 L1016.36463,565.9 L1017.18803,565.9 L1018.01144,564.4 L1018.83484,565.8 L1019.65824,565.9 L1020.48165,565 L1021.30505,565.9 L1022.12846,565.8 L1022.95186,565.8 L1023.77526,565.9 L1024.59867,565.8 L1025.42207,565.8 L1026.24547,565.8 L1027.06888,565.9 L1027.89228,565.5 L1028.71569,565.9"></path>
                        </g>
                    </g>
                </g>
                <g transform="translate(60.000000, 0.000000)" id="Shape" stroke-opacity="0.0001" stroke="#C0C0C0" stroke-width="21" sketch:type="MSShapeGroup">
                    <path d="M0.284313725,495.1 L10.2843137,495.1 L11.1077175,500.5 L11.9311214,492.6 L12.7545252,500.7 L13.577929,499.7 L14.4013328,496.4 L15.2247367,502.6 L16.0481405,493.2 L16.8715443,498.9 L17.6949481,494.5 L18.5183519,495.2 L19.3417558,502.4 L20.1651596,498.7 L20.9885634,498.9 L21.8119672,502.8 L22.635371,494.6 L23.4587749,499.3 L24.2821787,502.1 L25.1055825,465.3 L25.9289863,428.5 L26.7523901,491.4 L27.575794,499.3 L28.3991978,496.3 L29.2226016,458 L30.0460054,401.1 L30.8694093,434.5 L31.6928131,417.4 L32.5162169,382.6 L33.3396207,388.5 L34.1630245,381 L34.9864284,411.8 L35.8098322,417.6 L36.633236,384.2 L37.4566398,406.6 L38.2800436,381.7 L39.1034475,386.3 L39.9268513,406.1 L40.7502551,425.7 L41.5736589,474.5 L42.3970627,375.5 L43.2204666,21.1 L44.0438704,115.7 L44.8672742,7.1 L45.690678,1.6 L46.5140819,0 L47.3374857,2.4 L48.1608895,2.4 L48.9842933,2.1 L49.8076971,5.6 L50.631101,10.6 L51.4545048,101.1 L52.2779086,80.4 L53.1013124,143.5 L53.9247162,269.1 L54.7481201,252.9 L55.5715239,203.9 L56.3949277,291.9 L57.2183315,369.6 L58.0417353,544.5 L58.8651392,543.9 L59.688543,411.9 L60.5119468,340.3 L61.3353506,384.6 L62.1587545,501 L62.9821583,545.8 L63.8055621,543.4 L64.6289659,553.5 L65.4523697,553.5 L66.2757736,550.5 L67.0991774,550 L67.9225812,461.2 L68.745985,451.6 L69.5693888,442.9 L70.3927927,430.2 L71.2161965,552.4 L72.0396003,551.1 L72.8630041,551.8 L73.6864079,551.9 L74.5098118,554.1 L75.3332156,551.5 L76.1566194,530.7 L76.9800232,458.8 L77.8034271,435.9 L78.6268309,461.1 L79.4502347,420 L80.2736385,516.2 L81.0970423,548.7 L81.9204462,547.6 L82.74385,531.1 L83.5672538,553.8 L84.3906576,549.7 L85.2140614,549.5 L86.0374653,513 L86.8608691,544.6 L87.6842729,553.6 L88.5076767,543.5 L89.3310806,542.4 L90.1544844,552.4 L90.9778882,548.8 L91.801292,547.8 L92.6246958,554.2 L93.4480997,552.9 L94.2715035,553.9 L95.0949073,496.7 L95.9183111,554.1 L96.7417149,554.2 L97.5651188,549.1 L98.3885226,553.8 L99.2119264,554.3 L100.03533,554.1 L100.858734,554.1 L101.682138,551.8 L102.505542,552.2 L103.328946,552 L104.152349,554.3 L104.975753,554.2 L105.799157,553 L106.622561,546.3 L107.445965,552.4 L108.269368,554.2 L109.092772,553.5 L109.916176,542.8 L110.73958,554.2 L111.562984,554.2 L112.386388,552.1 L113.209791,553 L114.033195,552.8 L114.856599,554.3 L115.680003,552.2 L116.503407,552.8 L117.32681,553.5 L118.150214,551.7 L118.973618,553.9 L119.797022,553.1 L120.620426,554.3 L121.44383,552.2 L122.267233,554.2 L123.090637,548.1 L123.914041,554.2 L124.737445,546.1 L125.560849,548.2 L126.384253,554.2 L127.207656,552.1 L128.03106,511 L128.854464,474.6 L129.677868,551.3 L130.501272,553.7 L131.324675,551.4 L132.148079,554.3 L132.971483,545.7 L133.794887,552.3 L134.618291,546.6 L135.441695,554.2 L136.265098,551.5 L137.088502,552.4 L137.911906,553.1 L138.73531,553 L139.558714,554.3 L140.382117,552.1 L141.205521,552.6 L142.028925,554.4 L142.852329,551.5 L143.675733,550.5 L144.499137,553 L145.32254,554.4 L146.145944,552.2 L146.969348,554.3 L147.792752,554.4 L148.616156,551.1 L149.439559,537.8 L150.262963,499.1 L151.086367,519 L151.909771,551.7 L152.733175,545.4 L153.556579,554.3 L154.379982,554.3 L155.203386,547 L156.02679,554.2 L156.850194,553.4 L157.673598,551.7 L158.497002,552.9 L159.320405,554.3 L160.143809,554.2 L160.967213,551.8 L161.790617,549.6 L162.614021,553 L163.437424,550.6 L164.260828,552.3 L165.084232,554.2 L165.907636,553.4 L166.73104,550.2 L167.554444,552.1 L168.377847,554.3 L169.201251,553.1 L170.024655,552.6 L170.848059,554.5 L171.671463,554.4 L172.494866,544.5 L173.31827,552.7 L174.141674,542.8 L174.965078,553.2 L175.788482,553.9 L176.611886,554.3 L177.435289,554 L178.258693,554.3 L179.082097,551.6 L179.905501,552 L180.728905,552.5 L181.552309,554.3 L182.375712,552.2 L183.199116,554.4 L184.02252,554.3 L184.845924,549.6 L185.669328,522.9 L186.492731,551.8 L187.316135,554.1 L188.139539,549.7 L188.962943,552.8 L189.786347,549.8 L190.609751,550.7 L191.433154,553.3 L192.256558,554.4 L193.079962,553.5 L193.903366,552.3 L194.72677,550.1 L195.550173,554.3 L196.373577,554.3 L197.196981,552.3 L198.020385,554.3 L198.843789,554.4 L199.667193,552.5 L200.490596,554.1 L201.314,554.4 L202.137404,554.4 L202.960808,552.7 L203.784212,553.6 L204.607616,554.4 L205.431019,553.5 L206.254423,552.2 L207.077827,541.8 L207.901231,554.3 L208.724635,552.8 L209.548038,554.4 L210.371442,554.4 L211.194846,554.4 L212.01825,551.4 L212.841654,553.2 L213.665058,520.7 L214.488461,535.9 L215.311865,553.7 L216.135269,553.2 L216.958673,554.3 L217.782077,539.5 L218.60548,554.3 L219.428884,553 L220.252288,507.4 L221.075692,421.5 L221.899096,423.3 L222.7225,425.6 L223.545903,459.3 L224.369307,466.8 L225.192711,463.5 L226.016115,461.4 L226.839519,460.4 L227.662922,459.3 L228.486326,461.4 L229.30973,462.3 L230.133134,462.7 L230.956538,462.1 L231.779942,461.9 L232.603345,474.3 L233.426749,445.4 L234.250153,469.8 L235.073557,475.4 L235.896961,475.8 L236.720365,476 L237.543768,478.9 L238.367172,476.3 L239.190576,477 L240.01398,471.8 L240.837384,471.4 L241.660787,468.6 L242.484191,417.8 L243.307595,437.5 L244.130999,455.1 L244.954403,449.2 L245.777807,457.6 L246.60121,452.5 L247.424614,445.5 L248.248018,453.5 L249.071422,491.8 L249.894826,552.7 L250.718229,553.1 L251.541633,554.1 L252.365037,550.7 L253.188441,553.7 L254.011845,554.2 L254.835249,550.2 L255.658652,543.6 L256.482056,554.2 L257.30546,553.7 L258.128864,552.2 L258.952268,553.3 L259.775672,554.4 L260.599075,553.2 L261.422479,552.3 L262.245883,553.7 L263.069287,552.8 L263.892691,551.6 L264.716094,554.4 L265.539498,552.7 L266.362902,553.4 L267.186306,551.6 L268.00971,554.3 L268.833114,552.8 L269.656517,552.9 L270.479921,554.3 L271.303325,552.6 L272.126729,551 L272.950133,551.5 L273.773536,522.4 L274.59694,484.3 L275.420344,544.6 L276.243748,552 L277.067152,554.3 L277.890556,554.3 L278.713959,547.3 L279.537363,552.4 L280.360767,554.4 L281.184171,554.4 L282.007575,551.3 L282.830979,554.3 L283.654382,554.4 L284.477786,553.5 L285.30119,553.1 L286.124594,554.5 L286.947998,552.6 L287.771401,546.7 L288.594805,553.5 L289.418209,550.7 L290.241613,525.1 L291.065017,552.2 L291.888421,551.8 L292.711824,554.4 L293.535228,547.7 L294.358632,466.2 L295.182036,542.1 L296.00544,552.7 L296.828843,549.7 L297.652247,542 L298.475651,550.2 L299.299055,551.5 L300.122459,554.3 L300.945863,554.3 L301.769266,554.4 L302.59267,551.6 L303.416074,554.3 L304.239478,552.1 L305.062882,554.4 L305.886285,550.7 L306.709689,550.9 L307.533093,554.3 L308.356497,552.2 L309.179901,552.5 L310.003305,554.4 L310.826708,554.3 L311.650112,551 L312.473516,552.9 L313.29692,553.5 L314.120324,553.3 L314.943728,549.4 L315.767131,554.3 L316.590535,552.8 L317.413939,551.7 L318.237343,552.9 L319.060747,554.4 L319.88415,554.4 L320.707554,551.6 L321.530958,553.4 L322.354362,554.4 L323.177766,551.8 L324.00117,553.2 L324.824573,554.4 L325.647977,554.4 L326.471381,548 L327.294785,554.4 L328.118189,554.4 L328.941592,552.1 L329.764996,554.1 L330.5884,554.4 L331.411804,554.5 L332.235208,552.3 L333.058612,554.4 L333.882015,554.4 L334.705419,538 L335.528823,551 L336.352227,552.8 L337.175631,549.2 L337.999035,552 L338.822438,550.6 L339.645842,551.1 L340.469246,554.4 L341.29265,552.3 L342.116054,549.9 L342.939457,539.3 L343.762861,552.6 L344.586265,553.6 L345.409669,554.2 L346.233073,554.4 L347.056477,551.8 L347.87988,554.3 L348.703284,553.2 L349.526688,554.4 L350.350092,552.2 L351.173496,554.4 L351.996899,554.5 L352.820303,550.9 L353.643707,551.1 L354.467111,553 L355.290515,554.4 L356.113919,552.5 L356.937322,554.5 L357.760726,554.4 L358.58413,553.3 L359.407534,553.4 L360.230938,553.8 L361.054342,544.3 L361.877745,552.3 L362.701149,553 L363.524553,554.4 L364.347957,552.7 L365.171361,552.8 L365.994764,553.4 L366.818168,554.3 L367.641572,552.7 L368.464976,552.3 L369.28838,550.7 L370.111784,554.3 L370.935187,554.1 L371.758591,554.4 L372.581995,550.8 L373.405399,554.3 L374.228803,552.7 L375.052206,554.3 L375.87561,554.4 L376.699014,551.1 L377.522418,554.4 L378.345822,554.4 L379.169226,554.5 L379.992629,551.6 L380.816033,553 L381.639437,552.4 L382.462841,553.7 L383.286245,553 L384.109649,553.7 L384.933052,554.3 L385.756456,550.1 L386.57986,554.3 L387.403264,553 L388.226668,554.5 L389.050071,551.2 L389.873475,554.4 L390.696879,553.4 L391.520283,527.4 L392.343687,553.2 L393.167091,552 L393.990494,554.2 L394.813898,551.3 L395.637302,550.5 L396.460706,550 L397.28411,520.3 L398.107513,487.9 L398.930917,553.9 L399.754321,553.5 L400.577725,552.7 L401.401129,554.4 L402.224533,554.4 L403.047936,554.1 L403.87134,552 L404.694744,554.4 L405.518148,554.4 L406.341552,552 L407.164955,553.5 L407.988359,551.3 L408.811763,554.3 L409.635167,551.7 L410.458571,552.6 L411.281975,554.4 L412.105378,551.4 L412.928782,553.5 L413.752186,553.2 L414.57559,554.4 L415.398994,551 L416.222398,554.3 L417.045801,552.8 L417.869205,552.2 L418.692609,551.7 L419.516013,554.4 L420.339417,554.4 L421.16282,540.2 L421.986224,554.4 L422.809628,552.1 L423.633032,530.7 L424.456436,551.6 L425.27984,554.4 L426.103243,485.9 L426.926647,466.7 L427.750051,449.1 L428.573455,515.1 L429.396859,554.1 L430.220262,530.2 L431.043666,540.1 L431.86707,552.8 L432.690474,550.5 L433.513878,549.7 L434.337282,553 L435.160685,551.1 L435.984089,551.8 L436.807493,553 L437.630897,554.4 L438.454301,552.2 L439.277705,552.3 L440.101108,553.4 L440.924512,554.3 L441.747916,550.8 L442.57132,554.4 L443.394724,554.3 L444.218127,554.4 L445.041531,552.8 L445.864935,554.3 L446.688339,553.6 L447.511743,551.7 L448.335147,554 L449.15855,554.4 L449.981954,554.4 L450.805358,548.4 L451.628762,554.3 L452.452166,554.4 L453.275569,554.4 L454.098973,552.5 L454.922377,553.3 L455.745781,554.5 L456.569185,552.4 L457.392589,554.2 L458.215992,554.4 L459.039396,554.4 L459.8628,550.6 L460.686204,554.4 L461.509608,553.1 L462.333012,551.6 L463.156415,552.5 L463.979819,554.3 L464.803223,553.5 L465.626627,552.4 L466.450031,554.4 L467.273434,554.4 L468.096838,554.5 L468.920242,553.1 L469.743646,553.4 L470.56705,554.3 L471.390454,552.8 L472.213857,552.8 L473.037261,554.4 L473.860665,554.5 L474.684069,552.3 L475.507473,554.4 L476.330876,554.4 L477.15428,553.7 L477.977684,548.6 L478.801088,554.4 L479.624492,554.4 L480.447896,551.9 L481.271299,554.4 L482.094703,554.4 L482.918107,554.4 L483.741511,546.4 L484.564915,553.7 L485.388318,549.3 L486.211722,548.1 L487.035126,554.5 L487.85853,539.5 L488.681934,554.4 L489.505338,549.4 L490.328741,554.3 L491.152145,553.1 L491.975549,552.6 L492.798953,554.4 L493.622357,554.1 L494.445761,554.5 L495.269164,546.5 L496.092568,554.4 L496.915972,552.9 L497.739376,554.5 L498.56278,536.8 L499.386183,515.6 L500.209587,518 L501.032991,515.8 L501.856395,513.8 L502.679799,512.3 L503.503203,517 L504.326606,521.8 L505.15001,522.3 L505.973414,523.2 L506.796818,521.8 L507.620222,523.4 L508.443625,540.5 L509.267029,553.4 L510.090433,552.4 L510.913837,553.6 L511.737241,554.4 L512.560645,553.2 L513.384048,552.5 L514.207452,553.6 L515.030856,554.4 L515.85426,551.6 L516.677664,550.4 L517.501068,554.4 L518.324471,554.3 L519.147875,552.4 L519.971279,547.6 L520.794683,497.5 L521.618087,516.8 L522.44149,554.4 L523.264894,554.5 L524.088298,553.7 L524.911702,552.1 L525.735106,554.4 L526.55851,554.5 L527.381913,554.3 L528.205317,549.3 L529.028721,554.4 L529.852125,553 L530.675529,552.8 L531.498932,554.5 L532.322336,550.4 L533.14574,554.5 L533.969144,551.6 L534.792548,554.4 L535.615952,553 L536.439355,550.1 L537.262759,553.3 L538.086163,554.5 L538.909567,553.6 L539.732971,551.8 L540.556375,554 L541.379778,554.5 L542.203182,553.3 L543.026586,553 L543.84999,551.7 L544.673394,550.6 L545.496797,552.3 L546.320201,553.1 L547.143605,554.6 L547.967009,546 L548.790413,552.2 L549.613817,554.5 L550.43722,554.5 L551.260624,551.7 L552.084028,552.4 L552.907432,554.5 L553.730836,550.8 L554.554239,553.2 L555.377643,551.6 L556.201047,554.4 L557.024451,552.4 L557.847855,554.4 L558.671259,553.3 L559.494662,549.8 L560.318066,547.7 L561.14147,554.4 L561.964874,553.9 L562.788278,554.5 L563.611682,551.8 L564.435085,554.4 L565.258489,552.9 L566.081893,551.9 L566.905297,554.5 L567.728701,551.1 L568.552104,554.5 L569.375508,552.4 L570.198912,554.4 L571.022316,550.5 L571.84572,552.2 L572.669124,554.5 L573.492527,554.4 L574.315931,554.5 L575.139335,551.7 L575.962739,554.5 L576.786143,554.5 L577.609546,554.4 L578.43295,552.6 L579.256354,553.6 L580.079758,554.4 L580.903162,552.3 L581.726566,554.5 L582.549969,554.4 L583.373373,554 L584.196777,552.5 L585.020181,553.4 L585.843585,554.5 L586.666988,541 L587.490392,553.9 L588.313796,552.9 L589.1372,554.5 L589.960604,551.4 L590.784008,554.5 L591.607411,554.5 L592.430815,554.4 L593.254219,553.3 L594.077623,554.5 L594.901027,553.6 L595.724431,549.7 L596.547834,550.8 L597.371238,554.3 L598.194642,551.6 L599.018046,552.6 L599.84145,554.4 L600.664853,554.5 L601.488257,552.4 L602.311661,553.6 L603.135065,554.4 L603.958469,554.5 L604.781873,552.4 L605.605276,554.4 L606.42868,554.5 L607.252084,553.6 L608.075488,552.8 L608.898892,554.5 L609.722295,552.9 L610.545699,545.2 L611.369103,552.8 L612.192507,554.5 L613.015911,552.6 L613.839315,549 L614.662718,553.8 L615.486122,554.5 L616.309526,551.8 L617.13293,554.5 L617.956334,553.5 L618.779738,549.4 L619.603141,552.3 L620.426545,552.8 L621.249949,553.2 L622.073353,554.2 L622.896757,553.3 L623.72016,554.5 L624.543564,554.5 L625.366968,549 L626.190372,553.8 L627.013776,554.5 L627.83718,554 L628.660583,552.3 L629.483987,554.5 L630.307391,554.3 L631.130795,552.3 L631.954199,554.5 L632.777602,552.8 L633.601006,553.4 L634.42441,548.5 L635.247814,553.4 L636.071218,554 L636.894622,551.4 L637.718025,554.5 L638.541429,553.4 L639.364833,554.4 L640.188237,548.8 L641.011641,554.4 L641.835045,554.5 L642.658448,552.5 L643.481852,506.5 L644.305256,505.8 L645.12866,552.9 L645.952064,552.1 L646.775467,554.6 L647.598871,554.5 L648.422275,552.1 L649.245679,553.7 L650.069083,554.4 L650.892487,554.4 L651.71589,551.3 L652.539294,554.5 L653.362698,554.5 L654.186102,554.5 L655.009506,552.8 L655.832909,554.4 L656.656313,552.9 L657.479717,551.3 L658.303121,553 L659.126525,554.5 L659.949929,553.2 L660.773332,552.3 L661.596736,554.5 L662.42014,554.4 L663.243544,551.6 L664.066948,553.7 L664.890351,554.5 L665.713755,554.4 L666.537159,552 L667.360563,539.4 L668.183967,554.5 L669.007371,554.4 L669.830774,553.6 L670.654178,554.4 L671.477582,554.5 L672.300986,543.3 L673.12439,553.7 L673.947794,554.5 L674.771197,554.5 L675.594601,550.5 L676.418005,554.5 L677.241409,554.5 L678.064813,552.1 L678.888216,551.2 L679.71162,554.3 L680.535024,553.9 L681.358428,551.2 L682.181832,554.4 L683.005236,553.1 L683.828639,554.4 L684.652043,552.8 L685.475447,554.5 L686.298851,553.4 L687.122255,552.4 L687.945658,552.7 L688.769062,554.5 L689.592466,554.4 L690.41587,552 L691.239274,554.5 L692.062678,554.4 L692.886081,552.5 L693.709485,553.3 L694.532889,549.8 L695.356293,553.7 L696.179697,552.1 L697.003101,554.5 L697.826504,554.5 L698.649908,554.5 L699.473312,554 L700.296716,554.5 L701.12012,554.6 L701.943523,552.3 L702.766927,554.5 L703.590331,553.6 L704.413735,554.4 L705.237139,552 L706.060543,541.5 L706.883946,511 L707.70735,550.7 L708.530754,554.3 L709.354158,552.7 L710.177562,550.8 L711.000965,551 L711.824369,554.5 L712.647773,553.9 L713.471177,552.5 L714.294581,554.5 L715.117985,554.4 L715.941388,554.5 L716.764792,551.7 L717.588196,554.4 L718.4116,553.4 L719.235004,552.1 L720.058408,548.9 L720.881811,554.4 L721.705215,549 L722.528619,552.5 L723.352023,554.5 L724.175427,554.4 L724.99883,554.5 L725.822234,552.5 L726.645638,553.5 L727.469042,554.5 L728.292446,552.4 L729.11585,554.5 L729.939253,554.5 L730.762657,553.2 L731.586061,553.1 L732.409465,551.1 L733.232869,554.2 L734.056272,550.7 L734.879676,544.5 L735.70308,553.9 L736.526484,554.5 L737.349888,551.9 L738.173292,554.4 L738.996695,554.6 L739.820099,554.5 L740.643503,545.8 L741.466907,554.4 L742.290311,554 L743.113715,552.2 L743.937118,554.6 L744.760522,553.4 L745.583926,547.7 L746.40733,553.5 L747.230734,554.5 L748.054137,541.6 L748.877541,550.1 L749.700945,553.7 L750.524349,553.7 L751.347753,554.5 L752.171157,551.9 L752.99456,554.5 L753.817964,554.5 L754.641368,554.5 L755.464772,549.9 L756.288176,554.5 L757.111579,553 L757.934983,551.9 L758.758387,553.7 L759.581791,551.7 L760.405195,554 L761.228599,552.5 L762.052002,553.9 L762.875406,554.5 L763.69881,552.2 L764.522214,554.1 L765.345618,553.7 L766.169021,516.9 L766.992425,485.2 L767.815829,552.9 L768.639233,554.4 L769.462637,554.5 L770.286041,552.6 L771.109444,554.5 L771.932848,553.2 L772.756252,552.5 L773.579656,553.6 L774.40306,554.4 L775.226464,550.7 L776.049867,551.4 L776.873271,554.4 L777.696675,554.6 L778.520079,552.2 L779.343483,554.4 L780.166886,553.3 L780.99029,553.6 L781.813694,551.6 L782.637098,554.1 L783.460502,553.8 L784.283906,545.4 L785.107309,554.1 L785.930713,554.5 L786.754117,548.1 L787.577521,552.4 L788.400925,554.5 L789.224328,553.8 L790.047732,543 L790.871136,551.6 L791.69454,554.5 L792.517944,553.3 L793.341348,551.7 L794.164751,554.4 L794.988155,554.5 L795.811559,511.5 L796.634963,420.1 L797.458367,490.2 L798.281771,553.9 L799.105174,554.1 L799.928578,554.1 L800.751982,550.7 L801.575386,554.3 L802.39879,552.2 L803.222193,554.4 L804.045597,554.5 L804.869001,546.9 L805.692405,554.1 L806.515809,553.3 L807.339213,553.5 L808.162616,554.3 L808.98602,553.4 L809.809424,554.5 L810.632828,553.6 L811.456232,551.1 L812.279635,553.6 L813.103039,554.4 L813.926443,551.1 L814.749847,554.5 L815.573251,554.5 L816.396655,554.5 L817.220058,552 L818.043462,554.5 L818.866866,554.5 L819.69027,546 L820.513674,553.7 L821.337078,554.5 L822.160481,554.4 L822.983885,554.4 L823.807289,554.5 L824.630693,554.6 L825.454097,554.5 L826.2775,554.4 L827.100904,554.5 L827.924308,553.7 L828.747712,554.5 L829.571116,552.7 L830.39452,554.5 L831.217923,553.1 L832.041327,547.6 L832.864731,554.6 L833.688135,514.2 L834.511539,547 L835.334942,552.6 L836.158346,550.6 L836.98175,554.2 L837.805154,554.1 L838.628558,549.6 L839.451962,554.5 L840.275365,554.5 L841.098769,551.4 L841.922173,552.8 L842.745577,553.2 L843.568981,553.6 L844.392384,554.5 L845.215788,554.5 L846.039192,554.6 L846.862596,554.5 L847.686,554.5 L848.509404,553.3 L849.332807,551.3 L850.156211,554.6 L850.979615,554.3 L851.803019,553.8 L852.626423,554.5 L853.449827,554.5 L854.27323,552.7 L855.096634,554.6 L855.920038,553.1 L856.743442,549.3 L857.566846,554.5 L858.390249,553.4 L859.213653,545.5 L860.037057,553.8 L860.860461,554.6 L861.683865,554.5 L862.507269,554.5 L863.330672,554.6 L864.154076,546.9 L864.97748,554.6 L865.800884,554.5 L866.624288,552.8 L867.447691,553.7 L868.271095,550 L869.094499,554.4 L869.917903,554.5 L870.741307,554.5 L871.564711,554.6 L872.388114,552.5 L873.211518,554.6 L874.034922,554.6 L874.858326,553.6 L875.68173,554.5 L876.505134,554.5 L877.328537,554.6 L878.151941,554.5 L878.975345,553.3 L879.798749,554.4 L880.622153,553.8 L881.445556,553.4 L882.26896,553.6 L883.092364,552.3 L883.915768,549.8 L884.739172,553.3 L885.562576,554.5 L886.385979,554.5 L887.209383,554.5 L888.032787,552.1 L888.856191,531.3 L889.679595,499.5 L890.502998,531.7 L891.326402,553.7 L892.149806,554.5 L892.97321,554.4 L893.796614,554.5 L894.620018,554.5 L895.443421,551.9 L896.266825,554.5 L897.090229,554.5 L897.913633,554.1 L898.737037,554.5 L899.560441,550.5 L900.383844,554.5 L901.207248,554.5 L902.030652,554.6 L902.854056,554.5 L903.67746,553.9 L904.500863,554.6 L905.324267,553.1 L906.147671,553.6 L906.971075,554.5 L907.794479,552.8 L908.617883,554.5 L909.441286,553.5 L910.26469,554.5 L911.088094,550.5 L911.911498,554.4 L912.734902,544.3 L913.558305,552.8 L914.381709,554.4 L915.205113,554.6 L916.028517,553.3 L916.851921,554.6 L917.675325,554.5 L918.498728,554.5 L919.322132,474.3 L920.145536,404.9 L920.96894,431.2 L921.792344,457 L922.615747,440 L923.439151,396.7 L924.262555,481.5 L925.085959,524.5 L925.909363,523.9 L926.732767,528.1 L927.55617,525.9 L928.379574,527.7 L929.202978,524.5 L930.026382,528 L930.849786,527.7 L931.67319,529 L932.496593,527.8 L933.319997,528 L934.143401,527.2 L934.966805,526.4 L935.790209,528.2 L936.613612,528.9 L937.437016,527.8 L938.26042,524.4 L939.083824,528.9 L939.907228,529.1 L940.730632,526.4 L941.554035,469.7 L942.377439,535 L943.200843,522.5 L944.024247,557.4 L944.847651,559.5 L945.671054,560.2 L946.494458,560.1 L947.317862,560.2 L948.141266,560.2 L948.96467,560.2 L949.788074,560.2 L950.611477,560.2 L951.434881,560.1 L952.258285,559.7 L953.081689,560.1 L953.905093,560.1 L954.728497,558.9 L955.5519,560.3 L956.375304,560.1 L957.198708,560.2 L958.022112,560.2 L958.845516,560.1 L959.668919,560.2 L960.492323,559.5 L961.315727,560.1 L962.139131,560.2 L962.962535,560.2 L963.785939,560.1 L964.609342,560.2 L965.432746,560.2 L966.25615,560.1 L967.079554,565.3 L967.902958,565.8 L968.726361,565.8 L969.549765,565.8 L970.373169,565.8 L971.196573,565.8 L972.019977,565.8 L972.843381,565.8 L973.666784,565.9 L974.490188,565.8 L975.313592,565.8 L976.136996,565.1 L976.9604,565.8 L977.783804,565.8 L978.607207,565.8 L979.430611,564.6 L980.254015,565.8 L981.077419,565.9 L981.900823,565.8 L982.724226,565.8 L983.54763,564.1 L984.371034,565.4 L985.194438,565.8 L986.017842,565.8 L986.841246,565.8 L987.664649,565.8 L988.488053,565.8 L989.311457,565.7 L990.134861,565.7 L990.958265,565.9 L991.781668,565.1 L992.605072,565.7 L993.428476,565.9 L994.25188,565.9 L995.075284,565.8 L995.898688,565.8 L996.722091,565.9 L997.545495,565.8 L998.368899,565.8 L999.192303,565.2 L1000.01571,565.8 L1000.83911,565.9 L1001.66251,565.9 L1002.48592,565.8 L1003.30932,565.3 L1004.13273,565 L1004.95613,565.8 L1005.77953,565.7 L1006.60294,565.7 L1007.42634,565.6 L1008.24974,565.7 L1009.07315,565.9 L1009.89655,565.8 L1010.71996,565.8 L1011.54336,565.8 L1012.36676,565.8 L1013.19017,565.9 L1014.01357,565.8 L1014.83698,565 L1015.66038,565.8 L1016.48378,565.9 L1017.30719,565.7 L1018.13059,565.9 L1018.95399,565.8 L1019.7774,565.8 L1020.6008,565.8 L1021.42421,565.8 L1022.24761,565 L1023.07101,565.8 L1023.89442,565.8 L1024.71782,565.9 L1025.54123,565.7 L1026.36463,565.9 L1027.18803,565.9 L1028.01144,564.4 L1028.83484,565.8 L1029.65824,565.9 L1030.48165,565 L1031.30505,565.9 L1032.12846,565.8 L1032.95186,565.8 L1033.77526,565.9 L1034.59867,565.8 L1035.42207,565.8 L1036.24547,565.8 L1037.06888,565.9 L1037.89228,565.5 L1038.71569,565.9 L1048.71569,565.9"></path>
                </g>
            </g>
            <g id="Group" transform="translate(65.000000, 581.000000)" font-size="20" font-family="Helvetica" fill="#666666" sketch:type="MSTextLayer" font-weight="normal">
                <text id="0">
                    <tspan x="-0.215686275" y="19" fill="#000000">0</tspan>
                </text>
                <text id="3-000">
                    <tspan x="62.6246958" y="19" fill="#000000">3 000</tspan>
                </text>
                <text id="6-000">
                    <tspan x="144.965078" y="19" fill="#000000">6 000</tspan>
                </text>
                <text id="9-000">
                    <tspan x="227.30546" y="19" fill="#000000">9 000</tspan>
                </text>
                <text id="12-000">
                    <tspan x="306.645842" y="19" fill="#000000">12 000</tspan>
                </text>
                <text id="15-000">
                    <tspan x="388.986224" y="19" fill="#000000">15 000</tspan>
                </text>
                <text id="18-000">
                    <tspan x="471.326606" y="19" fill="#000000">18 000</tspan>
                </text>
                <text id="21-000">
                    <tspan x="553.666988" y="19" fill="#000000">21 000</tspan>
                </text>
                <text id="24-000">
                    <tspan x="636.007371" y="19" fill="#000000">24 000</tspan>
                </text>
                <text id="27-000">
                    <tspan x="718.347753" y="19" fill="#000000">27 000</tspan>
                </text>
                <text id="30-000">
                    <tspan x="800.688135" y="19" fill="#000000">30 000</tspan>
                </text>
                <text id="33-000">
                    <tspan x="883.028517" y="19" fill="#000000">33 000</tspan>
                </text>
                <text id="36-000">
                    <tspan x="965.368899" y="19" fill="#000000">36 000</tspan>
                </text>
            </g>
            <g id="Group" transform="translate(28.000000, 202.000000)" font-size="20" font-family="Helvetica" fill="#666666" sketch:type="MSTextLayer" font-weight="normal">
                <text id="0">
                    <tspan x="9" y="381.115625" fill="#000000">0</tspan>
                </text>
                <text id="0.1">
                    <tspan x="0" y="320.782292" fill="#000000">0.1</tspan>
                </text>
                <text id="0.2">
                    <tspan x="0" y="260.448958" fill="#000000">0.2</tspan>
                </text>
                <text id="0.3">
                    <tspan x="0" y="200.115625" fill="#000000">0.3</tspan>
                </text>
                <text id="0.4">
                    <tspan x="0" y="139.782292" fill="#000000">0.4</tspan>
                </text>
                <text id="0.5">
                    <tspan x="0" y="79.4489583" fill="#000000">0.5</tspan>
                </text>
                <text id="0.6">
                    <tspan x="0" y="19.115625" fill="#000000">0.6</tspan>
                </text>
            </g>
            <text id="Highcharts.com" opacity="0.1" fill="#909090" sketch:type="MSTextLayer" font-family="Helvetica" font-size="9" font-weight="normal">
                <tspan x="1046" y="600" fill="#000000">Highcharts.com</tspan>
            </text>
        </g>
    </g>
</svg>