<svg xmlns="http://www.w3.org/2000/svg" version="1.1" width="1119" height="600"><desc>Created with Highcharts 3.0.2</desc><defs><clipPath id="highcharts-1"><rect fill="none" x="0" y="0" width="1049" height="561"></rect></clipPath></defs><rect rx="5" ry="5" fill="#FFFFFF" x="0" y="0" width="1119" height="600"></rect><g class="highcharts-grid" zIndex="1"></g><g class="highcharts-grid" zIndex="1"><path fill="none" d="M 60 502.5 L 1109 502.5" stroke="#C0C0C0" stroke-width="1" zIndex="1" opacity="1"></path><path fill="none" d="M 60 432.5 L 1109 432.5" stroke="#C0C0C0" stroke-width="1" zIndex="1" opacity="1"></path><path fill="none" d="M 60 361.5 L 1109 361.5" stroke="#C0C0C0" stroke-width="1" zIndex="1" opacity="1"></path><path fill="none" d="M 60 291.5 L 1109 291.5" stroke="#C0C0C0" stroke-width="1" zIndex="1" opacity="1"></path><path fill="none" d="M 60 221.5 L 1109 221.5" stroke="#C0C0C0" stroke-width="1" zIndex="1" opacity="1"></path><path fill="none" d="M 60 151.5 L 1109 151.5" stroke="#C0C0C0" stroke-width="1" zIndex="1" opacity="1"></path><path fill="none" d="M 60 80.5 L 1109 80.5" stroke="#C0C0C0" stroke-width="1" zIndex="1" opacity="1"></path><path fill="none" d="M 60 10.5 L 1109 10.5" stroke="#C0C0C0" stroke-width="1" zIndex="1" opacity="1"></path><path fill="none" d="M 60 571.5 L 1109 571.5" stroke="#C0C0C0" stroke-width="1" zIndex="1" opacity="1"></path></g><g class="highcharts-axis" zIndex="2"><path fill="none" d="M 809.5 572 L 809.5 577" stroke="#C0D0E0" stroke-width="1" opacity="1"></path><path fill="none" d="M 69.5 572 L 69.5 577" stroke="#C0D0E0" stroke-width="1" opacity="1"></path><path fill="none" d="M 162.5 572 L 162.5 577" stroke="#C0D0E0" stroke-width="1" opacity="1"></path><path fill="none" d="M 254.5 572 L 254.5 577" stroke="#C0D0E0" stroke-width="1" opacity="1"></path><path fill="none" d="M 347.5 572 L 347.5 577" stroke="#C0D0E0" stroke-width="1" opacity="1"></path><path fill="none" d="M 439.5 572 L 439.5 577" stroke="#C0D0E0" stroke-width="1" opacity="1"></path><path fill="none" d="M 532.5 572 L 532.5 577" stroke="#C0D0E0" stroke-width="1" opacity="1"></path><path fill="none" d="M 624.5 572 L 624.5 577" stroke="#C0D0E0" stroke-width="1" opacity="1"></path><path fill="none" d="M 717.5 572 L 717.5 577" stroke="#C0D0E0" stroke-width="1" opacity="1"></path><path fill="none" d="M 902.5 572 L 902.5 577" stroke="#C0D0E0" stroke-width="1" opacity="1"></path><path fill="none" d="M 994.5 572 L 994.5 577" stroke="#C0D0E0" stroke-width="1" opacity="1"></path><path fill="none" d="M 1087.5 572 L 1087.5 577" stroke="#C0D0E0" stroke-width="1" opacity="1"></path><path fill="none" d="M 60 571.5 L 1109 571.5" stroke="#C0D0E0" stroke-width="1" zIndex="7" visibility="visible"></path></g><g class="highcharts-axis" zIndex="2"><text x="24.59375" y="291" style="font-family:&quot;Lucida Grande&quot;, &quot;Lucida Sans Unicode&quot;, Verdana, Arial, Helvetica, sans-serif;font-size:12px;color:#4d759e;font-weight:bold;fill:#4d759e;" zIndex="7" text-anchor="middle" transform="translate(0,0) rotate(270 24.59375 291)" visibility="visible"><tspan x="24.59375">Amperage</tspan></text></g><g class="highcharts-series-group" zIndex="3"><g class="highcharts-series" visibility="visible" zIndex="0.1" transform="translate(60,10) scale(1 1)" clip-path="url(#highcharts-1)"><path fill="none" d="M 10.284313725490199 509.3 L 13.983707151925522 509.3 L 17.683100578360847 506.4 L 21.38249400479617 506.4 L 25.081887431231493 484.5 L 28.781280857666815 484.5 L 32.48067428410214 475.5 L 36.180067710537465 475.5 L 39.879461136972786 476.9 L 43.578854563408115 476.9 L 47.278247989843436 475.8 L 50.97764141627876 475.8 L 54.67703484271408 476.8 L 58.37642826914941 476.8 L 62.07582169558473 475.6 L 65.77521512202006 475.6 L 69.47460854845538 481.9 L 73.1740019748907 481.9 L 76.87339540132602 493.6 L 80.57278882776134 493.6 L 84.27218225419666 475.9 L 87.97157568063199 475.9 L 91.67096910706731 463.6 L 95.37036253350264 463.6 L 99.06975595993796 474.2 L 102.76914938637329 476.4 L 106.46854281280861 476.4 L 110.16793623924393 476.2 L 113.86732966567925 476.2 L 117.56672309211457 478.2 L 121.2661165185499 478.2 L 124.96550994498523 467.7 L 128.66490337142054 467.7 L 132.36429679785587 432.7 L 136.06369022429118 432.7 L 139.76308365072651 475.1 L 143.46247707716185 475.1 L 147.16187050359716 442.5 L 150.8612639300325 442.5 L 154.5606573564678 414.3 L 158.26005078290314 414.3 L 161.95944420933844 469.9 L 165.65883763577378 469.9 L 169.35823106220911 483.7 L 173.05762448864442 483.7 L 176.75701791507976 493 L 180.45641134151506 493 L 184.1558047679504 470.8 L 187.8551981943857 470.8 L 191.55459162082104 465.3 L 195.25398504725635 465.3 L 198.95337847369169 475 L 202.65277190012702 475 L 206.35216532656233 469.3 L 210.05155875299766 469.3 L 213.75095217943297 473.3 L 217.4503456058683 473.3 L 221.14973903230361 477.3 L 224.84913245873895 477.3 L 228.54852588517429 496.4 L 232.2479193116096 496.4 L 235.94731273804493 510.4 L 239.64670616448024 510.4 L 243.34609959091557 502.2 L 247.04549301735088 502.2 L 250.7448864437862 475 L 254.44427987022152 475 L 258.14367329665686 454 L 261.8430667230922 454 L 265.5424601495275 471.5 L 269.2418535759628 471.5 L 272.94124700239814 448.2 L 276.6406404288335 448.2 L 280.3400338552688 454 L 284.0394272817041 454 L 287.73882070813943 355.4 L 291.43821413457476 355.4 L 295.1376075610101 274.3 L 298.83700098744544 274.3 L 302.5363944138807 290.7 L 306.23578784031605 290.7 L 309.9351812667514 277 L 313.6345746931867 277 L 317.33396811962206 300.3 L 321.03336154605734 284.1 L 324.73275497249267 284.1 L 328.432148398928 277.5 L 332.13154182536334 338 L 335.8309352517986 338 L 339.53032867823396 344.2 L 343.2297221046693 344.2 L 346.9291155311046 372.6 L 350.62850895753996 372.6 L 354.32790238397524 366.1 L 358.0272958104106 366.1 L 361.7266892368459 365.2 L 365.42608266328125 365.2 L 369.1254760897165 368.9 L 372.82486951615186 368.9 L 376.5242629425872 367.7 L 380.22365636902254 367.7 L 383.92304979545787 366.7 L 387.62244322189315 366.7 L 391.3218366483285 367.1 L 395.0212300747638 367.1 L 398.72062350119916 380.2 L 402.42001692763444 380.2 L 406.11941035406977 383.5 L 409.8188037805051 383.5 L 413.51819720694044 354.1 L 417.2175906333758 354.1 L 420.91698405981106 357.2 L 424.6163774862464 357.2 L 428.3157709126817 367.7 L 432.01516433911706 367.7 L 435.7145577655524 369.4 L 439.4139511919877 369.4 L 443.113344618423 369.7 L 446.81273804485835 369.7 L 450.5121314712937 370.2 L 454.21152489772896 370.2 L 457.9109183241643 396.1 L 461.61031175059964 396.1 L 465.30970517703497 407.8 L 469.0090986034703 407.8 L 472.7084920299056 386.7 L 476.4078854563409 386.7 L 480.10727888277626 367.6 L 483.8066723092116 367.6 L 487.50606573564687 369.2 L 491.2054591620822 357.5 L 494.90485258851754 357.5 L 498.6042460149529 353.3 L 502.3036394413882 374.3 L 506.0030328678235 373.3 L 509.7024262942588 373.3 L 513.4018197206941 366.2 L 517.1012131471294 366.2 L 520.8006065735648 146.8 L 524.5000000000001 146.8 L 528.1993934264354 31.6 L 531.8987868528708 31.6 L 535.5981802793061 14 L 539.2975737057415 14 L 542.9969671321768 12.9 L 546.696360558612 12.9 L 550.3957539850473 12.5 L 554.0951474114827 12.5 L 557.794540837918 13.5 L 561.4939342643534 13.5 L 565.1933276907887 12.9 L 568.892721117224 12.9 L 572.5921145436594 14.9 L 576.2915079700947 14.9 L 579.9909013965299 35.4 L 583.6902948229653 35.4 L 587.3896882494006 33.4 L 591.0890816758359 33.4 L 594.7884751022713 19.4 L 598.4878685287066 19.4 L 602.1872619551419 25.8 L 605.8866553815773 53.6 L 609.5860488080126 53.6 L 613.2854422344479 46.3 L 616.9848356608832 46.3 L 620.6842290873185 46.5 L 624.3836225137538 46.5 L 628.0830159401892 51.8 L 631.7824093666245 51.8 L 635.4818027930598 241.3 L 639.1811962194952 241.3 L 642.8805896459305 433.8 L 646.5799830723658 433.8 L 650.2793764988011 420.1 L 653.9787699252364 420.1 L 657.6781633516717 423.1 L 661.3775567781071 423.1 L 665.0769502045424 383 L 668.7763436309777 383 L 672.4757370574131 398.2 L 676.1751304838484 398.2 L 679.8745239102838 159 L 683.573917336719 76.2 L 687.2733107631543 76.2 L 690.9727041895896 137.1 L 694.672097616025 137.1 L 698.3714910424603 413.4 L 702.0708844688957 413.4 L 705.770277895331 468.2 L 709.4696713217663 468.2 L 713.1690647482017 467.5 L 716.8684581746369 467.5 L 720.5678516010722 467.9 L 724.2672450275076 467.9 L 727.9666384539429 434.6 L 731.6660318803782 434.6 L 735.3654253068136 164.7 L 739.0648187332489 164.7 L 742.7642121596842 77.1 L 746.4636055861196 77.1 L 750.1629990125548 80.9 L 753.8623924389901 80.9 L 757.5617858654255 110.5 L 761.2611792918608 110.5 L 764.9605727182961 347.4 L 768.6599661447315 347.4 L 772.3593595711668 466.6 L 776.0587529976021 466.6 L 779.7581464240375 467.9 L 783.4575398504727 465.3 L 787.156933276908 465.3 L 790.8563267033434 395.6 L 794.5557201297787 395.6 L 798.255113556214 464.4 L 801.9545069826494 464.4 L 805.6539004090847 503.6 L 809.35329383552 503.6 L 813.0526872619554 475.7 L 816.7520806883906 475.7 L 820.4514741148259 468.1 L 824.1508675412613 468.1 L 827.8502609676966 390.3 L 831.549654394132 390.3 L 835.2490478205673 397 L 838.9484412470026 397 L 842.647834673438 468.3 L 846.3472280998733 468.3 L 850.0466215263086 438.9 L 853.7460149527438 438.9 L 857.4454083791792 388.5 L 861.1448018056145 388.5 L 864.8441952320499 470.1 L 868.5435886584852 470.1 L 872.2429820849205 457 L 875.9423755113559 467.1 L 879.6417689377912 467.1 L 883.3411623642265 409.9 L 887.0405557906618 409.9 L 890.7399492170971 406.2 L 894.4393426435324 406.2 L 898.1387360699678 447.5 L 901.8381294964031 447.5 L 905.5375229228384 448.2 L 909.2369163492738 448.2 L 912.9363097757091 502 L 916.6357032021444 502 L 920.3350966285797 495.5 L 924.034490055015 495.5 L 927.7338834814503 471.5 L 931.4332769078857 471.5 L 935.132670334321 469.2 L 938.8320637607563 469.2 L 942.5314571871917 468.2 L 946.230850613627 468.2 L 949.9302440400622 469.2 L 953.6296374664976 469.2 L 957.3290308929328 467.9 L 961.0284243193681 467.9 L 964.7278177458035 450.8 L 968.4272111722388 450.8 L 972.1266045986741 450.4 L 975.8259980251095 450.4 L 979.5253914515448 470.8 L 983.2247848779801 470.8 L 986.9241783044155 452.3 L 990.6235717308507 452.3 L 994.322965157286 457 L 998.0223585837214 457 L 1001.7217520101567 468.2 L 1005.421145436592 468.2 L 1009.1205388630274 460.1 L 1012.8199322894627 460.1 L 1016.519325715898 466.6 L 1020.2187191423334 466.6 L 1023.9181125687686 454.9 L 1027.617505995204 454.9 L 1031.3168994216394 474 L 1035.0162928480747 474 L 1038.71568627451 507.5" stroke="#c42525" stroke-width="1" zIndex="1"></path></g><g class="highcharts-markers" visibility="visible" zIndex="0.1" transform="translate(60,10) scale(1 1)" clip-path="none"><path fill="none" d="M 0.2843137254901986 509.3 L 10.284313725490199 509.3 L 13.983707151925522 509.3 L 17.683100578360847 506.4 L 21.38249400479617 506.4 L 25.081887431231493 484.5 L 28.781280857666815 484.5 L 32.48067428410214 475.5 L 36.180067710537465 475.5 L 39.879461136972786 476.9 L 43.578854563408115 476.9 L 47.278247989843436 475.8 L 50.97764141627876 475.8 L 54.67703484271408 476.8 L 58.37642826914941 476.8 L 62.07582169558473 475.6 L 65.77521512202006 475.6 L 69.47460854845538 481.9 L 73.1740019748907 481.9 L 76.87339540132602 493.6 L 80.57278882776134 493.6 L 84.27218225419666 475.9 L 87.97157568063199 475.9 L 91.67096910706731 463.6 L 95.37036253350264 463.6 L 99.06975595993796 474.2 L 102.76914938637329 476.4 L 106.46854281280861 476.4 L 110.16793623924393 476.2 L 113.86732966567925 476.2 L 117.56672309211457 478.2 L 121.2661165185499 478.2 L 124.96550994498523 467.7 L 128.66490337142054 467.7 L 132.36429679785587 432.7 L 136.06369022429118 432.7 L 139.76308365072651 475.1 L 143.46247707716185 475.1 L 147.16187050359716 442.5 L 150.8612639300325 442.5 L 154.5606573564678 414.3 L 158.26005078290314 414.3 L 161.95944420933844 469.9 L 165.65883763577378 469.9 L 169.35823106220911 483.7 L 173.05762448864442 483.7 L 176.75701791507976 493 L 180.45641134151506 493 L 184.1558047679504 470.8 L 187.8551981943857 470.8 L 191.55459162082104 465.3 L 195.25398504725635 465.3 L 198.95337847369169 475 L 202.65277190012702 475 L 206.35216532656233 469.3 L 210.05155875299766 469.3 L 213.75095217943297 473.3 L 217.4503456058683 473.3 L 221.14973903230361 477.3 L 224.84913245873895 477.3 L 228.54852588517429 496.4 L 232.2479193116096 496.4 L 235.94731273804493 510.4 L 239.64670616448024 510.4 L 243.34609959091557 502.2 L 247.04549301735088 502.2 L 250.7448864437862 475 L 254.44427987022152 475 L 258.14367329665686 454 L 261.8430667230922 454 L 265.5424601495275 471.5 L 269.2418535759628 471.5 L 272.94124700239814 448.2 L 276.6406404288335 448.2 L 280.3400338552688 454 L 284.0394272817041 454 L 287.73882070813943 355.4 L 291.43821413457476 355.4 L 295.1376075610101 274.3 L 298.83700098744544 274.3 L 302.5363944138807 290.7 L 306.23578784031605 290.7 L 309.9351812667514 277 L 313.6345746931867 277 L 317.33396811962206 300.3 L 321.03336154605734 284.1 L 324.73275497249267 284.1 L 328.432148398928 277.5 L 332.13154182536334 338 L 335.8309352517986 338 L 339.53032867823396 344.2 L 343.2297221046693 344.2 L 346.9291155311046 372.6 L 350.62850895753996 372.6 L 354.32790238397524 366.1 L 358.0272958104106 366.1 L 361.7266892368459 365.2 L 365.42608266328125 365.2 L 369.1254760897165 368.9 L 372.82486951615186 368.9 L 376.5242629425872 367.7 L 380.22365636902254 367.7 L 383.92304979545787 366.7 L 387.62244322189315 366.7 L 391.3218366483285 367.1 L 395.0212300747638 367.1 L 398.72062350119916 380.2 L 402.42001692763444 380.2 L 406.11941035406977 383.5 L 409.8188037805051 383.5 L 413.51819720694044 354.1 L 417.2175906333758 354.1 L 420.91698405981106 357.2 L 424.6163774862464 357.2 L 428.3157709126817 367.7 L 432.01516433911706 367.7 L 435.7145577655524 369.4 L 439.4139511919877 369.4 L 443.113344618423 369.7 L 446.81273804485835 369.7 L 450.5121314712937 370.2 L 454.21152489772896 370.2 L 457.9109183241643 396.1 L 461.61031175059964 396.1 L 465.30970517703497 407.8 L 469.0090986034703 407.8 L 472.7084920299056 386.7 L 476.4078854563409 386.7 L 480.10727888277626 367.6 L 483.8066723092116 367.6 L 487.50606573564687 369.2 L 491.2054591620822 357.5 L 494.90485258851754 357.5 L 498.6042460149529 353.3 L 502.3036394413882 374.3 L 506.0030328678235 373.3 L 509.7024262942588 373.3 L 513.4018197206941 366.2 L 517.1012131471294 366.2 L 520.8006065735648 146.8 L 524.5000000000001 146.8 L 528.1993934264354 31.6 L 531.8987868528708 31.6 L 535.5981802793061 14 L 539.2975737057415 14 L 542.9969671321768 12.9 L 546.696360558612 12.9 L 550.3957539850473 12.5 L 554.0951474114827 12.5 L 557.794540837918 13.5 L 561.4939342643534 13.5 L 565.1933276907887 12.9 L 568.892721117224 12.9 L 572.5921145436594 14.9 L 576.2915079700947 14.9 L 579.9909013965299 35.4 L 583.6902948229653 35.4 L 587.3896882494006 33.4 L 591.0890816758359 33.4 L 594.7884751022713 19.4 L 598.4878685287066 19.4 L 602.1872619551419 25.8 L 605.8866553815773 53.6 L 609.5860488080126 53.6 L 613.2854422344479 46.3 L 616.9848356608832 46.3 L 620.6842290873185 46.5 L 624.3836225137538 46.5 L 628.0830159401892 51.8 L 631.7824093666245 51.8 L 635.4818027930598 241.3 L 639.1811962194952 241.3 L 642.8805896459305 433.8 L 646.5799830723658 433.8 L 650.2793764988011 420.1 L 653.9787699252364 420.1 L 657.6781633516717 423.1 L 661.3775567781071 423.1 L 665.0769502045424 383 L 668.7763436309777 383 L 672.4757370574131 398.2 L 676.1751304838484 398.2 L 679.8745239102838 159 L 683.573917336719 76.2 L 687.2733107631543 76.2 L 690.9727041895896 137.1 L 694.672097616025 137.1 L 698.3714910424603 413.4 L 702.0708844688957 413.4 L 705.770277895331 468.2 L 709.4696713217663 468.2 L 713.1690647482017 467.5 L 716.8684581746369 467.5 L 720.5678516010722 467.9 L 724.2672450275076 467.9 L 727.9666384539429 434.6 L 731.6660318803782 434.6 L 735.3654253068136 164.7 L 739.0648187332489 164.7 L 742.7642121596842 77.1 L 746.4636055861196 77.1 L 750.1629990125548 80.9 L 753.8623924389901 80.9 L 757.5617858654255 110.5 L 761.2611792918608 110.5 L 764.9605727182961 347.4 L 768.6599661447315 347.4 L 772.3593595711668 466.6 L 776.0587529976021 466.6 L 779.7581464240375 467.9 L 783.4575398504727 465.3 L 787.156933276908 465.3 L 790.8563267033434 395.6 L 794.5557201297787 395.6 L 798.255113556214 464.4 L 801.9545069826494 464.4 L 805.6539004090847 503.6 L 809.35329383552 503.6 L 813.0526872619554 475.7 L 816.7520806883906 475.7 L 820.4514741148259 468.1 L 824.1508675412613 468.1 L 827.8502609676966 390.3 L 831.549654394132 390.3 L 835.2490478205673 397 L 838.9484412470026 397 L 842.647834673438 468.3 L 846.3472280998733 468.3 L 850.0466215263086 438.9 L 853.7460149527438 438.9 L 857.4454083791792 388.5 L 861.1448018056145 388.5 L 864.8441952320499 470.1 L 868.5435886584852 470.1 L 872.2429820849205 457 L 875.9423755113559 467.1 L 879.6417689377912 467.1 L 883.3411623642265 409.9 L 887.0405557906618 409.9 L 890.7399492170971 406.2 L 894.4393426435324 406.2 L 898.1387360699678 447.5 L 901.8381294964031 447.5 L 905.5375229228384 448.2 L 909.2369163492738 448.2 L 912.9363097757091 502 L 916.6357032021444 502 L 920.3350966285797 495.5 L 924.034490055015 495.5 L 927.7338834814503 471.5 L 931.4332769078857 471.5 L 935.132670334321 469.2 L 938.8320637607563 469.2 L 942.5314571871917 468.2 L 946.230850613627 468.2 L 949.9302440400622 469.2 L 953.6296374664976 469.2 L 957.3290308929328 467.9 L 961.0284243193681 467.9 L 964.7278177458035 450.8 L 968.4272111722388 450.8 L 972.1266045986741 450.4 L 975.8259980251095 450.4 L 979.5253914515448 470.8 L 983.2247848779801 470.8 L 986.9241783044155 452.3 L 990.6235717308507 452.3 L 994.322965157286 457 L 998.0223585837214 457 L 1001.7217520101567 468.2 L 1005.421145436592 468.2 L 1009.1205388630274 460.1 L 1012.8199322894627 460.1 L 1016.519325715898 466.6 L 1020.2187191423334 466.6 L 1023.9181125687686 454.9 L 1027.617505995204 454.9 L 1031.3168994216394 474 L 1035.0162928480747 474 L 1038.71568627451 507.5 L 1048.71568627451 507.5" class="highcharts-tracker highcharts-tracker" stroke-linejoin="round" visibility="visible" stroke-opacity="0.0001" stroke="rgb(192,192,192)" stroke-width="21" zIndex="2" style=""></path></g><g class="highcharts-series" visibility="visible" zIndex="0.1" transform="translate(60,10) scale(1 1)" clip-path="url(#highcharts-1)"><path fill="none" d="M 10.284313725490199 479.8 L 13.983707151925522 485.3 L 17.683100578360847 485.3 L 21.38249400479617 471 L 25.081887431231493 471 L 28.781280857666815 475.2 L 32.48067428410214 475.2 L 36.180067710537465 475.9 L 39.879461136972786 475.9 L 43.578854563408115 475.5 L 47.278247989843436 475.5 L 50.97764141627876 471.9 L 54.67703484271408 471.9 L 58.37642826914941 456.5 L 62.07582169558473 456.5 L 65.77521512202006 486.7 L 69.47460854845538 486.7 L 73.1740019748907 483 L 76.87339540132602 483 L 80.57278882776134 462.9 L 84.27218225419666 462.9 L 87.97157568063199 473.1 L 91.67096910706731 476.1 L 95.37036253350264 476.1 L 99.06975595993796 475.7 L 102.76914938637329 475.7 L 106.46854281280861 474.6 L 110.16793623924393 474.6 L 113.86732966567925 484 L 117.56672309211457 484 L 121.2661165185499 503.9 L 124.96550994498523 503.9 L 128.66490337142054 476.7 L 132.36429679785587 477.9 L 136.06369022429118 473.4 L 139.76308365072651 473.4 L 143.46247707716185 476.8 L 147.16187050359716 476.8 L 150.8612639300325 475.1 L 154.5606573564678 475.1 L 158.26005078290314 475.6 L 161.95944420933844 475.6 L 165.65883763577378 475.2 L 169.35823106220911 475.2 L 173.05762448864442 478.2 L 176.75701791507976 478.2 L 180.45641134151506 493.4 L 184.1558047679504 493.4 L 187.8551981943857 481.5 L 191.55459162082104 481.5 L 195.25398504725635 464.7 L 198.95337847369169 464.7 L 202.65277190012702 474.7 L 206.35216532656233 474.7 L 210.05155875299766 475.5 L 213.75095217943297 475.5 L 217.4503456058683 476.4 L 221.14973903230361 475.7 L 224.84913245873895 475.7 L 228.54852588517429 487.2 L 232.2479193116096 487.2 L 235.94731273804493 507.5 L 239.64670616448024 507.5 L 243.34609959091557 506.7 L 247.04549301735088 506.7 L 250.7448864437862 485.6 L 254.44427987022152 485.6 L 258.14367329665686 477.2 L 261.8430667230922 477.2 L 265.5424601495275 477.3 L 269.2418535759628 477.3 L 272.94124700239814 474.6 L 276.6406404288335 474.6 L 280.3400338552688 475.5 L 284.0394272817041 475.5 L 287.73882070813943 474.4 L 291.43821413457476 474.4 L 295.1376075610101 457.5 L 298.83700098744544 457.5 L 302.5363944138807 437.6 L 306.23578784031605 437.6 L 309.9351812667514 447.3 L 313.6345746931867 474.9 L 317.33396811962206 476.7 L 321.03336154605734 476.7 L 324.73275497249267 470.7 L 328.432148398928 470.7 L 332.13154182536334 415.9 L 335.8309352517986 431.8 L 339.53032867823396 431.8 L 343.2297221046693 463.8 L 346.9291155311046 463.8 L 350.62850895753996 434.5 L 354.32790238397524 434.5 L 358.0272958104106 470.1 L 361.7266892368459 470.1 L 365.42608266328125 473.7 L 369.1254760897165 473.7 L 372.82486951615186 475.5 L 376.5242629425872 475.5 L 380.22365636902254 474.3 L 383.92304979545787 474.3 L 387.62244322189315 446.9 L 391.3218366483285 446.9 L 395.0212300747638 464.3 L 398.72062350119916 464.3 L 402.42001692763444 491.5 L 406.11941035406977 491.5 L 409.8188037805051 470.4 L 413.51819720694044 470.4 L 417.2175906333758 464.4 L 420.91698405981106 464.4 L 424.6163774862464 475.2 L 428.3157709126817 475.2 L 432.01516433911706 475 L 435.7145577655524 475 L 439.4139511919877 474.9 L 443.113344618423 474.9 L 446.81273804485835 476.2 L 450.5121314712937 476.2 L 454.21152489772896 495.6 L 457.9109183241643 495.6 L 461.61031175059964 509.4 L 465.30970517703497 509.4 L 469.0090986034703 503.3 L 472.7084920299056 503.3 L 476.4078854563409 479.9 L 480.10727888277626 479.9 L 483.8066723092116 477.3 L 487.50606573564687 477.3 L 491.2054591620822 475.3 L 494.90485258851754 475.8 L 498.6042460149529 475.1 L 502.3036394413882 474.9 L 506.0030328678235 474.9 L 509.7024262942588 485.7 L 513.4018197206941 485.7 L 517.1012131471294 491.9 L 520.8006065735648 491.9 L 524.5000000000001 470.8 L 528.1993934264354 470.8 L 531.8987868528708 468.8 L 535.5981802793061 468.8 L 539.2975737057415 475.2 L 542.9969671321768 475.2 L 546.696360558612 475.9 L 550.3957539850473 475.9 L 554.0951474114827 475 L 557.794540837918 475 L 561.4939342643534 461.9 L 565.1933276907887 461.9 L 568.892721117224 492.9 L 572.5921145436594 492.9 L 576.2915079700947 506 L 579.9909013965299 506 L 583.6902948229653 494.6 L 587.3896882494006 494.6 L 591.0890816758359 476.6 L 594.7884751022713 476.6 L 598.4878685287066 477.3 L 602.1872619551419 477.3 L 605.8866553815773 474.3 L 609.5860488080126 474.3 L 613.2854422344479 472.4 L 616.9848356608832 472.4 L 620.6842290873185 469.7 L 624.3836225137538 469.7 L 628.0830159401892 467.8 L 631.7824093666245 467.8 L 635.4818027930598 458.1 L 639.1811962194952 458.1 L 642.8805896459305 456.6 L 646.5799830723658 456.6 L 650.2793764988011 458.8 L 653.9787699252364 458.8 L 657.6781633516717 470.8 L 661.3775567781071 470.8 L 665.0769502045424 475.9 L 668.7763436309777 475.9 L 672.4757370574131 475 L 676.1751304838484 465.5 L 679.8745239102838 505.8 L 683.573917336719 505.8 L 687.2733107631543 490.1 L 690.9727041895896 490.1 L 694.672097616025 473.1 L 698.3714910424603 473.1 L 702.0708844688957 475.3 L 705.770277895331 475.7 L 709.4696713217663 475.7 L 713.1690647482017 475.5 L 716.8684581746369 475.5 L 720.5678516010722 475.8 L 724.2672450275076 475.8 L 727.9666384539429 476.7 L 731.6660318803782 476.7 L 735.3654253068136 490.3 L 739.0648187332489 490.3 L 742.7642121596842 487.1 L 746.4636055861196 487.1 L 750.1629990125548 465.7 L 753.8623924389901 465.7 L 757.5617858654255 472.6 L 761.2611792918608 472.6 L 764.9605727182961 475.9 L 768.6599661447315 475.9 L 772.3593595711668 474.3 L 776.0587529976021 474.3 L 779.7581464240375 476.7 L 783.4575398504727 476.7 L 787.156933276908 481.3 L 790.8563267033434 481.3 L 794.5557201297787 504.8 L 798.255113556214 504.8 L 801.9545069826494 509.2 L 805.6539004090847 509.2 L 809.35329383552 491.4 L 813.0526872619554 476.9 L 816.7520806883906 476.9 L 820.4514741148259 476.1 L 824.1508675412613 476.1 L 827.8502609676966 475.2 L 831.549654394132 475.2 L 835.2490478205673 474.7 L 838.9484412470026 474.7 L 842.647834673438 474.7 L 846.3472280998733 474.7 L 850.0466215263086 478 L 853.7460149527438 478 L 857.4454083791792 484.5 L 861.1448018056145 484.5 L 864.8441952320499 464.4 L 868.5435886584852 464.4 L 872.2429820849205 472.8 L 875.9423755113559 472.8 L 879.6417689377912 475.6 L 883.3411623642265 475.6 L 887.0405557906618 475.7 L 890.7399492170971 475.7 L 894.4393426435324 475.7 L 898.1387360699678 475.7 L 901.8381294964031 485.4 L 905.5375229228384 485.4 L 909.2369163492738 506.5 L 912.9363097757091 506.5 L 916.6357032021444 508.1 L 920.3350966285797 508.1 L 924.034490055015 488 L 927.7338834814503 488 L 931.4332769078857 476.8 L 935.132670334321 476.8 L 938.8320637607563 475.9 L 942.5314571871917 475 L 946.230850613627 475 L 949.9302440400622 476 L 953.6296374664976 476 L 957.3290308929328 475.9 L 961.0284243193681 475.9 L 964.7278177458035 478.6 L 968.4272111722388 478.6 L 972.1266045986741 493 L 975.8259980251095 493 L 979.5253914515448 480.6 L 983.2247848779801 480.6 L 986.9241783044155 465.7 L 990.6235717308507 465.7 L 994.322965157286 475 L 998.0223585837214 475 L 1001.7217520101567 476 L 1005.421145436592 476 L 1009.1205388630274 472.5 L 1012.8199322894627 472.5 L 1016.519325715898 425.2 L 1020.2187191423334 425.2 L 1023.9181125687686 454.2 L 1027.617505995204 454.2 L 1031.3168994216394 504 L 1035.0162928480747 504" stroke="#a6c96a" stroke-width="1" zIndex="1"></path></g><g class="highcharts-markers" visibility="visible" zIndex="0.1" transform="translate(60,10) scale(1 1)" clip-path="none"><path fill="none" d="M 0.2843137254901986 479.8 L 10.284313725490199 479.8 L 13.983707151925522 485.3 L 17.683100578360847 485.3 L 21.38249400479617 471 L 25.081887431231493 471 L 28.781280857666815 475.2 L 32.48067428410214 475.2 L 36.180067710537465 475.9 L 39.879461136972786 475.9 L 43.578854563408115 475.5 L 47.278247989843436 475.5 L 50.97764141627876 471.9 L 54.67703484271408 471.9 L 58.37642826914941 456.5 L 62.07582169558473 456.5 L 65.77521512202006 486.7 L 69.47460854845538 486.7 L 73.1740019748907 483 L 76.87339540132602 483 L 80.57278882776134 462.9 L 84.27218225419666 462.9 L 87.97157568063199 473.1 L 91.67096910706731 476.1 L 95.37036253350264 476.1 L 99.06975595993796 475.7 L 102.76914938637329 475.7 L 106.46854281280861 474.6 L 110.16793623924393 474.6 L 113.86732966567925 484 L 117.56672309211457 484 L 121.2661165185499 503.9 L 124.96550994498523 503.9 L 128.66490337142054 476.7 L 132.36429679785587 477.9 L 136.06369022429118 473.4 L 139.76308365072651 473.4 L 143.46247707716185 476.8 L 147.16187050359716 476.8 L 150.8612639300325 475.1 L 154.5606573564678 475.1 L 158.26005078290314 475.6 L 161.95944420933844 475.6 L 165.65883763577378 475.2 L 169.35823106220911 475.2 L 173.05762448864442 478.2 L 176.75701791507976 478.2 L 180.45641134151506 493.4 L 184.1558047679504 493.4 L 187.8551981943857 481.5 L 191.55459162082104 481.5 L 195.25398504725635 464.7 L 198.95337847369169 464.7 L 202.65277190012702 474.7 L 206.35216532656233 474.7 L 210.05155875299766 475.5 L 213.75095217943297 475.5 L 217.4503456058683 476.4 L 221.14973903230361 475.7 L 224.84913245873895 475.7 L 228.54852588517429 487.2 L 232.2479193116096 487.2 L 235.94731273804493 507.5 L 239.64670616448024 507.5 L 243.34609959091557 506.7 L 247.04549301735088 506.7 L 250.7448864437862 485.6 L 254.44427987022152 485.6 L 258.14367329665686 477.2 L 261.8430667230922 477.2 L 265.5424601495275 477.3 L 269.2418535759628 477.3 L 272.94124700239814 474.6 L 276.6406404288335 474.6 L 280.3400338552688 475.5 L 284.0394272817041 475.5 L 287.73882070813943 474.4 L 291.43821413457476 474.4 L 295.1376075610101 457.5 L 298.83700098744544 457.5 L 302.5363944138807 437.6 L 306.23578784031605 437.6 L 309.9351812667514 447.3 L 313.6345746931867 474.9 L 317.33396811962206 476.7 L 321.03336154605734 476.7 L 324.73275497249267 470.7 L 328.432148398928 470.7 L 332.13154182536334 415.9 L 335.8309352517986 431.8 L 339.53032867823396 431.8 L 343.2297221046693 463.8 L 346.9291155311046 463.8 L 350.62850895753996 434.5 L 354.32790238397524 434.5 L 358.0272958104106 470.1 L 361.7266892368459 470.1 L 365.42608266328125 473.7 L 369.1254760897165 473.7 L 372.82486951615186 475.5 L 376.5242629425872 475.5 L 380.22365636902254 474.3 L 383.92304979545787 474.3 L 387.62244322189315 446.9 L 391.3218366483285 446.9 L 395.0212300747638 464.3 L 398.72062350119916 464.3 L 402.42001692763444 491.5 L 406.11941035406977 491.5 L 409.8188037805051 470.4 L 413.51819720694044 470.4 L 417.2175906333758 464.4 L 420.91698405981106 464.4 L 424.6163774862464 475.2 L 428.3157709126817 475.2 L 432.01516433911706 475 L 435.7145577655524 475 L 439.4139511919877 474.9 L 443.113344618423 474.9 L 446.81273804485835 476.2 L 450.5121314712937 476.2 L 454.21152489772896 495.6 L 457.9109183241643 495.6 L 461.61031175059964 509.4 L 465.30970517703497 509.4 L 469.0090986034703 503.3 L 472.7084920299056 503.3 L 476.4078854563409 479.9 L 480.10727888277626 479.9 L 483.8066723092116 477.3 L 487.50606573564687 477.3 L 491.2054591620822 475.3 L 494.90485258851754 475.8 L 498.6042460149529 475.1 L 502.3036394413882 474.9 L 506.0030328678235 474.9 L 509.7024262942588 485.7 L 513.4018197206941 485.7 L 517.1012131471294 491.9 L 520.8006065735648 491.9 L 524.5000000000001 470.8 L 528.1993934264354 470.8 L 531.8987868528708 468.8 L 535.5981802793061 468.8 L 539.2975737057415 475.2 L 542.9969671321768 475.2 L 546.696360558612 475.9 L 550.3957539850473 475.9 L 554.0951474114827 475 L 557.794540837918 475 L 561.4939342643534 461.9 L 565.1933276907887 461.9 L 568.892721117224 492.9 L 572.5921145436594 492.9 L 576.2915079700947 506 L 579.9909013965299 506 L 583.6902948229653 494.6 L 587.3896882494006 494.6 L 591.0890816758359 476.6 L 594.7884751022713 476.6 L 598.4878685287066 477.3 L 602.1872619551419 477.3 L 605.8866553815773 474.3 L 609.5860488080126 474.3 L 613.2854422344479 472.4 L 616.9848356608832 472.4 L 620.6842290873185 469.7 L 624.3836225137538 469.7 L 628.0830159401892 467.8 L 631.7824093666245 467.8 L 635.4818027930598 458.1 L 639.1811962194952 458.1 L 642.8805896459305 456.6 L 646.5799830723658 456.6 L 650.2793764988011 458.8 L 653.9787699252364 458.8 L 657.6781633516717 470.8 L 661.3775567781071 470.8 L 665.0769502045424 475.9 L 668.7763436309777 475.9 L 672.4757370574131 475 L 676.1751304838484 465.5 L 679.8745239102838 505.8 L 683.573917336719 505.8 L 687.2733107631543 490.1 L 690.9727041895896 490.1 L 694.672097616025 473.1 L 698.3714910424603 473.1 L 702.0708844688957 475.3 L 705.770277895331 475.7 L 709.4696713217663 475.7 L 713.1690647482017 475.5 L 716.8684581746369 475.5 L 720.5678516010722 475.8 L 724.2672450275076 475.8 L 727.9666384539429 476.7 L 731.6660318803782 476.7 L 735.3654253068136 490.3 L 739.0648187332489 490.3 L 742.7642121596842 487.1 L 746.4636055861196 487.1 L 750.1629990125548 465.7 L 753.8623924389901 465.7 L 757.5617858654255 472.6 L 761.2611792918608 472.6 L 764.9605727182961 475.9 L 768.6599661447315 475.9 L 772.3593595711668 474.3 L 776.0587529976021 474.3 L 779.7581464240375 476.7 L 783.4575398504727 476.7 L 787.156933276908 481.3 L 790.8563267033434 481.3 L 794.5557201297787 504.8 L 798.255113556214 504.8 L 801.9545069826494 509.2 L 805.6539004090847 509.2 L 809.35329383552 491.4 L 813.0526872619554 476.9 L 816.7520806883906 476.9 L 820.4514741148259 476.1 L 824.1508675412613 476.1 L 827.8502609676966 475.2 L 831.549654394132 475.2 L 835.2490478205673 474.7 L 838.9484412470026 474.7 L 842.647834673438 474.7 L 846.3472280998733 474.7 L 850.0466215263086 478 L 853.7460149527438 478 L 857.4454083791792 484.5 L 861.1448018056145 484.5 L 864.8441952320499 464.4 L 868.5435886584852 464.4 L 872.2429820849205 472.8 L 875.9423755113559 472.8 L 879.6417689377912 475.6 L 883.3411623642265 475.6 L 887.0405557906618 475.7 L 890.7399492170971 475.7 L 894.4393426435324 475.7 L 898.1387360699678 475.7 L 901.8381294964031 485.4 L 905.5375229228384 485.4 L 909.2369163492738 506.5 L 912.9363097757091 506.5 L 916.6357032021444 508.1 L 920.3350966285797 508.1 L 924.034490055015 488 L 927.7338834814503 488 L 931.4332769078857 476.8 L 935.132670334321 476.8 L 938.8320637607563 475.9 L 942.5314571871917 475 L 946.230850613627 475 L 949.9302440400622 476 L 953.6296374664976 476 L 957.3290308929328 475.9 L 961.0284243193681 475.9 L 964.7278177458035 478.6 L 968.4272111722388 478.6 L 972.1266045986741 493 L 975.8259980251095 493 L 979.5253914515448 480.6 L 983.2247848779801 480.6 L 986.9241783044155 465.7 L 990.6235717308507 465.7 L 994.322965157286 475 L 998.0223585837214 475 L 1001.7217520101567 476 L 1005.421145436592 476 L 1009.1205388630274 472.5 L 1012.8199322894627 472.5 L 1016.519325715898 425.2 L 1020.2187191423334 425.2 L 1023.9181125687686 454.2 L 1027.617505995204 454.2 L 1031.3168994216394 504 L 1035.0162928480747 504 L 1045.0162928480747 504" class="highcharts-tracker highcharts-tracker" stroke-linejoin="round" visibility="visible" stroke-opacity="0.0001" stroke="rgb(192,192,192)" stroke-width="21" zIndex="2" style=""></path></g></g><g class="highcharts-axis-labels" zIndex="7"><text x="70.2843137254902" y="586" style="font-family:&quot;Lucida Grande&quot;, &quot;Lucida Sans Unicode&quot;, Verdana, Arial, Helvetica, sans-serif;font-size:11px;color:#666;cursor:default;line-height:14px;fill:#666;" text-anchor="middle" opacity="1"><tspan x="70.2843137254902">0</tspan></text><text x="810.1629990125548" y="586" style="font-family:&quot;Lucida Grande&quot;, &quot;Lucida Sans Unicode&quot;, Verdana, Arial, Helvetica, sans-serif;font-size:11px;color:#666;cursor:default;line-height:14px;fill:#666;" text-anchor="middle" opacity="1"><tspan x="810.1629990125548">200</tspan></text><text x="162.76914938637327" y="586" style="font-family:&quot;Lucida Grande&quot;, &quot;Lucida Sans Unicode&quot;, Verdana, Arial, Helvetica, sans-serif;font-size:11px;color:#666;cursor:default;line-height:14px;fill:#666;" text-anchor="middle" opacity="1"><tspan x="162.76914938637327">25</tspan></text><text x="255.25398504725635" y="586" style="font-family:&quot;Lucida Grande&quot;, &quot;Lucida Sans Unicode&quot;, Verdana, Arial, Helvetica, sans-serif;font-size:11px;color:#666;cursor:default;line-height:14px;fill:#666;" text-anchor="middle" opacity="1"><tspan x="255.25398504725635">50</tspan></text><text x="347.73882070813943" y="586" style="font-family:&quot;Lucida Grande&quot;, &quot;Lucida Sans Unicode&quot;, Verdana, Arial, Helvetica, sans-serif;font-size:11px;color:#666;cursor:default;line-height:14px;fill:#666;" text-anchor="middle" opacity="1"><tspan x="347.73882070813943">75</tspan></text><text x="440.22365636902254" y="586" style="font-family:&quot;Lucida Grande&quot;, &quot;Lucida Sans Unicode&quot;, Verdana, Arial, Helvetica, sans-serif;font-size:11px;color:#666;cursor:default;line-height:14px;fill:#666;" text-anchor="middle" opacity="1"><tspan x="440.22365636902254">100</tspan></text><text x="532.7084920299055" y="586" style="font-family:&quot;Lucida Grande&quot;, &quot;Lucida Sans Unicode&quot;, Verdana, Arial, Helvetica, sans-serif;font-size:11px;color:#666;cursor:default;line-height:14px;fill:#666;" text-anchor="middle" opacity="1"><tspan x="532.7084920299055">125</tspan></text><text x="625.1933276907887" y="586" style="font-family:&quot;Lucida Grande&quot;, &quot;Lucida Sans Unicode&quot;, Verdana, Arial, Helvetica, sans-serif;font-size:11px;color:#666;cursor:default;line-height:14px;fill:#666;" text-anchor="middle" opacity="1"><tspan x="625.1933276907887">150</tspan></text><text x="717.6781633516717" y="586" style="font-family:&quot;Lucida Grande&quot;, &quot;Lucida Sans Unicode&quot;, Verdana, Arial, Helvetica, sans-serif;font-size:11px;color:#666;cursor:default;line-height:14px;fill:#666;" text-anchor="middle" opacity="1"><tspan x="717.6781633516717">175</tspan></text><text x="902.647834673438" y="586" style="font-family:&quot;Lucida Grande&quot;, &quot;Lucida Sans Unicode&quot;, Verdana, Arial, Helvetica, sans-serif;font-size:11px;color:#666;cursor:default;line-height:14px;fill:#666;" text-anchor="middle" opacity="1"><tspan x="902.647834673438">225</tspan></text><text x="995.132670334321" y="586" style="font-family:&quot;Lucida Grande&quot;, &quot;Lucida Sans Unicode&quot;, Verdana, Arial, Helvetica, sans-serif;font-size:11px;color:#666;cursor:default;line-height:14px;fill:#666;" text-anchor="middle" opacity="1"><tspan x="995.132670334321">250</tspan></text><text x="1087.617505995204" y="586" style="font-family:&quot;Lucida Grande&quot;, &quot;Lucida Sans Unicode&quot;, Verdana, Arial, Helvetica, sans-serif;font-size:11px;color:#666;cursor:default;line-height:14px;fill:#666;" text-anchor="middle" opacity="1"><tspan x="1087.617505995204">275</tspan></text></g><g class="highcharts-axis-labels" zIndex="7"><text x="52" y="578.115625" style="font-family:&quot;Lucida Grande&quot;, &quot;Lucida Sans Unicode&quot;, Verdana, Arial, Helvetica, sans-serif;font-size:11px;width:505px;color:#666;cursor:default;line-height:14px;fill:#666;" text-anchor="end" opacity="1"><tspan x="52">0</tspan></text><text x="52" y="507.865625" style="font-family:&quot;Lucida Grande&quot;, &quot;Lucida Sans Unicode&quot;, Verdana, Arial, Helvetica, sans-serif;font-size:11px;width:505px;color:#666;cursor:default;line-height:14px;fill:#666;" text-anchor="end" opacity="1"><tspan x="52">0.1</tspan></text><text x="52" y="437.615625" style="font-family:&quot;Lucida Grande&quot;, &quot;Lucida Sans Unicode&quot;, Verdana, Arial, Helvetica, sans-serif;font-size:11px;width:505px;color:#666;cursor:default;line-height:14px;fill:#666;" text-anchor="end" opacity="1"><tspan x="52">0.2</tspan></text><text x="52" y="367.365625" style="font-family:&quot;Lucida Grande&quot;, &quot;Lucida Sans Unicode&quot;, Verdana, Arial, Helvetica, sans-serif;font-size:11px;width:505px;color:#666;cursor:default;line-height:14px;fill:#666;" text-anchor="end" opacity="1"><tspan x="52">0.3</tspan></text><text x="52" y="297.115625" style="font-family:&quot;Lucida Grande&quot;, &quot;Lucida Sans Unicode&quot;, Verdana, Arial, Helvetica, sans-serif;font-size:11px;width:505px;color:#666;cursor:default;line-height:14px;fill:#666;" text-anchor="end" opacity="1"><tspan x="52">0.4</tspan></text><text x="52" y="226.865625" style="font-family:&quot;Lucida Grande&quot;, &quot;Lucida Sans Unicode&quot;, Verdana, Arial, Helvetica, sans-serif;font-size:11px;width:505px;color:#666;cursor:default;line-height:14px;fill:#666;" text-anchor="end" opacity="1"><tspan x="52">0.5</tspan></text><text x="52" y="156.615625" style="font-family:&quot;Lucida Grande&quot;, &quot;Lucida Sans Unicode&quot;, Verdana, Arial, Helvetica, sans-serif;font-size:11px;width:505px;color:#666;cursor:default;line-height:14px;fill:#666;" text-anchor="end" opacity="1"><tspan x="52">0.6</tspan></text><text x="52" y="86.36562500000005" style="font-family:&quot;Lucida Grande&quot;, &quot;Lucida Sans Unicode&quot;, Verdana, Arial, Helvetica, sans-serif;font-size:11px;width:505px;color:#666;cursor:default;line-height:14px;fill:#666;" text-anchor="end" opacity="1"><tspan x="52">0.7</tspan></text><text x="52" y="16.115625" style="font-family:&quot;Lucida Grande&quot;, &quot;Lucida Sans Unicode&quot;, Verdana, Arial, Helvetica, sans-serif;font-size:11px;width:505px;color:#666;cursor:default;line-height:14px;fill:#666;" text-anchor="end" opacity="1"><tspan x="52">0.8</tspan></text></g><g class="highcharts-tooltip" zIndex="8" style="cursor:default;padding:0;white-space:nowrap;" visibility="hidden" transform="translate(131,438)" opacity="0"><rect rx="3" ry="3" fill="none" x="0.5" y="0.5" width="284" height="44.203125" fill-opacity="0.85" isShadow="true" stroke="black" stroke-opacity="0.049999999999999996" stroke-width="5" transform="translate(1, 1)"></rect><rect rx="3" ry="3" fill="none" x="0.5" y="0.5" width="284" height="44.203125" fill-opacity="0.85" isShadow="true" stroke="black" stroke-opacity="0.09999999999999999" stroke-width="3" transform="translate(1, 1)"></rect><rect rx="3" ry="3" fill="none" x="0.5" y="0.5" width="284" height="44.203125" fill-opacity="0.85" isShadow="true" stroke="black" stroke-opacity="0.15" stroke-width="1" transform="translate(1, 1)"></rect><rect rx="3" ry="3" fill="rgb(255,255,255)" x="0.5" y="0.5" width="284" height="44.203125" fill-opacity="0.85" stroke="#a6c96a" stroke-width="1" anchorX="-11.64429818398169" anchorY="29.04083251953125"></rect><text x="8" y="21" style="font-family:&quot;Lucida Grande&quot;, &quot;Lucida Sans Unicode&quot;, Verdana, Arial, Helvetica, sans-serif;font-size:12px;color:#333333;fill:#333333;" zIndex="1"><tspan style="font-size: 10px" x="8">13</tspan><tspan style="fill:#a6c96a" x="8" dy="16">WiFiOff about:blank</tspan><tspan dx="0">: </tspan><tspan style="font-weight:bold" dx="0">0.15014877546349278</tspan></text></g><text x="1109" y="595" style="font-family:&quot;Lucida Grande&quot;, &quot;Lucida Sans Unicode&quot;, Verdana, Arial, Helvetica, sans-serif;font-size:9px;cursor:pointer;color:#909090;fill:#909090;" text-anchor="end" zIndex="8"><tspan x="1109">Highcharts.com</tspan></text></svg>