<svg xmlns="http://www.w3.org/2000/svg" version="1.1" width="1119" height="400"><desc>Created with Highcharts 3.0.2</desc><defs><clipPath id="highcharts-1"><rect fill="none" x="0" y="0" width="1049" height="361"></rect></clipPath></defs><rect rx="5" ry="5" fill="#FFFFFF" x="0" y="0" width="1119" height="400"></rect><g class="highcharts-grid" zIndex="1"></g><g class="highcharts-grid" zIndex="1"><path fill="none" d="M 60 312.5 L 1109 312.5" stroke="#C0C0C0" stroke-width="1" zIndex="1" opacity="1"></path><path fill="none" d="M 60 251.5 L 1109 251.5" stroke="#C0C0C0" stroke-width="1" zIndex="1" opacity="1"></path><path fill="none" d="M 60 191.5 L 1109 191.5" stroke="#C0C0C0" stroke-width="1" zIndex="1" opacity="1"></path><path fill="none" d="M 60 131.5 L 1109 131.5" stroke="#C0C0C0" stroke-width="1" zIndex="1" opacity="1"></path><path fill="none" d="M 60 70.5 L 1109 70.5" stroke="#C0C0C0" stroke-width="1" zIndex="1" opacity="1"></path><path fill="none" d="M 60 10.5 L 1109 10.5" stroke="#C0C0C0" stroke-width="1" zIndex="1" opacity="1"></path><path fill="none" d="M 60 371.5 L 1109 371.5" stroke="#C0C0C0" stroke-width="1" zIndex="1" opacity="1"></path></g><g class="highcharts-axis" zIndex="2"><path fill="none" d="M 189.5 372 L 189.5 377" stroke="#C0D0E0" stroke-width="1" opacity="1"></path><path fill="none" d="M 310.5 372 L 310.5 377" stroke="#C0D0E0" stroke-width="1" opacity="1"></path><path fill="none" d="M 430.5 372 L 430.5 377" stroke="#C0D0E0" stroke-width="1" opacity="1"></path><path fill="none" d="M 550.5 372 L 550.5 377" stroke="#C0D0E0" stroke-width="1" opacity="1"></path><path fill="none" d="M 670.5 372 L 670.5 377" stroke="#C0D0E0" stroke-width="1" opacity="1"></path><path fill="none" d="M 790.5 372 L 790.5 377" stroke="#C0D0E0" stroke-width="1" opacity="1"></path><path fill="none" d="M 910.5 372 L 910.5 377" stroke="#C0D0E0" stroke-width="1" opacity="1"></path><path fill="none" d="M 1030.5 372 L 1030.5 377" stroke="#C0D0E0" stroke-width="1" opacity="1"></path><path fill="none" d="M 69.5 372 L 69.5 377" stroke="#C0D0E0" stroke-width="1" opacity="1"></path><path fill="none" d="M 60 371.5 L 1109 371.5" stroke="#C0D0E0" stroke-width="1" zIndex="7" visibility="visible"></path></g><g class="highcharts-axis" zIndex="2"><text x="24.59375" y="191" style="font-family:&quot;Lucida Grande&quot;, &quot;Lucida Sans Unicode&quot;, Verdana, Arial, Helvetica, sans-serif;font-size:12px;color:#4d759e;font-weight:bold;fill:#4d759e;" zIndex="7" text-anchor="middle" transform="translate(0,0) rotate(270 24.59375 191)" visibility="visible"><tspan x="24.59375">Amperage</tspan></text></g><g class="highcharts-series-group" zIndex="3"><g class="highcharts-series" visibility="visible" zIndex="0.1" transform="translate(60,10) scale(1 1)" clip-path="url(#highcharts-1)"><path fill="none" d="M 10.284313725490199 283.4 L 11.485752244823166 283.4 L 12.687190764156133 286 L 13.8886292834891 286 L 15.090067802822068 284.9 L 16.291506322155033 284.9 L 17.492944841488 284 L 18.694383360820968 277.2 L 19.89582188015394 277.2 L 21.097260399486906 273.9 L 22.298698918819873 273.9 L 23.500137438152837 276.6 L 24.701575957485804 276.6 L 25.903014476818772 283.2 L 27.10445299615174 283.2 L 28.305891515484706 283.9 L 29.507330034817674 283.9 L 30.70876855415064 284.6 L 31.91020707348361 284.6 L 33.11164559281657 284.3 L 34.31308411214954 284.3 L 35.51452263148251 284.7 L 36.715961150815474 284.7 L 37.91739967014844 290.9 L 39.11883818948141 290.9 L 40.320276708814376 315.7 L 41.52171522814734 315.7 L 42.72315374748031 313.9 L 43.92459226681328 313.9 L 45.126030786146245 289.8 L 46.32746930547921 289.8 L 47.52890782481218 285.5 L 48.73034634414515 285.5 L 49.931784863478114 285.5 L 51.13322338281108 285.5 L 52.33466190214405 302.3 L 53.536100421477016 302.3 L 54.73753894080998 300.9 L 55.93897746014295 300.9 L 57.14041597947592 296.4 L 58.341854498808885 296.4 L 59.54329301814185 284.7 L 60.74473153747482 284.7 L 61.94617005680779 284.4 L 63.147608576140755 284.4 L 64.34904709547372 284.6 L 65.55048561480669 284.6 L 66.75192413413966 283.7 L 67.95336265347262 283.7 L 69.15480117280559 282.5 L 70.35623969213856 282.5 L 71.55767821147153 278.9 L 72.7591167308045 278.9 L 73.96055525013746 274 L 75.16199376947043 274 L 76.3634322888034 276.1 L 77.56487080813636 276.1 L 78.76630932746933 281.7 L 79.9677478468023 281.7 L 81.16918636613526 284.1 L 82.37062488546823 284.1 L 83.5720634048012 284.1 L 84.77350192413417 284.1 L 85.97494044346713 285.5 L 87.1763789628001 285.5 L 88.37781748213307 284.7 L 89.57925600146604 284.7 L 90.78069452079899 286.4 L 91.98213304013196 286.4 L 93.18357155946492 309.9 L 94.38501007879789 309.9 L 95.58644859813086 317.9 L 96.78788711746382 317.9 L 97.98932563679679 295.1 L 99.19076415612976 295.1 L 100.39220267546273 284.4 L 101.5936411947957 284.4 L 102.79507971412866 283.9 L 103.99651823346163 283.9 L 105.1979567527946 285.1 L 106.39939527212756 297.2 L 107.60083379146053 319.8 L 108.8022723107935 319.8 L 110.00371083012647 305.8 L 111.20514934945943 305.8 L 112.4065878687924 285.9 L 113.60802638812537 283.9 L 114.80946490745833 283.9 L 116.0109034267913 285.2 L 117.21234194612427 285.2 L 118.41378046545724 270.9 L 119.6152189847902 270.9 L 120.81665750412317 274.5 L 122.01809602345614 274.5 L 123.2195345427891 282.1 L 124.42097306212207 282.1 L 125.62241158145504 274.6 L 126.82385010078801 274.6 L 128.025288620121 274.5 L 129.22672713945394 274.5 L 130.4281656587869 280 L 131.62960417811988 280 L 132.83104269745283 283.9 L 134.0324812167858 283.9 L 135.23391973611876 283.9 L 136.43535825545175 283.9 L 137.6367967747847 284.5 L 138.83823529411768 284.5 L 140.03967381345063 285.4 L 141.24111233278362 285.1 L 142.44255085211657 285.1 L 143.64398937144955 303.1 L 144.8454278907825 303.1 L 146.04686641011548 319 L 147.24830492944844 319 L 148.44974344878142 302.3 L 149.65118196811437 302.3 L 150.85262048744735 285.6 L 152.0540590067803 285.6 L 153.2554975261133 283.9 L 154.45693604544624 283.9 L 155.65837456477922 284 L 156.85981308411218 284 L 158.06125160344516 284.8 L 159.2626901227781 284.8 L 160.4641286421111 285.1 L 161.66556716144405 285.1 L 162.86700568077703 291.9 L 164.06844420010998 291.9 L 165.26988271944296 294.6 L 166.47132123877591 294.6 L 167.6727597581089 285.6 L 168.87419827744185 285.6 L 170.07563679677483 283.9 L 171.27707531610778 283.9 L 172.47851383544076 283.9 L 173.67995235477372 283.9 L 174.8813908741067 284.9 L 176.08282939343965 284.9 L 177.28426791277263 284.3 L 178.4857064321056 283.2 L 179.68714495143857 283.2 L 180.88858347077152 275.9 L 182.0900219901045 275.9 L 183.29146050943746 274.1 L 184.49289902877044 274.1 L 185.6943375481034 278.4 L 186.89577606743637 278.4 L 188.09721458676933 283.6 L 189.2986531061023 283.6 L 190.50009162543526 284.1 L 191.70153014476824 284.1 L 192.9029686641012 284.5 L 194.10440718343418 284.5 L 195.30584570276713 282.3 L 196.5072842221001 282.3 L 197.70872274143306 283.9 L 198.91016126076605 283.9 L 200.111599780099 295.4 L 201.31303829943198 295.4 L 202.51447681876493 318 L 203.71591533809791 318 L 204.91735385743087 309.7 L 206.11879237676382 309.7 L 207.3202308960968 286.5 L 208.52166941542976 286.5 L 209.72310793476274 284.8 L 210.9245464540957 284.8 L 212.12598497342867 284.3 L 213.32742349276162 284.3 L 214.5288620120946 284.8 L 215.73030053142756 284.8 L 216.93173905076054 284.7 L 218.1331775700935 284.7 L 219.33461608942648 286.9 L 220.53605460875943 286.9 L 221.7374931280924 310.6 L 222.93893164742536 310.6 L 224.14037016675834 283.9 L 225.3418086860913 283.9 L 226.54324720542428 284.9 L 227.74468572475723 284.9 L 228.9461242440902 284.4 L 230.14756276342317 284.4 L 231.34900128275615 284.9 L 232.5504398020891 284.9 L 233.75187832142208 277.4 L 234.95331684075504 277.4 L 236.15475536008802 273.4 L 237.35619387942097 273.4 L 238.55763239875395 277 L 239.7590709180869 277 L 240.9605094374199 281.9 L 242.16194795675284 281.9 L 243.36338647608582 284.4 L 244.56482499541877 284.4 L 245.76626351475176 284.3 L 246.9677020340847 284.3 L 248.1691405534177 284.2 L 249.37057907275064 284.2 L 250.57201759208363 285.5 L 251.77345611141658 290 L 252.97489463074956 290 L 254.1763331500825 314.4 L 255.3777716694155 314.4 L 256.57921018874845 314.6 L 257.7806487080814 314.6 L 258.9820872274144 291.2 L 260.18352574674736 291.2 L 261.3849642660803 284.3 L 262.58640278541327 284.3 L 263.7878413047463 283.9 L 264.98927982407923 283.9 L 266.1907183434122 284.6 L 267.39215686274514 284.6 L 268.59359538207815 284.7 L 269.7950339014111 284.7 L 270.99647242074406 285.5 L 272.197910940077 285.5 L 273.39934945941 304.5 L 274.60078797874297 304.5 L 275.8022264980759 316.4 L 277.0036650174089 316.4 L 278.2051035367419 284.9 L 279.40654205607484 284.9 L 280.6079805754078 280.8 L 281.80941909474075 280.8 L 283.0108576140737 284.5 L 284.2122961334067 284.5 L 285.41373465273966 279.8 L 286.6151731720726 279.8 L 287.81661169140557 274.5 L 289.0180502107386 274.5 L 290.21948873007153 275.3 L 291.4209272494045 275.3 L 292.62236576873744 281.5 L 293.82380428807045 281.5 L 295.0252428074034 283.9 L 296.22668132673635 283.9 L 297.4281198460693 284.1 L 298.6295583654023 284.1 L 299.83099688473527 284.3 L 301.0324354040682 284.3 L 302.2338739234012 285.9 L 303.4353124427342 285.9 L 304.63675096206714 285.1 L 305.8381894814001 285.1 L 307.03962800073305 308.1 L 308.24106652006606 308.1 L 309.442505039399 318.3 L 310.64394355873196 318.3 L 311.8453820780649 296.4 L 313.0468205973979 296.4 L 314.2482591167309 284.2 L 315.44969763606383 284.2 L 316.6511361553968 283.9 L 317.8525746747298 283.9 L 319.05401319406275 284.5 L 320.2554517133957 284.5 L 321.45689023272865 285 L 322.65832875206166 285 L 323.8597672713946 284.7 L 325.06120579072757 284.7 L 326.2626443100605 296.5 L 327.46408282939353 296.5 L 328.6655213487265 318.5 L 329.86695986805944 318.5 L 331.0683983873924 307.4 L 332.2698369067254 307.4 L 333.47127542605836 286.7 L 334.6727139453913 286.7 L 335.87415246472426 283.6 L 337.07559098405727 283.6 L 338.2770295033902 284.6 L 339.4784680227232 284.7 L 340.67990654205613 284.7 L 341.88134506138914 272.4 L 343.0827835807221 272.4 L 344.28422210005505 277.6 L 345.485660619388 277.6 L 346.687099138721 283.9 L 347.88853765805396 283.9 L 349.0899761773869 283.6 L 350.29141469671987 283.6 L 351.4928532160529 284.3 L 352.69429173538583 284.3 L 353.8957302547188 284.7 L 355.09716877405174 284.7 L 356.29860729338475 285.6 L 357.5000458127177 285.6 L 358.70148433205065 301 L 359.9029228513836 301 L 361.10436137071656 317.1 L 362.30579989004957 317.1 L 363.5072384093825 273.7 L 364.7086769287155 273.7 L 365.91011544804843 233.8 L 367.11155396738144 233.8 L 368.3129924867144 186.1 L 369.51443100604735 186.1 L 370.7158695253803 152.8 L 371.9173080447133 134 L 373.11874656404626 134 L 374.3201850833792 123.4 L 375.52162360271217 123.4 L 376.7230621220452 137.6 L 377.92450064137813 137.6 L 379.1259391607111 164.2 L 380.32737768004404 164.2 L 381.52881619937705 158 L 382.73025471871 158 L 383.93169323804295 136.6 L 385.1331317573759 136.6 L 386.3345702767089 131.7 L 387.53600879604187 131.7 L 388.7374473153748 141.8 L 389.9388858347078 141.8 L 391.1403243540408 147.5 L 392.34176287337374 147.5 L 393.5432013927067 136.2 L 394.74463991203964 136.2 L 395.94607843137265 132.6 L 397.1475169507056 132.6 L 398.34895547003856 121.8 L 399.5503939893715 121.8 L 400.7518325087045 138 L 401.9532710280375 135.7 L 403.15470954737043 135.7 L 404.3561480667034 130.3 L 405.5575865860364 130.3 L 406.75902510536935 131.1 L 407.9604636247023 131.1 L 409.16190214403525 129.7 L 410.36334066336826 129.7 L 411.5647791827012 127.9 L 412.76621770203417 127.9 L 413.9676562213671 122.6 L 415.16909474070013 122.6 L 416.3705332600331 116.7 L 417.57197177936604 116.7 L 418.773410298699 120 L 419.974848818032 120 L 421.17628733736495 130.7 L 422.3777258566979 130.7 L 423.57916437603086 128.2 L 424.78060289536387 128.2 L 425.9820414146968 126 L 427.1834799340298 126 L 428.38491845336273 120.6 L 429.58635697269574 120.6 L 430.7877954920287 118.6 L 431.98923401136165 118.6 L 433.1906725306946 115.5 L 434.3921110500276 115.5 L 435.59354956936056 105.7 L 436.7949880886935 103 L 437.99642660802647 103 L 439.1978651273594 113.8 L 440.39930364669243 113.8 L 441.6007421660254 120.1 L 442.80218068535834 120.1 L 444.0036192046913 129 L 445.2050577240243 129 L 446.40649624335725 137.7 L 447.6079347626902 137.7 L 448.80937328202316 139.6 L 450.01081180135617 139.6 L 451.2122503206891 137.9 L 452.4136888400221 137.9 L 453.61512735935503 152.3 L 454.81656587868804 152.3 L 456.018004398021 185.1 L 457.21944291735394 185.1 L 458.4208814366869 215.1 L 459.6223199560199 196 L 460.82375847535286 200.6 L 462.0251969946858 200.6 L 463.22663551401877 201.4 L 464.4280740333518 201.4 L 465.62951255268473 205 L 466.8309510720177 205 L 468.03238959135064 222.6 L 469.23382811068365 222.6 L 470.4352666300166 221.8 L 471.63670514934955 221.8 L 472.8381436686825 204.8 L 474.0395821880155 204.8 L 475.24102070734847 204.1 L 476.4424592266814 204.1 L 477.6438977460144 202.9 L 478.8453362653474 202.9 L 480.04677478468034 200 L 481.2482133040133 200 L 482.44965182334624 198.7 L 483.65109034267925 198.7 L 484.8525288620122 199.5 L 486.05396738134516 199.5 L 487.2554059006781 190.3 L 488.4568444200111 190.3 L 489.6582829393441 183.9 L 490.85972145867703 183.9 L 492.06115997801 189.3 L 493.262598497343 189.3 L 494.46403701667595 182.1 L 495.6654755360089 182.1 L 496.86691405534185 186.9 L 498.06835257467486 186.9 L 499.2697910940078 194.6 L 500.47122961334077 194.6 L 501.6726681326737 195.2 L 502.87410665200673 195.2 L 504.0755451713397 195.3 L 505.27698369067264 195.3 L 506.4784222100056 202.4 L 507.6798607293386 202.4 L 508.88129924867155 227.8 L 510.0827377680045 227.8 L 511.28417628733746 225 L 512.4856148066705 225 L 513.6870533260034 201.1 L 514.8884918453364 201.1 L 516.0899303646694 194.8 L 517.2913688840023 194.8 L 518.4928074033353 195.1 L 519.6942459226682 195.1 L 520.8956844420012 219.5 L 522.0971229613342 219.5 L 523.2985614806671 221.8 L 524.5000000000001 221.8 L 525.7014385193331 191.4 L 526.902877038666 191.4 L 528.104315557999 181.5 L 529.3057540773319 181.5 L 530.5071925966649 177.7 L 531.708631115998 177.7 L 532.9100696353308 183.3 L 534.1115081546639 183.3 L 535.3129466739969 190.5 L 536.5143851933298 190.5 L 537.7158237126628 193.8 L 538.9172622319957 193.8 L 540.1187007513287 184.3 L 541.3201392706617 184.3 L 542.5215777899946 167.3 L 543.7230163093276 167.3 L 544.9244548286606 177.3 L 546.1258933479935 177.3 L 547.3273318673265 180.2 L 548.5287703866594 180.2 L 549.7302089059924 180.9 L 550.9316474253254 180.9 L 552.1330859446583 194.6 L 553.3345244639913 194.6 L 554.5359629833243 185.2 L 555.7374015026572 185.2 L 556.9388400219902 179.9 L 558.1402785413231 179.9 L 559.3417170606562 196 L 560.5431555799892 196 L 561.7445940993221 207.9 L 562.9460326186551 207.9 L 564.1474711379881 212.9 L 565.348909657321 212.9 L 566.550348176654 189.9 L 567.7517866959869 184.9 L 568.9532252153199 201.6 L 570.1546637346529 201.6 L 571.3561022539858 210.4 L 572.5575407733188 210.4 L 573.7589792926518 210.6 L 574.9604178119847 210.6 L 576.1618563313177 222.9 L 577.3632948506506 234.9 L 578.5647333699836 204.1 L 579.7661718893166 204.1 L 580.9676104086495 154.4 L 582.1690489279825 154.4 L 583.3704874473156 137.2 L 584.5719259666485 137.2 L 585.7733644859815 135.7 L 586.9748030053144 135.7 L 588.1762415246474 140.3 L 589.3776800439804 140.3 L 590.5791185633133 143.3 L 591.7805570826463 143.3 L 592.9819956019792 141.8 L 594.1834341213122 141.8 L 595.3848726406452 114.2 L 596.5863111599781 114.2 L 597.7877496793111 112 L 598.9891881986441 112 L 600.190626717977 122.5 L 601.39206523731 122.5 L 602.5935037566429 130.1 L 603.7949422759759 130.1 L 604.9963807953089 132.7 L 606.1978193146418 132.7 L 607.3992578339748 129.6 L 608.6006963533079 130.1 L 609.8021348726407 130.1 L 611.0035733919738 131.1 L 612.2050119113067 131.1 L 613.4064504306397 148.6 L 614.6078889499727 148.6 L 615.8093274693056 167.1 L 617.0107659886385 167.1 L 618.2122045079715 148.9 L 619.4136430273045 148.9 L 620.6150815466374 130.9 L 621.8165200659704 130.9 L 623.0179585853033 130.4 L 624.2193971046363 130.4 L 625.4208356239693 127.8 L 626.6222741433022 127.8 L 627.8237126626352 132 L 629.0251511819682 132 L 630.2265897013011 135.6 L 631.4280282206341 135.6 L 632.629466739967 137.4 L 633.8309052593 137.4 L 635.032343778633 161.2 L 636.233782297966 159.7 L 637.435220817299 132.2 L 638.636659336632 132.2 L 639.8380978559649 131.2 L 641.0395363752979 131.2 L 642.2409748946308 131.3 L 643.4424134139638 131.9 L 644.6438519332968 131.9 L 645.8452904526297 132.4 L 647.0467289719627 132.4 L 648.2481674912957 132.2 L 649.4496060106286 132.2 L 650.6510445299616 118.8 L 651.8524830492945 118.8 L 653.0539215686275 113.2 L 654.2553600879605 113.2 L 655.4567986072934 124.6 L 656.6582371266264 124.6 L 657.8596756459594 134.3 L 659.0611141652923 134.3 L 660.2625526846253 132.4 L 661.4639912039582 132.4 L 662.6654297232913 131.8 L 663.8668682426243 131.8 L 665.0683067619572 134.9 L 666.2697452812902 134.9 L 667.4711838006232 135.8 L 668.6726223199561 135.8 L 669.8740608392891 161.4 L 671.075499358622 161.4 L 672.276937877955 188.1 L 673.478376397288 188.1 L 674.6798149166209 232.4 L 675.8812534359539 232.4 L 677.0826919552869 282.4 L 678.2841304746198 282.4 L 679.4855689939528 283.7 L 680.6870075132857 283.7 L 681.8884460326187 284.8 L 683.0898845519517 284.8 L 684.2913230712846 285.1 L 685.4927615906176 285.1 L 686.6942001099505 285.7 L 687.8956386292836 285.7 L 689.0970771486166 288.9 L 690.2985156679495 288.9 L 691.4999541872825 311.5 L 692.7013927066155 311.5 L 693.9028312259484 318.2 L 695.1042697452814 284.2 L 696.3057082646143 284.6 L 697.5071467839473 284.6 L 698.7085853032803 284.8 L 699.9100238226132 284.8 L 701.1114623419462 284.1 L 702.3129008612792 284.1 L 703.5143393806121 277.8 L 704.7157778999451 277.8 L 705.917216419278 272.6 L 707.118654938611 276.1 L 708.320093457944 276.1 L 709.5215319772769 282 L 710.72297049661 282 L 711.924409015943 267.6 L 713.1258475352759 267.6 L 714.3272860546089 269.8 L 715.5287245739418 269.8 L 716.7301630932748 283.5 L 717.9316016126078 283.5 L 719.1330401319407 284.3 L 720.3344786512737 284.3 L 721.5359171706067 289.6 L 722.7373556899396 289.6 L 723.9387942092726 315.1 L 725.1402327286055 315.1 L 726.3416712479385 314.6 L 727.5431097672715 314.6 L 728.7445482866044 289.8 L 729.9459868059374 289.8 L 731.1474253252704 284.1 L 732.3488638446033 284.1 L 733.5503023639363 283.9 L 734.7517408832692 283.9 L 735.9531794026022 284.8 L 737.1546179219353 284.8 L 738.3560564412682 283.1 L 739.5574949606012 283.1 L 740.7589334799342 283.9 L 741.9603719992671 283.9 L 743.1618105186001 303.9 L 744.363249037933 303.9 L 745.564687557266 319.4 L 746.766126076599 319.4 L 747.9675645959319 299.9 L 749.1690031152649 299.9 L 750.3704416345979 284.1 L 751.5718801539308 284.1 L 752.7733186732638 284.7 L 753.9747571925967 274.1 L 755.1761957119297 274.1 L 756.3776342312627 274.2 L 757.5790727505956 274.2 L 758.7805112699286 282.3 L 759.9819497892615 282.3 L 761.1833883085945 283.9 L 762.3848268279276 283.9 L 763.5862653472605 284.3 L 764.7877038665935 284.3 L 765.9891423859265 285.1 L 767.1905809052594 285.1 L 768.3920194245924 283.7 L 769.5934579439253 283.7 L 770.7948964632583 282.3 L 771.9963349825913 282.3 L 773.1977735019242 303.5 L 774.3992120212572 303.5 L 775.6006505405902 317.8 L 776.8020890599231 317.8 L 778.0035275792561 296.8 L 779.204966098589 296.8 L 780.406404617922 284.3 L 781.607843137255 284.3 L 782.8092816565879 283.2 L 784.0107201759209 283.2 L 785.212158695254 285.4 L 786.4135972145868 285.4 L 787.6150357339199 284.7 L 788.8164742532527 284.7 L 790.0179127725858 285.4 L 791.2193512919188 285.4 L 792.4207898112517 297.2 L 793.6222283305847 319 L 794.8236668499177 319 L 796.0251053692506 307 L 797.2265438885836 307 L 798.4279824079165 285.9 L 799.6294209272495 285.9 L 800.8308594465825 284.9 L 802.0322979659154 284.9 L 803.2337364852484 283.6 L 804.4351750045814 283.6 L 805.6366135239143 284.2 L 806.8380520432473 284.2 L 808.0394905625802 285.9 L 809.2409290819132 285.9 L 810.4423676012462 281.4 L 811.6438061205791 281.4 L 812.8452446399122 283.7 L 814.0466831592452 283.7 L 815.2481216785781 272.7 L 816.4495601979111 272.7 L 817.650998717244 273.3 L 818.852437236577 273.3 L 820.05387575591 284.7 L 821.2553142752429 284.7 L 822.4567527945759 285.5 L 823.6581913139089 285.5 L 824.8596298332418 300.5 L 826.0610683525748 300.5 L 827.2625068719077 320.2 L 828.4639453912407 320.2 L 829.6653839105737 303 L 830.8668224299066 303 L 832.0682609492396 284.9 L 833.2696994685726 284.9 L 834.4711379879055 284.4 L 835.6725765072385 284.4 L 836.8740150265714 284.3 L 838.0754535459045 284.3 L 839.2768920652375 284.7 L 840.4783305845704 284.7 L 841.6797691039034 284.7 L 842.8812076232363 284.7 L 844.0826461425693 290.7 L 845.2840846619023 290.7 L 846.4855231812352 315.7 L 847.6869617005682 315.7 L 848.8884002199012 312.9 L 850.0898387392341 312.9 L 851.2912772585671 290 L 852.4927157779 290 L 853.694154297233 284.1 L 854.895592816566 284.1 L 856.0970313358989 284.2 L 857.2984698552319 284.2 L 858.4999083745649 284.8 L 859.7013468938978 284.8 L 860.9027854132308 285.1 L 862.1042239325637 285.1 L 863.3056624518968 279.6 L 864.5071009712298 279.6 L 865.7085394905627 275.4 L 866.9099780098957 275.4 L 868.1114165292287 273.3 L 869.3128550485616 273.3 L 870.5142935678946 268.4 L 871.7157320872275 284.7 L 872.9171706065605 284.5 L 874.1186091258935 284.5 L 875.3200476452264 284.7 L 876.5214861645594 284.7 L 877.7229246838924 293.9 L 878.9243632032253 293.9 L 880.1258017225583 318.2 L 881.3272402418912 318.2 L 882.5286787612242 309.3 L 883.7301172805572 309.3 L 884.9315557998901 287.7 L 886.1329943192231 287.7 L 887.3344328385562 283.9 L 888.535871357889 283.9 L 889.7373098772221 284.5 L 890.938748396555 284.4 L 892.140186915888 284.4 L 893.341625435221 285.3 L 894.5430639545539 285.3 L 895.7445024738869 287.3 L 896.9459409932199 287.3 L 898.1473795125528 310.4 L 899.3488180318858 310.4 L 900.5502565512187 318.3 L 901.7516950705517 318.3 L 902.9531335898847 294.9 L 904.1545721092176 294.9 L 905.3560106285506 284.5 L 906.5574491478836 284.5 L 907.7588876672165 274.4 L 908.9603261865495 274.4 L 910.1617647058824 278.9 L 911.3632032252154 278.9 L 912.5646417445485 284 L 913.7660802638813 284 L 914.9675187832144 284.7 L 916.1689573025473 284.7 L 917.3703958218803 278.2 L 918.5718343412133 278.2 L 919.7732728605462 274.1 L 920.9747113798792 274.1 L 922.1761498992122 275.5 L 923.3775884185451 275.5 L 924.5790269378781 282 L 925.780465457211 282 L 926.981903976544 284.1 L 928.183342495877 284.1 L 929.3847810152099 274.3 L 930.5862195345429 289.8 L 931.7876580538759 313.4 L 932.9890965732088 313.4 L 934.1905350925418 315.8 L 935.3919736118747 315.8 L 936.5934121312077 291.9 L 937.7948506505408 291.9 L 938.9962891698736 284.8 L 940.1977276892067 284.8 L 941.3991662085397 283.9 L 942.6006047278726 283.9 L 943.8020432472056 284.8 L 945.0034817665385 284.8 L 946.2049202858715 284.2 L 947.4063588052045 284.2 L 948.6077973245374 286 L 949.8092358438704 286 L 951.0106743632034 302.5 L 952.2121128825363 302.5 L 953.4135514018693 319.3 L 954.6149899212022 319.3 L 955.8164284405352 301.7 L 957.0178669598682 285.6 L 958.2193054792011 285.6 L 959.4207439985341 284.9 L 960.6221825178671 284.9 L 961.8236210372 284.9 L 963.025059556533 284.9 L 964.226498075866 284.8 L 965.427936595199 284.8 L 966.629375114532 284.2 L 967.8308136338649 284.2 L 969.0322521531979 280.3 L 970.2336906725309 280.3 L 971.4351291918638 274.5 L 972.6365677111968 274.5 L 973.8380062305297 274.6 L 975.0394447498627 274.6 L 976.2408832691957 281.4 L 977.4423217885286 281.4 L 978.6437603078616 284.2 L 979.8451988271946 284.2 L 981.0466373465275 284.3 L 982.2480758658605 284.3 L 983.4495143851934 285.2 L 984.6509529045264 285.2 L 985.8523914238594 284.3 L 987.0538299431923 284.3 L 988.2552684625254 274 L 989.4567069818582 302.2 L 990.6581455011913 302.2 L 991.8595840205243 276.5 L 993.0610225398572 276.5 L 994.2624610591902 272.3 L 995.4638995785232 272.3 L 996.6653380978561 283 L 997.8667766171891 283 L 999.068215136522 283.9 L 1000.269653655855 283.9 L 1001.471092175188 284.7 L 1002.6725306945209 284.7 L 1003.8739692138539 285.2 L 1005.0754077331869 285.2 L 1006.2768462525198 295.2 L 1007.4782847718528 295.2 L 1008.6797232911857 319 L 1009.8811618105187 319 L 1011.0826003298517 308.8 L 1012.2840388491846 308.8 L 1013.4854773685176 286.5 L 1014.6869158878507 286.5 L 1015.8883544071836 284.9 L 1017.0897929265166 284.9 L 1018.2912314458495 284.1 L 1019.4926699651825 284.1 L 1020.6941084845155 284.4 L 1021.8955470038484 284.4 L 1023.0969855231814 285.5 L 1024.2984240425144 285.5 L 1025.4998625618473 282.4 L 1026.7013010811802 282.4 L 1027.9027396005133 270.7 L 1029.1041781198462 270.7 L 1030.305616639179 268.4 L 1031.5070551585122 268.4 L 1032.7084936778451 279.1 L 1033.909932197178 279.1 L 1035.1113707165111 283.6 L 1036.312809235844 283.6 L 1037.514247755177 283.7 L 1038.71568627451 277.3" stroke="#2f7ed8" stroke-width="1" zIndex="1"></path></g><g class="highcharts-markers" visibility="visible" zIndex="0.1" transform="translate(60,10) scale(1 1)" clip-path="none"><path fill="none" d="M 0.2843137254901986 283.4 L 10.284313725490199 283.4 L 11.485752244823166 283.4 L 12.687190764156133 286 L 13.8886292834891 286 L 15.090067802822068 284.9 L 16.291506322155033 284.9 L 17.492944841488 284 L 18.694383360820968 277.2 L 19.89582188015394 277.2 L 21.097260399486906 273.9 L 22.298698918819873 273.9 L 23.500137438152837 276.6 L 24.701575957485804 276.6 L 25.903014476818772 283.2 L 27.10445299615174 283.2 L 28.305891515484706 283.9 L 29.507330034817674 283.9 L 30.70876855415064 284.6 L 31.91020707348361 284.6 L 33.11164559281657 284.3 L 34.31308411214954 284.3 L 35.51452263148251 284.7 L 36.715961150815474 284.7 L 37.91739967014844 290.9 L 39.11883818948141 290.9 L 40.320276708814376 315.7 L 41.52171522814734 315.7 L 42.72315374748031 313.9 L 43.92459226681328 313.9 L 45.126030786146245 289.8 L 46.32746930547921 289.8 L 47.52890782481218 285.5 L 48.73034634414515 285.5 L 49.931784863478114 285.5 L 51.13322338281108 285.5 L 52.33466190214405 302.3 L 53.536100421477016 302.3 L 54.73753894080998 300.9 L 55.93897746014295 300.9 L 57.14041597947592 296.4 L 58.341854498808885 296.4 L 59.54329301814185 284.7 L 60.74473153747482 284.7 L 61.94617005680779 284.4 L 63.147608576140755 284.4 L 64.34904709547372 284.6 L 65.55048561480669 284.6 L 66.75192413413966 283.7 L 67.95336265347262 283.7 L 69.15480117280559 282.5 L 70.35623969213856 282.5 L 71.55767821147153 278.9 L 72.7591167308045 278.9 L 73.96055525013746 274 L 75.16199376947043 274 L 76.3634322888034 276.1 L 77.56487080813636 276.1 L 78.76630932746933 281.7 L 79.9677478468023 281.7 L 81.16918636613526 284.1 L 82.37062488546823 284.1 L 83.5720634048012 284.1 L 84.77350192413417 284.1 L 85.97494044346713 285.5 L 87.1763789628001 285.5 L 88.37781748213307 284.7 L 89.57925600146604 284.7 L 90.78069452079899 286.4 L 91.98213304013196 286.4 L 93.18357155946492 309.9 L 94.38501007879789 309.9 L 95.58644859813086 317.9 L 96.78788711746382 317.9 L 97.98932563679679 295.1 L 99.19076415612976 295.1 L 100.39220267546273 284.4 L 101.5936411947957 284.4 L 102.79507971412866 283.9 L 103.99651823346163 283.9 L 105.1979567527946 285.1 L 106.39939527212756 297.2 L 107.60083379146053 319.8 L 108.8022723107935 319.8 L 110.00371083012647 305.8 L 111.20514934945943 305.8 L 112.4065878687924 285.9 L 113.60802638812537 283.9 L 114.80946490745833 283.9 L 116.0109034267913 285.2 L 117.21234194612427 285.2 L 118.41378046545724 270.9 L 119.6152189847902 270.9 L 120.81665750412317 274.5 L 122.01809602345614 274.5 L 123.2195345427891 282.1 L 124.42097306212207 282.1 L 125.62241158145504 274.6 L 126.82385010078801 274.6 L 128.025288620121 274.5 L 129.22672713945394 274.5 L 130.4281656587869 280 L 131.62960417811988 280 L 132.83104269745283 283.9 L 134.0324812167858 283.9 L 135.23391973611876 283.9 L 136.43535825545175 283.9 L 137.6367967747847 284.5 L 138.83823529411768 284.5 L 140.03967381345063 285.4 L 141.24111233278362 285.1 L 142.44255085211657 285.1 L 143.64398937144955 303.1 L 144.8454278907825 303.1 L 146.04686641011548 319 L 147.24830492944844 319 L 148.44974344878142 302.3 L 149.65118196811437 302.3 L 150.85262048744735 285.6 L 152.0540590067803 285.6 L 153.2554975261133 283.9 L 154.45693604544624 283.9 L 155.65837456477922 284 L 156.85981308411218 284 L 158.06125160344516 284.8 L 159.2626901227781 284.8 L 160.4641286421111 285.1 L 161.66556716144405 285.1 L 162.86700568077703 291.9 L 164.06844420010998 291.9 L 165.26988271944296 294.6 L 166.47132123877591 294.6 L 167.6727597581089 285.6 L 168.87419827744185 285.6 L 170.07563679677483 283.9 L 171.27707531610778 283.9 L 172.47851383544076 283.9 L 173.67995235477372 283.9 L 174.8813908741067 284.9 L 176.08282939343965 284.9 L 177.28426791277263 284.3 L 178.4857064321056 283.2 L 179.68714495143857 283.2 L 180.88858347077152 275.9 L 182.0900219901045 275.9 L 183.29146050943746 274.1 L 184.49289902877044 274.1 L 185.6943375481034 278.4 L 186.89577606743637 278.4 L 188.09721458676933 283.6 L 189.2986531061023 283.6 L 190.50009162543526 284.1 L 191.70153014476824 284.1 L 192.9029686641012 284.5 L 194.10440718343418 284.5 L 195.30584570276713 282.3 L 196.5072842221001 282.3 L 197.70872274143306 283.9 L 198.91016126076605 283.9 L 200.111599780099 295.4 L 201.31303829943198 295.4 L 202.51447681876493 318 L 203.71591533809791 318 L 204.91735385743087 309.7 L 206.11879237676382 309.7 L 207.3202308960968 286.5 L 208.52166941542976 286.5 L 209.72310793476274 284.8 L 210.9245464540957 284.8 L 212.12598497342867 284.3 L 213.32742349276162 284.3 L 214.5288620120946 284.8 L 215.73030053142756 284.8 L 216.93173905076054 284.7 L 218.1331775700935 284.7 L 219.33461608942648 286.9 L 220.53605460875943 286.9 L 221.7374931280924 310.6 L 222.93893164742536 310.6 L 224.14037016675834 283.9 L 225.3418086860913 283.9 L 226.54324720542428 284.9 L 227.74468572475723 284.9 L 228.9461242440902 284.4 L 230.14756276342317 284.4 L 231.34900128275615 284.9 L 232.5504398020891 284.9 L 233.75187832142208 277.4 L 234.95331684075504 277.4 L 236.15475536008802 273.4 L 237.35619387942097 273.4 L 238.55763239875395 277 L 239.7590709180869 277 L 240.9605094374199 281.9 L 242.16194795675284 281.9 L 243.36338647608582 284.4 L 244.56482499541877 284.4 L 245.76626351475176 284.3 L 246.9677020340847 284.3 L 248.1691405534177 284.2 L 249.37057907275064 284.2 L 250.57201759208363 285.5 L 251.77345611141658 290 L 252.97489463074956 290 L 254.1763331500825 314.4 L 255.3777716694155 314.4 L 256.57921018874845 314.6 L 257.7806487080814 314.6 L 258.9820872274144 291.2 L 260.18352574674736 291.2 L 261.3849642660803 284.3 L 262.58640278541327 284.3 L 263.7878413047463 283.9 L 264.98927982407923 283.9 L 266.1907183434122 284.6 L 267.39215686274514 284.6 L 268.59359538207815 284.7 L 269.7950339014111 284.7 L 270.99647242074406 285.5 L 272.197910940077 285.5 L 273.39934945941 304.5 L 274.60078797874297 304.5 L 275.8022264980759 316.4 L 277.0036650174089 316.4 L 278.2051035367419 284.9 L 279.40654205607484 284.9 L 280.6079805754078 280.8 L 281.80941909474075 280.8 L 283.0108576140737 284.5 L 284.2122961334067 284.5 L 285.41373465273966 279.8 L 286.6151731720726 279.8 L 287.81661169140557 274.5 L 289.0180502107386 274.5 L 290.21948873007153 275.3 L 291.4209272494045 275.3 L 292.62236576873744 281.5 L 293.82380428807045 281.5 L 295.0252428074034 283.9 L 296.22668132673635 283.9 L 297.4281198460693 284.1 L 298.6295583654023 284.1 L 299.83099688473527 284.3 L 301.0324354040682 284.3 L 302.2338739234012 285.9 L 303.4353124427342 285.9 L 304.63675096206714 285.1 L 305.8381894814001 285.1 L 307.03962800073305 308.1 L 308.24106652006606 308.1 L 309.442505039399 318.3 L 310.64394355873196 318.3 L 311.8453820780649 296.4 L 313.0468205973979 296.4 L 314.2482591167309 284.2 L 315.44969763606383 284.2 L 316.6511361553968 283.9 L 317.8525746747298 283.9 L 319.05401319406275 284.5 L 320.2554517133957 284.5 L 321.45689023272865 285 L 322.65832875206166 285 L 323.8597672713946 284.7 L 325.06120579072757 284.7 L 326.2626443100605 296.5 L 327.46408282939353 296.5 L 328.6655213487265 318.5 L 329.86695986805944 318.5 L 331.0683983873924 307.4 L 332.2698369067254 307.4 L 333.47127542605836 286.7 L 334.6727139453913 286.7 L 335.87415246472426 283.6 L 337.07559098405727 283.6 L 338.2770295033902 284.6 L 339.4784680227232 284.7 L 340.67990654205613 284.7 L 341.88134506138914 272.4 L 343.0827835807221 272.4 L 344.28422210005505 277.6 L 345.485660619388 277.6 L 346.687099138721 283.9 L 347.88853765805396 283.9 L 349.0899761773869 283.6 L 350.29141469671987 283.6 L 351.4928532160529 284.3 L 352.69429173538583 284.3 L 353.8957302547188 284.7 L 355.09716877405174 284.7 L 356.29860729338475 285.6 L 357.5000458127177 285.6 L 358.70148433205065 301 L 359.9029228513836 301 L 361.10436137071656 317.1 L 362.30579989004957 317.1 L 363.5072384093825 273.7 L 364.7086769287155 273.7 L 365.91011544804843 233.8 L 367.11155396738144 233.8 L 368.3129924867144 186.1 L 369.51443100604735 186.1 L 370.7158695253803 152.8 L 371.9173080447133 134 L 373.11874656404626 134 L 374.3201850833792 123.4 L 375.52162360271217 123.4 L 376.7230621220452 137.6 L 377.92450064137813 137.6 L 379.1259391607111 164.2 L 380.32737768004404 164.2 L 381.52881619937705 158 L 382.73025471871 158 L 383.93169323804295 136.6 L 385.1331317573759 136.6 L 386.3345702767089 131.7 L 387.53600879604187 131.7 L 388.7374473153748 141.8 L 389.9388858347078 141.8 L 391.1403243540408 147.5 L 392.34176287337374 147.5 L 393.5432013927067 136.2 L 394.74463991203964 136.2 L 395.94607843137265 132.6 L 397.1475169507056 132.6 L 398.34895547003856 121.8 L 399.5503939893715 121.8 L 400.7518325087045 138 L 401.9532710280375 135.7 L 403.15470954737043 135.7 L 404.3561480667034 130.3 L 405.5575865860364 130.3 L 406.75902510536935 131.1 L 407.9604636247023 131.1 L 409.16190214403525 129.7 L 410.36334066336826 129.7 L 411.5647791827012 127.9 L 412.76621770203417 127.9 L 413.9676562213671 122.6 L 415.16909474070013 122.6 L 416.3705332600331 116.7 L 417.57197177936604 116.7 L 418.773410298699 120 L 419.974848818032 120 L 421.17628733736495 130.7 L 422.3777258566979 130.7 L 423.57916437603086 128.2 L 424.78060289536387 128.2 L 425.9820414146968 126 L 427.1834799340298 126 L 428.38491845336273 120.6 L 429.58635697269574 120.6 L 430.7877954920287 118.6 L 431.98923401136165 118.6 L 433.1906725306946 115.5 L 434.3921110500276 115.5 L 435.59354956936056 105.7 L 436.7949880886935 103 L 437.99642660802647 103 L 439.1978651273594 113.8 L 440.39930364669243 113.8 L 441.6007421660254 120.1 L 442.80218068535834 120.1 L 444.0036192046913 129 L 445.2050577240243 129 L 446.40649624335725 137.7 L 447.6079347626902 137.7 L 448.80937328202316 139.6 L 450.01081180135617 139.6 L 451.2122503206891 137.9 L 452.4136888400221 137.9 L 453.61512735935503 152.3 L 454.81656587868804 152.3 L 456.018004398021 185.1 L 457.21944291735394 185.1 L 458.4208814366869 215.1 L 459.6223199560199 196 L 460.82375847535286 200.6 L 462.0251969946858 200.6 L 463.22663551401877 201.4 L 464.4280740333518 201.4 L 465.62951255268473 205 L 466.8309510720177 205 L 468.03238959135064 222.6 L 469.23382811068365 222.6 L 470.4352666300166 221.8 L 471.63670514934955 221.8 L 472.8381436686825 204.8 L 474.0395821880155 204.8 L 475.24102070734847 204.1 L 476.4424592266814 204.1 L 477.6438977460144 202.9 L 478.8453362653474 202.9 L 480.04677478468034 200 L 481.2482133040133 200 L 482.44965182334624 198.7 L 483.65109034267925 198.7 L 484.8525288620122 199.5 L 486.05396738134516 199.5 L 487.2554059006781 190.3 L 488.4568444200111 190.3 L 489.6582829393441 183.9 L 490.85972145867703 183.9 L 492.06115997801 189.3 L 493.262598497343 189.3 L 494.46403701667595 182.1 L 495.6654755360089 182.1 L 496.86691405534185 186.9 L 498.06835257467486 186.9 L 499.2697910940078 194.6 L 500.47122961334077 194.6 L 501.6726681326737 195.2 L 502.87410665200673 195.2 L 504.0755451713397 195.3 L 505.27698369067264 195.3 L 506.4784222100056 202.4 L 507.6798607293386 202.4 L 508.88129924867155 227.8 L 510.0827377680045 227.8 L 511.28417628733746 225 L 512.4856148066705 225 L 513.6870533260034 201.1 L 514.8884918453364 201.1 L 516.0899303646694 194.8 L 517.2913688840023 194.8 L 518.4928074033353 195.1 L 519.6942459226682 195.1 L 520.8956844420012 219.5 L 522.0971229613342 219.5 L 523.2985614806671 221.8 L 524.5000000000001 221.8 L 525.7014385193331 191.4 L 526.902877038666 191.4 L 528.104315557999 181.5 L 529.3057540773319 181.5 L 530.5071925966649 177.7 L 531.708631115998 177.7 L 532.9100696353308 183.3 L 534.1115081546639 183.3 L 535.3129466739969 190.5 L 536.5143851933298 190.5 L 537.7158237126628 193.8 L 538.9172622319957 193.8 L 540.1187007513287 184.3 L 541.3201392706617 184.3 L 542.5215777899946 167.3 L 543.7230163093276 167.3 L 544.9244548286606 177.3 L 546.1258933479935 177.3 L 547.3273318673265 180.2 L 548.5287703866594 180.2 L 549.7302089059924 180.9 L 550.9316474253254 180.9 L 552.1330859446583 194.6 L 553.3345244639913 194.6 L 554.5359629833243 185.2 L 555.7374015026572 185.2 L 556.9388400219902 179.9 L 558.1402785413231 179.9 L 559.3417170606562 196 L 560.5431555799892 196 L 561.7445940993221 207.9 L 562.9460326186551 207.9 L 564.1474711379881 212.9 L 565.348909657321 212.9 L 566.550348176654 189.9 L 567.7517866959869 184.9 L 568.9532252153199 201.6 L 570.1546637346529 201.6 L 571.3561022539858 210.4 L 572.5575407733188 210.4 L 573.7589792926518 210.6 L 574.9604178119847 210.6 L 576.1618563313177 222.9 L 577.3632948506506 234.9 L 578.5647333699836 204.1 L 579.7661718893166 204.1 L 580.9676104086495 154.4 L 582.1690489279825 154.4 L 583.3704874473156 137.2 L 584.5719259666485 137.2 L 585.7733644859815 135.7 L 586.9748030053144 135.7 L 588.1762415246474 140.3 L 589.3776800439804 140.3 L 590.5791185633133 143.3 L 591.7805570826463 143.3 L 592.9819956019792 141.8 L 594.1834341213122 141.8 L 595.3848726406452 114.2 L 596.5863111599781 114.2 L 597.7877496793111 112 L 598.9891881986441 112 L 600.190626717977 122.5 L 601.39206523731 122.5 L 602.5935037566429 130.1 L 603.7949422759759 130.1 L 604.9963807953089 132.7 L 606.1978193146418 132.7 L 607.3992578339748 129.6 L 608.6006963533079 130.1 L 609.8021348726407 130.1 L 611.0035733919738 131.1 L 612.2050119113067 131.1 L 613.4064504306397 148.6 L 614.6078889499727 148.6 L 615.8093274693056 167.1 L 617.0107659886385 167.1 L 618.2122045079715 148.9 L 619.4136430273045 148.9 L 620.6150815466374 130.9 L 621.8165200659704 130.9 L 623.0179585853033 130.4 L 624.2193971046363 130.4 L 625.4208356239693 127.8 L 626.6222741433022 127.8 L 627.8237126626352 132 L 629.0251511819682 132 L 630.2265897013011 135.6 L 631.4280282206341 135.6 L 632.629466739967 137.4 L 633.8309052593 137.4 L 635.032343778633 161.2 L 636.233782297966 159.7 L 637.435220817299 132.2 L 638.636659336632 132.2 L 639.8380978559649 131.2 L 641.0395363752979 131.2 L 642.2409748946308 131.3 L 643.4424134139638 131.9 L 644.6438519332968 131.9 L 645.8452904526297 132.4 L 647.0467289719627 132.4 L 648.2481674912957 132.2 L 649.4496060106286 132.2 L 650.6510445299616 118.8 L 651.8524830492945 118.8 L 653.0539215686275 113.2 L 654.2553600879605 113.2 L 655.4567986072934 124.6 L 656.6582371266264 124.6 L 657.8596756459594 134.3 L 659.0611141652923 134.3 L 660.2625526846253 132.4 L 661.4639912039582 132.4 L 662.6654297232913 131.8 L 663.8668682426243 131.8 L 665.0683067619572 134.9 L 666.2697452812902 134.9 L 667.4711838006232 135.8 L 668.6726223199561 135.8 L 669.8740608392891 161.4 L 671.075499358622 161.4 L 672.276937877955 188.1 L 673.478376397288 188.1 L 674.6798149166209 232.4 L 675.8812534359539 232.4 L 677.0826919552869 282.4 L 678.2841304746198 282.4 L 679.4855689939528 283.7 L 680.6870075132857 283.7 L 681.8884460326187 284.8 L 683.0898845519517 284.8 L 684.2913230712846 285.1 L 685.4927615906176 285.1 L 686.6942001099505 285.7 L 687.8956386292836 285.7 L 689.0970771486166 288.9 L 690.2985156679495 288.9 L 691.4999541872825 311.5 L 692.7013927066155 311.5 L 693.9028312259484 318.2 L 695.1042697452814 284.2 L 696.3057082646143 284.6 L 697.5071467839473 284.6 L 698.7085853032803 284.8 L 699.9100238226132 284.8 L 701.1114623419462 284.1 L 702.3129008612792 284.1 L 703.5143393806121 277.8 L 704.7157778999451 277.8 L 705.917216419278 272.6 L 707.118654938611 276.1 L 708.320093457944 276.1 L 709.5215319772769 282 L 710.72297049661 282 L 711.924409015943 267.6 L 713.1258475352759 267.6 L 714.3272860546089 269.8 L 715.5287245739418 269.8 L 716.7301630932748 283.5 L 717.9316016126078 283.5 L 719.1330401319407 284.3 L 720.3344786512737 284.3 L 721.5359171706067 289.6 L 722.7373556899396 289.6 L 723.9387942092726 315.1 L 725.1402327286055 315.1 L 726.3416712479385 314.6 L 727.5431097672715 314.6 L 728.7445482866044 289.8 L 729.9459868059374 289.8 L 731.1474253252704 284.1 L 732.3488638446033 284.1 L 733.5503023639363 283.9 L 734.7517408832692 283.9 L 735.9531794026022 284.8 L 737.1546179219353 284.8 L 738.3560564412682 283.1 L 739.5574949606012 283.1 L 740.7589334799342 283.9 L 741.9603719992671 283.9 L 743.1618105186001 303.9 L 744.363249037933 303.9 L 745.564687557266 319.4 L 746.766126076599 319.4 L 747.9675645959319 299.9 L 749.1690031152649 299.9 L 750.3704416345979 284.1 L 751.5718801539308 284.1 L 752.7733186732638 284.7 L 753.9747571925967 274.1 L 755.1761957119297 274.1 L 756.3776342312627 274.2 L 757.5790727505956 274.2 L 758.7805112699286 282.3 L 759.9819497892615 282.3 L 761.1833883085945 283.9 L 762.3848268279276 283.9 L 763.5862653472605 284.3 L 764.7877038665935 284.3 L 765.9891423859265 285.1 L 767.1905809052594 285.1 L 768.3920194245924 283.7 L 769.5934579439253 283.7 L 770.7948964632583 282.3 L 771.9963349825913 282.3 L 773.1977735019242 303.5 L 774.3992120212572 303.5 L 775.6006505405902 317.8 L 776.8020890599231 317.8 L 778.0035275792561 296.8 L 779.204966098589 296.8 L 780.406404617922 284.3 L 781.607843137255 284.3 L 782.8092816565879 283.2 L 784.0107201759209 283.2 L 785.212158695254 285.4 L 786.4135972145868 285.4 L 787.6150357339199 284.7 L 788.8164742532527 284.7 L 790.0179127725858 285.4 L 791.2193512919188 285.4 L 792.4207898112517 297.2 L 793.6222283305847 319 L 794.8236668499177 319 L 796.0251053692506 307 L 797.2265438885836 307 L 798.4279824079165 285.9 L 799.6294209272495 285.9 L 800.8308594465825 284.9 L 802.0322979659154 284.9 L 803.2337364852484 283.6 L 804.4351750045814 283.6 L 805.6366135239143 284.2 L 806.8380520432473 284.2 L 808.0394905625802 285.9 L 809.2409290819132 285.9 L 810.4423676012462 281.4 L 811.6438061205791 281.4 L 812.8452446399122 283.7 L 814.0466831592452 283.7 L 815.2481216785781 272.7 L 816.4495601979111 272.7 L 817.650998717244 273.3 L 818.852437236577 273.3 L 820.05387575591 284.7 L 821.2553142752429 284.7 L 822.4567527945759 285.5 L 823.6581913139089 285.5 L 824.8596298332418 300.5 L 826.0610683525748 300.5 L 827.2625068719077 320.2 L 828.4639453912407 320.2 L 829.6653839105737 303 L 830.8668224299066 303 L 832.0682609492396 284.9 L 833.2696994685726 284.9 L 834.4711379879055 284.4 L 835.6725765072385 284.4 L 836.8740150265714 284.3 L 838.0754535459045 284.3 L 839.2768920652375 284.7 L 840.4783305845704 284.7 L 841.6797691039034 284.7 L 842.8812076232363 284.7 L 844.0826461425693 290.7 L 845.2840846619023 290.7 L 846.4855231812352 315.7 L 847.6869617005682 315.7 L 848.8884002199012 312.9 L 850.0898387392341 312.9 L 851.2912772585671 290 L 852.4927157779 290 L 853.694154297233 284.1 L 854.895592816566 284.1 L 856.0970313358989 284.2 L 857.2984698552319 284.2 L 858.4999083745649 284.8 L 859.7013468938978 284.8 L 860.9027854132308 285.1 L 862.1042239325637 285.1 L 863.3056624518968 279.6 L 864.5071009712298 279.6 L 865.7085394905627 275.4 L 866.9099780098957 275.4 L 868.1114165292287 273.3 L 869.3128550485616 273.3 L 870.5142935678946 268.4 L 871.7157320872275 284.7 L 872.9171706065605 284.5 L 874.1186091258935 284.5 L 875.3200476452264 284.7 L 876.5214861645594 284.7 L 877.7229246838924 293.9 L 878.9243632032253 293.9 L 880.1258017225583 318.2 L 881.3272402418912 318.2 L 882.5286787612242 309.3 L 883.7301172805572 309.3 L 884.9315557998901 287.7 L 886.1329943192231 287.7 L 887.3344328385562 283.9 L 888.535871357889 283.9 L 889.7373098772221 284.5 L 890.938748396555 284.4 L 892.140186915888 284.4 L 893.341625435221 285.3 L 894.5430639545539 285.3 L 895.7445024738869 287.3 L 896.9459409932199 287.3 L 898.1473795125528 310.4 L 899.3488180318858 310.4 L 900.5502565512187 318.3 L 901.7516950705517 318.3 L 902.9531335898847 294.9 L 904.1545721092176 294.9 L 905.3560106285506 284.5 L 906.5574491478836 284.5 L 907.7588876672165 274.4 L 908.9603261865495 274.4 L 910.1617647058824 278.9 L 911.3632032252154 278.9 L 912.5646417445485 284 L 913.7660802638813 284 L 914.9675187832144 284.7 L 916.1689573025473 284.7 L 917.3703958218803 278.2 L 918.5718343412133 278.2 L 919.7732728605462 274.1 L 920.9747113798792 274.1 L 922.1761498992122 275.5 L 923.3775884185451 275.5 L 924.5790269378781 282 L 925.780465457211 282 L 926.981903976544 284.1 L 928.183342495877 284.1 L 929.3847810152099 274.3 L 930.5862195345429 289.8 L 931.7876580538759 313.4 L 932.9890965732088 313.4 L 934.1905350925418 315.8 L 935.3919736118747 315.8 L 936.5934121312077 291.9 L 937.7948506505408 291.9 L 938.9962891698736 284.8 L 940.1977276892067 284.8 L 941.3991662085397 283.9 L 942.6006047278726 283.9 L 943.8020432472056 284.8 L 945.0034817665385 284.8 L 946.2049202858715 284.2 L 947.4063588052045 284.2 L 948.6077973245374 286 L 949.8092358438704 286 L 951.0106743632034 302.5 L 952.2121128825363 302.5 L 953.4135514018693 319.3 L 954.6149899212022 319.3 L 955.8164284405352 301.7 L 957.0178669598682 285.6 L 958.2193054792011 285.6 L 959.4207439985341 284.9 L 960.6221825178671 284.9 L 961.8236210372 284.9 L 963.025059556533 284.9 L 964.226498075866 284.8 L 965.427936595199 284.8 L 966.629375114532 284.2 L 967.8308136338649 284.2 L 969.0322521531979 280.3 L 970.2336906725309 280.3 L 971.4351291918638 274.5 L 972.6365677111968 274.5 L 973.8380062305297 274.6 L 975.0394447498627 274.6 L 976.2408832691957 281.4 L 977.4423217885286 281.4 L 978.6437603078616 284.2 L 979.8451988271946 284.2 L 981.0466373465275 284.3 L 982.2480758658605 284.3 L 983.4495143851934 285.2 L 984.6509529045264 285.2 L 985.8523914238594 284.3 L 987.0538299431923 284.3 L 988.2552684625254 274 L 989.4567069818582 302.2 L 990.6581455011913 302.2 L 991.8595840205243 276.5 L 993.0610225398572 276.5 L 994.2624610591902 272.3 L 995.4638995785232 272.3 L 996.6653380978561 283 L 997.8667766171891 283 L 999.068215136522 283.9 L 1000.269653655855 283.9 L 1001.471092175188 284.7 L 1002.6725306945209 284.7 L 1003.8739692138539 285.2 L 1005.0754077331869 285.2 L 1006.2768462525198 295.2 L 1007.4782847718528 295.2 L 1008.6797232911857 319 L 1009.8811618105187 319 L 1011.0826003298517 308.8 L 1012.2840388491846 308.8 L 1013.4854773685176 286.5 L 1014.6869158878507 286.5 L 1015.8883544071836 284.9 L 1017.0897929265166 284.9 L 1018.2912314458495 284.1 L 1019.4926699651825 284.1 L 1020.6941084845155 284.4 L 1021.8955470038484 284.4 L 1023.0969855231814 285.5 L 1024.2984240425144 285.5 L 1025.4998625618473 282.4 L 1026.7013010811802 282.4 L 1027.9027396005133 270.7 L 1029.1041781198462 270.7 L 1030.305616639179 268.4 L 1031.5070551585122 268.4 L 1032.7084936778451 279.1 L 1033.909932197178 279.1 L 1035.1113707165111 283.6 L 1036.312809235844 283.6 L 1037.514247755177 283.7 L 1038.71568627451 277.3 L 1048.71568627451 277.3" class="highcharts-tracker highcharts-tracker" stroke-linejoin="round" visibility="visible" stroke-opacity="0.0001" stroke="rgb(192,192,192)" stroke-width="21" zIndex="2" style=""></path></g></g><g class="highcharts-axis-labels" zIndex="7"><text x="70.2843137254902" y="386" style="font-family:&quot;Lucida Grande&quot;, &quot;Lucida Sans Unicode&quot;, Verdana, Arial, Helvetica, sans-serif;font-size:11px;color:#666;cursor:default;line-height:14px;fill:#666;" text-anchor="middle" opacity="1"><tspan x="70.2843137254902">0</tspan></text><text x="190.4281656587869" y="386" style="font-family:&quot;Lucida Grande&quot;, &quot;Lucida Sans Unicode&quot;, Verdana, Arial, Helvetica, sans-serif;font-size:11px;color:#666;cursor:default;line-height:14px;fill:#666;" text-anchor="middle" opacity="1"><tspan x="190.4281656587869">100</tspan></text><text x="310.5720175920836" y="386" style="font-family:&quot;Lucida Grande&quot;, &quot;Lucida Sans Unicode&quot;, Verdana, Arial, Helvetica, sans-serif;font-size:11px;color:#666;cursor:default;line-height:14px;fill:#666;" text-anchor="middle" opacity="1"><tspan x="310.5720175920836">200</tspan></text><text x="430.7158695253803" y="386" style="font-family:&quot;Lucida Grande&quot;, &quot;Lucida Sans Unicode&quot;, Verdana, Arial, Helvetica, sans-serif;font-size:11px;color:#666;cursor:default;line-height:14px;fill:#666;" text-anchor="middle" opacity="1"><tspan x="430.7158695253803">300</tspan></text><text x="550.8597214586771" y="386" style="font-family:&quot;Lucida Grande&quot;, &quot;Lucida Sans Unicode&quot;, Verdana, Arial, Helvetica, sans-serif;font-size:11px;color:#666;cursor:default;line-height:14px;fill:#666;" text-anchor="middle" opacity="1"><tspan x="550.8597214586771">400</tspan></text><text x="671.0035733919738" y="386" style="font-family:&quot;Lucida Grande&quot;, &quot;Lucida Sans Unicode&quot;, Verdana, Arial, Helvetica, sans-serif;font-size:11px;color:#666;cursor:default;line-height:14px;fill:#666;" text-anchor="middle" opacity="1"><tspan x="671.0035733919738">500</tspan></text><text x="791.1474253252704" y="386" style="font-family:&quot;Lucida Grande&quot;, &quot;Lucida Sans Unicode&quot;, Verdana, Arial, Helvetica, sans-serif;font-size:11px;color:#666;cursor:default;line-height:14px;fill:#666;" text-anchor="middle" opacity="1"><tspan x="791.1474253252704">600</tspan></text><text x="911.2912772585671" y="386" style="font-family:&quot;Lucida Grande&quot;, &quot;Lucida Sans Unicode&quot;, Verdana, Arial, Helvetica, sans-serif;font-size:11px;color:#666;cursor:default;line-height:14px;fill:#666;" text-anchor="middle" opacity="1"><tspan x="911.2912772585671">700</tspan></text><text x="1031.4351291918638" y="386" style="font-family:&quot;Lucida Grande&quot;, &quot;Lucida Sans Unicode&quot;, Verdana, Arial, Helvetica, sans-serif;font-size:11px;color:#666;cursor:default;line-height:14px;fill:#666;" text-anchor="middle" opacity="1"><tspan x="1031.4351291918638">800</tspan></text></g><g class="highcharts-axis-labels" zIndex="7"><text x="52" y="378.115625" style="font-family:&quot;Lucida Grande&quot;, &quot;Lucida Sans Unicode&quot;, Verdana, Arial, Helvetica, sans-serif;font-size:11px;width:505px;color:#666;cursor:default;line-height:14px;fill:#666;" text-anchor="end" opacity="1"><tspan x="52">0</tspan></text><text x="52" y="317.78229166666665" style="font-family:&quot;Lucida Grande&quot;, &quot;Lucida Sans Unicode&quot;, Verdana, Arial, Helvetica, sans-serif;font-size:11px;width:505px;color:#666;cursor:default;line-height:14px;fill:#666;" text-anchor="end" opacity="1"><tspan x="52">0.1</tspan></text><text x="52" y="257.44895833333334" style="font-family:&quot;Lucida Grande&quot;, &quot;Lucida Sans Unicode&quot;, Verdana, Arial, Helvetica, sans-serif;font-size:11px;width:505px;color:#666;cursor:default;line-height:14px;fill:#666;" text-anchor="end" opacity="1"><tspan x="52">0.2</tspan></text><text x="52" y="197.115625" style="font-family:&quot;Lucida Grande&quot;, &quot;Lucida Sans Unicode&quot;, Verdana, Arial, Helvetica, sans-serif;font-size:11px;width:505px;color:#666;cursor:default;line-height:14px;fill:#666;" text-anchor="end" opacity="1"><tspan x="52">0.3</tspan></text><text x="52" y="136.78229166666662" style="font-family:&quot;Lucida Grande&quot;, &quot;Lucida Sans Unicode&quot;, Verdana, Arial, Helvetica, sans-serif;font-size:11px;width:505px;color:#666;cursor:default;line-height:14px;fill:#666;" text-anchor="end" opacity="1"><tspan x="52">0.4</tspan></text><text x="52" y="76.44895833333331" style="font-family:&quot;Lucida Grande&quot;, &quot;Lucida Sans Unicode&quot;, Verdana, Arial, Helvetica, sans-serif;font-size:11px;width:505px;color:#666;cursor:default;line-height:14px;fill:#666;" text-anchor="end" opacity="1"><tspan x="52">0.5</tspan></text><text x="52" y="16.115625" style="font-family:&quot;Lucida Grande&quot;, &quot;Lucida Sans Unicode&quot;, Verdana, Arial, Helvetica, sans-serif;font-size:11px;width:505px;color:#666;cursor:default;line-height:14px;fill:#666;" text-anchor="end" opacity="1"><tspan x="52">0.6</tspan></text></g><g class="highcharts-tooltip" zIndex="8" style="cursor:default;padding:0;white-space:nowrap;" visibility="hidden" transform="translate(175,265)" opacity="0"><rect rx="3" ry="3" fill="none" x="0.5" y="0.5" width="243" height="44.203125" fill-opacity="0.85" isShadow="true" stroke="black" stroke-opacity="0.049999999999999996" stroke-width="5" transform="translate(1, 1)"></rect><rect rx="3" ry="3" fill="none" x="0.5" y="0.5" width="243" height="44.203125" fill-opacity="0.85" isShadow="true" stroke="black" stroke-opacity="0.09999999999999999" stroke-width="3" transform="translate(1, 1)"></rect><rect rx="3" ry="3" fill="none" x="0.5" y="0.5" width="243" height="44.203125" fill-opacity="0.85" isShadow="true" stroke="black" stroke-opacity="0.15" stroke-width="1" transform="translate(1, 1)"></rect><rect rx="3" ry="3" fill="rgb(255,255,255)" x="0.5" y="0.5" width="243" height="44.203125" fill-opacity="0.85" stroke="#2f7ed8" stroke-width="1" anchorX="-11.694180852938842" anchorY="29.046875"></rect><text x="8" y="21" style="font-family:&quot;Lucida Grande&quot;, &quot;Lucida Sans Unicode&quot;, Verdana, Arial, Helvetica, sans-serif;font-size:12px;color:#333333;fill:#333333;" zIndex="1"><tspan style="font-size: 10px" x="8">76</tspan><tspan style="fill:#2f7ed8" x="8" dy="16">fun safari_gc</tspan><tspan dx="0">: </tspan><tspan style="font-weight:bold" dx="0">0.12857251850156404</tspan></text></g><text x="1109" y="395" style="font-family:&quot;Lucida Grande&quot;, &quot;Lucida Sans Unicode&quot;, Verdana, Arial, Helvetica, sans-serif;font-size:9px;cursor:pointer;color:#909090;fill:#909090;" text-anchor="end" zIndex="8"><tspan x="1109">Highcharts.com</tspan></text></svg>