<?xml version="1.0" encoding="UTF-8" standalone="no"?>
<svg width="826px" height="443px" viewBox="0 0 826 443" version="1.1" xmlns="http://www.w3.org/2000/svg" xmlns:xlink="http://www.w3.org/1999/xlink" xmlns:sketch="http://www.bohemiancoding.com/sketch/ns">
    <!-- Generator: Sketch 3.1.1 (8761) - http://www.bohemiancoding.com/sketch -->
    <title>Untitled 2</title>
    <desc>Created with Sketch.</desc>
    <defs></defs>
    <g id="Page-1" stroke="none" stroke-width="1" fill="none" fill-rule="evenodd" sketch:type="MSPage">
        <path d="M48.5,100.5 L792.599426,100.5" id="Line" stroke="#979797" stroke-linecap="square" sketch:type="MSShapeGroup"></path>
        <path d="M48.5,202.5 L792.599426,202.5" id="Line-7" stroke="#979797" stroke-linecap="square" sketch:type="MSShapeGroup"></path>
        <path d="M48.5,304.5 L792.599426,304.5" id="Line-8" stroke="#979797" stroke-linecap="square" sketch:type="MSShapeGroup"></path>
        <rect id="Rectangle-1" opacity="0.31588153" fill="#D0011B" sketch:type="MSShapeGroup" x="189" y="200" width="141" height="206"></rect>
        <path d="M49.3613281,291.673828 C49.3613281,291.673828 64.21875,256.394531 88.5390625,241.429688 C112.859375,226.464844 150.328125,203.488281 165.074219,203.488281 C179.820313,203.488281 226.359375,198.015625 245.761719,198.015625 C265.164062,198.015625 327.179688,196.917969 343.101562,203.488281 C359.023438,210.058594 365.441406,206.281248 386.671875,229.207031 C407.902344,252.132814 415.554688,261.351561 444.355469,276.40625 C473.15625,291.460939 493.691406,319.132811 531.976562,312.953125 C570.261719,306.773439 589.058594,332.179686 632.5625,306.773438 C676.066406,281.367189 706.347656,262.527344 722.3125,242.734375 C738.277344,222.941406 743.5,206.238281 766.078125,196.882813 C788.65625,187.527344 816.457031,194.488281 816.457031,194.488281" id="Path-10" stroke="#D0011B" stroke-width="5" stroke-linecap="round" sketch:type="MSShapeGroup"></path>
        <path d="M48.5,418.5 L48.5,12.376866" id="Y" stroke="#979797" stroke-width="5" stroke-linecap="round" sketch:type="MSShapeGroup"></path>
        <path id="Y-decoration-1" d="M48.5,12.5 C47.45,16.28 46.55,19.52 45.5,23.3 C47.6,23.3 49.4,23.3 51.5,23.3 C50.45,19.52 49.55,16.28 48.5,12.5 C48.5,12.5 48.5,12.5 48.5,12.5 Z" stroke="#979797" stroke-width="5" stroke-linecap="round"></path>
        <path d="M37.5,406.5 L809.665771,406.5" id="X" stroke="#979797" stroke-width="5" stroke-linecap="round" sketch:type="MSShapeGroup"></path>
        <path id="X-decoration-1" d="M809.5,406.5 C805.72,405.45 802.48,404.55 798.7,403.5 C798.7,405.6 798.7,407.4 798.7,409.5 C802.48,408.45 805.72,407.55 809.5,406.5 C809.5,406.5 809.5,406.5 809.5,406.5 Z" stroke="#979797" stroke-width="5" stroke-linecap="round"></path>
        <text id="Время-(с)" sketch:type="MSTextLayer" font-family="Helvetica" font-size="24" font-weight="normal" fill="#4990E2">
            <tspan x="703" y="433">Время (с)</tspan>
        </text>
        <text id="Ток-(А)" sketch:type="MSTextLayer" font-family="Helvetica" font-size="24" font-weight="normal" fill="#4990E2">
            <tspan x="58" y="35">Ток (А)</tspan>
        </text>
        <path d="M189.5,400.5 L189.5,412.5" id="Line" stroke="#979797" stroke-width="5" stroke-linecap="square" sketch:type="MSShapeGroup"></path>
        <path d="M330.5,400.5 L330.5,412.5" id="Line-2" stroke="#979797" stroke-width="5" stroke-linecap="square" sketch:type="MSShapeGroup"></path>
        <path d="M471.5,400.5 L471.5,412.5" id="Line-3" stroke="#979797" stroke-width="5" stroke-linecap="square" sketch:type="MSShapeGroup"></path>
        <path d="M612.5,400.5 L612.5,412.5" id="Line-4" stroke="#979797" stroke-width="5" stroke-linecap="square" sketch:type="MSShapeGroup"></path>
        <path d="M42.5,304.5 L53.5,304.5" id="Line" stroke="#979797" stroke-width="5" stroke-linecap="square" sketch:type="MSShapeGroup"></path>
        <path d="M42.5,202.5 L53.5,202.5" id="Line-5" stroke="#979797" stroke-width="5" stroke-linecap="square" sketch:type="MSShapeGroup"></path>
        <path d="M42.5,100.5 L53.5,100.5" id="Line-6" stroke="#979797" stroke-width="5" stroke-linecap="square" sketch:type="MSShapeGroup"></path>
        <text id="1" sketch:type="MSTextLayer" font-family="Helvetica" font-size="24" font-weight="normal" sketch:alignment="middle" fill="#4990E2">
            <tspan x="183.326172" y="434">1</tspan>
        </text>
        <text id="2" sketch:type="MSTextLayer" font-family="Helvetica" font-size="24" font-weight="normal" sketch:alignment="middle" fill="#4990E2">
            <tspan x="324.326172" y="434">2</tspan>
        </text>
        <text id="3" sketch:type="MSTextLayer" font-family="Helvetica" font-size="24" font-weight="normal" sketch:alignment="middle" fill="#4990E2">
            <tspan x="463.326172" y="434">3</tspan>
        </text>
        <text id="4" sketch:type="MSTextLayer" font-family="Helvetica" font-size="24" font-weight="normal" sketch:alignment="middle" fill="#4990E2">
            <tspan x="603.326172" y="434">4</tspan>
        </text>
        <text id="0.5" sketch:type="MSTextLayer" font-family="Helvetica" font-size="24" font-weight="normal" fill="#4990E2">
            <tspan x="4" y="312">0.5</tspan>
        </text>
        <text id="1.0" sketch:type="MSTextLayer" font-family="Helvetica" font-size="24" font-weight="normal" fill="#4990E2">
            <tspan x="4" y="210">1.0</tspan>
        </text>
        <text id="1.5" sketch:type="MSTextLayer" font-family="Helvetica" font-size="24" font-weight="normal" fill="#4990E2">
            <tspan x="4" y="105">1.5</tspan>
        </text>
    </g>
</svg>