<svg xmlns="http://www.w3.org/2000/svg" version="1.1" width="1120" height="600"><desc>Created with Highcharts 3.0.2</desc><defs><clipPath id="highcharts-1"><rect fill="none" x="0" y="0" width="1050" height="561"></rect></clipPath></defs><rect rx="5" ry="5" fill="#FFFFFF" x="0" y="0" width="1120" height="600"></rect><g class="highcharts-grid" zIndex="1"></g><g class="highcharts-grid" zIndex="1"><path fill="none" d="M 60 502.5 L 1110 502.5" stroke="#C0C0C0" stroke-width="1" zIndex="1" opacity="1"></path><path fill="none" d="M 60 432.5 L 1110 432.5" stroke="#C0C0C0" stroke-width="1" zIndex="1" opacity="1"></path><path fill="none" d="M 60 361.5 L 1110 361.5" stroke="#C0C0C0" stroke-width="1" zIndex="1" opacity="1"></path><path fill="none" d="M 60 291.5 L 1110 291.5" stroke="#C0C0C0" stroke-width="1" zIndex="1" opacity="1"></path><path fill="none" d="M 60 221.5 L 1110 221.5" stroke="#C0C0C0" stroke-width="1" zIndex="1" opacity="1"></path><path fill="none" d="M 60 151.5 L 1110 151.5" stroke="#C0C0C0" stroke-width="1" zIndex="1" opacity="1"></path><path fill="none" d="M 60 80.5 L 1110 80.5" stroke="#C0C0C0" stroke-width="1" zIndex="1" opacity="1"></path><path fill="none" d="M 60 10.5 L 1110 10.5" stroke="#C0C0C0" stroke-width="1" zIndex="1" opacity="1"></path><path fill="none" d="M 60 571.5 L 1110 571.5" stroke="#C0C0C0" stroke-width="1" zIndex="1" opacity="1"></path></g><g class="highcharts-axis" zIndex="2"><path fill="none" d="M 154.5 572 L 154.5 577" stroke="#C0D0E0" stroke-width="1" opacity="1"></path><path fill="none" d="M 239.5 572 L 239.5 577" stroke="#C0D0E0" stroke-width="1" opacity="1"></path><path fill="none" d="M 324.5 572 L 324.5 577" stroke="#C0D0E0" stroke-width="1" opacity="1"></path><path fill="none" d="M 409.5 572 L 409.5 577" stroke="#C0D0E0" stroke-width="1" opacity="1"></path><path fill="none" d="M 494.5 572 L 494.5 577" stroke="#C0D0E0" stroke-width="1" opacity="1"></path><path fill="none" d="M 579.5 572 L 579.5 577" stroke="#C0D0E0" stroke-width="1" opacity="1"></path><path fill="none" d="M 664.5 572 L 664.5 577" stroke="#C0D0E0" stroke-width="1" opacity="1"></path><path fill="none" d="M 749.5 572 L 749.5 577" stroke="#C0D0E0" stroke-width="1" opacity="1"></path><path fill="none" d="M 834.5 572 L 834.5 577" stroke="#C0D0E0" stroke-width="1" opacity="1"></path><path fill="none" d="M 919.5 572 L 919.5 577" stroke="#C0D0E0" stroke-width="1" opacity="1"></path><path fill="none" d="M 1004.5 572 L 1004.5 577" stroke="#C0D0E0" stroke-width="1" opacity="1"></path><path fill="none" d="M 1089.5 572 L 1089.5 577" stroke="#C0D0E0" stroke-width="1" opacity="1"></path><path fill="none" d="M 69.5 572 L 69.5 577" stroke="#C0D0E0" stroke-width="1" opacity="1"></path><path fill="none" d="M 60 571.5 L 1110 571.5" stroke="#C0D0E0" stroke-width="1" zIndex="7" visibility="visible"></path></g><g class="highcharts-axis" zIndex="2"><text x="24.59375" y="291" style="font-family:&quot;Lucida Grande&quot;, &quot;Lucida Sans Unicode&quot;, Verdana, Arial, Helvetica, sans-serif;font-size:12px;color:#4d759e;font-weight:bold;fill:#4d759e;" zIndex="7" text-anchor="middle" transform="translate(0,0) rotate(270 24.59375 291)" visibility="visible"><tspan x="24.59375">Amperage</tspan></text></g><g class="highcharts-series-group" zIndex="3"><g class="highcharts-series" visibility="visible" zIndex="0.1" transform="translate(60,10) scale(1 1)" clip-path="url(#highcharts-1)"><path fill="none" d="M 10.294117647058826 493.1 L 11.9928169287517 493.1 L 13.691516210444577 475.1 L 15.390215492137452 475.1 L 17.08891477383033 475.6 L 18.787614055523203 475.6 L 20.486313337216078 476.2 L 22.185012618908953 476.2 L 23.883711900601828 475.6 L 25.582411182294706 475.6 L 27.281110463987584 476.9 L 28.97980974568046 476.9 L 30.678509027373334 476.9 L 32.37720830906621 476.9 L 34.07590759075909 491.2 L 35.77460687245196 491.2 L 37.47330615414484 487.5 L 39.17200543583771 487.5 L 40.870704717530586 463 L 42.56940399922346 471.6 L 44.268103280916336 471.6 L 45.96680256260921 476 L 47.665501844302085 476 L 49.36420112599497 505.7 L 51.06290040768784 505.7 L 52.761599689380716 509.4 L 54.46029897107359 509.4 L 56.158998252766466 488.6 L 57.85769753445934 488.6 L 59.556396816152215 476 L 61.25509609784509 476 L 62.953795379537965 475.5 L 64.65249466123085 475.5 L 66.35119394292371 425.5 L 68.0498932246166 425.5 L 69.74859250630946 437.4 L 71.44729178800235 437.4 L 73.14599106969521 468.6 L 74.8446903513881 468.6 L 76.54338963308098 475.7 L 78.24208891477384 475.7 L 79.94078819646673 492 L 81.6394874781596 492 L 83.33818675985248 480 L 85.03688604154534 480 L 86.73558532323823 458.1 L 88.4342846049311 458.1 L 90.13298388662398 467.1 L 91.83168316831684 467.1 L 93.53038245000972 470 L 95.2290817317026 470 L 96.92778101339547 471 L 98.62648029508836 471 L 100.32517957678122 471 L 102.0238788584741 480.5 L 103.72257814016697 480.5 L 105.42127742185986 483.2 L 107.11997670355272 483.2 L 108.8186759852456 437.6 L 110.51737526693847 437.6 L 112.21607454863135 470 L 113.91477383032424 470 L 115.6134731120171 468.1 L 117.31217239370999 468.1 L 119.01087167540285 473.9 L 120.70957095709574 473.9 L 122.4082702387886 475.6 L 124.10696952048148 475.6 L 125.80566880217435 447.6 L 127.50436808386723 447.6 L 129.20306736556012 363.7 L 130.901766647253 363.7 L 132.60046592894585 341.9 L 134.29916521063873 341.9 L 135.99786449233162 354.9 L 137.6965637740245 354.9 L 139.39526305571735 359.9 L 141.09396233741023 359.9 L 142.79266161910311 371.2 L 144.491360900796 371.2 L 146.19006018248885 376.5 L 147.88875946418173 376.5 L 149.5874587458746 386.4 L 151.2861580275675 386.4 L 152.98485730926038 414.1 L 154.68355659095323 414.1 L 156.3822558726461 411.5 L 158.080955154339 411.5 L 159.77965443603188 383.2 L 161.47835371772473 383.2 L 163.1770529994176 374 L 164.8757522811105 374 L 166.57445156280338 367.6 L 168.27315084449626 367.6 L 169.9718501261891 376.3 L 171.670549407882 376.3 L 173.36924868957487 372.6 L 175.06794797126776 372.6 L 176.7666472529606 367.2 L 178.4653465346535 367.2 L 180.16404581634637 373.5 L 181.86274509803926 382.4 L 183.5614443797321 382.4 L 185.260143661425 363.6 L 186.95884294311787 363.6 L 188.65754222481075 356.2 L 190.35624150650364 356.2 L 192.0549407881965 345 L 193.75364006988937 345 L 195.45233935158225 320 L 197.15103863327514 320 L 198.849737914968 143.3 L 200.54843719666087 143.3 L 202.24713647835375 47.4 L 203.94583576004663 47.4 L 205.64453504173952 76.6 L 207.34323432343237 76.6 L 209.04193360512525 80.8 L 210.74063288681813 80.8 L 212.43933216851102 83.3 L 214.13803145020387 83.3 L 215.83673073189675 50.4 L 217.53543001358963 50.4 L 219.23412929528251 49.7 L 220.9328285769754 49.7 L 222.63152785866825 51.9 L 224.33022714036113 51.9 L 226.028926422054 120.5 L 227.7276257037469 120.5 L 229.42632498543975 387.3 L 231.12502426713263 387.3 L 232.8237235488255 431 L 234.5224228305184 431 L 236.22112211221125 422.3 L 237.91982139390413 422.3 L 239.618520675597 418.7 L 241.3172199572899 418.7 L 243.01591923898278 433 L 244.71461852067563 435.1 L 246.4133178023685 435.1 L 248.1120170840614 437 L 249.81071636575427 437 L 251.50941564744713 460.7 L 253.20811492914 460.7 L 254.9068142108329 476.5 L 256.60551349252574 476.5 L 258.3042127742186 462.2 L 260.0029120559115 462.2 L 261.7016113376044 436.7 L 263.4003106192973 436.7 L 265.09900990099015 396.2 L 266.79770918268304 396.2 L 268.4964084643759 144.6 L 270.19510774606874 144.6 L 271.8938070277616 86.5 L 273.5925063094545 86.5 L 275.2912055911474 77.6 L 276.98990487284027 77.6 L 278.68860415453315 98.7 L 280.38730343622603 98.7 L 282.0860027179189 391.5 L 283.7847019996118 391.5 L 285.4834012813046 484.5 L 287.1821005629975 484.5 L 288.8807998446904 461.9 L 290.57949912638327 461.9 L 292.27819840807615 459 L 293.97689768976903 459 L 295.6755969714619 467.9 L 297.3742962531548 467.9 L 299.0729955348477 468.8 L 300.7716948165405 468.8 L 302.4703940982334 431 L 304.16909337992627 431 L 305.86779266161915 195.5 L 307.56649194331203 113.7 L 309.2651912250049 113.7 L 310.9638905066978 109.7 L 312.6625897883907 109.7 L 314.36128907008356 133.4 L 316.0599883517764 133.4 L 317.75868763346926 281.6 L 319.45738691516215 281.6 L 321.15608619685503 457.4 L 322.8547854785479 457.4 L 324.5534847602408 467.9 L 326.2521840419337 467.9 L 327.95088332362656 462.7 L 329.64958260531944 462.7 L 331.34828188701226 396 L 333.04698116870514 396 L 334.745680450398 449.2 L 336.4443797320909 449.2 L 338.1430790137838 484.5 L 339.8417782954767 484.5 L 341.54047757716955 461.2 L 343.23917685886244 461.2 L 344.93787614055526 461.9 L 346.63657542224814 461.9 L 348.335274703941 466.2 L 350.0339739856339 466.2 L 351.7326732673268 465.8 L 353.43137254901967 465.8 L 355.13007183071255 465.4 L 356.82877111240543 465.4 L 358.5274703940983 458.1 L 360.22616967579114 458.1 L 361.924868957484 480 L 363.6235682391769 480 L 365.3222675208698 505.1 L 367.02096680256267 505.1 L 368.71966608425555 482.2 L 370.41836536594843 482.2 L 372.1170646476413 464.9 L 373.8157639293342 464.9 L 375.514463211027 378.6 L 377.2131624927199 378.6 L 378.9118617744128 424.8 L 380.61056105610567 424.8 L 382.30926033779855 443.1 L 384.00795961949143 419.8 L 385.7066589011843 419.8 L 387.4053581828772 482.5 L 389.1040574645701 482.5 L 390.8027567462629 476.2 L 392.5014560279558 476.2 L 394.20015530964866 458.1 L 395.89885459134155 458.1 L 397.5975538730344 464.4 L 399.2962531547273 464.4 L 400.9949524364202 465.3 L 402.6936517181131 465.3 L 404.39235099980596 465.9 L 406.0910502814988 465.9 L 407.78974956319166 466.2 L 409.48844884488454 466.2 L 411.1871481265774 459.5 L 412.8858474082703 459.5 L 414.5845466899632 490.7 L 416.2832459716561 490.7 L 417.98194525334895 506.6 L 419.68064453504184 506.6 L 421.37934381673466 485.7 L 423.07804309842754 485.7 L 424.7767423801204 469.1 L 426.4754416618133 469.1 L 428.1741409435062 460.4 L 429.87284022519907 460.4 L 431.57153950689195 444.8 L 433.27023878858483 444.8 L 434.96893807027766 463.9 L 436.66763735197054 463.9 L 438.3663366336634 463 L 440.0650359153563 463 L 441.7637351970492 459.7 L 443.46243447874207 459.7 L 445.16113376043495 489.4 L 446.85983304212783 489.4 L 448.5585323238207 479.6 L 450.25723160551354 479.6 L 451.9559308872064 457.8 L 453.6546301688993 457.8 L 455.3533294505922 463.9 L 457.05202873228507 466.1 L 458.75072801397795 466.1 L 460.44942729567083 466.2 L 462.1481265773637 466.2 L 463.8468258590566 466.9 L 465.5455251407494 505.9 L 467.2442244224423 481.6 L 468.9429237041352 481.6 L 470.64162298582806 468.3 L 472.34032226752095 468.3 L 474.0390215492138 465.8 L 475.7377208309067 465.8 L 477.4364201125996 466.1 L 479.1351193942925 466.1 L 480.8338186759853 466.1 L 482.5325179576782 466.1 L 484.23121723937106 460.3 L 485.92991652106394 460.3 L 487.6286158027568 462.2 L 489.3273150844497 462.2 L 491.0260143661426 491.2 L 492.7247136478355 491.2 L 494.42341292952835 475.5 L 496.1221122112212 475.5 L 497.82081149291406 458.8 L 499.51951077460694 458.8 L 501.2182100562998 465.3 L 502.9169093379927 465.3 L 504.6156086196856 466.8 L 506.31430790137847 466.8 L 508.01300718307135 465.4 L 509.7117064647642 465.4 L 511.41040574645706 465.3 L 513.10910502815 465.3 L 514.8078043098428 398.4 L 516.5065035915358 398.4 L 518.2052028732286 333.4 L 519.9039021549214 333.4 L 521.6026014366143 480.8 L 523.3013007183072 480.8 L 525.0000000000001 474 L 526.6986992816929 474 L 528.3973985633859 388.7 L 530.0960978450787 388.7 L 531.7947971267716 431.5 L 533.4934964084645 431.5 L 535.1921956901573 459.3 L 536.8908949718502 459.3 L 538.589594253543 459.2 L 540.288293535236 459.2 L 541.9869928169288 459 L 543.6856920986218 459 L 545.3843913803146 467.9 L 547.0830906620075 467.9 L 548.7817899437003 466 L 550.4804892253932 466 L 552.1791885070861 465.8 L 553.8778877887789 465.8 L 555.5765870704719 465.9 L 557.2752863521647 465.9 L 558.9739856338576 465.9 L 560.6726849155505 465.9 L 562.3713841972433 474.2 L 564.0700834789362 505.1 L 565.768782760629 505.1 L 567.467482042322 492.9 L 569.1661813240148 492.9 L 570.8648806057078 467.4 L 572.5635798874006 467.4 L 574.2622791690935 463 L 575.9609784507863 463 L 577.6596777324792 464.6 L 579.3583770141721 464.6 L 581.0570762958649 465.1 L 582.7557755775579 465.1 L 584.4544748592507 466.4 L 586.1531741409436 466.4 L 587.8518734226365 456.9 L 589.5505727043294 456.9 L 591.2492719860222 474.6 L 592.947971267715 474.6 L 594.646670549408 490.5 L 596.3453698311008 490.5 L 598.0440691127937 466.7 L 599.7427683944866 466.7 L 601.4414676761795 460.3 L 603.1401669578723 460.3 L 604.8388662395653 466 L 606.5375655212581 466 L 608.2362648029509 465.5 L 609.9349640846439 465.5 L 611.6336633663367 466.8 L 613.3323626480296 466.8 L 615.0310619297225 464.6 L 616.7297612114154 464.6 L 618.4284604931082 479.3 L 620.1271597748012 479.3 L 621.825859056494 506.5 L 623.5245583381868 506.5 L 625.2232576198797 489.2 L 626.9219569015726 489.2 L 628.6206561832655 472 L 630.3193554649583 472 L 632.0180547466513 466 L 633.7167540283441 464.9 L 635.415453310037 464.9 L 637.1141525917299 466.6 L 638.8128518734227 466.6 L 640.5115511551156 455.3 L 642.2102504368085 455.3 L 643.9089497185014 479.6 L 645.6076490001942 479.6 L 647.3063482818872 488.2 L 649.00504756358 488.2 L 650.7037468452729 464.5 L 652.4024461269657 464.5 L 654.1011454086586 461.2 L 655.7998446903515 461.2 L 657.4985439720443 460 L 659.1972432537373 460 L 660.8959425354301 397.1 L 662.594641817123 397.1 L 664.2933410988159 446.7 L 665.9920403805088 446.7 L 667.6907396622016 458.2 L 669.3894389438944 458.2 L 671.0881382255874 482.4 L 672.7868375072802 482.4 L 674.4855367889731 509 L 676.184236070666 509 L 677.8829353523589 489.4 L 679.5816346340517 489.4 L 681.2803339157447 390.4 L 682.9790331974375 390.4 L 684.6777324791303 430.4 L 686.3764317608233 430.4 L 688.0751310425161 458 L 689.773830324209 457.5 L 691.4725296059019 457.5 L 693.1712288875948 438.4 L 694.8699281692876 438.4 L 696.5686274509806 436 L 698.2673267326734 436 L 699.9660260143662 444.4 L 701.6647252960591 444.4 L 703.363424577752 445.8 L 705.0621238594449 445.8 L 706.7608231411377 454.2 L 708.4595224228307 454.2 L 710.1582217045235 462 L 711.8569209862164 462 L 713.5556202679093 465.8 L 715.2543195496021 465.2 L 716.953018831295 489.4 L 718.6517181129879 489.4 L 720.3504173946808 464.4 L 722.0491166763736 464.4 L 723.7478159580666 414.9 L 725.4465152397594 414.9 L 727.1452145214522 462.1 L 728.8439138031451 462.1 L 730.542613084838 466.9 L 732.2413123665309 466.9 L 733.9400116482237 466.9 L 735.6387109299167 466.9 L 737.3374102116095 465.4 L 739.0361094933024 465.4 L 740.7348087749953 465.5 L 742.4335080566881 465.5 L 744.132207338381 456.1 L 745.8309066200738 456.1 L 747.5296059017668 488.1 L 749.2283051834596 488.1 L 750.9270044651525 482.9 L 752.6257037468454 482.9 L 754.3244030285383 457.7 L 756.0231023102311 457.7 L 757.721801591924 464.5 L 759.4205008736169 464.5 L 761.1192001553097 466.2 L 762.8178994370027 466.2 L 764.5165987186955 465.8 L 766.2152980003884 465.8 L 767.9139972820813 466.4 L 769.6126965637742 466.4 L 771.311395845467 462.1 L 773.0100951271598 462.1 L 774.7087944088528 495.3 L 776.4074936905456 495.3 L 778.1061929722385 507.3 L 779.8048922539314 507.3 L 781.5035915356243 485.6 L 783.2022908173171 485.6 L 784.9009900990101 468.5 L 786.5996893807029 468.5 L 788.2983886623957 461 L 789.9970879440887 461 L 791.6957872257815 375.7 L 793.3944865074744 375.7 L 795.0931857891673 434.5 L 796.7918850708602 434.5 L 798.490584352553 473.1 L 800.189283634246 473.1 L 801.8879829159388 458.2 L 803.5866821976316 458.2 L 805.2853814793245 466 L 806.9840807610174 466 L 808.6827800427103 467.4 L 810.3814793244031 467.4 L 812.0801786060961 467.5 L 813.7788778877889 467.5 L 815.4775771694818 467.2 L 817.1762764511747 468.6 L 818.8749757328675 468.6 L 820.5736750145604 501.3 L 822.2723742962532 501.3 L 823.9710735779462 502.8 L 825.669772859639 502.8 L 827.368472141332 405.3 L 829.0671714230248 405.3 L 830.7658707047177 412.5 L 832.4645699864105 412.5 L 834.1632692681034 465.8 L 835.8619685497963 465.8 L 837.5606678314891 466.4 L 839.2593671131821 466.4 L 840.9580663948749 466.9 L 842.6567656765678 466.9 L 844.3554649582607 461.2 L 846.0541642399536 461.2 L 847.7528635216464 466.3 L 849.4515628033392 466.3 L 851.1502620850322 490.3 L 852.848961366725 490.3 L 854.547660648418 467.9 L 856.2463599301108 467.9 L 857.9450592118037 458 L 859.6437584934965 458 L 861.3424577751895 465.4 L 863.0411570568823 465.4 L 864.7398563385751 467.4 L 866.4385556202681 467.4 L 868.1372549019609 467.2 L 869.8359541836537 467.2 L 871.5346534653465 466.7 L 873.2333527470395 466.7 L 874.9320520287323 471.5 L 876.6307513104252 471.5 L 878.3294505921181 504.9 L 880.028149873811 504.9 L 881.7268491555038 468.7 L 883.4255484371967 468.7 L 885.1242477188896 467.7 L 886.8229470005824 467.7 L 888.5216462822754 468.1 L 890.2203455639682 468.1 L 891.9190448456611 461.5 L 893.617744127354 461.5 L 895.3164434090469 472.1 L 897.0151426907397 472.1 L 898.7138419724325 492.5 L 900.4125412541255 492.5 L 902.1112405358183 471.6 L 903.8099398175112 471.6 L 905.5086390992041 459.5 L 907.207338380897 459.5 L 908.9060376625898 469 L 910.6047369442828 469 L 912.3034362259756 467.4 L 914.0021355076684 467.4 L 915.7008347893614 467.6 L 917.3995340710542 467.6 L 919.0982333527471 467.6 L 920.7969326344399 467.6 L 922.4956319161329 481.8 L 924.1943311978257 481.8 L 925.8930304795186 507.6 L 927.5917297612115 507.6 L 929.2904290429043 497 L 930.9891283245972 497 L 932.68782760629 473.9 L 934.386526887983 473.9 L 936.0852261696758 467.9 L 937.7839254513688 467.9 L 939.4826247330616 467.6 L 941.1813240147545 467.6 L 942.8800232964473 467.7 L 944.5787225781402 467.7 L 946.2774218598331 467.4 L 947.9761211415259 467.4 L 949.6748204232189 460.6 L 951.3735197049117 478.4 L 953.0722189866046 478.4 L 954.7709182682975 491.5 L 956.4696175499904 491.5 L 958.1683168316832 467.4 L 959.867016113376 467.4 L 961.565715395069 462.2 L 963.2644146767618 462.2 L 964.9631139584548 443.9 L 966.6618132401476 443.9 L 968.3605125218405 486.2 L 970.0592118035333 486.2 L 971.7579110852262 502.7 L 973.4566103669191 502.7 L 975.1553096486119 447.3 L 976.8540089303049 447.3 L 978.5527082119977 444.2 L 980.2514074936906 444.2 L 981.9501067753835 466 L 983.6488060570764 466 L 985.3475053387692 463.7 L 987.046204620462 463.7 L 988.744903902155 467.6 L 990.4436031838478 467.6 L 992.1423024655408 467.6 L 993.8410017472336 467.6 L 995.5397010289265 461.8 L 997.2384003106193 461.8 L 998.9370995923123 484.7 L 1000.6357988740051 484.7 L 1002.3344981556979 487.2 L 1004.0331974373909 461.4 L 1005.7318967190837 461.4 L 1007.4305960007766 462.8 L 1009.1292952824695 462.8 L 1010.8279945641624 467.6 L 1012.5266938458552 467.6 L 1014.2253931275482 467.8 L 1015.924092409241 467.8 L 1017.6227916909338 467.6 L 1019.3214909726267 467.6 L 1021.0201902543196 469.5 L 1022.7188895360125 469.5 L 1024.4175888177053 490.8 L 1026.1162880993982 490.8 L 1027.8149873810912 510.4 L 1029.513686662784 510.4 L 1031.2123859444769 493.6 L 1032.9110852261697 493.6 L 1034.6097845078625 471.7 L 1036.3084837895556 471.7 L 1038.0071830712484 469 L 1039.7058823529412 469" stroke="#2f7ed8" stroke-width="1" zIndex="1"></path></g><g class="highcharts-markers" visibility="visible" zIndex="0.1" transform="translate(60,10) scale(1 1)" clip-path="none"><path fill="none" d="M 0.29411764705882604 493.1 L 10.294117647058826 493.1 L 11.9928169287517 493.1 L 13.691516210444577 475.1 L 15.390215492137452 475.1 L 17.08891477383033 475.6 L 18.787614055523203 475.6 L 20.486313337216078 476.2 L 22.185012618908953 476.2 L 23.883711900601828 475.6 L 25.582411182294706 475.6 L 27.281110463987584 476.9 L 28.97980974568046 476.9 L 30.678509027373334 476.9 L 32.37720830906621 476.9 L 34.07590759075909 491.2 L 35.77460687245196 491.2 L 37.47330615414484 487.5 L 39.17200543583771 487.5 L 40.870704717530586 463 L 42.56940399922346 471.6 L 44.268103280916336 471.6 L 45.96680256260921 476 L 47.665501844302085 476 L 49.36420112599497 505.7 L 51.06290040768784 505.7 L 52.761599689380716 509.4 L 54.46029897107359 509.4 L 56.158998252766466 488.6 L 57.85769753445934 488.6 L 59.556396816152215 476 L 61.25509609784509 476 L 62.953795379537965 475.5 L 64.65249466123085 475.5 L 66.35119394292371 425.5 L 68.0498932246166 425.5 L 69.74859250630946 437.4 L 71.44729178800235 437.4 L 73.14599106969521 468.6 L 74.8446903513881 468.6 L 76.54338963308098 475.7 L 78.24208891477384 475.7 L 79.94078819646673 492 L 81.6394874781596 492 L 83.33818675985248 480 L 85.03688604154534 480 L 86.73558532323823 458.1 L 88.4342846049311 458.1 L 90.13298388662398 467.1 L 91.83168316831684 467.1 L 93.53038245000972 470 L 95.2290817317026 470 L 96.92778101339547 471 L 98.62648029508836 471 L 100.32517957678122 471 L 102.0238788584741 480.5 L 103.72257814016697 480.5 L 105.42127742185986 483.2 L 107.11997670355272 483.2 L 108.8186759852456 437.6 L 110.51737526693847 437.6 L 112.21607454863135 470 L 113.91477383032424 470 L 115.6134731120171 468.1 L 117.31217239370999 468.1 L 119.01087167540285 473.9 L 120.70957095709574 473.9 L 122.4082702387886 475.6 L 124.10696952048148 475.6 L 125.80566880217435 447.6 L 127.50436808386723 447.6 L 129.20306736556012 363.7 L 130.901766647253 363.7 L 132.60046592894585 341.9 L 134.29916521063873 341.9 L 135.99786449233162 354.9 L 137.6965637740245 354.9 L 139.39526305571735 359.9 L 141.09396233741023 359.9 L 142.79266161910311 371.2 L 144.491360900796 371.2 L 146.19006018248885 376.5 L 147.88875946418173 376.5 L 149.5874587458746 386.4 L 151.2861580275675 386.4 L 152.98485730926038 414.1 L 154.68355659095323 414.1 L 156.3822558726461 411.5 L 158.080955154339 411.5 L 159.77965443603188 383.2 L 161.47835371772473 383.2 L 163.1770529994176 374 L 164.8757522811105 374 L 166.57445156280338 367.6 L 168.27315084449626 367.6 L 169.9718501261891 376.3 L 171.670549407882 376.3 L 173.36924868957487 372.6 L 175.06794797126776 372.6 L 176.7666472529606 367.2 L 178.4653465346535 367.2 L 180.16404581634637 373.5 L 181.86274509803926 382.4 L 183.5614443797321 382.4 L 185.260143661425 363.6 L 186.95884294311787 363.6 L 188.65754222481075 356.2 L 190.35624150650364 356.2 L 192.0549407881965 345 L 193.75364006988937 345 L 195.45233935158225 320 L 197.15103863327514 320 L 198.849737914968 143.3 L 200.54843719666087 143.3 L 202.24713647835375 47.4 L 203.94583576004663 47.4 L 205.64453504173952 76.6 L 207.34323432343237 76.6 L 209.04193360512525 80.8 L 210.74063288681813 80.8 L 212.43933216851102 83.3 L 214.13803145020387 83.3 L 215.83673073189675 50.4 L 217.53543001358963 50.4 L 219.23412929528251 49.7 L 220.9328285769754 49.7 L 222.63152785866825 51.9 L 224.33022714036113 51.9 L 226.028926422054 120.5 L 227.7276257037469 120.5 L 229.42632498543975 387.3 L 231.12502426713263 387.3 L 232.8237235488255 431 L 234.5224228305184 431 L 236.22112211221125 422.3 L 237.91982139390413 422.3 L 239.618520675597 418.7 L 241.3172199572899 418.7 L 243.01591923898278 433 L 244.71461852067563 435.1 L 246.4133178023685 435.1 L 248.1120170840614 437 L 249.81071636575427 437 L 251.50941564744713 460.7 L 253.20811492914 460.7 L 254.9068142108329 476.5 L 256.60551349252574 476.5 L 258.3042127742186 462.2 L 260.0029120559115 462.2 L 261.7016113376044 436.7 L 263.4003106192973 436.7 L 265.09900990099015 396.2 L 266.79770918268304 396.2 L 268.4964084643759 144.6 L 270.19510774606874 144.6 L 271.8938070277616 86.5 L 273.5925063094545 86.5 L 275.2912055911474 77.6 L 276.98990487284027 77.6 L 278.68860415453315 98.7 L 280.38730343622603 98.7 L 282.0860027179189 391.5 L 283.7847019996118 391.5 L 285.4834012813046 484.5 L 287.1821005629975 484.5 L 288.8807998446904 461.9 L 290.57949912638327 461.9 L 292.27819840807615 459 L 293.97689768976903 459 L 295.6755969714619 467.9 L 297.3742962531548 467.9 L 299.0729955348477 468.8 L 300.7716948165405 468.8 L 302.4703940982334 431 L 304.16909337992627 431 L 305.86779266161915 195.5 L 307.56649194331203 113.7 L 309.2651912250049 113.7 L 310.9638905066978 109.7 L 312.6625897883907 109.7 L 314.36128907008356 133.4 L 316.0599883517764 133.4 L 317.75868763346926 281.6 L 319.45738691516215 281.6 L 321.15608619685503 457.4 L 322.8547854785479 457.4 L 324.5534847602408 467.9 L 326.2521840419337 467.9 L 327.95088332362656 462.7 L 329.64958260531944 462.7 L 331.34828188701226 396 L 333.04698116870514 396 L 334.745680450398 449.2 L 336.4443797320909 449.2 L 338.1430790137838 484.5 L 339.8417782954767 484.5 L 341.54047757716955 461.2 L 343.23917685886244 461.2 L 344.93787614055526 461.9 L 346.63657542224814 461.9 L 348.335274703941 466.2 L 350.0339739856339 466.2 L 351.7326732673268 465.8 L 353.43137254901967 465.8 L 355.13007183071255 465.4 L 356.82877111240543 465.4 L 358.5274703940983 458.1 L 360.22616967579114 458.1 L 361.924868957484 480 L 363.6235682391769 480 L 365.3222675208698 505.1 L 367.02096680256267 505.1 L 368.71966608425555 482.2 L 370.41836536594843 482.2 L 372.1170646476413 464.9 L 373.8157639293342 464.9 L 375.514463211027 378.6 L 377.2131624927199 378.6 L 378.9118617744128 424.8 L 380.61056105610567 424.8 L 382.30926033779855 443.1 L 384.00795961949143 419.8 L 385.7066589011843 419.8 L 387.4053581828772 482.5 L 389.1040574645701 482.5 L 390.8027567462629 476.2 L 392.5014560279558 476.2 L 394.20015530964866 458.1 L 395.89885459134155 458.1 L 397.5975538730344 464.4 L 399.2962531547273 464.4 L 400.9949524364202 465.3 L 402.6936517181131 465.3 L 404.39235099980596 465.9 L 406.0910502814988 465.9 L 407.78974956319166 466.2 L 409.48844884488454 466.2 L 411.1871481265774 459.5 L 412.8858474082703 459.5 L 414.5845466899632 490.7 L 416.2832459716561 490.7 L 417.98194525334895 506.6 L 419.68064453504184 506.6 L 421.37934381673466 485.7 L 423.07804309842754 485.7 L 424.7767423801204 469.1 L 426.4754416618133 469.1 L 428.1741409435062 460.4 L 429.87284022519907 460.4 L 431.57153950689195 444.8 L 433.27023878858483 444.8 L 434.96893807027766 463.9 L 436.66763735197054 463.9 L 438.3663366336634 463 L 440.0650359153563 463 L 441.7637351970492 459.7 L 443.46243447874207 459.7 L 445.16113376043495 489.4 L 446.85983304212783 489.4 L 448.5585323238207 479.6 L 450.25723160551354 479.6 L 451.9559308872064 457.8 L 453.6546301688993 457.8 L 455.3533294505922 463.9 L 457.05202873228507 466.1 L 458.75072801397795 466.1 L 460.44942729567083 466.2 L 462.1481265773637 466.2 L 463.8468258590566 466.9 L 465.5455251407494 505.9 L 467.2442244224423 481.6 L 468.9429237041352 481.6 L 470.64162298582806 468.3 L 472.34032226752095 468.3 L 474.0390215492138 465.8 L 475.7377208309067 465.8 L 477.4364201125996 466.1 L 479.1351193942925 466.1 L 480.8338186759853 466.1 L 482.5325179576782 466.1 L 484.23121723937106 460.3 L 485.92991652106394 460.3 L 487.6286158027568 462.2 L 489.3273150844497 462.2 L 491.0260143661426 491.2 L 492.7247136478355 491.2 L 494.42341292952835 475.5 L 496.1221122112212 475.5 L 497.82081149291406 458.8 L 499.51951077460694 458.8 L 501.2182100562998 465.3 L 502.9169093379927 465.3 L 504.6156086196856 466.8 L 506.31430790137847 466.8 L 508.01300718307135 465.4 L 509.7117064647642 465.4 L 511.41040574645706 465.3 L 513.10910502815 465.3 L 514.8078043098428 398.4 L 516.5065035915358 398.4 L 518.2052028732286 333.4 L 519.9039021549214 333.4 L 521.6026014366143 480.8 L 523.3013007183072 480.8 L 525.0000000000001 474 L 526.6986992816929 474 L 528.3973985633859 388.7 L 530.0960978450787 388.7 L 531.7947971267716 431.5 L 533.4934964084645 431.5 L 535.1921956901573 459.3 L 536.8908949718502 459.3 L 538.589594253543 459.2 L 540.288293535236 459.2 L 541.9869928169288 459 L 543.6856920986218 459 L 545.3843913803146 467.9 L 547.0830906620075 467.9 L 548.7817899437003 466 L 550.4804892253932 466 L 552.1791885070861 465.8 L 553.8778877887789 465.8 L 555.5765870704719 465.9 L 557.2752863521647 465.9 L 558.9739856338576 465.9 L 560.6726849155505 465.9 L 562.3713841972433 474.2 L 564.0700834789362 505.1 L 565.768782760629 505.1 L 567.467482042322 492.9 L 569.1661813240148 492.9 L 570.8648806057078 467.4 L 572.5635798874006 467.4 L 574.2622791690935 463 L 575.9609784507863 463 L 577.6596777324792 464.6 L 579.3583770141721 464.6 L 581.0570762958649 465.1 L 582.7557755775579 465.1 L 584.4544748592507 466.4 L 586.1531741409436 466.4 L 587.8518734226365 456.9 L 589.5505727043294 456.9 L 591.2492719860222 474.6 L 592.947971267715 474.6 L 594.646670549408 490.5 L 596.3453698311008 490.5 L 598.0440691127937 466.7 L 599.7427683944866 466.7 L 601.4414676761795 460.3 L 603.1401669578723 460.3 L 604.8388662395653 466 L 606.5375655212581 466 L 608.2362648029509 465.5 L 609.9349640846439 465.5 L 611.6336633663367 466.8 L 613.3323626480296 466.8 L 615.0310619297225 464.6 L 616.7297612114154 464.6 L 618.4284604931082 479.3 L 620.1271597748012 479.3 L 621.825859056494 506.5 L 623.5245583381868 506.5 L 625.2232576198797 489.2 L 626.9219569015726 489.2 L 628.6206561832655 472 L 630.3193554649583 472 L 632.0180547466513 466 L 633.7167540283441 464.9 L 635.415453310037 464.9 L 637.1141525917299 466.6 L 638.8128518734227 466.6 L 640.5115511551156 455.3 L 642.2102504368085 455.3 L 643.9089497185014 479.6 L 645.6076490001942 479.6 L 647.3063482818872 488.2 L 649.00504756358 488.2 L 650.7037468452729 464.5 L 652.4024461269657 464.5 L 654.1011454086586 461.2 L 655.7998446903515 461.2 L 657.4985439720443 460 L 659.1972432537373 460 L 660.8959425354301 397.1 L 662.594641817123 397.1 L 664.2933410988159 446.7 L 665.9920403805088 446.7 L 667.6907396622016 458.2 L 669.3894389438944 458.2 L 671.0881382255874 482.4 L 672.7868375072802 482.4 L 674.4855367889731 509 L 676.184236070666 509 L 677.8829353523589 489.4 L 679.5816346340517 489.4 L 681.2803339157447 390.4 L 682.9790331974375 390.4 L 684.6777324791303 430.4 L 686.3764317608233 430.4 L 688.0751310425161 458 L 689.773830324209 457.5 L 691.4725296059019 457.5 L 693.1712288875948 438.4 L 694.8699281692876 438.4 L 696.5686274509806 436 L 698.2673267326734 436 L 699.9660260143662 444.4 L 701.6647252960591 444.4 L 703.363424577752 445.8 L 705.0621238594449 445.8 L 706.7608231411377 454.2 L 708.4595224228307 454.2 L 710.1582217045235 462 L 711.8569209862164 462 L 713.5556202679093 465.8 L 715.2543195496021 465.2 L 716.953018831295 489.4 L 718.6517181129879 489.4 L 720.3504173946808 464.4 L 722.0491166763736 464.4 L 723.7478159580666 414.9 L 725.4465152397594 414.9 L 727.1452145214522 462.1 L 728.8439138031451 462.1 L 730.542613084838 466.9 L 732.2413123665309 466.9 L 733.9400116482237 466.9 L 735.6387109299167 466.9 L 737.3374102116095 465.4 L 739.0361094933024 465.4 L 740.7348087749953 465.5 L 742.4335080566881 465.5 L 744.132207338381 456.1 L 745.8309066200738 456.1 L 747.5296059017668 488.1 L 749.2283051834596 488.1 L 750.9270044651525 482.9 L 752.6257037468454 482.9 L 754.3244030285383 457.7 L 756.0231023102311 457.7 L 757.721801591924 464.5 L 759.4205008736169 464.5 L 761.1192001553097 466.2 L 762.8178994370027 466.2 L 764.5165987186955 465.8 L 766.2152980003884 465.8 L 767.9139972820813 466.4 L 769.6126965637742 466.4 L 771.311395845467 462.1 L 773.0100951271598 462.1 L 774.7087944088528 495.3 L 776.4074936905456 495.3 L 778.1061929722385 507.3 L 779.8048922539314 507.3 L 781.5035915356243 485.6 L 783.2022908173171 485.6 L 784.9009900990101 468.5 L 786.5996893807029 468.5 L 788.2983886623957 461 L 789.9970879440887 461 L 791.6957872257815 375.7 L 793.3944865074744 375.7 L 795.0931857891673 434.5 L 796.7918850708602 434.5 L 798.490584352553 473.1 L 800.189283634246 473.1 L 801.8879829159388 458.2 L 803.5866821976316 458.2 L 805.2853814793245 466 L 806.9840807610174 466 L 808.6827800427103 467.4 L 810.3814793244031 467.4 L 812.0801786060961 467.5 L 813.7788778877889 467.5 L 815.4775771694818 467.2 L 817.1762764511747 468.6 L 818.8749757328675 468.6 L 820.5736750145604 501.3 L 822.2723742962532 501.3 L 823.9710735779462 502.8 L 825.669772859639 502.8 L 827.368472141332 405.3 L 829.0671714230248 405.3 L 830.7658707047177 412.5 L 832.4645699864105 412.5 L 834.1632692681034 465.8 L 835.8619685497963 465.8 L 837.5606678314891 466.4 L 839.2593671131821 466.4 L 840.9580663948749 466.9 L 842.6567656765678 466.9 L 844.3554649582607 461.2 L 846.0541642399536 461.2 L 847.7528635216464 466.3 L 849.4515628033392 466.3 L 851.1502620850322 490.3 L 852.848961366725 490.3 L 854.547660648418 467.9 L 856.2463599301108 467.9 L 857.9450592118037 458 L 859.6437584934965 458 L 861.3424577751895 465.4 L 863.0411570568823 465.4 L 864.7398563385751 467.4 L 866.4385556202681 467.4 L 868.1372549019609 467.2 L 869.8359541836537 467.2 L 871.5346534653465 466.7 L 873.2333527470395 466.7 L 874.9320520287323 471.5 L 876.6307513104252 471.5 L 878.3294505921181 504.9 L 880.028149873811 504.9 L 881.7268491555038 468.7 L 883.4255484371967 468.7 L 885.1242477188896 467.7 L 886.8229470005824 467.7 L 888.5216462822754 468.1 L 890.2203455639682 468.1 L 891.9190448456611 461.5 L 893.617744127354 461.5 L 895.3164434090469 472.1 L 897.0151426907397 472.1 L 898.7138419724325 492.5 L 900.4125412541255 492.5 L 902.1112405358183 471.6 L 903.8099398175112 471.6 L 905.5086390992041 459.5 L 907.207338380897 459.5 L 908.9060376625898 469 L 910.6047369442828 469 L 912.3034362259756 467.4 L 914.0021355076684 467.4 L 915.7008347893614 467.6 L 917.3995340710542 467.6 L 919.0982333527471 467.6 L 920.7969326344399 467.6 L 922.4956319161329 481.8 L 924.1943311978257 481.8 L 925.8930304795186 507.6 L 927.5917297612115 507.6 L 929.2904290429043 497 L 930.9891283245972 497 L 932.68782760629 473.9 L 934.386526887983 473.9 L 936.0852261696758 467.9 L 937.7839254513688 467.9 L 939.4826247330616 467.6 L 941.1813240147545 467.6 L 942.8800232964473 467.7 L 944.5787225781402 467.7 L 946.2774218598331 467.4 L 947.9761211415259 467.4 L 949.6748204232189 460.6 L 951.3735197049117 478.4 L 953.0722189866046 478.4 L 954.7709182682975 491.5 L 956.4696175499904 491.5 L 958.1683168316832 467.4 L 959.867016113376 467.4 L 961.565715395069 462.2 L 963.2644146767618 462.2 L 964.9631139584548 443.9 L 966.6618132401476 443.9 L 968.3605125218405 486.2 L 970.0592118035333 486.2 L 971.7579110852262 502.7 L 973.4566103669191 502.7 L 975.1553096486119 447.3 L 976.8540089303049 447.3 L 978.5527082119977 444.2 L 980.2514074936906 444.2 L 981.9501067753835 466 L 983.6488060570764 466 L 985.3475053387692 463.7 L 987.046204620462 463.7 L 988.744903902155 467.6 L 990.4436031838478 467.6 L 992.1423024655408 467.6 L 993.8410017472336 467.6 L 995.5397010289265 461.8 L 997.2384003106193 461.8 L 998.9370995923123 484.7 L 1000.6357988740051 484.7 L 1002.3344981556979 487.2 L 1004.0331974373909 461.4 L 1005.7318967190837 461.4 L 1007.4305960007766 462.8 L 1009.1292952824695 462.8 L 1010.8279945641624 467.6 L 1012.5266938458552 467.6 L 1014.2253931275482 467.8 L 1015.924092409241 467.8 L 1017.6227916909338 467.6 L 1019.3214909726267 467.6 L 1021.0201902543196 469.5 L 1022.7188895360125 469.5 L 1024.4175888177053 490.8 L 1026.1162880993982 490.8 L 1027.8149873810912 510.4 L 1029.513686662784 510.4 L 1031.2123859444769 493.6 L 1032.9110852261697 493.6 L 1034.6097845078625 471.7 L 1036.3084837895556 471.7 L 1038.0071830712484 469 L 1039.7058823529412 469 L 1049.7058823529412 469" class="highcharts-tracker highcharts-tracker" stroke-linejoin="round" visibility="visible" stroke-opacity="0.0001" stroke="rgb(192,192,192)" stroke-width="21" zIndex="2" style=""></path></g></g><g class="highcharts-axis-labels" zIndex="7"><text x="70.29411764705883" y="586" style="font-family:&quot;Lucida Grande&quot;, &quot;Lucida Sans Unicode&quot;, Verdana, Arial, Helvetica, sans-serif;font-size:11px;color:#666;cursor:default;line-height:14px;fill:#666;" text-anchor="middle" opacity="1"><tspan x="70.29411764705883">0</tspan></text><text x="155.2290817317026" y="586" style="font-family:&quot;Lucida Grande&quot;, &quot;Lucida Sans Unicode&quot;, Verdana, Arial, Helvetica, sans-serif;font-size:11px;color:#666;cursor:default;line-height:14px;fill:#666;" text-anchor="middle" opacity="1"><tspan x="155.2290817317026">50</tspan></text><text x="240.16404581634637" y="586" style="font-family:&quot;Lucida Grande&quot;, &quot;Lucida Sans Unicode&quot;, Verdana, Arial, Helvetica, sans-serif;font-size:11px;color:#666;cursor:default;line-height:14px;fill:#666;" text-anchor="middle" opacity="1"><tspan x="240.16404581634637">100</tspan></text><text x="325.09900990099015" y="586" style="font-family:&quot;Lucida Grande&quot;, &quot;Lucida Sans Unicode&quot;, Verdana, Arial, Helvetica, sans-serif;font-size:11px;color:#666;cursor:default;line-height:14px;fill:#666;" text-anchor="middle" opacity="1"><tspan x="325.09900990099015">150</tspan></text><text x="410.0339739856339" y="586" style="font-family:&quot;Lucida Grande&quot;, &quot;Lucida Sans Unicode&quot;, Verdana, Arial, Helvetica, sans-serif;font-size:11px;color:#666;cursor:default;line-height:14px;fill:#666;" text-anchor="middle" opacity="1"><tspan x="410.0339739856339">200</tspan></text><text x="494.96893807027766" y="586" style="font-family:&quot;Lucida Grande&quot;, &quot;Lucida Sans Unicode&quot;, Verdana, Arial, Helvetica, sans-serif;font-size:11px;color:#666;cursor:default;line-height:14px;fill:#666;" text-anchor="middle" opacity="1"><tspan x="494.96893807027766">250</tspan></text><text x="579.9039021549214" y="586" style="font-family:&quot;Lucida Grande&quot;, &quot;Lucida Sans Unicode&quot;, Verdana, Arial, Helvetica, sans-serif;font-size:11px;color:#666;cursor:default;line-height:14px;fill:#666;" text-anchor="middle" opacity="1"><tspan x="579.9039021549214">300</tspan></text><text x="664.8388662395653" y="586" style="font-family:&quot;Lucida Grande&quot;, &quot;Lucida Sans Unicode&quot;, Verdana, Arial, Helvetica, sans-serif;font-size:11px;color:#666;cursor:default;line-height:14px;fill:#666;" text-anchor="middle" opacity="1"><tspan x="664.8388662395653">350</tspan></text><text x="749.773830324209" y="586" style="font-family:&quot;Lucida Grande&quot;, &quot;Lucida Sans Unicode&quot;, Verdana, Arial, Helvetica, sans-serif;font-size:11px;color:#666;cursor:default;line-height:14px;fill:#666;" text-anchor="middle" opacity="1"><tspan x="749.773830324209">400</tspan></text><text x="834.7087944088528" y="586" style="font-family:&quot;Lucida Grande&quot;, &quot;Lucida Sans Unicode&quot;, Verdana, Arial, Helvetica, sans-serif;font-size:11px;color:#666;cursor:default;line-height:14px;fill:#666;" text-anchor="middle" opacity="1"><tspan x="834.7087944088528">450</tspan></text><text x="919.6437584934965" y="586" style="font-family:&quot;Lucida Grande&quot;, &quot;Lucida Sans Unicode&quot;, Verdana, Arial, Helvetica, sans-serif;font-size:11px;color:#666;cursor:default;line-height:14px;fill:#666;" text-anchor="middle" opacity="1"><tspan x="919.6437584934965">500</tspan></text><text x="1004.5787225781402" y="586" style="font-family:&quot;Lucida Grande&quot;, &quot;Lucida Sans Unicode&quot;, Verdana, Arial, Helvetica, sans-serif;font-size:11px;color:#666;cursor:default;line-height:14px;fill:#666;" text-anchor="middle" opacity="1"><tspan x="1004.5787225781402">550</tspan></text><text x="1089.513686662784" y="586" style="font-family:&quot;Lucida Grande&quot;, &quot;Lucida Sans Unicode&quot;, Verdana, Arial, Helvetica, sans-serif;font-size:11px;color:#666;cursor:default;line-height:14px;fill:#666;" text-anchor="middle" opacity="1"><tspan x="1089.513686662784">600</tspan></text></g><g class="highcharts-axis-labels" zIndex="7"><text x="52" y="578.115625" style="font-family:&quot;Lucida Grande&quot;, &quot;Lucida Sans Unicode&quot;, Verdana, Arial, Helvetica, sans-serif;font-size:11px;width:505px;color:#666;cursor:default;line-height:14px;fill:#666;" text-anchor="end" opacity="1"><tspan x="52">0</tspan></text><text x="52" y="507.865625" style="font-family:&quot;Lucida Grande&quot;, &quot;Lucida Sans Unicode&quot;, Verdana, Arial, Helvetica, sans-serif;font-size:11px;width:505px;color:#666;cursor:default;line-height:14px;fill:#666;" text-anchor="end" opacity="1"><tspan x="52">0.1</tspan></text><text x="52" y="437.615625" style="font-family:&quot;Lucida Grande&quot;, &quot;Lucida Sans Unicode&quot;, Verdana, Arial, Helvetica, sans-serif;font-size:11px;width:505px;color:#666;cursor:default;line-height:14px;fill:#666;" text-anchor="end" opacity="1"><tspan x="52">0.2</tspan></text><text x="52" y="367.365625" style="font-family:&quot;Lucida Grande&quot;, &quot;Lucida Sans Unicode&quot;, Verdana, Arial, Helvetica, sans-serif;font-size:11px;width:505px;color:#666;cursor:default;line-height:14px;fill:#666;" text-anchor="end" opacity="1"><tspan x="52">0.3</tspan></text><text x="52" y="297.115625" style="font-family:&quot;Lucida Grande&quot;, &quot;Lucida Sans Unicode&quot;, Verdana, Arial, Helvetica, sans-serif;font-size:11px;width:505px;color:#666;cursor:default;line-height:14px;fill:#666;" text-anchor="end" opacity="1"><tspan x="52">0.4</tspan></text><text x="52" y="226.865625" style="font-family:&quot;Lucida Grande&quot;, &quot;Lucida Sans Unicode&quot;, Verdana, Arial, Helvetica, sans-serif;font-size:11px;width:505px;color:#666;cursor:default;line-height:14px;fill:#666;" text-anchor="end" opacity="1"><tspan x="52">0.5</tspan></text><text x="52" y="156.615625" style="font-family:&quot;Lucida Grande&quot;, &quot;Lucida Sans Unicode&quot;, Verdana, Arial, Helvetica, sans-serif;font-size:11px;width:505px;color:#666;cursor:default;line-height:14px;fill:#666;" text-anchor="end" opacity="1"><tspan x="52">0.6</tspan></text><text x="52" y="86.36562500000005" style="font-family:&quot;Lucida Grande&quot;, &quot;Lucida Sans Unicode&quot;, Verdana, Arial, Helvetica, sans-serif;font-size:11px;width:505px;color:#666;cursor:default;line-height:14px;fill:#666;" text-anchor="end" opacity="1"><tspan x="52">0.7</tspan></text><text x="52" y="16.115625" style="font-family:&quot;Lucida Grande&quot;, &quot;Lucida Sans Unicode&quot;, Verdana, Arial, Helvetica, sans-serif;font-size:11px;width:505px;color:#666;cursor:default;line-height:14px;fill:#666;" text-anchor="end" opacity="1"><tspan x="52">0.8</tspan></text></g><g class="highcharts-tooltip" zIndex="8" style="cursor:default;padding:0;white-space:nowrap;" visibility="hidden" transform="translate(83,474)" opacity="0"><rect rx="3" ry="3" fill="none" x="0.5" y="0.5" width="283" height="44.203125" fill-opacity="0.85" isShadow="true" stroke="black" stroke-opacity="0.049999999999999996" stroke-width="5" transform="translate(1, 1)"></rect><rect rx="3" ry="3" fill="none" x="0.5" y="0.5" width="283" height="44.203125" fill-opacity="0.85" isShadow="true" stroke="black" stroke-opacity="0.09999999999999999" stroke-width="3" transform="translate(1, 1)"></rect><rect rx="3" ry="3" fill="none" x="0.5" y="0.5" width="283" height="44.203125" fill-opacity="0.85" isShadow="true" stroke="black" stroke-opacity="0.15" stroke-width="1" transform="translate(1, 1)"></rect><rect rx="3" ry="3" fill="rgb(255,255,255)" x="0.5" y="0.5" width="283" height="44.203125" fill-opacity="0.85" stroke="#2f7ed8" stroke-width="1" anchorX="-11.669467873273305" anchorY="28.865291595458984"></rect><text x="8" y="21" style="font-family:&quot;Lucida Grande&quot;, &quot;Lucida Sans Unicode&quot;, Verdana, Arial, Helvetica, sans-serif;font-size:12px;color:#333333;fill:#333333;" zIndex="1"><tspan style="font-size: 10px" x="8">0</tspan><tspan style="fill:#2f7ed8" x="8" dy="16">exp12 appendChild</tspan><tspan dx="0">: </tspan><tspan style="font-weight:bold" dx="0">0.09802395666437781</tspan></text></g><text x="1110" y="595" style="font-family:&quot;Lucida Grande&quot;, &quot;Lucida Sans Unicode&quot;, Verdana, Arial, Helvetica, sans-serif;font-size:9px;cursor:pointer;color:#909090;fill:#909090;" text-anchor="end" zIndex="8"><tspan x="1110">Highcharts.com</tspan></text></svg>