<svg xmlns="http://www.w3.org/2000/svg" version="1.1" width="1120" height="600"><desc>Created with Highcharts 3.0.2</desc><defs><clipPath id="highcharts-1"><rect fill="none" x="0" y="0" width="1050" height="561"></rect></clipPath></defs><rect rx="5" ry="5" fill="#FFFFFF" x="0" y="0" width="1120" height="600"></rect><g class="highcharts-grid" zIndex="1"></g><g class="highcharts-grid" zIndex="1"><path fill="none" d="M 60 502.5 L 1110 502.5" stroke="#C0C0C0" stroke-width="1" zIndex="1" opacity="1"></path><path fill="none" d="M 60 432.5 L 1110 432.5" stroke="#C0C0C0" stroke-width="1" zIndex="1" opacity="1"></path><path fill="none" d="M 60 361.5 L 1110 361.5" stroke="#C0C0C0" stroke-width="1" zIndex="1" opacity="1"></path><path fill="none" d="M 60 291.5 L 1110 291.5" stroke="#C0C0C0" stroke-width="1" zIndex="1" opacity="1"></path><path fill="none" d="M 60 221.5 L 1110 221.5" stroke="#C0C0C0" stroke-width="1" zIndex="1" opacity="1"></path><path fill="none" d="M 60 151.5 L 1110 151.5" stroke="#C0C0C0" stroke-width="1" zIndex="1" opacity="1"></path><path fill="none" d="M 60 80.5 L 1110 80.5" stroke="#C0C0C0" stroke-width="1" zIndex="1" opacity="1"></path><path fill="none" d="M 60 10.5 L 1110 10.5" stroke="#C0C0C0" stroke-width="1" zIndex="1" opacity="1"></path><path fill="none" d="M 60 571.5 L 1110 571.5" stroke="#C0C0C0" stroke-width="1" zIndex="1" opacity="1"></path></g><g class="highcharts-axis" zIndex="2"><path fill="none" d="M 164.5 572 L 164.5 577" stroke="#C0D0E0" stroke-width="1" opacity="1"></path><path fill="none" d="M 258.5 572 L 258.5 577" stroke="#C0D0E0" stroke-width="1" opacity="1"></path><path fill="none" d="M 352.5 572 L 352.5 577" stroke="#C0D0E0" stroke-width="1" opacity="1"></path><path fill="none" d="M 446.5 572 L 446.5 577" stroke="#C0D0E0" stroke-width="1" opacity="1"></path><path fill="none" d="M 541.5 572 L 541.5 577" stroke="#C0D0E0" stroke-width="1" opacity="1"></path><path fill="none" d="M 635.5 572 L 635.5 577" stroke="#C0D0E0" stroke-width="1" opacity="1"></path><path fill="none" d="M 729.5 572 L 729.5 577" stroke="#C0D0E0" stroke-width="1" opacity="1"></path><path fill="none" d="M 823.5 572 L 823.5 577" stroke="#C0D0E0" stroke-width="1" opacity="1"></path><path fill="none" d="M 918.5 572 L 918.5 577" stroke="#C0D0E0" stroke-width="1" opacity="1"></path><path fill="none" d="M 1012.5 572 L 1012.5 577" stroke="#C0D0E0" stroke-width="1" opacity="1"></path><path fill="none" d="M 69.5 572 L 69.5 577" stroke="#C0D0E0" stroke-width="1" opacity="1"></path><path fill="none" d="M 1106.5 572 L 1106.5 577" stroke="#C0D0E0" stroke-width="1" opacity="1"></path><path fill="none" d="M 60 571.5 L 1110 571.5" stroke="#C0D0E0" stroke-width="1" zIndex="7" visibility="visible"></path></g><g class="highcharts-axis" zIndex="2"><text x="24.59375" y="291" style="font-family:&quot;Lucida Grande&quot;, &quot;Lucida Sans Unicode&quot;, Verdana, Arial, Helvetica, sans-serif;font-size:12px;color:#4d759e;font-weight:bold;fill:#4d759e;" zIndex="7" text-anchor="middle" transform="translate(0,0) rotate(270 24.59375 291)" visibility="visible"><tspan x="24.59375">Amperage</tspan></text></g><g class="highcharts-series-group" zIndex="3"><g class="highcharts-series" visibility="visible" zIndex="0.1" transform="translate(60,10) scale(1 1)" clip-path="url(#highcharts-1)"><path fill="none" d="M 10.294117647058822 507.2 L 12.179487179487177 507.2 L 14.064856711915533 483.8 L 15.950226244343892 476.1 L 17.835595776772248 476.1 L 19.7209653092006 476 L 21.606334841628957 476 L 23.491704374057313 476.5 L 25.37707390648567 476.5 L 27.262443438914026 476.9 L 29.14781297134238 476.9 L 31.033182503770735 476.7 L 32.918552036199095 476.7 L 34.803921568627445 479.7 L 36.6892911010558 479.7 L 38.57466063348416 493.7 L 40.460030165912514 493.7 L 42.34539969834087 477.6 L 44.230769230769226 477.6 L 46.11613876319758 464.6 L 48.00150829562594 464.6 L 49.886877828054295 475.6 L 51.77224736048265 475.6 L 53.65761689291101 475.9 L 55.54298642533936 475.9 L 57.428355957767714 476.2 L 59.31372549019607 476.2 L 61.19909502262443 477.3 L 63.08446455505278 477.3 L 64.96983408748113 489.9 L 66.85520361990949 509.2 L 68.74057315233784 509.2 L 70.6259426847662 493 L 72.51131221719456 493 L 74.39668174962291 419.3 L 76.28205128205127 419.3 L 78.16742081447963 461.4 L 80.05279034690798 461.4 L 81.93815987933634 476.8 L 83.8235294117647 476.8 L 85.70889894419305 476.1 L 87.59426847662141 476.1 L 89.47963800904976 470.4 L 91.36500754147812 470.4 L 93.25037707390648 472.4 L 95.13574660633483 472.4 L 97.02111613876319 479.6 L 98.90648567119155 479.6 L 100.7918552036199 465.1 L 102.67722473604826 465.1 L 104.5625942684766 464.5 L 106.44796380090496 475.1 L 108.33333333333331 475.1 L 110.21870286576167 475.9 L 112.10407239819003 475.9 L 113.98944193061838 463.5 L 115.87481146304674 463.5 L 117.7601809954751 379 L 119.64555052790345 379 L 121.5309200603318 377.2 L 123.41628959276015 377.2 L 125.30165912518851 402 L 127.18702865761686 402 L 129.07239819004522 372.6 L 130.95776772247356 372.6 L 132.84313725490193 347.2 L 134.72850678733028 347.2 L 136.61387631975865 366.2 L 138.499245852187 366.2 L 140.38461538461536 373.5 L 142.2699849170437 373.5 L 144.15535444947207 380.5 L 146.0407239819004 380.5 L 147.92609351432878 383.3 L 149.81146304675713 383.3 L 151.6968325791855 379.7 L 153.58220211161384 379.7 L 155.4675716440422 367.8 L 157.35294117647055 367.8 L 159.23831070889892 362.7 L 161.12368024132726 362.7 L 163.00904977375563 373.6 L 164.89441930618398 373.6 L 166.77978883861235 382 L 168.6651583710407 382 L 170.55052790346903 382.4 L 172.4358974358974 382.4 L 174.32126696832574 371.3 L 176.20663650075412 371.3 L 178.09200603318246 355.5 L 179.97737556561083 355.5 L 181.86274509803917 356.2 L 183.74811463046754 356.2 L 185.63348416289588 365.5 L 187.51885369532425 365.5 L 189.4042232277526 381.6 L 191.28959276018097 381.6 L 193.1749622926093 382.7 L 195.06033182503768 382.7 L 196.94570135746602 382.9 L 198.8310708898944 382.9 L 200.71644042232273 346.8 L 202.6018099547511 346.8 L 204.48717948717945 113.5 L 206.37254901960782 113.5 L 208.25791855203616 19.8 L 210.1432880844645 19.8 L 212.02865761689287 19.5 L 213.9140271493212 19.5 L 215.79939668174958 21.5 L 217.68476621417793 21.5 L 219.5701357466063 18.6 L 221.45550527903464 18.6 L 223.340874811463 20.1 L 225.22624434389135 20.1 L 227.11161387631972 19.9 L 228.99698340874806 32.7 L 230.88235294117644 32.7 L 232.76772247360478 22.5 L 234.65309200603315 22.5 L 236.5384615384615 29.1 L 238.42383107088986 29.1 L 240.3092006033182 86.5 L 242.1945701357466 86.5 L 244.07993966817494 54.5 L 245.9653092006033 54.5 L 247.85067873303166 50.6 L 249.73604826546 50.6 L 251.62141779788837 47.9 L 253.5067873303167 47.9 L 255.39215686274508 51.2 L 257.2775263951734 51.2 L 259.16289592760177 51.9 L 261.04826546003017 51.9 L 262.9336349924585 53.5 L 264.81900452488685 53.5 L 266.7043740573152 74.2 L 268.5897435897436 74.2 L 270.47511312217193 325.4 L 272.3604826546003 325.4 L 274.2458521870286 404.2 L 276.131221719457 404.2 L 278.01659125188536 388.2 L 279.9019607843137 388.2 L 281.78733031674204 429.7 L 283.6726998491704 429.7 L 285.5580693815988 419.3 L 287.4434389140271 419.3 L 289.32880844645547 446.7 L 291.2141779788838 446.7 L 293.0995475113122 466 L 294.98491704374055 466 L 296.8702865761689 367.8 L 298.75565610859724 367.8 L 300.64102564102564 409.5 L 302.526395173454 409.5 L 304.4117647058823 440.3 L 306.29713423831066 440.3 L 308.18250377073906 443.3 L 310.0678733031674 443.3 L 311.95324283559574 439.8 L 313.8386123680241 439.8 L 315.7239819004525 286.1 L 317.6093514328808 286.1 L 319.49472096530917 80.3 L 321.3800904977375 80.3 L 323.26546003016585 112.8 L 325.15082956259425 112.8 L 327.0361990950226 67.8 L 328.92156862745094 67.8 L 330.8069381598793 264.8 L 332.6923076923077 264.8 L 334.577677224736 449.7 L 336.46304675716436 449.7 L 338.3484162895927 468.4 L 340.2337858220211 468.1 L 342.11915535444945 468.1 L 344.0045248868778 467.9 L 345.88989441930613 467.9 L 347.77526395173453 366.5 L 349.6606334841629 366.5 L 351.5460030165912 130.9 L 353.43137254901956 130.9 L 355.31674208144796 95.4 L 357.2021116138763 95.4 L 359.08748114630464 468.1 L 360.972850678733 468.1 L 362.8582202111614 468.2 L 364.7435897435897 468.2 L 366.62895927601807 447.9 L 368.5143288084464 447.9 L 370.39969834087475 399.4 L 372.28506787330315 399.4 L 374.1704374057315 482.6 L 376.05580693815983 482.6 L 377.9411764705882 476.7 L 379.8265460030166 476.7 L 381.7119155354449 455.7 L 383.59728506787326 455.7 L 385.4826546003016 464.9 L 387.36802413273 464.9 L 389.25339366515834 462.5 L 391.1387631975867 462.5 L 393.024132730015 357.3 L 394.9095022624434 357.3 L 396.79487179487177 231.8 L 398.6802413273001 231.8 L 400.56561085972845 84.1 L 402.45098039215685 84.1 L 404.3363499245852 16 L 406.22171945701353 16 L 408.1070889894419 23.8 L 409.9924585218702 32.1 L 411.8778280542986 32.1 L 413.76319758672696 31.5 L 415.6485671191553 31.5 L 417.53393665158364 97.3 L 419.41930618401204 97.3 L 421.3046757164404 342.3 L 423.1900452488687 342.3 L 425.07541478129707 456.1 L 426.96078431372547 456.1 L 428.8461538461538 428.6 L 430.73152337858215 428.6 L 432.6168929110105 448 L 434.5022624434389 448 L 436.38763197586724 487.9 L 438.2730015082956 487.9 L 440.1583710407239 452.8 L 442.0437405731523 452.8 L 443.92911010558066 420.4 L 445.814479638009 420.4 L 447.69984917043735 458.1 L 449.5852187028657 458.1 L 451.4705882352941 462.9 L 453.35595776772243 462.9 L 455.2413273001508 461.8 L 457.1266968325791 461.8 L 459.0120663650075 450.6 L 460.89743589743586 450.6 L 462.7828054298642 499.2 L 464.66817496229254 499.2 L 466.55354449472094 501.7 L 468.4389140271493 501.7 L 470.3242835595776 474 L 472.20965309200596 474 L 474.09502262443436 467.2 L 475.9803921568627 467.2 L 477.86576168929105 466.1 L 479.7511312217194 465.4 L 481.6365007541478 465.4 L 483.5218702865761 466.7 L 485.4072398190044 466.7 L 487.29260935143276 435.3 L 489.17797888386116 435.3 L 491.0633484162895 460.9 L 492.94871794871784 460.9 L 494.8340874811462 487.9 L 496.7194570135745 487.9 L 498.6048265460029 460.1 L 500.49019607843127 460.1 L 502.3755656108596 457 L 504.26093514328795 457 L 506.14630467571635 466.9 L 508.0316742081447 466.9 L 509.91704374057304 465.3 L 511.8024132730014 465.3 L 513.6877828054297 466.4 L 515.5731523378581 466.4 L 517.4585218702865 463 L 519.3438914027148 463 L 521.2292609351432 470.8 L 523.1146304675715 470.8 L 524.9999999999999 506.2 L 526.8853695324283 506.2 L 528.7707390648566 490.3 L 530.656108597285 490.3 L 532.5414781297134 440.7 L 534.4268476621417 440.7 L 536.31221719457 317.6 L 538.1975867269983 317.6 L 540.0829562594267 426.7 L 541.9683257918551 426.7 L 543.8536953242834 452.8 L 545.7390648567118 475.8 L 547.6244343891401 489.2 L 549.5098039215685 489.2 L 551.3951734539969 463.7 L 553.2805429864252 463.7 L 555.1659125188536 459 L 557.051282051282 459 L 558.9366515837103 466.4 L 560.8220211161387 466.4 L 562.707390648567 466.6 L 564.5927601809954 466.6 L 566.4781297134238 465.5 L 568.363499245852 465.5 L 570.2488687782804 462.8 L 572.1342383107088 462.8 L 574.0196078431371 455.5 L 575.9049773755655 455.5 L 577.7903469079938 412.6 L 579.6757164404222 412.6 L 581.5610859728506 470.9 L 583.4464555052789 470.9 L 585.3318250377073 438.5 L 587.2171945701356 438.5 L 589.102564102564 441.4 L 590.9879336349924 441.4 L 592.8733031674207 446.6 L 594.7586726998491 446.6 L 596.6440422322775 466.1 L 598.5294117647057 466.1 L 600.4147812971341 461.4 L 602.3001508295624 461.4 L 604.1855203619908 436.1 L 606.0708898944192 436.1 L 607.9562594268475 479.9 L 609.8416289592759 479.9 L 611.7269984917043 480.5 L 613.6123680241326 480.5 L 615.497737556561 456.9 L 617.3831070889893 456.9 L 619.2684766214177 460.9 L 621.1538461538461 460.9 L 623.0392156862744 466.8 L 624.9245852187028 466.8 L 626.809954751131 465.5 L 628.6953242835594 465.5 L 630.5806938159878 466.4 L 632.4660633484161 466.4 L 634.3514328808445 458 L 636.2368024132729 487.3 L 638.1221719457012 468.8 L 640.0075414781296 468.8 L 641.8929110105579 466.8 L 643.7782805429863 466.8 L 645.6636500754147 466.1 L 647.549019607843 466.1 L 649.4343891402714 466.1 L 651.3197586726998 466.1 L 653.2051282051281 464.3 L 655.0904977375565 464.3 L 656.9758672699847 452.6 L 658.8612368024131 452.6 L 660.7466063348415 485 L 662.6319758672698 485 L 664.5173453996982 483.6 L 666.4027149321265 457.4 L 668.2880844645549 457.4 L 670.1734539969833 463.5 L 672.0588235294116 463.5 L 673.94419306184 465.8 L 675.8295625942684 465.8 L 677.7149321266967 416.6 L 679.6003016591251 416.6 L 681.4856711915534 431 L 683.3710407239818 431 L 685.2564102564102 462 L 687.1417797888384 462 L 689.0271493212668 491.2 L 690.9125188536952 491.2 L 692.7978883861235 503.6 L 694.6832579185519 503.6 L 696.5686274509802 474 L 698.4539969834086 474 L 700.339366515837 467.6 L 702.2247360482653 467.6 L 704.1101055806937 467.9 L 705.995475113122 467.9 L 707.8808446455504 465 L 709.7662141779788 465 L 711.6515837104071 466.7 L 713.5369532428355 466.7 L 715.4223227752639 461.4 L 717.3076923076922 461.4 L 719.1930618401205 455.7 L 721.0784313725488 455.7 L 722.9638009049772 488.2 L 724.8491704374056 488.2 L 726.7345399698339 472.8 L 728.6199095022623 466.2 L 730.5052790346907 453 L 732.390648567119 453 L 734.2760180995474 414.1 L 736.1613876319757 414.1 L 738.0467571644041 409.5 L 739.9321266968325 409.5 L 741.8174962292608 343.6 L 743.7028657616892 343.6 L 745.5882352941175 491 L 747.4736048265459 491 L 749.3589743589743 480.9 L 751.2443438914025 480.9 L 753.1297134238309 467.9 L 755.0150829562593 467.9 L 756.9004524886876 465.9 L 758.785822021116 465.9 L 760.6711915535443 465.9 L 762.5565610859727 465.9 L 764.4419306184011 460.1 L 766.3273001508294 460.1 L 768.2126696832578 446.4 L 770.0980392156862 446.4 L 771.9834087481145 445.8 L 773.8687782805429 445.8 L 775.7541478129712 443.4 L 777.6395173453996 443.4 L 779.524886877828 446.8 L 781.4102564102562 446.8 L 783.2956259426846 454.5 L 785.1809954751129 454.5 L 787.0663650075413 465.4 L 788.9517345399697 466.7 L 790.837104072398 466.7 L 792.7224736048264 466.2 L 794.6078431372548 466.2 L 796.4932126696831 464.6 L 798.3785822021115 464.6 L 800.2639517345398 465.3 L 802.1493212669682 465.3 L 804.0346907993966 501 L 805.9200603318249 501 L 807.8054298642533 504.1 L 809.6907993966817 504.1 L 811.5761689291099 476.4 L 813.4615384615383 476.4 L 815.3469079939666 467.2 L 817.232277526395 467.2 L 819.1176470588234 467.4 L 821.0030165912517 466.4 L 822.8883861236801 466.4 L 824.7737556561084 455.1 L 826.6591251885368 455.1 L 828.5444947209652 460.7 L 830.4298642533935 460.7 L 832.3152337858219 492.3 L 834.2006033182503 492.3 L 836.0859728506786 471.6 L 837.971342383107 471.6 L 839.8567119155352 456.8 L 841.7420814479636 456.8 L 843.627450980392 466.7 L 845.5128205128203 466.7 L 847.3981900452487 467 L 849.2835595776771 467 L 851.1689291101054 466 L 853.0542986425338 466 L 854.9396681749621 466.8 L 856.8250377073905 466.8 L 858.7104072398189 469.7 L 860.5957767722472 469.7 L 862.4811463046756 506 L 864.3665158371039 506 L 866.2518853695323 496.2 L 868.1372549019607 496.2 L 870.022624434389 471.5 L 871.9079939668173 471.5 L 873.7933634992457 468.3 L 875.678733031674 468.3 L 877.5641025641024 467.6 L 879.4494720965307 467.6 L 881.3348416289591 466.3 L 883.2202111613875 466.3 L 885.1055806938158 465.8 L 886.9909502262442 465.8 L 888.8763197586726 455.8 L 890.7616892911009 455.8 L 892.6470588235293 470.9 L 894.5324283559576 470.9 L 896.417797888386 489.4 L 898.3031674208144 489.4 L 900.1885369532426 461.2 L 902.073906485671 461.2 L 903.9592760180993 457.5 L 905.8446455505277 457.5 L 907.7300150829561 468.3 L 909.6153846153844 468.3 L 911.5007541478128 467.2 L 913.3861236802412 419.3 L 915.2714932126695 419.3 L 917.1568627450979 412.2 L 919.0422322775262 412.2 L 920.9276018099546 504.4 L 922.812971342383 504.4 L 924.6983408748113 492.8 L 926.5837104072397 492.8 L 928.4690799396681 470.4 L 930.3544494720963 470.4 L 932.2398190045247 468.5 L 934.125188536953 468.5 L 936.0105580693814 441.6 L 937.8959276018098 441.6 L 939.7812971342381 448.3 L 941.6666666666665 448.3 L 943.5520361990948 463 L 945.4374057315232 463 L 947.3227752639516 449.4 L 949.2081447963799 449.4 L 951.0935143288083 478 L 952.9788838612367 478 L 954.864253393665 483.6 L 956.7496229260934 483.6 L 958.6349924585217 455 L 960.52036199095 455 L 962.4057315233784 459.5 L 964.2911010558067 459.5 L 966.1764705882352 468.5 L 968.0618401206635 468.5 L 969.9472096530919 466.2 L 971.8325791855203 466.2 L 973.7179487179486 467.8 L 975.603318250377 467.8 L 977.4886877828054 465.1 L 979.3740573152337 465.1 L 981.2594268476621 485.3 L 983.1447963800904 485.3 L 985.0301659125188 507.4 L 986.9155354449472 507.4 L 988.8009049773755 489.6 L 990.6862745098039 468.8 L 992.5716440422323 468.8 L 994.4570135746606 468.5 L 996.342383107089 468.5 L 998.2277526395172 468.4 L 1000.1131221719456 468.4 L 1001.998491704374 467.6 L 1003.8838612368023 467.6 L 1005.7692307692307 489.3 L 1007.654600301659 489.3 L 1009.5399698340874 459.6 L 1011.4253393665158 459.6 L 1013.3107088989441 462.6 L 1015.1960784313725 462.6 L 1017.0814479638009 467.9 L 1018.9668174962292 467.9 L 1020.8521870286576 467.5 L 1022.7375565610859 467.5 L 1024.6229260935143 467.9 L 1026.5082956259425 467.9 L 1028.393665158371 465.3 L 1030.2790346907993 465.3 L 1032.1644042232276 491.2 L 1034.0497737556561 491.2 L 1035.9351432880844 508.6 L 1037.8205128205127 508.6 L 1039.705882352941 489.9" stroke="#c42525" stroke-width="1" zIndex="1"></path></g><g class="highcharts-markers" visibility="visible" zIndex="0.1" transform="translate(60,10) scale(1 1)" clip-path="none"><path fill="none" d="M 0.2941176470588225 507.2 L 10.294117647058822 507.2 L 12.179487179487177 507.2 L 14.064856711915533 483.8 L 15.950226244343892 476.1 L 17.835595776772248 476.1 L 19.7209653092006 476 L 21.606334841628957 476 L 23.491704374057313 476.5 L 25.37707390648567 476.5 L 27.262443438914026 476.9 L 29.14781297134238 476.9 L 31.033182503770735 476.7 L 32.918552036199095 476.7 L 34.803921568627445 479.7 L 36.6892911010558 479.7 L 38.57466063348416 493.7 L 40.460030165912514 493.7 L 42.34539969834087 477.6 L 44.230769230769226 477.6 L 46.11613876319758 464.6 L 48.00150829562594 464.6 L 49.886877828054295 475.6 L 51.77224736048265 475.6 L 53.65761689291101 475.9 L 55.54298642533936 475.9 L 57.428355957767714 476.2 L 59.31372549019607 476.2 L 61.19909502262443 477.3 L 63.08446455505278 477.3 L 64.96983408748113 489.9 L 66.85520361990949 509.2 L 68.74057315233784 509.2 L 70.6259426847662 493 L 72.51131221719456 493 L 74.39668174962291 419.3 L 76.28205128205127 419.3 L 78.16742081447963 461.4 L 80.05279034690798 461.4 L 81.93815987933634 476.8 L 83.8235294117647 476.8 L 85.70889894419305 476.1 L 87.59426847662141 476.1 L 89.47963800904976 470.4 L 91.36500754147812 470.4 L 93.25037707390648 472.4 L 95.13574660633483 472.4 L 97.02111613876319 479.6 L 98.90648567119155 479.6 L 100.7918552036199 465.1 L 102.67722473604826 465.1 L 104.5625942684766 464.5 L 106.44796380090496 475.1 L 108.33333333333331 475.1 L 110.21870286576167 475.9 L 112.10407239819003 475.9 L 113.98944193061838 463.5 L 115.87481146304674 463.5 L 117.7601809954751 379 L 119.64555052790345 379 L 121.5309200603318 377.2 L 123.41628959276015 377.2 L 125.30165912518851 402 L 127.18702865761686 402 L 129.07239819004522 372.6 L 130.95776772247356 372.6 L 132.84313725490193 347.2 L 134.72850678733028 347.2 L 136.61387631975865 366.2 L 138.499245852187 366.2 L 140.38461538461536 373.5 L 142.2699849170437 373.5 L 144.15535444947207 380.5 L 146.0407239819004 380.5 L 147.92609351432878 383.3 L 149.81146304675713 383.3 L 151.6968325791855 379.7 L 153.58220211161384 379.7 L 155.4675716440422 367.8 L 157.35294117647055 367.8 L 159.23831070889892 362.7 L 161.12368024132726 362.7 L 163.00904977375563 373.6 L 164.89441930618398 373.6 L 166.77978883861235 382 L 168.6651583710407 382 L 170.55052790346903 382.4 L 172.4358974358974 382.4 L 174.32126696832574 371.3 L 176.20663650075412 371.3 L 178.09200603318246 355.5 L 179.97737556561083 355.5 L 181.86274509803917 356.2 L 183.74811463046754 356.2 L 185.63348416289588 365.5 L 187.51885369532425 365.5 L 189.4042232277526 381.6 L 191.28959276018097 381.6 L 193.1749622926093 382.7 L 195.06033182503768 382.7 L 196.94570135746602 382.9 L 198.8310708898944 382.9 L 200.71644042232273 346.8 L 202.6018099547511 346.8 L 204.48717948717945 113.5 L 206.37254901960782 113.5 L 208.25791855203616 19.8 L 210.1432880844645 19.8 L 212.02865761689287 19.5 L 213.9140271493212 19.5 L 215.79939668174958 21.5 L 217.68476621417793 21.5 L 219.5701357466063 18.6 L 221.45550527903464 18.6 L 223.340874811463 20.1 L 225.22624434389135 20.1 L 227.11161387631972 19.9 L 228.99698340874806 32.7 L 230.88235294117644 32.7 L 232.76772247360478 22.5 L 234.65309200603315 22.5 L 236.5384615384615 29.1 L 238.42383107088986 29.1 L 240.3092006033182 86.5 L 242.1945701357466 86.5 L 244.07993966817494 54.5 L 245.9653092006033 54.5 L 247.85067873303166 50.6 L 249.73604826546 50.6 L 251.62141779788837 47.9 L 253.5067873303167 47.9 L 255.39215686274508 51.2 L 257.2775263951734 51.2 L 259.16289592760177 51.9 L 261.04826546003017 51.9 L 262.9336349924585 53.5 L 264.81900452488685 53.5 L 266.7043740573152 74.2 L 268.5897435897436 74.2 L 270.47511312217193 325.4 L 272.3604826546003 325.4 L 274.2458521870286 404.2 L 276.131221719457 404.2 L 278.01659125188536 388.2 L 279.9019607843137 388.2 L 281.78733031674204 429.7 L 283.6726998491704 429.7 L 285.5580693815988 419.3 L 287.4434389140271 419.3 L 289.32880844645547 446.7 L 291.2141779788838 446.7 L 293.0995475113122 466 L 294.98491704374055 466 L 296.8702865761689 367.8 L 298.75565610859724 367.8 L 300.64102564102564 409.5 L 302.526395173454 409.5 L 304.4117647058823 440.3 L 306.29713423831066 440.3 L 308.18250377073906 443.3 L 310.0678733031674 443.3 L 311.95324283559574 439.8 L 313.8386123680241 439.8 L 315.7239819004525 286.1 L 317.6093514328808 286.1 L 319.49472096530917 80.3 L 321.3800904977375 80.3 L 323.26546003016585 112.8 L 325.15082956259425 112.8 L 327.0361990950226 67.8 L 328.92156862745094 67.8 L 330.8069381598793 264.8 L 332.6923076923077 264.8 L 334.577677224736 449.7 L 336.46304675716436 449.7 L 338.3484162895927 468.4 L 340.2337858220211 468.1 L 342.11915535444945 468.1 L 344.0045248868778 467.9 L 345.88989441930613 467.9 L 347.77526395173453 366.5 L 349.6606334841629 366.5 L 351.5460030165912 130.9 L 353.43137254901956 130.9 L 355.31674208144796 95.4 L 357.2021116138763 95.4 L 359.08748114630464 468.1 L 360.972850678733 468.1 L 362.8582202111614 468.2 L 364.7435897435897 468.2 L 366.62895927601807 447.9 L 368.5143288084464 447.9 L 370.39969834087475 399.4 L 372.28506787330315 399.4 L 374.1704374057315 482.6 L 376.05580693815983 482.6 L 377.9411764705882 476.7 L 379.8265460030166 476.7 L 381.7119155354449 455.7 L 383.59728506787326 455.7 L 385.4826546003016 464.9 L 387.36802413273 464.9 L 389.25339366515834 462.5 L 391.1387631975867 462.5 L 393.024132730015 357.3 L 394.9095022624434 357.3 L 396.79487179487177 231.8 L 398.6802413273001 231.8 L 400.56561085972845 84.1 L 402.45098039215685 84.1 L 404.3363499245852 16 L 406.22171945701353 16 L 408.1070889894419 23.8 L 409.9924585218702 32.1 L 411.8778280542986 32.1 L 413.76319758672696 31.5 L 415.6485671191553 31.5 L 417.53393665158364 97.3 L 419.41930618401204 97.3 L 421.3046757164404 342.3 L 423.1900452488687 342.3 L 425.07541478129707 456.1 L 426.96078431372547 456.1 L 428.8461538461538 428.6 L 430.73152337858215 428.6 L 432.6168929110105 448 L 434.5022624434389 448 L 436.38763197586724 487.9 L 438.2730015082956 487.9 L 440.1583710407239 452.8 L 442.0437405731523 452.8 L 443.92911010558066 420.4 L 445.814479638009 420.4 L 447.69984917043735 458.1 L 449.5852187028657 458.1 L 451.4705882352941 462.9 L 453.35595776772243 462.9 L 455.2413273001508 461.8 L 457.1266968325791 461.8 L 459.0120663650075 450.6 L 460.89743589743586 450.6 L 462.7828054298642 499.2 L 464.66817496229254 499.2 L 466.55354449472094 501.7 L 468.4389140271493 501.7 L 470.3242835595776 474 L 472.20965309200596 474 L 474.09502262443436 467.2 L 475.9803921568627 467.2 L 477.86576168929105 466.1 L 479.7511312217194 465.4 L 481.6365007541478 465.4 L 483.5218702865761 466.7 L 485.4072398190044 466.7 L 487.29260935143276 435.3 L 489.17797888386116 435.3 L 491.0633484162895 460.9 L 492.94871794871784 460.9 L 494.8340874811462 487.9 L 496.7194570135745 487.9 L 498.6048265460029 460.1 L 500.49019607843127 460.1 L 502.3755656108596 457 L 504.26093514328795 457 L 506.14630467571635 466.9 L 508.0316742081447 466.9 L 509.91704374057304 465.3 L 511.8024132730014 465.3 L 513.6877828054297 466.4 L 515.5731523378581 466.4 L 517.4585218702865 463 L 519.3438914027148 463 L 521.2292609351432 470.8 L 523.1146304675715 470.8 L 524.9999999999999 506.2 L 526.8853695324283 506.2 L 528.7707390648566 490.3 L 530.656108597285 490.3 L 532.5414781297134 440.7 L 534.4268476621417 440.7 L 536.31221719457 317.6 L 538.1975867269983 317.6 L 540.0829562594267 426.7 L 541.9683257918551 426.7 L 543.8536953242834 452.8 L 545.7390648567118 475.8 L 547.6244343891401 489.2 L 549.5098039215685 489.2 L 551.3951734539969 463.7 L 553.2805429864252 463.7 L 555.1659125188536 459 L 557.051282051282 459 L 558.9366515837103 466.4 L 560.8220211161387 466.4 L 562.707390648567 466.6 L 564.5927601809954 466.6 L 566.4781297134238 465.5 L 568.363499245852 465.5 L 570.2488687782804 462.8 L 572.1342383107088 462.8 L 574.0196078431371 455.5 L 575.9049773755655 455.5 L 577.7903469079938 412.6 L 579.6757164404222 412.6 L 581.5610859728506 470.9 L 583.4464555052789 470.9 L 585.3318250377073 438.5 L 587.2171945701356 438.5 L 589.102564102564 441.4 L 590.9879336349924 441.4 L 592.8733031674207 446.6 L 594.7586726998491 446.6 L 596.6440422322775 466.1 L 598.5294117647057 466.1 L 600.4147812971341 461.4 L 602.3001508295624 461.4 L 604.1855203619908 436.1 L 606.0708898944192 436.1 L 607.9562594268475 479.9 L 609.8416289592759 479.9 L 611.7269984917043 480.5 L 613.6123680241326 480.5 L 615.497737556561 456.9 L 617.3831070889893 456.9 L 619.2684766214177 460.9 L 621.1538461538461 460.9 L 623.0392156862744 466.8 L 624.9245852187028 466.8 L 626.809954751131 465.5 L 628.6953242835594 465.5 L 630.5806938159878 466.4 L 632.4660633484161 466.4 L 634.3514328808445 458 L 636.2368024132729 487.3 L 638.1221719457012 468.8 L 640.0075414781296 468.8 L 641.8929110105579 466.8 L 643.7782805429863 466.8 L 645.6636500754147 466.1 L 647.549019607843 466.1 L 649.4343891402714 466.1 L 651.3197586726998 466.1 L 653.2051282051281 464.3 L 655.0904977375565 464.3 L 656.9758672699847 452.6 L 658.8612368024131 452.6 L 660.7466063348415 485 L 662.6319758672698 485 L 664.5173453996982 483.6 L 666.4027149321265 457.4 L 668.2880844645549 457.4 L 670.1734539969833 463.5 L 672.0588235294116 463.5 L 673.94419306184 465.8 L 675.8295625942684 465.8 L 677.7149321266967 416.6 L 679.6003016591251 416.6 L 681.4856711915534 431 L 683.3710407239818 431 L 685.2564102564102 462 L 687.1417797888384 462 L 689.0271493212668 491.2 L 690.9125188536952 491.2 L 692.7978883861235 503.6 L 694.6832579185519 503.6 L 696.5686274509802 474 L 698.4539969834086 474 L 700.339366515837 467.6 L 702.2247360482653 467.6 L 704.1101055806937 467.9 L 705.995475113122 467.9 L 707.8808446455504 465 L 709.7662141779788 465 L 711.6515837104071 466.7 L 713.5369532428355 466.7 L 715.4223227752639 461.4 L 717.3076923076922 461.4 L 719.1930618401205 455.7 L 721.0784313725488 455.7 L 722.9638009049772 488.2 L 724.8491704374056 488.2 L 726.7345399698339 472.8 L 728.6199095022623 466.2 L 730.5052790346907 453 L 732.390648567119 453 L 734.2760180995474 414.1 L 736.1613876319757 414.1 L 738.0467571644041 409.5 L 739.9321266968325 409.5 L 741.8174962292608 343.6 L 743.7028657616892 343.6 L 745.5882352941175 491 L 747.4736048265459 491 L 749.3589743589743 480.9 L 751.2443438914025 480.9 L 753.1297134238309 467.9 L 755.0150829562593 467.9 L 756.9004524886876 465.9 L 758.785822021116 465.9 L 760.6711915535443 465.9 L 762.5565610859727 465.9 L 764.4419306184011 460.1 L 766.3273001508294 460.1 L 768.2126696832578 446.4 L 770.0980392156862 446.4 L 771.9834087481145 445.8 L 773.8687782805429 445.8 L 775.7541478129712 443.4 L 777.6395173453996 443.4 L 779.524886877828 446.8 L 781.4102564102562 446.8 L 783.2956259426846 454.5 L 785.1809954751129 454.5 L 787.0663650075413 465.4 L 788.9517345399697 466.7 L 790.837104072398 466.7 L 792.7224736048264 466.2 L 794.6078431372548 466.2 L 796.4932126696831 464.6 L 798.3785822021115 464.6 L 800.2639517345398 465.3 L 802.1493212669682 465.3 L 804.0346907993966 501 L 805.9200603318249 501 L 807.8054298642533 504.1 L 809.6907993966817 504.1 L 811.5761689291099 476.4 L 813.4615384615383 476.4 L 815.3469079939666 467.2 L 817.232277526395 467.2 L 819.1176470588234 467.4 L 821.0030165912517 466.4 L 822.8883861236801 466.4 L 824.7737556561084 455.1 L 826.6591251885368 455.1 L 828.5444947209652 460.7 L 830.4298642533935 460.7 L 832.3152337858219 492.3 L 834.2006033182503 492.3 L 836.0859728506786 471.6 L 837.971342383107 471.6 L 839.8567119155352 456.8 L 841.7420814479636 456.8 L 843.627450980392 466.7 L 845.5128205128203 466.7 L 847.3981900452487 467 L 849.2835595776771 467 L 851.1689291101054 466 L 853.0542986425338 466 L 854.9396681749621 466.8 L 856.8250377073905 466.8 L 858.7104072398189 469.7 L 860.5957767722472 469.7 L 862.4811463046756 506 L 864.3665158371039 506 L 866.2518853695323 496.2 L 868.1372549019607 496.2 L 870.022624434389 471.5 L 871.9079939668173 471.5 L 873.7933634992457 468.3 L 875.678733031674 468.3 L 877.5641025641024 467.6 L 879.4494720965307 467.6 L 881.3348416289591 466.3 L 883.2202111613875 466.3 L 885.1055806938158 465.8 L 886.9909502262442 465.8 L 888.8763197586726 455.8 L 890.7616892911009 455.8 L 892.6470588235293 470.9 L 894.5324283559576 470.9 L 896.417797888386 489.4 L 898.3031674208144 489.4 L 900.1885369532426 461.2 L 902.073906485671 461.2 L 903.9592760180993 457.5 L 905.8446455505277 457.5 L 907.7300150829561 468.3 L 909.6153846153844 468.3 L 911.5007541478128 467.2 L 913.3861236802412 419.3 L 915.2714932126695 419.3 L 917.1568627450979 412.2 L 919.0422322775262 412.2 L 920.9276018099546 504.4 L 922.812971342383 504.4 L 924.6983408748113 492.8 L 926.5837104072397 492.8 L 928.4690799396681 470.4 L 930.3544494720963 470.4 L 932.2398190045247 468.5 L 934.125188536953 468.5 L 936.0105580693814 441.6 L 937.8959276018098 441.6 L 939.7812971342381 448.3 L 941.6666666666665 448.3 L 943.5520361990948 463 L 945.4374057315232 463 L 947.3227752639516 449.4 L 949.2081447963799 449.4 L 951.0935143288083 478 L 952.9788838612367 478 L 954.864253393665 483.6 L 956.7496229260934 483.6 L 958.6349924585217 455 L 960.52036199095 455 L 962.4057315233784 459.5 L 964.2911010558067 459.5 L 966.1764705882352 468.5 L 968.0618401206635 468.5 L 969.9472096530919 466.2 L 971.8325791855203 466.2 L 973.7179487179486 467.8 L 975.603318250377 467.8 L 977.4886877828054 465.1 L 979.3740573152337 465.1 L 981.2594268476621 485.3 L 983.1447963800904 485.3 L 985.0301659125188 507.4 L 986.9155354449472 507.4 L 988.8009049773755 489.6 L 990.6862745098039 468.8 L 992.5716440422323 468.8 L 994.4570135746606 468.5 L 996.342383107089 468.5 L 998.2277526395172 468.4 L 1000.1131221719456 468.4 L 1001.998491704374 467.6 L 1003.8838612368023 467.6 L 1005.7692307692307 489.3 L 1007.654600301659 489.3 L 1009.5399698340874 459.6 L 1011.4253393665158 459.6 L 1013.3107088989441 462.6 L 1015.1960784313725 462.6 L 1017.0814479638009 467.9 L 1018.9668174962292 467.9 L 1020.8521870286576 467.5 L 1022.7375565610859 467.5 L 1024.6229260935143 467.9 L 1026.5082956259425 467.9 L 1028.393665158371 465.3 L 1030.2790346907993 465.3 L 1032.1644042232276 491.2 L 1034.0497737556561 491.2 L 1035.9351432880844 508.6 L 1037.8205128205127 508.6 L 1039.705882352941 489.9 L 1049.705882352941 489.9" class="highcharts-tracker highcharts-tracker" stroke-linejoin="round" visibility="visible" stroke-opacity="0.0001" stroke="rgb(192,192,192)" stroke-width="21" zIndex="2" style=""></path></g></g><g class="highcharts-axis-labels" zIndex="7"><text x="70.29411764705883" y="586" style="font-family:&quot;Lucida Grande&quot;, &quot;Lucida Sans Unicode&quot;, Verdana, Arial, Helvetica, sans-serif;font-size:11px;color:#666;cursor:default;line-height:14px;fill:#666;" text-anchor="middle" opacity="1"><tspan x="70.29411764705883">0</tspan></text><text x="164.5625942684766" y="586" style="font-family:&quot;Lucida Grande&quot;, &quot;Lucida Sans Unicode&quot;, Verdana, Arial, Helvetica, sans-serif;font-size:11px;color:#666;cursor:default;line-height:14px;fill:#666;" text-anchor="middle" opacity="1"><tspan x="164.5625942684766">50</tspan></text><text x="258.83107088989436" y="586" style="font-family:&quot;Lucida Grande&quot;, &quot;Lucida Sans Unicode&quot;, Verdana, Arial, Helvetica, sans-serif;font-size:11px;color:#666;cursor:default;line-height:14px;fill:#666;" text-anchor="middle" opacity="1"><tspan x="258.83107088989436">100</tspan></text><text x="353.0995475113122" y="586" style="font-family:&quot;Lucida Grande&quot;, &quot;Lucida Sans Unicode&quot;, Verdana, Arial, Helvetica, sans-serif;font-size:11px;color:#666;cursor:default;line-height:14px;fill:#666;" text-anchor="middle" opacity="1"><tspan x="353.0995475113122">150</tspan></text><text x="447.36802413273" y="586" style="font-family:&quot;Lucida Grande&quot;, &quot;Lucida Sans Unicode&quot;, Verdana, Arial, Helvetica, sans-serif;font-size:11px;color:#666;cursor:default;line-height:14px;fill:#666;" text-anchor="middle" opacity="1"><tspan x="447.36802413273">200</tspan></text><text x="541.6365007541478" y="586" style="font-family:&quot;Lucida Grande&quot;, &quot;Lucida Sans Unicode&quot;, Verdana, Arial, Helvetica, sans-serif;font-size:11px;color:#666;cursor:default;line-height:14px;fill:#666;" text-anchor="middle" opacity="1"><tspan x="541.6365007541478">250</tspan></text><text x="635.9049773755655" y="586" style="font-family:&quot;Lucida Grande&quot;, &quot;Lucida Sans Unicode&quot;, Verdana, Arial, Helvetica, sans-serif;font-size:11px;color:#666;cursor:default;line-height:14px;fill:#666;" text-anchor="middle" opacity="1"><tspan x="635.9049773755655">300</tspan></text><text x="730.1734539969833" y="586" style="font-family:&quot;Lucida Grande&quot;, &quot;Lucida Sans Unicode&quot;, Verdana, Arial, Helvetica, sans-serif;font-size:11px;color:#666;cursor:default;line-height:14px;fill:#666;" text-anchor="middle" opacity="1"><tspan x="730.1734539969833">350</tspan></text><text x="824.4419306184011" y="586" style="font-family:&quot;Lucida Grande&quot;, &quot;Lucida Sans Unicode&quot;, Verdana, Arial, Helvetica, sans-serif;font-size:11px;color:#666;cursor:default;line-height:14px;fill:#666;" text-anchor="middle" opacity="1"><tspan x="824.4419306184011">400</tspan></text><text x="918.7104072398189" y="586" style="font-family:&quot;Lucida Grande&quot;, &quot;Lucida Sans Unicode&quot;, Verdana, Arial, Helvetica, sans-serif;font-size:11px;color:#666;cursor:default;line-height:14px;fill:#666;" text-anchor="middle" opacity="1"><tspan x="918.7104072398189">450</tspan></text><text x="1012.9788838612367" y="586" style="font-family:&quot;Lucida Grande&quot;, &quot;Lucida Sans Unicode&quot;, Verdana, Arial, Helvetica, sans-serif;font-size:11px;color:#666;cursor:default;line-height:14px;fill:#666;" text-anchor="middle" opacity="1"><tspan x="1012.9788838612367">500</tspan></text><text x="1107.2473604826546" y="586" style="font-family:&quot;Lucida Grande&quot;, &quot;Lucida Sans Unicode&quot;, Verdana, Arial, Helvetica, sans-serif;font-size:11px;color:#666;cursor:default;line-height:14px;fill:#666;" text-anchor="middle" opacity="1"><tspan x="1107.2473604826546">550</tspan></text></g><g class="highcharts-axis-labels" zIndex="7"><text x="52" y="578.115625" style="font-family:&quot;Lucida Grande&quot;, &quot;Lucida Sans Unicode&quot;, Verdana, Arial, Helvetica, sans-serif;font-size:11px;width:505px;color:#666;cursor:default;line-height:14px;fill:#666;" text-anchor="end" opacity="1"><tspan x="52">0</tspan></text><text x="52" y="507.865625" style="font-family:&quot;Lucida Grande&quot;, &quot;Lucida Sans Unicode&quot;, Verdana, Arial, Helvetica, sans-serif;font-size:11px;width:505px;color:#666;cursor:default;line-height:14px;fill:#666;" text-anchor="end" opacity="1"><tspan x="52">0.1</tspan></text><text x="52" y="437.615625" style="font-family:&quot;Lucida Grande&quot;, &quot;Lucida Sans Unicode&quot;, Verdana, Arial, Helvetica, sans-serif;font-size:11px;width:505px;color:#666;cursor:default;line-height:14px;fill:#666;" text-anchor="end" opacity="1"><tspan x="52">0.2</tspan></text><text x="52" y="367.365625" style="font-family:&quot;Lucida Grande&quot;, &quot;Lucida Sans Unicode&quot;, Verdana, Arial, Helvetica, sans-serif;font-size:11px;width:505px;color:#666;cursor:default;line-height:14px;fill:#666;" text-anchor="end" opacity="1"><tspan x="52">0.3</tspan></text><text x="52" y="297.115625" style="font-family:&quot;Lucida Grande&quot;, &quot;Lucida Sans Unicode&quot;, Verdana, Arial, Helvetica, sans-serif;font-size:11px;width:505px;color:#666;cursor:default;line-height:14px;fill:#666;" text-anchor="end" opacity="1"><tspan x="52">0.4</tspan></text><text x="52" y="226.865625" style="font-family:&quot;Lucida Grande&quot;, &quot;Lucida Sans Unicode&quot;, Verdana, Arial, Helvetica, sans-serif;font-size:11px;width:505px;color:#666;cursor:default;line-height:14px;fill:#666;" text-anchor="end" opacity="1"><tspan x="52">0.5</tspan></text><text x="52" y="156.615625" style="font-family:&quot;Lucida Grande&quot;, &quot;Lucida Sans Unicode&quot;, Verdana, Arial, Helvetica, sans-serif;font-size:11px;width:505px;color:#666;cursor:default;line-height:14px;fill:#666;" text-anchor="end" opacity="1"><tspan x="52">0.6</tspan></text><text x="52" y="86.36562500000005" style="font-family:&quot;Lucida Grande&quot;, &quot;Lucida Sans Unicode&quot;, Verdana, Arial, Helvetica, sans-serif;font-size:11px;width:505px;color:#666;cursor:default;line-height:14px;fill:#666;" text-anchor="end" opacity="1"><tspan x="52">0.7</tspan></text><text x="52" y="16.115625" style="font-family:&quot;Lucida Grande&quot;, &quot;Lucida Sans Unicode&quot;, Verdana, Arial, Helvetica, sans-serif;font-size:11px;width:505px;color:#666;cursor:default;line-height:14px;fill:#666;" text-anchor="end" opacity="1"><tspan x="52">0.8</tspan></text></g><g class="highcharts-tooltip" zIndex="8" style="cursor:default;padding:0;white-space:nowrap;" visibility="hidden" transform="translate(164,453)" opacity="0"><rect rx="3" ry="3" fill="none" x="0.5" y="0.5" width="272" height="44.203125" fill-opacity="0.85" isShadow="true" stroke="black" stroke-opacity="0.049999999999999996" stroke-width="5" transform="translate(1, 1)"></rect><rect rx="3" ry="3" fill="none" x="0.5" y="0.5" width="272" height="44.203125" fill-opacity="0.85" isShadow="true" stroke="black" stroke-opacity="0.09999999999999999" stroke-width="3" transform="translate(1, 1)"></rect><rect rx="3" ry="3" fill="none" x="0.5" y="0.5" width="272" height="44.203125" fill-opacity="0.85" isShadow="true" stroke="black" stroke-opacity="0.15" stroke-width="1" transform="translate(1, 1)"></rect><rect rx="3" ry="3" fill="rgb(255,255,255)" x="0.5" y="0.5" width="272" height="44.203125" fill-opacity="0.85" stroke="#c42525" stroke-width="1" anchorX="-11.26085962505715" anchorY="28.9765625"></rect><text x="8" y="21" style="font-family:&quot;Lucida Grande&quot;, &quot;Lucida Sans Unicode&quot;, Verdana, Arial, Helvetica, sans-serif;font-size:12px;color:#333333;fill:#333333;" zIndex="1"><tspan style="font-size: 10px" x="8">44</tspan><tspan style="fill:#c42525" x="8" dy="16">exp12 innerHTML</tspan><tspan dx="0">: </tspan><tspan style="font-weight:bold" dx="0">0.12756542305638208</tspan></text></g><text x="1110" y="595" style="font-family:&quot;Lucida Grande&quot;, &quot;Lucida Sans Unicode&quot;, Verdana, Arial, Helvetica, sans-serif;font-size:9px;cursor:pointer;color:#909090;fill:#909090;" text-anchor="end" zIndex="8"><tspan x="1110">Highcharts.com</tspan></text></svg>