<svg xmlns="http://www.w3.org/2000/svg" version="1.1" width="1120" height="600"><desc>Created with Highcharts 3.0.2</desc><defs><clipPath id="highcharts-1"><rect fill="none" x="0" y="0" width="1050" height="561"></rect></clipPath></defs><rect rx="5" ry="5" fill="#FFFFFF" x="0" y="0" width="1120" height="600"></rect><g class="highcharts-grid" zIndex="1"></g><g class="highcharts-grid" zIndex="1"><path fill="none" d="M 60 502.5 L 1110 502.5" stroke="#C0C0C0" stroke-width="1" zIndex="1" opacity="1"></path><path fill="none" d="M 60 432.5 L 1110 432.5" stroke="#C0C0C0" stroke-width="1" zIndex="1" opacity="1"></path><path fill="none" d="M 60 361.5 L 1110 361.5" stroke="#C0C0C0" stroke-width="1" zIndex="1" opacity="1"></path><path fill="none" d="M 60 291.5 L 1110 291.5" stroke="#C0C0C0" stroke-width="1" zIndex="1" opacity="1"></path><path fill="none" d="M 60 221.5 L 1110 221.5" stroke="#C0C0C0" stroke-width="1" zIndex="1" opacity="1"></path><path fill="none" d="M 60 151.5 L 1110 151.5" stroke="#C0C0C0" stroke-width="1" zIndex="1" opacity="1"></path><path fill="none" d="M 60 80.5 L 1110 80.5" stroke="#C0C0C0" stroke-width="1" zIndex="1" opacity="1"></path><path fill="none" d="M 60 10.5 L 1110 10.5" stroke="#C0C0C0" stroke-width="1" zIndex="1" opacity="1"></path><path fill="none" d="M 60 571.5 L 1110 571.5" stroke="#C0C0C0" stroke-width="1" zIndex="1" opacity="1"></path></g><g class="highcharts-axis" zIndex="2"><path fill="none" d="M 218.5 572 L 218.5 577" stroke="#C0D0E0" stroke-width="1" opacity="1"></path><path fill="none" d="M 368.5 572 L 368.5 577" stroke="#C0D0E0" stroke-width="1" opacity="1"></path><path fill="none" d="M 517.5 572 L 517.5 577" stroke="#C0D0E0" stroke-width="1" opacity="1"></path><path fill="none" d="M 666.5 572 L 666.5 577" stroke="#C0D0E0" stroke-width="1" opacity="1"></path><path fill="none" d="M 815.5 572 L 815.5 577" stroke="#C0D0E0" stroke-width="1" opacity="1"></path><path fill="none" d="M 964.5 572 L 964.5 577" stroke="#C0D0E0" stroke-width="1" opacity="1"></path><path fill="none" d="M 69.5 572 L 69.5 577" stroke="#C0D0E0" stroke-width="1" opacity="1"></path><path fill="none" d="M 144.5 572 L 144.5 577" stroke="#C0D0E0" stroke-width="1" opacity="1"></path><path fill="none" d="M 293.5 572 L 293.5 577" stroke="#C0D0E0" stroke-width="1" opacity="1"></path><path fill="none" d="M 442.5 572 L 442.5 577" stroke="#C0D0E0" stroke-width="1" opacity="1"></path><path fill="none" d="M 591.5 572 L 591.5 577" stroke="#C0D0E0" stroke-width="1" opacity="1"></path><path fill="none" d="M 741.5 572 L 741.5 577" stroke="#C0D0E0" stroke-width="1" opacity="1"></path><path fill="none" d="M 890.5 572 L 890.5 577" stroke="#C0D0E0" stroke-width="1" opacity="1"></path><path fill="none" d="M 1039.5 572 L 1039.5 577" stroke="#C0D0E0" stroke-width="1" opacity="1"></path><path fill="none" d="M 60 571.5 L 1110 571.5" stroke="#C0D0E0" stroke-width="1" zIndex="7" visibility="visible"></path></g><g class="highcharts-axis" zIndex="2"><text x="24.59375" y="291" style="font-family:&quot;Lucida Grande&quot;, &quot;Lucida Sans Unicode&quot;, Verdana, Arial, Helvetica, sans-serif;font-size:12px;color:#4d759e;font-weight:bold;fill:#4d759e;" zIndex="7" text-anchor="middle" transform="translate(0,0) rotate(270 24.59375 291)" visibility="visible"><tspan x="24.59375">Amperage</tspan></text></g><g class="highcharts-series-group" zIndex="3"><g class="highcharts-series" visibility="visible" zIndex="0.1" transform="translate(60,10) scale(1 1)" clip-path="url(#highcharts-1)"><path fill="none" d="M 10.294117647058824 475.6 L 13.277919863597614 475.6 L 16.2617220801364 476.2 L 19.245524296675192 476.2 L 22.22932651321398 475.7 L 25.213128729752768 475.7 L 28.19693094629156 482.5 L 31.180733162830347 482.5 L 34.164535379369134 476.9 L 37.148337595907925 476.9 L 40.13213981244672 476.4 L 43.11594202898551 476.4 L 46.09974424552429 475.3 L 49.08354646206308 475.3 L 52.067348678601874 475.8 L 55.051150895140665 475.8 L 58.03495311167945 475.2 L 61.01875532821824 475.2 L 64.00255754475702 485.4 L 66.98635976129582 485.4 L 69.97016197783461 494.3 L 72.9539641943734 494.3 L 75.93776641091219 472.8 L 78.92156862745098 472.8 L 81.90537084398977 467 L 84.88917306052856 467 L 87.87297527706734 476.6 L 90.85677749360613 476.6 L 93.84057971014492 472.3 L 96.82438192668373 472.3 L 99.80818414322252 435.9 L 102.79198635976131 435.9 L 105.77578857630009 463.9 L 108.75959079283888 463.9 L 111.74339300937767 495.8 L 114.72719522591646 495.8 L 117.71099744245525 483.3 L 120.69479965899404 483.3 L 123.67860187553283 423.8 L 126.66240409207163 423.8 L 129.6462063086104 448.5 L 132.6300085251492 448.5 L 135.61381074168798 466.2 L 138.5976129582268 466.2 L 141.58141517476557 438.1 L 144.56521739130434 438.1 L 147.54901960784315 469.2 L 150.53282182438193 469.2 L 153.51662404092073 476 L 156.5004262574595 475.5 L 159.48422847399831 487.3 L 162.4680306905371 492.6 L 165.45183290707587 471.2 L 168.43563512361467 471.2 L 171.41943734015345 469.2 L 174.40323955669226 476.9 L 177.38704177323103 476 L 180.37084398976984 476 L 183.35464620630862 474.4 L 186.33844842284742 474.4 L 189.3222506393862 479.6 L 192.30605285592497 479.6 L 195.28985507246378 499.7 L 198.27365728900256 499.7 L 201.25745950554136 511.5 L 204.24126172208014 511.5 L 207.22506393861894 488.5 L 210.20886615515772 488.5 L 213.1926683716965 410.8 L 216.1764705882353 410.8 L 219.16027280477408 454.1 L 222.1440750213129 454.1 L 225.12787723785166 469.4 L 228.11167945439047 469.4 L 231.09548167092925 472.8 L 234.07928388746805 472.8 L 237.06308610400683 474.7 L 240.0468883205456 474.7 L 243.0306905370844 477.3 L 246.0144927536232 477.3 L 248.998294970162 489.8 L 251.98209718670077 490.7 L 254.96589940323958 490.7 L 257.94970161977835 469.1 L 260.93350383631713 469.1 L 263.9173060528559 470.9 L 266.90110826939474 470.9 L 269.8849104859335 476.4 L 272.8687127024723 476.4 L 275.85251491901107 475.5 L 278.8363171355499 475.5 L 281.8201193520887 475.6 L 284.80392156862746 475.6 L 287.78772378516624 480 L 290.771526001705 480 L 293.75532821824385 504 L 296.7391304347826 504 L 299.7229326513214 510.4 L 302.7067348678602 510.4 L 305.690537084399 495.3 L 308.6743393009378 495.3 L 311.65814151747657 478.6 L 314.64194373401534 478.6 L 317.6257459505541 477.4 L 320.60954816709295 476.5 L 323.59335038363173 477.1 L 326.5771526001705 477.1 L 329.5609548167093 492 L 332.54475703324806 492 L 335.5285592497869 487.5 L 338.5123614663257 487.5 L 341.49616368286445 467.6 L 344.4799658994032 467.6 L 347.46376811594206 473.3 L 350.44757033248084 473.3 L 353.4313725490196 452 L 356.4151747655584 452 L 359.39897698209717 368.6 L 362.382779198636 368.6 L 365.3665814151748 346.8 L 368.35038363171356 346.8 L 371.33418584825233 346.9 L 374.31798806479117 346.9 L 377.30179028132994 376.5 L 380.2855924978687 376.5 L 383.26939471440744 397.1 L 386.2531969309463 397.1 L 389.23699914748505 382 L 392.2208013640238 382 L 395.2046035805626 369.4 L 398.18840579710144 369.4 L 401.1722080136402 365.3 L 404.156010230179 365.3 L 407.13981244671777 357 L 410.12361466325655 357 L 413.1074168797954 362 L 416.09121909633416 362 L 419.07502131287293 371.7 L 422.0588235294117 371.7 L 425.04262574595055 377.2 L 428.0264279624893 377.2 L 431.0102301790281 397.3 L 433.9940323955669 397.3 L 436.97783461210565 372.9 L 439.9616368286445 372.6 L 442.94543904518326 372.6 L 445.92924126172204 430.4 L 448.9130434782608 430.4 L 451.8968456947996 436.9 L 454.88064791133843 436.9 L 457.8644501278772 436.7 L 460.848252344416 436.7 L 463.83205456095476 436.3 L 466.8158567774936 467.6 L 469.79965899403237 394.5 L 472.78346121057115 394.5 L 475.7672634271099 418.6 L 478.7510656436487 418.6 L 481.73486786018753 323.9 L 484.7186700767263 323.9 L 487.7024722932651 303.7 L 490.68627450980387 303.7 L 493.6700767263427 362.3 L 496.6538789428815 362.3 L 499.63768115942025 361.9 L 502.62148337595903 361.9 L 505.6052855924978 372.2 L 508.58908780903664 372.2 L 511.5728900255754 381.5 L 514.5566922421142 381.5 L 517.540494458653 372.7 L 520.5242966751917 372.7 L 523.5080988917306 357.9 L 526.4919011082693 357.9 L 529.4757033248081 360.2 L 532.459505541347 360.2 L 535.4433077578857 364.2 L 538.4271099744245 364.2 L 541.4109121909634 357 L 544.3947144075021 357 L 547.3785166240409 320.5 L 550.3623188405796 320.5 L 553.3461210571185 352.2 L 556.3299232736573 352.2 L 559.313725490196 418.6 L 562.2975277067349 418.6 L 565.2813299232736 495.4 L 568.2651321398124 495.4 L 571.2489343563512 479.4 L 574.23273657289 479.4 L 577.2165387894288 470.7 L 580.2003410059675 470.7 L 583.1841432225063 469.5 L 586.1679454390452 469.5 L 589.1517476555839 469.2 L 592.1355498721227 469.2 L 595.1193520886615 469.1 L 598.1031543052003 469.1 L 601.0869565217391 453 L 604.0707587382778 453 L 607.0545609548167 394.6 L 610.0383631713555 394.6 L 613.0221653878942 204.2 L 616.0059676044331 204.2 L 618.9897698209718 136.4 L 621.9735720375106 136.4 L 624.9573742540495 315 L 627.9411764705882 315 L 630.924978687127 454.9 L 633.9087809036657 454.9 L 636.8925831202046 446.5 L 639.8763853367434 446.5 L 642.8601875532821 482.6 L 645.843989769821 482.6 L 648.8277919863597 501.8 L 651.8115942028985 501.8 L 654.7953964194373 477.6 L 657.7791986359761 471.1 L 660.7630008525149 471.1 L 663.7468030690537 470.9 L 666.7306052855924 470.9 L 669.7144075021313 471.7 L 672.69820971867 471.7 L 675.6820119352088 471.8 L 678.6658141517477 471.8 L 681.6496163682864 461.2 L 684.6334185848252 461.2 L 687.6172208013639 470.7 L 690.6010230179028 470.7 L 693.5848252344416 492.8 L 696.5686274509803 492.8 L 699.5524296675192 467.7 L 702.5362318840579 467.7 L 705.5200341005967 463.5 L 708.5038363171356 463.5 L 711.4876385336743 470.1 L 714.4714407502131 470.1 L 717.4552429667518 471.8 L 720.4390451832907 471.2 L 723.4228473998295 471.2 L 726.4066496163682 472.1 L 729.390451832907 472.1 L 732.3742540494459 476.5 L 735.3580562659846 476.5 L 738.3418584825234 500.1 L 741.3256606990622 500.1 L 744.309462915601 440.3 L 747.2932651321398 440.3 L 750.2770673486785 459.5 L 753.2608695652174 459.5 L 756.2446717817561 471.6 L 759.2284739982949 470.2 L 762.2122762148338 457.4 L 765.1960784313725 457.4 L 768.1798806479113 468.5 L 771.16368286445 468.5 L 774.1474850809889 463.4 L 777.1312872975277 463.4 L 780.1150895140664 481.2 L 783.0988917306053 481.2 L 786.082693947144 489.8 L 789.0664961636828 489.8 L 792.0502983802216 465 L 795.0341005967604 465 L 798.0179028132992 463.3 L 801.001705029838 463.3 L 803.9855072463768 470.8 L 806.9693094629156 470.8 L 809.9531116794543 472.6 L 812.9369138959931 472.3 L 815.920716112532 472.3 L 818.9045183290707 472.8 L 821.8883205456095 472.8 L 824.8721227621483 486.9 L 827.8559249786871 486.9 L 830.8397271952259 505.8 L 833.8235294117646 505.8 L 836.8073316283035 492.6 L 839.7911338448422 492.6 L 842.774936061381 473.5 L 845.7587382779199 473.5 L 848.7425404944586 471.1 L 851.7263427109974 471.1 L 854.7101449275362 471.1 L 857.693947144075 471.1 L 860.6777493606138 471.1 L 863.6615515771525 471.1 L 866.6453537936914 473.2 L 869.6291560102302 473.2 L 872.6129582267689 465.7 L 875.5967604433077 465.7 L 878.5805626598465 486.5 L 881.5643648763853 486.5 L 884.5481670929241 489.8 L 887.5319693094629 489.8 L 890.5157715260017 465.1 L 893.4995737425404 465.1 L 896.4833759590792 466.6 L 899.4671781756181 466.6 L 902.4509803921568 471.1 L 905.4347826086956 472.7 L 908.4185848252343 495.2 L 911.4023870417732 495.2 L 914.386189258312 509.4 L 917.3699914748507 509.4 L 920.3537936913896 475.6 L 923.3375959079284 475.6 L 926.3213981244671 459.6 L 929.305200341006 459.6 L 932.2890025575447 471.1 L 935.2728047740835 471.1 L 938.2566069906223 472.7 L 941.2404092071611 472.7 L 944.2242114236999 471.7 L 947.2080136402386 471.7 L 950.1918158567775 471.6 L 953.1756180733163 471.6 L 956.159420289855 465.8 L 959.1432225063938 465.8 L 962.1270247229326 481.7 L 965.1108269394714 481.7 L 968.0946291560102 485.6 L 971.078431372549 485.6 L 974.0622335890878 459.3" stroke="#2f7ed8" stroke-width="1" zIndex="1"></path></g><g class="highcharts-markers" visibility="visible" zIndex="0.1" transform="translate(60,10) scale(1 1)" clip-path="none"><path fill="none" d="M 0.29411764705882426 475.6 L 10.294117647058824 475.6 L 13.277919863597614 475.6 L 16.2617220801364 476.2 L 19.245524296675192 476.2 L 22.22932651321398 475.7 L 25.213128729752768 475.7 L 28.19693094629156 482.5 L 31.180733162830347 482.5 L 34.164535379369134 476.9 L 37.148337595907925 476.9 L 40.13213981244672 476.4 L 43.11594202898551 476.4 L 46.09974424552429 475.3 L 49.08354646206308 475.3 L 52.067348678601874 475.8 L 55.051150895140665 475.8 L 58.03495311167945 475.2 L 61.01875532821824 475.2 L 64.00255754475702 485.4 L 66.98635976129582 485.4 L 69.97016197783461 494.3 L 72.9539641943734 494.3 L 75.93776641091219 472.8 L 78.92156862745098 472.8 L 81.90537084398977 467 L 84.88917306052856 467 L 87.87297527706734 476.6 L 90.85677749360613 476.6 L 93.84057971014492 472.3 L 96.82438192668373 472.3 L 99.80818414322252 435.9 L 102.79198635976131 435.9 L 105.77578857630009 463.9 L 108.75959079283888 463.9 L 111.74339300937767 495.8 L 114.72719522591646 495.8 L 117.71099744245525 483.3 L 120.69479965899404 483.3 L 123.67860187553283 423.8 L 126.66240409207163 423.8 L 129.6462063086104 448.5 L 132.6300085251492 448.5 L 135.61381074168798 466.2 L 138.5976129582268 466.2 L 141.58141517476557 438.1 L 144.56521739130434 438.1 L 147.54901960784315 469.2 L 150.53282182438193 469.2 L 153.51662404092073 476 L 156.5004262574595 475.5 L 159.48422847399831 487.3 L 162.4680306905371 492.6 L 165.45183290707587 471.2 L 168.43563512361467 471.2 L 171.41943734015345 469.2 L 174.40323955669226 476.9 L 177.38704177323103 476 L 180.37084398976984 476 L 183.35464620630862 474.4 L 186.33844842284742 474.4 L 189.3222506393862 479.6 L 192.30605285592497 479.6 L 195.28985507246378 499.7 L 198.27365728900256 499.7 L 201.25745950554136 511.5 L 204.24126172208014 511.5 L 207.22506393861894 488.5 L 210.20886615515772 488.5 L 213.1926683716965 410.8 L 216.1764705882353 410.8 L 219.16027280477408 454.1 L 222.1440750213129 454.1 L 225.12787723785166 469.4 L 228.11167945439047 469.4 L 231.09548167092925 472.8 L 234.07928388746805 472.8 L 237.06308610400683 474.7 L 240.0468883205456 474.7 L 243.0306905370844 477.3 L 246.0144927536232 477.3 L 248.998294970162 489.8 L 251.98209718670077 490.7 L 254.96589940323958 490.7 L 257.94970161977835 469.1 L 260.93350383631713 469.1 L 263.9173060528559 470.9 L 266.90110826939474 470.9 L 269.8849104859335 476.4 L 272.8687127024723 476.4 L 275.85251491901107 475.5 L 278.8363171355499 475.5 L 281.8201193520887 475.6 L 284.80392156862746 475.6 L 287.78772378516624 480 L 290.771526001705 480 L 293.75532821824385 504 L 296.7391304347826 504 L 299.7229326513214 510.4 L 302.7067348678602 510.4 L 305.690537084399 495.3 L 308.6743393009378 495.3 L 311.65814151747657 478.6 L 314.64194373401534 478.6 L 317.6257459505541 477.4 L 320.60954816709295 476.5 L 323.59335038363173 477.1 L 326.5771526001705 477.1 L 329.5609548167093 492 L 332.54475703324806 492 L 335.5285592497869 487.5 L 338.5123614663257 487.5 L 341.49616368286445 467.6 L 344.4799658994032 467.6 L 347.46376811594206 473.3 L 350.44757033248084 473.3 L 353.4313725490196 452 L 356.4151747655584 452 L 359.39897698209717 368.6 L 362.382779198636 368.6 L 365.3665814151748 346.8 L 368.35038363171356 346.8 L 371.33418584825233 346.9 L 374.31798806479117 346.9 L 377.30179028132994 376.5 L 380.2855924978687 376.5 L 383.26939471440744 397.1 L 386.2531969309463 397.1 L 389.23699914748505 382 L 392.2208013640238 382 L 395.2046035805626 369.4 L 398.18840579710144 369.4 L 401.1722080136402 365.3 L 404.156010230179 365.3 L 407.13981244671777 357 L 410.12361466325655 357 L 413.1074168797954 362 L 416.09121909633416 362 L 419.07502131287293 371.7 L 422.0588235294117 371.7 L 425.04262574595055 377.2 L 428.0264279624893 377.2 L 431.0102301790281 397.3 L 433.9940323955669 397.3 L 436.97783461210565 372.9 L 439.9616368286445 372.6 L 442.94543904518326 372.6 L 445.92924126172204 430.4 L 448.9130434782608 430.4 L 451.8968456947996 436.9 L 454.88064791133843 436.9 L 457.8644501278772 436.7 L 460.848252344416 436.7 L 463.83205456095476 436.3 L 466.8158567774936 467.6 L 469.79965899403237 394.5 L 472.78346121057115 394.5 L 475.7672634271099 418.6 L 478.7510656436487 418.6 L 481.73486786018753 323.9 L 484.7186700767263 323.9 L 487.7024722932651 303.7 L 490.68627450980387 303.7 L 493.6700767263427 362.3 L 496.6538789428815 362.3 L 499.63768115942025 361.9 L 502.62148337595903 361.9 L 505.6052855924978 372.2 L 508.58908780903664 372.2 L 511.5728900255754 381.5 L 514.5566922421142 381.5 L 517.540494458653 372.7 L 520.5242966751917 372.7 L 523.5080988917306 357.9 L 526.4919011082693 357.9 L 529.4757033248081 360.2 L 532.459505541347 360.2 L 535.4433077578857 364.2 L 538.4271099744245 364.2 L 541.4109121909634 357 L 544.3947144075021 357 L 547.3785166240409 320.5 L 550.3623188405796 320.5 L 553.3461210571185 352.2 L 556.3299232736573 352.2 L 559.313725490196 418.6 L 562.2975277067349 418.6 L 565.2813299232736 495.4 L 568.2651321398124 495.4 L 571.2489343563512 479.4 L 574.23273657289 479.4 L 577.2165387894288 470.7 L 580.2003410059675 470.7 L 583.1841432225063 469.5 L 586.1679454390452 469.5 L 589.1517476555839 469.2 L 592.1355498721227 469.2 L 595.1193520886615 469.1 L 598.1031543052003 469.1 L 601.0869565217391 453 L 604.0707587382778 453 L 607.0545609548167 394.6 L 610.0383631713555 394.6 L 613.0221653878942 204.2 L 616.0059676044331 204.2 L 618.9897698209718 136.4 L 621.9735720375106 136.4 L 624.9573742540495 315 L 627.9411764705882 315 L 630.924978687127 454.9 L 633.9087809036657 454.9 L 636.8925831202046 446.5 L 639.8763853367434 446.5 L 642.8601875532821 482.6 L 645.843989769821 482.6 L 648.8277919863597 501.8 L 651.8115942028985 501.8 L 654.7953964194373 477.6 L 657.7791986359761 471.1 L 660.7630008525149 471.1 L 663.7468030690537 470.9 L 666.7306052855924 470.9 L 669.7144075021313 471.7 L 672.69820971867 471.7 L 675.6820119352088 471.8 L 678.6658141517477 471.8 L 681.6496163682864 461.2 L 684.6334185848252 461.2 L 687.6172208013639 470.7 L 690.6010230179028 470.7 L 693.5848252344416 492.8 L 696.5686274509803 492.8 L 699.5524296675192 467.7 L 702.5362318840579 467.7 L 705.5200341005967 463.5 L 708.5038363171356 463.5 L 711.4876385336743 470.1 L 714.4714407502131 470.1 L 717.4552429667518 471.8 L 720.4390451832907 471.2 L 723.4228473998295 471.2 L 726.4066496163682 472.1 L 729.390451832907 472.1 L 732.3742540494459 476.5 L 735.3580562659846 476.5 L 738.3418584825234 500.1 L 741.3256606990622 500.1 L 744.309462915601 440.3 L 747.2932651321398 440.3 L 750.2770673486785 459.5 L 753.2608695652174 459.5 L 756.2446717817561 471.6 L 759.2284739982949 470.2 L 762.2122762148338 457.4 L 765.1960784313725 457.4 L 768.1798806479113 468.5 L 771.16368286445 468.5 L 774.1474850809889 463.4 L 777.1312872975277 463.4 L 780.1150895140664 481.2 L 783.0988917306053 481.2 L 786.082693947144 489.8 L 789.0664961636828 489.8 L 792.0502983802216 465 L 795.0341005967604 465 L 798.0179028132992 463.3 L 801.001705029838 463.3 L 803.9855072463768 470.8 L 806.9693094629156 470.8 L 809.9531116794543 472.6 L 812.9369138959931 472.3 L 815.920716112532 472.3 L 818.9045183290707 472.8 L 821.8883205456095 472.8 L 824.8721227621483 486.9 L 827.8559249786871 486.9 L 830.8397271952259 505.8 L 833.8235294117646 505.8 L 836.8073316283035 492.6 L 839.7911338448422 492.6 L 842.774936061381 473.5 L 845.7587382779199 473.5 L 848.7425404944586 471.1 L 851.7263427109974 471.1 L 854.7101449275362 471.1 L 857.693947144075 471.1 L 860.6777493606138 471.1 L 863.6615515771525 471.1 L 866.6453537936914 473.2 L 869.6291560102302 473.2 L 872.6129582267689 465.7 L 875.5967604433077 465.7 L 878.5805626598465 486.5 L 881.5643648763853 486.5 L 884.5481670929241 489.8 L 887.5319693094629 489.8 L 890.5157715260017 465.1 L 893.4995737425404 465.1 L 896.4833759590792 466.6 L 899.4671781756181 466.6 L 902.4509803921568 471.1 L 905.4347826086956 472.7 L 908.4185848252343 495.2 L 911.4023870417732 495.2 L 914.386189258312 509.4 L 917.3699914748507 509.4 L 920.3537936913896 475.6 L 923.3375959079284 475.6 L 926.3213981244671 459.6 L 929.305200341006 459.6 L 932.2890025575447 471.1 L 935.2728047740835 471.1 L 938.2566069906223 472.7 L 941.2404092071611 472.7 L 944.2242114236999 471.7 L 947.2080136402386 471.7 L 950.1918158567775 471.6 L 953.1756180733163 471.6 L 956.159420289855 465.8 L 959.1432225063938 465.8 L 962.1270247229326 481.7 L 965.1108269394714 481.7 L 968.0946291560102 485.6 L 971.078431372549 485.6 L 974.0622335890878 459.3 L 984.0622335890878 459.3" class="highcharts-tracker highcharts-tracker" stroke-linejoin="round" visibility="visible" stroke-opacity="0.0001" stroke="rgb(192,192,192)" stroke-width="21" zIndex="2" style=""></path></g><g class="highcharts-series" visibility="visible" zIndex="0.1" transform="translate(60,10) scale(1 1)" clip-path="url(#highcharts-1)"><path fill="none" d="M 10.294117647058824 474 L 13.277919863597614 474 L 16.2617220801364 488.1 L 19.245524296675192 488.1 L 22.22932651321398 469 L 25.213128729752768 469 L 28.19693094629156 463.5 L 31.180733162830347 463.5 L 34.164535379369134 470.7 L 37.148337595907925 470.7 L 40.13213981244672 469.7 L 43.11594202898551 469.7 L 46.09974424552429 471.4 L 49.08354646206308 471.4 L 52.067348678601874 475.1 L 55.051150895140665 475.1 L 58.03495311167945 496 L 61.01875532821824 496 L 64.00255754475702 510.6 L 66.98635976129582 510.6 L 69.97016197783461 501 L 72.9539641943734 501 L 75.93776641091219 441 L 78.92156862745098 441 L 81.90537084398977 464.4 L 84.88917306052856 464.4 L 87.87297527706734 469.6 L 90.85677749360613 469.6 L 93.84057971014492 485.1 L 96.82438192668373 485.1 L 99.80818414322252 492 L 102.79198635976131 492 L 105.77578857630009 466.8 L 108.75959079283888 466.8 L 111.74339300937767 467.6 L 114.72719522591646 467.6 L 117.71099744245525 475.5 L 120.69479965899404 475.5 L 123.67860187553283 473.5 L 126.66240409207163 473.5 L 129.6462063086104 474.9 L 132.6300085251492 474.9 L 135.61381074168798 477.3 L 138.5976129582268 477.3 L 141.58141517476557 499.9 L 144.56521739130434 499.9 L 147.54901960784315 510.9 L 150.53282182438193 510.9 L 153.51662404092073 497.1 L 156.5004262574595 497.1 L 159.48422847399831 477.3 L 162.4680306905371 476.5 L 165.45183290707587 476.5 L 168.43563512361467 474.8 L 171.41943734015345 474.8 L 174.40323955669226 475.3 L 177.38704177323103 475.3 L 180.37084398976984 475.2 L 183.35464620630862 475.2 L 186.33844842284742 475.6 L 189.3222506393862 475.6 L 192.30605285592497 488.6 L 195.28985507246378 488.6 L 198.27365728900256 490.6 L 201.25745950554136 490.6 L 204.24126172208014 465.4 L 207.22506393861894 465.4 L 210.20886615515772 470.6 L 213.1926683716965 470.6 L 216.1764705882353 474.6 L 219.16027280477408 474.6 L 222.1440750213129 503 L 225.12787723785166 503 L 228.11167945439047 509.9 L 231.09548167092925 509.9 L 234.07928388746805 493.9 L 237.06308610400683 493.9 L 240.0468883205456 476 L 243.0306905370844 476 L 246.0144927536232 475.2 L 248.998294970162 475.2 L 251.98209718670077 475 L 254.96589940323958 475 L 257.94970161977835 459.2 L 260.93350383631713 459.2 L 263.9173060528559 406.5 L 266.90110826939474 406.5 L 269.8849104859335 462.8 L 272.8687127024723 491.3 L 275.85251491901107 491.3 L 278.8363171355499 486.7 L 281.8201193520887 486.7 L 284.80392156862746 461.3 L 287.78772378516624 461.3 L 290.771526001705 458.3 L 293.75532821824385 458.3 L 296.7391304347826 466.7 L 299.7229326513214 466.7 L 302.7067348678602 474.6 L 305.690537084399 474.6 L 308.6743393009378 475.9 L 311.65814151747657 475.9 L 314.64194373401534 481.9 L 317.6257459505541 481.9 L 320.60954816709295 506.1 L 323.59335038363173 506.1 L 326.5771526001705 508.4 L 329.5609548167093 508.4 L 332.54475703324806 486.9 L 335.5285592497869 486.9 L 338.5123614663257 424 L 341.49616368286445 424 L 344.4799658994032 398.4 L 347.46376811594206 398.4 L 350.44757033248084 458.9 L 353.4313725490196 458.9 L 356.4151747655584 421.3 L 359.39897698209717 421.3 L 362.382779198636 359.1 L 365.3665814151748 359.1 L 368.35038363171356 350.1 L 371.33418584825233 343.9 L 374.31798806479117 343.9 L 377.30179028132994 337.6 L 380.2855924978687 337.6 L 383.26939471440744 357 L 386.2531969309463 357 L 389.23699914748505 359.1 L 392.2208013640238 359.1 L 395.2046035805626 351.1 L 398.18840579710144 351.1 L 401.1722080136402 334.7 L 404.156010230179 334.7 L 407.13981244671777 351.8 L 410.12361466325655 351.8 L 413.1074168797954 395.7 L 416.09121909633416 395.7 L 419.07502131287293 397.1 L 422.0588235294117 397.1 L 425.04262574595055 379.3 L 428.0264279624893 379.3 L 431.0102301790281 357.9 L 433.9940323955669 357.9 L 436.97783461210565 380.2 L 439.9616368286445 380.2 L 442.94543904518326 430.6 L 445.92924126172204 430.6 L 448.9130434782608 434.7 L 451.8968456947996 434.7 L 454.88064791133843 436.8 L 457.8644501278772 436.8 L 460.848252344416 445.2 L 463.83205456095476 445.2 L 466.8158567774936 460.2 L 469.79965899403237 437.6 L 472.78346121057115 437.6 L 475.7672634271099 420 L 478.7510656436487 420 L 481.73486786018753 433.3 L 484.7186700767263 433.3 L 487.7024722932651 435.4 L 490.68627450980387 435.4 L 493.6700767263427 435 L 496.6538789428815 435 L 499.63768115942025 435.4 L 502.62148337595903 435.4 L 505.6052855924978 369.2 L 508.58908780903664 369.2 L 511.5728900255754 323.2 L 514.5566922421142 362.8 L 517.540494458653 362.8 L 520.5242966751917 359.3 L 523.5080988917306 359.3 L 526.4919011082693 356 L 529.4757033248081 356 L 532.459505541347 344.3 L 535.4433077578857 344.3 L 538.4271099744245 359.7 L 541.4109121909634 359.7 L 544.3947144075021 381 L 547.3785166240409 389 L 550.3623188405796 389 L 553.3461210571185 321.7 L 556.3299232736573 321.7 L 559.313725490196 321.3 L 562.2975277067349 321.3 L 565.2813299232736 393.1 L 568.2651321398124 393.1 L 571.2489343563512 462.7 L 574.23273657289 462.7 L 577.2165387894288 468.4 L 580.2003410059675 468.4 L 583.1841432225063 465.3 L 586.1679454390452 465.3 L 589.1517476555839 416.3 L 592.1355498721227 416.3 L 595.1193520886615 397.7 L 598.1031543052003 397.7 L 601.0869565217391 403.3 L 604.0707587382778 403.3 L 607.0545609548167 355.3 L 610.0383631713555 355.3 L 613.0221653878942 212.3 L 616.0059676044331 212.3 L 618.9897698209718 196.2 L 621.9735720375106 196.2 L 624.9573742540495 374.3 L 627.9411764705882 374.3 L 630.924978687127 463.7 L 633.9087809036657 463.7 L 636.8925831202046 445.4 L 639.8763853367434 445.4 L 642.8601875532821 441.8 L 645.843989769821 441.8 L 648.8277919863597 491.1 L 651.8115942028985 491.1 L 654.7953964194373 467.1 L 657.7791986359761 467.1 L 660.7630008525149 467.8 L 663.7468030690537 467.8 L 666.7306052855924 464.5 L 669.7144075021313 464.5 L 672.69820971867 468.8 L 675.6820119352088 468.8 L 678.6658141517477 507.1 L 681.6496163682864 507.1 L 684.6334185848252 496.9 L 687.6172208013639 496.9 L 690.6010230179028 472.6 L 693.5848252344416 472.6 L 696.5686274509803 469.3 L 699.5524296675192 469.3 L 702.5362318840579 469.7 L 705.5200341005967 470.8 L 708.5038363171356 470.8 L 711.4876385336743 470.6 L 714.4714407502131 470.6 L 717.4552429667518 459.2 L 720.4390451832907 459.2 L 723.4228473998295 471.7 L 726.4066496163682 471.7 L 729.390451832907 481.4 L 732.3742540494459 481.4 L 735.3580562659846 462.5 L 738.3418584825234 462.5 L 741.3256606990622 462.5 L 744.309462915601 462.5 L 747.2932651321398 469.7 L 750.2770673486785 469.7 L 753.2608695652174 469.9 L 756.2446717817561 469.9 L 759.2284739982949 470.9 L 762.2122762148338 470.9 L 765.1960784313725 468.2 L 768.1798806479113 468.2 L 771.16368286445 478.2 L 774.1474850809889 478.2 L 777.1312872975277 498.8 L 780.1150895140664 498.8 L 783.0988917306053 489.9 L 786.082693947144 489.9 L 789.0664961636828 472 L 792.0502983802216 472 L 795.0341005967604 469 L 798.0179028132992 469 L 801.001705029838 445.7 L 803.9855072463768 445.7 L 806.9693094629156 467 L 809.9531116794543 486.7 L 812.9369138959931 484.7 L 815.920716112532 484.7 L 818.9045183290707 457.3 L 821.8883205456095 457.3 L 824.8721227621483 464.4 L 827.8559249786871 464.4 L 830.8397271952259 469.5 L 833.8235294117646 469.5 L 836.8073316283035 470.7 L 839.7911338448422 470.7 L 842.774936061381 470.7 L 845.7587382779199 470.7 L 848.7425404944586 472 L 851.7263427109974 472 L 854.7101449275362 495.9 L 857.693947144075 495.9 L 860.6777493606138 508.9 L 863.6615515771525 508.9 L 866.6453537936914 489.5 L 869.6291560102302 489.5 L 872.6129582267689 469.1 L 875.5967604433077 469.1 L 878.5805626598465 465.8 L 881.5643648763853 465.8 L 884.5481670929241 465.3 L 887.5319693094629 465.3 L 890.5157715260017 466.4 L 893.4995737425404 466.4 L 896.4833759590792 468.8 L 899.4671781756181 468.8 L 902.4509803921568 465.2 L 905.4347826086956 465.2 L 908.4185848252343 489 L 911.4023870417732 489 L 914.386189258312 485 L 917.3699914748507 485 L 920.3537936913896 458.2 L 923.3375959079284 458.2 L 926.3213981244671 450.8 L 929.305200341006 450.8 L 932.2890025575447 458.6 L 935.2728047740835 458.6 L 938.2566069906223 470.2 L 941.2404092071611 470.8 L 944.2242114236999 470.8 L 947.2080136402386 474 L 950.1918158567775 474 L 953.1756180733163 444.3 L 956.159420289855 444.3 L 959.1432225063938 392.3 L 962.1270247229326 392.3 L 965.1108269394714 432.1 L 968.0946291560102 432.1 L 971.078431372549 467.5 L 974.0622335890878 466.9 L 977.0460358056265 466.9 L 980.0298380221653 470 L 983.0136402387042 470 L 985.9974424552429 469.2 L 988.9812446717817 469.2 L 991.9650468883206 467.6 L 994.9488491048593 467.6 L 997.9326513213981 490.5 L 1000.9164535379368 490.5 L 1003.9002557544757 480.6 L 1006.8840579710145 480.6 L 1009.8678601875532 457.1 L 1012.851662404092 457.1 L 1015.8354646206308 466.7 L 1018.8192668371696 466.7 L 1021.8030690537084 469.7 L 1024.7868712702473 469.7 L 1027.7706734867859 470.8 L 1030.7544757033247 470.8 L 1033.7382779198635 470.7 L 1036.7220801364024 470.7 L 1039.7058823529412 476.1" stroke="#c42525" stroke-width="1" zIndex="1"></path></g><g class="highcharts-markers" visibility="visible" zIndex="0.1" transform="translate(60,10) scale(1 1)" clip-path="none"><path fill="none" d="M 0.29411764705882426 474 L 10.294117647058824 474 L 13.277919863597614 474 L 16.2617220801364 488.1 L 19.245524296675192 488.1 L 22.22932651321398 469 L 25.213128729752768 469 L 28.19693094629156 463.5 L 31.180733162830347 463.5 L 34.164535379369134 470.7 L 37.148337595907925 470.7 L 40.13213981244672 469.7 L 43.11594202898551 469.7 L 46.09974424552429 471.4 L 49.08354646206308 471.4 L 52.067348678601874 475.1 L 55.051150895140665 475.1 L 58.03495311167945 496 L 61.01875532821824 496 L 64.00255754475702 510.6 L 66.98635976129582 510.6 L 69.97016197783461 501 L 72.9539641943734 501 L 75.93776641091219 441 L 78.92156862745098 441 L 81.90537084398977 464.4 L 84.88917306052856 464.4 L 87.87297527706734 469.6 L 90.85677749360613 469.6 L 93.84057971014492 485.1 L 96.82438192668373 485.1 L 99.80818414322252 492 L 102.79198635976131 492 L 105.77578857630009 466.8 L 108.75959079283888 466.8 L 111.74339300937767 467.6 L 114.72719522591646 467.6 L 117.71099744245525 475.5 L 120.69479965899404 475.5 L 123.67860187553283 473.5 L 126.66240409207163 473.5 L 129.6462063086104 474.9 L 132.6300085251492 474.9 L 135.61381074168798 477.3 L 138.5976129582268 477.3 L 141.58141517476557 499.9 L 144.56521739130434 499.9 L 147.54901960784315 510.9 L 150.53282182438193 510.9 L 153.51662404092073 497.1 L 156.5004262574595 497.1 L 159.48422847399831 477.3 L 162.4680306905371 476.5 L 165.45183290707587 476.5 L 168.43563512361467 474.8 L 171.41943734015345 474.8 L 174.40323955669226 475.3 L 177.38704177323103 475.3 L 180.37084398976984 475.2 L 183.35464620630862 475.2 L 186.33844842284742 475.6 L 189.3222506393862 475.6 L 192.30605285592497 488.6 L 195.28985507246378 488.6 L 198.27365728900256 490.6 L 201.25745950554136 490.6 L 204.24126172208014 465.4 L 207.22506393861894 465.4 L 210.20886615515772 470.6 L 213.1926683716965 470.6 L 216.1764705882353 474.6 L 219.16027280477408 474.6 L 222.1440750213129 503 L 225.12787723785166 503 L 228.11167945439047 509.9 L 231.09548167092925 509.9 L 234.07928388746805 493.9 L 237.06308610400683 493.9 L 240.0468883205456 476 L 243.0306905370844 476 L 246.0144927536232 475.2 L 248.998294970162 475.2 L 251.98209718670077 475 L 254.96589940323958 475 L 257.94970161977835 459.2 L 260.93350383631713 459.2 L 263.9173060528559 406.5 L 266.90110826939474 406.5 L 269.8849104859335 462.8 L 272.8687127024723 491.3 L 275.85251491901107 491.3 L 278.8363171355499 486.7 L 281.8201193520887 486.7 L 284.80392156862746 461.3 L 287.78772378516624 461.3 L 290.771526001705 458.3 L 293.75532821824385 458.3 L 296.7391304347826 466.7 L 299.7229326513214 466.7 L 302.7067348678602 474.6 L 305.690537084399 474.6 L 308.6743393009378 475.9 L 311.65814151747657 475.9 L 314.64194373401534 481.9 L 317.6257459505541 481.9 L 320.60954816709295 506.1 L 323.59335038363173 506.1 L 326.5771526001705 508.4 L 329.5609548167093 508.4 L 332.54475703324806 486.9 L 335.5285592497869 486.9 L 338.5123614663257 424 L 341.49616368286445 424 L 344.4799658994032 398.4 L 347.46376811594206 398.4 L 350.44757033248084 458.9 L 353.4313725490196 458.9 L 356.4151747655584 421.3 L 359.39897698209717 421.3 L 362.382779198636 359.1 L 365.3665814151748 359.1 L 368.35038363171356 350.1 L 371.33418584825233 343.9 L 374.31798806479117 343.9 L 377.30179028132994 337.6 L 380.2855924978687 337.6 L 383.26939471440744 357 L 386.2531969309463 357 L 389.23699914748505 359.1 L 392.2208013640238 359.1 L 395.2046035805626 351.1 L 398.18840579710144 351.1 L 401.1722080136402 334.7 L 404.156010230179 334.7 L 407.13981244671777 351.8 L 410.12361466325655 351.8 L 413.1074168797954 395.7 L 416.09121909633416 395.7 L 419.07502131287293 397.1 L 422.0588235294117 397.1 L 425.04262574595055 379.3 L 428.0264279624893 379.3 L 431.0102301790281 357.9 L 433.9940323955669 357.9 L 436.97783461210565 380.2 L 439.9616368286445 380.2 L 442.94543904518326 430.6 L 445.92924126172204 430.6 L 448.9130434782608 434.7 L 451.8968456947996 434.7 L 454.88064791133843 436.8 L 457.8644501278772 436.8 L 460.848252344416 445.2 L 463.83205456095476 445.2 L 466.8158567774936 460.2 L 469.79965899403237 437.6 L 472.78346121057115 437.6 L 475.7672634271099 420 L 478.7510656436487 420 L 481.73486786018753 433.3 L 484.7186700767263 433.3 L 487.7024722932651 435.4 L 490.68627450980387 435.4 L 493.6700767263427 435 L 496.6538789428815 435 L 499.63768115942025 435.4 L 502.62148337595903 435.4 L 505.6052855924978 369.2 L 508.58908780903664 369.2 L 511.5728900255754 323.2 L 514.5566922421142 362.8 L 517.540494458653 362.8 L 520.5242966751917 359.3 L 523.5080988917306 359.3 L 526.4919011082693 356 L 529.4757033248081 356 L 532.459505541347 344.3 L 535.4433077578857 344.3 L 538.4271099744245 359.7 L 541.4109121909634 359.7 L 544.3947144075021 381 L 547.3785166240409 389 L 550.3623188405796 389 L 553.3461210571185 321.7 L 556.3299232736573 321.7 L 559.313725490196 321.3 L 562.2975277067349 321.3 L 565.2813299232736 393.1 L 568.2651321398124 393.1 L 571.2489343563512 462.7 L 574.23273657289 462.7 L 577.2165387894288 468.4 L 580.2003410059675 468.4 L 583.1841432225063 465.3 L 586.1679454390452 465.3 L 589.1517476555839 416.3 L 592.1355498721227 416.3 L 595.1193520886615 397.7 L 598.1031543052003 397.7 L 601.0869565217391 403.3 L 604.0707587382778 403.3 L 607.0545609548167 355.3 L 610.0383631713555 355.3 L 613.0221653878942 212.3 L 616.0059676044331 212.3 L 618.9897698209718 196.2 L 621.9735720375106 196.2 L 624.9573742540495 374.3 L 627.9411764705882 374.3 L 630.924978687127 463.7 L 633.9087809036657 463.7 L 636.8925831202046 445.4 L 639.8763853367434 445.4 L 642.8601875532821 441.8 L 645.843989769821 441.8 L 648.8277919863597 491.1 L 651.8115942028985 491.1 L 654.7953964194373 467.1 L 657.7791986359761 467.1 L 660.7630008525149 467.8 L 663.7468030690537 467.8 L 666.7306052855924 464.5 L 669.7144075021313 464.5 L 672.69820971867 468.8 L 675.6820119352088 468.8 L 678.6658141517477 507.1 L 681.6496163682864 507.1 L 684.6334185848252 496.9 L 687.6172208013639 496.9 L 690.6010230179028 472.6 L 693.5848252344416 472.6 L 696.5686274509803 469.3 L 699.5524296675192 469.3 L 702.5362318840579 469.7 L 705.5200341005967 470.8 L 708.5038363171356 470.8 L 711.4876385336743 470.6 L 714.4714407502131 470.6 L 717.4552429667518 459.2 L 720.4390451832907 459.2 L 723.4228473998295 471.7 L 726.4066496163682 471.7 L 729.390451832907 481.4 L 732.3742540494459 481.4 L 735.3580562659846 462.5 L 738.3418584825234 462.5 L 741.3256606990622 462.5 L 744.309462915601 462.5 L 747.2932651321398 469.7 L 750.2770673486785 469.7 L 753.2608695652174 469.9 L 756.2446717817561 469.9 L 759.2284739982949 470.9 L 762.2122762148338 470.9 L 765.1960784313725 468.2 L 768.1798806479113 468.2 L 771.16368286445 478.2 L 774.1474850809889 478.2 L 777.1312872975277 498.8 L 780.1150895140664 498.8 L 783.0988917306053 489.9 L 786.082693947144 489.9 L 789.0664961636828 472 L 792.0502983802216 472 L 795.0341005967604 469 L 798.0179028132992 469 L 801.001705029838 445.7 L 803.9855072463768 445.7 L 806.9693094629156 467 L 809.9531116794543 486.7 L 812.9369138959931 484.7 L 815.920716112532 484.7 L 818.9045183290707 457.3 L 821.8883205456095 457.3 L 824.8721227621483 464.4 L 827.8559249786871 464.4 L 830.8397271952259 469.5 L 833.8235294117646 469.5 L 836.8073316283035 470.7 L 839.7911338448422 470.7 L 842.774936061381 470.7 L 845.7587382779199 470.7 L 848.7425404944586 472 L 851.7263427109974 472 L 854.7101449275362 495.9 L 857.693947144075 495.9 L 860.6777493606138 508.9 L 863.6615515771525 508.9 L 866.6453537936914 489.5 L 869.6291560102302 489.5 L 872.6129582267689 469.1 L 875.5967604433077 469.1 L 878.5805626598465 465.8 L 881.5643648763853 465.8 L 884.5481670929241 465.3 L 887.5319693094629 465.3 L 890.5157715260017 466.4 L 893.4995737425404 466.4 L 896.4833759590792 468.8 L 899.4671781756181 468.8 L 902.4509803921568 465.2 L 905.4347826086956 465.2 L 908.4185848252343 489 L 911.4023870417732 489 L 914.386189258312 485 L 917.3699914748507 485 L 920.3537936913896 458.2 L 923.3375959079284 458.2 L 926.3213981244671 450.8 L 929.305200341006 450.8 L 932.2890025575447 458.6 L 935.2728047740835 458.6 L 938.2566069906223 470.2 L 941.2404092071611 470.8 L 944.2242114236999 470.8 L 947.2080136402386 474 L 950.1918158567775 474 L 953.1756180733163 444.3 L 956.159420289855 444.3 L 959.1432225063938 392.3 L 962.1270247229326 392.3 L 965.1108269394714 432.1 L 968.0946291560102 432.1 L 971.078431372549 467.5 L 974.0622335890878 466.9 L 977.0460358056265 466.9 L 980.0298380221653 470 L 983.0136402387042 470 L 985.9974424552429 469.2 L 988.9812446717817 469.2 L 991.9650468883206 467.6 L 994.9488491048593 467.6 L 997.9326513213981 490.5 L 1000.9164535379368 490.5 L 1003.9002557544757 480.6 L 1006.8840579710145 480.6 L 1009.8678601875532 457.1 L 1012.851662404092 457.1 L 1015.8354646206308 466.7 L 1018.8192668371696 466.7 L 1021.8030690537084 469.7 L 1024.7868712702473 469.7 L 1027.7706734867859 470.8 L 1030.7544757033247 470.8 L 1033.7382779198635 470.7 L 1036.7220801364024 470.7 L 1039.7058823529412 476.1 L 1049.7058823529412 476.1" class="highcharts-tracker highcharts-tracker" stroke-linejoin="round" visibility="visible" stroke-opacity="0.0001" stroke="rgb(192,192,192)" stroke-width="21" zIndex="2" style=""></path></g></g><g class="highcharts-axis-labels" zIndex="7"><text x="70.29411764705883" y="586" style="font-family:&quot;Lucida Grande&quot;, &quot;Lucida Sans Unicode&quot;, Verdana, Arial, Helvetica, sans-serif;font-size:11px;color:#666;cursor:default;line-height:14px;fill:#666;" text-anchor="middle" opacity="1"><tspan x="70.29411764705883">0</tspan></text><text x="219.48422847399831" y="586" style="font-family:&quot;Lucida Grande&quot;, &quot;Lucida Sans Unicode&quot;, Verdana, Arial, Helvetica, sans-serif;font-size:11px;color:#666;cursor:default;line-height:14px;fill:#666;" text-anchor="middle" opacity="1"><tspan x="219.48422847399831">50</tspan></text><text x="368.6743393009378" y="586" style="font-family:&quot;Lucida Grande&quot;, &quot;Lucida Sans Unicode&quot;, Verdana, Arial, Helvetica, sans-serif;font-size:11px;color:#666;cursor:default;line-height:14px;fill:#666;" text-anchor="middle" opacity="1"><tspan x="368.6743393009378">100</tspan></text><text x="517.8644501278773" y="586" style="font-family:&quot;Lucida Grande&quot;, &quot;Lucida Sans Unicode&quot;, Verdana, Arial, Helvetica, sans-serif;font-size:11px;color:#666;cursor:default;line-height:14px;fill:#666;" text-anchor="middle" opacity="1"><tspan x="517.8644501278773">150</tspan></text><text x="667.0545609548167" y="586" style="font-family:&quot;Lucida Grande&quot;, &quot;Lucida Sans Unicode&quot;, Verdana, Arial, Helvetica, sans-serif;font-size:11px;color:#666;cursor:default;line-height:14px;fill:#666;" text-anchor="middle" opacity="1"><tspan x="667.0545609548167">200</tspan></text><text x="816.2446717817561" y="586" style="font-family:&quot;Lucida Grande&quot;, &quot;Lucida Sans Unicode&quot;, Verdana, Arial, Helvetica, sans-serif;font-size:11px;color:#666;cursor:default;line-height:14px;fill:#666;" text-anchor="middle" opacity="1"><tspan x="816.2446717817561">250</tspan></text><text x="965.4347826086956" y="586" style="font-family:&quot;Lucida Grande&quot;, &quot;Lucida Sans Unicode&quot;, Verdana, Arial, Helvetica, sans-serif;font-size:11px;color:#666;cursor:default;line-height:14px;fill:#666;" text-anchor="middle" opacity="1"><tspan x="965.4347826086956">300</tspan></text><text x="144.88917306052855" y="586" style="font-family:&quot;Lucida Grande&quot;, &quot;Lucida Sans Unicode&quot;, Verdana, Arial, Helvetica, sans-serif;font-size:11px;color:#666;cursor:default;line-height:14px;fill:#666;" text-anchor="middle" opacity="1"><tspan x="144.88917306052855">25</tspan></text><text x="294.079283887468" y="586" style="font-family:&quot;Lucida Grande&quot;, &quot;Lucida Sans Unicode&quot;, Verdana, Arial, Helvetica, sans-serif;font-size:11px;color:#666;cursor:default;line-height:14px;fill:#666;" text-anchor="middle" opacity="1"><tspan x="294.079283887468">75</tspan></text><text x="443.26939471440744" y="586" style="font-family:&quot;Lucida Grande&quot;, &quot;Lucida Sans Unicode&quot;, Verdana, Arial, Helvetica, sans-serif;font-size:11px;color:#666;cursor:default;line-height:14px;fill:#666;" text-anchor="middle" opacity="1"><tspan x="443.26939471440744">125</tspan></text><text x="592.459505541347" y="586" style="font-family:&quot;Lucida Grande&quot;, &quot;Lucida Sans Unicode&quot;, Verdana, Arial, Helvetica, sans-serif;font-size:11px;color:#666;cursor:default;line-height:14px;fill:#666;" text-anchor="middle" opacity="1"><tspan x="592.459505541347">175</tspan></text><text x="741.6496163682864" y="586" style="font-family:&quot;Lucida Grande&quot;, &quot;Lucida Sans Unicode&quot;, Verdana, Arial, Helvetica, sans-serif;font-size:11px;color:#666;cursor:default;line-height:14px;fill:#666;" text-anchor="middle" opacity="1"><tspan x="741.6496163682864">225</tspan></text><text x="890.8397271952259" y="586" style="font-family:&quot;Lucida Grande&quot;, &quot;Lucida Sans Unicode&quot;, Verdana, Arial, Helvetica, sans-serif;font-size:11px;color:#666;cursor:default;line-height:14px;fill:#666;" text-anchor="middle" opacity="1"><tspan x="890.8397271952259">275</tspan></text><text x="1040.0298380221652" y="586" style="font-family:&quot;Lucida Grande&quot;, &quot;Lucida Sans Unicode&quot;, Verdana, Arial, Helvetica, sans-serif;font-size:11px;color:#666;cursor:default;line-height:14px;fill:#666;" text-anchor="middle" opacity="1"><tspan x="1040.0298380221652">325</tspan></text></g><g class="highcharts-axis-labels" zIndex="7"><text x="52" y="578.115625" style="font-family:&quot;Lucida Grande&quot;, &quot;Lucida Sans Unicode&quot;, Verdana, Arial, Helvetica, sans-serif;font-size:11px;width:505px;color:#666;cursor:default;line-height:14px;fill:#666;" text-anchor="end" opacity="1"><tspan x="52">0</tspan></text><text x="52" y="507.865625" style="font-family:&quot;Lucida Grande&quot;, &quot;Lucida Sans Unicode&quot;, Verdana, Arial, Helvetica, sans-serif;font-size:11px;width:505px;color:#666;cursor:default;line-height:14px;fill:#666;" text-anchor="end" opacity="1"><tspan x="52">0.1</tspan></text><text x="52" y="437.615625" style="font-family:&quot;Lucida Grande&quot;, &quot;Lucida Sans Unicode&quot;, Verdana, Arial, Helvetica, sans-serif;font-size:11px;width:505px;color:#666;cursor:default;line-height:14px;fill:#666;" text-anchor="end" opacity="1"><tspan x="52">0.2</tspan></text><text x="52" y="367.365625" style="font-family:&quot;Lucida Grande&quot;, &quot;Lucida Sans Unicode&quot;, Verdana, Arial, Helvetica, sans-serif;font-size:11px;width:505px;color:#666;cursor:default;line-height:14px;fill:#666;" text-anchor="end" opacity="1"><tspan x="52">0.3</tspan></text><text x="52" y="297.115625" style="font-family:&quot;Lucida Grande&quot;, &quot;Lucida Sans Unicode&quot;, Verdana, Arial, Helvetica, sans-serif;font-size:11px;width:505px;color:#666;cursor:default;line-height:14px;fill:#666;" text-anchor="end" opacity="1"><tspan x="52">0.4</tspan></text><text x="52" y="226.865625" style="font-family:&quot;Lucida Grande&quot;, &quot;Lucida Sans Unicode&quot;, Verdana, Arial, Helvetica, sans-serif;font-size:11px;width:505px;color:#666;cursor:default;line-height:14px;fill:#666;" text-anchor="end" opacity="1"><tspan x="52">0.5</tspan></text><text x="52" y="156.615625" style="font-family:&quot;Lucida Grande&quot;, &quot;Lucida Sans Unicode&quot;, Verdana, Arial, Helvetica, sans-serif;font-size:11px;width:505px;color:#666;cursor:default;line-height:14px;fill:#666;" text-anchor="end" opacity="1"><tspan x="52">0.6</tspan></text><text x="52" y="86.36562500000005" style="font-family:&quot;Lucida Grande&quot;, &quot;Lucida Sans Unicode&quot;, Verdana, Arial, Helvetica, sans-serif;font-size:11px;width:505px;color:#666;cursor:default;line-height:14px;fill:#666;" text-anchor="end" opacity="1"><tspan x="52">0.7</tspan></text><text x="52" y="16.115625" style="font-family:&quot;Lucida Grande&quot;, &quot;Lucida Sans Unicode&quot;, Verdana, Arial, Helvetica, sans-serif;font-size:11px;width:505px;color:#666;cursor:default;line-height:14px;fill:#666;" text-anchor="end" opacity="1"><tspan x="52">0.8</tspan></text></g><g class="highcharts-tooltip" zIndex="8" style="cursor:default;padding:0;white-space:nowrap;" visibility="hidden" transform="translate(82,455)" opacity="0"><rect rx="3" ry="3" fill="none" x="0.5" y="0.5" width="314" height="44.203125" fill-opacity="0.85" isShadow="true" stroke="black" stroke-opacity="0.049999999999999996" stroke-width="5" transform="translate(1, 1)"></rect><rect rx="3" ry="3" fill="none" x="0.5" y="0.5" width="314" height="44.203125" fill-opacity="0.85" isShadow="true" stroke="black" stroke-opacity="0.09999999999999999" stroke-width="3" transform="translate(1, 1)"></rect><rect rx="3" ry="3" fill="none" x="0.5" y="0.5" width="314" height="44.203125" fill-opacity="0.85" isShadow="true" stroke="black" stroke-opacity="0.15" stroke-width="1" transform="translate(1, 1)"></rect><rect rx="3" ry="3" fill="rgb(255,255,255)" x="0.5" y="0.5" width="314" height="44.203125" fill-opacity="0.85" stroke="#c42525" stroke-width="1" anchorX="-11.5" anchorY="29"></rect><text x="8" y="21" style="font-family:&quot;Lucida Grande&quot;, &quot;Lucida Sans Unicode&quot;, Verdana, Arial, Helvetica, sans-serif;font-size:12px;color:#333333;fill:#333333;" zIndex="1"><tspan style="font-size: 10px" x="8">0</tspan><tspan style="fill:#c42525" x="8" dy="16">exp12 clear removeChild</tspan><tspan dx="0">: </tspan><tspan style="font-weight:bold" dx="0">0.12530708781567101</tspan></text></g><text x="1110" y="595" style="font-family:&quot;Lucida Grande&quot;, &quot;Lucida Sans Unicode&quot;, Verdana, Arial, Helvetica, sans-serif;font-size:9px;cursor:pointer;color:#909090;fill:#909090;" text-anchor="end" zIndex="8"><tspan x="1110">Highcharts.com</tspan></text></svg>