<svg xmlns="http://www.w3.org/2000/svg" version="1.1" width="1120" height="400"><desc>Created with Highcharts 3.0.2</desc><defs><clipPath id="highcharts-1"><rect fill="none" x="0" y="0" width="1050" height="361"></rect></clipPath></defs><rect rx="5" ry="5" fill="#FFFFFF" x="0" y="0" width="1120" height="400"></rect><g class="highcharts-grid" zIndex="1"></g><g class="highcharts-grid" zIndex="1"><path fill="none" d="M 60 312.5 L 1110 312.5" stroke="#C0C0C0" stroke-width="1" zIndex="1" opacity="1"></path><path fill="none" d="M 60 251.5 L 1110 251.5" stroke="#C0C0C0" stroke-width="1" zIndex="1" opacity="1"></path><path fill="none" d="M 60 191.5 L 1110 191.5" stroke="#C0C0C0" stroke-width="1" zIndex="1" opacity="1"></path><path fill="none" d="M 60 131.5 L 1110 131.5" stroke="#C0C0C0" stroke-width="1" zIndex="1" opacity="1"></path><path fill="none" d="M 60 70.5 L 1110 70.5" stroke="#C0C0C0" stroke-width="1" zIndex="1" opacity="1"></path><path fill="none" d="M 60 10.5 L 1110 10.5" stroke="#C0C0C0" stroke-width="1" zIndex="1" opacity="1"></path><path fill="none" d="M 60 371.5 L 1110 371.5" stroke="#C0C0C0" stroke-width="1" zIndex="1" opacity="1"></path></g><g class="highcharts-axis" zIndex="2"><path fill="none" d="M 133.5 372 L 133.5 377" stroke="#C0D0E0" stroke-width="1" opacity="1"></path><path fill="none" d="M 197.5 372 L 197.5 377" stroke="#C0D0E0" stroke-width="1" opacity="1"></path><path fill="none" d="M 261.5 372 L 261.5 377" stroke="#C0D0E0" stroke-width="1" opacity="1"></path><path fill="none" d="M 326.5 372 L 326.5 377" stroke="#C0D0E0" stroke-width="1" opacity="1"></path><path fill="none" d="M 390.5 372 L 390.5 377" stroke="#C0D0E0" stroke-width="1" opacity="1"></path><path fill="none" d="M 454.5 372 L 454.5 377" stroke="#C0D0E0" stroke-width="1" opacity="1"></path><path fill="none" d="M 518.5 372 L 518.5 377" stroke="#C0D0E0" stroke-width="1" opacity="1"></path><path fill="none" d="M 582.5 372 L 582.5 377" stroke="#C0D0E0" stroke-width="1" opacity="1"></path><path fill="none" d="M 646.5 372 L 646.5 377" stroke="#C0D0E0" stroke-width="1" opacity="1"></path><path fill="none" d="M 710.5 372 L 710.5 377" stroke="#C0D0E0" stroke-width="1" opacity="1"></path><path fill="none" d="M 774.5 372 L 774.5 377" stroke="#C0D0E0" stroke-width="1" opacity="1"></path><path fill="none" d="M 838.5 372 L 838.5 377" stroke="#C0D0E0" stroke-width="1" opacity="1"></path><path fill="none" d="M 902.5 372 L 902.5 377" stroke="#C0D0E0" stroke-width="1" opacity="1"></path><path fill="none" d="M 966.5 372 L 966.5 377" stroke="#C0D0E0" stroke-width="1" opacity="1"></path><path fill="none" d="M 1030.5 372 L 1030.5 377" stroke="#C0D0E0" stroke-width="1" opacity="1"></path><path fill="none" d="M 1094.5 372 L 1094.5 377" stroke="#C0D0E0" stroke-width="1" opacity="1"></path><path fill="none" d="M 69.5 372 L 69.5 377" stroke="#C0D0E0" stroke-width="1" opacity="1"></path><path fill="none" d="M 60 371.5 L 1110 371.5" stroke="#C0D0E0" stroke-width="1" zIndex="7" visibility="visible"></path></g><g class="highcharts-axis" zIndex="2"><text x="24.59375" y="191" style="font-family:&quot;Lucida Grande&quot;, &quot;Lucida Sans Unicode&quot;, Verdana, Arial, Helvetica, sans-serif;font-size:12px;color:#4d759e;font-weight:bold;fill:#4d759e;" zIndex="7" text-anchor="middle" transform="translate(0,0) rotate(270 24.59375 191)" visibility="visible"><tspan x="24.59375">Amperage</tspan></text></g><g class="highcharts-series-group" zIndex="3"><g class="highcharts-series" visibility="visible" zIndex="0.1" transform="translate(60,10) scale(1 1)" clip-path="url(#highcharts-1)"><path fill="none" d="M 10.294117647058824 300.7 L 10.934697463303928 289.2 L 11.575277279549033 289.2 L 12.215857095794137 289.6 L 12.856436912039241 289 L 13.497016728284345 289 L 14.13759654452945 288.6 L 14.778176360774554 288.6 L 15.418756177019658 288.1 L 16.059335993264764 288.1 L 16.699915809509868 290.4 L 17.340495625754972 290.4 L 17.981075442000076 302.7 L 18.62165525824518 302.7 L 19.262235074490285 295 L 19.90281489073539 295 L 20.543394706980493 278.8 L 21.183974523225597 278.8 L 21.8245543394707 251.8 L 22.465134155715806 251.8 L 23.10571397196091 248.3 L 23.746293788206014 248.3 L 24.386873604451118 286.2 L 25.027453420696222 286.2 L 25.668033236941326 296.6 L 26.30861305318643 296.6 L 26.949192869431535 316.9 L 27.58977268567664 316.9 L 28.230352501921743 313.4 L 28.870932318166847 313.4 L 29.51151213441195 291.8 L 30.152091950657056 291.8 L 30.79267176690216 286.2 L 31.433251583147264 286.2 L 32.07383139939237 287.5 L 32.71441121563747 287.5 L 33.35499103188258 288.6 L 33.99557084812768 289.2 L 34.636150664372785 289.2 L 35.276730480617886 287.8 L 35.91731029686299 287.8 L 36.557890113108094 292.9 L 37.1984699293532 292.9 L 37.8390497455983 303.3 L 38.47962956184341 303.3 L 39.12020937808851 289.1 L 39.76078919433362 289.1 L 40.40136901057872 242.3 L 41.04194882682382 242.3 L 41.68252864306893 217.6 L 42.32310845931403 217.6 L 42.963688275559136 268.5 L 43.60426809180424 268.5 L 44.244847908049344 287.4 L 44.885427724294445 287.4 L 45.52600754053955 288.3 L 46.16658735678465 288.3 L 46.80716717302976 299.6 L 47.44774698927486 299.6 L 48.08832680551997 317.3 L 48.72890662176507 317.3 L 49.36948643801018 314.3 L 50.01006625425528 314.3 L 50.650646070500386 295 L 51.29122588674549 295 L 51.931805702990594 290.4 L 52.572385519235695 290.4 L 53.2129653354808 287.4 L 53.8535451517259 287.4 L 54.49412496797101 294.8 L 55.13470478421611 294.8 L 55.77528460046122 302.7 L 56.41586441670632 302.7 L 57.05644423295143 287 L 57.69702404919653 287 L 58.337603865441636 280.9 L 58.97818368168674 280.9 L 59.618763497931845 289.7 L 60.259343314176945 289.7 L 60.89992313042205 288.6 L 61.540502946667154 288.6 L 62.18108276291226 289.4 L 62.82166257915736 289.4 L 63.46224239540247 288.9 L 64.10282221164758 288.9 L 64.74340202789267 303.6 L 65.38398184413778 318 L 66.02456166038289 318 L 66.665141476628 311.1 L 67.30572129287309 311.1 L 67.9463011091182 292.9 L 68.5868809253633 292.9 L 69.22746074160841 289.5 L 69.8680405578535 289.5 L 70.50862037409861 290 L 71.14920019034372 290 L 71.78978000658883 288.6 L 72.43035982283392 288.6 L 73.07093963907903 289.1 L 73.71151945532414 289.1 L 74.35209927156924 287.1 L 74.99267908781434 287.1 L 75.63325890405945 296.2 L 76.27383872030455 296.2 L 76.91441853654966 302.7 L 77.55499835279475 302.7 L 78.19557816903986 284.3 L 78.83615798528497 284.3 L 79.47673780153008 281.9 L 80.11731761777517 281.9 L 80.75789743402028 249.7 L 81.39847725026539 249.7 L 82.0390570665105 246.2 L 82.67963688275559 246.2 L 83.3202166990007 281.7 L 83.9607965152458 281.7 L 84.60137633149091 235.7 L 85.241956147736 235.7 L 85.88253596398111 152.9 L 86.52311578022622 152.9 L 87.16369559647133 133.1 L 87.80427541271642 133.1 L 88.44485522896153 128.4 L 89.08543504520664 128.4 L 89.72601486145174 151.4 L 90.36659467769684 151.4 L 91.00717449394195 236.2 L 91.64775431018705 236.2 L 92.28833412643216 178.9 L 92.92891394267726 178.9 L 93.56949375892236 147.5 L 94.21007357516747 147.5 L 94.85065339141258 150.4 L 95.49123320765767 150.4 L 96.13181302390278 128.8 L 96.77239284014789 128.8 L 97.412972656393 149.5 L 98.05355247263809 149.5 L 98.6941322888832 164.6 L 99.3347121051283 164.6 L 99.97529192137341 149.5 L 100.6158717376185 149.5 L 101.25645155386361 140 L 101.89703137010872 140 L 102.53761118635383 142.4 L 103.17819100259892 142.4 L 103.81877081884403 201.9 L 104.45935063508914 234.6 L 105.09993045133425 234.6 L 105.74051026757934 218.8 L 106.38109008382445 218.8 L 107.02166990006955 156.1 L 107.66224971631466 156.1 L 108.30282953255976 127.1 L 108.94340934880486 127.1 L 109.58398916504997 134.7 L 110.22456898129508 134.7 L 110.86514879754017 128.1 L 111.50572861378528 128.1 L 112.14630843003039 126.7 L 112.7868882462755 126.7 L 113.42746806252059 130.9 L 114.0680478787657 130.9 L 114.7086276950108 150.8 L 115.34920751125591 150.8 L 115.989787327501 123.1 L 116.63036714374611 124.2 L 117.27094695999122 124.2 L 117.91152677623633 127 L 118.55210659248142 127 L 119.19268640872653 130.6 L 119.83326622497164 130.6 L 120.47384604121675 130.5 L 121.11442585746184 130.5 L 121.75500567370695 155.7 L 122.39558548995205 155.7 L 123.03616530619716 223.8 L 123.67674512244226 223.8 L 124.31732493868736 233 L 124.95790475493247 233 L 125.59848457117758 216.3 L 126.23906438742267 216.3 L 126.87964420366778 199.3 L 127.52022401991289 199.3 L 128.16080383615798 204.3 L 128.8013836524031 204.3 L 129.4419634686482 206.3 L 130.0825432848933 206.3 L 130.7231231011384 207.8 L 131.3637029173835 207.8 L 132.00428273362863 206.9 L 132.64486254987372 206.9 L 133.28544236611882 172 L 133.92602218236394 172 L 134.56660199860903 51.4 L 135.20718181485412 51.4 L 135.84776163109925 26.8 L 136.48834144734434 26.8 L 137.12892126358946 26.8 L 137.76950107983455 26.8 L 138.41008089607965 27.9 L 139.05066071232477 27.9 L 139.69124052856986 27.1 L 140.33182034481496 27.1 L 140.97240016106008 27.4 L 141.61297997730517 27.4 L 142.2535597935503 33.4 L 142.8941396097954 164.2 L 143.53471942604048 164.2 L 144.1752992422856 297.4 L 144.8158790585307 297.4 L 145.4564588747758 289.2 L 146.0970386910209 289.2 L 146.737618507266 283.9 L 147.37819832351113 281.7 L 148.01877813975622 282 L 148.65935795600132 282 L 149.29993777224644 282.8 L 149.94051758849153 282.8 L 150.58109740473662 287.9 L 151.22167722098175 287.9 L 151.86225703722684 301.2 L 152.50283685347196 301.2 L 153.14341666971706 289.2 L 153.78399648596215 289.2 L 154.42457630220727 270.4 L 155.06515611845236 270.4 L 155.70573593469746 276 L 156.34631575094258 276 L 156.98689556718767 242.7 L 157.6274753834328 242.7 L 158.2680551996779 270 L 158.90863501592298 270 L 159.5492148321681 274.7 L 160.1897946484132 274.7 L 160.8303744646583 290.4 L 161.4709542809034 290.4 L 162.1115340971485 313.6 L 162.75211391339363 313.6 L 163.39269372963872 313 L 164.03327354588382 313 L 164.67385336212894 290.6 L 165.31443317837403 290.6 L 165.95501299461912 281.1 L 166.59559281086425 281.1 L 167.23617262710934 282.6 L 167.87675244335446 282.6 L 168.51733225959956 282.4 L 169.15791207584465 282.4 L 169.79849189208977 282.4 L 170.43907170833486 282.4 L 171.07965152457996 282.3 L 171.72023134082508 282.3 L 172.36081115707017 289.8 L 173.0013909733153 289.8 L 173.6419707895604 301.4 L 174.28255060580548 301.4 L 174.9231304220506 286.2 L 175.5637102382957 272.1 L 176.2042900545408 272.1 L 176.8448698707859 280.5 L 177.485449687031 280.5 L 178.12602950327613 281.8 L 178.76660931952122 297.4 L 179.40718913576632 315.7 L 180.04776895201144 315.7 L 180.68834876825653 311.2 L 181.32892858450163 311.2 L 181.96950840074675 286.2 L 182.61008821699184 286.2 L 183.25066803323696 282.5 L 183.89124784948206 282.5 L 184.53182766572715 281.8 L 185.17240748197227 281.8 L 185.81298729821737 282.4 L 186.45356711446246 282.4 L 187.09414693070758 282.2 L 187.73472674695267 282.2 L 188.3753065631978 283.2 L 189.0158863794429 283.2 L 189.65646619568798 291.8 L 190.2970460119331 291.8 L 190.9376258281782 302 L 191.5782056444233 302 L 192.2187854606684 280.1 L 192.8593652769135 280.1 L 193.49994509315863 221.1 L 194.14052490940372 221.1 L 194.78110472564882 247.2 L 195.42168454189394 247.2 L 196.06226435813903 283.1 L 196.70284417438413 283.1 L 197.34342399062925 282.8 L 197.98400380687434 282.8 L 198.62458362311946 279.8 L 199.26516343936456 279.8 L 199.90574325560965 284.2 L 200.54632307185477 284.2 L 201.18690288809987 313.5 L 201.82748270434496 313.5 L 202.46806252059008 307.3 L 203.10864233683517 307.3 L 203.7492221530803 282.1 L 204.3898019693254 282.1 L 205.03038178557048 277.6 L 205.6709616018156 278.1 L 206.3115414180607 278.1 L 206.9521212343058 279.3 L 207.59270105055091 279.3 L 208.233280866796 279.2 L 208.87386068304113 279.2 L 209.51444049928622 279.6 L 210.15502031553132 264.9 L 210.79560013177644 262.1 L 211.43617994802153 262.1 L 212.07675976426663 274 L 212.71733958051175 274 L 213.35791939675684 276.2 L 213.99849921300196 276.2 L 214.63907902924706 285.2 L 215.27965884549215 285.2 L 215.92023866173727 287.8 L 216.56081847798237 287.8 L 217.20139829422746 306.1 L 217.84197811047258 306.1 L 218.48255792671767 316.8 L 219.1231377429628 316.8 L 219.7637175592079 307 L 220.40429737545298 307 L 221.0448771916981 290.3 L 221.6854570079432 290.3 L 222.3260368241883 289.6 L 222.96661664043341 289.6 L 223.6071964566785 288.8 L 224.24777627292363 288.8 L 224.88835608916872 278 L 225.52893590541382 278 L 226.16951572165894 234.5 L 226.81009553790403 234.5 L 227.45067535414913 277.4 L 228.09125517039425 277.4 L 228.73183498663934 297.9 L 229.37241480288446 297.9 L 230.01299461912956 299.2 L 230.65357443537465 299.2 L 231.29415425161977 278.5 L 231.93473406786487 278.5 L 232.57531388410996 281.6 L 233.21589370035508 281.6 L 233.85647351660018 288.5 L 234.4970533328453 288.5 L 235.1376331490904 289.4 L 235.77821296533548 289.4 L 236.4187927815806 288.3 L 237.0593725978257 290.4 L 237.6999524140708 290.4 L 238.34053223031592 309.6 L 238.981112046561 309.6 L 239.62169186280613 316.1 L 240.26227167905122 316.1 L 240.90285149529632 303.7 L 241.54343131154144 287 L 242.18401112778653 289.7 L 242.82459094403163 289.7 L 243.46517076027675 288.9 L 244.10575057652184 288.9 L 244.74633039276696 288 L 245.38691020901206 288 L 246.02749002525715 288.5 L 246.66806984150227 288.5 L 247.30864965774737 287.5 L 247.94922947399246 287.5 L 248.58980929023758 299.2 L 249.23038910648268 296.3 L 249.8709689227278 296.3 L 250.5115487389729 228.7 L 251.15212855521798 228.7 L 251.7927083714631 239.9 L 252.4332881877082 239.9 L 253.0738680039533 286.6 L 253.71444782019842 286.6 L 254.3550276364435 266.5 L 254.99560745268863 266.5 L 255.63618726893372 278.8 L 256.27676708517885 278.8 L 256.9173469014239 288.5 L 257.55792671766903 288.5 L 258.19850653391416 309.8 L 258.8390863501592 309.8 L 259.47966616640434 281.8 L 260.12024598264946 281.8 L 260.76082579889453 115.7 L 261.40140561513965 115.7 L 262.0419854313848 87.4 L 262.6825652476299 87.4 L 263.32314506387496 93.6 L 263.9637248801201 93.6 L 264.6043046963652 106.1 L 265.24488451261027 106.1 L 265.8854643288554 95.8 L 266.5260441451005 95.8 L 267.1666239613456 42.4 L 267.8072037775907 42.4 L 268.4477835938358 28.3 L 269.0883634100809 28.3 L 269.728943226326 61.1 L 270.36952304257113 61.1 L 271.0101028588162 134.6 L 271.6506826750613 134.6 L 272.29126249130644 242.6 L 272.93184230755156 279.6 L 273.5724221237966 276.7 L 274.21300194004175 276.7 L 274.85358175628687 245.1 L 275.49416157253194 275.7 L 276.13474138877706 275.7 L 276.7753212050222 232.5 L 277.41590102126725 232.5 L 278.05648083751237 260.5 L 278.6970606537575 260.5 L 279.33764047000255 310.8 L 279.9782202862477 310.8 L 280.6188001024928 288 L 281.25937991873786 288 L 281.899959734983 282 L 282.5405395512281 282 L 283.18111936747323 281.7 L 283.8216991837183 281.7 L 284.4622789999634 282.5 L 285.10285881620854 282.5 L 285.7434386324536 268.8 L 286.3840184486987 268.8 L 287.02459826494385 266.1 L 287.6651780811889 266.1 L 288.30575789743403 266.2 L 288.94633771367916 266.2 L 289.5869175299242 299.5 L 290.22749734616934 299.5 L 290.86807716241447 282 L 291.50865697865953 282 L 292.14923679490465 267.1 L 292.7898166111498 267.1 L 293.4303964273949 276.5 L 294.07097624363996 276.5 L 294.7115560598851 279.3 L 295.3521358761302 279.3 L 295.99271569237527 278.6 L 296.6332955086204 278.6 L 297.2738753248655 279 L 297.9144551411106 279 L 298.5550349573557 263.6 L 299.1956147736008 263.6 L 299.8361945898459 303.6 L 300.476774406091 303.6 L 301.11735422233613 308.1 L 301.7579340385812 308.1 L 302.3985138548263 288.5 L 303.03909367107144 288.5 L 303.67967348731656 287.8 L 304.3202533035616 287.9 L 304.96083311980675 287.9 L 305.6014129360519 286.5 L 306.24199275229694 286.5 L 306.88257256854206 270.1 L 307.5231523847872 270.1 L 308.16373220103225 242.2 L 308.80431201727737 242.2 L 309.4448918335225 252.7 L 310.08547164976756 252.7 L 310.7260514660127 214.8 L 311.3666312822578 214.8 L 312.00721109850286 234.6 L 312.647790914748 234.6 L 313.2883707309931 284.7 L 313.92895054723823 284.7 L 314.5695303634833 288.3 L 315.2101101797284 288.3 L 315.85068999597354 287.3 L 316.4912698122186 287.3 L 317.1318496284637 283.2 L 317.77242944470885 283.2 L 318.4130092609539 268 L 319.05358907719904 268 L 319.69416889344416 308.1 L 320.3347487096892 308.1 L 320.97532852593434 305.5 L 321.61590834217947 305.5 L 322.25648815842453 285.9 L 322.89706797466965 285.9 L 323.5376477909148 286.6 L 324.1782276071599 286.6 L 324.81880742340496 289 L 325.4593872396501 289 L 326.0999670558952 287.8 L 326.74054687214027 287.8 L 327.3811266883854 286.6 L 328.0217065046305 286.6 L 328.66228632087564 272.8 L 329.30286613712076 280.7 L 329.9434459533658 280.7 L 330.58402576961095 299.4 L 331.22460558585607 299.4 L 331.86518540210113 277.4 L 332.50576521834626 277.4 L 333.1463450345914 278.9 L 333.78692485083644 278.9 L 334.42750466708156 288.1 L 335.0680844833267 288.1 L 335.7086642995718 287.7 L 336.3492441158169 287.7 L 336.989823932062 283.1 L 337.6304037483071 283.1 L 338.2709835645522 279 L 338.9115633807973 279 L 339.5521431970424 302.2 L 340.1927230132875 302.2 L 340.8333028295326 305 L 341.47388264577773 305 L 342.1144624620228 279.3 L 342.7550422782679 279.3 L 343.39562209451304 287.4 L 344.0362019107581 287.4 L 344.67678172700323 288.6 L 345.31736154324835 288.2 L 345.9579413594935 288.2 L 346.59852117573854 287 L 347.23910099198366 287 L 347.8796808082288 268.7 L 348.52026062447385 268.7 L 349.16084044071897 285.4 L 349.8014202569641 285.4 L 350.44200007320916 300.9 L 351.0825798894543 300.9 L 351.7231597056994 279 L 352.36373952194447 279 L 353.0043193381896 280 L 353.6448991544347 280 L 354.2854789706798 289.2 L 354.9260587869249 289.2 L 355.56663860317 288 L 356.20721841941514 288 L 356.8477982356602 288.2 L 357.48837805190533 288.2 L 358.12895786815045 280.5 L 358.7695376843955 280.5 L 359.41011750064064 285.3 L 360.05069731688576 285.3 L 360.6912771331308 316.2 L 361.33185694937595 316.2 L 361.97243676562107 305.5 L 362.61301658186613 305.5 L 363.25359639811126 289.5 L 363.8941762143564 289.5 L 364.53475603060144 288.8 L 365.17533584684656 288.8 L 365.8159156630917 289.5 L 366.4564954793368 289.5 L 367.0970752955819 286.4 L 367.737655111827 268.6 L 368.3782349280721 268.6 L 369.0188147443172 291.8 L 369.6593945605623 291.8 L 370.2999743768074 250.1 L 370.9405541930525 250.1 L 371.5811340092976 225.6 L 372.22171382554274 225.6 L 372.8622936417878 278.4 L 373.5028734580329 278.4 L 374.14345327427804 281.1 L 374.7840330905231 281.1 L 375.42461290676823 288.3 L 376.06519272301335 288.3 L 376.7057725392585 287.9 L 377.34635235550354 287.9 L 377.98693217174866 281.6 L 378.6275119879938 281.6 L 379.26809180423885 295.2 L 379.908671620484 295.2 L 380.5492514367291 314.9 L 381.18983125297416 314.9 L 381.8304110692193 225.4 L 382.4709908854644 225.4 L 383.11157070170947 49.2 L 383.7521505179546 49.2 L 384.3927303341997 27.1 L 385.0333101504448 27.1 L 385.6738899666899 26.9 L 386.314469782935 26.9 L 386.95504959918014 26.8 L 387.5956294154252 26.8 L 388.23620923167033 27.7 L 388.87678904791545 27.7 L 389.5173688641605 26.4 L 390.15794868040564 26.4 L 390.79852849665076 27.6 L 391.4391083128958 27.6 L 392.07968812914095 27.1 L 392.72026794538607 27.1 L 393.36084776163113 27.6 L 394.00142757787626 26.8 L 394.6420073941214 26.8 L 395.28258721036644 27.3 L 395.92316702661157 27.3 L 396.5637468428567 27.3 L 397.2043266591018 27.3 L 397.8449064753469 27.1 L 398.485486291592 27.6 L 399.1260661078371 27.1 L 399.7666459240822 27.1 L 400.4072257403273 27.1 L 401.0478055565724 27.1 L 401.6883853728175 64.8 L 402.3289651890626 64.8 L 402.96954500530774 232.2 L 403.6101248215528 232.2 L 404.2507046377979 279.7 L 404.89128445404305 279.7 L 405.5318642702881 268.9 L 406.17244408653323 268.9 L 406.81302390277835 280.9 L 407.4536037190235 280.9 L 408.09418353526854 278.2 L 408.73476335151366 278.2 L 409.3753431677588 255.9 L 410.01592298400385 255.9 L 410.656502800249 211.5 L 411.2970826164941 211.5 L 411.93766243273916 275.8 L 412.5782422489843 275.8 L 413.2188220652294 273.4 L 413.85940188147447 273.4 L 414.4999816977196 282.6 L 415.1405615139647 282.6 L 415.7811413302098 287.1 L 416.4217211464549 287.1 L 417.0623009627 287.4 L 417.70288077894514 287.4 L 418.3434605951902 286.8 L 418.98404041143533 277.2 L 419.62462022768045 277.2 L 420.2652000439255 304 L 420.90577986017064 304 L 421.54635967641576 311.8 L 422.1869394926608 311.8 L 422.82751930890595 288.8 L 423.46809912515107 288.8 L 424.10867894139614 285 L 424.74925875764126 285 L 425.3898385738864 286.7 L 426.03041839013144 286.7 L 426.67099820637657 287.4 L 427.3115780226217 287.4 L 427.9521578388668 287.4 L 428.5927376551119 287.4 L 429.233317471357 280.4 L 429.8738972876021 273.7 L 430.5144771038472 257.5 L 431.1550569200923 257.5 L 431.7956367363374 241.3 L 432.4362165525825 241.3 L 433.0767963688276 270.6 L 433.71737618507274 270.6 L 434.3579560013178 283.9 L 434.9985358175629 283.9 L 435.63911563380805 286.4 L 436.2796954500531 286.4 L 436.92027526629823 286.9 L 437.56085508254336 286.1 L 438.2014348987885 286.1 L 438.84201471503354 278.6 L 439.48259453127866 278.6 L 440.1231743475238 309.4 L 440.76375416376885 309.4 L 441.404333980014 307.6 L 442.0449137962591 307.6 L 442.68549361250416 288.3 L 443.3260734287493 288.3 L 443.9666532449944 287.7 L 444.60723306123947 287.7 L 445.2478128774846 288.5 L 445.8883926937297 288.5 L 446.5289725099748 289.2 L 447.1695523262199 289.2 L 447.810132142465 287.2 L 448.45071195871014 287.2 L 449.0912917749552 276.2 L 449.73187159120033 276.2 L 450.37245140744545 275.4 L 451.0130312236905 275.4 L 451.65361103993564 220.7 L 452.29419085618076 220.7 L 452.9347706724258 162.6 L 453.57535048867095 162.6 L 454.21593030491607 264.2 L 454.85651012116114 264.2 L 455.49708993740626 283.9 L 456.1376697536514 283.9 L 456.77824956989645 286.9 L 457.41882938614157 286.9 L 458.0594092023867 288.5 L 458.6999890186318 288.5 L 459.3405688348769 284.4 L 459.981148651122 284.4 L 460.6217284673671 281.4 L 461.2623082836122 287.3 L 461.9028880998573 288.5 L 462.54346791610243 288.5 L 463.1840477323475 288.9 L 463.8246275485926 288.9 L 464.46520736483774 289 L 465.1057871810828 289 L 465.7463669973279 287.9 L 466.38694681357305 287.9 L 467.0275266298181 273.2 L 467.66810644606323 273.2 L 468.30868626230836 283.9 L 468.9492660785535 283.9 L 469.58984589479854 298 L 470.23042571104367 298 L 470.8710055272888 277 L 471.51158534353385 277 L 472.152165159779 278 L 472.7927449760241 278 L 473.43332479226916 288.5 L 474.0739046085143 288.5 L 474.7144844247594 290 L 475.35506424100447 290 L 475.9956440572496 288.1 L 476.6362238734947 288.1 L 477.2768036897398 283.2 L 477.9173835059849 283.2 L 478.55796332223 285.1 L 479.19854313847515 285.1 L 479.8391229547202 314.4 L 480.47970277096533 314.4 L 481.12028258721045 307.8 L 481.7608624034555 289 L 482.40144221970064 289 L 483.04202203594576 288.3 L 483.6826018521908 288.3 L 484.32318166843595 289.3 L 484.9637614846811 289.3 L 485.60434130092614 288.3 L 486.24492111717126 288.3 L 486.8855009334164 288 L 487.52608074966145 288 L 488.16666056590657 270.3 L 488.8072403821517 270.3 L 489.4478201983968 244.2 L 490.0884000146419 244.2 L 490.728979830887 242.4 L 491.3695596471321 242.4 L 492.0101394633772 277.1 L 492.6507192796223 288.5 L 493.29129909586743 287.9 L 493.9318789121125 287.9 L 494.5724587283576 282 L 495.21303854460274 282 L 495.8536183608478 291.3 L 496.4941981770929 291.3 L 497.13477799333805 313.8 L 497.7753578095831 313.8 L 498.41593762582824 298.4 L 499.05651744207336 298.4 L 499.6970972583185 279.1 L 500.33767707456354 279.1 L 500.97825689080867 284.7 L 501.6188367070538 289.5 L 502.25941652329885 289.5 L 502.899996339544 288.2 L 503.5405761557891 288.2 L 504.18115597203416 284.8 L 504.8217357882793 284.8 L 505.4623156045244 200.8 L 506.10289542076947 200.8 L 506.7434752370146 197.2 L 507.3840550532597 197.2 L 508.0246348695048 292.2 L 508.6652146857499 292.2 L 509.305794501995 265.3 L 509.94637431824015 265.3 L 510.5869541344852 278.6 L 511.22753395073033 278.6 L 511.86811376697545 286.9 L 512.5086935832205 286.9 L 513.1492733994656 289 L 513.7898532157108 289 L 514.4304330319559 288.2 L 515.071012848201 288.2 L 515.711592664446 279.9 L 516.3521724806911 279.9 L 516.9927522969363 294.6 L 517.6333321131814 294.6 L 518.2739119294265 313.7 L 518.9144917456716 313.7 L 519.5550715619166 295.9 L 520.1956513781618 295.9 L 520.8362311944069 286.6 L 521.476811010652 286.6 L 522.1173908268971 283.4 L 522.7579706431422 283.4 L 523.3985504593873 157.8 L 524.0391302756324 152.8 L 524.6797100918775 152.8 L 525.3202899081226 254.3 L 525.9608697243677 254.3 L 526.6014495406129 290 L 527.242029356858 290 L 527.882609173103 283.2 L 528.5231889893481 283.2 L 529.1637688055932 268.8 L 529.8043486218384 268.8 L 530.4449284380835 275.5 L 531.0855082543286 275.5 L 531.7260880705736 281.3 L 532.3666678868187 281.3 L 533.0072477030639 283.5 L 533.647827519309 283.5 L 534.2884073355541 287.8 L 534.9289871517992 287.8 L 535.5695669680443 275.1 L 536.2101467842893 275.1 L 536.8507266005345 295.8 L 537.4913064167796 295.8 L 538.1318862330247 312.5 L 538.7724660492698 312.5 L 539.413045865515 292.3 L 540.05362568176 292.3 L 540.6942054980051 286.2 L 541.3347853142502 286.2 L 541.9753651304953 287.8 L 542.6159449467405 287.8 L 543.2565247629856 287.8 L 543.8971045792306 287.8 L 544.5376843954757 288.1 L 545.1782642117208 288.1 L 545.818844027966 285 L 546.4594238442111 285 L 547.1000036604562 236.3 L 547.7405834767013 236.3 L 548.3811632929463 240.1 L 549.0217431091914 240.1 L 549.6623229254366 290.9 L 550.3029027416817 290.9 L 550.9434825579268 271.7 L 551.5840623741719 271.7 L 552.224642190417 283.9 L 552.8652220066621 283.9 L 553.5058018229072 278.9 L 554.1463816391523 278.9 L 554.7869614553974 251.4 L 555.4275412716426 313.5 L 556.0681210878877 313.5 L 556.7087009041327 294.3 L 557.3492807203778 294.3 L 557.9898605366229 287.7 L 558.630440352868 287.7 L 559.2710201691132 287.2 L 559.9115999853583 287.2 L 560.5521798016033 287 L 561.1927596178484 287 L 561.8333394340935 286.7 L 562.4739192503387 286.7 L 563.1144990665838 280.3 L 563.7550788828289 280.3 L 564.3956586990739 274.7 L 565.036238515319 274.7 L 565.6768183315642 300.4 L 566.3173981478093 300.4 L 566.9579779640544 282.1 L 567.5985577802995 282.1 L 568.2391375965447 274.9 L 568.8797174127897 274.9 L 569.5202972290348 286.5 L 570.1608770452799 286.5 L 570.801456861525 287.9 L 571.4420366777701 287.9 L 572.0826164940153 287.8 L 572.7231963102603 287.8 L 573.3637761265054 286.6 L 574.0043559427505 286.6 L 574.6449357589956 279.7 L 575.2855155752408 279.7 L 575.9260953914859 309.9 L 576.566675207731 309.9 L 577.207255023976 309.4 L 577.8478348402211 309.4 L 578.4884146564663 289.4 L 579.1289944727114 289.4 L 579.7695742889565 287.8 L 580.4101541052016 287.8 L 581.0507339214466 288 L 581.6913137376918 288 L 582.3318935539369 288.3 L 582.972473370182 288.3 L 583.6130531864271 277.4 L 584.2536330026722 277.4 L 584.8942128189173 265.5 L 585.5347926351624 265.5 L 586.1753724514075 280.9 L 586.8159522676526 273.6 L 587.4565320838977 284.3 L 588.0971119001429 284.3 L 588.737691716388 287.2 L 589.378271532633 287.2 L 590.0188513488781 288.5 L 590.6594311651232 286.1 L 591.3000109813684 286.1 L 591.9405907976135 285 L 592.5811706138586 285 L 593.2217504301036 314.3 L 593.8623302463487 314.3 L 594.5029100625939 310.3 L 595.143489878839 310.3 L 595.7840696950841 289.2 L 596.4246495113292 289.2 L 597.0652293275743 288.9 L 597.7058091438194 288.9 L 598.3463889600645 288.2 L 598.9869687763096 288.2 L 599.6275485925547 288.6 L 600.2681284087998 288.6 L 600.908708225045 287.8 L 601.54928804129 287.8 L 602.1898678575351 233.8 L 602.8304476737802 233.8 L 603.4710274900253 255.3 L 604.1116073062705 255.3 L 604.7521871225156 301.9 L 605.3927669387606 301.9 L 606.0333467550057 280.4 L 606.6739265712508 280.4 L 607.314506387496 277.5 L 607.9550862037411 277.5 L 608.5956660199862 285.9 L 609.2362458362313 285.9 L 609.8768256524763 288.1 L 610.5174054687214 288.1 L 611.1579852849666 288.2 L 611.7985651012117 288.2 L 612.4391449174568 279.3 L 613.0797247337019 279.3 L 613.720304549947 194.5 L 614.3608843661921 194.5 L 615.0014641824372 255.6 L 615.6420439986823 255.6 L 616.2826238149274 307.8 L 616.9232036311726 307.8 L 617.5637834474177 286.6 L 618.2043632636627 287.8 L 618.8449430799078 288.1 L 619.4855228961529 288.1 L 620.126102712398 268.5 L 620.7666825286432 268.5 L 621.4072623448883 259.8 L 622.0478421611333 259.8 L 622.6884219773784 262.1 L 623.3290017936235 262.1 L 623.9695816098687 269.2 L 624.6101614261138 269.2 L 625.2507412423589 281.6 L 625.8913210586039 281.6 L 626.531900874849 288.8 L 627.1724806910942 288.8 L 627.8130605073393 288.6 L 628.4536403235844 288.6 L 629.0942201398295 288.6 L 629.7347999560747 288.6 L 630.3753797723197 285.9 L 631.0159595885648 285.9 L 631.6565394048099 298.4 L 632.297119221055 298.4 L 632.9376990373001 316.4 L 633.5782788535453 299.7 L 634.2188586697903 299.7 L 634.8594384860354 287 L 635.5000183022805 287 L 636.1405981185256 288.6 L 636.7811779347708 288.6 L 637.4217577510159 288.1 L 638.062337567261 288.1 L 638.702917383506 288.3 L 639.3434971997511 288.3 L 639.9840770159963 283.2 L 640.6246568322414 283.2 L 641.2652366484865 190 L 641.9058164647316 190 L 642.5463962809766 104.7 L 643.1869760972218 104.7 L 643.8275559134669 71.8 L 644.468135729712 71.8 L 645.1087155459571 66.3 L 645.7492953622022 66.3 L 646.3898751784473 70.8 L 647.0304549946924 70.8 L 647.6710348109375 77.1 L 648.3116146271826 77.1 L 648.9521944434277 71.1 L 649.5927742596729 39.5 L 650.233354075918 26.7 L 650.873933892163 26.8 L 651.5145137084081 26.8 L 652.1550935246532 27.7 L 652.7956733408984 27.7 L 653.4362531571435 27.4 L 654.0768329733886 27.4 L 654.7174127896336 27.1 L 655.3579926058787 27.1 L 655.9985724221239 27 L 656.6391522383689 27 L 657.279732054614 27.4 L 657.9203118708591 27.4 L 658.5608916871042 27.6 L 659.2014715033494 27.6 L 659.8420513195945 38.6 L 660.4826311358395 38.6 L 661.1232109520846 173.5 L 661.7637907683297 173.5 L 662.4043705845748 291.4 L 663.04495040082 291.4 L 663.6855302170651 294.2 L 664.3261100333101 294.2 L 664.9666898495552 273.6 L 665.6072696658003 273.6 L 666.2478494820455 277.5 L 666.8884292982906 277.5 L 667.5290091145357 280.6 L 668.1695889307808 280.6 L 668.8101687470258 281.5 L 669.450748563271 281.5 L 670.0913283795161 275.5 L 670.7319081957612 275.5 L 671.3724880120063 233.9 L 672.0130678282515 233.9 L 672.6536476444965 294.6 L 673.2942274607416 294.6 L 673.9348072769867 314.5 L 674.5753870932318 314.5 L 675.215966909477 280.2 L 675.8565467257221 280.2 L 676.4971265419672 243.8 L 677.1377063582122 243.8 L 677.7782861744573 282.9 L 678.4188659907024 282.9 L 679.0594458069476 282.1 L 679.7000256231927 282.1 L 680.3406054394378 281.6 L 680.9811852556828 284.4 L 681.6217650719279 284.4 L 682.2623448881731 274 L 682.9029247044182 274 L 683.5435045206633 282.2 L 684.1840843369084 282.2 L 684.8246641531534 283.2 L 685.4652439693986 283.2 L 686.1058237856437 282.1 L 686.7464036018888 282.1 L 687.3869834181339 282.4 L 688.027563234379 282.4 L 688.6681430506242 294 L 689.3087228668692 294 L 689.9493026831143 315 L 690.5898824993594 315 L 691.2304623156045 313.8 L 691.8710421318497 313.8 L 692.5116219480948 295.4 L 693.1522017643398 295.4 L 693.7927815805849 286.5 L 694.43336139683 286.5 L 695.0739412130752 285.4 L 695.7145210293203 285.4 L 696.3551008455654 284.3 L 696.9956806618105 284.3 L 697.6362604780555 282.8 L 698.2768402943007 282.8 L 698.9174201105458 283.9 L 699.5579999267909 283.9 L 700.198579743036 273.8 L 700.8391595592811 273.8 L 701.4797393755262 261.1 L 702.1203191917713 261.1 L 702.7608990080164 267.3 L 703.4014788242615 267.3 L 704.0420586405066 275.2 L 704.6826384567518 275.2 L 705.3232182729968 285.1 L 705.9637980892419 285.1 L 706.604377905487 283.9 L 707.2449577217321 283.9 L 707.8855375379773 283.9 L 708.5261173542224 283.9 L 709.1666971704675 282.9 L 709.8072769867125 282.9 L 710.4478568029576 298.1 L 711.0884366192028 298.1 L 711.7290164354479 315.1 L 712.369596251693 285.8 L 713.0101760679381 285.8 L 713.6507558841831 283.9 L 714.2913357004282 283.9 L 714.9319155166734 251.8 L 715.5724953329185 251.8 L 716.2130751491636 220.8 L 716.8536549654087 220.8 L 717.4942347816539 289.2 L 718.1348145978989 289.2 L 718.775394414144 285.6 L 719.4159742303891 285.6 L 720.0565540466342 246.4 L 720.6971338628794 246.4 L 721.3377136791245 272.3 L 721.9782934953695 272.3 L 722.6188733116146 284.2 L 723.2594531278597 284.2 L 723.9000329441049 284.7 L 724.54061276035 284.7 L 725.1811925765951 282.7 L 725.8217723928401 282.7 L 726.4623522090852 284.5 L 727.1029320253303 284.5 L 727.7435118415755 301.6 L 728.3840916578206 301.6 L 729.0246714740657 316.9 L 729.6652512903108 316.9 L 730.3058311065558 310.2 L 730.946410922801 310.2 L 731.5869907390461 290.9 L 732.2275705552912 290.9 L 732.8681503715363 287.6 L 733.5087301877815 287.6 L 734.1493100040265 285.8 L 734.7898898202716 285.8 L 735.4304696365167 259.5 L 736.0710494527618 259.5 L 736.711629269007 159.9 L 737.3522090852521 159.9 L 737.9927889014972 249.5 L 738.6333687177422 249.5 L 739.2739485339873 269.3 L 739.9145283502324 269.3 L 740.5551081664776 260 L 741.1956879827227 260 L 741.8362677989678 267.8 L 742.4768476152128 267.8 L 743.1174274314579 278 L 743.7580072477031 284.9 L 744.3985870639482 274.7 L 745.0391668801933 274.7 L 745.6797466964384 295.7 L 746.3203265126834 295.7 L 746.9609063289286 316.1 L 747.6014861451737 316.1 L 748.2420659614188 306.7 L 748.8826457776639 306.7 L 749.523225593909 288 L 750.1638054101542 288 L 750.8043852263992 285.9 L 751.4449650426443 285.9 L 752.0855448588894 286 L 752.7261246751345 286 L 753.3667044913797 284.9 L 754.0072843076248 284.9 L 754.6478641238698 285.2 L 755.2884439401149 285.2 L 755.92902375636 285.9 L 756.5696035726052 296.9 L 757.2101833888503 296.9 L 757.8507632050954 299.9 L 758.4913430213405 299.9 L 759.1319228375855 279.7 L 759.7725026538307 279.7 L 760.4130824700758 280.4 L 761.0536622863209 280.4 L 761.694242102566 286.2 L 762.3348219188111 286.2 L 762.9754017350562 279 L 763.6159815513013 279 L 764.2565613675464 258.7 L 764.8971411837915 258.7 L 765.5377210000366 284.7 L 766.1783008162818 284.7 L 766.8188806325268 309.6 L 767.4594604487719 309.6 L 768.100040265017 315.3 L 768.7406200812621 315.3 L 769.3811998975073 300.6 L 770.0217797137524 300.6 L 770.6623595299975 282.8 L 771.3029393462425 282.8 L 771.9435191624876 282.7 L 772.5840989787328 282.7 L 773.2246787949779 286.1 L 773.865258611223 286.1 L 774.5058384274681 257.2 L 775.1464182437131 220.6 L 775.7869980599583 220.6 L 776.4275778762034 54.5 L 777.0681576924485 54.5 L 777.7087375086936 32.2 L 778.3493173249387 32.2 L 778.9898971411839 144.1 L 779.6304769574289 144.1 L 780.271056773674 269 L 780.9116365899191 269 L 781.5522164061642 279.1 L 782.1927962224094 279.1 L 782.8333760386545 279.7 L 783.4739558548995 279.7 L 784.1145356711446 280.2 L 784.7551154873897 280.2 L 785.3956953036349 274.5 L 786.03627511988 274.5 L 786.6768549361251 295.5 L 787.3174347523701 295.5 L 787.9580145686152 315.4 L 788.5985943848603 315.4 L 789.2391742011055 299.6 L 789.8797540173506 299.6 L 790.5203338335957 287.5 L 791.1609136498408 287.5 L 791.8014934660858 289.5 L 792.442073282331 289.5 L 793.0826530985761 288 L 793.7232329148212 287.4 L 794.3638127310663 287.4 L 795.0043925473115 286.7 L 795.6449723635565 286.7 L 796.2855521798016 280.6 L 796.9261319960467 280.6 L 797.5667118122918 269.8 L 798.207291628537 269.8 L 798.8478714447821 251.7 L 799.4884512610272 251.7 L 800.1290310772722 266 L 800.7696108935173 266 L 801.4101907097624 276.1 L 802.0507705260076 276.1 L 802.6913503422527 284.7 L 803.3319301584978 284.7 L 803.9725099747428 287.7 L 804.6130897909879 287.7 L 805.2536696072331 287.6 L 805.8942494234782 287.6 L 806.5348292397233 305.7 L 807.1754090559684 305.7 L 807.8159888722134 312.5 L 808.4565686884586 312.5 L 809.0971485047037 290.4 L 809.7377283209488 290.4 L 810.3783081371939 286.6 L 811.018887953439 288.6 L 811.6594677696842 288.6 L 812.3000475859292 288.6 L 812.9406274021743 288.6 L 813.5812072184194 286.6 L 814.2217870346645 286.6 L 814.8623668509097 286.9 L 815.5029466671548 286.9 L 816.1435264833998 289 L 816.7841062996449 289 L 817.42468611589 301.4 L 818.0652659321352 301.4 L 818.7058457483803 292 L 819.3464255646254 292 L 819.9870053808705 278.1 L 820.6275851971155 278.1 L 821.2681650133607 286.6 L 821.9087448296058 286.6 L 822.5493246458509 289.2 L 823.189904462096 289.2 L 823.8304842783411 288.3 L 824.4710640945862 288.3 L 825.1116439108313 285.8 L 825.7522237270764 285.8 L 826.3928035433215 297.2 L 827.0333833595666 297.2 L 827.6739631758118 314.3 L 828.3145429920568 314.3 L 828.9551228083019 313.4 L 829.595702624547 313.4 L 830.2362824407921 295.2 L 830.8768622570373 295.2 L 831.5174420732824 289.2 L 832.1580218895275 289.2 L 832.7986017057725 288 L 833.4391815220176 288 L 834.0797613382628 261.3 L 834.7203411545079 261.3 L 835.360920970753 220.7 L 836.0015007869981 220.7 L 836.6420806032431 280.1 L 837.2826604194883 280.1 L 837.9232402357334 300.4 L 838.5638200519785 300.4 L 839.2043998682236 286.8 L 839.8449796844687 277.8 L 840.4855595007139 277.8 L 841.1261393169589 287.1 L 841.766719133204 287.1 L 842.4072989494491 269.6 L 843.0478787656942 269.6 L 843.6884585819394 260.8 L 844.3290383981845 260.8 L 844.9696182144295 283.5 L 845.6101980306746 283.5 L 846.2507778469197 291.5 L 846.8913576631649 291.5 L 847.53193747941 315 L 848.1725172956551 315 L 848.8130971119001 311.3 L 849.4536769281452 311.3 L 850.0942567443903 290.8 L 850.7348365606355 290.8 L 851.3754163768806 287.9 L 852.0159961931257 287.9 L 852.6565760093708 288.6 L 853.2971558256158 288.6 L 853.937735641861 288.2 L 854.5783154581061 288.2 L 855.2188952743512 287.4 L 855.8594750905963 287.4 L 856.5000549068415 286.3 L 857.1406347230865 286.3 L 857.7812145393316 293.4 L 858.4217943555767 293.4 L 859.0623741718218 301.9 L 859.702953988067 301.9 L 860.3435338043121 283.3 L 860.9841136205572 283.3 L 861.6246934368022 279 L 862.2652732530473 279 L 862.9058530692924 287.6 L 863.5464328855376 287.6 L 864.1870127017827 288.5 L 864.8275925180278 288.5 L 865.4681723342728 288 L 866.108752150518 288 L 866.7493319667631 288.6 L 867.3899117830082 288.6 L 868.0304915992533 303.3 L 868.6710714154984 303.3 L 869.3116512317434 288.8 L 869.9522310479886 288.8 L 870.5928108642337 288.3 L 871.2333906804788 288.3 L 871.8739704967239 280.3 L 872.514550312969 280.3 L 873.1551301292142 270.1 L 873.7957099454592 270.1 L 874.4362897617043 294.6 L 875.0768695779494 294.6 L 875.7174493941945 300.7 L 876.3580292104397 300.7 L 876.9986090266848 280.9 L 877.6391888429298 280.9 L 878.2797686591749 280 L 878.92034847542 280 L 879.5609282916652 288.6 L 880.2015081079103 288.6 L 880.8420879241554 288.6 L 881.4826677404005 288.6 L 882.1232475566455 288.3 L 882.7638273728907 288.3 L 883.4044071891358 288.8 L 884.0449870053809 288.8 L 884.685566821626 305.8 L 885.3261466378711 305.8 L 885.9667264541162 316.5 L 886.6073062703613 316.5 L 887.2478860866064 305.9 L 887.8884659028515 288.6 L 888.5290457190966 288.6 L 889.1696255353418 287.8 L 889.8102053515868 287.8 L 890.4507851678319 262.9 L 891.091364984077 262.9 L 891.7319448003221 220.4 L 892.3725246165673 220.4 L 893.0131044328124 281.6 L 893.6536842490575 281.6 L 894.2942640653025 286.6 L 894.9348438815476 286.6 L 895.5754236977928 297.8 L 896.2160035140379 297.8 L 896.856583330283 298.8 L 897.4971631465281 298.8 L 898.1377429627731 202.4 L 898.7783227790183 202.4 L 899.4189025952634 44.1 L 900.0594824115085 44.1 L 900.7000622277536 27.4 L 901.3406420439987 27.4 L 901.9812218602439 27.4 L 902.6218016764889 27.3 L 903.262381492734 27.3 L 903.9029613089791 26.6 L 904.5435411252242 26.6 L 905.1841209414694 27.3 L 905.8247007577145 27.3 L 906.4652805739595 27.1 L 907.1058603902046 27.1 L 907.7464402064497 27.6 L 908.3870200226949 27.6 L 909.02759983894 26.8 L 909.6681796551851 26.8 L 910.3087594714301 27.1 L 910.9493392876752 27.1 L 911.5899191039204 27.9 L 912.2304989201655 27.9 L 912.8710787364106 26.7 L 913.5116585526557 26.7 L 914.1522383689008 27.6 L 914.7928181851458 27.6 L 915.433398001391 26.7 L 916.0739778176361 26.7 L 916.7145576338812 27.4 L 917.3551374501263 27.4 L 917.9957172663715 60.5 L 918.6362970826165 60.5 L 919.2768768988616 229.6 L 919.9174567151067 229.6 L 920.5580365313518 285.2 L 921.198616347597 285.2 L 921.8391961638421 287.8 L 922.4797759800872 287.8 L 923.1203557963322 287.7 L 923.7609356125773 287.7 L 924.4015154288224 292 L 925.0420952450676 292 L 925.6826750613127 311.8 L 926.3232548775578 311.8 L 926.9638346938028 316.1 L 927.604414510048 316.1 L 928.2449943262931 298.3 L 928.8855741425382 298.3 L 929.5261539587833 285.9 L 930.1667337750284 285.9 L 930.8073135912734 285.4 L 931.4478934075186 285.4 L 932.0884732237637 287.8 L 932.7290530400088 301.1 L 933.3696328562539 301.1 L 934.010212672499 293.5 L 934.6507924887442 293.5 L 935.2913723049892 275.2 L 935.9319521212343 275.2 L 936.5725319374794 282.4 L 937.2131117537245 282.4 L 937.8536915699697 287 L 938.4942713862148 287 L 939.1348512024598 288.8 L 939.7754310187049 288.8 L 940.41601083495 286.9 L 941.0565906511952 286.9 L 941.6971704674403 294 L 942.3377502836854 294 L 942.9783300999305 313.4 L 943.6189099161755 313.4 L 944.2594897324207 314.6 L 944.9000695486658 314.6 L 945.5406493649109 296 L 946.181229181156 296 L 946.8218089974011 284.7 L 947.4623888136462 284.7 L 948.1029686298913 262.9 L 948.7435484461364 262.9 L 949.3841282623815 216.8 L 950.0247080786266 216.8 L 950.6652878948718 280.8 L 951.3058677111168 280.8 L 951.9464475273619 281.1 L 952.587027343607 281.1 L 953.2276071598521 276.9 L 953.8681869760973 276.9 L 954.5087667923424 300.8 L 955.1493466085875 300.8 L 955.7899264248325 286.9 L 956.4305062410776 286.9 L 957.0710860573228 270.3 L 957.7116658735679 270.3 L 958.352245689813 279 L 958.9928255060581 279 L 959.6334053223031 285.2 L 960.2739851385483 285.2 L 960.9145649547934 284.7 L 961.5551447710385 284.7 L 962.1957245872836 286.2 L 962.8363044035287 286.2 L 963.4768842197739 287.1 L 964.1174640360189 215.5 L 964.758043852264 215.5 L 965.3986236685091 185 L 966.0392034847542 185 L 966.6797833009994 187 L 967.3203631172445 187 L 967.9609429334895 281 L 968.6015227497346 281 L 969.2421025659797 285.4 L 969.8826823822249 285.4 L 970.52326219847 291.6 L 971.1638420147151 291.6 L 971.8044218309601 301.6 L 972.4450016472052 301.6 L 973.0855814634504 287.4 L 973.7261612796955 287.4 L 974.3667410959406 277.5 L 975.0073209121857 277.5 L 975.6479007284308 288.2 L 976.2884805446758 288.2 L 976.929060360921 287.5 L 977.5696401771661 287.5 L 978.2102199934112 288.2 L 978.8507998096563 288.2 L 979.4913796259015 287.6 L 980.1319594421465 287.6 L 980.7725392583916 300.4 L 981.4131190746367 300.4 L 982.0536988908818 316 L 982.694278707127 316 L 983.3348585233721 311.5 L 983.9754383396172 311.5 L 984.6160181558622 292.3 L 985.2565979721073 292.3 L 985.8971777883525 288.6 L 986.5377576045976 288.6 L 987.1783374208427 288.6 L 987.8189172370878 288.6 L 988.4594970533328 287.9 L 989.100076869578 287.9 L 989.7406566858231 286.8 L 990.3812365020682 286.8 L 991.0218163183133 286.7 L 991.6623961345584 286.7 L 992.3029759508034 293.7 L 992.9435557670486 293.7 L 993.5841355832937 302 L 994.2247153995388 302 L 994.8652952157839 289.2 L 995.505875032029 289.2 L 996.1464548482742 288.2 L 996.7870346645192 288.2 L 997.4276144807643 287.6 L 998.0681942970094 287.6 L 998.7087741132545 303.9 L 999.3493539294997 303.9 L 999.9899337457448 317 L 1000.6305135619898 317 L 1001.2710933782349 307.8 L 1001.91167319448 291.2 L 1002.5522530107252 291.2 L 1003.1928328269703 267.5 L 1003.8334126432154 267.5 L 1004.4739924594605 216.2 L 1005.1145722757055 216.2 L 1005.7551520919507 276.3 L 1006.3957319081958 276.3 L 1007.0363117244409 278.2 L 1007.676891540686 278.2 L 1008.3174713569312 284.3 L 1008.9580511731762 284.3 L 1009.5986309894213 295.2 L 1010.2392108056664 295.2 L 1010.8797906219115 301.3 L 1011.5203704381566 301.3 L 1012.1609502544018 280.9 L 1012.8015300706468 280.9 L 1013.4421098868919 281.8 L 1014.082689703137 281.8 L 1014.7232695193821 288.6 L 1015.3638493356273 288.6 L 1016.0044291518724 288.2 L 1016.6450089681175 288.2 L 1017.2855887843625 288.2 L 1017.9261686006076 288.2 L 1018.5667484168528 288.8 L 1019.2073282330979 288.8 L 1019.847908049343 306.9 L 1020.4884878655881 306.9 L 1021.1290676818331 316.9 L 1021.7696474980783 316.9 L 1022.4102273143234 305.4 L 1023.0508071305685 305.4 L 1023.6913869468136 288.5 L 1024.3319667630587 288.5 L 1024.9725465793038 289.2 L 1025.613126395549 289.2 L 1026.253706211794 288.3 L 1026.8942860280392 287.2 L 1027.5348658442842 287.2 L 1028.1754456605292 286.6 L 1028.8160254767745 286.6 L 1029.4566052930195 298.1 L 1030.0971851092647 298.1 L 1030.7377649255097 298.6 L 1031.3783447417547 298.6 L 1032.018924558 278.9 L 1032.659504374245 278.9 L 1033.3000841904902 283.4 L 1033.9406640067352 283.4 L 1034.5812438229805 288.5 L 1035.2218236392255 288.5 L 1035.8624034554705 288.6 L 1036.5029832717157 288.6 L 1037.1435630879607 287.4 L 1037.784142904206 287.4 L 1038.424722720451 290.7 L 1039.0653025366962 290.7 L 1039.7058823529412 309.6" stroke="#2f7ed8" stroke-width="1" zIndex="1"></path></g><g class="highcharts-markers" visibility="visible" zIndex="0.1" transform="translate(60,10) scale(1 1)" clip-path="none"><path fill="none" d="M 0.29411764705882426 300.7 L 10.294117647058824 300.7 L 10.934697463303928 289.2 L 11.575277279549033 289.2 L 12.215857095794137 289.6 L 12.856436912039241 289 L 13.497016728284345 289 L 14.13759654452945 288.6 L 14.778176360774554 288.6 L 15.418756177019658 288.1 L 16.059335993264764 288.1 L 16.699915809509868 290.4 L 17.340495625754972 290.4 L 17.981075442000076 302.7 L 18.62165525824518 302.7 L 19.262235074490285 295 L 19.90281489073539 295 L 20.543394706980493 278.8 L 21.183974523225597 278.8 L 21.8245543394707 251.8 L 22.465134155715806 251.8 L 23.10571397196091 248.3 L 23.746293788206014 248.3 L 24.386873604451118 286.2 L 25.027453420696222 286.2 L 25.668033236941326 296.6 L 26.30861305318643 296.6 L 26.949192869431535 316.9 L 27.58977268567664 316.9 L 28.230352501921743 313.4 L 28.870932318166847 313.4 L 29.51151213441195 291.8 L 30.152091950657056 291.8 L 30.79267176690216 286.2 L 31.433251583147264 286.2 L 32.07383139939237 287.5 L 32.71441121563747 287.5 L 33.35499103188258 288.6 L 33.99557084812768 289.2 L 34.636150664372785 289.2 L 35.276730480617886 287.8 L 35.91731029686299 287.8 L 36.557890113108094 292.9 L 37.1984699293532 292.9 L 37.8390497455983 303.3 L 38.47962956184341 303.3 L 39.12020937808851 289.1 L 39.76078919433362 289.1 L 40.40136901057872 242.3 L 41.04194882682382 242.3 L 41.68252864306893 217.6 L 42.32310845931403 217.6 L 42.963688275559136 268.5 L 43.60426809180424 268.5 L 44.244847908049344 287.4 L 44.885427724294445 287.4 L 45.52600754053955 288.3 L 46.16658735678465 288.3 L 46.80716717302976 299.6 L 47.44774698927486 299.6 L 48.08832680551997 317.3 L 48.72890662176507 317.3 L 49.36948643801018 314.3 L 50.01006625425528 314.3 L 50.650646070500386 295 L 51.29122588674549 295 L 51.931805702990594 290.4 L 52.572385519235695 290.4 L 53.2129653354808 287.4 L 53.8535451517259 287.4 L 54.49412496797101 294.8 L 55.13470478421611 294.8 L 55.77528460046122 302.7 L 56.41586441670632 302.7 L 57.05644423295143 287 L 57.69702404919653 287 L 58.337603865441636 280.9 L 58.97818368168674 280.9 L 59.618763497931845 289.7 L 60.259343314176945 289.7 L 60.89992313042205 288.6 L 61.540502946667154 288.6 L 62.18108276291226 289.4 L 62.82166257915736 289.4 L 63.46224239540247 288.9 L 64.10282221164758 288.9 L 64.74340202789267 303.6 L 65.38398184413778 318 L 66.02456166038289 318 L 66.665141476628 311.1 L 67.30572129287309 311.1 L 67.9463011091182 292.9 L 68.5868809253633 292.9 L 69.22746074160841 289.5 L 69.8680405578535 289.5 L 70.50862037409861 290 L 71.14920019034372 290 L 71.78978000658883 288.6 L 72.43035982283392 288.6 L 73.07093963907903 289.1 L 73.71151945532414 289.1 L 74.35209927156924 287.1 L 74.99267908781434 287.1 L 75.63325890405945 296.2 L 76.27383872030455 296.2 L 76.91441853654966 302.7 L 77.55499835279475 302.7 L 78.19557816903986 284.3 L 78.83615798528497 284.3 L 79.47673780153008 281.9 L 80.11731761777517 281.9 L 80.75789743402028 249.7 L 81.39847725026539 249.7 L 82.0390570665105 246.2 L 82.67963688275559 246.2 L 83.3202166990007 281.7 L 83.9607965152458 281.7 L 84.60137633149091 235.7 L 85.241956147736 235.7 L 85.88253596398111 152.9 L 86.52311578022622 152.9 L 87.16369559647133 133.1 L 87.80427541271642 133.1 L 88.44485522896153 128.4 L 89.08543504520664 128.4 L 89.72601486145174 151.4 L 90.36659467769684 151.4 L 91.00717449394195 236.2 L 91.64775431018705 236.2 L 92.28833412643216 178.9 L 92.92891394267726 178.9 L 93.56949375892236 147.5 L 94.21007357516747 147.5 L 94.85065339141258 150.4 L 95.49123320765767 150.4 L 96.13181302390278 128.8 L 96.77239284014789 128.8 L 97.412972656393 149.5 L 98.05355247263809 149.5 L 98.6941322888832 164.6 L 99.3347121051283 164.6 L 99.97529192137341 149.5 L 100.6158717376185 149.5 L 101.25645155386361 140 L 101.89703137010872 140 L 102.53761118635383 142.4 L 103.17819100259892 142.4 L 103.81877081884403 201.9 L 104.45935063508914 234.6 L 105.09993045133425 234.6 L 105.74051026757934 218.8 L 106.38109008382445 218.8 L 107.02166990006955 156.1 L 107.66224971631466 156.1 L 108.30282953255976 127.1 L 108.94340934880486 127.1 L 109.58398916504997 134.7 L 110.22456898129508 134.7 L 110.86514879754017 128.1 L 111.50572861378528 128.1 L 112.14630843003039 126.7 L 112.7868882462755 126.7 L 113.42746806252059 130.9 L 114.0680478787657 130.9 L 114.7086276950108 150.8 L 115.34920751125591 150.8 L 115.989787327501 123.1 L 116.63036714374611 124.2 L 117.27094695999122 124.2 L 117.91152677623633 127 L 118.55210659248142 127 L 119.19268640872653 130.6 L 119.83326622497164 130.6 L 120.47384604121675 130.5 L 121.11442585746184 130.5 L 121.75500567370695 155.7 L 122.39558548995205 155.7 L 123.03616530619716 223.8 L 123.67674512244226 223.8 L 124.31732493868736 233 L 124.95790475493247 233 L 125.59848457117758 216.3 L 126.23906438742267 216.3 L 126.87964420366778 199.3 L 127.52022401991289 199.3 L 128.16080383615798 204.3 L 128.8013836524031 204.3 L 129.4419634686482 206.3 L 130.0825432848933 206.3 L 130.7231231011384 207.8 L 131.3637029173835 207.8 L 132.00428273362863 206.9 L 132.64486254987372 206.9 L 133.28544236611882 172 L 133.92602218236394 172 L 134.56660199860903 51.4 L 135.20718181485412 51.4 L 135.84776163109925 26.8 L 136.48834144734434 26.8 L 137.12892126358946 26.8 L 137.76950107983455 26.8 L 138.41008089607965 27.9 L 139.05066071232477 27.9 L 139.69124052856986 27.1 L 140.33182034481496 27.1 L 140.97240016106008 27.4 L 141.61297997730517 27.4 L 142.2535597935503 33.4 L 142.8941396097954 164.2 L 143.53471942604048 164.2 L 144.1752992422856 297.4 L 144.8158790585307 297.4 L 145.4564588747758 289.2 L 146.0970386910209 289.2 L 146.737618507266 283.9 L 147.37819832351113 281.7 L 148.01877813975622 282 L 148.65935795600132 282 L 149.29993777224644 282.8 L 149.94051758849153 282.8 L 150.58109740473662 287.9 L 151.22167722098175 287.9 L 151.86225703722684 301.2 L 152.50283685347196 301.2 L 153.14341666971706 289.2 L 153.78399648596215 289.2 L 154.42457630220727 270.4 L 155.06515611845236 270.4 L 155.70573593469746 276 L 156.34631575094258 276 L 156.98689556718767 242.7 L 157.6274753834328 242.7 L 158.2680551996779 270 L 158.90863501592298 270 L 159.5492148321681 274.7 L 160.1897946484132 274.7 L 160.8303744646583 290.4 L 161.4709542809034 290.4 L 162.1115340971485 313.6 L 162.75211391339363 313.6 L 163.39269372963872 313 L 164.03327354588382 313 L 164.67385336212894 290.6 L 165.31443317837403 290.6 L 165.95501299461912 281.1 L 166.59559281086425 281.1 L 167.23617262710934 282.6 L 167.87675244335446 282.6 L 168.51733225959956 282.4 L 169.15791207584465 282.4 L 169.79849189208977 282.4 L 170.43907170833486 282.4 L 171.07965152457996 282.3 L 171.72023134082508 282.3 L 172.36081115707017 289.8 L 173.0013909733153 289.8 L 173.6419707895604 301.4 L 174.28255060580548 301.4 L 174.9231304220506 286.2 L 175.5637102382957 272.1 L 176.2042900545408 272.1 L 176.8448698707859 280.5 L 177.485449687031 280.5 L 178.12602950327613 281.8 L 178.76660931952122 297.4 L 179.40718913576632 315.7 L 180.04776895201144 315.7 L 180.68834876825653 311.2 L 181.32892858450163 311.2 L 181.96950840074675 286.2 L 182.61008821699184 286.2 L 183.25066803323696 282.5 L 183.89124784948206 282.5 L 184.53182766572715 281.8 L 185.17240748197227 281.8 L 185.81298729821737 282.4 L 186.45356711446246 282.4 L 187.09414693070758 282.2 L 187.73472674695267 282.2 L 188.3753065631978 283.2 L 189.0158863794429 283.2 L 189.65646619568798 291.8 L 190.2970460119331 291.8 L 190.9376258281782 302 L 191.5782056444233 302 L 192.2187854606684 280.1 L 192.8593652769135 280.1 L 193.49994509315863 221.1 L 194.14052490940372 221.1 L 194.78110472564882 247.2 L 195.42168454189394 247.2 L 196.06226435813903 283.1 L 196.70284417438413 283.1 L 197.34342399062925 282.8 L 197.98400380687434 282.8 L 198.62458362311946 279.8 L 199.26516343936456 279.8 L 199.90574325560965 284.2 L 200.54632307185477 284.2 L 201.18690288809987 313.5 L 201.82748270434496 313.5 L 202.46806252059008 307.3 L 203.10864233683517 307.3 L 203.7492221530803 282.1 L 204.3898019693254 282.1 L 205.03038178557048 277.6 L 205.6709616018156 278.1 L 206.3115414180607 278.1 L 206.9521212343058 279.3 L 207.59270105055091 279.3 L 208.233280866796 279.2 L 208.87386068304113 279.2 L 209.51444049928622 279.6 L 210.15502031553132 264.9 L 210.79560013177644 262.1 L 211.43617994802153 262.1 L 212.07675976426663 274 L 212.71733958051175 274 L 213.35791939675684 276.2 L 213.99849921300196 276.2 L 214.63907902924706 285.2 L 215.27965884549215 285.2 L 215.92023866173727 287.8 L 216.56081847798237 287.8 L 217.20139829422746 306.1 L 217.84197811047258 306.1 L 218.48255792671767 316.8 L 219.1231377429628 316.8 L 219.7637175592079 307 L 220.40429737545298 307 L 221.0448771916981 290.3 L 221.6854570079432 290.3 L 222.3260368241883 289.6 L 222.96661664043341 289.6 L 223.6071964566785 288.8 L 224.24777627292363 288.8 L 224.88835608916872 278 L 225.52893590541382 278 L 226.16951572165894 234.5 L 226.81009553790403 234.5 L 227.45067535414913 277.4 L 228.09125517039425 277.4 L 228.73183498663934 297.9 L 229.37241480288446 297.9 L 230.01299461912956 299.2 L 230.65357443537465 299.2 L 231.29415425161977 278.5 L 231.93473406786487 278.5 L 232.57531388410996 281.6 L 233.21589370035508 281.6 L 233.85647351660018 288.5 L 234.4970533328453 288.5 L 235.1376331490904 289.4 L 235.77821296533548 289.4 L 236.4187927815806 288.3 L 237.0593725978257 290.4 L 237.6999524140708 290.4 L 238.34053223031592 309.6 L 238.981112046561 309.6 L 239.62169186280613 316.1 L 240.26227167905122 316.1 L 240.90285149529632 303.7 L 241.54343131154144 287 L 242.18401112778653 289.7 L 242.82459094403163 289.7 L 243.46517076027675 288.9 L 244.10575057652184 288.9 L 244.74633039276696 288 L 245.38691020901206 288 L 246.02749002525715 288.5 L 246.66806984150227 288.5 L 247.30864965774737 287.5 L 247.94922947399246 287.5 L 248.58980929023758 299.2 L 249.23038910648268 296.3 L 249.8709689227278 296.3 L 250.5115487389729 228.7 L 251.15212855521798 228.7 L 251.7927083714631 239.9 L 252.4332881877082 239.9 L 253.0738680039533 286.6 L 253.71444782019842 286.6 L 254.3550276364435 266.5 L 254.99560745268863 266.5 L 255.63618726893372 278.8 L 256.27676708517885 278.8 L 256.9173469014239 288.5 L 257.55792671766903 288.5 L 258.19850653391416 309.8 L 258.8390863501592 309.8 L 259.47966616640434 281.8 L 260.12024598264946 281.8 L 260.76082579889453 115.7 L 261.40140561513965 115.7 L 262.0419854313848 87.4 L 262.6825652476299 87.4 L 263.32314506387496 93.6 L 263.9637248801201 93.6 L 264.6043046963652 106.1 L 265.24488451261027 106.1 L 265.8854643288554 95.8 L 266.5260441451005 95.8 L 267.1666239613456 42.4 L 267.8072037775907 42.4 L 268.4477835938358 28.3 L 269.0883634100809 28.3 L 269.728943226326 61.1 L 270.36952304257113 61.1 L 271.0101028588162 134.6 L 271.6506826750613 134.6 L 272.29126249130644 242.6 L 272.93184230755156 279.6 L 273.5724221237966 276.7 L 274.21300194004175 276.7 L 274.85358175628687 245.1 L 275.49416157253194 275.7 L 276.13474138877706 275.7 L 276.7753212050222 232.5 L 277.41590102126725 232.5 L 278.05648083751237 260.5 L 278.6970606537575 260.5 L 279.33764047000255 310.8 L 279.9782202862477 310.8 L 280.6188001024928 288 L 281.25937991873786 288 L 281.899959734983 282 L 282.5405395512281 282 L 283.18111936747323 281.7 L 283.8216991837183 281.7 L 284.4622789999634 282.5 L 285.10285881620854 282.5 L 285.7434386324536 268.8 L 286.3840184486987 268.8 L 287.02459826494385 266.1 L 287.6651780811889 266.1 L 288.30575789743403 266.2 L 288.94633771367916 266.2 L 289.5869175299242 299.5 L 290.22749734616934 299.5 L 290.86807716241447 282 L 291.50865697865953 282 L 292.14923679490465 267.1 L 292.7898166111498 267.1 L 293.4303964273949 276.5 L 294.07097624363996 276.5 L 294.7115560598851 279.3 L 295.3521358761302 279.3 L 295.99271569237527 278.6 L 296.6332955086204 278.6 L 297.2738753248655 279 L 297.9144551411106 279 L 298.5550349573557 263.6 L 299.1956147736008 263.6 L 299.8361945898459 303.6 L 300.476774406091 303.6 L 301.11735422233613 308.1 L 301.7579340385812 308.1 L 302.3985138548263 288.5 L 303.03909367107144 288.5 L 303.67967348731656 287.8 L 304.3202533035616 287.9 L 304.96083311980675 287.9 L 305.6014129360519 286.5 L 306.24199275229694 286.5 L 306.88257256854206 270.1 L 307.5231523847872 270.1 L 308.16373220103225 242.2 L 308.80431201727737 242.2 L 309.4448918335225 252.7 L 310.08547164976756 252.7 L 310.7260514660127 214.8 L 311.3666312822578 214.8 L 312.00721109850286 234.6 L 312.647790914748 234.6 L 313.2883707309931 284.7 L 313.92895054723823 284.7 L 314.5695303634833 288.3 L 315.2101101797284 288.3 L 315.85068999597354 287.3 L 316.4912698122186 287.3 L 317.1318496284637 283.2 L 317.77242944470885 283.2 L 318.4130092609539 268 L 319.05358907719904 268 L 319.69416889344416 308.1 L 320.3347487096892 308.1 L 320.97532852593434 305.5 L 321.61590834217947 305.5 L 322.25648815842453 285.9 L 322.89706797466965 285.9 L 323.5376477909148 286.6 L 324.1782276071599 286.6 L 324.81880742340496 289 L 325.4593872396501 289 L 326.0999670558952 287.8 L 326.74054687214027 287.8 L 327.3811266883854 286.6 L 328.0217065046305 286.6 L 328.66228632087564 272.8 L 329.30286613712076 280.7 L 329.9434459533658 280.7 L 330.58402576961095 299.4 L 331.22460558585607 299.4 L 331.86518540210113 277.4 L 332.50576521834626 277.4 L 333.1463450345914 278.9 L 333.78692485083644 278.9 L 334.42750466708156 288.1 L 335.0680844833267 288.1 L 335.7086642995718 287.7 L 336.3492441158169 287.7 L 336.989823932062 283.1 L 337.6304037483071 283.1 L 338.2709835645522 279 L 338.9115633807973 279 L 339.5521431970424 302.2 L 340.1927230132875 302.2 L 340.8333028295326 305 L 341.47388264577773 305 L 342.1144624620228 279.3 L 342.7550422782679 279.3 L 343.39562209451304 287.4 L 344.0362019107581 287.4 L 344.67678172700323 288.6 L 345.31736154324835 288.2 L 345.9579413594935 288.2 L 346.59852117573854 287 L 347.23910099198366 287 L 347.8796808082288 268.7 L 348.52026062447385 268.7 L 349.16084044071897 285.4 L 349.8014202569641 285.4 L 350.44200007320916 300.9 L 351.0825798894543 300.9 L 351.7231597056994 279 L 352.36373952194447 279 L 353.0043193381896 280 L 353.6448991544347 280 L 354.2854789706798 289.2 L 354.9260587869249 289.2 L 355.56663860317 288 L 356.20721841941514 288 L 356.8477982356602 288.2 L 357.48837805190533 288.2 L 358.12895786815045 280.5 L 358.7695376843955 280.5 L 359.41011750064064 285.3 L 360.05069731688576 285.3 L 360.6912771331308 316.2 L 361.33185694937595 316.2 L 361.97243676562107 305.5 L 362.61301658186613 305.5 L 363.25359639811126 289.5 L 363.8941762143564 289.5 L 364.53475603060144 288.8 L 365.17533584684656 288.8 L 365.8159156630917 289.5 L 366.4564954793368 289.5 L 367.0970752955819 286.4 L 367.737655111827 268.6 L 368.3782349280721 268.6 L 369.0188147443172 291.8 L 369.6593945605623 291.8 L 370.2999743768074 250.1 L 370.9405541930525 250.1 L 371.5811340092976 225.6 L 372.22171382554274 225.6 L 372.8622936417878 278.4 L 373.5028734580329 278.4 L 374.14345327427804 281.1 L 374.7840330905231 281.1 L 375.42461290676823 288.3 L 376.06519272301335 288.3 L 376.7057725392585 287.9 L 377.34635235550354 287.9 L 377.98693217174866 281.6 L 378.6275119879938 281.6 L 379.26809180423885 295.2 L 379.908671620484 295.2 L 380.5492514367291 314.9 L 381.18983125297416 314.9 L 381.8304110692193 225.4 L 382.4709908854644 225.4 L 383.11157070170947 49.2 L 383.7521505179546 49.2 L 384.3927303341997 27.1 L 385.0333101504448 27.1 L 385.6738899666899 26.9 L 386.314469782935 26.9 L 386.95504959918014 26.8 L 387.5956294154252 26.8 L 388.23620923167033 27.7 L 388.87678904791545 27.7 L 389.5173688641605 26.4 L 390.15794868040564 26.4 L 390.79852849665076 27.6 L 391.4391083128958 27.6 L 392.07968812914095 27.1 L 392.72026794538607 27.1 L 393.36084776163113 27.6 L 394.00142757787626 26.8 L 394.6420073941214 26.8 L 395.28258721036644 27.3 L 395.92316702661157 27.3 L 396.5637468428567 27.3 L 397.2043266591018 27.3 L 397.8449064753469 27.1 L 398.485486291592 27.6 L 399.1260661078371 27.1 L 399.7666459240822 27.1 L 400.4072257403273 27.1 L 401.0478055565724 27.1 L 401.6883853728175 64.8 L 402.3289651890626 64.8 L 402.96954500530774 232.2 L 403.6101248215528 232.2 L 404.2507046377979 279.7 L 404.89128445404305 279.7 L 405.5318642702881 268.9 L 406.17244408653323 268.9 L 406.81302390277835 280.9 L 407.4536037190235 280.9 L 408.09418353526854 278.2 L 408.73476335151366 278.2 L 409.3753431677588 255.9 L 410.01592298400385 255.9 L 410.656502800249 211.5 L 411.2970826164941 211.5 L 411.93766243273916 275.8 L 412.5782422489843 275.8 L 413.2188220652294 273.4 L 413.85940188147447 273.4 L 414.4999816977196 282.6 L 415.1405615139647 282.6 L 415.7811413302098 287.1 L 416.4217211464549 287.1 L 417.0623009627 287.4 L 417.70288077894514 287.4 L 418.3434605951902 286.8 L 418.98404041143533 277.2 L 419.62462022768045 277.2 L 420.2652000439255 304 L 420.90577986017064 304 L 421.54635967641576 311.8 L 422.1869394926608 311.8 L 422.82751930890595 288.8 L 423.46809912515107 288.8 L 424.10867894139614 285 L 424.74925875764126 285 L 425.3898385738864 286.7 L 426.03041839013144 286.7 L 426.67099820637657 287.4 L 427.3115780226217 287.4 L 427.9521578388668 287.4 L 428.5927376551119 287.4 L 429.233317471357 280.4 L 429.8738972876021 273.7 L 430.5144771038472 257.5 L 431.1550569200923 257.5 L 431.7956367363374 241.3 L 432.4362165525825 241.3 L 433.0767963688276 270.6 L 433.71737618507274 270.6 L 434.3579560013178 283.9 L 434.9985358175629 283.9 L 435.63911563380805 286.4 L 436.2796954500531 286.4 L 436.92027526629823 286.9 L 437.56085508254336 286.1 L 438.2014348987885 286.1 L 438.84201471503354 278.6 L 439.48259453127866 278.6 L 440.1231743475238 309.4 L 440.76375416376885 309.4 L 441.404333980014 307.6 L 442.0449137962591 307.6 L 442.68549361250416 288.3 L 443.3260734287493 288.3 L 443.9666532449944 287.7 L 444.60723306123947 287.7 L 445.2478128774846 288.5 L 445.8883926937297 288.5 L 446.5289725099748 289.2 L 447.1695523262199 289.2 L 447.810132142465 287.2 L 448.45071195871014 287.2 L 449.0912917749552 276.2 L 449.73187159120033 276.2 L 450.37245140744545 275.4 L 451.0130312236905 275.4 L 451.65361103993564 220.7 L 452.29419085618076 220.7 L 452.9347706724258 162.6 L 453.57535048867095 162.6 L 454.21593030491607 264.2 L 454.85651012116114 264.2 L 455.49708993740626 283.9 L 456.1376697536514 283.9 L 456.77824956989645 286.9 L 457.41882938614157 286.9 L 458.0594092023867 288.5 L 458.6999890186318 288.5 L 459.3405688348769 284.4 L 459.981148651122 284.4 L 460.6217284673671 281.4 L 461.2623082836122 287.3 L 461.9028880998573 288.5 L 462.54346791610243 288.5 L 463.1840477323475 288.9 L 463.8246275485926 288.9 L 464.46520736483774 289 L 465.1057871810828 289 L 465.7463669973279 287.9 L 466.38694681357305 287.9 L 467.0275266298181 273.2 L 467.66810644606323 273.2 L 468.30868626230836 283.9 L 468.9492660785535 283.9 L 469.58984589479854 298 L 470.23042571104367 298 L 470.8710055272888 277 L 471.51158534353385 277 L 472.152165159779 278 L 472.7927449760241 278 L 473.43332479226916 288.5 L 474.0739046085143 288.5 L 474.7144844247594 290 L 475.35506424100447 290 L 475.9956440572496 288.1 L 476.6362238734947 288.1 L 477.2768036897398 283.2 L 477.9173835059849 283.2 L 478.55796332223 285.1 L 479.19854313847515 285.1 L 479.8391229547202 314.4 L 480.47970277096533 314.4 L 481.12028258721045 307.8 L 481.7608624034555 289 L 482.40144221970064 289 L 483.04202203594576 288.3 L 483.6826018521908 288.3 L 484.32318166843595 289.3 L 484.9637614846811 289.3 L 485.60434130092614 288.3 L 486.24492111717126 288.3 L 486.8855009334164 288 L 487.52608074966145 288 L 488.16666056590657 270.3 L 488.8072403821517 270.3 L 489.4478201983968 244.2 L 490.0884000146419 244.2 L 490.728979830887 242.4 L 491.3695596471321 242.4 L 492.0101394633772 277.1 L 492.6507192796223 288.5 L 493.29129909586743 287.9 L 493.9318789121125 287.9 L 494.5724587283576 282 L 495.21303854460274 282 L 495.8536183608478 291.3 L 496.4941981770929 291.3 L 497.13477799333805 313.8 L 497.7753578095831 313.8 L 498.41593762582824 298.4 L 499.05651744207336 298.4 L 499.6970972583185 279.1 L 500.33767707456354 279.1 L 500.97825689080867 284.7 L 501.6188367070538 289.5 L 502.25941652329885 289.5 L 502.899996339544 288.2 L 503.5405761557891 288.2 L 504.18115597203416 284.8 L 504.8217357882793 284.8 L 505.4623156045244 200.8 L 506.10289542076947 200.8 L 506.7434752370146 197.2 L 507.3840550532597 197.2 L 508.0246348695048 292.2 L 508.6652146857499 292.2 L 509.305794501995 265.3 L 509.94637431824015 265.3 L 510.5869541344852 278.6 L 511.22753395073033 278.6 L 511.86811376697545 286.9 L 512.5086935832205 286.9 L 513.1492733994656 289 L 513.7898532157108 289 L 514.4304330319559 288.2 L 515.071012848201 288.2 L 515.711592664446 279.9 L 516.3521724806911 279.9 L 516.9927522969363 294.6 L 517.6333321131814 294.6 L 518.2739119294265 313.7 L 518.9144917456716 313.7 L 519.5550715619166 295.9 L 520.1956513781618 295.9 L 520.8362311944069 286.6 L 521.476811010652 286.6 L 522.1173908268971 283.4 L 522.7579706431422 283.4 L 523.3985504593873 157.8 L 524.0391302756324 152.8 L 524.6797100918775 152.8 L 525.3202899081226 254.3 L 525.9608697243677 254.3 L 526.6014495406129 290 L 527.242029356858 290 L 527.882609173103 283.2 L 528.5231889893481 283.2 L 529.1637688055932 268.8 L 529.8043486218384 268.8 L 530.4449284380835 275.5 L 531.0855082543286 275.5 L 531.7260880705736 281.3 L 532.3666678868187 281.3 L 533.0072477030639 283.5 L 533.647827519309 283.5 L 534.2884073355541 287.8 L 534.9289871517992 287.8 L 535.5695669680443 275.1 L 536.2101467842893 275.1 L 536.8507266005345 295.8 L 537.4913064167796 295.8 L 538.1318862330247 312.5 L 538.7724660492698 312.5 L 539.413045865515 292.3 L 540.05362568176 292.3 L 540.6942054980051 286.2 L 541.3347853142502 286.2 L 541.9753651304953 287.8 L 542.6159449467405 287.8 L 543.2565247629856 287.8 L 543.8971045792306 287.8 L 544.5376843954757 288.1 L 545.1782642117208 288.1 L 545.818844027966 285 L 546.4594238442111 285 L 547.1000036604562 236.3 L 547.7405834767013 236.3 L 548.3811632929463 240.1 L 549.0217431091914 240.1 L 549.6623229254366 290.9 L 550.3029027416817 290.9 L 550.9434825579268 271.7 L 551.5840623741719 271.7 L 552.224642190417 283.9 L 552.8652220066621 283.9 L 553.5058018229072 278.9 L 554.1463816391523 278.9 L 554.7869614553974 251.4 L 555.4275412716426 313.5 L 556.0681210878877 313.5 L 556.7087009041327 294.3 L 557.3492807203778 294.3 L 557.9898605366229 287.7 L 558.630440352868 287.7 L 559.2710201691132 287.2 L 559.9115999853583 287.2 L 560.5521798016033 287 L 561.1927596178484 287 L 561.8333394340935 286.7 L 562.4739192503387 286.7 L 563.1144990665838 280.3 L 563.7550788828289 280.3 L 564.3956586990739 274.7 L 565.036238515319 274.7 L 565.6768183315642 300.4 L 566.3173981478093 300.4 L 566.9579779640544 282.1 L 567.5985577802995 282.1 L 568.2391375965447 274.9 L 568.8797174127897 274.9 L 569.5202972290348 286.5 L 570.1608770452799 286.5 L 570.801456861525 287.9 L 571.4420366777701 287.9 L 572.0826164940153 287.8 L 572.7231963102603 287.8 L 573.3637761265054 286.6 L 574.0043559427505 286.6 L 574.6449357589956 279.7 L 575.2855155752408 279.7 L 575.9260953914859 309.9 L 576.566675207731 309.9 L 577.207255023976 309.4 L 577.8478348402211 309.4 L 578.4884146564663 289.4 L 579.1289944727114 289.4 L 579.7695742889565 287.8 L 580.4101541052016 287.8 L 581.0507339214466 288 L 581.6913137376918 288 L 582.3318935539369 288.3 L 582.972473370182 288.3 L 583.6130531864271 277.4 L 584.2536330026722 277.4 L 584.8942128189173 265.5 L 585.5347926351624 265.5 L 586.1753724514075 280.9 L 586.8159522676526 273.6 L 587.4565320838977 284.3 L 588.0971119001429 284.3 L 588.737691716388 287.2 L 589.378271532633 287.2 L 590.0188513488781 288.5 L 590.6594311651232 286.1 L 591.3000109813684 286.1 L 591.9405907976135 285 L 592.5811706138586 285 L 593.2217504301036 314.3 L 593.8623302463487 314.3 L 594.5029100625939 310.3 L 595.143489878839 310.3 L 595.7840696950841 289.2 L 596.4246495113292 289.2 L 597.0652293275743 288.9 L 597.7058091438194 288.9 L 598.3463889600645 288.2 L 598.9869687763096 288.2 L 599.6275485925547 288.6 L 600.2681284087998 288.6 L 600.908708225045 287.8 L 601.54928804129 287.8 L 602.1898678575351 233.8 L 602.8304476737802 233.8 L 603.4710274900253 255.3 L 604.1116073062705 255.3 L 604.7521871225156 301.9 L 605.3927669387606 301.9 L 606.0333467550057 280.4 L 606.6739265712508 280.4 L 607.314506387496 277.5 L 607.9550862037411 277.5 L 608.5956660199862 285.9 L 609.2362458362313 285.9 L 609.8768256524763 288.1 L 610.5174054687214 288.1 L 611.1579852849666 288.2 L 611.7985651012117 288.2 L 612.4391449174568 279.3 L 613.0797247337019 279.3 L 613.720304549947 194.5 L 614.3608843661921 194.5 L 615.0014641824372 255.6 L 615.6420439986823 255.6 L 616.2826238149274 307.8 L 616.9232036311726 307.8 L 617.5637834474177 286.6 L 618.2043632636627 287.8 L 618.8449430799078 288.1 L 619.4855228961529 288.1 L 620.126102712398 268.5 L 620.7666825286432 268.5 L 621.4072623448883 259.8 L 622.0478421611333 259.8 L 622.6884219773784 262.1 L 623.3290017936235 262.1 L 623.9695816098687 269.2 L 624.6101614261138 269.2 L 625.2507412423589 281.6 L 625.8913210586039 281.6 L 626.531900874849 288.8 L 627.1724806910942 288.8 L 627.8130605073393 288.6 L 628.4536403235844 288.6 L 629.0942201398295 288.6 L 629.7347999560747 288.6 L 630.3753797723197 285.9 L 631.0159595885648 285.9 L 631.6565394048099 298.4 L 632.297119221055 298.4 L 632.9376990373001 316.4 L 633.5782788535453 299.7 L 634.2188586697903 299.7 L 634.8594384860354 287 L 635.5000183022805 287 L 636.1405981185256 288.6 L 636.7811779347708 288.6 L 637.4217577510159 288.1 L 638.062337567261 288.1 L 638.702917383506 288.3 L 639.3434971997511 288.3 L 639.9840770159963 283.2 L 640.6246568322414 283.2 L 641.2652366484865 190 L 641.9058164647316 190 L 642.5463962809766 104.7 L 643.1869760972218 104.7 L 643.8275559134669 71.8 L 644.468135729712 71.8 L 645.1087155459571 66.3 L 645.7492953622022 66.3 L 646.3898751784473 70.8 L 647.0304549946924 70.8 L 647.6710348109375 77.1 L 648.3116146271826 77.1 L 648.9521944434277 71.1 L 649.5927742596729 39.5 L 650.233354075918 26.7 L 650.873933892163 26.8 L 651.5145137084081 26.8 L 652.1550935246532 27.7 L 652.7956733408984 27.7 L 653.4362531571435 27.4 L 654.0768329733886 27.4 L 654.7174127896336 27.1 L 655.3579926058787 27.1 L 655.9985724221239 27 L 656.6391522383689 27 L 657.279732054614 27.4 L 657.9203118708591 27.4 L 658.5608916871042 27.6 L 659.2014715033494 27.6 L 659.8420513195945 38.6 L 660.4826311358395 38.6 L 661.1232109520846 173.5 L 661.7637907683297 173.5 L 662.4043705845748 291.4 L 663.04495040082 291.4 L 663.6855302170651 294.2 L 664.3261100333101 294.2 L 664.9666898495552 273.6 L 665.6072696658003 273.6 L 666.2478494820455 277.5 L 666.8884292982906 277.5 L 667.5290091145357 280.6 L 668.1695889307808 280.6 L 668.8101687470258 281.5 L 669.450748563271 281.5 L 670.0913283795161 275.5 L 670.7319081957612 275.5 L 671.3724880120063 233.9 L 672.0130678282515 233.9 L 672.6536476444965 294.6 L 673.2942274607416 294.6 L 673.9348072769867 314.5 L 674.5753870932318 314.5 L 675.215966909477 280.2 L 675.8565467257221 280.2 L 676.4971265419672 243.8 L 677.1377063582122 243.8 L 677.7782861744573 282.9 L 678.4188659907024 282.9 L 679.0594458069476 282.1 L 679.7000256231927 282.1 L 680.3406054394378 281.6 L 680.9811852556828 284.4 L 681.6217650719279 284.4 L 682.2623448881731 274 L 682.9029247044182 274 L 683.5435045206633 282.2 L 684.1840843369084 282.2 L 684.8246641531534 283.2 L 685.4652439693986 283.2 L 686.1058237856437 282.1 L 686.7464036018888 282.1 L 687.3869834181339 282.4 L 688.027563234379 282.4 L 688.6681430506242 294 L 689.3087228668692 294 L 689.9493026831143 315 L 690.5898824993594 315 L 691.2304623156045 313.8 L 691.8710421318497 313.8 L 692.5116219480948 295.4 L 693.1522017643398 295.4 L 693.7927815805849 286.5 L 694.43336139683 286.5 L 695.0739412130752 285.4 L 695.7145210293203 285.4 L 696.3551008455654 284.3 L 696.9956806618105 284.3 L 697.6362604780555 282.8 L 698.2768402943007 282.8 L 698.9174201105458 283.9 L 699.5579999267909 283.9 L 700.198579743036 273.8 L 700.8391595592811 273.8 L 701.4797393755262 261.1 L 702.1203191917713 261.1 L 702.7608990080164 267.3 L 703.4014788242615 267.3 L 704.0420586405066 275.2 L 704.6826384567518 275.2 L 705.3232182729968 285.1 L 705.9637980892419 285.1 L 706.604377905487 283.9 L 707.2449577217321 283.9 L 707.8855375379773 283.9 L 708.5261173542224 283.9 L 709.1666971704675 282.9 L 709.8072769867125 282.9 L 710.4478568029576 298.1 L 711.0884366192028 298.1 L 711.7290164354479 315.1 L 712.369596251693 285.8 L 713.0101760679381 285.8 L 713.6507558841831 283.9 L 714.2913357004282 283.9 L 714.9319155166734 251.8 L 715.5724953329185 251.8 L 716.2130751491636 220.8 L 716.8536549654087 220.8 L 717.4942347816539 289.2 L 718.1348145978989 289.2 L 718.775394414144 285.6 L 719.4159742303891 285.6 L 720.0565540466342 246.4 L 720.6971338628794 246.4 L 721.3377136791245 272.3 L 721.9782934953695 272.3 L 722.6188733116146 284.2 L 723.2594531278597 284.2 L 723.9000329441049 284.7 L 724.54061276035 284.7 L 725.1811925765951 282.7 L 725.8217723928401 282.7 L 726.4623522090852 284.5 L 727.1029320253303 284.5 L 727.7435118415755 301.6 L 728.3840916578206 301.6 L 729.0246714740657 316.9 L 729.6652512903108 316.9 L 730.3058311065558 310.2 L 730.946410922801 310.2 L 731.5869907390461 290.9 L 732.2275705552912 290.9 L 732.8681503715363 287.6 L 733.5087301877815 287.6 L 734.1493100040265 285.8 L 734.7898898202716 285.8 L 735.4304696365167 259.5 L 736.0710494527618 259.5 L 736.711629269007 159.9 L 737.3522090852521 159.9 L 737.9927889014972 249.5 L 738.6333687177422 249.5 L 739.2739485339873 269.3 L 739.9145283502324 269.3 L 740.5551081664776 260 L 741.1956879827227 260 L 741.8362677989678 267.8 L 742.4768476152128 267.8 L 743.1174274314579 278 L 743.7580072477031 284.9 L 744.3985870639482 274.7 L 745.0391668801933 274.7 L 745.6797466964384 295.7 L 746.3203265126834 295.7 L 746.9609063289286 316.1 L 747.6014861451737 316.1 L 748.2420659614188 306.7 L 748.8826457776639 306.7 L 749.523225593909 288 L 750.1638054101542 288 L 750.8043852263992 285.9 L 751.4449650426443 285.9 L 752.0855448588894 286 L 752.7261246751345 286 L 753.3667044913797 284.9 L 754.0072843076248 284.9 L 754.6478641238698 285.2 L 755.2884439401149 285.2 L 755.92902375636 285.9 L 756.5696035726052 296.9 L 757.2101833888503 296.9 L 757.8507632050954 299.9 L 758.4913430213405 299.9 L 759.1319228375855 279.7 L 759.7725026538307 279.7 L 760.4130824700758 280.4 L 761.0536622863209 280.4 L 761.694242102566 286.2 L 762.3348219188111 286.2 L 762.9754017350562 279 L 763.6159815513013 279 L 764.2565613675464 258.7 L 764.8971411837915 258.7 L 765.5377210000366 284.7 L 766.1783008162818 284.7 L 766.8188806325268 309.6 L 767.4594604487719 309.6 L 768.100040265017 315.3 L 768.7406200812621 315.3 L 769.3811998975073 300.6 L 770.0217797137524 300.6 L 770.6623595299975 282.8 L 771.3029393462425 282.8 L 771.9435191624876 282.7 L 772.5840989787328 282.7 L 773.2246787949779 286.1 L 773.865258611223 286.1 L 774.5058384274681 257.2 L 775.1464182437131 220.6 L 775.7869980599583 220.6 L 776.4275778762034 54.5 L 777.0681576924485 54.5 L 777.7087375086936 32.2 L 778.3493173249387 32.2 L 778.9898971411839 144.1 L 779.6304769574289 144.1 L 780.271056773674 269 L 780.9116365899191 269 L 781.5522164061642 279.1 L 782.1927962224094 279.1 L 782.8333760386545 279.7 L 783.4739558548995 279.7 L 784.1145356711446 280.2 L 784.7551154873897 280.2 L 785.3956953036349 274.5 L 786.03627511988 274.5 L 786.6768549361251 295.5 L 787.3174347523701 295.5 L 787.9580145686152 315.4 L 788.5985943848603 315.4 L 789.2391742011055 299.6 L 789.8797540173506 299.6 L 790.5203338335957 287.5 L 791.1609136498408 287.5 L 791.8014934660858 289.5 L 792.442073282331 289.5 L 793.0826530985761 288 L 793.7232329148212 287.4 L 794.3638127310663 287.4 L 795.0043925473115 286.7 L 795.6449723635565 286.7 L 796.2855521798016 280.6 L 796.9261319960467 280.6 L 797.5667118122918 269.8 L 798.207291628537 269.8 L 798.8478714447821 251.7 L 799.4884512610272 251.7 L 800.1290310772722 266 L 800.7696108935173 266 L 801.4101907097624 276.1 L 802.0507705260076 276.1 L 802.6913503422527 284.7 L 803.3319301584978 284.7 L 803.9725099747428 287.7 L 804.6130897909879 287.7 L 805.2536696072331 287.6 L 805.8942494234782 287.6 L 806.5348292397233 305.7 L 807.1754090559684 305.7 L 807.8159888722134 312.5 L 808.4565686884586 312.5 L 809.0971485047037 290.4 L 809.7377283209488 290.4 L 810.3783081371939 286.6 L 811.018887953439 288.6 L 811.6594677696842 288.6 L 812.3000475859292 288.6 L 812.9406274021743 288.6 L 813.5812072184194 286.6 L 814.2217870346645 286.6 L 814.8623668509097 286.9 L 815.5029466671548 286.9 L 816.1435264833998 289 L 816.7841062996449 289 L 817.42468611589 301.4 L 818.0652659321352 301.4 L 818.7058457483803 292 L 819.3464255646254 292 L 819.9870053808705 278.1 L 820.6275851971155 278.1 L 821.2681650133607 286.6 L 821.9087448296058 286.6 L 822.5493246458509 289.2 L 823.189904462096 289.2 L 823.8304842783411 288.3 L 824.4710640945862 288.3 L 825.1116439108313 285.8 L 825.7522237270764 285.8 L 826.3928035433215 297.2 L 827.0333833595666 297.2 L 827.6739631758118 314.3 L 828.3145429920568 314.3 L 828.9551228083019 313.4 L 829.595702624547 313.4 L 830.2362824407921 295.2 L 830.8768622570373 295.2 L 831.5174420732824 289.2 L 832.1580218895275 289.2 L 832.7986017057725 288 L 833.4391815220176 288 L 834.0797613382628 261.3 L 834.7203411545079 261.3 L 835.360920970753 220.7 L 836.0015007869981 220.7 L 836.6420806032431 280.1 L 837.2826604194883 280.1 L 837.9232402357334 300.4 L 838.5638200519785 300.4 L 839.2043998682236 286.8 L 839.8449796844687 277.8 L 840.4855595007139 277.8 L 841.1261393169589 287.1 L 841.766719133204 287.1 L 842.4072989494491 269.6 L 843.0478787656942 269.6 L 843.6884585819394 260.8 L 844.3290383981845 260.8 L 844.9696182144295 283.5 L 845.6101980306746 283.5 L 846.2507778469197 291.5 L 846.8913576631649 291.5 L 847.53193747941 315 L 848.1725172956551 315 L 848.8130971119001 311.3 L 849.4536769281452 311.3 L 850.0942567443903 290.8 L 850.7348365606355 290.8 L 851.3754163768806 287.9 L 852.0159961931257 287.9 L 852.6565760093708 288.6 L 853.2971558256158 288.6 L 853.937735641861 288.2 L 854.5783154581061 288.2 L 855.2188952743512 287.4 L 855.8594750905963 287.4 L 856.5000549068415 286.3 L 857.1406347230865 286.3 L 857.7812145393316 293.4 L 858.4217943555767 293.4 L 859.0623741718218 301.9 L 859.702953988067 301.9 L 860.3435338043121 283.3 L 860.9841136205572 283.3 L 861.6246934368022 279 L 862.2652732530473 279 L 862.9058530692924 287.6 L 863.5464328855376 287.6 L 864.1870127017827 288.5 L 864.8275925180278 288.5 L 865.4681723342728 288 L 866.108752150518 288 L 866.7493319667631 288.6 L 867.3899117830082 288.6 L 868.0304915992533 303.3 L 868.6710714154984 303.3 L 869.3116512317434 288.8 L 869.9522310479886 288.8 L 870.5928108642337 288.3 L 871.2333906804788 288.3 L 871.8739704967239 280.3 L 872.514550312969 280.3 L 873.1551301292142 270.1 L 873.7957099454592 270.1 L 874.4362897617043 294.6 L 875.0768695779494 294.6 L 875.7174493941945 300.7 L 876.3580292104397 300.7 L 876.9986090266848 280.9 L 877.6391888429298 280.9 L 878.2797686591749 280 L 878.92034847542 280 L 879.5609282916652 288.6 L 880.2015081079103 288.6 L 880.8420879241554 288.6 L 881.4826677404005 288.6 L 882.1232475566455 288.3 L 882.7638273728907 288.3 L 883.4044071891358 288.8 L 884.0449870053809 288.8 L 884.685566821626 305.8 L 885.3261466378711 305.8 L 885.9667264541162 316.5 L 886.6073062703613 316.5 L 887.2478860866064 305.9 L 887.8884659028515 288.6 L 888.5290457190966 288.6 L 889.1696255353418 287.8 L 889.8102053515868 287.8 L 890.4507851678319 262.9 L 891.091364984077 262.9 L 891.7319448003221 220.4 L 892.3725246165673 220.4 L 893.0131044328124 281.6 L 893.6536842490575 281.6 L 894.2942640653025 286.6 L 894.9348438815476 286.6 L 895.5754236977928 297.8 L 896.2160035140379 297.8 L 896.856583330283 298.8 L 897.4971631465281 298.8 L 898.1377429627731 202.4 L 898.7783227790183 202.4 L 899.4189025952634 44.1 L 900.0594824115085 44.1 L 900.7000622277536 27.4 L 901.3406420439987 27.4 L 901.9812218602439 27.4 L 902.6218016764889 27.3 L 903.262381492734 27.3 L 903.9029613089791 26.6 L 904.5435411252242 26.6 L 905.1841209414694 27.3 L 905.8247007577145 27.3 L 906.4652805739595 27.1 L 907.1058603902046 27.1 L 907.7464402064497 27.6 L 908.3870200226949 27.6 L 909.02759983894 26.8 L 909.6681796551851 26.8 L 910.3087594714301 27.1 L 910.9493392876752 27.1 L 911.5899191039204 27.9 L 912.2304989201655 27.9 L 912.8710787364106 26.7 L 913.5116585526557 26.7 L 914.1522383689008 27.6 L 914.7928181851458 27.6 L 915.433398001391 26.7 L 916.0739778176361 26.7 L 916.7145576338812 27.4 L 917.3551374501263 27.4 L 917.9957172663715 60.5 L 918.6362970826165 60.5 L 919.2768768988616 229.6 L 919.9174567151067 229.6 L 920.5580365313518 285.2 L 921.198616347597 285.2 L 921.8391961638421 287.8 L 922.4797759800872 287.8 L 923.1203557963322 287.7 L 923.7609356125773 287.7 L 924.4015154288224 292 L 925.0420952450676 292 L 925.6826750613127 311.8 L 926.3232548775578 311.8 L 926.9638346938028 316.1 L 927.604414510048 316.1 L 928.2449943262931 298.3 L 928.8855741425382 298.3 L 929.5261539587833 285.9 L 930.1667337750284 285.9 L 930.8073135912734 285.4 L 931.4478934075186 285.4 L 932.0884732237637 287.8 L 932.7290530400088 301.1 L 933.3696328562539 301.1 L 934.010212672499 293.5 L 934.6507924887442 293.5 L 935.2913723049892 275.2 L 935.9319521212343 275.2 L 936.5725319374794 282.4 L 937.2131117537245 282.4 L 937.8536915699697 287 L 938.4942713862148 287 L 939.1348512024598 288.8 L 939.7754310187049 288.8 L 940.41601083495 286.9 L 941.0565906511952 286.9 L 941.6971704674403 294 L 942.3377502836854 294 L 942.9783300999305 313.4 L 943.6189099161755 313.4 L 944.2594897324207 314.6 L 944.9000695486658 314.6 L 945.5406493649109 296 L 946.181229181156 296 L 946.8218089974011 284.7 L 947.4623888136462 284.7 L 948.1029686298913 262.9 L 948.7435484461364 262.9 L 949.3841282623815 216.8 L 950.0247080786266 216.8 L 950.6652878948718 280.8 L 951.3058677111168 280.8 L 951.9464475273619 281.1 L 952.587027343607 281.1 L 953.2276071598521 276.9 L 953.8681869760973 276.9 L 954.5087667923424 300.8 L 955.1493466085875 300.8 L 955.7899264248325 286.9 L 956.4305062410776 286.9 L 957.0710860573228 270.3 L 957.7116658735679 270.3 L 958.352245689813 279 L 958.9928255060581 279 L 959.6334053223031 285.2 L 960.2739851385483 285.2 L 960.9145649547934 284.7 L 961.5551447710385 284.7 L 962.1957245872836 286.2 L 962.8363044035287 286.2 L 963.4768842197739 287.1 L 964.1174640360189 215.5 L 964.758043852264 215.5 L 965.3986236685091 185 L 966.0392034847542 185 L 966.6797833009994 187 L 967.3203631172445 187 L 967.9609429334895 281 L 968.6015227497346 281 L 969.2421025659797 285.4 L 969.8826823822249 285.4 L 970.52326219847 291.6 L 971.1638420147151 291.6 L 971.8044218309601 301.6 L 972.4450016472052 301.6 L 973.0855814634504 287.4 L 973.7261612796955 287.4 L 974.3667410959406 277.5 L 975.0073209121857 277.5 L 975.6479007284308 288.2 L 976.2884805446758 288.2 L 976.929060360921 287.5 L 977.5696401771661 287.5 L 978.2102199934112 288.2 L 978.8507998096563 288.2 L 979.4913796259015 287.6 L 980.1319594421465 287.6 L 980.7725392583916 300.4 L 981.4131190746367 300.4 L 982.0536988908818 316 L 982.694278707127 316 L 983.3348585233721 311.5 L 983.9754383396172 311.5 L 984.6160181558622 292.3 L 985.2565979721073 292.3 L 985.8971777883525 288.6 L 986.5377576045976 288.6 L 987.1783374208427 288.6 L 987.8189172370878 288.6 L 988.4594970533328 287.9 L 989.100076869578 287.9 L 989.7406566858231 286.8 L 990.3812365020682 286.8 L 991.0218163183133 286.7 L 991.6623961345584 286.7 L 992.3029759508034 293.7 L 992.9435557670486 293.7 L 993.5841355832937 302 L 994.2247153995388 302 L 994.8652952157839 289.2 L 995.505875032029 289.2 L 996.1464548482742 288.2 L 996.7870346645192 288.2 L 997.4276144807643 287.6 L 998.0681942970094 287.6 L 998.7087741132545 303.9 L 999.3493539294997 303.9 L 999.9899337457448 317 L 1000.6305135619898 317 L 1001.2710933782349 307.8 L 1001.91167319448 291.2 L 1002.5522530107252 291.2 L 1003.1928328269703 267.5 L 1003.8334126432154 267.5 L 1004.4739924594605 216.2 L 1005.1145722757055 216.2 L 1005.7551520919507 276.3 L 1006.3957319081958 276.3 L 1007.0363117244409 278.2 L 1007.676891540686 278.2 L 1008.3174713569312 284.3 L 1008.9580511731762 284.3 L 1009.5986309894213 295.2 L 1010.2392108056664 295.2 L 1010.8797906219115 301.3 L 1011.5203704381566 301.3 L 1012.1609502544018 280.9 L 1012.8015300706468 280.9 L 1013.4421098868919 281.8 L 1014.082689703137 281.8 L 1014.7232695193821 288.6 L 1015.3638493356273 288.6 L 1016.0044291518724 288.2 L 1016.6450089681175 288.2 L 1017.2855887843625 288.2 L 1017.9261686006076 288.2 L 1018.5667484168528 288.8 L 1019.2073282330979 288.8 L 1019.847908049343 306.9 L 1020.4884878655881 306.9 L 1021.1290676818331 316.9 L 1021.7696474980783 316.9 L 1022.4102273143234 305.4 L 1023.0508071305685 305.4 L 1023.6913869468136 288.5 L 1024.3319667630587 288.5 L 1024.9725465793038 289.2 L 1025.613126395549 289.2 L 1026.253706211794 288.3 L 1026.8942860280392 287.2 L 1027.5348658442842 287.2 L 1028.1754456605292 286.6 L 1028.8160254767745 286.6 L 1029.4566052930195 298.1 L 1030.0971851092647 298.1 L 1030.7377649255097 298.6 L 1031.3783447417547 298.6 L 1032.018924558 278.9 L 1032.659504374245 278.9 L 1033.3000841904902 283.4 L 1033.9406640067352 283.4 L 1034.5812438229805 288.5 L 1035.2218236392255 288.5 L 1035.8624034554705 288.6 L 1036.5029832717157 288.6 L 1037.1435630879607 287.4 L 1037.784142904206 287.4 L 1038.424722720451 290.7 L 1039.0653025366962 290.7 L 1039.7058823529412 309.6 L 1049.7058823529412 309.6" class="highcharts-tracker highcharts-tracker" stroke-linejoin="round" visibility="visible" stroke-opacity="0.0001" stroke="rgb(192,192,192)" stroke-width="21" zIndex="2" style=""></path></g></g><g class="highcharts-axis-labels" zIndex="7"><text x="70.29411764705883" y="386" style="font-family:&quot;Lucida Grande&quot;, &quot;Lucida Sans Unicode&quot;, Verdana, Arial, Helvetica, sans-serif;font-size:11px;color:#666;cursor:default;line-height:14px;fill:#666;" text-anchor="middle" opacity="1"><tspan x="70.29411764705883">0</tspan></text><text x="134.35209927156924" y="386" style="font-family:&quot;Lucida Grande&quot;, &quot;Lucida Sans Unicode&quot;, Verdana, Arial, Helvetica, sans-serif;font-size:11px;color:#666;cursor:default;line-height:14px;fill:#666;" text-anchor="middle" opacity="1"><tspan x="134.35209927156924">100</tspan></text><text x="198.41008089607965" y="386" style="font-family:&quot;Lucida Grande&quot;, &quot;Lucida Sans Unicode&quot;, Verdana, Arial, Helvetica, sans-serif;font-size:11px;color:#666;cursor:default;line-height:14px;fill:#666;" text-anchor="middle" opacity="1"><tspan x="198.41008089607965">200</tspan></text><text x="262.4680625205901" y="386" style="font-family:&quot;Lucida Grande&quot;, &quot;Lucida Sans Unicode&quot;, Verdana, Arial, Helvetica, sans-serif;font-size:11px;color:#666;cursor:default;line-height:14px;fill:#666;" text-anchor="middle" opacity="1"><tspan x="262.4680625205901">300</tspan></text><text x="326.5260441451005" y="386" style="font-family:&quot;Lucida Grande&quot;, &quot;Lucida Sans Unicode&quot;, Verdana, Arial, Helvetica, sans-serif;font-size:11px;color:#666;cursor:default;line-height:14px;fill:#666;" text-anchor="middle" opacity="1"><tspan x="326.5260441451005">400</tspan></text><text x="390.58402576961095" y="386" style="font-family:&quot;Lucida Grande&quot;, &quot;Lucida Sans Unicode&quot;, Verdana, Arial, Helvetica, sans-serif;font-size:11px;color:#666;cursor:default;line-height:14px;fill:#666;" text-anchor="middle" opacity="1"><tspan x="390.58402576961095">500</tspan></text><text x="454.6420073941214" y="386" style="font-family:&quot;Lucida Grande&quot;, &quot;Lucida Sans Unicode&quot;, Verdana, Arial, Helvetica, sans-serif;font-size:11px;color:#666;cursor:default;line-height:14px;fill:#666;" text-anchor="middle" opacity="1"><tspan x="454.6420073941214">600</tspan></text><text x="518.6999890186319" y="386" style="font-family:&quot;Lucida Grande&quot;, &quot;Lucida Sans Unicode&quot;, Verdana, Arial, Helvetica, sans-serif;font-size:11px;color:#666;cursor:default;line-height:14px;fill:#666;" text-anchor="middle" opacity="1"><tspan x="518.6999890186319">700</tspan></text><text x="582.7579706431422" y="386" style="font-family:&quot;Lucida Grande&quot;, &quot;Lucida Sans Unicode&quot;, Verdana, Arial, Helvetica, sans-serif;font-size:11px;color:#666;cursor:default;line-height:14px;fill:#666;" text-anchor="middle" opacity="1"><tspan x="582.7579706431422">800</tspan></text><text x="646.8159522676526" y="386" style="font-family:&quot;Lucida Grande&quot;, &quot;Lucida Sans Unicode&quot;, Verdana, Arial, Helvetica, sans-serif;font-size:11px;color:#666;cursor:default;line-height:14px;fill:#666;" text-anchor="middle" opacity="1"><tspan x="646.8159522676526">900</tspan></text><text x="710.873933892163" y="386" style="font-family:&quot;Lucida Grande&quot;, &quot;Lucida Sans Unicode&quot;, Verdana, Arial, Helvetica, sans-serif;font-size:11px;color:#666;cursor:default;line-height:14px;fill:#666;" text-anchor="middle" opacity="1"><tspan x="710.873933892163">1,000</tspan></text><text x="774.9319155166734" y="386" style="font-family:&quot;Lucida Grande&quot;, &quot;Lucida Sans Unicode&quot;, Verdana, Arial, Helvetica, sans-serif;font-size:11px;color:#666;cursor:default;line-height:14px;fill:#666;" text-anchor="middle" opacity="1"><tspan x="774.9319155166734">1,100</tspan></text><text x="838.9898971411839" y="386" style="font-family:&quot;Lucida Grande&quot;, &quot;Lucida Sans Unicode&quot;, Verdana, Arial, Helvetica, sans-serif;font-size:11px;color:#666;cursor:default;line-height:14px;fill:#666;" text-anchor="middle" opacity="1"><tspan x="838.9898971411839">1,200</tspan></text><text x="903.0478787656942" y="386" style="font-family:&quot;Lucida Grande&quot;, &quot;Lucida Sans Unicode&quot;, Verdana, Arial, Helvetica, sans-serif;font-size:11px;color:#666;cursor:default;line-height:14px;fill:#666;" text-anchor="middle" opacity="1"><tspan x="903.0478787656942">1,300</tspan></text><text x="967.1058603902046" y="386" style="font-family:&quot;Lucida Grande&quot;, &quot;Lucida Sans Unicode&quot;, Verdana, Arial, Helvetica, sans-serif;font-size:11px;color:#666;cursor:default;line-height:14px;fill:#666;" text-anchor="middle" opacity="1"><tspan x="967.1058603902046">1,400</tspan></text><text x="1031.163842014715" y="386" style="font-family:&quot;Lucida Grande&quot;, &quot;Lucida Sans Unicode&quot;, Verdana, Arial, Helvetica, sans-serif;font-size:11px;color:#666;cursor:default;line-height:14px;fill:#666;" text-anchor="middle" opacity="1"><tspan x="1031.163842014715">1,500</tspan></text><text x="1095.2218236392255" y="386" style="font-family:&quot;Lucida Grande&quot;, &quot;Lucida Sans Unicode&quot;, Verdana, Arial, Helvetica, sans-serif;font-size:11px;color:#666;cursor:default;line-height:14px;fill:#666;" text-anchor="middle" opacity="1"><tspan x="1095.2218236392255">1,600</tspan></text></g><g class="highcharts-axis-labels" zIndex="7"><text x="52" y="378.115625" style="font-family:&quot;Lucida Grande&quot;, &quot;Lucida Sans Unicode&quot;, Verdana, Arial, Helvetica, sans-serif;font-size:11px;width:530px;color:#666;cursor:default;line-height:14px;fill:#666;" text-anchor="end" opacity="1"><tspan x="52">0</tspan></text><text x="52" y="317.78229166666665" style="font-family:&quot;Lucida Grande&quot;, &quot;Lucida Sans Unicode&quot;, Verdana, Arial, Helvetica, sans-serif;font-size:11px;width:530px;color:#666;cursor:default;line-height:14px;fill:#666;" text-anchor="end" opacity="1"><tspan x="52">0.1</tspan></text><text x="52" y="257.44895833333334" style="font-family:&quot;Lucida Grande&quot;, &quot;Lucida Sans Unicode&quot;, Verdana, Arial, Helvetica, sans-serif;font-size:11px;width:530px;color:#666;cursor:default;line-height:14px;fill:#666;" text-anchor="end" opacity="1"><tspan x="52">0.2</tspan></text><text x="52" y="197.115625" style="font-family:&quot;Lucida Grande&quot;, &quot;Lucida Sans Unicode&quot;, Verdana, Arial, Helvetica, sans-serif;font-size:11px;width:530px;color:#666;cursor:default;line-height:14px;fill:#666;" text-anchor="end" opacity="1"><tspan x="52">0.3</tspan></text><text x="52" y="136.78229166666662" style="font-family:&quot;Lucida Grande&quot;, &quot;Lucida Sans Unicode&quot;, Verdana, Arial, Helvetica, sans-serif;font-size:11px;width:530px;color:#666;cursor:default;line-height:14px;fill:#666;" text-anchor="end" opacity="1"><tspan x="52">0.4</tspan></text><text x="52" y="76.44895833333331" style="font-family:&quot;Lucida Grande&quot;, &quot;Lucida Sans Unicode&quot;, Verdana, Arial, Helvetica, sans-serif;font-size:11px;width:530px;color:#666;cursor:default;line-height:14px;fill:#666;" text-anchor="end" opacity="1"><tspan x="52">0.5</tspan></text><text x="52" y="16.115625" style="font-family:&quot;Lucida Grande&quot;, &quot;Lucida Sans Unicode&quot;, Verdana, Arial, Helvetica, sans-serif;font-size:11px;width:530px;color:#666;cursor:default;line-height:14px;fill:#666;" text-anchor="end" opacity="1"><tspan x="52">0.6</tspan></text></g><g class="highcharts-tooltip" zIndex="8" style="cursor:default;padding:0;white-space:nowrap;" visibility="hidden" transform="translate(157,135)" opacity="0"><rect rx="3" ry="3" fill="none" x="0.5" y="0.5" width="374" height="44.203125" fill-opacity="0.85" isShadow="true" stroke="black" stroke-opacity="0.049999999999999996" stroke-width="5" transform="translate(1, 1)"></rect><rect rx="3" ry="3" fill="none" x="0.5" y="0.5" width="374" height="44.203125" fill-opacity="0.85" isShadow="true" stroke="black" stroke-opacity="0.09999999999999999" stroke-width="3" transform="translate(1, 1)"></rect><rect rx="3" ry="3" fill="none" x="0.5" y="0.5" width="374" height="44.203125" fill-opacity="0.85" isShadow="true" stroke="black" stroke-opacity="0.15" stroke-width="1" transform="translate(1, 1)"></rect><rect rx="3" ry="3" fill="rgb(255,255,255)" x="0.5" y="0.5" width="374" height="44.203125" fill-opacity="0.85" stroke="#2f7ed8" stroke-width="1" anchorX="-11.435053368802897" anchorY="28.592293739318848"></rect><text x="8" y="21" style="font-family:&quot;Lucida Grande&quot;, &quot;Lucida Sans Unicode&quot;, Verdana, Arial, Helvetica, sans-serif;font-size:12px;color:#333333;fill:#333333;" zIndex="1"><tspan style="font-size: 10px" x="8">118</tspan><tspan style="fill:#2f7ed8" x="8" dy="16">exp8 addEventListener $ _ Backbone</tspan><tspan dx="0">: </tspan><tspan style="font-weight:bold" dx="0">0.3465629053177691</tspan></text></g><text x="1110" y="395" style="font-family:&quot;Lucida Grande&quot;, &quot;Lucida Sans Unicode&quot;, Verdana, Arial, Helvetica, sans-serif;font-size:9px;cursor:pointer;color:#909090;fill:#909090;" text-anchor="end" zIndex="8"><tspan x="1110">Highcharts.com</tspan></text></svg>