<?xml version="1.0" encoding="UTF-8" standalone="no"?>
<svg width="1122px" height="404px" viewBox="0 0 1122 404" version="1.1" xmlns="http://www.w3.org/2000/svg" xmlns:xlink="http://www.w3.org/1999/xlink" xmlns:sketch="http://www.bohemiancoding.com/sketch/ns">
    <!-- Generator: Sketch 3.1.1 (8761) - http://www.bohemiancoding.com/sketch -->
    <title>Untitled 4</title>
    <desc>Created with Sketch.</desc>
    <defs>
        <rect id="path-1" x="0" y="0" width="1050" height="361"></rect>
    </defs>
    <g id="Page-1" stroke="none" stroke-width="1" fill="none" fill-rule="evenodd" sketch:type="MSPage">
        <g id="js_scripts" sketch:type="MSLayerGroup" transform="translate(1.000000, 1.000000)">
            <rect id="Rectangle-path" fill="#FFFFFF" sketch:type="MSShapeGroup" x="0" y="2" width="1120" height="400" rx="5"></rect>
            <rect id="Rectangle-7" fill-opacity="0.3" fill="#D0011B" sketch:type="MSShapeGroup" x="299" y="12" width="53" height="362"></rect>
            <rect id="Rectangle-8" fill-opacity="0.4" fill="#7ED321" sketch:type="MSShapeGroup" x="557" y="12" width="53" height="362"></rect>
            <rect id="Rectangle-9" fill-opacity="0.3" fill="#4990E2" sketch:type="MSShapeGroup" x="811" y="12" width="53" height="362"></rect>
            <g id="Group" transform="translate(60.000000, 13.000000)" stroke="#C0C0C0" sketch:type="MSShapeGroup">
                <path d="M0,301.5 L1050,301.5" id="Shape"></path>
                <path d="M0,240.5 L1050,240.5" id="Shape"></path>
                <path d="M0,180.5 L1050,180.5" id="Shape"></path>
                <path d="M0,120.5 L1050,120.5" id="Shape"></path>
                <path d="M0,59.5 L1050,59.5" id="Shape"></path>
                <path d="M0,-0.5 L1050,-0.5" id="Shape"></path>
                <path d="M0,360.5 L1050,360.5" id="Shape"></path>
            </g>
            <g id="Group" transform="translate(60.000000, 374.000000)" stroke="#C0D0E0" sketch:type="MSShapeGroup">
                <path d="M73.5,0 L73.5,5" id="Shape"></path>
                <path d="M137.5,0 L137.5,5" id="Shape"></path>
                <path d="M201.5,0 L201.5,5" id="Shape"></path>
                <path d="M266.5,0 L266.5,5" id="Shape"></path>
                <path d="M330.5,0 L330.5,5" id="Shape"></path>
                <path d="M394.5,0 L394.5,5" id="Shape"></path>
                <path d="M458.5,0 L458.5,5" id="Shape"></path>
                <path d="M522.5,0 L522.5,5" id="Shape"></path>
                <path d="M586.5,0 L586.5,5" id="Shape"></path>
                <path d="M650.5,0 L650.5,5" id="Shape"></path>
                <path d="M714.5,0 L714.5,5" id="Shape"></path>
                <path d="M778.5,0 L778.5,5" id="Shape"></path>
                <path d="M842.5,0 L842.5,5" id="Shape"></path>
                <path d="M906.5,0 L906.5,5" id="Shape"></path>
                <path d="M970.5,0 L970.5,5" id="Shape"></path>
                <path d="M1034.5,0 L1034.5,5" id="Shape"></path>
                <path d="M9.5,0 L9.5,5" id="Shape"></path>
                <path d="M0,-0.5 L1050,-0.5" id="Shape"></path>
            </g>
            <g id="Group" transform="translate(7.000000, 194.406250) rotate(270.000000) translate(-7.000000, -194.406250) translate(-21.000000, 187.406250)" font-size="12" font-family="Helvetica" fill="#4D759E" sketch:type="MSTextLayer" font-weight="normal">
                <text id="Amperage">
                    <tspan x="-0.40625" y="11" fill="#000000">Amperage</tspan>
                </text>
            </g>
            <g id="Group" transform="translate(0.000000, 2.000000)">
                <g id="Clipped">
                    <mask id="mask-2" sketch:name="Rectangle-path" fill="white">
                        <use xlink:href="#path-1"></use>
                    </mask>
                    <g id="Rectangle-path"></g>
                    <g id="Group" mask="url(#mask-2)" stroke="#2F7ED8" stroke-width="4" sketch:type="MSShapeGroup">
                        <g transform="translate(70.000000, 36.000000)" id="Shape">
                            <path d="M0.294117647,274.7 L0.934697463,263.2 L1.57527728,263.2 L2.2158571,263.6 L2.85643691,263 L3.49701673,263 L4.13759654,262.6 L4.77817636,262.6 L5.41875618,262.1 L6.05933599,262.1 L6.69991581,264.4 L7.34049563,264.4 L7.98107544,276.7 L8.62165526,276.7 L9.26223507,269 L9.90281489,269 L10.5433947,252.8 L11.1839745,252.8 L11.8245543,225.8 L12.4651342,225.8 L13.105714,222.3 L13.7462938,222.3 L14.3868736,260.2 L15.0274534,260.2 L15.6680332,270.6 L16.3086131,270.6 L16.9491929,290.9 L17.5897727,290.9 L18.2303525,287.4 L18.8709323,287.4 L19.5115121,265.8 L20.152092,265.8 L20.7926718,260.2 L21.4332516,260.2 L22.0738314,261.5 L22.7144112,261.5 L23.354991,262.6 L23.9955708,263.2 L24.6361507,263.2 L25.2767305,261.8 L25.9173103,261.8 L26.5578901,266.9 L27.1984699,266.9 L27.8390497,277.3 L28.4796296,277.3 L29.1202094,263.1 L29.7607892,263.1 L30.401369,216.3 L31.0419488,216.3 L31.6825286,191.6 L32.3231085,191.6 L32.9636883,242.5 L33.6042681,242.5 L34.2448479,261.4 L34.8854277,261.4 L35.5260075,262.3 L36.1665874,262.3 L36.8071672,273.6 L37.447747,273.6 L38.0883268,291.3 L38.7289066,291.3 L39.3694864,288.3 L40.0100663,288.3 L40.6506461,269 L41.2912259,269 L41.9318057,264.4 L42.5723855,264.4 L43.2129653,261.4 L43.8535452,261.4 L44.494125,268.8 L45.1347048,268.8 L45.7752846,276.7 L46.4158644,276.7 L47.0564442,261 L47.697024,261 L48.3376039,254.9 L48.9781837,254.9 L49.6187635,263.7 L50.2593433,263.7 L50.8999231,262.6 L51.5405029,262.6 L52.1810828,263.4 L52.8216626,263.4 L53.4622424,262.9 L54.1028222,262.9 L54.743402,277.6 L55.3839818,292 L56.0245617,292 L56.6651415,285.1 L57.3057213,285.1 L57.9463011,266.9 L58.5868809,266.9 L59.2274607,263.5 L59.8680406,263.5 L60.5086204,264 L61.1492002,264 L61.78978,262.6 L62.4303598,262.6 L63.0709396,263.1 L63.7115195,263.1 L64.3520993,261.1 L64.9926791,261.1 L65.6332589,270.2 L66.2738387,270.2 L66.9144185,276.7 L67.5549984,276.7 L68.1955782,258.3 L68.836158,258.3 L69.4767378,255.9 L70.1173176,255.9 L70.7578974,223.7 L71.3984773,223.7 L72.0390571,220.2 L72.6796369,220.2 L73.3202167,255.7 L73.9607965,255.7 L74.6013763,209.7 L75.2419561,209.7 L75.882536,126.9 L76.5231158,126.9 L77.1636956,107.1 L77.8042754,107.1 L78.4448552,102.4 L79.085435,102.4 L79.7260149,125.4 L80.3665947,125.4 L81.0071745,210.2 L81.6477543,210.2 L82.2883341,152.9 L82.9289139,152.9 L83.5694938,121.5 L84.2100736,121.5 L84.8506534,124.4 L85.4912332,124.4 L86.131813,102.8 L86.7723928,102.8 L87.4129727,123.5 L88.0535525,123.5 L88.6941323,138.6 L89.3347121,138.6 L89.9752919,123.5 L90.6158717,123.5 L91.2564516,114 L91.8970314,114 L92.5376112,116.4 L93.178191,116.4 L93.8187708,175.9 L94.4593506,208.6 L95.0999305,208.6 L95.7405103,192.8 L96.3810901,192.8 L97.0216699,130.1 L97.6622497,130.1 L98.3028295,101.1 L98.9434093,101.1 L99.5839892,108.7 L100.224569,108.7 L100.865149,102.1 L101.505729,102.1 L102.146308,100.7 L102.786888,100.7 L103.427468,104.9 L104.068048,104.9 L104.708628,124.8 L105.349208,124.8 L105.989787,97.1 L106.630367,98.2 L107.270947,98.2 L107.911527,101 L108.552107,101 L109.192686,104.6 L109.833266,104.6 L110.473846,104.5 L111.114426,104.5 L111.755006,129.7 L112.395585,129.7 L113.036165,197.8 L113.676745,197.8 L114.317325,207 L114.957905,207 L115.598485,190.3 L116.239064,190.3 L116.879644,173.3 L117.520224,173.3 L118.160804,178.3 L118.801384,178.3 L119.441963,180.3 L120.082543,180.3 L120.723123,181.8 L121.363703,181.8 L122.004283,180.9 L122.644863,180.9 L123.285442,146 L123.926022,146 L124.566602,25.4 L125.207182,25.4 L125.847762,0.8 L126.488341,0.8 L127.128921,0.8 L127.769501,0.8 L128.410081,1.9 L129.050661,1.9 L129.691241,1.1 L130.33182,1.1 L130.9724,1.4 L131.61298,1.4 L132.25356,7.4 L132.89414,138.2 L133.534719,138.2 L134.175299,271.4 L134.815879,271.4 L135.456459,263.2 L136.097039,263.2 L136.737619,257.9 L137.378198,255.7 L138.018778,256 L138.659358,256 L139.299938,256.8 L139.940518,256.8 L140.581097,261.9 L141.221677,261.9 L141.862257,275.2 L142.502837,275.2 L143.143417,263.2 L143.783996,263.2 L144.424576,244.4 L145.065156,244.4 L145.705736,250 L146.346316,250 L146.986896,216.7 L147.627475,216.7 L148.268055,244 L148.908635,244 L149.549215,248.7 L150.189795,248.7 L150.830374,264.4 L151.470954,264.4 L152.111534,287.6 L152.752114,287.6 L153.392694,287 L154.033274,287 L154.673853,264.6 L155.314433,264.6 L155.955013,255.1 L156.595593,255.1 L157.236173,256.6 L157.876752,256.6 L158.517332,256.4 L159.157912,256.4 L159.798492,256.4 L160.439072,256.4 L161.079652,256.3 L161.720231,256.3 L162.360811,263.8 L163.001391,263.8 L163.641971,275.4 L164.282551,275.4 L164.92313,260.2 L165.56371,246.1 L166.20429,246.1 L166.84487,254.5 L167.48545,254.5 L168.12603,255.8 L168.766609,271.4 L169.407189,289.7 L170.047769,289.7 L170.688349,285.2 L171.328929,285.2 L171.969508,260.2 L172.610088,260.2 L173.250668,256.5 L173.891248,256.5 L174.531828,255.8 L175.172407,255.8 L175.812987,256.4 L176.453567,256.4 L177.094147,256.2 L177.734727,256.2 L178.375307,257.2 L179.015886,257.2 L179.656466,265.8 L180.297046,265.8 L180.937626,276 L181.578206,276 L182.218785,254.1 L182.859365,254.1 L183.499945,195.1 L184.140525,195.1 L184.781105,221.2 L185.421685,221.2 L186.062264,257.1 L186.702844,257.1 L187.343424,256.8 L187.984004,256.8 L188.624584,253.8 L189.265163,253.8 L189.905743,258.2 L190.546323,258.2 L191.186903,287.5 L191.827483,287.5 L192.468063,281.3 L193.108642,281.3 L193.749222,256.1 L194.389802,256.1 L195.030382,251.6 L195.670962,252.1 L196.311541,252.1 L196.952121,253.3 L197.592701,253.3 L198.233281,253.2 L198.873861,253.2 L199.51444,253.6 L200.15502,238.9 L200.7956,236.1 L201.43618,236.1 L202.07676,248 L202.71734,248 L203.357919,250.2 L203.998499,250.2 L204.639079,259.2 L205.279659,259.2 L205.920239,261.8 L206.560818,261.8 L207.201398,280.1 L207.841978,280.1 L208.482558,290.8 L209.123138,290.8 L209.763718,281 L210.404297,281 L211.044877,264.3 L211.685457,264.3 L212.326037,263.6 L212.966617,263.6 L213.607196,262.8 L214.247776,262.8 L214.888356,252 L215.528936,252 L216.169516,208.5 L216.810096,208.5 L217.450675,251.4 L218.091255,251.4 L218.731835,271.9 L219.372415,271.9 L220.012995,273.2 L220.653574,273.2 L221.294154,252.5 L221.934734,252.5 L222.575314,255.6 L223.215894,255.6 L223.856474,262.5 L224.497053,262.5 L225.137633,263.4 L225.778213,263.4 L226.418793,262.3 L227.059373,264.4 L227.699952,264.4 L228.340532,283.6 L228.981112,283.6 L229.621692,290.1 L230.262272,290.1 L230.902851,277.7 L231.543431,261 L232.184011,263.7 L232.824591,263.7 L233.465171,262.9 L234.105751,262.9 L234.74633,262 L235.38691,262 L236.02749,262.5 L236.66807,262.5 L237.30865,261.5 L237.949229,261.5 L238.589809,273.2 L239.230389,270.3 L239.870969,270.3 L240.511549,202.7 L241.152129,202.7 L241.792708,213.9 L242.433288,213.9 L243.073868,260.6 L243.714448,260.6 L244.355028,240.5 L244.995607,240.5 L245.636187,252.8 L246.276767,252.8 L246.917347,262.5 L247.557927,262.5 L248.198507,283.8 L248.839086,283.8 L249.479666,255.8 L250.120246,255.8 L250.760826,89.7 L251.401406,89.7 L252.041985,61.4 L252.682565,61.4 L253.323145,67.6 L253.963725,67.6 L254.604305,80.1 L255.244885,80.1 L255.885464,69.8 L256.526044,69.8 L257.166624,16.4 L257.807204,16.4 L258.447784,2.3 L259.088363,2.3 L259.728943,35.1 L260.369523,35.1 L261.010103,108.6 L261.650683,108.6 L262.291262,216.6 L262.931842,253.6 L263.572422,250.7 L264.213002,250.7 L264.853582,219.1 L265.494162,249.7 L266.134741,249.7 L266.775321,206.5 L267.415901,206.5 L268.056481,234.5 L268.697061,234.5 L269.33764,284.8 L269.97822,284.8 L270.6188,262 L271.25938,262 L271.89996,256 L272.54054,256 L273.181119,255.7 L273.821699,255.7 L274.462279,256.5 L275.102859,256.5 L275.743439,242.8 L276.384018,242.8 L277.024598,240.1 L277.665178,240.1 L278.305758,240.2 L278.946338,240.2 L279.586918,273.5 L280.227497,273.5 L280.868077,256 L281.508657,256 L282.149237,241.1 L282.789817,241.1 L283.430396,250.5 L284.070976,250.5 L284.711556,253.3 L285.352136,253.3 L285.992716,252.6 L286.633296,252.6 L287.273875,253 L287.914455,253 L288.555035,237.6 L289.195615,237.6 L289.836195,277.6 L290.476774,277.6 L291.117354,282.1 L291.757934,282.1 L292.398514,262.5 L293.039094,262.5 L293.679673,261.8 L294.320253,261.9 L294.960833,261.9 L295.601413,260.5 L296.241993,260.5 L296.882573,244.1 L297.523152,244.1 L298.163732,216.2 L298.804312,216.2 L299.444892,226.7 L300.085472,226.7 L300.726051,188.8 L301.366631,188.8 L302.007211,208.6 L302.647791,208.6 L303.288371,258.7 L303.928951,258.7 L304.56953,262.3 L305.21011,262.3 L305.85069,261.3 L306.49127,261.3 L307.13185,257.2 L307.772429,257.2 L308.413009,242 L309.053589,242 L309.694169,282.1 L310.334749,282.1 L310.975329,279.5 L311.615908,279.5 L312.256488,259.9 L312.897068,259.9 L313.537648,260.6 L314.178228,260.6 L314.818807,263 L315.459387,263 L316.099967,261.8 L316.740547,261.8 L317.381127,260.6 L318.021707,260.6 L318.662286,246.8 L319.302866,254.7 L319.943446,254.7 L320.584026,273.4 L321.224606,273.4 L321.865185,251.4 L322.505765,251.4 L323.146345,252.9 L323.786925,252.9 L324.427505,262.1 L325.068084,262.1 L325.708664,261.7 L326.349244,261.7 L326.989824,257.1 L327.630404,257.1 L328.270984,253 L328.911563,253 L329.552143,276.2 L330.192723,276.2 L330.833303,279 L331.473883,279 L332.114462,253.3 L332.755042,253.3 L333.395622,261.4 L334.036202,261.4 L334.676782,262.6 L335.317362,262.2 L335.957941,262.2 L336.598521,261 L337.239101,261 L337.879681,242.7 L338.520261,242.7 L339.16084,259.4 L339.80142,259.4 L340.442,274.9 L341.08258,274.9 L341.72316,253 L342.36374,253 L343.004319,254 L343.644899,254 L344.285479,263.2 L344.926059,263.2 L345.566639,262 L346.207218,262 L346.847798,262.2 L347.488378,262.2 L348.128958,254.5 L348.769538,254.5 L349.410118,259.3 L350.050697,259.3 L350.691277,290.2 L351.331857,290.2 L351.972437,279.5 L352.613017,279.5 L353.253596,263.5 L353.894176,263.5 L354.534756,262.8 L355.175336,262.8 L355.815916,263.5 L356.456495,263.5 L357.097075,260.4 L357.737655,242.6 L358.378235,242.6 L359.018815,265.8 L359.659395,265.8 L360.299974,224.1 L360.940554,224.1 L361.581134,199.6 L362.221714,199.6 L362.862294,252.4 L363.502873,252.4 L364.143453,255.1 L364.784033,255.1 L365.424613,262.3 L366.065193,262.3 L366.705773,261.9 L367.346352,261.9 L367.986932,255.6 L368.627512,255.6 L369.268092,269.2 L369.908672,269.2 L370.549251,288.9 L371.189831,288.9 L371.830411,199.4 L372.470991,199.4 L373.111571,23.2 L373.752151,23.2 L374.39273,1.1 L375.03331,1.1 L375.67389,0.9 L376.31447,0.9 L376.95505,0.8 L377.595629,0.8 L378.236209,1.7 L378.876789,1.7 L379.517369,0.4 L380.157949,0.4 L380.798528,1.6 L381.439108,1.6 L382.079688,1.1 L382.720268,1.1 L383.360848,1.6 L384.001428,0.8 L384.642007,0.8 L385.282587,1.3 L385.923167,1.3 L386.563747,1.3 L387.204327,1.3 L387.844906,1.1 L388.485486,1.6 L389.126066,1.1 L389.766646,1.1 L390.407226,1.1 L391.047806,1.1 L391.688385,38.8 L392.328965,38.8 L392.969545,206.2 L393.610125,206.2 L394.250705,253.7 L394.891284,253.7 L395.531864,242.9 L396.172444,242.9 L396.813024,254.9 L397.453604,254.9 L398.094184,252.2 L398.734763,252.2 L399.375343,229.9 L400.015923,229.9 L400.656503,185.5 L401.297083,185.5 L401.937662,249.8 L402.578242,249.8 L403.218822,247.4 L403.859402,247.4 L404.499982,256.6 L405.140562,256.6 L405.781141,261.1 L406.421721,261.1 L407.062301,261.4 L407.702881,261.4 L408.343461,260.8 L408.98404,251.2 L409.62462,251.2 L410.2652,278 L410.90578,278 L411.54636,285.8 L412.186939,285.8 L412.827519,262.8 L413.468099,262.8 L414.108679,259 L414.749259,259 L415.389839,260.7 L416.030418,260.7 L416.670998,261.4 L417.311578,261.4 L417.952158,261.4 L418.592738,261.4 L419.233317,254.4 L419.873897,247.7 L420.514477,231.5 L421.155057,231.5 L421.795637,215.3 L422.436217,215.3 L423.076796,244.6 L423.717376,244.6 L424.357956,257.9 L424.998536,257.9 L425.639116,260.4 L426.279695,260.4 L426.920275,260.9 L427.560855,260.1 L428.201435,260.1 L428.842015,252.6 L429.482595,252.6 L430.123174,283.4 L430.763754,283.4 L431.404334,281.6 L432.044914,281.6 L432.685494,262.3 L433.326073,262.3 L433.966653,261.7 L434.607233,261.7 L435.247813,262.5 L435.888393,262.5 L436.528973,263.2 L437.169552,263.2 L437.810132,261.2 L438.450712,261.2 L439.091292,250.2 L439.731872,250.2 L440.372451,249.4 L441.013031,249.4 L441.653611,194.7 L442.294191,194.7 L442.934771,136.6 L443.57535,136.6 L444.21593,238.2 L444.85651,238.2 L445.49709,257.9 L446.13767,257.9 L446.77825,260.9 L447.418829,260.9 L448.059409,262.5 L448.699989,262.5 L449.340569,258.4 L449.981149,258.4 L450.621728,255.4 L451.262308,261.3 L451.902888,262.5 L452.543468,262.5 L453.184048,262.9 L453.824628,262.9 L454.465207,263 L455.105787,263 L455.746367,261.9 L456.386947,261.9 L457.027527,247.2 L457.668106,247.2 L458.308686,257.9 L458.949266,257.9 L459.589846,272 L460.230426,272 L460.871006,251 L461.511585,251 L462.152165,252 L462.792745,252 L463.433325,262.5 L464.073905,262.5 L464.714484,264 L465.355064,264 L465.995644,262.1 L466.636224,262.1 L467.276804,257.2 L467.917384,257.2 L468.557963,259.1 L469.198543,259.1 L469.839123,288.4 L470.479703,288.4 L471.120283,281.8 L471.760862,263 L472.401442,263 L473.042022,262.3 L473.682602,262.3 L474.323182,263.3 L474.963761,263.3 L475.604341,262.3 L476.244921,262.3 L476.885501,262 L477.526081,262 L478.166661,244.3 L478.80724,244.3 L479.44782,218.2 L480.0884,218.2 L480.72898,216.4 L481.36956,216.4 L482.010139,251.1 L482.650719,262.5 L483.291299,261.9 L483.931879,261.9 L484.572459,256 L485.213039,256 L485.853618,265.3 L486.494198,265.3 L487.134778,287.8 L487.775358,287.8 L488.415938,272.4 L489.056517,272.4 L489.697097,253.1 L490.337677,253.1 L490.978257,258.7 L491.618837,263.5 L492.259417,263.5 L492.899996,262.2 L493.540576,262.2 L494.181156,258.8 L494.821736,258.8 L495.462316,174.8 L496.102895,174.8 L496.743475,171.2 L497.384055,171.2 L498.024635,266.2 L498.665215,266.2 L499.305795,239.3 L499.946374,239.3 L500.586954,252.6 L501.227534,252.6 L501.868114,260.9 L502.508694,260.9 L503.149273,263 L503.789853,263 L504.430433,262.2 L505.071013,262.2 L505.711593,253.9 L506.352172,253.9 L506.992752,268.6 L507.633332,268.6 L508.273912,287.7 L508.914492,287.7 L509.555072,269.9 L510.195651,269.9 L510.836231,260.6 L511.476811,260.6 L512.117391,257.4 L512.757971,257.4 L513.39855,131.8 L514.03913,126.8 L514.67971,126.8 L515.32029,228.3 L515.96087,228.3 L516.60145,264 L517.242029,264 L517.882609,257.2 L518.523189,257.2 L519.163769,242.8 L519.804349,242.8 L520.444928,249.5 L521.085508,249.5 L521.726088,255.3 L522.366668,255.3 L523.007248,257.5 L523.647828,257.5 L524.288407,261.8 L524.928987,261.8 L525.569567,249.1 L526.210147,249.1 L526.850727,269.8 L527.491306,269.8 L528.131886,286.5 L528.772466,286.5 L529.413046,266.3 L530.053626,266.3 L530.694205,260.2 L531.334785,260.2 L531.975365,261.8 L532.615945,261.8 L533.256525,261.8 L533.897105,261.8 L534.537684,262.1 L535.178264,262.1 L535.818844,259 L536.459424,259 L537.100004,210.3 L537.740583,210.3 L538.381163,214.1 L539.021743,214.1 L539.662323,264.9 L540.302903,264.9 L540.943483,245.7 L541.584062,245.7 L542.224642,257.9 L542.865222,257.9 L543.505802,252.9 L544.146382,252.9 L544.786961,225.4 L545.427541,287.5 L546.068121,287.5 L546.708701,268.3 L547.349281,268.3 L547.989861,261.7 L548.63044,261.7 L549.27102,261.2 L549.9116,261.2 L550.55218,261 L551.19276,261 L551.833339,260.7 L552.473919,260.7 L553.114499,254.3 L553.755079,254.3 L554.395659,248.7 L555.036239,248.7 L555.676818,274.4 L556.317398,274.4 L556.957978,256.1 L557.598558,256.1 L558.239138,248.9 L558.879717,248.9 L559.520297,260.5 L560.160877,260.5 L560.801457,261.9 L561.442037,261.9 L562.082616,261.8 L562.723196,261.8 L563.363776,260.6 L564.004356,260.6 L564.644936,253.7 L565.285516,253.7 L565.926095,283.9 L566.566675,283.9 L567.207255,283.4 L567.847835,283.4 L568.488415,263.4 L569.128994,263.4 L569.769574,261.8 L570.410154,261.8 L571.050734,262 L571.691314,262 L572.331894,262.3 L572.972473,262.3 L573.613053,251.4 L574.253633,251.4 L574.894213,239.5 L575.534793,239.5 L576.175372,254.9 L576.815952,247.6 L577.456532,258.3 L578.097112,258.3 L578.737692,261.2 L579.378272,261.2 L580.018851,262.5 L580.659431,260.1 L581.300011,260.1 L581.940591,259 L582.581171,259 L583.22175,288.3 L583.86233,288.3 L584.50291,284.3 L585.14349,284.3 L585.78407,263.2 L586.42465,263.2 L587.065229,262.9 L587.705809,262.9 L588.346389,262.2 L588.986969,262.2 L589.627549,262.6 L590.268128,262.6 L590.908708,261.8 L591.549288,261.8 L592.189868,207.8 L592.830448,207.8 L593.471027,229.3 L594.111607,229.3 L594.752187,275.9 L595.392767,275.9 L596.033347,254.4 L596.673927,254.4 L597.314506,251.5 L597.955086,251.5 L598.595666,259.9 L599.236246,259.9 L599.876826,262.1 L600.517405,262.1 L601.157985,262.2 L601.798565,262.2 L602.439145,253.3 L603.079725,253.3 L603.720305,168.5 L604.360884,168.5 L605.001464,229.6 L605.642044,229.6 L606.282624,281.8 L606.923204,281.8 L607.563783,260.6 L608.204363,261.8 L608.844943,262.1 L609.485523,262.1 L610.126103,242.5 L610.766683,242.5 L611.407262,233.8 L612.047842,233.8 L612.688422,236.1 L613.329002,236.1 L613.969582,243.2 L614.610161,243.2 L615.250741,255.6 L615.891321,255.6 L616.531901,262.8 L617.172481,262.8 L617.813061,262.6 L618.45364,262.6 L619.09422,262.6 L619.7348,262.6 L620.37538,259.9 L621.01596,259.9 L621.656539,272.4 L622.297119,272.4 L622.937699,290.4 L623.578279,273.7 L624.218859,273.7 L624.859438,261 L625.500018,261 L626.140598,262.6 L626.781178,262.6 L627.421758,262.1 L628.062338,262.1 L628.702917,262.3 L629.343497,262.3 L629.984077,257.2 L630.624657,257.2 L631.265237,164 L631.905816,164 L632.546396,78.7 L633.186976,78.7 L633.827556,45.8 L634.468136,45.8 L635.108716,40.3 L635.749295,40.3 L636.389875,44.8 L637.030455,44.8 L637.671035,51.1 L638.311615,51.1 L638.952194,45.1 L639.592774,13.5 L640.233354,0.7 L640.873934,0.8 L641.514514,0.8 L642.155094,1.7 L642.795673,1.7 L643.436253,1.4 L644.076833,1.4 L644.717413,1.1 L645.357993,1.1 L645.998572,1 L646.639152,1 L647.279732,1.4 L647.920312,1.4 L648.560892,1.6 L649.201472,1.6 L649.842051,12.6 L650.482631,12.6 L651.123211,147.5 L651.763791,147.5 L652.404371,265.4 L653.04495,265.4 L653.68553,268.2 L654.32611,268.2 L654.96669,247.6 L655.60727,247.6 L656.247849,251.5 L656.888429,251.5 L657.529009,254.6 L658.169589,254.6 L658.810169,255.5 L659.450749,255.5 L660.091328,249.5 L660.731908,249.5 L661.372488,207.9 L662.013068,207.9 L662.653648,268.6 L663.294227,268.6 L663.934807,288.5 L664.575387,288.5 L665.215967,254.2 L665.856547,254.2 L666.497127,217.8 L667.137706,217.8 L667.778286,256.9 L668.418866,256.9 L669.059446,256.1 L669.700026,256.1 L670.340605,255.6 L670.981185,258.4 L671.621765,258.4 L672.262345,248 L672.902925,248 L673.543505,256.2 L674.184084,256.2 L674.824664,257.2 L675.465244,257.2 L676.105824,256.1 L676.746404,256.1 L677.386983,256.4 L678.027563,256.4 L678.668143,268 L679.308723,268 L679.949303,289 L680.589882,289 L681.230462,287.8 L681.871042,287.8 L682.511622,269.4 L683.152202,269.4 L683.792782,260.5 L684.433361,260.5 L685.073941,259.4 L685.714521,259.4 L686.355101,258.3 L686.995681,258.3 L687.63626,256.8 L688.27684,256.8 L688.91742,257.9 L689.558,257.9 L690.19858,247.8 L690.83916,247.8 L691.479739,235.1 L692.120319,235.1 L692.760899,241.3 L693.401479,241.3 L694.042059,249.2 L694.682638,249.2 L695.323218,259.1 L695.963798,259.1 L696.604378,257.9 L697.244958,257.9 L697.885538,257.9 L698.526117,257.9 L699.166697,256.9 L699.807277,256.9 L700.447857,272.1 L701.088437,272.1 L701.729016,289.1 L702.369596,259.8 L703.010176,259.8 L703.650756,257.9 L704.291336,257.9 L704.931916,225.8 L705.572495,225.8 L706.213075,194.8 L706.853655,194.8 L707.494235,263.2 L708.134815,263.2 L708.775394,259.6 L709.415974,259.6 L710.056554,220.4 L710.697134,220.4 L711.337714,246.3 L711.978293,246.3 L712.618873,258.2 L713.259453,258.2 L713.900033,258.7 L714.540613,258.7 L715.181193,256.7 L715.821772,256.7 L716.462352,258.5 L717.102932,258.5 L717.743512,275.6 L718.384092,275.6 L719.024671,290.9 L719.665251,290.9 L720.305831,284.2 L720.946411,284.2 L721.586991,264.9 L722.227571,264.9 L722.86815,261.6 L723.50873,261.6 L724.14931,259.8 L724.78989,259.8 L725.43047,233.5 L726.071049,233.5 L726.711629,133.9 L727.352209,133.9 L727.992789,223.5 L728.633369,223.5 L729.273949,243.3 L729.914528,243.3 L730.555108,234 L731.195688,234 L731.836268,241.8 L732.476848,241.8 L733.117427,252 L733.758007,258.9 L734.398587,248.7 L735.039167,248.7 L735.679747,269.7 L736.320327,269.7 L736.960906,290.1 L737.601486,290.1 L738.242066,280.7 L738.882646,280.7 L739.523226,262 L740.163805,262 L740.804385,259.9 L741.444965,259.9 L742.085545,260 L742.726125,260 L743.366704,258.9 L744.007284,258.9 L744.647864,259.2 L745.288444,259.2 L745.929024,259.9 L746.569604,270.9 L747.210183,270.9 L747.850763,273.9 L748.491343,273.9 L749.131923,253.7 L749.772503,253.7 L750.413082,254.4 L751.053662,254.4 L751.694242,260.2 L752.334822,260.2 L752.975402,253 L753.615982,253 L754.256561,232.7 L754.897141,232.7 L755.537721,258.7 L756.178301,258.7 L756.818881,283.6 L757.45946,283.6 L758.10004,289.3 L758.74062,289.3 L759.3812,274.6 L760.02178,274.6 L760.66236,256.8 L761.302939,256.8 L761.943519,256.7 L762.584099,256.7 L763.224679,260.1 L763.865259,260.1 L764.505838,231.2 L765.146418,194.6 L765.786998,194.6 L766.427578,28.5 L767.068158,28.5 L767.708738,6.2 L768.349317,6.2 L768.989897,118.1 L769.630477,118.1 L770.271057,243 L770.911637,243 L771.552216,253.1 L772.192796,253.1 L772.833376,253.7 L773.473956,253.7 L774.114536,254.2 L774.755115,254.2 L775.395695,248.5 L776.036275,248.5 L776.676855,269.5 L777.317435,269.5 L777.958015,289.4 L778.598594,289.4 L779.239174,273.6 L779.879754,273.6 L780.520334,261.5 L781.160914,261.5 L781.801493,263.5 L782.442073,263.5 L783.082653,262 L783.723233,261.4 L784.363813,261.4 L785.004393,260.7 L785.644972,260.7 L786.285552,254.6 L786.926132,254.6 L787.566712,243.8 L788.207292,243.8 L788.847871,225.7 L789.488451,225.7 L790.129031,240 L790.769611,240 L791.410191,250.1 L792.050771,250.1 L792.69135,258.7 L793.33193,258.7 L793.97251,261.7 L794.61309,261.7 L795.25367,261.6 L795.894249,261.6 L796.534829,279.7 L797.175409,279.7 L797.815989,286.5 L798.456569,286.5 L799.097149,264.4 L799.737728,264.4 L800.378308,260.6 L801.018888,262.6 L801.659468,262.6 L802.300048,262.6 L802.940627,262.6 L803.581207,260.6 L804.221787,260.6 L804.862367,260.9 L805.502947,260.9 L806.143526,263 L806.784106,263 L807.424686,275.4 L808.065266,275.4 L808.705846,266 L809.346426,266 L809.987005,252.1 L810.627585,252.1 L811.268165,260.6 L811.908745,260.6 L812.549325,263.2 L813.189904,263.2 L813.830484,262.3 L814.471064,262.3 L815.111644,259.8 L815.752224,259.8 L816.392804,271.2 L817.033383,271.2 L817.673963,288.3 L818.314543,288.3 L818.955123,287.4 L819.595703,287.4 L820.236282,269.2 L820.876862,269.2 L821.517442,263.2 L822.158022,263.2 L822.798602,262 L823.439182,262 L824.079761,235.3 L824.720341,235.3 L825.360921,194.7 L826.001501,194.7 L826.642081,254.1 L827.28266,254.1 L827.92324,274.4 L828.56382,274.4 L829.2044,260.8 L829.84498,251.8 L830.48556,251.8 L831.126139,261.1 L831.766719,261.1 L832.407299,243.6 L833.047879,243.6 L833.688459,234.8 L834.329038,234.8 L834.969618,257.5 L835.610198,257.5 L836.250778,265.5 L836.891358,265.5 L837.531937,289 L838.172517,289 L838.813097,285.3 L839.453677,285.3 L840.094257,264.8 L840.734837,264.8 L841.375416,261.9 L842.015996,261.9 L842.656576,262.6 L843.297156,262.6 L843.937736,262.2 L844.578315,262.2 L845.218895,261.4 L845.859475,261.4 L846.500055,260.3 L847.140635,260.3 L847.781215,267.4 L848.421794,267.4 L849.062374,275.9 L849.702954,275.9 L850.343534,257.3 L850.984114,257.3 L851.624693,253 L852.265273,253 L852.905853,261.6 L853.546433,261.6 L854.187013,262.5 L854.827593,262.5 L855.468172,262 L856.108752,262 L856.749332,262.6 L857.389912,262.6 L858.030492,277.3 L858.671071,277.3 L859.311651,262.8 L859.952231,262.8 L860.592811,262.3 L861.233391,262.3 L861.87397,254.3 L862.51455,254.3 L863.15513,244.1 L863.79571,244.1 L864.43629,268.6 L865.07687,268.6 L865.717449,274.7 L866.358029,274.7 L866.998609,254.9 L867.639189,254.9 L868.279769,254 L868.920348,254 L869.560928,262.6 L870.201508,262.6 L870.842088,262.6 L871.482668,262.6 L872.123248,262.3 L872.763827,262.3 L873.404407,262.8 L874.044987,262.8 L874.685567,279.8 L875.326147,279.8 L875.966726,290.5 L876.607306,290.5 L877.247886,279.9 L877.888466,262.6 L878.529046,262.6 L879.169626,261.8 L879.810205,261.8 L880.450785,236.9 L881.091365,236.9 L881.731945,194.4 L882.372525,194.4 L883.013104,255.6 L883.653684,255.6 L884.294264,260.6 L884.934844,260.6 L885.575424,271.8 L886.216004,271.8 L886.856583,272.8 L887.497163,272.8 L888.137743,176.4 L888.778323,176.4 L889.418903,18.1 L890.059482,18.1 L890.700062,1.4 L891.340642,1.4 L891.981222,1.4 L892.621802,1.3 L893.262381,1.3 L893.902961,0.6 L894.543541,0.6 L895.184121,1.3 L895.824701,1.3 L896.465281,1.1 L897.10586,1.1 L897.74644,1.6 L898.38702,1.6 L899.0276,0.8 L899.66818,0.8 L900.308759,1.1 L900.949339,1.1 L901.589919,1.9 L902.230499,1.9 L902.871079,0.7 L903.511659,0.7 L904.152238,1.6 L904.792818,1.6 L905.433398,0.7 L906.073978,0.7 L906.714558,1.4 L907.355137,1.4 L907.995717,34.5 L908.636297,34.5 L909.276877,203.6 L909.917457,203.6 L910.558037,259.2 L911.198616,259.2 L911.839196,261.8 L912.479776,261.8 L913.120356,261.7 L913.760936,261.7 L914.401515,266 L915.042095,266 L915.682675,285.8 L916.323255,285.8 L916.963835,290.1 L917.604415,290.1 L918.244994,272.3 L918.885574,272.3 L919.526154,259.9 L920.166734,259.9 L920.807314,259.4 L921.447893,259.4 L922.088473,261.8 L922.729053,275.1 L923.369633,275.1 L924.010213,267.5 L924.650792,267.5 L925.291372,249.2 L925.931952,249.2 L926.572532,256.4 L927.213112,256.4 L927.853692,261 L928.494271,261 L929.134851,262.8 L929.775431,262.8 L930.416011,260.9 L931.056591,260.9 L931.69717,268 L932.33775,268 L932.97833,287.4 L933.61891,287.4 L934.25949,288.6 L934.90007,288.6 L935.540649,270 L936.181229,270 L936.821809,258.7 L937.462389,258.7 L938.102969,236.9 L938.743548,236.9 L939.384128,190.8 L940.024708,190.8 L940.665288,254.8 L941.305868,254.8 L941.946448,255.1 L942.587027,255.1 L943.227607,250.9 L943.868187,250.9 L944.508767,274.8 L945.149347,274.8 L945.789926,260.9 L946.430506,260.9 L947.071086,244.3 L947.711666,244.3 L948.352246,253 L948.992826,253 L949.633405,259.2 L950.273985,259.2 L950.914565,258.7 L951.555145,258.7 L952.195725,260.2 L952.836304,260.2 L953.476884,261.1 L954.117464,189.5 L954.758044,189.5 L955.398624,159 L956.039203,159 L956.679783,161 L957.320363,161 L957.960943,255 L958.601523,255 L959.242103,259.4 L959.882682,259.4 L960.523262,265.6 L961.163842,265.6 L961.804422,275.6 L962.445002,275.6 L963.085581,261.4 L963.726161,261.4 L964.366741,251.5 L965.007321,251.5 L965.647901,262.2 L966.288481,262.2 L966.92906,261.5 L967.56964,261.5 L968.21022,262.2 L968.8508,262.2 L969.49138,261.6 L970.131959,261.6 L970.772539,274.4 L971.413119,274.4 L972.053699,290 L972.694279,290 L973.334859,285.5 L973.975438,285.5 L974.616018,266.3 L975.256598,266.3 L975.897178,262.6 L976.537758,262.6 L977.178337,262.6 L977.818917,262.6 L978.459497,261.9 L979.100077,261.9 L979.740657,260.8 L980.381237,260.8 L981.021816,260.7 L981.662396,260.7 L982.302976,267.7 L982.943556,267.7 L983.584136,276 L984.224715,276 L984.865295,263.2 L985.505875,263.2 L986.146455,262.2 L986.787035,262.2 L987.427614,261.6 L988.068194,261.6 L988.708774,277.9 L989.349354,277.9 L989.989934,291 L990.630514,291 L991.271093,281.8 L991.911673,265.2 L992.552253,265.2 L993.192833,241.5 L993.833413,241.5 L994.473992,190.2 L995.114572,190.2 L995.755152,250.3 L996.395732,250.3 L997.036312,252.2 L997.676892,252.2 L998.317471,258.3 L998.958051,258.3 L999.598631,269.2 L1000.23921,269.2 L1000.87979,275.3 L1001.52037,275.3 L1002.16095,254.9 L1002.80153,254.9 L1003.44211,255.8 L1004.08269,255.8 L1004.72327,262.6 L1005.36385,262.6 L1006.00443,262.2 L1006.64501,262.2 L1007.28559,262.2 L1007.92617,262.2 L1008.56675,262.8 L1009.20733,262.8 L1009.84791,280.9 L1010.48849,280.9 L1011.12907,290.9 L1011.76965,290.9 L1012.41023,279.4 L1013.05081,279.4 L1013.69139,262.5 L1014.33197,262.5 L1014.97255,263.2 L1015.61313,263.2 L1016.25371,262.3 L1016.89429,261.2 L1017.53487,261.2 L1018.17545,260.6 L1018.81603,260.6 L1019.45661,272.1 L1020.09719,272.1 L1020.73776,272.6 L1021.37834,272.6 L1022.01892,252.9 L1022.6595,252.9 L1023.30008,257.4 L1023.94066,257.4 L1024.58124,262.5 L1025.22182,262.5 L1025.8624,262.6 L1026.50298,262.6 L1027.14356,261.4 L1027.78414,261.4 L1028.42472,264.7 L1029.0653,264.7 L1029.70588,283.6"></path>
                        </g>
                    </g>
                </g>
                <g transform="translate(60.000000, 36.000000)" id="Shape" stroke-opacity="0.0001" stroke="#C0C0C0" stroke-width="21" sketch:type="MSShapeGroup">
                    <path d="M0.294117647,274.7 L10.2941176,274.7 L10.9346975,263.2 L11.5752773,263.2 L12.2158571,263.6 L12.8564369,263 L13.4970167,263 L14.1375965,262.6 L14.7781764,262.6 L15.4187562,262.1 L16.059336,262.1 L16.6999158,264.4 L17.3404956,264.4 L17.9810754,276.7 L18.6216553,276.7 L19.2622351,269 L19.9028149,269 L20.5433947,252.8 L21.1839745,252.8 L21.8245543,225.8 L22.4651342,225.8 L23.105714,222.3 L23.7462938,222.3 L24.3868736,260.2 L25.0274534,260.2 L25.6680332,270.6 L26.3086131,270.6 L26.9491929,290.9 L27.5897727,290.9 L28.2303525,287.4 L28.8709323,287.4 L29.5115121,265.8 L30.152092,265.8 L30.7926718,260.2 L31.4332516,260.2 L32.0738314,261.5 L32.7144112,261.5 L33.354991,262.6 L33.9955708,263.2 L34.6361507,263.2 L35.2767305,261.8 L35.9173103,261.8 L36.5578901,266.9 L37.1984699,266.9 L37.8390497,277.3 L38.4796296,277.3 L39.1202094,263.1 L39.7607892,263.1 L40.401369,216.3 L41.0419488,216.3 L41.6825286,191.6 L42.3231085,191.6 L42.9636883,242.5 L43.6042681,242.5 L44.2448479,261.4 L44.8854277,261.4 L45.5260075,262.3 L46.1665874,262.3 L46.8071672,273.6 L47.447747,273.6 L48.0883268,291.3 L48.7289066,291.3 L49.3694864,288.3 L50.0100663,288.3 L50.6506461,269 L51.2912259,269 L51.9318057,264.4 L52.5723855,264.4 L53.2129653,261.4 L53.8535452,261.4 L54.494125,268.8 L55.1347048,268.8 L55.7752846,276.7 L56.4158644,276.7 L57.0564442,261 L57.697024,261 L58.3376039,254.9 L58.9781837,254.9 L59.6187635,263.7 L60.2593433,263.7 L60.8999231,262.6 L61.5405029,262.6 L62.1810828,263.4 L62.8216626,263.4 L63.4622424,262.9 L64.1028222,262.9 L64.743402,277.6 L65.3839818,292 L66.0245617,292 L66.6651415,285.1 L67.3057213,285.1 L67.9463011,266.9 L68.5868809,266.9 L69.2274607,263.5 L69.8680406,263.5 L70.5086204,264 L71.1492002,264 L71.78978,262.6 L72.4303598,262.6 L73.0709396,263.1 L73.7115195,263.1 L74.3520993,261.1 L74.9926791,261.1 L75.6332589,270.2 L76.2738387,270.2 L76.9144185,276.7 L77.5549984,276.7 L78.1955782,258.3 L78.836158,258.3 L79.4767378,255.9 L80.1173176,255.9 L80.7578974,223.7 L81.3984773,223.7 L82.0390571,220.2 L82.6796369,220.2 L83.3202167,255.7 L83.9607965,255.7 L84.6013763,209.7 L85.2419561,209.7 L85.882536,126.9 L86.5231158,126.9 L87.1636956,107.1 L87.8042754,107.1 L88.4448552,102.4 L89.085435,102.4 L89.7260149,125.4 L90.3665947,125.4 L91.0071745,210.2 L91.6477543,210.2 L92.2883341,152.9 L92.9289139,152.9 L93.5694938,121.5 L94.2100736,121.5 L94.8506534,124.4 L95.4912332,124.4 L96.131813,102.8 L96.7723928,102.8 L97.4129727,123.5 L98.0535525,123.5 L98.6941323,138.6 L99.3347121,138.6 L99.9752919,123.5 L100.615872,123.5 L101.256452,114 L101.897031,114 L102.537611,116.4 L103.178191,116.4 L103.818771,175.9 L104.459351,208.6 L105.09993,208.6 L105.74051,192.8 L106.38109,192.8 L107.02167,130.1 L107.66225,130.1 L108.30283,101.1 L108.943409,101.1 L109.583989,108.7 L110.224569,108.7 L110.865149,102.1 L111.505729,102.1 L112.146308,100.7 L112.786888,100.7 L113.427468,104.9 L114.068048,104.9 L114.708628,124.8 L115.349208,124.8 L115.989787,97.1 L116.630367,98.2 L117.270947,98.2 L117.911527,101 L118.552107,101 L119.192686,104.6 L119.833266,104.6 L120.473846,104.5 L121.114426,104.5 L121.755006,129.7 L122.395585,129.7 L123.036165,197.8 L123.676745,197.8 L124.317325,207 L124.957905,207 L125.598485,190.3 L126.239064,190.3 L126.879644,173.3 L127.520224,173.3 L128.160804,178.3 L128.801384,178.3 L129.441963,180.3 L130.082543,180.3 L130.723123,181.8 L131.363703,181.8 L132.004283,180.9 L132.644863,180.9 L133.285442,146 L133.926022,146 L134.566602,25.4 L135.207182,25.4 L135.847762,0.8 L136.488341,0.8 L137.128921,0.8 L137.769501,0.8 L138.410081,1.9 L139.050661,1.9 L139.691241,1.1 L140.33182,1.1 L140.9724,1.4 L141.61298,1.4 L142.25356,7.4 L142.89414,138.2 L143.534719,138.2 L144.175299,271.4 L144.815879,271.4 L145.456459,263.2 L146.097039,263.2 L146.737619,257.9 L147.378198,255.7 L148.018778,256 L148.659358,256 L149.299938,256.8 L149.940518,256.8 L150.581097,261.9 L151.221677,261.9 L151.862257,275.2 L152.502837,275.2 L153.143417,263.2 L153.783996,263.2 L154.424576,244.4 L155.065156,244.4 L155.705736,250 L156.346316,250 L156.986896,216.7 L157.627475,216.7 L158.268055,244 L158.908635,244 L159.549215,248.7 L160.189795,248.7 L160.830374,264.4 L161.470954,264.4 L162.111534,287.6 L162.752114,287.6 L163.392694,287 L164.033274,287 L164.673853,264.6 L165.314433,264.6 L165.955013,255.1 L166.595593,255.1 L167.236173,256.6 L167.876752,256.6 L168.517332,256.4 L169.157912,256.4 L169.798492,256.4 L170.439072,256.4 L171.079652,256.3 L171.720231,256.3 L172.360811,263.8 L173.001391,263.8 L173.641971,275.4 L174.282551,275.4 L174.92313,260.2 L175.56371,246.1 L176.20429,246.1 L176.84487,254.5 L177.48545,254.5 L178.12603,255.8 L178.766609,271.4 L179.407189,289.7 L180.047769,289.7 L180.688349,285.2 L181.328929,285.2 L181.969508,260.2 L182.610088,260.2 L183.250668,256.5 L183.891248,256.5 L184.531828,255.8 L185.172407,255.8 L185.812987,256.4 L186.453567,256.4 L187.094147,256.2 L187.734727,256.2 L188.375307,257.2 L189.015886,257.2 L189.656466,265.8 L190.297046,265.8 L190.937626,276 L191.578206,276 L192.218785,254.1 L192.859365,254.1 L193.499945,195.1 L194.140525,195.1 L194.781105,221.2 L195.421685,221.2 L196.062264,257.1 L196.702844,257.1 L197.343424,256.8 L197.984004,256.8 L198.624584,253.8 L199.265163,253.8 L199.905743,258.2 L200.546323,258.2 L201.186903,287.5 L201.827483,287.5 L202.468063,281.3 L203.108642,281.3 L203.749222,256.1 L204.389802,256.1 L205.030382,251.6 L205.670962,252.1 L206.311541,252.1 L206.952121,253.3 L207.592701,253.3 L208.233281,253.2 L208.873861,253.2 L209.51444,253.6 L210.15502,238.9 L210.7956,236.1 L211.43618,236.1 L212.07676,248 L212.71734,248 L213.357919,250.2 L213.998499,250.2 L214.639079,259.2 L215.279659,259.2 L215.920239,261.8 L216.560818,261.8 L217.201398,280.1 L217.841978,280.1 L218.482558,290.8 L219.123138,290.8 L219.763718,281 L220.404297,281 L221.044877,264.3 L221.685457,264.3 L222.326037,263.6 L222.966617,263.6 L223.607196,262.8 L224.247776,262.8 L224.888356,252 L225.528936,252 L226.169516,208.5 L226.810096,208.5 L227.450675,251.4 L228.091255,251.4 L228.731835,271.9 L229.372415,271.9 L230.012995,273.2 L230.653574,273.2 L231.294154,252.5 L231.934734,252.5 L232.575314,255.6 L233.215894,255.6 L233.856474,262.5 L234.497053,262.5 L235.137633,263.4 L235.778213,263.4 L236.418793,262.3 L237.059373,264.4 L237.699952,264.4 L238.340532,283.6 L238.981112,283.6 L239.621692,290.1 L240.262272,290.1 L240.902851,277.7 L241.543431,261 L242.184011,263.7 L242.824591,263.7 L243.465171,262.9 L244.105751,262.9 L244.74633,262 L245.38691,262 L246.02749,262.5 L246.66807,262.5 L247.30865,261.5 L247.949229,261.5 L248.589809,273.2 L249.230389,270.3 L249.870969,270.3 L250.511549,202.7 L251.152129,202.7 L251.792708,213.9 L252.433288,213.9 L253.073868,260.6 L253.714448,260.6 L254.355028,240.5 L254.995607,240.5 L255.636187,252.8 L256.276767,252.8 L256.917347,262.5 L257.557927,262.5 L258.198507,283.8 L258.839086,283.8 L259.479666,255.8 L260.120246,255.8 L260.760826,89.7 L261.401406,89.7 L262.041985,61.4 L262.682565,61.4 L263.323145,67.6 L263.963725,67.6 L264.604305,80.1 L265.244885,80.1 L265.885464,69.8 L266.526044,69.8 L267.166624,16.4 L267.807204,16.4 L268.447784,2.3 L269.088363,2.3 L269.728943,35.1 L270.369523,35.1 L271.010103,108.6 L271.650683,108.6 L272.291262,216.6 L272.931842,253.6 L273.572422,250.7 L274.213002,250.7 L274.853582,219.1 L275.494162,249.7 L276.134741,249.7 L276.775321,206.5 L277.415901,206.5 L278.056481,234.5 L278.697061,234.5 L279.33764,284.8 L279.97822,284.8 L280.6188,262 L281.25938,262 L281.89996,256 L282.54054,256 L283.181119,255.7 L283.821699,255.7 L284.462279,256.5 L285.102859,256.5 L285.743439,242.8 L286.384018,242.8 L287.024598,240.1 L287.665178,240.1 L288.305758,240.2 L288.946338,240.2 L289.586918,273.5 L290.227497,273.5 L290.868077,256 L291.508657,256 L292.149237,241.1 L292.789817,241.1 L293.430396,250.5 L294.070976,250.5 L294.711556,253.3 L295.352136,253.3 L295.992716,252.6 L296.633296,252.6 L297.273875,253 L297.914455,253 L298.555035,237.6 L299.195615,237.6 L299.836195,277.6 L300.476774,277.6 L301.117354,282.1 L301.757934,282.1 L302.398514,262.5 L303.039094,262.5 L303.679673,261.8 L304.320253,261.9 L304.960833,261.9 L305.601413,260.5 L306.241993,260.5 L306.882573,244.1 L307.523152,244.1 L308.163732,216.2 L308.804312,216.2 L309.444892,226.7 L310.085472,226.7 L310.726051,188.8 L311.366631,188.8 L312.007211,208.6 L312.647791,208.6 L313.288371,258.7 L313.928951,258.7 L314.56953,262.3 L315.21011,262.3 L315.85069,261.3 L316.49127,261.3 L317.13185,257.2 L317.772429,257.2 L318.413009,242 L319.053589,242 L319.694169,282.1 L320.334749,282.1 L320.975329,279.5 L321.615908,279.5 L322.256488,259.9 L322.897068,259.9 L323.537648,260.6 L324.178228,260.6 L324.818807,263 L325.459387,263 L326.099967,261.8 L326.740547,261.8 L327.381127,260.6 L328.021707,260.6 L328.662286,246.8 L329.302866,254.7 L329.943446,254.7 L330.584026,273.4 L331.224606,273.4 L331.865185,251.4 L332.505765,251.4 L333.146345,252.9 L333.786925,252.9 L334.427505,262.1 L335.068084,262.1 L335.708664,261.7 L336.349244,261.7 L336.989824,257.1 L337.630404,257.1 L338.270984,253 L338.911563,253 L339.552143,276.2 L340.192723,276.2 L340.833303,279 L341.473883,279 L342.114462,253.3 L342.755042,253.3 L343.395622,261.4 L344.036202,261.4 L344.676782,262.6 L345.317362,262.2 L345.957941,262.2 L346.598521,261 L347.239101,261 L347.879681,242.7 L348.520261,242.7 L349.16084,259.4 L349.80142,259.4 L350.442,274.9 L351.08258,274.9 L351.72316,253 L352.36374,253 L353.004319,254 L353.644899,254 L354.285479,263.2 L354.926059,263.2 L355.566639,262 L356.207218,262 L356.847798,262.2 L357.488378,262.2 L358.128958,254.5 L358.769538,254.5 L359.410118,259.3 L360.050697,259.3 L360.691277,290.2 L361.331857,290.2 L361.972437,279.5 L362.613017,279.5 L363.253596,263.5 L363.894176,263.5 L364.534756,262.8 L365.175336,262.8 L365.815916,263.5 L366.456495,263.5 L367.097075,260.4 L367.737655,242.6 L368.378235,242.6 L369.018815,265.8 L369.659395,265.8 L370.299974,224.1 L370.940554,224.1 L371.581134,199.6 L372.221714,199.6 L372.862294,252.4 L373.502873,252.4 L374.143453,255.1 L374.784033,255.1 L375.424613,262.3 L376.065193,262.3 L376.705773,261.9 L377.346352,261.9 L377.986932,255.6 L378.627512,255.6 L379.268092,269.2 L379.908672,269.2 L380.549251,288.9 L381.189831,288.9 L381.830411,199.4 L382.470991,199.4 L383.111571,23.2 L383.752151,23.2 L384.39273,1.1 L385.03331,1.1 L385.67389,0.9 L386.31447,0.9 L386.95505,0.8 L387.595629,0.8 L388.236209,1.7 L388.876789,1.7 L389.517369,0.4 L390.157949,0.4 L390.798528,1.6 L391.439108,1.6 L392.079688,1.1 L392.720268,1.1 L393.360848,1.6 L394.001428,0.8 L394.642007,0.8 L395.282587,1.3 L395.923167,1.3 L396.563747,1.3 L397.204327,1.3 L397.844906,1.1 L398.485486,1.6 L399.126066,1.1 L399.766646,1.1 L400.407226,1.1 L401.047806,1.1 L401.688385,38.8 L402.328965,38.8 L402.969545,206.2 L403.610125,206.2 L404.250705,253.7 L404.891284,253.7 L405.531864,242.9 L406.172444,242.9 L406.813024,254.9 L407.453604,254.9 L408.094184,252.2 L408.734763,252.2 L409.375343,229.9 L410.015923,229.9 L410.656503,185.5 L411.297083,185.5 L411.937662,249.8 L412.578242,249.8 L413.218822,247.4 L413.859402,247.4 L414.499982,256.6 L415.140562,256.6 L415.781141,261.1 L416.421721,261.1 L417.062301,261.4 L417.702881,261.4 L418.343461,260.8 L418.98404,251.2 L419.62462,251.2 L420.2652,278 L420.90578,278 L421.54636,285.8 L422.186939,285.8 L422.827519,262.8 L423.468099,262.8 L424.108679,259 L424.749259,259 L425.389839,260.7 L426.030418,260.7 L426.670998,261.4 L427.311578,261.4 L427.952158,261.4 L428.592738,261.4 L429.233317,254.4 L429.873897,247.7 L430.514477,231.5 L431.155057,231.5 L431.795637,215.3 L432.436217,215.3 L433.076796,244.6 L433.717376,244.6 L434.357956,257.9 L434.998536,257.9 L435.639116,260.4 L436.279695,260.4 L436.920275,260.9 L437.560855,260.1 L438.201435,260.1 L438.842015,252.6 L439.482595,252.6 L440.123174,283.4 L440.763754,283.4 L441.404334,281.6 L442.044914,281.6 L442.685494,262.3 L443.326073,262.3 L443.966653,261.7 L444.607233,261.7 L445.247813,262.5 L445.888393,262.5 L446.528973,263.2 L447.169552,263.2 L447.810132,261.2 L448.450712,261.2 L449.091292,250.2 L449.731872,250.2 L450.372451,249.4 L451.013031,249.4 L451.653611,194.7 L452.294191,194.7 L452.934771,136.6 L453.57535,136.6 L454.21593,238.2 L454.85651,238.2 L455.49709,257.9 L456.13767,257.9 L456.77825,260.9 L457.418829,260.9 L458.059409,262.5 L458.699989,262.5 L459.340569,258.4 L459.981149,258.4 L460.621728,255.4 L461.262308,261.3 L461.902888,262.5 L462.543468,262.5 L463.184048,262.9 L463.824628,262.9 L464.465207,263 L465.105787,263 L465.746367,261.9 L466.386947,261.9 L467.027527,247.2 L467.668106,247.2 L468.308686,257.9 L468.949266,257.9 L469.589846,272 L470.230426,272 L470.871006,251 L471.511585,251 L472.152165,252 L472.792745,252 L473.433325,262.5 L474.073905,262.5 L474.714484,264 L475.355064,264 L475.995644,262.1 L476.636224,262.1 L477.276804,257.2 L477.917384,257.2 L478.557963,259.1 L479.198543,259.1 L479.839123,288.4 L480.479703,288.4 L481.120283,281.8 L481.760862,263 L482.401442,263 L483.042022,262.3 L483.682602,262.3 L484.323182,263.3 L484.963761,263.3 L485.604341,262.3 L486.244921,262.3 L486.885501,262 L487.526081,262 L488.166661,244.3 L488.80724,244.3 L489.44782,218.2 L490.0884,218.2 L490.72898,216.4 L491.36956,216.4 L492.010139,251.1 L492.650719,262.5 L493.291299,261.9 L493.931879,261.9 L494.572459,256 L495.213039,256 L495.853618,265.3 L496.494198,265.3 L497.134778,287.8 L497.775358,287.8 L498.415938,272.4 L499.056517,272.4 L499.697097,253.1 L500.337677,253.1 L500.978257,258.7 L501.618837,263.5 L502.259417,263.5 L502.899996,262.2 L503.540576,262.2 L504.181156,258.8 L504.821736,258.8 L505.462316,174.8 L506.102895,174.8 L506.743475,171.2 L507.384055,171.2 L508.024635,266.2 L508.665215,266.2 L509.305795,239.3 L509.946374,239.3 L510.586954,252.6 L511.227534,252.6 L511.868114,260.9 L512.508694,260.9 L513.149273,263 L513.789853,263 L514.430433,262.2 L515.071013,262.2 L515.711593,253.9 L516.352172,253.9 L516.992752,268.6 L517.633332,268.6 L518.273912,287.7 L518.914492,287.7 L519.555072,269.9 L520.195651,269.9 L520.836231,260.6 L521.476811,260.6 L522.117391,257.4 L522.757971,257.4 L523.39855,131.8 L524.03913,126.8 L524.67971,126.8 L525.32029,228.3 L525.96087,228.3 L526.60145,264 L527.242029,264 L527.882609,257.2 L528.523189,257.2 L529.163769,242.8 L529.804349,242.8 L530.444928,249.5 L531.085508,249.5 L531.726088,255.3 L532.366668,255.3 L533.007248,257.5 L533.647828,257.5 L534.288407,261.8 L534.928987,261.8 L535.569567,249.1 L536.210147,249.1 L536.850727,269.8 L537.491306,269.8 L538.131886,286.5 L538.772466,286.5 L539.413046,266.3 L540.053626,266.3 L540.694205,260.2 L541.334785,260.2 L541.975365,261.8 L542.615945,261.8 L543.256525,261.8 L543.897105,261.8 L544.537684,262.1 L545.178264,262.1 L545.818844,259 L546.459424,259 L547.100004,210.3 L547.740583,210.3 L548.381163,214.1 L549.021743,214.1 L549.662323,264.9 L550.302903,264.9 L550.943483,245.7 L551.584062,245.7 L552.224642,257.9 L552.865222,257.9 L553.505802,252.9 L554.146382,252.9 L554.786961,225.4 L555.427541,287.5 L556.068121,287.5 L556.708701,268.3 L557.349281,268.3 L557.989861,261.7 L558.63044,261.7 L559.27102,261.2 L559.9116,261.2 L560.55218,261 L561.19276,261 L561.833339,260.7 L562.473919,260.7 L563.114499,254.3 L563.755079,254.3 L564.395659,248.7 L565.036239,248.7 L565.676818,274.4 L566.317398,274.4 L566.957978,256.1 L567.598558,256.1 L568.239138,248.9 L568.879717,248.9 L569.520297,260.5 L570.160877,260.5 L570.801457,261.9 L571.442037,261.9 L572.082616,261.8 L572.723196,261.8 L573.363776,260.6 L574.004356,260.6 L574.644936,253.7 L575.285516,253.7 L575.926095,283.9 L576.566675,283.9 L577.207255,283.4 L577.847835,283.4 L578.488415,263.4 L579.128994,263.4 L579.769574,261.8 L580.410154,261.8 L581.050734,262 L581.691314,262 L582.331894,262.3 L582.972473,262.3 L583.613053,251.4 L584.253633,251.4 L584.894213,239.5 L585.534793,239.5 L586.175372,254.9 L586.815952,247.6 L587.456532,258.3 L588.097112,258.3 L588.737692,261.2 L589.378272,261.2 L590.018851,262.5 L590.659431,260.1 L591.300011,260.1 L591.940591,259 L592.581171,259 L593.22175,288.3 L593.86233,288.3 L594.50291,284.3 L595.14349,284.3 L595.78407,263.2 L596.42465,263.2 L597.065229,262.9 L597.705809,262.9 L598.346389,262.2 L598.986969,262.2 L599.627549,262.6 L600.268128,262.6 L600.908708,261.8 L601.549288,261.8 L602.189868,207.8 L602.830448,207.8 L603.471027,229.3 L604.111607,229.3 L604.752187,275.9 L605.392767,275.9 L606.033347,254.4 L606.673927,254.4 L607.314506,251.5 L607.955086,251.5 L608.595666,259.9 L609.236246,259.9 L609.876826,262.1 L610.517405,262.1 L611.157985,262.2 L611.798565,262.2 L612.439145,253.3 L613.079725,253.3 L613.720305,168.5 L614.360884,168.5 L615.001464,229.6 L615.642044,229.6 L616.282624,281.8 L616.923204,281.8 L617.563783,260.6 L618.204363,261.8 L618.844943,262.1 L619.485523,262.1 L620.126103,242.5 L620.766683,242.5 L621.407262,233.8 L622.047842,233.8 L622.688422,236.1 L623.329002,236.1 L623.969582,243.2 L624.610161,243.2 L625.250741,255.6 L625.891321,255.6 L626.531901,262.8 L627.172481,262.8 L627.813061,262.6 L628.45364,262.6 L629.09422,262.6 L629.7348,262.6 L630.37538,259.9 L631.01596,259.9 L631.656539,272.4 L632.297119,272.4 L632.937699,290.4 L633.578279,273.7 L634.218859,273.7 L634.859438,261 L635.500018,261 L636.140598,262.6 L636.781178,262.6 L637.421758,262.1 L638.062338,262.1 L638.702917,262.3 L639.343497,262.3 L639.984077,257.2 L640.624657,257.2 L641.265237,164 L641.905816,164 L642.546396,78.7 L643.186976,78.7 L643.827556,45.8 L644.468136,45.8 L645.108716,40.3 L645.749295,40.3 L646.389875,44.8 L647.030455,44.8 L647.671035,51.1 L648.311615,51.1 L648.952194,45.1 L649.592774,13.5 L650.233354,0.7 L650.873934,0.8 L651.514514,0.8 L652.155094,1.7 L652.795673,1.7 L653.436253,1.4 L654.076833,1.4 L654.717413,1.1 L655.357993,1.1 L655.998572,1 L656.639152,1 L657.279732,1.4 L657.920312,1.4 L658.560892,1.6 L659.201472,1.6 L659.842051,12.6 L660.482631,12.6 L661.123211,147.5 L661.763791,147.5 L662.404371,265.4 L663.04495,265.4 L663.68553,268.2 L664.32611,268.2 L664.96669,247.6 L665.60727,247.6 L666.247849,251.5 L666.888429,251.5 L667.529009,254.6 L668.169589,254.6 L668.810169,255.5 L669.450749,255.5 L670.091328,249.5 L670.731908,249.5 L671.372488,207.9 L672.013068,207.9 L672.653648,268.6 L673.294227,268.6 L673.934807,288.5 L674.575387,288.5 L675.215967,254.2 L675.856547,254.2 L676.497127,217.8 L677.137706,217.8 L677.778286,256.9 L678.418866,256.9 L679.059446,256.1 L679.700026,256.1 L680.340605,255.6 L680.981185,258.4 L681.621765,258.4 L682.262345,248 L682.902925,248 L683.543505,256.2 L684.184084,256.2 L684.824664,257.2 L685.465244,257.2 L686.105824,256.1 L686.746404,256.1 L687.386983,256.4 L688.027563,256.4 L688.668143,268 L689.308723,268 L689.949303,289 L690.589882,289 L691.230462,287.8 L691.871042,287.8 L692.511622,269.4 L693.152202,269.4 L693.792782,260.5 L694.433361,260.5 L695.073941,259.4 L695.714521,259.4 L696.355101,258.3 L696.995681,258.3 L697.63626,256.8 L698.27684,256.8 L698.91742,257.9 L699.558,257.9 L700.19858,247.8 L700.83916,247.8 L701.479739,235.1 L702.120319,235.1 L702.760899,241.3 L703.401479,241.3 L704.042059,249.2 L704.682638,249.2 L705.323218,259.1 L705.963798,259.1 L706.604378,257.9 L707.244958,257.9 L707.885538,257.9 L708.526117,257.9 L709.166697,256.9 L709.807277,256.9 L710.447857,272.1 L711.088437,272.1 L711.729016,289.1 L712.369596,259.8 L713.010176,259.8 L713.650756,257.9 L714.291336,257.9 L714.931916,225.8 L715.572495,225.8 L716.213075,194.8 L716.853655,194.8 L717.494235,263.2 L718.134815,263.2 L718.775394,259.6 L719.415974,259.6 L720.056554,220.4 L720.697134,220.4 L721.337714,246.3 L721.978293,246.3 L722.618873,258.2 L723.259453,258.2 L723.900033,258.7 L724.540613,258.7 L725.181193,256.7 L725.821772,256.7 L726.462352,258.5 L727.102932,258.5 L727.743512,275.6 L728.384092,275.6 L729.024671,290.9 L729.665251,290.9 L730.305831,284.2 L730.946411,284.2 L731.586991,264.9 L732.227571,264.9 L732.86815,261.6 L733.50873,261.6 L734.14931,259.8 L734.78989,259.8 L735.43047,233.5 L736.071049,233.5 L736.711629,133.9 L737.352209,133.9 L737.992789,223.5 L738.633369,223.5 L739.273949,243.3 L739.914528,243.3 L740.555108,234 L741.195688,234 L741.836268,241.8 L742.476848,241.8 L743.117427,252 L743.758007,258.9 L744.398587,248.7 L745.039167,248.7 L745.679747,269.7 L746.320327,269.7 L746.960906,290.1 L747.601486,290.1 L748.242066,280.7 L748.882646,280.7 L749.523226,262 L750.163805,262 L750.804385,259.9 L751.444965,259.9 L752.085545,260 L752.726125,260 L753.366704,258.9 L754.007284,258.9 L754.647864,259.2 L755.288444,259.2 L755.929024,259.9 L756.569604,270.9 L757.210183,270.9 L757.850763,273.9 L758.491343,273.9 L759.131923,253.7 L759.772503,253.7 L760.413082,254.4 L761.053662,254.4 L761.694242,260.2 L762.334822,260.2 L762.975402,253 L763.615982,253 L764.256561,232.7 L764.897141,232.7 L765.537721,258.7 L766.178301,258.7 L766.818881,283.6 L767.45946,283.6 L768.10004,289.3 L768.74062,289.3 L769.3812,274.6 L770.02178,274.6 L770.66236,256.8 L771.302939,256.8 L771.943519,256.7 L772.584099,256.7 L773.224679,260.1 L773.865259,260.1 L774.505838,231.2 L775.146418,194.6 L775.786998,194.6 L776.427578,28.5 L777.068158,28.5 L777.708738,6.2 L778.349317,6.2 L778.989897,118.1 L779.630477,118.1 L780.271057,243 L780.911637,243 L781.552216,253.1 L782.192796,253.1 L782.833376,253.7 L783.473956,253.7 L784.114536,254.2 L784.755115,254.2 L785.395695,248.5 L786.036275,248.5 L786.676855,269.5 L787.317435,269.5 L787.958015,289.4 L788.598594,289.4 L789.239174,273.6 L789.879754,273.6 L790.520334,261.5 L791.160914,261.5 L791.801493,263.5 L792.442073,263.5 L793.082653,262 L793.723233,261.4 L794.363813,261.4 L795.004393,260.7 L795.644972,260.7 L796.285552,254.6 L796.926132,254.6 L797.566712,243.8 L798.207292,243.8 L798.847871,225.7 L799.488451,225.7 L800.129031,240 L800.769611,240 L801.410191,250.1 L802.050771,250.1 L802.69135,258.7 L803.33193,258.7 L803.97251,261.7 L804.61309,261.7 L805.25367,261.6 L805.894249,261.6 L806.534829,279.7 L807.175409,279.7 L807.815989,286.5 L808.456569,286.5 L809.097149,264.4 L809.737728,264.4 L810.378308,260.6 L811.018888,262.6 L811.659468,262.6 L812.300048,262.6 L812.940627,262.6 L813.581207,260.6 L814.221787,260.6 L814.862367,260.9 L815.502947,260.9 L816.143526,263 L816.784106,263 L817.424686,275.4 L818.065266,275.4 L818.705846,266 L819.346426,266 L819.987005,252.1 L820.627585,252.1 L821.268165,260.6 L821.908745,260.6 L822.549325,263.2 L823.189904,263.2 L823.830484,262.3 L824.471064,262.3 L825.111644,259.8 L825.752224,259.8 L826.392804,271.2 L827.033383,271.2 L827.673963,288.3 L828.314543,288.3 L828.955123,287.4 L829.595703,287.4 L830.236282,269.2 L830.876862,269.2 L831.517442,263.2 L832.158022,263.2 L832.798602,262 L833.439182,262 L834.079761,235.3 L834.720341,235.3 L835.360921,194.7 L836.001501,194.7 L836.642081,254.1 L837.28266,254.1 L837.92324,274.4 L838.56382,274.4 L839.2044,260.8 L839.84498,251.8 L840.48556,251.8 L841.126139,261.1 L841.766719,261.1 L842.407299,243.6 L843.047879,243.6 L843.688459,234.8 L844.329038,234.8 L844.969618,257.5 L845.610198,257.5 L846.250778,265.5 L846.891358,265.5 L847.531937,289 L848.172517,289 L848.813097,285.3 L849.453677,285.3 L850.094257,264.8 L850.734837,264.8 L851.375416,261.9 L852.015996,261.9 L852.656576,262.6 L853.297156,262.6 L853.937736,262.2 L854.578315,262.2 L855.218895,261.4 L855.859475,261.4 L856.500055,260.3 L857.140635,260.3 L857.781215,267.4 L858.421794,267.4 L859.062374,275.9 L859.702954,275.9 L860.343534,257.3 L860.984114,257.3 L861.624693,253 L862.265273,253 L862.905853,261.6 L863.546433,261.6 L864.187013,262.5 L864.827593,262.5 L865.468172,262 L866.108752,262 L866.749332,262.6 L867.389912,262.6 L868.030492,277.3 L868.671071,277.3 L869.311651,262.8 L869.952231,262.8 L870.592811,262.3 L871.233391,262.3 L871.87397,254.3 L872.51455,254.3 L873.15513,244.1 L873.79571,244.1 L874.43629,268.6 L875.07687,268.6 L875.717449,274.7 L876.358029,274.7 L876.998609,254.9 L877.639189,254.9 L878.279769,254 L878.920348,254 L879.560928,262.6 L880.201508,262.6 L880.842088,262.6 L881.482668,262.6 L882.123248,262.3 L882.763827,262.3 L883.404407,262.8 L884.044987,262.8 L884.685567,279.8 L885.326147,279.8 L885.966726,290.5 L886.607306,290.5 L887.247886,279.9 L887.888466,262.6 L888.529046,262.6 L889.169626,261.8 L889.810205,261.8 L890.450785,236.9 L891.091365,236.9 L891.731945,194.4 L892.372525,194.4 L893.013104,255.6 L893.653684,255.6 L894.294264,260.6 L894.934844,260.6 L895.575424,271.8 L896.216004,271.8 L896.856583,272.8 L897.497163,272.8 L898.137743,176.4 L898.778323,176.4 L899.418903,18.1 L900.059482,18.1 L900.700062,1.4 L901.340642,1.4 L901.981222,1.4 L902.621802,1.3 L903.262381,1.3 L903.902961,0.6 L904.543541,0.6 L905.184121,1.3 L905.824701,1.3 L906.465281,1.1 L907.10586,1.1 L907.74644,1.6 L908.38702,1.6 L909.0276,0.8 L909.66818,0.8 L910.308759,1.1 L910.949339,1.1 L911.589919,1.9 L912.230499,1.9 L912.871079,0.7 L913.511659,0.7 L914.152238,1.6 L914.792818,1.6 L915.433398,0.7 L916.073978,0.7 L916.714558,1.4 L917.355137,1.4 L917.995717,34.5 L918.636297,34.5 L919.276877,203.6 L919.917457,203.6 L920.558037,259.2 L921.198616,259.2 L921.839196,261.8 L922.479776,261.8 L923.120356,261.7 L923.760936,261.7 L924.401515,266 L925.042095,266 L925.682675,285.8 L926.323255,285.8 L926.963835,290.1 L927.604415,290.1 L928.244994,272.3 L928.885574,272.3 L929.526154,259.9 L930.166734,259.9 L930.807314,259.4 L931.447893,259.4 L932.088473,261.8 L932.729053,275.1 L933.369633,275.1 L934.010213,267.5 L934.650792,267.5 L935.291372,249.2 L935.931952,249.2 L936.572532,256.4 L937.213112,256.4 L937.853692,261 L938.494271,261 L939.134851,262.8 L939.775431,262.8 L940.416011,260.9 L941.056591,260.9 L941.69717,268 L942.33775,268 L942.97833,287.4 L943.61891,287.4 L944.25949,288.6 L944.90007,288.6 L945.540649,270 L946.181229,270 L946.821809,258.7 L947.462389,258.7 L948.102969,236.9 L948.743548,236.9 L949.384128,190.8 L950.024708,190.8 L950.665288,254.8 L951.305868,254.8 L951.946448,255.1 L952.587027,255.1 L953.227607,250.9 L953.868187,250.9 L954.508767,274.8 L955.149347,274.8 L955.789926,260.9 L956.430506,260.9 L957.071086,244.3 L957.711666,244.3 L958.352246,253 L958.992826,253 L959.633405,259.2 L960.273985,259.2 L960.914565,258.7 L961.555145,258.7 L962.195725,260.2 L962.836304,260.2 L963.476884,261.1 L964.117464,189.5 L964.758044,189.5 L965.398624,159 L966.039203,159 L966.679783,161 L967.320363,161 L967.960943,255 L968.601523,255 L969.242103,259.4 L969.882682,259.4 L970.523262,265.6 L971.163842,265.6 L971.804422,275.6 L972.445002,275.6 L973.085581,261.4 L973.726161,261.4 L974.366741,251.5 L975.007321,251.5 L975.647901,262.2 L976.288481,262.2 L976.92906,261.5 L977.56964,261.5 L978.21022,262.2 L978.8508,262.2 L979.49138,261.6 L980.131959,261.6 L980.772539,274.4 L981.413119,274.4 L982.053699,290 L982.694279,290 L983.334859,285.5 L983.975438,285.5 L984.616018,266.3 L985.256598,266.3 L985.897178,262.6 L986.537758,262.6 L987.178337,262.6 L987.818917,262.6 L988.459497,261.9 L989.100077,261.9 L989.740657,260.8 L990.381237,260.8 L991.021816,260.7 L991.662396,260.7 L992.302976,267.7 L992.943556,267.7 L993.584136,276 L994.224715,276 L994.865295,263.2 L995.505875,263.2 L996.146455,262.2 L996.787035,262.2 L997.427614,261.6 L998.068194,261.6 L998.708774,277.9 L999.349354,277.9 L999.989934,291 L1000.63051,291 L1001.27109,281.8 L1001.91167,265.2 L1002.55225,265.2 L1003.19283,241.5 L1003.83341,241.5 L1004.47399,190.2 L1005.11457,190.2 L1005.75515,250.3 L1006.39573,250.3 L1007.03631,252.2 L1007.67689,252.2 L1008.31747,258.3 L1008.95805,258.3 L1009.59863,269.2 L1010.23921,269.2 L1010.87979,275.3 L1011.52037,275.3 L1012.16095,254.9 L1012.80153,254.9 L1013.44211,255.8 L1014.08269,255.8 L1014.72327,262.6 L1015.36385,262.6 L1016.00443,262.2 L1016.64501,262.2 L1017.28559,262.2 L1017.92617,262.2 L1018.56675,262.8 L1019.20733,262.8 L1019.84791,280.9 L1020.48849,280.9 L1021.12907,290.9 L1021.76965,290.9 L1022.41023,279.4 L1023.05081,279.4 L1023.69139,262.5 L1024.33197,262.5 L1024.97255,263.2 L1025.61313,263.2 L1026.25371,262.3 L1026.89429,261.2 L1027.53487,261.2 L1028.17545,260.6 L1028.81603,260.6 L1029.45661,272.1 L1030.09719,272.1 L1030.73776,272.6 L1031.37834,272.6 L1032.01892,252.9 L1032.6595,252.9 L1033.30008,257.4 L1033.94066,257.4 L1034.58124,262.5 L1035.22182,262.5 L1035.8624,262.6 L1036.50298,262.6 L1037.14356,261.4 L1037.78414,261.4 L1038.42472,264.7 L1039.0653,264.7 L1039.70588,283.6 L1049.70588,283.6"></path>
                </g>
            </g>
            <g id="Group" transform="translate(64.000000, 378.000000)" font-size="20" font-family="Helvetica" fill="#666666" sketch:type="MSTextLayer" font-weight="normal">
                <text id="0">
                    <tspan x="-0.205882353" y="19" fill="#000000">0</tspan>
                </text>
                <text id="100">
                    <tspan x="46.8520993" y="19" fill="#000000">100</tspan>
                </text>
                <text id="200">
                    <tspan x="110.910081" y="19" fill="#000000">200</tspan>
                </text>
                <text id="300">
                    <tspan x="174.968063" y="19" fill="#000000">300</tspan>
                </text>
                <text id="400">
                    <tspan x="239.026044" y="19" fill="#000000">400</tspan>
                </text>
                <text id="500">
                    <tspan x="303.084026" y="19" fill="#000000">500</tspan>
                </text>
                <text id="600">
                    <tspan x="367.142007" y="19" fill="#000000">600</tspan>
                </text>
                <text id="700">
                    <tspan x="431.199989" y="19" fill="#000000">700</tspan>
                </text>
                <text id="800">
                    <tspan x="495.257971" y="19" fill="#000000">800</tspan>
                </text>
                <text id="900">
                    <tspan x="559.315952" y="19" fill="#000000">900</tspan>
                </text>
                <text id="1,000">
                    <tspan x="618.873934" y="19" fill="#000000">1,000</tspan>
                </text>
                <text id="1,100">
                    <tspan x="682.931916" y="19" fill="#000000">1,100</tspan>
                </text>
                <text id="1,200">
                    <tspan x="746.989897" y="19" fill="#000000">1,200</tspan>
                </text>
                <text id="1,300">
                    <tspan x="811.047879" y="19" fill="#000000">1,300</tspan>
                </text>
                <text id="1,400">
                    <tspan x="875.10586" y="19" fill="#000000">1,400</tspan>
                </text>
                <text id="1,500">
                    <tspan x="939.163842" y="19" fill="#000000">1,500</tspan>
                </text>
                <text id="1,600">
                    <tspan x="1003.22182" y="19" fill="#000000">1,600</tspan>
                </text>
            </g>
            <g id="Group" transform="translate(26.000000, 0.000000)" font-size="20" font-family="Helvetica" fill="#666666" sketch:type="MSTextLayer" font-weight="normal">
                <text id="0">
                    <tspan x="9" y="381.115625" fill="#000000">0</tspan>
                </text>
                <text id="0.1">
                    <tspan x="0" y="320.782292" fill="#000000">0.1</tspan>
                </text>
                <text id="0.2">
                    <tspan x="0" y="260.448958" fill="#000000">0.2</tspan>
                </text>
                <text id="0.3">
                    <tspan x="0" y="200.115625" fill="#000000">0.3</tspan>
                </text>
                <text id="0.4">
                    <tspan x="0" y="139.782292" fill="#000000">0.4</tspan>
                </text>
                <text id="0.5">
                    <tspan x="0" y="79.4489583" fill="#000000">0.5</tspan>
                </text>
                <text id="0.6">
                    <tspan x="0" y="19.115625" fill="#000000">0.6</tspan>
                </text>
            </g>
            <text id="Highcharts.com" fill="#909090" sketch:type="MSTextLayer" font-family="Helvetica" font-size="9" font-weight="normal">
                <tspan x="1047" y="397" fill="#000000">Highcharts.com</tspan>
            </text>
        </g>
    </g>
</svg>