<svg xmlns="http://www.w3.org/2000/svg" version="1.1" width="1120" height="400"><desc>Created with Highcharts 3.0.2</desc><defs><clipPath id="highcharts-1"><rect fill="none" x="0" y="0" width="1050" height="361"></rect></clipPath></defs><rect rx="5" ry="5" fill="#FFFFFF" x="0" y="0" width="1120" height="400"></rect><g class="highcharts-grid" zIndex="1"></g><g class="highcharts-grid" zIndex="1"><path fill="none" d="M 60 312.5 L 1110 312.5" stroke="#C0C0C0" stroke-width="1" zIndex="1" opacity="1"></path><path fill="none" d="M 60 251.5 L 1110 251.5" stroke="#C0C0C0" stroke-width="1" zIndex="1" opacity="1"></path><path fill="none" d="M 60 191.5 L 1110 191.5" stroke="#C0C0C0" stroke-width="1" zIndex="1" opacity="1"></path><path fill="none" d="M 60 131.5 L 1110 131.5" stroke="#C0C0C0" stroke-width="1" zIndex="1" opacity="1"></path><path fill="none" d="M 60 70.5 L 1110 70.5" stroke="#C0C0C0" stroke-width="1" zIndex="1" opacity="1"></path><path fill="none" d="M 60 10.5 L 1110 10.5" stroke="#C0C0C0" stroke-width="1" zIndex="1" opacity="1"></path><path fill="none" d="M 60 371.5 L 1110 371.5" stroke="#C0C0C0" stroke-width="1" zIndex="1" opacity="1"></path></g><g class="highcharts-axis" zIndex="2"><path fill="none" d="M 156.5 372 L 156.5 377" stroke="#C0D0E0" stroke-width="1" opacity="1"></path><path fill="none" d="M 242.5 372 L 242.5 377" stroke="#C0D0E0" stroke-width="1" opacity="1"></path><path fill="none" d="M 328.5 372 L 328.5 377" stroke="#C0D0E0" stroke-width="1" opacity="1"></path><path fill="none" d="M 414.5 372 L 414.5 377" stroke="#C0D0E0" stroke-width="1" opacity="1"></path><path fill="none" d="M 500.5 372 L 500.5 377" stroke="#C0D0E0" stroke-width="1" opacity="1"></path><path fill="none" d="M 587.5 372 L 587.5 377" stroke="#C0D0E0" stroke-width="1" opacity="1"></path><path fill="none" d="M 673.5 372 L 673.5 377" stroke="#C0D0E0" stroke-width="1" opacity="1"></path><path fill="none" d="M 759.5 372 L 759.5 377" stroke="#C0D0E0" stroke-width="1" opacity="1"></path><path fill="none" d="M 845.5 372 L 845.5 377" stroke="#C0D0E0" stroke-width="1" opacity="1"></path><path fill="none" d="M 931.5 372 L 931.5 377" stroke="#C0D0E0" stroke-width="1" opacity="1"></path><path fill="none" d="M 1018.5 372 L 1018.5 377" stroke="#C0D0E0" stroke-width="1" opacity="1"></path><path fill="none" d="M 1104.5 372 L 1104.5 377" stroke="#C0D0E0" stroke-width="1" opacity="1"></path><path fill="none" d="M 69.5 372 L 69.5 377" stroke="#C0D0E0" stroke-width="1" opacity="1"></path><path fill="none" d="M 60 371.5 L 1110 371.5" stroke="#C0D0E0" stroke-width="1" zIndex="7" visibility="visible"></path></g><g class="highcharts-axis" zIndex="2"><text x="24.59375" y="191" style="font-family:&quot;Lucida Grande&quot;, &quot;Lucida Sans Unicode&quot;, Verdana, Arial, Helvetica, sans-serif;font-size:12px;color:#4d759e;font-weight:bold;fill:#4d759e;" zIndex="7" text-anchor="middle" transform="translate(0,0) rotate(270 24.59375 191)" visibility="visible"><tspan x="24.59375">Amperage</tspan></text></g><g class="highcharts-series-group" zIndex="3"><g class="highcharts-series" visibility="visible" zIndex="0.1" transform="translate(60,10) scale(1 1)" clip-path="url(#highcharts-1)"><path fill="none" d="M 10.294117647058822 310.2 L 12.018425460636514 310.2 L 13.742733274214206 317.6 L 15.467041087791896 317.6 L 17.19134890136959 289.8 L 18.915656714947282 272.9 L 20.639964528524974 272.9 L 22.364272342102666 255.4 L 24.088580155680358 255.4 L 25.81288796925805 247.9 L 27.53719578283574 247.9 L 29.261503596413434 283.3 L 30.985811409991125 283.3 L 32.71011922356882 277.6 L 34.43442703714651 288.1 L 36.1587348507242 300.7 L 37.8830426643019 300.7 L 39.607350477879585 292.6 L 41.33165829145728 292.6 L 43.05596610503497 255.6 L 44.780273918612664 255.6 L 46.50458173219035 282.3 L 48.22888954576805 282.3 L 49.95319735934574 288.3 L 51.67750517292343 288.3 L 53.40181298650112 289.8 L 55.126120800078816 289.8 L 56.85042861365651 288.3 L 58.5747364272342 293.2 L 60.299044240811895 293.2 L 62.02335205438958 313.4 L 63.74765986796728 313.4 L 65.47196768154497 315.4 L 67.19627549512266 315.4 L 68.92058330870036 280.1 L 70.64489112227804 280.1 L 72.36919893585574 281.1 L 74.09350674943343 281.1 L 75.81781456301113 286.1 L 77.54212237658881 286.1 L 79.2664301901665 286.4 L 80.9907380037442 286.4 L 82.7150458173219 289.3 L 84.43935363089959 289.3 L 86.16366144447727 288.3 L 87.88796925805497 288.3 L 89.61227707163266 289.9 L 91.33658488521036 289.9 L 93.06089269878804 302 L 94.78520051236573 302 L 96.50950832594343 281.6 L 98.23381613952112 281.6 L 99.9581239530988 262.1 L 101.6824317666765 262.1 L 103.4067395802542 284.4 L 105.13104739383189 284.4 L 106.85535520740957 289.6 L 108.57966302098727 289.6 L 110.30397083456496 289.1 L 112.02827864814266 289.1 L 113.75258646172036 289.4 L 115.47689427529804 289.4 L 117.20120208887573 295.8 L 118.92550990245343 314.4 L 120.64981771603112 311.6 L 122.3741255296088 311.6 L 124.0984333431865 276.6 L 125.8227411567642 253.9 L 127.54704897034189 253.9 L 129.27135678391957 221.5 L 130.99566459749727 221.5 L 132.71997241107496 268.3 L 134.44428022465266 268.3 L 136.16858803823035 287.9 L 137.89289585180805 287.9 L 139.61720366538574 281.6 L 141.3415114789634 281.6 L 143.0658192925411 283.9 L 144.7901271061188 283.9 L 146.5144349196965 265.9 L 148.2387427332742 265.9 L 149.9630505468519 187.1 L 151.68735836042958 187.1 L 153.41166617400728 167.6 L 155.13597398758495 167.6 L 156.86028180116264 185.9 L 158.58458961474034 185.9 L 160.30889742831803 192 L 162.03320524189573 192 L 163.75751305547342 188 L 165.48182086905112 188 L 167.20612868262882 178.9 L 168.9304364962065 178.9 L 170.65474430978418 196 L 172.37905212336187 196 L 174.10335993693957 223.3 L 175.82766775051726 223.3 L 177.55197556409496 216.7 L 179.27628337767266 216.7 L 181.00059119125035 204.1 L 182.72489900482805 204.1 L 184.4492068184057 185.9 L 186.1735146319834 185.9 L 187.8978224455611 192 L 189.6221302591388 192 L 191.3464380727165 227.4 L 193.0707458862942 227.4 L 194.7950536998719 89.6 L 196.51936151344958 89.6 L 198.24366932702728 137.2 L 199.96797714060494 137.2 L 201.69228495418264 213 L 203.41659276776033 284.3 L 205.14090058133803 284.3 L 206.86520839491573 283 L 208.58951620849342 282.2 L 210.31382402207112 282.2 L 212.0381318356488 252.5 L 213.76243964922648 252.5 L 215.48674746280417 228.7 L 217.21105527638187 228.7 L 218.93536308995957 210.8 L 220.65967090353726 210.8 L 222.38397871711496 90.5 L 224.10828653069265 90.5 L 225.83259434427035 37.6 L 227.55690215784804 37.6 L 229.2812099714257 233.1 L 231.0055177850034 233.1 L 232.7298255985811 283.9 L 234.4541334121588 283.9 L 236.1784412257365 283.3 L 237.9027490393142 283.3 L 239.62705685289188 263.9 L 241.35136466646958 263.9 L 243.07567248004725 223.6 L 244.79998029362494 223.6 L 246.52428810720264 256.1 L 248.24859592078033 256.1 L 249.97290373435803 263.4 L 251.69721154793572 263.4 L 253.42151936151342 278.5 L 255.1458271750911 278.5 L 256.8701349886688 278.2 L 258.5944428022465 278.2 L 260.3187506158242 281.1 L 262.04305842940187 281.1 L 263.76736624297956 280.3 L 265.49167405655726 280.3 L 267.21598187013495 278.9 L 268.94028968371265 278.9 L 270.66459749729034 257.5 L 272.38890531086804 257.5 L 274.11321312444574 257.4 L 275.83752093802343 257.4 L 277.5618287516011 252.8 L 279.2861365651788 252.8 L 281.01044437875646 275.2 L 282.73475219233416 275.2 L 284.45906000591185 278.2 L 286.18336781948955 278.2 L 287.90767563306724 264.2 L 289.63198344664494 264.2 L 291.35629126022263 248.6 L 293.08059907380033 248.6 L 294.804906887378 213.6 L 296.5292147009557 213.6 L 298.2535225145334 185.2 L 299.9778303281111 185.2 L 301.7021381416888 152.9 L 303.4264459552665 152.9 L 305.1507537688442 148.8 L 306.8750615824219 159.7 L 308.5993693959996 159.7 L 310.3236772095772 155.7 L 312.0479850231549 155.7 L 313.7722928367326 161 L 315.4966006503103 161 L 317.220908463888 195.3 L 318.9452162774657 195.3 L 320.6695240910434 235 L 322.3938319046211 235 L 324.1181397181988 47 L 325.8424475317765 47 L 327.5667553453542 -189.8 L 329.2910631589319 -189.8 L 331.0153709725096 -79.7 L 332.73967878608727 -79.7 L 334.46398659966496 112.1 L 336.18829441324266 112.1 L 337.91260222682035 128.3 L 339.636910040398 128.3 L 341.3612178539757 110.1 L 343.0855256675534 110.1 L 344.8098334811311 101.6 L 346.5341412947088 101.6 L 348.25844910828647 109.8 L 349.98275692186417 109.8 L 351.70706473544186 98.9 L 353.43137254901956 98.9 L 355.15568036259725 111.7 L 356.87998817617495 111.7 L 358.60429598975264 112 L 360.32860380333034 112 L 362.05291161690803 125.5 L 363.77721943048573 125.5 L 365.5015272440634 128.5 L 367.2258350576411 128.5 L 368.95014287121876 127.9 L 370.67445068479645 127.9 L 372.39875849837415 145.3 L 374.12306631195185 142.3 L 375.84737412552954 142.3 L 377.57168193910724 128.8 L 379.29598975268493 128.8 L 381.0202975662626 127.2 L 382.7446053798403 127.2 L 384.468913193418 114.5 L 386.1932210069957 102.4 L 387.9175288205734 102.4 L 389.6418366341511 125.7 L 391.3661444477288 125.7 L 393.0904522613065 125.7 L 394.8147600748842 125.7 L 396.5390678884619 136.4 L 398.2633757020395 136.4 L 399.9876835156172 125.6 L 401.7119913291949 125.6 L 403.4362991427726 108.6 L 405.1606069563503 108.6 L 406.884914769928 122.1 L 408.6092225835057 122.1 L 410.3335303970834 127.6 L 412.0578382106611 127.6 L 413.7821460242388 127.4 L 415.5064538378165 127.4 L 417.2307616513942 123.2 L 418.95506946497187 123.2 L 420.67937727854957 127.1 L 422.40368509212726 127.1 L 424.12799290570496 151.7 L 425.85230071928265 151.7 L 427.5766085328603 153.2 L 429.300916346438 153.2 L 431.0252241600157 141.3 L 432.7495319735934 141.3 L 434.4738397871711 122.6 L 436.19814760074877 122.6 L 437.92245541432646 120.1 L 439.64676322790416 120.1 L 441.37107104148185 126.4 L 443.0953788550596 126.4 L 444.8196866686373 126.7 L 446.543994482215 126.7 L 448.2683022957927 126.8 L 449.9926101093704 126.8 L 451.7169179229481 118.2 L 453.4412257365257 118.2 L 455.1655335501034 125 L 456.8898413636811 116.2 L 458.6141491772588 116.2 L 460.3384569908365 124 L 462.0627648044142 124 L 463.7870726179919 120.6 L 465.5113804315696 120.6 L 467.2356882451473 119.6 L 468.959996058725 119.6 L 470.6843038723027 126.7 L 472.4086116858804 126.7 L 474.13291949945807 131.8 L 475.85722731303576 131.8 L 477.58153512661346 147.2 L 479.30584294019116 147.2 L 481.03015075376885 144.5 L 482.7544585673465 144.5 L 484.4787663809242 89.4 L 486.2030741945019 89.4 L 487.9273820080796 104.4 L 489.65168982165727 104.4 L 491.37599763523497 126.8 L 493.10030544881266 126.8 L 494.82461326239036 126.7 L 496.54892107596805 126.7 L 498.27322888954575 121.7 L 499.99753670312344 121.7 L 501.72184451670114 116.2 L 503.44615233027884 116.2 L 505.17046014385653 107.3 L 506.8947679574342 107.3 L 508.6190757710119 82.4 L 510.3433835845896 82.4 L 512.0676913981673 101.8 L 513.791999211745 104.6 L 515.5163070253227 104.6 L 517.2406148389003 101.9 L 518.9649226524781 101.9 L 520.6892304660557 125.9 L 522.4135382796335 125.9 L 524.1378460932111 127.1 L 525.8621539067888 127.1 L 527.5864617203665 125.9 L 529.3107695339442 125.9 L 531.0350773475219 122.1 L 532.7593851610995 122.1 L 534.4836929746773 117.9 L 536.2080007882549 117.9 L 537.9323086018327 156.3 L 539.6566164154103 156.3 L 541.3809242289881 122.4 L 543.1052320425657 122.4 L 544.8295398561435 128.1 L 546.5538476697211 128.1 L 548.2781554832989 126.1 L 550.0024632968765 126.1 L 551.7267711104543 125.5 L 553.4510789240319 125.5 L 555.1753867376095 140.2 L 556.8996945511873 140.2 L 558.6240023647649 124.9 L 560.3483101783427 124.9 L 562.0726179919203 117.5 L 563.7969258054981 117.5 L 565.5212336190757 126.9 L 567.2455414326535 126.9 L 568.9698492462311 128.3 L 570.6941570598088 128.3 L 572.4184648733865 125.3 L 574.1427726869642 125.3 L 575.8670805005419 117.1 L 577.5913883141196 117.1 L 579.3156961276973 133.4 L 581.040003941275 133.4 L 582.7643117548527 148.5 L 584.4886195684303 148.5 L 586.212927382008 155.3 L 587.9372351955857 155.3 L 589.6615430091634 129.8 L 591.3858508227411 129.8 L 593.1101586363188 116.6 L 594.8344664498965 116.6 L 596.5587742634742 125.2 L 598.2830820770519 125.2 L 600.0073898906296 127 L 601.7316977042072 124 L 603.456005517785 124 L 605.1803133313626 112.5 L 606.9046211449404 112.5 L 608.628928958518 118.6 L 610.3532367720958 118.6 L 612.0775445856734 143.5 L 613.8018523992512 143.5 L 615.5261602128288 125.5 L 617.2504680264065 125.5 L 618.9747758399842 118.6 L 620.6990836535618 118.6 L 622.4233914671396 125.7 L 624.1476992807172 125.7 L 625.872007094295 126.3 L 627.5963149078726 126.3 L 629.3206227214504 127.2 L 631.044930535028 127.2 L 632.7692383486058 133.5 L 634.4935461621834 133.5 L 636.2178539757612 149.5 L 637.9421617893388 149.5 L 639.6664696029165 103.9 L 641.3907774164942 103.9 L 643.1150852300719 106.4 L 644.8393930436496 106.4 L 646.5637008572272 128.1 L 648.288008670805 127.8 L 650.0123164843826 127.8 L 651.7366242979604 126.7 L 653.460932111538 126.7 L 655.1852399251158 118.4 L 656.9095477386934 118.4 L 658.6338555522711 119 L 660.3581633658488 119 L 662.0824711794265 129.2 L 663.8067789930042 129.2 L 665.5310868065819 143.9 L 667.2553946201596 143.9 L 668.9797024337373 121.3 L 670.704010247315 121.3 L 672.4283180608927 88.6 L 674.1526258744703 88.6 L 675.876933688048 113.2 L 677.6012415016257 113.2 L 679.3255493152034 127.4 L 681.0498571287811 127.4 L 682.7741649423588 127.9 L 684.4984727559365 127.9 L 686.2227805695142 127.2 L 687.9470883830919 127.2 L 689.6713961966695 130.9 L 691.3957040102473 130.9 L 693.1200118238249 152.7 L 694.8443196374027 152.7 L 696.5686274509803 144.8 L 698.2929352645581 144.8 L 700.0172430781357 127.4 L 701.7415508917135 127.4 L 703.4658587052911 126.9 L 705.1901665188688 126.9 L 706.9144743324465 121.9 L 708.6387821460241 121.9 L 710.3630899596019 135.2 L 712.0873977731795 135.2 L 713.8117055867573 137.7 L 715.5360134003349 137.7 L 717.2603212139127 115.3 L 718.9846290274903 115.3 L 720.7089368410681 120.5 L 722.4332446546457 120.5 L 724.1575524682235 126.8 L 725.8818602818011 126.8 L 727.6061680953788 126.3 L 729.3304759089565 126.3 L 731.0547837225342 117.8 L 732.7790915361119 117.8 L 734.5033993496895 119.4 L 736.2277071632673 119.4 L 737.9520149768449 136.6 L 739.6763227904227 136.6 L 741.4006306040003 153.2 L 743.124938417578 153.2 L 744.8492462311557 61.6 L 746.5735540447334 61.6 L 748.2978618583111 44.4 L 750.0221696718888 44.4 L 751.7464774854665 118.2 L 753.4707852990442 118.2 L 755.1950931126219 128.1 L 756.9194009261996 128 L 758.6437087397773 128 L 760.368016553355 126.7 L 762.0923243669326 126.7 L 763.8166321805103 114 L 765.540939994088 114 L 767.2652478076657 139.8 L 768.9895556212434 139.8 L 770.7138634348211 140.4 L 772.4381712483988 140.4 L 774.1624790619765 116.6 L 775.8867868755542 116.6 L 777.6110946891318 121.7 L 779.3354025027096 121.7 L 781.0597103162872 121.2 L 782.784018129865 121.2 L 784.5083259434426 124.4 L 786.2326337570204 124.4 L 787.956941570598 127.1 L 789.6812493841758 127.1 L 791.4055571977534 144.6 L 793.129865011331 111.3 L 794.8541728249088 125 L 796.5784806384864 127.1 L 798.3027884520642 127.1 L 800.0270962656418 126.5 L 801.7514040792196 126.5 L 803.4757118927972 125.5 L 805.200019706375 121.4 L 806.9243275199526 121.4 L 808.6486353335304 112.3 L 810.372943147108 112.3 L 812.0972509606858 113.6 L 813.8215587742634 113.6 L 815.5458665878411 143.9 L 817.2701744014188 143.9 L 818.9944822149965 135.1 L 820.7187900285742 135.1 L 822.4430978421518 111.7 L 824.1674056557296 111.7 L 825.8917134693072 114.4 L 827.616021282885 114.4 L 829.3403290964626 126.3 L 831.0646369100403 126.3 L 832.788944723618 125.4 L 834.5132525371957 125.4 L 836.2375603507734 124.5 L 837.9618681643511 124.5 L 839.6861759779288 114.8 L 841.4104837915065 114.8 L 843.1347916050842 142.6 L 844.8590994186619 142.6 L 846.5834072322396 157.5 L 848.3077150458173 157.5 L 850.0320228593949 136.9 L 851.7563306729726 136.9 L 853.4806384865503 125.9 L 855.204946300128 125.9 L 856.9292541137057 123.2 L 858.6535619272834 123.2 L 860.3778697408611 116.3 L 862.1021775544388 116.3 L 863.8264853680165 125.4 L 865.5507931815941 125.4 L 867.2751009951719 115.4 L 868.9994088087495 115.4 L 870.7237166223273 119.4 L 872.4480244359049 119.4 L 874.1723322494827 142.5 L 875.8966400630603 142.5 L 877.6209478766381 121.6 L 879.3452556902157 113.6 L 881.0695635037933 123.9 L 882.7938713173711 123.9 L 884.5181791309487 126.1 L 886.2424869445265 123.6 L 887.9667947581041 123.6 L 889.6911025716819 111.3 L 891.4154103852595 111.3 L 893.1397181988373 120.8 L 894.8640260124149 120.8 L 896.5883338259927 157.6 L 898.3126416395703 157.6 L 900.036949453148 156.2 L 901.7612572667257 156.2 L 903.4855650803034 130.7 L 905.2098728938811 130.7 L 906.9341807074588 115.7 L 908.6584885210365 115.7 L 910.3827963346141 123.6 L 912.1071041481919 123.6 L 913.8314119617695 125.3 L 915.5557197753473 125.3 L 917.2800275889249 124.9 L 919.0043354025026 124.9 L 920.7286432160803 108.6 L 922.452951029658 108.6 L 924.1772588432357 117.3 L 925.9015666568134 117.3 L 927.6258744703911 143.4 L 929.3501822839688 143.4 L 931.0744900975465 127.4 L 932.7987979111242 127.4 L 934.5231057247018 116.2 L 936.2474135382796 116.2 L 937.9717213518572 123.5 L 939.6960291654349 123.5 L 941.4203369790126 115.9 L 943.1446447925903 115.9 L 944.868952606168 123.2 L 946.5932604197457 123.2 L 948.3175682333234 116.7 L 950.041876046901 116.7 L 951.7661838604788 129.4 L 953.4904916740564 129.4 L 955.2147994876342 113.5 L 956.9391073012118 113.5 L 958.6634151147896 123.2 L 960.3877229283672 123.2 L 962.112030741945 128.7 L 963.8363385555226 127.1 L 965.5606463691004 114.5 L 967.284954182678 114.5 L 969.0092619962556 107.4 L 970.7335698098334 107.4 L 972.457877623411 134.9 L 974.1821854369888 134.9 L 975.9064932505664 145.9 L 977.6308010641442 145.9 L 979.3551088777218 124 L 981.0794166912996 124 L 982.8037245048772 109.1 L 984.528032318455 109.1 L 986.2523401320326 122.7 L 987.9766479456104 127.1 L 989.700955759188 127.1 L 991.4252635727657 126 L 993.1495713863434 126 L 994.8738791999211 114.6 L 996.5981870134988 114.6 L 998.3224948270764 131.1 L 1000.0468026406542 131.1 L 1001.7711104542318 157 L 1003.4954182678096 157 L 1005.2197260813872 151.7 L 1006.944033894965 151.7 L 1008.6683417085426 129.3 L 1010.3926495221203 129.3 L 1012.116957335698 127 L 1013.8412651492757 127 L 1015.5655729628534 118.2 L 1017.2898807764311 118.2 L 1019.0141885900088 122.2 L 1020.7384964035865 122.2 L 1022.4628042171641 118.2 L 1024.187112030742 118.2 L 1025.9114198443194 112.5 L 1027.6357276578972 136.9 L 1029.360035471475 136.9 L 1031.0843432850527 137 L 1032.8086510986302 137 L 1034.532958912208 114.3 L 1036.2572667257857 114.3 L 1037.9815745393635 120.2 L 1039.705882352941 120.2" stroke="#2f7ed8" stroke-width="1" zIndex="1"></path></g><g class="highcharts-markers" visibility="visible" zIndex="0.1" transform="translate(60,10) scale(1 1)" clip-path="none"><path fill="none" d="M 0.2941176470588225 310.2 L 10.294117647058822 310.2 L 12.018425460636514 310.2 L 13.742733274214206 317.6 L 15.467041087791896 317.6 L 17.19134890136959 289.8 L 18.915656714947282 272.9 L 20.639964528524974 272.9 L 22.364272342102666 255.4 L 24.088580155680358 255.4 L 25.81288796925805 247.9 L 27.53719578283574 247.9 L 29.261503596413434 283.3 L 30.985811409991125 283.3 L 32.71011922356882 277.6 L 34.43442703714651 288.1 L 36.1587348507242 300.7 L 37.8830426643019 300.7 L 39.607350477879585 292.6 L 41.33165829145728 292.6 L 43.05596610503497 255.6 L 44.780273918612664 255.6 L 46.50458173219035 282.3 L 48.22888954576805 282.3 L 49.95319735934574 288.3 L 51.67750517292343 288.3 L 53.40181298650112 289.8 L 55.126120800078816 289.8 L 56.85042861365651 288.3 L 58.5747364272342 293.2 L 60.299044240811895 293.2 L 62.02335205438958 313.4 L 63.74765986796728 313.4 L 65.47196768154497 315.4 L 67.19627549512266 315.4 L 68.92058330870036 280.1 L 70.64489112227804 280.1 L 72.36919893585574 281.1 L 74.09350674943343 281.1 L 75.81781456301113 286.1 L 77.54212237658881 286.1 L 79.2664301901665 286.4 L 80.9907380037442 286.4 L 82.7150458173219 289.3 L 84.43935363089959 289.3 L 86.16366144447727 288.3 L 87.88796925805497 288.3 L 89.61227707163266 289.9 L 91.33658488521036 289.9 L 93.06089269878804 302 L 94.78520051236573 302 L 96.50950832594343 281.6 L 98.23381613952112 281.6 L 99.9581239530988 262.1 L 101.6824317666765 262.1 L 103.4067395802542 284.4 L 105.13104739383189 284.4 L 106.85535520740957 289.6 L 108.57966302098727 289.6 L 110.30397083456496 289.1 L 112.02827864814266 289.1 L 113.75258646172036 289.4 L 115.47689427529804 289.4 L 117.20120208887573 295.8 L 118.92550990245343 314.4 L 120.64981771603112 311.6 L 122.3741255296088 311.6 L 124.0984333431865 276.6 L 125.8227411567642 253.9 L 127.54704897034189 253.9 L 129.27135678391957 221.5 L 130.99566459749727 221.5 L 132.71997241107496 268.3 L 134.44428022465266 268.3 L 136.16858803823035 287.9 L 137.89289585180805 287.9 L 139.61720366538574 281.6 L 141.3415114789634 281.6 L 143.0658192925411 283.9 L 144.7901271061188 283.9 L 146.5144349196965 265.9 L 148.2387427332742 265.9 L 149.9630505468519 187.1 L 151.68735836042958 187.1 L 153.41166617400728 167.6 L 155.13597398758495 167.6 L 156.86028180116264 185.9 L 158.58458961474034 185.9 L 160.30889742831803 192 L 162.03320524189573 192 L 163.75751305547342 188 L 165.48182086905112 188 L 167.20612868262882 178.9 L 168.9304364962065 178.9 L 170.65474430978418 196 L 172.37905212336187 196 L 174.10335993693957 223.3 L 175.82766775051726 223.3 L 177.55197556409496 216.7 L 179.27628337767266 216.7 L 181.00059119125035 204.1 L 182.72489900482805 204.1 L 184.4492068184057 185.9 L 186.1735146319834 185.9 L 187.8978224455611 192 L 189.6221302591388 192 L 191.3464380727165 227.4 L 193.0707458862942 227.4 L 194.7950536998719 89.6 L 196.51936151344958 89.6 L 198.24366932702728 137.2 L 199.96797714060494 137.2 L 201.69228495418264 213 L 203.41659276776033 284.3 L 205.14090058133803 284.3 L 206.86520839491573 283 L 208.58951620849342 282.2 L 210.31382402207112 282.2 L 212.0381318356488 252.5 L 213.76243964922648 252.5 L 215.48674746280417 228.7 L 217.21105527638187 228.7 L 218.93536308995957 210.8 L 220.65967090353726 210.8 L 222.38397871711496 90.5 L 224.10828653069265 90.5 L 225.83259434427035 37.6 L 227.55690215784804 37.6 L 229.2812099714257 233.1 L 231.0055177850034 233.1 L 232.7298255985811 283.9 L 234.4541334121588 283.9 L 236.1784412257365 283.3 L 237.9027490393142 283.3 L 239.62705685289188 263.9 L 241.35136466646958 263.9 L 243.07567248004725 223.6 L 244.79998029362494 223.6 L 246.52428810720264 256.1 L 248.24859592078033 256.1 L 249.97290373435803 263.4 L 251.69721154793572 263.4 L 253.42151936151342 278.5 L 255.1458271750911 278.5 L 256.8701349886688 278.2 L 258.5944428022465 278.2 L 260.3187506158242 281.1 L 262.04305842940187 281.1 L 263.76736624297956 280.3 L 265.49167405655726 280.3 L 267.21598187013495 278.9 L 268.94028968371265 278.9 L 270.66459749729034 257.5 L 272.38890531086804 257.5 L 274.11321312444574 257.4 L 275.83752093802343 257.4 L 277.5618287516011 252.8 L 279.2861365651788 252.8 L 281.01044437875646 275.2 L 282.73475219233416 275.2 L 284.45906000591185 278.2 L 286.18336781948955 278.2 L 287.90767563306724 264.2 L 289.63198344664494 264.2 L 291.35629126022263 248.6 L 293.08059907380033 248.6 L 294.804906887378 213.6 L 296.5292147009557 213.6 L 298.2535225145334 185.2 L 299.9778303281111 185.2 L 301.7021381416888 152.9 L 303.4264459552665 152.9 L 305.1507537688442 148.8 L 306.8750615824219 159.7 L 308.5993693959996 159.7 L 310.3236772095772 155.7 L 312.0479850231549 155.7 L 313.7722928367326 161 L 315.4966006503103 161 L 317.220908463888 195.3 L 318.9452162774657 195.3 L 320.6695240910434 235 L 322.3938319046211 235 L 324.1181397181988 47 L 325.8424475317765 47 L 327.5667553453542 -189.8 L 329.2910631589319 -189.8 L 331.0153709725096 -79.7 L 332.73967878608727 -79.7 L 334.46398659966496 112.1 L 336.18829441324266 112.1 L 337.91260222682035 128.3 L 339.636910040398 128.3 L 341.3612178539757 110.1 L 343.0855256675534 110.1 L 344.8098334811311 101.6 L 346.5341412947088 101.6 L 348.25844910828647 109.8 L 349.98275692186417 109.8 L 351.70706473544186 98.9 L 353.43137254901956 98.9 L 355.15568036259725 111.7 L 356.87998817617495 111.7 L 358.60429598975264 112 L 360.32860380333034 112 L 362.05291161690803 125.5 L 363.77721943048573 125.5 L 365.5015272440634 128.5 L 367.2258350576411 128.5 L 368.95014287121876 127.9 L 370.67445068479645 127.9 L 372.39875849837415 145.3 L 374.12306631195185 142.3 L 375.84737412552954 142.3 L 377.57168193910724 128.8 L 379.29598975268493 128.8 L 381.0202975662626 127.2 L 382.7446053798403 127.2 L 384.468913193418 114.5 L 386.1932210069957 102.4 L 387.9175288205734 102.4 L 389.6418366341511 125.7 L 391.3661444477288 125.7 L 393.0904522613065 125.7 L 394.8147600748842 125.7 L 396.5390678884619 136.4 L 398.2633757020395 136.4 L 399.9876835156172 125.6 L 401.7119913291949 125.6 L 403.4362991427726 108.6 L 405.1606069563503 108.6 L 406.884914769928 122.1 L 408.6092225835057 122.1 L 410.3335303970834 127.6 L 412.0578382106611 127.6 L 413.7821460242388 127.4 L 415.5064538378165 127.4 L 417.2307616513942 123.2 L 418.95506946497187 123.2 L 420.67937727854957 127.1 L 422.40368509212726 127.1 L 424.12799290570496 151.7 L 425.85230071928265 151.7 L 427.5766085328603 153.2 L 429.300916346438 153.2 L 431.0252241600157 141.3 L 432.7495319735934 141.3 L 434.4738397871711 122.6 L 436.19814760074877 122.6 L 437.92245541432646 120.1 L 439.64676322790416 120.1 L 441.37107104148185 126.4 L 443.0953788550596 126.4 L 444.8196866686373 126.7 L 446.543994482215 126.7 L 448.2683022957927 126.8 L 449.9926101093704 126.8 L 451.7169179229481 118.2 L 453.4412257365257 118.2 L 455.1655335501034 125 L 456.8898413636811 116.2 L 458.6141491772588 116.2 L 460.3384569908365 124 L 462.0627648044142 124 L 463.7870726179919 120.6 L 465.5113804315696 120.6 L 467.2356882451473 119.6 L 468.959996058725 119.6 L 470.6843038723027 126.7 L 472.4086116858804 126.7 L 474.13291949945807 131.8 L 475.85722731303576 131.8 L 477.58153512661346 147.2 L 479.30584294019116 147.2 L 481.03015075376885 144.5 L 482.7544585673465 144.5 L 484.4787663809242 89.4 L 486.2030741945019 89.4 L 487.9273820080796 104.4 L 489.65168982165727 104.4 L 491.37599763523497 126.8 L 493.10030544881266 126.8 L 494.82461326239036 126.7 L 496.54892107596805 126.7 L 498.27322888954575 121.7 L 499.99753670312344 121.7 L 501.72184451670114 116.2 L 503.44615233027884 116.2 L 505.17046014385653 107.3 L 506.8947679574342 107.3 L 508.6190757710119 82.4 L 510.3433835845896 82.4 L 512.0676913981673 101.8 L 513.791999211745 104.6 L 515.5163070253227 104.6 L 517.2406148389003 101.9 L 518.9649226524781 101.9 L 520.6892304660557 125.9 L 522.4135382796335 125.9 L 524.1378460932111 127.1 L 525.8621539067888 127.1 L 527.5864617203665 125.9 L 529.3107695339442 125.9 L 531.0350773475219 122.1 L 532.7593851610995 122.1 L 534.4836929746773 117.9 L 536.2080007882549 117.9 L 537.9323086018327 156.3 L 539.6566164154103 156.3 L 541.3809242289881 122.4 L 543.1052320425657 122.4 L 544.8295398561435 128.1 L 546.5538476697211 128.1 L 548.2781554832989 126.1 L 550.0024632968765 126.1 L 551.7267711104543 125.5 L 553.4510789240319 125.5 L 555.1753867376095 140.2 L 556.8996945511873 140.2 L 558.6240023647649 124.9 L 560.3483101783427 124.9 L 562.0726179919203 117.5 L 563.7969258054981 117.5 L 565.5212336190757 126.9 L 567.2455414326535 126.9 L 568.9698492462311 128.3 L 570.6941570598088 128.3 L 572.4184648733865 125.3 L 574.1427726869642 125.3 L 575.8670805005419 117.1 L 577.5913883141196 117.1 L 579.3156961276973 133.4 L 581.040003941275 133.4 L 582.7643117548527 148.5 L 584.4886195684303 148.5 L 586.212927382008 155.3 L 587.9372351955857 155.3 L 589.6615430091634 129.8 L 591.3858508227411 129.8 L 593.1101586363188 116.6 L 594.8344664498965 116.6 L 596.5587742634742 125.2 L 598.2830820770519 125.2 L 600.0073898906296 127 L 601.7316977042072 124 L 603.456005517785 124 L 605.1803133313626 112.5 L 606.9046211449404 112.5 L 608.628928958518 118.6 L 610.3532367720958 118.6 L 612.0775445856734 143.5 L 613.8018523992512 143.5 L 615.5261602128288 125.5 L 617.2504680264065 125.5 L 618.9747758399842 118.6 L 620.6990836535618 118.6 L 622.4233914671396 125.7 L 624.1476992807172 125.7 L 625.872007094295 126.3 L 627.5963149078726 126.3 L 629.3206227214504 127.2 L 631.044930535028 127.2 L 632.7692383486058 133.5 L 634.4935461621834 133.5 L 636.2178539757612 149.5 L 637.9421617893388 149.5 L 639.6664696029165 103.9 L 641.3907774164942 103.9 L 643.1150852300719 106.4 L 644.8393930436496 106.4 L 646.5637008572272 128.1 L 648.288008670805 127.8 L 650.0123164843826 127.8 L 651.7366242979604 126.7 L 653.460932111538 126.7 L 655.1852399251158 118.4 L 656.9095477386934 118.4 L 658.6338555522711 119 L 660.3581633658488 119 L 662.0824711794265 129.2 L 663.8067789930042 129.2 L 665.5310868065819 143.9 L 667.2553946201596 143.9 L 668.9797024337373 121.3 L 670.704010247315 121.3 L 672.4283180608927 88.6 L 674.1526258744703 88.6 L 675.876933688048 113.2 L 677.6012415016257 113.2 L 679.3255493152034 127.4 L 681.0498571287811 127.4 L 682.7741649423588 127.9 L 684.4984727559365 127.9 L 686.2227805695142 127.2 L 687.9470883830919 127.2 L 689.6713961966695 130.9 L 691.3957040102473 130.9 L 693.1200118238249 152.7 L 694.8443196374027 152.7 L 696.5686274509803 144.8 L 698.2929352645581 144.8 L 700.0172430781357 127.4 L 701.7415508917135 127.4 L 703.4658587052911 126.9 L 705.1901665188688 126.9 L 706.9144743324465 121.9 L 708.6387821460241 121.9 L 710.3630899596019 135.2 L 712.0873977731795 135.2 L 713.8117055867573 137.7 L 715.5360134003349 137.7 L 717.2603212139127 115.3 L 718.9846290274903 115.3 L 720.7089368410681 120.5 L 722.4332446546457 120.5 L 724.1575524682235 126.8 L 725.8818602818011 126.8 L 727.6061680953788 126.3 L 729.3304759089565 126.3 L 731.0547837225342 117.8 L 732.7790915361119 117.8 L 734.5033993496895 119.4 L 736.2277071632673 119.4 L 737.9520149768449 136.6 L 739.6763227904227 136.6 L 741.4006306040003 153.2 L 743.124938417578 153.2 L 744.8492462311557 61.6 L 746.5735540447334 61.6 L 748.2978618583111 44.4 L 750.0221696718888 44.4 L 751.7464774854665 118.2 L 753.4707852990442 118.2 L 755.1950931126219 128.1 L 756.9194009261996 128 L 758.6437087397773 128 L 760.368016553355 126.7 L 762.0923243669326 126.7 L 763.8166321805103 114 L 765.540939994088 114 L 767.2652478076657 139.8 L 768.9895556212434 139.8 L 770.7138634348211 140.4 L 772.4381712483988 140.4 L 774.1624790619765 116.6 L 775.8867868755542 116.6 L 777.6110946891318 121.7 L 779.3354025027096 121.7 L 781.0597103162872 121.2 L 782.784018129865 121.2 L 784.5083259434426 124.4 L 786.2326337570204 124.4 L 787.956941570598 127.1 L 789.6812493841758 127.1 L 791.4055571977534 144.6 L 793.129865011331 111.3 L 794.8541728249088 125 L 796.5784806384864 127.1 L 798.3027884520642 127.1 L 800.0270962656418 126.5 L 801.7514040792196 126.5 L 803.4757118927972 125.5 L 805.200019706375 121.4 L 806.9243275199526 121.4 L 808.6486353335304 112.3 L 810.372943147108 112.3 L 812.0972509606858 113.6 L 813.8215587742634 113.6 L 815.5458665878411 143.9 L 817.2701744014188 143.9 L 818.9944822149965 135.1 L 820.7187900285742 135.1 L 822.4430978421518 111.7 L 824.1674056557296 111.7 L 825.8917134693072 114.4 L 827.616021282885 114.4 L 829.3403290964626 126.3 L 831.0646369100403 126.3 L 832.788944723618 125.4 L 834.5132525371957 125.4 L 836.2375603507734 124.5 L 837.9618681643511 124.5 L 839.6861759779288 114.8 L 841.4104837915065 114.8 L 843.1347916050842 142.6 L 844.8590994186619 142.6 L 846.5834072322396 157.5 L 848.3077150458173 157.5 L 850.0320228593949 136.9 L 851.7563306729726 136.9 L 853.4806384865503 125.9 L 855.204946300128 125.9 L 856.9292541137057 123.2 L 858.6535619272834 123.2 L 860.3778697408611 116.3 L 862.1021775544388 116.3 L 863.8264853680165 125.4 L 865.5507931815941 125.4 L 867.2751009951719 115.4 L 868.9994088087495 115.4 L 870.7237166223273 119.4 L 872.4480244359049 119.4 L 874.1723322494827 142.5 L 875.8966400630603 142.5 L 877.6209478766381 121.6 L 879.3452556902157 113.6 L 881.0695635037933 123.9 L 882.7938713173711 123.9 L 884.5181791309487 126.1 L 886.2424869445265 123.6 L 887.9667947581041 123.6 L 889.6911025716819 111.3 L 891.4154103852595 111.3 L 893.1397181988373 120.8 L 894.8640260124149 120.8 L 896.5883338259927 157.6 L 898.3126416395703 157.6 L 900.036949453148 156.2 L 901.7612572667257 156.2 L 903.4855650803034 130.7 L 905.2098728938811 130.7 L 906.9341807074588 115.7 L 908.6584885210365 115.7 L 910.3827963346141 123.6 L 912.1071041481919 123.6 L 913.8314119617695 125.3 L 915.5557197753473 125.3 L 917.2800275889249 124.9 L 919.0043354025026 124.9 L 920.7286432160803 108.6 L 922.452951029658 108.6 L 924.1772588432357 117.3 L 925.9015666568134 117.3 L 927.6258744703911 143.4 L 929.3501822839688 143.4 L 931.0744900975465 127.4 L 932.7987979111242 127.4 L 934.5231057247018 116.2 L 936.2474135382796 116.2 L 937.9717213518572 123.5 L 939.6960291654349 123.5 L 941.4203369790126 115.9 L 943.1446447925903 115.9 L 944.868952606168 123.2 L 946.5932604197457 123.2 L 948.3175682333234 116.7 L 950.041876046901 116.7 L 951.7661838604788 129.4 L 953.4904916740564 129.4 L 955.2147994876342 113.5 L 956.9391073012118 113.5 L 958.6634151147896 123.2 L 960.3877229283672 123.2 L 962.112030741945 128.7 L 963.8363385555226 127.1 L 965.5606463691004 114.5 L 967.284954182678 114.5 L 969.0092619962556 107.4 L 970.7335698098334 107.4 L 972.457877623411 134.9 L 974.1821854369888 134.9 L 975.9064932505664 145.9 L 977.6308010641442 145.9 L 979.3551088777218 124 L 981.0794166912996 124 L 982.8037245048772 109.1 L 984.528032318455 109.1 L 986.2523401320326 122.7 L 987.9766479456104 127.1 L 989.700955759188 127.1 L 991.4252635727657 126 L 993.1495713863434 126 L 994.8738791999211 114.6 L 996.5981870134988 114.6 L 998.3224948270764 131.1 L 1000.0468026406542 131.1 L 1001.7711104542318 157 L 1003.4954182678096 157 L 1005.2197260813872 151.7 L 1006.944033894965 151.7 L 1008.6683417085426 129.3 L 1010.3926495221203 129.3 L 1012.116957335698 127 L 1013.8412651492757 127 L 1015.5655729628534 118.2 L 1017.2898807764311 118.2 L 1019.0141885900088 122.2 L 1020.7384964035865 122.2 L 1022.4628042171641 118.2 L 1024.187112030742 118.2 L 1025.9114198443194 112.5 L 1027.6357276578972 136.9 L 1029.360035471475 136.9 L 1031.0843432850527 137 L 1032.8086510986302 137 L 1034.532958912208 114.3 L 1036.2572667257857 114.3 L 1037.9815745393635 120.2 L 1039.705882352941 120.2 L 1049.705882352941 120.2" class="highcharts-tracker highcharts-tracker" stroke-linejoin="round" visibility="visible" stroke-opacity="0.0001" stroke="rgb(192,192,192)" stroke-width="21" zIndex="2" style=""></path></g></g><g class="highcharts-axis-labels" zIndex="7"><text x="70.29411764705883" y="386" style="font-family:&quot;Lucida Grande&quot;, &quot;Lucida Sans Unicode&quot;, Verdana, Arial, Helvetica, sans-serif;font-size:11px;color:#666;cursor:default;line-height:14px;fill:#666;" text-anchor="middle" opacity="1"><tspan x="70.29411764705883">0</tspan></text><text x="156.50950832594344" y="386" style="font-family:&quot;Lucida Grande&quot;, &quot;Lucida Sans Unicode&quot;, Verdana, Arial, Helvetica, sans-serif;font-size:11px;color:#666;cursor:default;line-height:14px;fill:#666;" text-anchor="middle" opacity="1"><tspan x="156.50950832594344">50</tspan></text><text x="242.72489900482805" y="386" style="font-family:&quot;Lucida Grande&quot;, &quot;Lucida Sans Unicode&quot;, Verdana, Arial, Helvetica, sans-serif;font-size:11px;color:#666;cursor:default;line-height:14px;fill:#666;" text-anchor="middle" opacity="1"><tspan x="242.72489900482805">100</tspan></text><text x="328.94028968371265" y="386" style="font-family:&quot;Lucida Grande&quot;, &quot;Lucida Sans Unicode&quot;, Verdana, Arial, Helvetica, sans-serif;font-size:11px;color:#666;cursor:default;line-height:14px;fill:#666;" text-anchor="middle" opacity="1"><tspan x="328.94028968371265">150</tspan></text><text x="415.15568036259725" y="386" style="font-family:&quot;Lucida Grande&quot;, &quot;Lucida Sans Unicode&quot;, Verdana, Arial, Helvetica, sans-serif;font-size:11px;color:#666;cursor:default;line-height:14px;fill:#666;" text-anchor="middle" opacity="1"><tspan x="415.15568036259725">200</tspan></text><text x="501.37107104148185" y="386" style="font-family:&quot;Lucida Grande&quot;, &quot;Lucida Sans Unicode&quot;, Verdana, Arial, Helvetica, sans-serif;font-size:11px;color:#666;cursor:default;line-height:14px;fill:#666;" text-anchor="middle" opacity="1"><tspan x="501.37107104148185">250</tspan></text><text x="587.5864617203665" y="386" style="font-family:&quot;Lucida Grande&quot;, &quot;Lucida Sans Unicode&quot;, Verdana, Arial, Helvetica, sans-serif;font-size:11px;color:#666;cursor:default;line-height:14px;fill:#666;" text-anchor="middle" opacity="1"><tspan x="587.5864617203665">300</tspan></text><text x="673.8018523992512" y="386" style="font-family:&quot;Lucida Grande&quot;, &quot;Lucida Sans Unicode&quot;, Verdana, Arial, Helvetica, sans-serif;font-size:11px;color:#666;cursor:default;line-height:14px;fill:#666;" text-anchor="middle" opacity="1"><tspan x="673.8018523992512">350</tspan></text><text x="760.0172430781357" y="386" style="font-family:&quot;Lucida Grande&quot;, &quot;Lucida Sans Unicode&quot;, Verdana, Arial, Helvetica, sans-serif;font-size:11px;color:#666;cursor:default;line-height:14px;fill:#666;" text-anchor="middle" opacity="1"><tspan x="760.0172430781357">400</tspan></text><text x="846.2326337570204" y="386" style="font-family:&quot;Lucida Grande&quot;, &quot;Lucida Sans Unicode&quot;, Verdana, Arial, Helvetica, sans-serif;font-size:11px;color:#666;cursor:default;line-height:14px;fill:#666;" text-anchor="middle" opacity="1"><tspan x="846.2326337570204">450</tspan></text><text x="932.4480244359049" y="386" style="font-family:&quot;Lucida Grande&quot;, &quot;Lucida Sans Unicode&quot;, Verdana, Arial, Helvetica, sans-serif;font-size:11px;color:#666;cursor:default;line-height:14px;fill:#666;" text-anchor="middle" opacity="1"><tspan x="932.4480244359049">500</tspan></text><text x="1018.6634151147896" y="386" style="font-family:&quot;Lucida Grande&quot;, &quot;Lucida Sans Unicode&quot;, Verdana, Arial, Helvetica, sans-serif;font-size:11px;color:#666;cursor:default;line-height:14px;fill:#666;" text-anchor="middle" opacity="1"><tspan x="1018.6634151147896">550</tspan></text><text x="1104.8788057936742" y="386" style="font-family:&quot;Lucida Grande&quot;, &quot;Lucida Sans Unicode&quot;, Verdana, Arial, Helvetica, sans-serif;font-size:11px;color:#666;cursor:default;line-height:14px;fill:#666;" text-anchor="middle" opacity="1"><tspan x="1104.8788057936742">600</tspan></text></g><g class="highcharts-axis-labels" zIndex="7"><text x="52" y="378.115625" style="font-family:&quot;Lucida Grande&quot;, &quot;Lucida Sans Unicode&quot;, Verdana, Arial, Helvetica, sans-serif;font-size:11px;width:530px;color:#666;cursor:default;line-height:14px;fill:#666;" text-anchor="end" opacity="1"><tspan x="52">0</tspan></text><text x="52" y="317.78229166666665" style="font-family:&quot;Lucida Grande&quot;, &quot;Lucida Sans Unicode&quot;, Verdana, Arial, Helvetica, sans-serif;font-size:11px;width:530px;color:#666;cursor:default;line-height:14px;fill:#666;" text-anchor="end" opacity="1"><tspan x="52">0.1</tspan></text><text x="52" y="257.44895833333334" style="font-family:&quot;Lucida Grande&quot;, &quot;Lucida Sans Unicode&quot;, Verdana, Arial, Helvetica, sans-serif;font-size:11px;width:530px;color:#666;cursor:default;line-height:14px;fill:#666;" text-anchor="end" opacity="1"><tspan x="52">0.2</tspan></text><text x="52" y="197.115625" style="font-family:&quot;Lucida Grande&quot;, &quot;Lucida Sans Unicode&quot;, Verdana, Arial, Helvetica, sans-serif;font-size:11px;width:530px;color:#666;cursor:default;line-height:14px;fill:#666;" text-anchor="end" opacity="1"><tspan x="52">0.3</tspan></text><text x="52" y="136.78229166666662" style="font-family:&quot;Lucida Grande&quot;, &quot;Lucida Sans Unicode&quot;, Verdana, Arial, Helvetica, sans-serif;font-size:11px;width:530px;color:#666;cursor:default;line-height:14px;fill:#666;" text-anchor="end" opacity="1"><tspan x="52">0.4</tspan></text><text x="52" y="76.44895833333331" style="font-family:&quot;Lucida Grande&quot;, &quot;Lucida Sans Unicode&quot;, Verdana, Arial, Helvetica, sans-serif;font-size:11px;width:530px;color:#666;cursor:default;line-height:14px;fill:#666;" text-anchor="end" opacity="1"><tspan x="52">0.5</tspan></text><text x="52" y="16.115625" style="font-family:&quot;Lucida Grande&quot;, &quot;Lucida Sans Unicode&quot;, Verdana, Arial, Helvetica, sans-serif;font-size:11px;width:530px;color:#666;cursor:default;line-height:14px;fill:#666;" text-anchor="end" opacity="1"><tspan x="52">0.6</tspan></text></g><g class="highcharts-tooltip" zIndex="8" style="cursor:default;padding:0;white-space:nowrap;" visibility="hidden" transform="translate(180,271)" opacity="0"><rect rx="3" ry="3" fill="none" x="0.5" y="0.5" width="251" height="44.203125" fill-opacity="0.85" isShadow="true" stroke="black" stroke-opacity="0.049999999999999996" stroke-width="5" transform="translate(1, 1)"></rect><rect rx="3" ry="3" fill="none" x="0.5" y="0.5" width="251" height="44.203125" fill-opacity="0.85" isShadow="true" stroke="black" stroke-opacity="0.09999999999999999" stroke-width="3" transform="translate(1, 1)"></rect><rect rx="3" ry="3" fill="none" x="0.5" y="0.5" width="251" height="44.203125" fill-opacity="0.85" isShadow="true" stroke="black" stroke-opacity="0.15" stroke-width="1" transform="translate(1, 1)"></rect><rect rx="3" ry="3" fill="rgb(255,255,255)" x="0.5" y="0.5" width="251" height="44.203125" fill-opacity="0.85" stroke="#2f7ed8" stroke-width="1" anchorX="-8.292253124783883" anchorY="28.943571891635656"></rect><text x="8" y="21" style="font-family:&quot;Lucida Grande&quot;, &quot;Lucida Sans Unicode&quot;, Verdana, Arial, Helvetica, sans-serif;font-size:12px;color:#333333;fill:#333333;" zIndex="1"><tspan style="font-size: 10px" x="8">57</tspan><tspan style="fill:#2f7ed8" x="8" dy="16">exp13 while 1</tspan><tspan dx="0">: </tspan><tspan style="font-weight:bold" dx="0">0.11993591210803388</tspan></text></g><text x="1110" y="395" style="font-family:&quot;Lucida Grande&quot;, &quot;Lucida Sans Unicode&quot;, Verdana, Arial, Helvetica, sans-serif;font-size:9px;cursor:pointer;color:#909090;fill:#909090;" text-anchor="end" zIndex="8"><tspan x="1110">Highcharts.com</tspan></text></svg>