<svg xmlns="http://www.w3.org/2000/svg" version="1.1" width="1120" height="400"><desc>Created with Highcharts 3.0.2</desc><defs><clipPath id="highcharts-1"><rect fill="none" x="0" y="0" width="1050" height="361"></rect></clipPath></defs><rect rx="5" ry="5" fill="#FFFFFF" x="0" y="0" width="1120" height="400"></rect><g class="highcharts-grid" zIndex="1"></g><g class="highcharts-grid" zIndex="1"><path fill="none" d="M 60 312.5 L 1110 312.5" stroke="#C0C0C0" stroke-width="1" zIndex="1" opacity="1"></path><path fill="none" d="M 60 251.5 L 1110 251.5" stroke="#C0C0C0" stroke-width="1" zIndex="1" opacity="1"></path><path fill="none" d="M 60 191.5 L 1110 191.5" stroke="#C0C0C0" stroke-width="1" zIndex="1" opacity="1"></path><path fill="none" d="M 60 131.5 L 1110 131.5" stroke="#C0C0C0" stroke-width="1" zIndex="1" opacity="1"></path><path fill="none" d="M 60 70.5 L 1110 70.5" stroke="#C0C0C0" stroke-width="1" zIndex="1" opacity="1"></path><path fill="none" d="M 60 10.5 L 1110 10.5" stroke="#C0C0C0" stroke-width="1" zIndex="1" opacity="1"></path><path fill="none" d="M 60 371.5 L 1110 371.5" stroke="#C0C0C0" stroke-width="1" zIndex="1" opacity="1"></path></g><g class="highcharts-axis" zIndex="2"><path fill="none" d="M 141.5 372 L 141.5 377" stroke="#C0D0E0" stroke-width="1" opacity="1"></path><path fill="none" d="M 213.5 372 L 213.5 377" stroke="#C0D0E0" stroke-width="1" opacity="1"></path><path fill="none" d="M 286.5 372 L 286.5 377" stroke="#C0D0E0" stroke-width="1" opacity="1"></path><path fill="none" d="M 358.5 372 L 358.5 377" stroke="#C0D0E0" stroke-width="1" opacity="1"></path><path fill="none" d="M 430.5 372 L 430.5 377" stroke="#C0D0E0" stroke-width="1" opacity="1"></path><path fill="none" d="M 502.5 372 L 502.5 377" stroke="#C0D0E0" stroke-width="1" opacity="1"></path><path fill="none" d="M 574.5 372 L 574.5 377" stroke="#C0D0E0" stroke-width="1" opacity="1"></path><path fill="none" d="M 646.5 372 L 646.5 377" stroke="#C0D0E0" stroke-width="1" opacity="1"></path><path fill="none" d="M 718.5 372 L 718.5 377" stroke="#C0D0E0" stroke-width="1" opacity="1"></path><path fill="none" d="M 790.5 372 L 790.5 377" stroke="#C0D0E0" stroke-width="1" opacity="1"></path><path fill="none" d="M 862.5 372 L 862.5 377" stroke="#C0D0E0" stroke-width="1" opacity="1"></path><path fill="none" d="M 934.5 372 L 934.5 377" stroke="#C0D0E0" stroke-width="1" opacity="1"></path><path fill="none" d="M 1006.5 372 L 1006.5 377" stroke="#C0D0E0" stroke-width="1" opacity="1"></path><path fill="none" d="M 1079.5 372 L 1079.5 377" stroke="#C0D0E0" stroke-width="1" opacity="1"></path><path fill="none" d="M 69.5 372 L 69.5 377" stroke="#C0D0E0" stroke-width="1" opacity="1"></path><path fill="none" d="M 60 371.5 L 1110 371.5" stroke="#C0D0E0" stroke-width="1" zIndex="7" visibility="visible"></path></g><g class="highcharts-axis" zIndex="2"><text x="24.59375" y="191" style="font-family:&quot;Lucida Grande&quot;, &quot;Lucida Sans Unicode&quot;, Verdana, Arial, Helvetica, sans-serif;font-size:12px;color:#4d759e;font-weight:bold;fill:#4d759e;" zIndex="7" text-anchor="middle" transform="translate(0,0) rotate(270 24.59375 191)" visibility="visible"><tspan x="24.59375">Amperage</tspan></text></g><g class="highcharts-series-group" zIndex="3"><g class="highcharts-series" visibility="visible" zIndex="0.1" transform="translate(60,10) scale(1 1)" clip-path="url(#highcharts-1)"><path fill="none" d="M 10.294117647058824 316.3 L 11.014994232987313 316.3 L 11.735870818915803 303.4 L 12.456747404844291 289 L 13.17762399077278 289 L 13.898500576701268 286.9 L 14.619377162629759 286.9 L 15.340253748558247 287 L 16.061130334486737 287 L 16.782006920415224 288 L 17.502883506343714 288 L 18.223760092272205 287.1 L 18.94463667820069 287.1 L 19.66551326412918 287.2 L 20.38638985005767 287.2 L 21.10726643598616 300.7 L 21.82814302191465 283.1 L 22.54901960784314 287.7 L 23.269896193771626 287.7 L 23.990772779700116 287.5 L 24.711649365628606 287.5 L 25.432525951557093 287.7 L 26.153402537485583 287.7 L 26.874279123414073 291.8 L 27.59515570934256 291.8 L 28.31603229527105 311.5 L 29.03690888119954 311.5 L 29.757785467128027 316 L 30.478662053056517 316 L 31.199538638985004 300.5 L 31.920415224913494 300.5 L 32.641291810841984 286.6 L 33.36216839677047 286.6 L 34.083044982698965 287.5 L 34.80392156862745 287.5 L 35.52479815455594 288.2 L 36.24567474048443 288.2 L 36.96655132641292 288.1 L 37.687427912341406 288.1 L 38.4083044982699 287.3 L 39.129181084198386 287.3 L 39.85005767012687 279.3 L 40.57093425605537 279.3 L 41.29181084198385 243.4 L 42.01268742791234 243.4 L 42.73356401384083 277.8 L 43.45444059976932 277.8 L 44.17531718569781 271.9 L 44.896193771626294 271.9 L 45.61707035755479 282.4 L 46.337946943483274 282.4 L 47.05882352941176 287.1 L 47.779700115340255 287.1 L 48.50057670126874 287.9 L 49.22145328719723 287.9 L 49.94232987312572 287.6 L 50.66320645905421 287.6 L 51.384083044982695 295.3 L 52.10495963091119 295.3 L 52.825836216839676 313.3 L 53.54671280276816 313.3 L 54.267589388696656 315.5 L 54.98846597462514 315.5 L 55.70934256055363 297.3 L 56.43021914648212 297.3 L 57.15109573241061 287.7 L 57.8719723183391 286.4 L 58.59284890426759 286.4 L 59.31372549019608 290.4 L 60.034602076124564 290.4 L 60.75547866205306 302.5 L 61.476355247981544 302.5 L 62.19723183391003 290.6 L 62.918108419838525 290.6 L 63.63898500576701 276.8 L 64.3598615916955 276.8 L 65.08073817762399 284.6 L 65.80161476355248 284.6 L 66.52249134948097 288.3 L 67.24336793540945 288.3 L 67.96424452133795 289 L 68.68512110726644 289 L 69.40599769319492 265.1 L 70.12687427912341 265.1 L 70.8477508650519 207.7 L 71.56862745098039 207.7 L 72.28950403690888 219.5 L 73.01038062283737 219.5 L 73.73125720876585 182.9 L 74.45213379469435 182.9 L 75.17301038062284 125.8 L 75.89388696655132 125.8 L 76.61476355247981 111.7 L 77.33564013840831 111.7 L 78.05651672433679 105.1 L 78.77739331026528 105.1 L 79.49826989619378 98.6 L 80.21914648212226 98.6 L 80.94002306805075 90.5 L 81.66089965397924 90.5 L 82.38177623990772 110 L 83.10265282583622 110 L 83.82352941176471 179.6 L 84.54440599769319 179.6 L 85.26528258362168 190.4 L 85.98615916955018 190.4 L 86.70703575547866 132.3 L 87.42791234140715 132.3 L 88.14878892733564 108.3 L 88.86966551326412 111.8 L 89.59054209919262 111.8 L 90.31141868512111 129.6 L 91.03229527104959 129.6 L 91.75317185697808 144.5 L 92.47404844290658 34 L 93.19492502883506 82.3 L 93.91580161476355 82.3 L 94.63667820069205 139.3 L 95.35755478662053 139.3 L 96.07843137254902 148.8 L 96.79930795847751 148.8 L 97.52018454440599 171 L 98.24106113033449 171 L 98.96193771626298 252.3 L 99.68281430219146 252.3 L 100.40369088811995 282.8 L 101.12456747404845 282.8 L 101.84544405997693 256.9 L 102.56632064590542 256.9 L 103.28719723183391 174.7 L 104.0080738177624 174.7 L 104.72895040369089 193.4 L 105.44982698961938 193.4 L 106.17070357554786 190.4 L 106.89158016147636 190.4 L 107.61245674740485 165.2 L 108.33333333333333 165.2 L 109.05420991926182 22.8 L 109.77508650519032 22.8 L 110.4959630911188 43.1 L 111.21683967704729 43.1 L 111.93771626297577 242.2 L 112.65859284890426 242.2 L 113.37946943483276 279.1 L 114.10034602076124 279.1 L 114.82122260668973 259 L 115.54209919261822 259 L 116.2629757785467 304.1 L 116.9838523644752 304.1 L 117.70472895040369 307.2 L 118.42560553633217 307.2 L 119.14648212226066 285.1 L 119.86735870818916 285.1 L 120.58823529411764 282 L 121.30911188004613 282 L 122.02998846597463 282.4 L 122.7508650519031 282.4 L 123.4717416378316 282.8 L 124.19261822376009 282.8 L 124.91349480968857 282.7 L 125.63437139561707 282.7 L 126.35524798154556 271.1 L 127.07612456747404 271.1 L 127.79700115340253 274 L 128.51787773933103 274 L 129.23875432525952 268.7 L 129.95963091118801 268.7 L 130.68050749711648 267.4 L 131.40138408304497 267.4 L 132.12226066897347 283 L 132.84313725490196 283 L 133.56401384083046 281.6 L 134.28489042675895 281.6 L 135.00576701268741 289.7 L 135.7266435986159 304.1 L 136.4475201845444 304.1 L 137.1683967704729 298.1 L 137.8892733564014 298.1 L 138.61014994232988 281.5 L 139.33102652825835 281.5 L 140.05190311418684 279.9 L 140.77277970011534 279.9 L 141.49365628604383 282.3 L 142.21453287197232 282.3 L 142.93540945790082 283 L 143.65628604382928 283 L 144.37716262975778 283.1 L 145.09803921568627 283.1 L 145.81891580161476 268.2 L 146.53979238754326 268.2 L 147.26066897347175 291 L 147.98154555940022 291 L 148.7024221453287 295.8 L 149.4232987312572 295.8 L 150.1441753171857 271.8 L 150.8650519031142 271.8 L 151.5859284890427 276.2 L 152.30680507497115 276.2 L 153.02768166089965 282.4 L 153.74855824682814 282.4 L 154.46943483275663 282.8 L 155.19031141868513 282.8 L 155.91118800461362 282.5 L 156.6320645905421 282.5 L 157.35294117647058 283.1 L 158.07381776239907 283.1 L 158.79469434832757 300.8 L 159.51557093425606 300.8 L 160.23644752018453 312.7 L 160.95732410611302 312.7 L 161.67820069204151 290.3 L 162.39907727797 290.3 L 163.1199538638985 283.5 L 163.840830449827 283.5 L 164.56170703575546 271.2 L 165.28258362168395 271.2 L 166.00346020761245 233.6 L 166.72433679354094 233.6 L 167.44521337946944 290.8 L 168.16608996539793 290.8 L 168.8869665513264 295.4 L 169.6078431372549 295.4 L 170.32871972318338 271.5 L 171.04959630911188 271.5 L 171.77047289504037 277.7 L 172.49134948096886 277.7 L 173.21222606689733 283.1 L 173.93310265282582 283.1 L 174.65397923875432 282.8 L 175.3748558246828 282.7 L 176.0957324106113 282.7 L 176.8166089965398 284.3 L 177.53748558246826 284.3 L 178.25836216839676 304.9 L 178.97923875432525 304.9 L 179.70011534025375 316.1 L 180.42099192618224 316.1 L 181.14186851211073 296.5 L 181.8627450980392 296.5 L 182.5836216839677 282.7 L 183.3044982698962 282.7 L 184.02537485582468 282.4 L 184.74625144175315 282.4 L 185.46712802768164 281.5 L 186.18800461361013 281.5 L 186.90888119953863 278 L 187.6297577854671 278 L 188.35063437139559 276.7 L 189.07151095732408 276.7 L 189.79238754325257 273.3 L 190.51326412918107 273.3 L 191.23414071510956 294.4 L 191.95501730103803 294.4 L 192.67589388696652 286.4 L 193.396770472895 286.4 L 194.1176470588235 266.9 L 194.838523644752 266.9 L 195.5594002306805 255.4 L 196.28027681660896 255.4 L 197.00115340253745 221.3 L 197.72202998846595 221.3 L 198.44290657439444 280 L 199.16378316032294 280 L 199.88465974625143 285.7 L 200.6055363321799 310 L 201.3264129181084 310 L 202.04728950403688 308.1 L 202.76816608996538 308.1 L 203.48904267589387 291.8 L 204.20991926182236 291.8 L 204.93079584775083 281.2 L 205.65167243367932 281.2 L 206.37254901960782 275.5 L 207.0934256055363 275.5 L 207.8143021914648 266.8 L 208.5351787773933 266.8 L 209.25605536332176 282.6 L 209.97693194925026 282.6 L 210.69780853517875 280.3 L 211.41868512110725 280.3 L 212.13956170703574 279.6 L 212.86043829296423 279.6 L 213.5813148788927 302.5 L 214.3021914648212 302.5 L 215.02306805074969 287.7 L 215.74394463667818 287.7 L 216.46482122260667 270.4 L 217.18569780853517 270.4 L 217.90657439446363 281.1 L 218.62745098039213 281.1 L 219.34832756632062 283.1 L 220.0692041522491 283.1 L 220.7900807381776 282.9 L 221.51095732410607 282.9 L 222.23183391003457 282.8 L 222.95271049596306 282.8 L 223.67358708189155 286.8 L 224.39446366782005 286.8 L 225.11534025374854 312.1 L 225.836216839677 312.1 L 226.5570934256055 312 L 227.277970011534 312 L 227.9988465974625 289 L 228.71972318339098 289 L 229.44059976931948 282 L 230.16147635524794 282 L 230.88235294117644 283.2 L 231.60322952710493 283.2 L 232.32410611303342 282.4 L 233.04498269896192 282.4 L 233.7658592848904 300.7 L 234.48673587081888 300.7 L 235.20761245674737 279.7 L 235.92848904267586 279.7 L 236.64936562860436 271 L 237.37024221453285 271 L 238.09111880046135 281.7 L 238.8119953863898 281.7 L 239.5328719723183 283.1 L 240.2537485582468 283.1 L 240.9746251441753 282.3 L 241.69550173010379 282.3 L 242.41637831603228 283.5 L 243.13725490196074 287.9 L 243.85813148788924 287.9 L 244.57900807381773 314.3 L 245.29988465974623 314.3 L 246.02076124567472 307.3 L 246.7416378316032 307.3 L 247.46251441753168 285 L 248.18339100346017 285 L 248.90426758938867 283.1 L 249.62514417531716 283.1 L 250.34602076124565 282.4 L 251.06689734717415 282.4 L 251.7877739331026 282.9 L 252.5086505190311 282.9 L 253.2295271049596 283.2 L 253.9504036908881 283.2 L 254.6712802768166 273.3 L 255.39215686274508 273.3 L 256.11303344867355 277 L 256.83391003460207 277 L 257.55478662053054 300.7 L 258.275663206459 300.7 L 258.9965397923875 279.3 L 259.717416378316 279.3 L 260.4382929642445 273.2 L 261.159169550173 273.2 L 261.8800461361015 281.6 L 262.60092272202996 281.6 L 263.32179930795843 282.9 L 264.04267589388695 282.9 L 264.7635524798154 282.3 L 265.48442906574394 282.3 L 266.2053056516724 274.7 L 266.92618223760087 274.7 L 267.6470588235294 294.4 L 268.36793540945786 294.4 L 269.0888119953864 256.8 L 269.80968858131484 275.8 L 270.53056516724337 275.8 L 271.25144175317183 277.9 L 271.9723183391003 277.9 L 272.6931949250288 277.8 L 273.4140715109573 277.8 L 274.1349480968858 292.5 L 274.8558246828143 292.5 L 275.57670126874274 298.4 L 276.29757785467126 298.4 L 277.0184544405997 273 L 277.73933102652825 273 L 278.4602076124567 275.5 L 279.18108419838524 275.5 L 279.9019607843137 281.8 L 280.62283737024217 281.8 L 281.3437139561707 283.4 L 282.06459054209915 283.4 L 282.7854671280277 282.7 L 283.50634371395614 282.7 L 284.2272202998846 282.8 L 284.94809688581313 282.8 L 285.6689734717416 297.5 L 286.3898500576701 297.5 L 287.1107266435986 314.9 L 287.8316032295271 314.9 L 288.55247981545557 303 L 289.27335640138404 303 L 289.99423298731256 282.9 L 290.715109573241 282.9 L 291.43598615916954 282.4 L 292.156862745098 282.4 L 292.8777393310265 282.4 L 293.598615916955 282.4 L 294.31949250288346 265.1 L 295.040369088812 265.1 L 295.76124567474045 241.2 L 296.482122260669 241.2 L 297.20299884659744 275.6 L 297.9238754325259 275.6 L 298.6447520184544 296 L 299.3656286043829 296 L 300.0865051903114 295.7 L 300.8073817762399 295.7 L 301.52825836216834 270.4 L 302.24913494809687 270.4 L 302.97001153402533 276.6 L 303.69088811995385 282.3 L 304.4117647058823 282.3 L 305.13264129181084 282.3 L 305.8535178777393 302.1 L 306.5743944636678 302.1 L 307.2952710495963 315.8 L 308.01614763552476 315.8 L 308.7370242214533 299.2 L 309.45790080738175 299.2 L 310.1787773933102 283.1 L 310.89965397923874 283.1 L 311.6205305651672 282.3 L 312.3414071510957 282.3 L 313.0622837370242 283.3 L 313.78316032295265 283.3 L 314.5040369088812 282.9 L 315.22491349480964 282.9 L 315.94579008073816 282.4 L 316.66666666666663 282.4 L 317.38754325259515 276.3 L 318.1084198385236 276.3 L 318.8292964244521 297.2 L 319.5501730103806 295 L 320.27104959630907 295 L 320.9919261822376 270.4 L 321.71280276816606 270.4 L 322.4336793540945 277.4 L 323.15455594002304 277.4 L 323.8754325259515 278.9 L 324.59630911188003 278.9 L 325.3171856978085 275.5 L 326.038062283737 275.5 L 326.7589388696655 275.8 L 327.47981545559395 275.8 L 328.2006920415225 282.2 L 328.92156862745094 282.2 L 329.64244521337946 306 L 330.3633217993079 306 L 331.0841983852364 314.8 L 331.8050749711649 314.8 L 332.5259515570934 292.2 L 333.2468281430219 292.2 L 333.96770472895037 282.1 L 334.6885813148789 282.1 L 335.40945790080735 282.7 L 336.1303344867358 282.7 L 336.85121107266434 282.1 L 337.5720876585928 282.1 L 338.29296424452133 258.5 L 339.0138408304498 258.5 L 339.73471741637826 291.6 L 340.4555940023068 291.6 L 341.17647058823525 269.8 L 341.89734717416377 269.8 L 342.61822376009223 279.7 L 343.33910034602076 279.7 L 344.0599769319492 283.3 L 344.7808535178777 283.3 L 345.5017301038062 283.1 L 346.2226066897347 283.1 L 346.9434832756632 283.1 L 347.66435986159166 283.1 L 348.38523644752013 284.9 L 349.10611303344865 284.9 L 349.8269896193771 309.8 L 350.54786620530564 309.8 L 351.2687427912341 299.5 L 351.9896193771626 299.5 L 352.7104959630911 232.1 L 353.43137254901956 232.1 L 354.1522491349481 251.3 L 354.87312572087654 251.3 L 355.59400230680507 282 L 356.31487889273353 282 L 357.035755478662 263.1 L 357.7566320645905 263.1 L 358.477508650519 248 L 359.1983852364475 248 L 359.919261822376 279.3 L 360.6401384083045 279.3 L 361.36101499423296 283.5 L 362.0818915801614 283.5 L 362.80276816608995 301.1 L 363.5236447520184 301.1 L 364.24452133794694 283.6 L 364.9653979238754 283.6 L 365.68627450980387 269.7 L 366.4071510957324 281.4 L 367.12802768166085 281.4 L 367.8489042675894 282.2 L 368.56978085351784 282.2 L 369.29065743944636 282.9 L 370.01153402537483 282.9 L 370.7324106113033 283.1 L 371.4532871972318 283.1 L 372.1741637831603 286.4 L 372.8950403690888 286.4 L 373.61591695501727 313.1 L 374.33679354094573 313.1 L 375.05767012687426 289 L 375.7785467128027 289 L 376.49942329873124 281.6 L 377.2202998846597 283.7 L 377.94117647058823 283.7 L 378.6620530565167 283.1 L 379.38292964244516 283.1 L 380.1038062283737 283.1 L 380.82468281430215 283.1 L 381.5455594002307 278.7 L 382.26643598615914 278.7 L 382.9873125720876 284.8 L 383.7081891580161 284.8 L 384.4290657439446 297.4 L 385.1499423298731 297.4 L 385.8708189158016 277.4 L 386.5916955017301 277.4 L 387.31257208765857 271.2 L 388.03344867358703 271.2 L 388.75432525951555 277.8 L 389.475201845444 277.8 L 390.19607843137254 281 L 390.916955017301 281 L 391.6378316032295 278.2 L 392.358708189158 278.2 L 393.07958477508646 279.3 L 393.800461361015 279.3 L 394.52133794694345 288.9 L 395.24221453287197 288.9 L 395.96309111880043 314.6 L 396.6839677047289 314.6 L 397.4048442906574 309.3 L 398.1257208765859 309.3 L 398.8465974625144 285.8 L 399.5674740484429 285.8 L 400.28835063437134 282.8 L 401.00922722029986 282.8 L 401.7301038062283 282.3 L 402.45098039215685 282.3 L 403.1718569780853 282.5 L 403.8927335640138 282.5 L 404.6136101499423 283.1 L 405.33448673587077 283.1 L 406.0553633217993 277.1 L 406.77623990772776 277.1 L 407.4971164936563 288.5 L 408.21799307958474 288.5 L 408.9388696655132 301.1 L 409.65974625144173 301.1 L 410.3806228373702 274 L 411.1014994232987 282.6 L 411.8223760092272 282.6 L 412.54325259515565 283.3 L 413.2641291810842 283.3 L 413.98500576701264 282.7 L 414.70588235294116 282.7 L 415.4267589388696 283.3 L 416.14763552479815 283.3 L 416.8685121107266 293.1 L 417.5893886966551 293.1 L 418.3102652825836 315.3 L 419.03114186851207 315.3 L 419.7520184544406 302.6 L 420.47289504036905 302.6 L 421.1937716262975 283.9 L 421.91464821222604 283.9 L 422.6355247981545 280.6 L 423.35640138408303 280.6 L 424.0772779700115 250.8 L 424.79815455594 250.8 L 425.5190311418685 249.7 L 426.23990772779695 249.7 L 426.96078431372547 282.4 L 427.68166089965393 282.4 L 428.40253748558246 277.6 L 429.1234140715109 277.6 L 429.8442906574394 292.5 L 430.5651672433679 293.8 L 431.2860438292964 293.8 L 432.0069204152249 274.3 L 432.72779700115336 274.3 L 433.4486735870819 274.9 L 434.16955017301035 274.9 L 434.8904267589388 282.7 L 435.61130334486734 282.7 L 436.3321799307958 283.3 L 437.0530565167243 283.3 L 437.7739331026528 282.4 L 438.49480968858126 282.4 L 439.2156862745098 280.3 L 439.93656286043824 280.3 L 440.65743944636677 292.7 L 441.37831603229523 292.7 L 442.09919261822375 314.7 L 442.8200692041522 314.7 L 443.5409457900807 299 L 444.2618223760092 299 L 444.9826989619377 282 L 445.7035755478662 283.1 L 446.42445213379466 283.5 L 447.1453287197231 283.5 L 447.86620530565165 283.2 L 448.5870818915801 283.2 L 449.30795847750863 283.1 L 450.0288350634371 283.1 L 450.7497116493656 275.3 L 451.4705882352941 275.3 L 452.19146482122255 296.2 L 452.9123414071511 294.2 L 453.63321799307954 294.2 L 454.35409457900806 268.2 L 455.0749711649365 268.2 L 455.795847750865 272 L 456.5167243367935 272 L 457.237600922722 256.1 L 457.9584775086505 256.1 L 458.67935409457897 272.5 L 459.4002306805075 272.5 L 460.12110726643596 275.8 L 460.8419838523644 275.8 L 461.56286043829294 272.7 L 462.2837370242214 272.7 L 463.00461361014993 299.9 L 463.7254901960784 299.9 L 464.44636678200686 315.5 L 465.1672433679354 315.5 L 465.88811995386385 299.9 L 466.6089965397924 299.9 L 467.32987312572084 287 L 468.05074971164936 287 L 468.7716262975778 286.2 L 469.4925028835063 286.2 L 470.2133794694348 286.8 L 470.9342560553633 286.8 L 471.6551326412918 287.3 L 472.37600922722027 287.3 L 473.09688581314873 282.2 L 473.81776239907725 282.2 L 474.5386389850057 224.7 L 475.25951557093424 224.7 L 475.9803921568627 185.4 L 476.7012687427912 185.4 L 477.4221453287197 276.4 L 478.14302191464816 276.4 L 478.8638985005767 272.3 L 479.58477508650515 272.3 L 480.30565167243367 282.1 L 481.02652825836213 287.2 L 481.7474048442906 287.2 L 482.4682814302191 287 L 483.1891580161476 287 L 483.9100346020761 281 L 484.6309111880046 281 L 485.3517877739331 304.9 L 486.07266435986156 304.9 L 486.79354094579 314.9 L 487.51441753171855 314.9 L 488.235294117647 296.7 L 488.95617070357554 296.7 L 489.677047289504 269.8 L 490.39792387543247 269.8 L 491.118800461361 230.7 L 491.83967704728946 230.7 L 492.560553633218 242.1 L 493.28143021914644 242.1 L 494.00230680507497 283.7 L 494.72318339100343 283.7 L 495.4440599769319 280.4 L 496.1649365628604 280.4 L 496.8858131487889 280 L 497.6066897347174 280 L 498.3275663206459 300.1 L 499.04844290657434 300.1 L 499.76931949250286 292.1 L 500.4901960784313 274.4 L 501.21107266435985 274.4 L 501.9319492502883 284 L 502.6528258362168 284 L 503.3737024221453 285.6 L 504.09457900807377 285.6 L 504.8154555940023 284.3 L 505.53633217993075 284.3 L 506.2572087658593 287 L 506.97808535178774 287 L 507.6989619377162 281.5 L 508.4198385236447 281.5 L 509.1407151095732 308.3 L 509.8615916955017 308.3 L 510.5824682814302 311.1 L 511.30334486735865 311.1 L 512.0242214532872 287.1 L 512.7450980392157 287.1 L 513.4659746251441 280.8 L 514.1868512110726 280.8 L 514.9077277970011 282.4 L 515.6286043829296 282.4 L 516.3494809688581 282.7 L 517.0703575547866 282.7 L 517.7912341407151 282.4 L 518.5121107266435 282.4 L 519.232987312572 290.4 L 519.9538638985006 290.4 L 520.674740484429 302.6 L 521.3956170703575 302.6 L 522.116493656286 287.1 L 522.8373702422145 287.1 L 523.558246828143 272 L 524.2791234140715 281.5 L 525 281.5 L 525.7208765859284 282.6 L 526.4417531718569 282.6 L 527.1626297577855 282.4 L 527.883506343714 282.4 L 528.6043829296424 283.1 L 529.3252595155709 283.1 L 530.0461361014994 296.9 L 530.7670126874278 296.9 L 531.4878892733564 315.4 L 532.2087658592849 315.4 L 532.9296424452133 312.2 L 533.6505190311418 312.2 L 534.3713956170703 290.4 L 535.0922722029989 290.4 L 535.8131487889273 281.6 L 536.5340253748558 281.6 L 537.2549019607843 283.4 L 537.9757785467127 283.4 L 538.6966551326412 282.2 L 539.4175317185698 282.2 L 540.1384083044983 282.3 L 540.8592848904267 282.3 L 541.5801614763552 283.4 L 542.3010380622837 283.4 L 543.0219146482121 292.4 L 543.7427912341407 292.4 L 544.4636678200692 301.5 L 545.1845444059977 301.5 L 545.9054209919261 283.1 L 546.6262975778546 283.1 L 547.3471741637832 274.1 L 548.0680507497116 274.1 L 548.7889273356401 282 L 549.5098039215686 282 L 550.230680507497 283.4 L 550.9515570934255 283.4 L 551.6724336793541 316.1 L 552.3933102652826 316.1 L 553.114186851211 309.1 L 553.8350634371395 309.1 L 554.555940023068 286.8 L 555.2768166089965 286.8 L 555.997693194925 245.2 L 556.7185697808535 245.2 L 557.439446366782 233 L 558.1603229527104 233 L 558.881199538639 204.8 L 559.6020761245675 204.8 L 560.3229527104959 157.1 L 561.0438292964244 157.1 L 561.7647058823529 222.8 L 562.4855824682815 222.8 L 563.2064590542099 287.7 L 563.9273356401384 287.7 L 564.6482122260669 234.5 L 565.3690888119953 234.5 L 566.0899653979238 172.8 L 566.8108419838524 172.8 L 567.5317185697808 236 L 568.2525951557093 236 L 568.9734717416378 278.7 L 569.6943483275663 278.7 L 570.4152249134947 241 L 571.1361014994233 241 L 571.8569780853518 224.1 L 572.5778546712802 232.6 L 573.2987312572087 232.6 L 574.0196078431372 287 L 574.7404844290658 287 L 575.4613610149942 312.9 L 576.1822376009227 312.9 L 576.9031141868512 305.8 L 577.6239907727796 305.8 L 578.3448673587081 286.5 L 579.0657439446367 286.5 L 579.7866205305652 285.2 L 580.5074971164936 285.2 L 581.2283737024221 286.4 L 581.9492502883506 286.4 L 582.670126874279 286.3 L 583.3910034602076 286.3 L 584.1118800461361 286.3 L 584.8327566320645 286.3 L 585.553633217993 286.5 L 586.2745098039215 286.5 L 586.9953863898501 278.6 L 587.7162629757785 278.6 L 588.437139561707 285.7 L 589.1580161476355 285.7 L 589.8788927335639 286.5 L 590.5997693194925 286.5 L 591.320645905421 286.2 L 592.0415224913495 286.2 L 592.7623990772779 288.8 L 593.4832756632064 288.8 L 594.204152249135 309.1 L 594.9250288350634 309.1 L 595.6459054209919 316.4 L 596.3667820069204 316.4 L 597.0876585928488 302.7 L 597.8085351787773 302.7 L 598.5294117647059 286.1 L 599.2502883506344 285 L 599.9711649365628 285 L 600.6920415224913 284.2 L 601.4129181084198 284.2 L 602.1337946943482 282.3 L 602.8546712802768 282.3 L 603.5755478662053 281.6 L 604.2964244521338 281.6 L 605.0173010380622 284.4 L 605.7381776239907 284.4 L 606.4590542099193 298.6 L 607.1799307958477 298.6 L 607.9008073817762 296.9 L 608.6216839677047 296.9 L 609.3425605536332 263.9 L 610.0634371395616 263.9 L 610.7843137254902 256.5 L 611.5051903114187 256.5 L 612.2260668973471 283.7 L 612.9469434832756 283.7 L 613.6678200692041 286.6 L 614.3886966551325 286.6 L 615.1095732410611 286.6 L 615.8304498269896 286.6 L 616.5513264129181 284.7 L 617.2722029988465 284.7 L 617.993079584775 290.8 L 618.7139561707036 290.8 L 619.434832756632 256.4 L 620.1557093425605 256.4 L 620.876585928489 255.7 L 621.5974625144175 255.7 L 622.318339100346 249.8 L 623.0392156862745 249.8 L 623.760092272203 283.9 L 624.4809688581314 283.9 L 625.2018454440599 286.5 L 625.9227220299884 284 L 626.643598615917 284 L 627.3644752018454 278.2 L 628.0853517877739 278.2 L 628.8062283737024 297.9 L 629.5271049596308 297.9 L 630.2479815455594 293.2 L 630.9688581314879 293.2 L 631.6897347174163 275.3 L 632.4106113033448 275.3 L 633.1314878892733 282.4 L 633.8523644752019 282.4 L 634.5732410611303 286.4 L 635.2941176470588 286.4 L 636.0149942329873 285.7 L 636.7358708189157 285.7 L 637.4567474048442 286.8 L 638.1776239907728 286.8 L 638.8985005767013 293.7 L 639.6193771626297 293.7 L 640.3402537485582 312.7 L 641.0611303344867 312.7 L 641.7820069204151 315.3 L 642.5028835063437 315.3 L 643.2237600922722 297.3 L 643.9446366782007 297.3 L 644.6655132641291 286.6 L 645.3863898500576 286.6 L 646.1072664359862 286.4 L 646.8281430219146 286.4 L 647.5490196078431 286.3 L 648.2698961937716 286.3 L 648.9907727797 286.2 L 649.7116493656285 286.2 L 650.4325259515571 286.9 L 651.1534025374856 286.9 L 651.874279123414 289.1 L 652.5951557093425 289.1 L 653.316032295271 302.9 L 654.0369088811995 302.9 L 654.757785467128 290.6 L 655.4786620530565 290.6 L 656.199538638985 274.8 L 656.9204152249134 274.8 L 657.641291810842 286.3 L 658.3621683967705 286.3 L 659.0830449826989 296.1 L 659.8039215686274 296.1 L 660.5247981545559 315.8 L 661.2456747404844 315.8 L 661.9665513264129 313.6 L 662.6874279123414 313.6 L 663.4083044982699 294.2 L 664.1291810841983 294.2 L 664.8500576701268 286.4 L 665.5709342560554 286.4 L 666.2918108419838 285.8 L 667.0126874279123 285.8 L 667.7335640138408 286.9 L 668.4544405997693 286.9 L 669.1753171856977 286.1 L 669.8961937716263 286.1 L 670.6170703575548 285.6 L 671.3379469434832 291 L 672.0588235294117 291 L 672.7797001153402 302.4 L 673.5005767012688 302.4 L 674.2214532871972 287.4 L 674.9423298731257 287.4 L 675.6632064590542 275.8 L 676.3840830449826 275.8 L 677.1049596309111 285.4 L 677.8258362168397 285.4 L 678.5467128027682 286.3 L 679.2675893886966 286.3 L 679.9884659746251 256.3 L 680.7093425605536 256.3 L 681.430219146482 208.4 L 682.1510957324106 208.4 L 682.8719723183391 283.3 L 683.5928489042675 283.3 L 684.313725490196 312.5 L 685.0346020761245 312.5 L 685.7554786620531 309.1 L 686.4763552479815 309.1 L 687.19723183391 246.1 L 687.9181084198385 246.1 L 688.6389850057669 251.8 L 689.3598615916954 251.8 L 690.080738177624 284.8 L 690.8016147635525 284.8 L 691.5224913494809 286.2 L 692.2433679354094 286.2 L 692.964244521338 301.2 L 693.6851211072664 301.2 L 694.4059976931949 284.2 L 695.1268742791234 284.2 L 695.8477508650518 276.7 L 696.5686274509803 276.7 L 697.2895040369089 287 L 698.0103806228374 286 L 698.7312572087658 286 L 699.4521337946943 286 L 700.1730103806228 286 L 700.8938869665512 287.7 L 701.6147635524798 287.7 L 702.3356401384083 303 L 703.0565167243368 303 L 703.7773933102652 316.2 L 704.4982698961937 316.2 L 705.2191464821223 308.3 L 705.9400230680507 308.3 L 706.6608996539792 289.9 L 707.3817762399077 289.9 L 708.1026528258362 286.3 L 708.8235294117646 286.3 L 709.5444059976932 285.9 L 710.2652825836217 285.9 L 710.9861591695501 286.8 L 711.7070357554786 286.8 L 712.4279123414071 286.7 L 713.1487889273355 286.7 L 713.8696655132641 287 L 714.5905420991926 287 L 715.3114186851211 296.3 L 716.0322952710495 296.3 L 716.753171856978 301 L 717.4740484429066 301 L 718.194925028835 281 L 718.9158016147635 281 L 719.636678200692 278.9 L 720.3575547866205 278.9 L 721.078431372549 287.2 L 721.7993079584775 287.2 L 722.520184544406 286.1 L 723.2410611303344 286.1 L 723.9619377162629 286.2 L 724.6828143021914 286.2 L 725.40369088812 288 L 726.1245674740484 288 L 726.8454440599769 307.2 L 727.5663206459054 307.2 L 728.2871972318338 306.7 L 729.0080738177624 306.7 L 729.7289504036909 288.3 L 730.4498269896193 286.6 L 731.1707035755478 286.6 L 731.8915801614763 286.4 L 732.6124567474048 286.4 L 733.3333333333333 287.4 L 734.0542099192618 287.4 L 734.7750865051903 285.8 L 735.4959630911187 285.8 L 736.2168396770472 286.4 L 736.9377162629758 286.4 L 737.6585928489043 298.1 L 738.3794694348327 298.1 L 739.1003460207612 299.6 L 739.8212226066897 299.6 L 740.5420991926181 277.2 L 741.2629757785467 277.2 L 741.9838523644752 280.9 L 742.7047289504037 280.9 L 743.4256055363321 286.5 L 744.1464821222606 286.5 L 744.8673587081892 269.8 L 745.5882352941176 269.8 L 746.3091118800461 264.8 L 747.0299884659746 264.8 L 747.750865051903 286.8 L 748.4717416378315 286.8 L 749.1926182237601 306.8 L 749.9134948096886 306.8 L 750.634371395617 314.3 L 751.3552479815455 314.3 L 752.076124567474 259.8 L 752.7970011534024 259.8 L 753.517877739331 256 L 754.2387543252595 256 L 754.959630911188 285.1 L 755.6805074971164 285.1 L 756.401384083045 275.2 L 757.1222606689735 275.2 L 757.8431372549019 279.6 L 758.5640138408304 279.6 L 759.2848904267589 286.7 L 760.0057670126874 286.7 L 760.7266435986159 286.9 L 761.4475201845444 286.9 L 762.1683967704729 300.7 L 762.8892733564013 300.7 L 763.6101499423298 275.5 L 764.3310265282583 283.5 L 765.0519031141868 283.5 L 765.7727797001153 286.9 L 766.4936562860438 286.9 L 767.2145328719723 286.5 L 767.9354094579007 286.5 L 768.6562860438293 286.9 L 769.3771626297578 286.9 L 770.0980392156862 291.7 L 770.8189158016147 291.7 L 771.5397923875432 312.2 L 772.2606689734718 312.2 L 772.9815455594002 315.7 L 773.7024221453287 315.7 L 774.4232987312572 299.7 L 775.1441753171856 299.7 L 775.8650519031141 286.8 L 776.5859284890427 286.8 L 777.3068050749711 286.8 L 778.0276816608996 286.8 L 778.7485582468281 286.5 L 779.4694348327566 286.5 L 780.190311418685 286.7 L 780.9111880046136 286.7 L 781.6320645905421 286.8 L 782.3529411764705 286.8 L 783.073817762399 289.1 L 783.7946943483275 289.1 L 784.5155709342561 301 L 785.2364475201845 301 L 785.957324106113 293.5 L 786.6782006920415 293.5 L 787.3990772779699 276.2 L 788.1199538638984 276.2 L 788.840830449827 276.9 L 789.5617070357555 276.9 L 790.2825836216839 259.9 L 791.0034602076124 259.9 L 791.7243367935409 283.4 L 792.4452133794694 283.4 L 793.1660899653979 281.1 L 793.8869665513264 281.1 L 794.6078431372548 293.7 L 795.3287197231833 293.7 L 796.0495963091118 314.2 L 796.7704728950404 314.2 L 797.4913494809688 314.9 L 798.2122260668973 314.9 L 798.9331026528258 193.1 L 799.6539792387542 175.1 L 800.3748558246828 175.1 L 801.0957324106113 165.5 L 801.8166089965398 165.5 L 802.5374855824682 176.8 L 803.2583621683967 176.8 L 803.9792387543253 192.6 L 804.7001153402537 192.6 L 805.4209919261822 178.2 L 806.1418685121107 178.2 L 806.8627450980392 137.9 L 807.5836216839676 137.9 L 808.3044982698962 153.7 L 809.0253748558247 153.7 L 809.7462514417531 182.7 L 810.4671280276816 182.7 L 811.1880046136101 199.7 L 811.9088811995385 199.7 L 812.6297577854671 159.8 L 813.3506343713956 161.3 L 814.0715109573241 161.3 L 814.7923875432525 197.7 L 815.513264129181 197.7 L 816.2341407151096 186.4 L 816.955017301038 186.4 L 817.6758938869665 171.3 L 818.396770472895 171.3 L 819.1176470588235 162.9 L 819.838523644752 162.9 L 820.5594002306805 160.9 L 821.280276816609 160.9 L 822.0011534025374 170 L 822.7220299884659 170 L 823.4429065743944 167.1 L 824.163783160323 167.1 L 824.8846597462514 187 L 825.6055363321799 187 L 826.3264129181084 215.1 L 827.0472895040368 215.1 L 827.7681660899653 223.3 L 828.4890426758939 223.3 L 829.2099192618223 204.8 L 829.9307958477508 204.8 L 830.6516724336793 194.6 L 831.3725490196078 194.6 L 832.0934256055363 205.6 L 832.8143021914648 205.6 L 833.5351787773933 203.8 L 834.2560553633217 202.3 L 834.9769319492502 204.1 L 835.6978085351788 204.1 L 836.4186851211073 221.9 L 837.1395617070357 239.6 L 837.8604382929642 239.6 L 838.5813148788927 232.5 L 839.3021914648211 232.5 L 840.0230680507497 194.9 L 840.7439446366782 194.9 L 841.4648212226067 155.4 L 842.1856978085351 155.4 L 842.9065743944636 170.6 L 843.6274509803922 170.6 L 844.3483275663206 176.1 L 845.0692041522491 176.1 L 845.7900807381776 171.8 L 846.510957324106 171.8 L 847.2318339100345 175.5 L 847.9527104959631 175.5 L 848.6735870818916 206.2 L 849.39446366782 206.2 L 850.1153402537485 239.7 L 850.836216839677 239.7 L 851.5570934256054 214.5 L 852.277970011534 214.5 L 852.9988465974625 177.1 L 853.719723183391 177.1 L 854.4405997693194 168.6 L 855.1614763552479 168.6 L 855.8823529411765 170.9 L 856.6032295271049 170.9 L 857.3241061130334 173.3 L 858.0449826989619 173.3 L 858.7658592848904 170.9 L 859.4867358708188 170.9 L 860.2076124567474 216.2 L 860.9284890426759 216.2 L 861.6493656286043 257.6 L 862.3702422145328 257.6 L 863.0911188004613 244.4 L 863.8119953863898 244.4 L 864.5328719723183 243.9 L 865.2537485582468 243.9 L 865.9746251441753 225.3 L 866.6955017301037 225.3 L 867.4163783160323 207.3 L 868.1372549019608 207.3 L 868.8581314878892 201.8 L 869.5790080738177 213.5 L 870.2998846597462 220.4 L 871.0207612456747 220.4 L 871.7416378316032 187.8 L 872.4625144175317 187.8 L 873.1833910034602 181.5 L 873.9042675893886 181.5 L 874.6251441753171 194 L 875.3460207612457 194 L 876.0668973471741 184.7 L 876.7877739331026 184.7 L 877.5086505190311 187 L 878.2295271049596 187 L 878.950403690888 195.2 L 879.6712802768166 195.2 L 880.3921568627451 190.2 L 881.1130334486735 190.2 L 881.833910034602 199.6 L 882.5547866205305 199.6 L 883.2756632064591 218.9 L 883.9965397923875 196.2 L 884.717416378316 196.2 L 885.4382929642445 165.4 L 886.1591695501729 165.4 L 886.8800461361014 158.3 L 887.60092272203 158.3 L 888.3217993079585 163.9 L 889.0426758938869 163.9 L 889.7635524798154 160.2 L 890.4844290657439 160.2 L 891.2053056516723 169.8 L 891.9261822376009 169.8 L 892.6470588235294 181.3 L 893.3679354094578 181.3 L 894.0888119953863 182 L 894.8096885813148 182 L 895.5305651672434 161.5 L 896.2514417531718 161.5 L 896.9723183391003 164.4 L 897.6931949250288 164.4 L 898.4140715109572 170.1 L 899.1349480968858 170.1 L 899.8558246828143 193.1 L 900.5767012687428 193.1 L 901.2975778546712 223.8 L 902.0184544405997 223.8 L 902.7393310265282 229.5 L 903.4602076124567 229.5 L 904.1810841983852 263.5 L 904.9019607843137 179.3 L 905.6228373702422 170.4 L 906.3437139561706 170.4 L 907.0645905420992 212.7 L 907.7854671280277 212.7 L 908.5063437139561 206.1 L 909.2272202998846 158.1 L 909.9480968858131 158.1 L 910.6689734717415 138.6 L 911.3898500576701 138.6 L 912.1107266435986 179.3 L 912.8316032295271 179.3 L 913.5524798154555 176.5 L 914.273356401384 176.5 L 914.9942329873126 159.7 L 915.715109573241 159.7 L 916.4359861591695 163.3 L 917.156862745098 163.3 L 917.8777393310265 168.4 L 918.5986159169549 168.4 L 919.3194925028835 176.5 L 920.040369088812 176.5 L 920.7612456747404 173.5 L 921.4821222606689 173.5 L 922.2029988465974 181.3 L 922.923875432526 181.3 L 923.6447520184544 204.6 L 924.3656286043829 204.6 L 925.0865051903114 203.8 L 925.8073817762398 203.8 L 926.5282583621683 185.4 L 927.2491349480969 185.4 L 927.9700115340253 154.1 L 928.6908881199538 154.1 L 929.4117647058823 162.9 L 930.1326412918108 162.9 L 930.8535178777393 167.7 L 931.5743944636678 167.7 L 932.2952710495963 164.7 L 933.0161476355247 164.7 L 933.7370242214532 173.1 L 934.4579008073817 173.1 L 935.1787773933103 166.7 L 935.8996539792387 166.7 L 936.6205305651672 189.3 L 937.3414071510957 189.3 L 938.0622837370241 174.7 L 938.7831603229527 174.7 L 939.5040369088812 145.7 L 940.2249134948097 163.5 L 940.9457900807381 169 L 941.6666666666666 172.2 L 942.3875432525952 172.2 L 943.1084198385236 191 L 943.8292964244521 191 L 944.5501730103806 210.8 L 945.271049596309 210.8 L 945.9919261822375 248.6 L 946.7128027681661 248.6 L 947.4336793540946 296 L 948.154555940023 296 L 948.8754325259515 289.9 L 949.59630911188 289.9 L 950.3171856978084 277.1 L 951.038062283737 277.1 L 951.7589388696655 262.8 L 952.479815455594 262.8 L 953.2006920415224 281.8 L 953.9215686274509 281.8 L 954.6424452133795 282 L 955.3633217993079 282 L 956.0841983852364 284.2 L 956.8050749711649 284.2 L 957.5259515570933 290.8 L 958.2468281430218 290.8 L 958.9677047289504 301.3 L 959.6885813148789 301.3 L 960.4094579008073 289 L 961.1303344867358 289 L 961.8512110726643 276.6 L 962.5720876585927 276.6 L 963.2929642445213 278.4 L 964.0138408304498 278.4 L 964.7347174163783 268.2 L 965.4555940023067 268.2 L 966.1764705882352 284.7 L 966.8973471741638 284.7 L 967.6182237600922 287.8 L 968.3391003460207 287.8 L 969.0599769319492 298.1 L 969.7808535178777 298.1 L 970.5017301038062 314.9 L 971.2226066897347 314.9 L 971.9434832756632 313 L 972.6643598615916 313 L 973.3852364475201 292.6 L 974.1061130334487 292.6 L 974.8269896193771 287.2 L 975.5478662053056 287.2 L 976.2687427912341 287.2 L 976.9896193771626 286.5 L 977.710495963091 286.5 L 978.4313725490196 285.8 L 979.1522491349481 285.8 L 979.8731257208765 293.1 L 980.594002306805 293.1 L 981.3148788927335 302.4 L 982.035755478662 302.4 L 982.7566320645905 285.5 L 983.477508650519 285.5 L 984.1983852364475 278.4 L 984.9192618223759 278.4 L 985.6401384083044 286.9 L 986.361014994233 286.9 L 987.0818915801615 286.7 L 987.8027681660899 286.7 L 988.5236447520184 281.9 L 989.2445213379469 281.9 L 989.9653979238753 279.9 L 990.6862745098039 279.9 L 991.4071510957324 295 L 992.1280276816608 295 L 992.8489042675893 314.9 L 993.5697808535178 314.9 L 994.2906574394464 310.6 L 995.0115340253748 310.6 L 995.7324106113033 291.5 L 996.4532871972318 291.5 L 997.1741637831602 287.5 L 997.8950403690887 287.5 L 998.6159169550173 288.1 L 999.3367935409458 288.1 L 1000.0576701268742 287 L 1000.7785467128027 287 L 1001.4994232987312 286.8 L 1002.2202998846597 286.8 L 1002.9411764705882 286.8 L 1003.6620530565167 286.8 L 1004.3829296424452 294 L 1005.1038062283736 294 L 1005.8246828143022 301.6 L 1006.5455594002307 301.6 L 1007.2664359861591 282 L 1007.9873125720876 282 L 1008.7081891580161 278.7 L 1009.4290657439445 287.3 L 1010.149942329873 287.3 L 1010.8708189158016 286.7 L 1011.5916955017301 286.7 L 1012.3125720876585 279.5 L 1013.033448673587 279.5 L 1013.7543252595156 250.2 L 1014.475201845444 250.2 L 1015.1960784313725 300 L 1015.916955017301 300 L 1016.6378316032295 306.9 L 1017.3587081891579 306.9 L 1018.0795847750865 285.2 L 1018.800461361015 285.2 L 1019.5213379469434 285.4 L 1020.2422145328719 285 L 1020.9630911188004 285 L 1021.683967704729 282 L 1022.4048442906574 282 L 1023.1257208765859 283.3 L 1023.8465974625144 283.3 L 1024.5674740484428 285.1 L 1025.2883506343715 285.1 L 1026.0092272202999 296.8 L 1026.7301038062283 296.8 L 1027.450980392157 299.4 L 1028.1718569780853 299.4 L 1028.8927335640137 280 L 1029.6136101499424 280 L 1030.3344867358708 280.2 L 1031.0553633217992 280.2 L 1031.7762399077278 268.8 L 1032.4971164936562 268.8 L 1033.2179930795846 260.9 L 1033.9388696655133 260.9 L 1034.6597462514417 278 L 1035.38062283737 278 L 1036.1014994232987 286.2 L 1036.8223760092271 286.2 L 1037.5432525951558 307.4 L 1038.2641291810842 307.4 L 1038.9850057670126 316.5 L 1039.7058823529412 316.5" stroke="#c42525" stroke-width="1" zIndex="1"></path></g><g class="highcharts-markers" visibility="visible" zIndex="0.1" transform="translate(60,10) scale(1 1)" clip-path="none"><path fill="none" d="M 0.29411764705882426 316.3 L 10.294117647058824 316.3 L 11.014994232987313 316.3 L 11.735870818915803 303.4 L 12.456747404844291 289 L 13.17762399077278 289 L 13.898500576701268 286.9 L 14.619377162629759 286.9 L 15.340253748558247 287 L 16.061130334486737 287 L 16.782006920415224 288 L 17.502883506343714 288 L 18.223760092272205 287.1 L 18.94463667820069 287.1 L 19.66551326412918 287.2 L 20.38638985005767 287.2 L 21.10726643598616 300.7 L 21.82814302191465 283.1 L 22.54901960784314 287.7 L 23.269896193771626 287.7 L 23.990772779700116 287.5 L 24.711649365628606 287.5 L 25.432525951557093 287.7 L 26.153402537485583 287.7 L 26.874279123414073 291.8 L 27.59515570934256 291.8 L 28.31603229527105 311.5 L 29.03690888119954 311.5 L 29.757785467128027 316 L 30.478662053056517 316 L 31.199538638985004 300.5 L 31.920415224913494 300.5 L 32.641291810841984 286.6 L 33.36216839677047 286.6 L 34.083044982698965 287.5 L 34.80392156862745 287.5 L 35.52479815455594 288.2 L 36.24567474048443 288.2 L 36.96655132641292 288.1 L 37.687427912341406 288.1 L 38.4083044982699 287.3 L 39.129181084198386 287.3 L 39.85005767012687 279.3 L 40.57093425605537 279.3 L 41.29181084198385 243.4 L 42.01268742791234 243.4 L 42.73356401384083 277.8 L 43.45444059976932 277.8 L 44.17531718569781 271.9 L 44.896193771626294 271.9 L 45.61707035755479 282.4 L 46.337946943483274 282.4 L 47.05882352941176 287.1 L 47.779700115340255 287.1 L 48.50057670126874 287.9 L 49.22145328719723 287.9 L 49.94232987312572 287.6 L 50.66320645905421 287.6 L 51.384083044982695 295.3 L 52.10495963091119 295.3 L 52.825836216839676 313.3 L 53.54671280276816 313.3 L 54.267589388696656 315.5 L 54.98846597462514 315.5 L 55.70934256055363 297.3 L 56.43021914648212 297.3 L 57.15109573241061 287.7 L 57.8719723183391 286.4 L 58.59284890426759 286.4 L 59.31372549019608 290.4 L 60.034602076124564 290.4 L 60.75547866205306 302.5 L 61.476355247981544 302.5 L 62.19723183391003 290.6 L 62.918108419838525 290.6 L 63.63898500576701 276.8 L 64.3598615916955 276.8 L 65.08073817762399 284.6 L 65.80161476355248 284.6 L 66.52249134948097 288.3 L 67.24336793540945 288.3 L 67.96424452133795 289 L 68.68512110726644 289 L 69.40599769319492 265.1 L 70.12687427912341 265.1 L 70.8477508650519 207.7 L 71.56862745098039 207.7 L 72.28950403690888 219.5 L 73.01038062283737 219.5 L 73.73125720876585 182.9 L 74.45213379469435 182.9 L 75.17301038062284 125.8 L 75.89388696655132 125.8 L 76.61476355247981 111.7 L 77.33564013840831 111.7 L 78.05651672433679 105.1 L 78.77739331026528 105.1 L 79.49826989619378 98.6 L 80.21914648212226 98.6 L 80.94002306805075 90.5 L 81.66089965397924 90.5 L 82.38177623990772 110 L 83.10265282583622 110 L 83.82352941176471 179.6 L 84.54440599769319 179.6 L 85.26528258362168 190.4 L 85.98615916955018 190.4 L 86.70703575547866 132.3 L 87.42791234140715 132.3 L 88.14878892733564 108.3 L 88.86966551326412 111.8 L 89.59054209919262 111.8 L 90.31141868512111 129.6 L 91.03229527104959 129.6 L 91.75317185697808 144.5 L 92.47404844290658 34 L 93.19492502883506 82.3 L 93.91580161476355 82.3 L 94.63667820069205 139.3 L 95.35755478662053 139.3 L 96.07843137254902 148.8 L 96.79930795847751 148.8 L 97.52018454440599 171 L 98.24106113033449 171 L 98.96193771626298 252.3 L 99.68281430219146 252.3 L 100.40369088811995 282.8 L 101.12456747404845 282.8 L 101.84544405997693 256.9 L 102.56632064590542 256.9 L 103.28719723183391 174.7 L 104.0080738177624 174.7 L 104.72895040369089 193.4 L 105.44982698961938 193.4 L 106.17070357554786 190.4 L 106.89158016147636 190.4 L 107.61245674740485 165.2 L 108.33333333333333 165.2 L 109.05420991926182 22.8 L 109.77508650519032 22.8 L 110.4959630911188 43.1 L 111.21683967704729 43.1 L 111.93771626297577 242.2 L 112.65859284890426 242.2 L 113.37946943483276 279.1 L 114.10034602076124 279.1 L 114.82122260668973 259 L 115.54209919261822 259 L 116.2629757785467 304.1 L 116.9838523644752 304.1 L 117.70472895040369 307.2 L 118.42560553633217 307.2 L 119.14648212226066 285.1 L 119.86735870818916 285.1 L 120.58823529411764 282 L 121.30911188004613 282 L 122.02998846597463 282.4 L 122.7508650519031 282.4 L 123.4717416378316 282.8 L 124.19261822376009 282.8 L 124.91349480968857 282.7 L 125.63437139561707 282.7 L 126.35524798154556 271.1 L 127.07612456747404 271.1 L 127.79700115340253 274 L 128.51787773933103 274 L 129.23875432525952 268.7 L 129.95963091118801 268.7 L 130.68050749711648 267.4 L 131.40138408304497 267.4 L 132.12226066897347 283 L 132.84313725490196 283 L 133.56401384083046 281.6 L 134.28489042675895 281.6 L 135.00576701268741 289.7 L 135.7266435986159 304.1 L 136.4475201845444 304.1 L 137.1683967704729 298.1 L 137.8892733564014 298.1 L 138.61014994232988 281.5 L 139.33102652825835 281.5 L 140.05190311418684 279.9 L 140.77277970011534 279.9 L 141.49365628604383 282.3 L 142.21453287197232 282.3 L 142.93540945790082 283 L 143.65628604382928 283 L 144.37716262975778 283.1 L 145.09803921568627 283.1 L 145.81891580161476 268.2 L 146.53979238754326 268.2 L 147.26066897347175 291 L 147.98154555940022 291 L 148.7024221453287 295.8 L 149.4232987312572 295.8 L 150.1441753171857 271.8 L 150.8650519031142 271.8 L 151.5859284890427 276.2 L 152.30680507497115 276.2 L 153.02768166089965 282.4 L 153.74855824682814 282.4 L 154.46943483275663 282.8 L 155.19031141868513 282.8 L 155.91118800461362 282.5 L 156.6320645905421 282.5 L 157.35294117647058 283.1 L 158.07381776239907 283.1 L 158.79469434832757 300.8 L 159.51557093425606 300.8 L 160.23644752018453 312.7 L 160.95732410611302 312.7 L 161.67820069204151 290.3 L 162.39907727797 290.3 L 163.1199538638985 283.5 L 163.840830449827 283.5 L 164.56170703575546 271.2 L 165.28258362168395 271.2 L 166.00346020761245 233.6 L 166.72433679354094 233.6 L 167.44521337946944 290.8 L 168.16608996539793 290.8 L 168.8869665513264 295.4 L 169.6078431372549 295.4 L 170.32871972318338 271.5 L 171.04959630911188 271.5 L 171.77047289504037 277.7 L 172.49134948096886 277.7 L 173.21222606689733 283.1 L 173.93310265282582 283.1 L 174.65397923875432 282.8 L 175.3748558246828 282.7 L 176.0957324106113 282.7 L 176.8166089965398 284.3 L 177.53748558246826 284.3 L 178.25836216839676 304.9 L 178.97923875432525 304.9 L 179.70011534025375 316.1 L 180.42099192618224 316.1 L 181.14186851211073 296.5 L 181.8627450980392 296.5 L 182.5836216839677 282.7 L 183.3044982698962 282.7 L 184.02537485582468 282.4 L 184.74625144175315 282.4 L 185.46712802768164 281.5 L 186.18800461361013 281.5 L 186.90888119953863 278 L 187.6297577854671 278 L 188.35063437139559 276.7 L 189.07151095732408 276.7 L 189.79238754325257 273.3 L 190.51326412918107 273.3 L 191.23414071510956 294.4 L 191.95501730103803 294.4 L 192.67589388696652 286.4 L 193.396770472895 286.4 L 194.1176470588235 266.9 L 194.838523644752 266.9 L 195.5594002306805 255.4 L 196.28027681660896 255.4 L 197.00115340253745 221.3 L 197.72202998846595 221.3 L 198.44290657439444 280 L 199.16378316032294 280 L 199.88465974625143 285.7 L 200.6055363321799 310 L 201.3264129181084 310 L 202.04728950403688 308.1 L 202.76816608996538 308.1 L 203.48904267589387 291.8 L 204.20991926182236 291.8 L 204.93079584775083 281.2 L 205.65167243367932 281.2 L 206.37254901960782 275.5 L 207.0934256055363 275.5 L 207.8143021914648 266.8 L 208.5351787773933 266.8 L 209.25605536332176 282.6 L 209.97693194925026 282.6 L 210.69780853517875 280.3 L 211.41868512110725 280.3 L 212.13956170703574 279.6 L 212.86043829296423 279.6 L 213.5813148788927 302.5 L 214.3021914648212 302.5 L 215.02306805074969 287.7 L 215.74394463667818 287.7 L 216.46482122260667 270.4 L 217.18569780853517 270.4 L 217.90657439446363 281.1 L 218.62745098039213 281.1 L 219.34832756632062 283.1 L 220.0692041522491 283.1 L 220.7900807381776 282.9 L 221.51095732410607 282.9 L 222.23183391003457 282.8 L 222.95271049596306 282.8 L 223.67358708189155 286.8 L 224.39446366782005 286.8 L 225.11534025374854 312.1 L 225.836216839677 312.1 L 226.5570934256055 312 L 227.277970011534 312 L 227.9988465974625 289 L 228.71972318339098 289 L 229.44059976931948 282 L 230.16147635524794 282 L 230.88235294117644 283.2 L 231.60322952710493 283.2 L 232.32410611303342 282.4 L 233.04498269896192 282.4 L 233.7658592848904 300.7 L 234.48673587081888 300.7 L 235.20761245674737 279.7 L 235.92848904267586 279.7 L 236.64936562860436 271 L 237.37024221453285 271 L 238.09111880046135 281.7 L 238.8119953863898 281.7 L 239.5328719723183 283.1 L 240.2537485582468 283.1 L 240.9746251441753 282.3 L 241.69550173010379 282.3 L 242.41637831603228 283.5 L 243.13725490196074 287.9 L 243.85813148788924 287.9 L 244.57900807381773 314.3 L 245.29988465974623 314.3 L 246.02076124567472 307.3 L 246.7416378316032 307.3 L 247.46251441753168 285 L 248.18339100346017 285 L 248.90426758938867 283.1 L 249.62514417531716 283.1 L 250.34602076124565 282.4 L 251.06689734717415 282.4 L 251.7877739331026 282.9 L 252.5086505190311 282.9 L 253.2295271049596 283.2 L 253.9504036908881 283.2 L 254.6712802768166 273.3 L 255.39215686274508 273.3 L 256.11303344867355 277 L 256.83391003460207 277 L 257.55478662053054 300.7 L 258.275663206459 300.7 L 258.9965397923875 279.3 L 259.717416378316 279.3 L 260.4382929642445 273.2 L 261.159169550173 273.2 L 261.8800461361015 281.6 L 262.60092272202996 281.6 L 263.32179930795843 282.9 L 264.04267589388695 282.9 L 264.7635524798154 282.3 L 265.48442906574394 282.3 L 266.2053056516724 274.7 L 266.92618223760087 274.7 L 267.6470588235294 294.4 L 268.36793540945786 294.4 L 269.0888119953864 256.8 L 269.80968858131484 275.8 L 270.53056516724337 275.8 L 271.25144175317183 277.9 L 271.9723183391003 277.9 L 272.6931949250288 277.8 L 273.4140715109573 277.8 L 274.1349480968858 292.5 L 274.8558246828143 292.5 L 275.57670126874274 298.4 L 276.29757785467126 298.4 L 277.0184544405997 273 L 277.73933102652825 273 L 278.4602076124567 275.5 L 279.18108419838524 275.5 L 279.9019607843137 281.8 L 280.62283737024217 281.8 L 281.3437139561707 283.4 L 282.06459054209915 283.4 L 282.7854671280277 282.7 L 283.50634371395614 282.7 L 284.2272202998846 282.8 L 284.94809688581313 282.8 L 285.6689734717416 297.5 L 286.3898500576701 297.5 L 287.1107266435986 314.9 L 287.8316032295271 314.9 L 288.55247981545557 303 L 289.27335640138404 303 L 289.99423298731256 282.9 L 290.715109573241 282.9 L 291.43598615916954 282.4 L 292.156862745098 282.4 L 292.8777393310265 282.4 L 293.598615916955 282.4 L 294.31949250288346 265.1 L 295.040369088812 265.1 L 295.76124567474045 241.2 L 296.482122260669 241.2 L 297.20299884659744 275.6 L 297.9238754325259 275.6 L 298.6447520184544 296 L 299.3656286043829 296 L 300.0865051903114 295.7 L 300.8073817762399 295.7 L 301.52825836216834 270.4 L 302.24913494809687 270.4 L 302.97001153402533 276.6 L 303.69088811995385 282.3 L 304.4117647058823 282.3 L 305.13264129181084 282.3 L 305.8535178777393 302.1 L 306.5743944636678 302.1 L 307.2952710495963 315.8 L 308.01614763552476 315.8 L 308.7370242214533 299.2 L 309.45790080738175 299.2 L 310.1787773933102 283.1 L 310.89965397923874 283.1 L 311.6205305651672 282.3 L 312.3414071510957 282.3 L 313.0622837370242 283.3 L 313.78316032295265 283.3 L 314.5040369088812 282.9 L 315.22491349480964 282.9 L 315.94579008073816 282.4 L 316.66666666666663 282.4 L 317.38754325259515 276.3 L 318.1084198385236 276.3 L 318.8292964244521 297.2 L 319.5501730103806 295 L 320.27104959630907 295 L 320.9919261822376 270.4 L 321.71280276816606 270.4 L 322.4336793540945 277.4 L 323.15455594002304 277.4 L 323.8754325259515 278.9 L 324.59630911188003 278.9 L 325.3171856978085 275.5 L 326.038062283737 275.5 L 326.7589388696655 275.8 L 327.47981545559395 275.8 L 328.2006920415225 282.2 L 328.92156862745094 282.2 L 329.64244521337946 306 L 330.3633217993079 306 L 331.0841983852364 314.8 L 331.8050749711649 314.8 L 332.5259515570934 292.2 L 333.2468281430219 292.2 L 333.96770472895037 282.1 L 334.6885813148789 282.1 L 335.40945790080735 282.7 L 336.1303344867358 282.7 L 336.85121107266434 282.1 L 337.5720876585928 282.1 L 338.29296424452133 258.5 L 339.0138408304498 258.5 L 339.73471741637826 291.6 L 340.4555940023068 291.6 L 341.17647058823525 269.8 L 341.89734717416377 269.8 L 342.61822376009223 279.7 L 343.33910034602076 279.7 L 344.0599769319492 283.3 L 344.7808535178777 283.3 L 345.5017301038062 283.1 L 346.2226066897347 283.1 L 346.9434832756632 283.1 L 347.66435986159166 283.1 L 348.38523644752013 284.9 L 349.10611303344865 284.9 L 349.8269896193771 309.8 L 350.54786620530564 309.8 L 351.2687427912341 299.5 L 351.9896193771626 299.5 L 352.7104959630911 232.1 L 353.43137254901956 232.1 L 354.1522491349481 251.3 L 354.87312572087654 251.3 L 355.59400230680507 282 L 356.31487889273353 282 L 357.035755478662 263.1 L 357.7566320645905 263.1 L 358.477508650519 248 L 359.1983852364475 248 L 359.919261822376 279.3 L 360.6401384083045 279.3 L 361.36101499423296 283.5 L 362.0818915801614 283.5 L 362.80276816608995 301.1 L 363.5236447520184 301.1 L 364.24452133794694 283.6 L 364.9653979238754 283.6 L 365.68627450980387 269.7 L 366.4071510957324 281.4 L 367.12802768166085 281.4 L 367.8489042675894 282.2 L 368.56978085351784 282.2 L 369.29065743944636 282.9 L 370.01153402537483 282.9 L 370.7324106113033 283.1 L 371.4532871972318 283.1 L 372.1741637831603 286.4 L 372.8950403690888 286.4 L 373.61591695501727 313.1 L 374.33679354094573 313.1 L 375.05767012687426 289 L 375.7785467128027 289 L 376.49942329873124 281.6 L 377.2202998846597 283.7 L 377.94117647058823 283.7 L 378.6620530565167 283.1 L 379.38292964244516 283.1 L 380.1038062283737 283.1 L 380.82468281430215 283.1 L 381.5455594002307 278.7 L 382.26643598615914 278.7 L 382.9873125720876 284.8 L 383.7081891580161 284.8 L 384.4290657439446 297.4 L 385.1499423298731 297.4 L 385.8708189158016 277.4 L 386.5916955017301 277.4 L 387.31257208765857 271.2 L 388.03344867358703 271.2 L 388.75432525951555 277.8 L 389.475201845444 277.8 L 390.19607843137254 281 L 390.916955017301 281 L 391.6378316032295 278.2 L 392.358708189158 278.2 L 393.07958477508646 279.3 L 393.800461361015 279.3 L 394.52133794694345 288.9 L 395.24221453287197 288.9 L 395.96309111880043 314.6 L 396.6839677047289 314.6 L 397.4048442906574 309.3 L 398.1257208765859 309.3 L 398.8465974625144 285.8 L 399.5674740484429 285.8 L 400.28835063437134 282.8 L 401.00922722029986 282.8 L 401.7301038062283 282.3 L 402.45098039215685 282.3 L 403.1718569780853 282.5 L 403.8927335640138 282.5 L 404.6136101499423 283.1 L 405.33448673587077 283.1 L 406.0553633217993 277.1 L 406.77623990772776 277.1 L 407.4971164936563 288.5 L 408.21799307958474 288.5 L 408.9388696655132 301.1 L 409.65974625144173 301.1 L 410.3806228373702 274 L 411.1014994232987 282.6 L 411.8223760092272 282.6 L 412.54325259515565 283.3 L 413.2641291810842 283.3 L 413.98500576701264 282.7 L 414.70588235294116 282.7 L 415.4267589388696 283.3 L 416.14763552479815 283.3 L 416.8685121107266 293.1 L 417.5893886966551 293.1 L 418.3102652825836 315.3 L 419.03114186851207 315.3 L 419.7520184544406 302.6 L 420.47289504036905 302.6 L 421.1937716262975 283.9 L 421.91464821222604 283.9 L 422.6355247981545 280.6 L 423.35640138408303 280.6 L 424.0772779700115 250.8 L 424.79815455594 250.8 L 425.5190311418685 249.7 L 426.23990772779695 249.7 L 426.96078431372547 282.4 L 427.68166089965393 282.4 L 428.40253748558246 277.6 L 429.1234140715109 277.6 L 429.8442906574394 292.5 L 430.5651672433679 293.8 L 431.2860438292964 293.8 L 432.0069204152249 274.3 L 432.72779700115336 274.3 L 433.4486735870819 274.9 L 434.16955017301035 274.9 L 434.8904267589388 282.7 L 435.61130334486734 282.7 L 436.3321799307958 283.3 L 437.0530565167243 283.3 L 437.7739331026528 282.4 L 438.49480968858126 282.4 L 439.2156862745098 280.3 L 439.93656286043824 280.3 L 440.65743944636677 292.7 L 441.37831603229523 292.7 L 442.09919261822375 314.7 L 442.8200692041522 314.7 L 443.5409457900807 299 L 444.2618223760092 299 L 444.9826989619377 282 L 445.7035755478662 283.1 L 446.42445213379466 283.5 L 447.1453287197231 283.5 L 447.86620530565165 283.2 L 448.5870818915801 283.2 L 449.30795847750863 283.1 L 450.0288350634371 283.1 L 450.7497116493656 275.3 L 451.4705882352941 275.3 L 452.19146482122255 296.2 L 452.9123414071511 294.2 L 453.63321799307954 294.2 L 454.35409457900806 268.2 L 455.0749711649365 268.2 L 455.795847750865 272 L 456.5167243367935 272 L 457.237600922722 256.1 L 457.9584775086505 256.1 L 458.67935409457897 272.5 L 459.4002306805075 272.5 L 460.12110726643596 275.8 L 460.8419838523644 275.8 L 461.56286043829294 272.7 L 462.2837370242214 272.7 L 463.00461361014993 299.9 L 463.7254901960784 299.9 L 464.44636678200686 315.5 L 465.1672433679354 315.5 L 465.88811995386385 299.9 L 466.6089965397924 299.9 L 467.32987312572084 287 L 468.05074971164936 287 L 468.7716262975778 286.2 L 469.4925028835063 286.2 L 470.2133794694348 286.8 L 470.9342560553633 286.8 L 471.6551326412918 287.3 L 472.37600922722027 287.3 L 473.09688581314873 282.2 L 473.81776239907725 282.2 L 474.5386389850057 224.7 L 475.25951557093424 224.7 L 475.9803921568627 185.4 L 476.7012687427912 185.4 L 477.4221453287197 276.4 L 478.14302191464816 276.4 L 478.8638985005767 272.3 L 479.58477508650515 272.3 L 480.30565167243367 282.1 L 481.02652825836213 287.2 L 481.7474048442906 287.2 L 482.4682814302191 287 L 483.1891580161476 287 L 483.9100346020761 281 L 484.6309111880046 281 L 485.3517877739331 304.9 L 486.07266435986156 304.9 L 486.79354094579 314.9 L 487.51441753171855 314.9 L 488.235294117647 296.7 L 488.95617070357554 296.7 L 489.677047289504 269.8 L 490.39792387543247 269.8 L 491.118800461361 230.7 L 491.83967704728946 230.7 L 492.560553633218 242.1 L 493.28143021914644 242.1 L 494.00230680507497 283.7 L 494.72318339100343 283.7 L 495.4440599769319 280.4 L 496.1649365628604 280.4 L 496.8858131487889 280 L 497.6066897347174 280 L 498.3275663206459 300.1 L 499.04844290657434 300.1 L 499.76931949250286 292.1 L 500.4901960784313 274.4 L 501.21107266435985 274.4 L 501.9319492502883 284 L 502.6528258362168 284 L 503.3737024221453 285.6 L 504.09457900807377 285.6 L 504.8154555940023 284.3 L 505.53633217993075 284.3 L 506.2572087658593 287 L 506.97808535178774 287 L 507.6989619377162 281.5 L 508.4198385236447 281.5 L 509.1407151095732 308.3 L 509.8615916955017 308.3 L 510.5824682814302 311.1 L 511.30334486735865 311.1 L 512.0242214532872 287.1 L 512.7450980392157 287.1 L 513.4659746251441 280.8 L 514.1868512110726 280.8 L 514.9077277970011 282.4 L 515.6286043829296 282.4 L 516.3494809688581 282.7 L 517.0703575547866 282.7 L 517.7912341407151 282.4 L 518.5121107266435 282.4 L 519.232987312572 290.4 L 519.9538638985006 290.4 L 520.674740484429 302.6 L 521.3956170703575 302.6 L 522.116493656286 287.1 L 522.8373702422145 287.1 L 523.558246828143 272 L 524.2791234140715 281.5 L 525 281.5 L 525.7208765859284 282.6 L 526.4417531718569 282.6 L 527.1626297577855 282.4 L 527.883506343714 282.4 L 528.6043829296424 283.1 L 529.3252595155709 283.1 L 530.0461361014994 296.9 L 530.7670126874278 296.9 L 531.4878892733564 315.4 L 532.2087658592849 315.4 L 532.9296424452133 312.2 L 533.6505190311418 312.2 L 534.3713956170703 290.4 L 535.0922722029989 290.4 L 535.8131487889273 281.6 L 536.5340253748558 281.6 L 537.2549019607843 283.4 L 537.9757785467127 283.4 L 538.6966551326412 282.2 L 539.4175317185698 282.2 L 540.1384083044983 282.3 L 540.8592848904267 282.3 L 541.5801614763552 283.4 L 542.3010380622837 283.4 L 543.0219146482121 292.4 L 543.7427912341407 292.4 L 544.4636678200692 301.5 L 545.1845444059977 301.5 L 545.9054209919261 283.1 L 546.6262975778546 283.1 L 547.3471741637832 274.1 L 548.0680507497116 274.1 L 548.7889273356401 282 L 549.5098039215686 282 L 550.230680507497 283.4 L 550.9515570934255 283.4 L 551.6724336793541 316.1 L 552.3933102652826 316.1 L 553.114186851211 309.1 L 553.8350634371395 309.1 L 554.555940023068 286.8 L 555.2768166089965 286.8 L 555.997693194925 245.2 L 556.7185697808535 245.2 L 557.439446366782 233 L 558.1603229527104 233 L 558.881199538639 204.8 L 559.6020761245675 204.8 L 560.3229527104959 157.1 L 561.0438292964244 157.1 L 561.7647058823529 222.8 L 562.4855824682815 222.8 L 563.2064590542099 287.7 L 563.9273356401384 287.7 L 564.6482122260669 234.5 L 565.3690888119953 234.5 L 566.0899653979238 172.8 L 566.8108419838524 172.8 L 567.5317185697808 236 L 568.2525951557093 236 L 568.9734717416378 278.7 L 569.6943483275663 278.7 L 570.4152249134947 241 L 571.1361014994233 241 L 571.8569780853518 224.1 L 572.5778546712802 232.6 L 573.2987312572087 232.6 L 574.0196078431372 287 L 574.7404844290658 287 L 575.4613610149942 312.9 L 576.1822376009227 312.9 L 576.9031141868512 305.8 L 577.6239907727796 305.8 L 578.3448673587081 286.5 L 579.0657439446367 286.5 L 579.7866205305652 285.2 L 580.5074971164936 285.2 L 581.2283737024221 286.4 L 581.9492502883506 286.4 L 582.670126874279 286.3 L 583.3910034602076 286.3 L 584.1118800461361 286.3 L 584.8327566320645 286.3 L 585.553633217993 286.5 L 586.2745098039215 286.5 L 586.9953863898501 278.6 L 587.7162629757785 278.6 L 588.437139561707 285.7 L 589.1580161476355 285.7 L 589.8788927335639 286.5 L 590.5997693194925 286.5 L 591.320645905421 286.2 L 592.0415224913495 286.2 L 592.7623990772779 288.8 L 593.4832756632064 288.8 L 594.204152249135 309.1 L 594.9250288350634 309.1 L 595.6459054209919 316.4 L 596.3667820069204 316.4 L 597.0876585928488 302.7 L 597.8085351787773 302.7 L 598.5294117647059 286.1 L 599.2502883506344 285 L 599.9711649365628 285 L 600.6920415224913 284.2 L 601.4129181084198 284.2 L 602.1337946943482 282.3 L 602.8546712802768 282.3 L 603.5755478662053 281.6 L 604.2964244521338 281.6 L 605.0173010380622 284.4 L 605.7381776239907 284.4 L 606.4590542099193 298.6 L 607.1799307958477 298.6 L 607.9008073817762 296.9 L 608.6216839677047 296.9 L 609.3425605536332 263.9 L 610.0634371395616 263.9 L 610.7843137254902 256.5 L 611.5051903114187 256.5 L 612.2260668973471 283.7 L 612.9469434832756 283.7 L 613.6678200692041 286.6 L 614.3886966551325 286.6 L 615.1095732410611 286.6 L 615.8304498269896 286.6 L 616.5513264129181 284.7 L 617.2722029988465 284.7 L 617.993079584775 290.8 L 618.7139561707036 290.8 L 619.434832756632 256.4 L 620.1557093425605 256.4 L 620.876585928489 255.7 L 621.5974625144175 255.7 L 622.318339100346 249.8 L 623.0392156862745 249.8 L 623.760092272203 283.9 L 624.4809688581314 283.9 L 625.2018454440599 286.5 L 625.9227220299884 284 L 626.643598615917 284 L 627.3644752018454 278.2 L 628.0853517877739 278.2 L 628.8062283737024 297.9 L 629.5271049596308 297.9 L 630.2479815455594 293.2 L 630.9688581314879 293.2 L 631.6897347174163 275.3 L 632.4106113033448 275.3 L 633.1314878892733 282.4 L 633.8523644752019 282.4 L 634.5732410611303 286.4 L 635.2941176470588 286.4 L 636.0149942329873 285.7 L 636.7358708189157 285.7 L 637.4567474048442 286.8 L 638.1776239907728 286.8 L 638.8985005767013 293.7 L 639.6193771626297 293.7 L 640.3402537485582 312.7 L 641.0611303344867 312.7 L 641.7820069204151 315.3 L 642.5028835063437 315.3 L 643.2237600922722 297.3 L 643.9446366782007 297.3 L 644.6655132641291 286.6 L 645.3863898500576 286.6 L 646.1072664359862 286.4 L 646.8281430219146 286.4 L 647.5490196078431 286.3 L 648.2698961937716 286.3 L 648.9907727797 286.2 L 649.7116493656285 286.2 L 650.4325259515571 286.9 L 651.1534025374856 286.9 L 651.874279123414 289.1 L 652.5951557093425 289.1 L 653.316032295271 302.9 L 654.0369088811995 302.9 L 654.757785467128 290.6 L 655.4786620530565 290.6 L 656.199538638985 274.8 L 656.9204152249134 274.8 L 657.641291810842 286.3 L 658.3621683967705 286.3 L 659.0830449826989 296.1 L 659.8039215686274 296.1 L 660.5247981545559 315.8 L 661.2456747404844 315.8 L 661.9665513264129 313.6 L 662.6874279123414 313.6 L 663.4083044982699 294.2 L 664.1291810841983 294.2 L 664.8500576701268 286.4 L 665.5709342560554 286.4 L 666.2918108419838 285.8 L 667.0126874279123 285.8 L 667.7335640138408 286.9 L 668.4544405997693 286.9 L 669.1753171856977 286.1 L 669.8961937716263 286.1 L 670.6170703575548 285.6 L 671.3379469434832 291 L 672.0588235294117 291 L 672.7797001153402 302.4 L 673.5005767012688 302.4 L 674.2214532871972 287.4 L 674.9423298731257 287.4 L 675.6632064590542 275.8 L 676.3840830449826 275.8 L 677.1049596309111 285.4 L 677.8258362168397 285.4 L 678.5467128027682 286.3 L 679.2675893886966 286.3 L 679.9884659746251 256.3 L 680.7093425605536 256.3 L 681.430219146482 208.4 L 682.1510957324106 208.4 L 682.8719723183391 283.3 L 683.5928489042675 283.3 L 684.313725490196 312.5 L 685.0346020761245 312.5 L 685.7554786620531 309.1 L 686.4763552479815 309.1 L 687.19723183391 246.1 L 687.9181084198385 246.1 L 688.6389850057669 251.8 L 689.3598615916954 251.8 L 690.080738177624 284.8 L 690.8016147635525 284.8 L 691.5224913494809 286.2 L 692.2433679354094 286.2 L 692.964244521338 301.2 L 693.6851211072664 301.2 L 694.4059976931949 284.2 L 695.1268742791234 284.2 L 695.8477508650518 276.7 L 696.5686274509803 276.7 L 697.2895040369089 287 L 698.0103806228374 286 L 698.7312572087658 286 L 699.4521337946943 286 L 700.1730103806228 286 L 700.8938869665512 287.7 L 701.6147635524798 287.7 L 702.3356401384083 303 L 703.0565167243368 303 L 703.7773933102652 316.2 L 704.4982698961937 316.2 L 705.2191464821223 308.3 L 705.9400230680507 308.3 L 706.6608996539792 289.9 L 707.3817762399077 289.9 L 708.1026528258362 286.3 L 708.8235294117646 286.3 L 709.5444059976932 285.9 L 710.2652825836217 285.9 L 710.9861591695501 286.8 L 711.7070357554786 286.8 L 712.4279123414071 286.7 L 713.1487889273355 286.7 L 713.8696655132641 287 L 714.5905420991926 287 L 715.3114186851211 296.3 L 716.0322952710495 296.3 L 716.753171856978 301 L 717.4740484429066 301 L 718.194925028835 281 L 718.9158016147635 281 L 719.636678200692 278.9 L 720.3575547866205 278.9 L 721.078431372549 287.2 L 721.7993079584775 287.2 L 722.520184544406 286.1 L 723.2410611303344 286.1 L 723.9619377162629 286.2 L 724.6828143021914 286.2 L 725.40369088812 288 L 726.1245674740484 288 L 726.8454440599769 307.2 L 727.5663206459054 307.2 L 728.2871972318338 306.7 L 729.0080738177624 306.7 L 729.7289504036909 288.3 L 730.4498269896193 286.6 L 731.1707035755478 286.6 L 731.8915801614763 286.4 L 732.6124567474048 286.4 L 733.3333333333333 287.4 L 734.0542099192618 287.4 L 734.7750865051903 285.8 L 735.4959630911187 285.8 L 736.2168396770472 286.4 L 736.9377162629758 286.4 L 737.6585928489043 298.1 L 738.3794694348327 298.1 L 739.1003460207612 299.6 L 739.8212226066897 299.6 L 740.5420991926181 277.2 L 741.2629757785467 277.2 L 741.9838523644752 280.9 L 742.7047289504037 280.9 L 743.4256055363321 286.5 L 744.1464821222606 286.5 L 744.8673587081892 269.8 L 745.5882352941176 269.8 L 746.3091118800461 264.8 L 747.0299884659746 264.8 L 747.750865051903 286.8 L 748.4717416378315 286.8 L 749.1926182237601 306.8 L 749.9134948096886 306.8 L 750.634371395617 314.3 L 751.3552479815455 314.3 L 752.076124567474 259.8 L 752.7970011534024 259.8 L 753.517877739331 256 L 754.2387543252595 256 L 754.959630911188 285.1 L 755.6805074971164 285.1 L 756.401384083045 275.2 L 757.1222606689735 275.2 L 757.8431372549019 279.6 L 758.5640138408304 279.6 L 759.2848904267589 286.7 L 760.0057670126874 286.7 L 760.7266435986159 286.9 L 761.4475201845444 286.9 L 762.1683967704729 300.7 L 762.8892733564013 300.7 L 763.6101499423298 275.5 L 764.3310265282583 283.5 L 765.0519031141868 283.5 L 765.7727797001153 286.9 L 766.4936562860438 286.9 L 767.2145328719723 286.5 L 767.9354094579007 286.5 L 768.6562860438293 286.9 L 769.3771626297578 286.9 L 770.0980392156862 291.7 L 770.8189158016147 291.7 L 771.5397923875432 312.2 L 772.2606689734718 312.2 L 772.9815455594002 315.7 L 773.7024221453287 315.7 L 774.4232987312572 299.7 L 775.1441753171856 299.7 L 775.8650519031141 286.8 L 776.5859284890427 286.8 L 777.3068050749711 286.8 L 778.0276816608996 286.8 L 778.7485582468281 286.5 L 779.4694348327566 286.5 L 780.190311418685 286.7 L 780.9111880046136 286.7 L 781.6320645905421 286.8 L 782.3529411764705 286.8 L 783.073817762399 289.1 L 783.7946943483275 289.1 L 784.5155709342561 301 L 785.2364475201845 301 L 785.957324106113 293.5 L 786.6782006920415 293.5 L 787.3990772779699 276.2 L 788.1199538638984 276.2 L 788.840830449827 276.9 L 789.5617070357555 276.9 L 790.2825836216839 259.9 L 791.0034602076124 259.9 L 791.7243367935409 283.4 L 792.4452133794694 283.4 L 793.1660899653979 281.1 L 793.8869665513264 281.1 L 794.6078431372548 293.7 L 795.3287197231833 293.7 L 796.0495963091118 314.2 L 796.7704728950404 314.2 L 797.4913494809688 314.9 L 798.2122260668973 314.9 L 798.9331026528258 193.1 L 799.6539792387542 175.1 L 800.3748558246828 175.1 L 801.0957324106113 165.5 L 801.8166089965398 165.5 L 802.5374855824682 176.8 L 803.2583621683967 176.8 L 803.9792387543253 192.6 L 804.7001153402537 192.6 L 805.4209919261822 178.2 L 806.1418685121107 178.2 L 806.8627450980392 137.9 L 807.5836216839676 137.9 L 808.3044982698962 153.7 L 809.0253748558247 153.7 L 809.7462514417531 182.7 L 810.4671280276816 182.7 L 811.1880046136101 199.7 L 811.9088811995385 199.7 L 812.6297577854671 159.8 L 813.3506343713956 161.3 L 814.0715109573241 161.3 L 814.7923875432525 197.7 L 815.513264129181 197.7 L 816.2341407151096 186.4 L 816.955017301038 186.4 L 817.6758938869665 171.3 L 818.396770472895 171.3 L 819.1176470588235 162.9 L 819.838523644752 162.9 L 820.5594002306805 160.9 L 821.280276816609 160.9 L 822.0011534025374 170 L 822.7220299884659 170 L 823.4429065743944 167.1 L 824.163783160323 167.1 L 824.8846597462514 187 L 825.6055363321799 187 L 826.3264129181084 215.1 L 827.0472895040368 215.1 L 827.7681660899653 223.3 L 828.4890426758939 223.3 L 829.2099192618223 204.8 L 829.9307958477508 204.8 L 830.6516724336793 194.6 L 831.3725490196078 194.6 L 832.0934256055363 205.6 L 832.8143021914648 205.6 L 833.5351787773933 203.8 L 834.2560553633217 202.3 L 834.9769319492502 204.1 L 835.6978085351788 204.1 L 836.4186851211073 221.9 L 837.1395617070357 239.6 L 837.8604382929642 239.6 L 838.5813148788927 232.5 L 839.3021914648211 232.5 L 840.0230680507497 194.9 L 840.7439446366782 194.9 L 841.4648212226067 155.4 L 842.1856978085351 155.4 L 842.9065743944636 170.6 L 843.6274509803922 170.6 L 844.3483275663206 176.1 L 845.0692041522491 176.1 L 845.7900807381776 171.8 L 846.510957324106 171.8 L 847.2318339100345 175.5 L 847.9527104959631 175.5 L 848.6735870818916 206.2 L 849.39446366782 206.2 L 850.1153402537485 239.7 L 850.836216839677 239.7 L 851.5570934256054 214.5 L 852.277970011534 214.5 L 852.9988465974625 177.1 L 853.719723183391 177.1 L 854.4405997693194 168.6 L 855.1614763552479 168.6 L 855.8823529411765 170.9 L 856.6032295271049 170.9 L 857.3241061130334 173.3 L 858.0449826989619 173.3 L 858.7658592848904 170.9 L 859.4867358708188 170.9 L 860.2076124567474 216.2 L 860.9284890426759 216.2 L 861.6493656286043 257.6 L 862.3702422145328 257.6 L 863.0911188004613 244.4 L 863.8119953863898 244.4 L 864.5328719723183 243.9 L 865.2537485582468 243.9 L 865.9746251441753 225.3 L 866.6955017301037 225.3 L 867.4163783160323 207.3 L 868.1372549019608 207.3 L 868.8581314878892 201.8 L 869.5790080738177 213.5 L 870.2998846597462 220.4 L 871.0207612456747 220.4 L 871.7416378316032 187.8 L 872.4625144175317 187.8 L 873.1833910034602 181.5 L 873.9042675893886 181.5 L 874.6251441753171 194 L 875.3460207612457 194 L 876.0668973471741 184.7 L 876.7877739331026 184.7 L 877.5086505190311 187 L 878.2295271049596 187 L 878.950403690888 195.2 L 879.6712802768166 195.2 L 880.3921568627451 190.2 L 881.1130334486735 190.2 L 881.833910034602 199.6 L 882.5547866205305 199.6 L 883.2756632064591 218.9 L 883.9965397923875 196.2 L 884.717416378316 196.2 L 885.4382929642445 165.4 L 886.1591695501729 165.4 L 886.8800461361014 158.3 L 887.60092272203 158.3 L 888.3217993079585 163.9 L 889.0426758938869 163.9 L 889.7635524798154 160.2 L 890.4844290657439 160.2 L 891.2053056516723 169.8 L 891.9261822376009 169.8 L 892.6470588235294 181.3 L 893.3679354094578 181.3 L 894.0888119953863 182 L 894.8096885813148 182 L 895.5305651672434 161.5 L 896.2514417531718 161.5 L 896.9723183391003 164.4 L 897.6931949250288 164.4 L 898.4140715109572 170.1 L 899.1349480968858 170.1 L 899.8558246828143 193.1 L 900.5767012687428 193.1 L 901.2975778546712 223.8 L 902.0184544405997 223.8 L 902.7393310265282 229.5 L 903.4602076124567 229.5 L 904.1810841983852 263.5 L 904.9019607843137 179.3 L 905.6228373702422 170.4 L 906.3437139561706 170.4 L 907.0645905420992 212.7 L 907.7854671280277 212.7 L 908.5063437139561 206.1 L 909.2272202998846 158.1 L 909.9480968858131 158.1 L 910.6689734717415 138.6 L 911.3898500576701 138.6 L 912.1107266435986 179.3 L 912.8316032295271 179.3 L 913.5524798154555 176.5 L 914.273356401384 176.5 L 914.9942329873126 159.7 L 915.715109573241 159.7 L 916.4359861591695 163.3 L 917.156862745098 163.3 L 917.8777393310265 168.4 L 918.5986159169549 168.4 L 919.3194925028835 176.5 L 920.040369088812 176.5 L 920.7612456747404 173.5 L 921.4821222606689 173.5 L 922.2029988465974 181.3 L 922.923875432526 181.3 L 923.6447520184544 204.6 L 924.3656286043829 204.6 L 925.0865051903114 203.8 L 925.8073817762398 203.8 L 926.5282583621683 185.4 L 927.2491349480969 185.4 L 927.9700115340253 154.1 L 928.6908881199538 154.1 L 929.4117647058823 162.9 L 930.1326412918108 162.9 L 930.8535178777393 167.7 L 931.5743944636678 167.7 L 932.2952710495963 164.7 L 933.0161476355247 164.7 L 933.7370242214532 173.1 L 934.4579008073817 173.1 L 935.1787773933103 166.7 L 935.8996539792387 166.7 L 936.6205305651672 189.3 L 937.3414071510957 189.3 L 938.0622837370241 174.7 L 938.7831603229527 174.7 L 939.5040369088812 145.7 L 940.2249134948097 163.5 L 940.9457900807381 169 L 941.6666666666666 172.2 L 942.3875432525952 172.2 L 943.1084198385236 191 L 943.8292964244521 191 L 944.5501730103806 210.8 L 945.271049596309 210.8 L 945.9919261822375 248.6 L 946.7128027681661 248.6 L 947.4336793540946 296 L 948.154555940023 296 L 948.8754325259515 289.9 L 949.59630911188 289.9 L 950.3171856978084 277.1 L 951.038062283737 277.1 L 951.7589388696655 262.8 L 952.479815455594 262.8 L 953.2006920415224 281.8 L 953.9215686274509 281.8 L 954.6424452133795 282 L 955.3633217993079 282 L 956.0841983852364 284.2 L 956.8050749711649 284.2 L 957.5259515570933 290.8 L 958.2468281430218 290.8 L 958.9677047289504 301.3 L 959.6885813148789 301.3 L 960.4094579008073 289 L 961.1303344867358 289 L 961.8512110726643 276.6 L 962.5720876585927 276.6 L 963.2929642445213 278.4 L 964.0138408304498 278.4 L 964.7347174163783 268.2 L 965.4555940023067 268.2 L 966.1764705882352 284.7 L 966.8973471741638 284.7 L 967.6182237600922 287.8 L 968.3391003460207 287.8 L 969.0599769319492 298.1 L 969.7808535178777 298.1 L 970.5017301038062 314.9 L 971.2226066897347 314.9 L 971.9434832756632 313 L 972.6643598615916 313 L 973.3852364475201 292.6 L 974.1061130334487 292.6 L 974.8269896193771 287.2 L 975.5478662053056 287.2 L 976.2687427912341 287.2 L 976.9896193771626 286.5 L 977.710495963091 286.5 L 978.4313725490196 285.8 L 979.1522491349481 285.8 L 979.8731257208765 293.1 L 980.594002306805 293.1 L 981.3148788927335 302.4 L 982.035755478662 302.4 L 982.7566320645905 285.5 L 983.477508650519 285.5 L 984.1983852364475 278.4 L 984.9192618223759 278.4 L 985.6401384083044 286.9 L 986.361014994233 286.9 L 987.0818915801615 286.7 L 987.8027681660899 286.7 L 988.5236447520184 281.9 L 989.2445213379469 281.9 L 989.9653979238753 279.9 L 990.6862745098039 279.9 L 991.4071510957324 295 L 992.1280276816608 295 L 992.8489042675893 314.9 L 993.5697808535178 314.9 L 994.2906574394464 310.6 L 995.0115340253748 310.6 L 995.7324106113033 291.5 L 996.4532871972318 291.5 L 997.1741637831602 287.5 L 997.8950403690887 287.5 L 998.6159169550173 288.1 L 999.3367935409458 288.1 L 1000.0576701268742 287 L 1000.7785467128027 287 L 1001.4994232987312 286.8 L 1002.2202998846597 286.8 L 1002.9411764705882 286.8 L 1003.6620530565167 286.8 L 1004.3829296424452 294 L 1005.1038062283736 294 L 1005.8246828143022 301.6 L 1006.5455594002307 301.6 L 1007.2664359861591 282 L 1007.9873125720876 282 L 1008.7081891580161 278.7 L 1009.4290657439445 287.3 L 1010.149942329873 287.3 L 1010.8708189158016 286.7 L 1011.5916955017301 286.7 L 1012.3125720876585 279.5 L 1013.033448673587 279.5 L 1013.7543252595156 250.2 L 1014.475201845444 250.2 L 1015.1960784313725 300 L 1015.916955017301 300 L 1016.6378316032295 306.9 L 1017.3587081891579 306.9 L 1018.0795847750865 285.2 L 1018.800461361015 285.2 L 1019.5213379469434 285.4 L 1020.2422145328719 285 L 1020.9630911188004 285 L 1021.683967704729 282 L 1022.4048442906574 282 L 1023.1257208765859 283.3 L 1023.8465974625144 283.3 L 1024.5674740484428 285.1 L 1025.2883506343715 285.1 L 1026.0092272202999 296.8 L 1026.7301038062283 296.8 L 1027.450980392157 299.4 L 1028.1718569780853 299.4 L 1028.8927335640137 280 L 1029.6136101499424 280 L 1030.3344867358708 280.2 L 1031.0553633217992 280.2 L 1031.7762399077278 268.8 L 1032.4971164936562 268.8 L 1033.2179930795846 260.9 L 1033.9388696655133 260.9 L 1034.6597462514417 278 L 1035.38062283737 278 L 1036.1014994232987 286.2 L 1036.8223760092271 286.2 L 1037.5432525951558 307.4 L 1038.2641291810842 307.4 L 1038.9850057670126 316.5 L 1039.7058823529412 316.5 L 1049.7058823529412 316.5" class="highcharts-tracker highcharts-tracker" stroke-linejoin="round" visibility="visible" stroke-opacity="0.0001" stroke="rgb(192,192,192)" stroke-width="21" zIndex="2" style=""></path></g></g><g class="highcharts-axis-labels" zIndex="7"><text x="70.29411764705883" y="386" style="font-family:&quot;Lucida Grande&quot;, &quot;Lucida Sans Unicode&quot;, Verdana, Arial, Helvetica, sans-serif;font-size:11px;color:#666;cursor:default;line-height:14px;fill:#666;" text-anchor="middle" opacity="1"><tspan x="70.29411764705883">0</tspan></text><text x="142.3817762399077" y="386" style="font-family:&quot;Lucida Grande&quot;, &quot;Lucida Sans Unicode&quot;, Verdana, Arial, Helvetica, sans-serif;font-size:11px;color:#666;cursor:default;line-height:14px;fill:#666;" text-anchor="middle" opacity="1"><tspan x="142.3817762399077">100</tspan></text><text x="214.46943483275663" y="386" style="font-family:&quot;Lucida Grande&quot;, &quot;Lucida Sans Unicode&quot;, Verdana, Arial, Helvetica, sans-serif;font-size:11px;color:#666;cursor:default;line-height:14px;fill:#666;" text-anchor="middle" opacity="1"><tspan x="214.46943483275663">200</tspan></text><text x="286.5570934256055" y="386" style="font-family:&quot;Lucida Grande&quot;, &quot;Lucida Sans Unicode&quot;, Verdana, Arial, Helvetica, sans-serif;font-size:11px;color:#666;cursor:default;line-height:14px;fill:#666;" text-anchor="middle" opacity="1"><tspan x="286.5570934256055">300</tspan></text><text x="358.6447520184544" y="386" style="font-family:&quot;Lucida Grande&quot;, &quot;Lucida Sans Unicode&quot;, Verdana, Arial, Helvetica, sans-serif;font-size:11px;color:#666;cursor:default;line-height:14px;fill:#666;" text-anchor="middle" opacity="1"><tspan x="358.6447520184544">400</tspan></text><text x="430.7324106113033" y="386" style="font-family:&quot;Lucida Grande&quot;, &quot;Lucida Sans Unicode&quot;, Verdana, Arial, Helvetica, sans-serif;font-size:11px;color:#666;cursor:default;line-height:14px;fill:#666;" text-anchor="middle" opacity="1"><tspan x="430.7324106113033">500</tspan></text><text x="502.8200692041522" y="386" style="font-family:&quot;Lucida Grande&quot;, &quot;Lucida Sans Unicode&quot;, Verdana, Arial, Helvetica, sans-serif;font-size:11px;color:#666;cursor:default;line-height:14px;fill:#666;" text-anchor="middle" opacity="1"><tspan x="502.8200692041522">600</tspan></text><text x="574.9077277970011" y="386" style="font-family:&quot;Lucida Grande&quot;, &quot;Lucida Sans Unicode&quot;, Verdana, Arial, Helvetica, sans-serif;font-size:11px;color:#666;cursor:default;line-height:14px;fill:#666;" text-anchor="middle" opacity="1"><tspan x="574.9077277970011">700</tspan></text><text x="646.9953863898501" y="386" style="font-family:&quot;Lucida Grande&quot;, &quot;Lucida Sans Unicode&quot;, Verdana, Arial, Helvetica, sans-serif;font-size:11px;color:#666;cursor:default;line-height:14px;fill:#666;" text-anchor="middle" opacity="1"><tspan x="646.9953863898501">800</tspan></text><text x="719.0830449826989" y="386" style="font-family:&quot;Lucida Grande&quot;, &quot;Lucida Sans Unicode&quot;, Verdana, Arial, Helvetica, sans-serif;font-size:11px;color:#666;cursor:default;line-height:14px;fill:#666;" text-anchor="middle" opacity="1"><tspan x="719.0830449826989">900</tspan></text><text x="791.1707035755478" y="386" style="font-family:&quot;Lucida Grande&quot;, &quot;Lucida Sans Unicode&quot;, Verdana, Arial, Helvetica, sans-serif;font-size:11px;color:#666;cursor:default;line-height:14px;fill:#666;" text-anchor="middle" opacity="1"><tspan x="791.1707035755478">1,000</tspan></text><text x="863.2583621683967" y="386" style="font-family:&quot;Lucida Grande&quot;, &quot;Lucida Sans Unicode&quot;, Verdana, Arial, Helvetica, sans-serif;font-size:11px;color:#666;cursor:default;line-height:14px;fill:#666;" text-anchor="middle" opacity="1"><tspan x="863.2583621683967">1,100</tspan></text><text x="935.3460207612457" y="386" style="font-family:&quot;Lucida Grande&quot;, &quot;Lucida Sans Unicode&quot;, Verdana, Arial, Helvetica, sans-serif;font-size:11px;color:#666;cursor:default;line-height:14px;fill:#666;" text-anchor="middle" opacity="1"><tspan x="935.3460207612457">1,200</tspan></text><text x="1007.4336793540946" y="386" style="font-family:&quot;Lucida Grande&quot;, &quot;Lucida Sans Unicode&quot;, Verdana, Arial, Helvetica, sans-serif;font-size:11px;color:#666;cursor:default;line-height:14px;fill:#666;" text-anchor="middle" opacity="1"><tspan x="1007.4336793540946">1,300</tspan></text><text x="1079.5213379469433" y="386" style="font-family:&quot;Lucida Grande&quot;, &quot;Lucida Sans Unicode&quot;, Verdana, Arial, Helvetica, sans-serif;font-size:11px;color:#666;cursor:default;line-height:14px;fill:#666;" text-anchor="middle" opacity="1"><tspan x="1079.5213379469433">1,400</tspan></text></g><g class="highcharts-axis-labels" zIndex="7"><text x="52" y="378.115625" style="font-family:&quot;Lucida Grande&quot;, &quot;Lucida Sans Unicode&quot;, Verdana, Arial, Helvetica, sans-serif;font-size:11px;width:505px;color:#666;cursor:default;line-height:14px;fill:#666;" text-anchor="end" opacity="1"><tspan x="52">0</tspan></text><text x="52" y="317.78229166666665" style="font-family:&quot;Lucida Grande&quot;, &quot;Lucida Sans Unicode&quot;, Verdana, Arial, Helvetica, sans-serif;font-size:11px;width:505px;color:#666;cursor:default;line-height:14px;fill:#666;" text-anchor="end" opacity="1"><tspan x="52">0.1</tspan></text><text x="52" y="257.44895833333334" style="font-family:&quot;Lucida Grande&quot;, &quot;Lucida Sans Unicode&quot;, Verdana, Arial, Helvetica, sans-serif;font-size:11px;width:505px;color:#666;cursor:default;line-height:14px;fill:#666;" text-anchor="end" opacity="1"><tspan x="52">0.2</tspan></text><text x="52" y="197.115625" style="font-family:&quot;Lucida Grande&quot;, &quot;Lucida Sans Unicode&quot;, Verdana, Arial, Helvetica, sans-serif;font-size:11px;width:505px;color:#666;cursor:default;line-height:14px;fill:#666;" text-anchor="end" opacity="1"><tspan x="52">0.3</tspan></text><text x="52" y="136.78229166666662" style="font-family:&quot;Lucida Grande&quot;, &quot;Lucida Sans Unicode&quot;, Verdana, Arial, Helvetica, sans-serif;font-size:11px;width:505px;color:#666;cursor:default;line-height:14px;fill:#666;" text-anchor="end" opacity="1"><tspan x="52">0.4</tspan></text><text x="52" y="76.44895833333331" style="font-family:&quot;Lucida Grande&quot;, &quot;Lucida Sans Unicode&quot;, Verdana, Arial, Helvetica, sans-serif;font-size:11px;width:505px;color:#666;cursor:default;line-height:14px;fill:#666;" text-anchor="end" opacity="1"><tspan x="52">0.5</tspan></text><text x="52" y="16.115625" style="font-family:&quot;Lucida Grande&quot;, &quot;Lucida Sans Unicode&quot;, Verdana, Arial, Helvetica, sans-serif;font-size:11px;width:505px;color:#666;cursor:default;line-height:14px;fill:#666;" text-anchor="end" opacity="1"><tspan x="52">0.6</tspan></text></g><g class="highcharts-tooltip" zIndex="8" style="cursor:default;padding:0;white-space:nowrap;" visibility="hidden" transform="translate(91,268)" opacity="0"><rect rx="3" ry="3" fill="none" x="0.5" y="0.5" width="314" height="44.203125" fill-opacity="0.85" isShadow="true" stroke="black" stroke-opacity="0.049999999999999996" stroke-width="5" transform="translate(1, 1)"></rect><rect rx="3" ry="3" fill="none" x="0.5" y="0.5" width="314" height="44.203125" fill-opacity="0.85" isShadow="true" stroke="black" stroke-opacity="0.09999999999999999" stroke-width="3" transform="translate(1, 1)"></rect><rect rx="3" ry="3" fill="none" x="0.5" y="0.5" width="314" height="44.203125" fill-opacity="0.85" isShadow="true" stroke="black" stroke-opacity="0.15" stroke-width="1" transform="translate(1, 1)"></rect><rect rx="3" ry="3" fill="rgb(255,255,255)" x="0.5" y="0.5" width="314" height="44.203125" fill-opacity="0.85" stroke="#c42525" stroke-width="1" anchorX="-11.762050634601309" anchorY="29.008056640625"></rect><text x="8" y="21" style="font-family:&quot;Lucida Grande&quot;, &quot;Lucida Sans Unicode&quot;, Verdana, Arial, Helvetica, sans-serif;font-size:12px;color:#333333;fill:#333333;" zIndex="1"><tspan style="font-size: 10px" x="8">11</tspan><tspan style="fill:#c42525" x="8" dy="16">exp9 localStorage 1MB w</tspan><tspan dx="0">: </tspan><tspan style="font-weight:bold" dx="0">0.12417792019531548</tspan></text></g><text x="1110" y="395" style="font-family:&quot;Lucida Grande&quot;, &quot;Lucida Sans Unicode&quot;, Verdana, Arial, Helvetica, sans-serif;font-size:9px;cursor:pointer;color:#909090;fill:#909090;" text-anchor="end" zIndex="8"><tspan x="1110">Highcharts.com</tspan></text></svg>