<svg xmlns="http://www.w3.org/2000/svg" version="1.1" width="1119" height="400"><desc>Created with Highcharts 3.0.2</desc><defs><clipPath id="highcharts-1"><rect fill="none" x="0" y="0" width="1049" height="361"></rect></clipPath></defs><rect rx="5" ry="5" fill="#FFFFFF" x="0" y="0" width="1119" height="400"></rect><g class="highcharts-grid" zIndex="1"></g><g class="highcharts-grid" zIndex="1"><path fill="none" d="M 60 312.5 L 1109 312.5" stroke="#C0C0C0" stroke-width="1" zIndex="1" opacity="1"></path><path fill="none" d="M 60 251.5 L 1109 251.5" stroke="#C0C0C0" stroke-width="1" zIndex="1" opacity="1"></path><path fill="none" d="M 60 191.5 L 1109 191.5" stroke="#C0C0C0" stroke-width="1" zIndex="1" opacity="1"></path><path fill="none" d="M 60 131.5 L 1109 131.5" stroke="#C0C0C0" stroke-width="1" zIndex="1" opacity="1"></path><path fill="none" d="M 60 70.5 L 1109 70.5" stroke="#C0C0C0" stroke-width="1" zIndex="1" opacity="1"></path><path fill="none" d="M 60 10.5 L 1109 10.5" stroke="#C0C0C0" stroke-width="1" zIndex="1" opacity="1"></path><path fill="none" d="M 60 371.5 L 1109 371.5" stroke="#C0C0C0" stroke-width="1" zIndex="1" opacity="1"></path></g><g class="highcharts-axis" zIndex="2"><path fill="none" d="M 148.5 372 L 148.5 377" stroke="#C0D0E0" stroke-width="1" opacity="1"></path><path fill="none" d="M 226.5 372 L 226.5 377" stroke="#C0D0E0" stroke-width="1" opacity="1"></path><path fill="none" d="M 304.5 372 L 304.5 377" stroke="#C0D0E0" stroke-width="1" opacity="1"></path><path fill="none" d="M 382.5 372 L 382.5 377" stroke="#C0D0E0" stroke-width="1" opacity="1"></path><path fill="none" d="M 461.5 372 L 461.5 377" stroke="#C0D0E0" stroke-width="1" opacity="1"></path><path fill="none" d="M 539.5 372 L 539.5 377" stroke="#C0D0E0" stroke-width="1" opacity="1"></path><path fill="none" d="M 617.5 372 L 617.5 377" stroke="#C0D0E0" stroke-width="1" opacity="1"></path><path fill="none" d="M 695.5 372 L 695.5 377" stroke="#C0D0E0" stroke-width="1" opacity="1"></path><path fill="none" d="M 774.5 372 L 774.5 377" stroke="#C0D0E0" stroke-width="1" opacity="1"></path><path fill="none" d="M 852.5 372 L 852.5 377" stroke="#C0D0E0" stroke-width="1" opacity="1"></path><path fill="none" d="M 930.5 372 L 930.5 377" stroke="#C0D0E0" stroke-width="1" opacity="1"></path><path fill="none" d="M 1008.5 372 L 1008.5 377" stroke="#C0D0E0" stroke-width="1" opacity="1"></path><path fill="none" d="M 1087.5 372 L 1087.5 377" stroke="#C0D0E0" stroke-width="1" opacity="1"></path><path fill="none" d="M 69.5 372 L 69.5 377" stroke="#C0D0E0" stroke-width="1" opacity="1"></path><path fill="none" d="M 60 371.5 L 1109 371.5" stroke="#C0D0E0" stroke-width="1" zIndex="7" visibility="visible"></path></g><g class="highcharts-axis" zIndex="2"><text x="24.59375" y="191" style="font-family:&quot;Lucida Grande&quot;, &quot;Lucida Sans Unicode&quot;, Verdana, Arial, Helvetica, sans-serif;font-size:12px;color:#4d759e;font-weight:bold;fill:#4d759e;" zIndex="7" text-anchor="middle" transform="translate(0,0) rotate(270 24.59375 191)" visibility="visible"><tspan x="24.59375">Amperage</tspan></text></g><g class="highcharts-series-group" zIndex="3"><g class="highcharts-series" visibility="visible" zIndex="0.1" transform="translate(60,10) scale(1 1)" clip-path="url(#highcharts-1)"><path fill="none" d="M 10.284313725490195 272.8 L 11.06698600292476 265.2 L 11.849658280359327 265.2 L 12.632330557793892 137.1 L 13.415002835228458 137.1 L 14.197675112663024 30.5 L 14.98034739009759 30.5 L 15.763019667532156 26.1 L 16.54569194496672 26.1 L 17.328364222401287 27.3 L 18.11103649983585 27.3 L 18.89370877727042 40.5 L 19.676381054704983 40.5 L 20.45905333213955 181.8 L 21.241725609574114 181.8 L 22.024397887008682 271.6 L 22.807070164443246 271.6 L 23.589742441877814 272.7 L 24.372414719312378 212.1 L 25.155086996746945 212.1 L 25.93775927418151 52.1 L 26.720431551616077 52.1 L 27.50310382905064 27.1 L 28.28577610648521 27.1 L 29.068448383919772 27.4 L 29.85112066135434 27.4 L 30.633792938788904 28 L 31.41646521622347 28 L 32.199137493658036 108.4 L 32.9818097710926 246.6 L 33.76448204852717 273.1 L 34.547154325961735 273.1 L 35.3298266033963 258.3 L 36.11249888083086 258.3 L 36.895171158265434 111.1 L 37.6778434357 111.1 L 38.46051571313456 27.4 L 39.243187990569126 27.4 L 40.0258602680037 27.4 L 40.80853254543826 26.9 L 41.591204822872825 26.9 L 42.37387710030739 59.4 L 43.15654937774196 59.4 L 43.939221655176524 212 L 44.72189393261109 212 L 45.50456621004565 217.4 L 46.287238487480224 217.4 L 47.06991076491479 224.5 L 47.85258304234935 224.5 L 48.635255319783916 188.5 L 49.41792759721849 188.5 L 50.20059987465305 41.4 L 50.983272152087615 41.4 L 51.76594442952218 27.7 L 52.54861670695675 27.7 L 53.331288984391314 26.3 L 54.11396126182588 26.3 L 54.89663353926044 30.6 L 55.67930581669501 30.6 L 56.46197809412958 139.2 L 57.24465037156414 139.2 L 58.027322648998705 264.9 L 58.809994926433276 264.9 L 59.59266720386784 272.9 L 60.375339481302404 272.9 L 61.15801175873697 246.7 L 61.94068403617154 246.7 L 62.723356313606104 86 L 63.50602859104067 86 L 64.28870086847523 27.4 L 65.0713731459098 27.4 L 65.85404542334436 26.8 L 66.63671770077893 26.8 L 67.4193899782135 26.9 L 68.20206225564806 26.9 L 68.98473453308263 72.8 L 69.7674068105172 72.8 L 70.55007908795176 224.5 L 71.33275136538633 271.2 L 72.11542364282089 269.8 L 72.89809592025546 269.8 L 73.68076819769003 164.3 L 74.46344047512459 34.1 L 75.24611275255916 34.1 L 76.02878502999373 26.7 L 76.81145730742828 26.7 L 77.59412958486286 26.5 L 78.37680186229741 26.5 L 79.15947413973198 38.9 L 79.94214641716655 38.9 L 80.72481869460111 179.1 L 81.50749097203568 179.1 L 82.29016324947025 270.2 L 83.07283552690481 270.2 L 83.85550780433938 273.1 L 84.63818008177394 273.1 L 85.42085235920851 230.6 L 86.20352463664308 230.6 L 86.98619691407764 65.4 L 87.76886919151221 65.4 L 88.55154146894678 27.1 L 89.33421374638134 27.1 L 90.11688602381591 26.1 L 90.89955830125047 26.1 L 91.68223057868504 27.6 L 92.46490285611961 27.6 L 93.24757513355416 100 L 94.03024741098874 100 L 94.8129196884233 253 L 95.59559196585786 253 L 96.37826424329243 272.3 L 97.16093652072699 272.3 L 97.94360879816156 265.1 L 98.72628107559613 265.1 L 99.50895335303069 133.9 L 100.29162563046525 133.9 L 101.07429790789982 30.1 L 101.85697018533438 30.1 L 102.63964246276895 26.5 L 103.42231474020352 26.5 L 104.20498701763808 27.3 L 104.98765929507265 27.3 L 105.77033157250722 53.1 L 106.55300384994177 198 L 107.33567612737635 198 L 108.1183484048109 269 L 108.90102068224547 269 L 109.68369295968004 209.9 L 110.4663652371146 209.9 L 111.24903751454917 50.4 L 112.03170979198374 50.4 L 112.8143820694183 26.7 L 113.59705434685287 27.3 L 114.37972662428743 27.3 L 115.162398901722 28.3 L 115.94507117915657 28.3 L 116.72774345659113 114.8 L 117.5104157340257 114.8 L 118.29308801146027 192.6 L 119.07576028889483 192.6 L 119.8584325663294 232.2 L 120.64110484376396 232.2 L 121.42377712119853 255.9 L 122.2064493986331 255.9 L 122.98912167606765 108.6 L 123.77179395350223 108.6 L 124.5544662309368 27.6 L 125.33713850837135 27.6 L 126.11981078580592 26.7 L 126.90248306324048 26.7 L 127.68515534067505 26.3 L 128.46782761810962 26.3 L 129.25049989554418 30.5 L 130.03317217297874 30.5 L 130.81584445041332 107.1 L 131.59851672784788 107.1 L 132.38118900528244 138.3 L 133.16386128271702 138.3 L 133.94653356015158 83.9 L 134.72920583758614 83.9 L 135.51187811502072 103.5 L 136.29455039245528 103.5 L 137.07722266988984 33.2 L 137.85989494732442 33.2 L 138.64256722475898 27.4 L 139.42523950219353 27.4 L 140.20791177962812 26.2 L 140.99058405706268 26.2 L 141.77325633449723 32.5 L 142.5559286119318 32.5 L 143.33860088936638 62.2 L 144.12127316680093 62.2 L 144.9039454442355 100.2 L 145.68661772167007 100.2 L 146.46928999910463 247.4 L 147.2519622765392 247.4 L 148.03463455397377 82.7 L 148.81730683140833 82.7 L 149.5999791088429 26.5 L 150.38265138627747 27.3 L 151.16532366371203 27.3 L 151.9479959411466 26.6 L 152.73066821858117 26.6 L 153.51334049601573 76.6 L 154.2960127734503 76.6 L 155.07868505088484 235.8 L 155.86135732831943 235.8 L 156.64402960575399 259.6 L 157.42670188318854 259.6 L 158.20937416062313 254.9 L 158.99204643805768 254.9 L 159.77471871549224 157.2 L 160.55739099292683 157.2 L 161.34006327036138 33.9 L 162.12273554779594 33.9 L 162.90540782523053 26.5 L 163.68808010266508 26.5 L 164.47075238009964 27.1 L 165.25342465753423 27.1 L 166.03609693496878 27.1 L 166.81876921240334 27.1 L 167.6014414898379 102.4 L 168.38411376727248 102.4 L 169.16678604470704 252.9 L 169.9494583221416 252.9 L 170.73213059957618 271.1 L 171.51480287701074 271.1 L 172.2974751544453 228 L 173.08014743187988 228 L 173.86281970931444 65 L 174.645491986749 65 L 175.42816426418358 26.9 L 176.21083654161814 26.9 L 176.9935088190527 26.9 L 177.77618109648728 26.9 L 178.55885337392183 27.4 L 179.3415256513564 27.4 L 180.12419792879095 104.7 L 180.90687020622553 104.7 L 181.6895424836601 253.7 L 182.47221476109465 253.7 L 183.25488703852923 271.6 L 184.0375593159638 271.6 L 184.82023159339835 262.3 L 185.60290387083293 262.3 L 186.3855761482675 29.1 L 187.16824842570205 29.1 L 187.95092070313663 26.6 L 188.7335929805712 27.1 L 189.51626525800575 27.1 L 190.29893753544033 46.2 L 191.0816098128749 46.2 L 191.86428209030944 145.3 L 192.646954367744 145.3 L 193.4296266451786 244.8 L 194.21229892261314 244.8 L 194.9949712000477 262.4 L 195.7776434774823 262.4 L 196.56031575491684 207.8 L 197.3429880323514 207.8 L 198.12566030978599 50.3 L 198.90833258722054 50.3 L 199.6910048646551 26.5 L 200.47367714208968 26.5 L 201.25634941952424 27.4 L 202.0390216969588 27.4 L 202.82169397439338 26.3 L 203.60436625182794 26.3 L 204.3870385292625 79.5 L 205.16971080669705 79.5 L 205.95238308413164 211.6 L 206.7350553615662 211.6 L 207.51772763900075 243.5 L 208.30039991643534 243.5 L 209.0830721938699 254.9 L 209.86574447130445 254.9 L 210.64841674873904 105.1 L 211.4310890261736 26.8 L 212.21376130360815 26.8 L 212.99643358104274 27.4 L 213.7791058584773 27.4 L 214.56177813591185 27.1 L 215.34445041334644 27.1 L 216.127122690781 65.1 L 216.90979496821555 65.1 L 217.6924672456501 228.6 L 218.4751395230847 228.6 L 219.25781180051925 272.6 L 220.0404840779538 272.6 L 220.8231563553884 270.4 L 221.60582863282295 270.4 L 222.3885009102575 182.5 L 223.1711731876921 182.5 L 223.95384546512665 39.3 L 224.7365177425612 26.3 L 225.5191900199958 27.4 L 226.30186229743035 27.4 L 227.0845345748649 33.1 L 227.8672068522995 33.1 L 228.64987912973405 158.2 L 229.4325514071686 158.2 L 230.21522368460316 267.9 L 230.99789596203775 267.9 L 231.7805682394723 272.8 L 232.56324051690686 272.8 L 233.34591279434144 243.6 L 234.128585071776 243.6 L 234.91125734921056 81.6 L 235.69392962664514 81.6 L 236.4766019040797 26.7 L 237.25927418151426 26.7 L 238.04194645894884 26.9 L 238.8246187363834 26.9 L 239.60729101381796 27.3 L 240.38996329125254 37.1 L 241.1726355686871 37.1 L 241.95530784612166 174.2 L 242.7379801235562 174.2 L 243.5206524009908 269.7 L 244.30332467842535 269.7 L 245.0859969558599 268.3 L 245.8686692332945 268.3 L 246.65134151072905 155.1 L 247.4340137881636 155.1 L 248.2166860655982 32.3 L 248.99935834303275 32.3 L 249.7820306204673 26.8 L 250.5647028979019 26.8 L 251.34737517533645 27 L 252.130047452771 27 L 252.9127197302056 33 L 253.69539200764015 33 L 254.4780642850747 143.9 L 255.26073656250927 143.9 L 256.0434088399438 262.5 L 256.8260811173784 262.5 L 257.608753394813 271.7 L 258.3914256722475 271.7 L 259.1740979496821 226.9 L 259.9567702271167 226.9 L 260.7394425045512 61.9 L 261.5221147819858 61.9 L 262.3047870594204 26.7 L 263.0874593368549 89.9 L 263.8701316142895 246.6 L 264.6528038917241 246.6 L 265.4354761691586 260.9 L 266.2181484465932 260.9 L 267.0008207240278 256.4 L 267.7834930014623 256.4 L 268.5661652788969 127.7 L 269.3488375563315 127.7 L 270.131509833766 29.2 L 270.9141821112006 29.2 L 271.6968543886352 26.4 L 272.4795266660697 26.4 L 273.2621989435043 27.4 L 274.04487122093883 27.4 L 274.8275434983734 43.9 L 275.610215775808 181.7 L 276.39288805324253 181.7 L 277.1755603306771 248.5 L 277.9582326081117 248.5 L 278.74090488554623 258.6 L 279.5235771629808 258.6 L 280.3062494404154 204.5 L 281.0889217178499 204.5 L 281.8715939952845 48.8 L 282.6542662727191 48.8 L 283.4369385501536 26.2 L 284.2196108275882 26.2 L 285.0022831050228 27.4 L 285.7849553824573 27.4 L 286.5676276598919 26.7 L 287.3502999373265 26.7 L 288.132972214761 80.9 L 288.9156444921956 80.9 L 289.6983167696302 235.9 L 290.4809890470647 235.9 L 291.2636613244993 267.6 L 292.0463336019339 267.6 L 292.8290058793684 245.8 L 293.611678156803 245.8 L 294.3943504342376 101.3 L 295.1770227116721 101.3 L 295.9596949891067 26.7 L 296.7423672665413 26.7 L 297.5250395439758 26.9 L 298.3077118214104 26.9 L 299.09038409884494 27.1 L 299.8730563762795 27.1 L 300.6557286537141 60.3 L 301.43840093114864 213.8 L 302.2210732085832 272.1 L 303.0037454860178 272.1 L 303.78641776345233 256.3 L 304.5690900408869 256.3 L 305.3517623183215 170.6 L 306.13443459575603 38.9 L 306.9171068731906 38.9 L 307.6997791506252 26.7 L 308.48245142805973 26.7 L 309.2651237054943 26.7 L 310.0477959829289 26.7 L 310.83046826036343 34.2 L 311.613140537798 34.2 L 312.3958128152326 104.2 L 313.17848509266713 104.2 L 313.9611573701017 89 L 314.7438296475363 89 L 315.52650192497083 224.9 L 316.3091742024054 224.9 L 317.09184647984 242.5 L 317.87451875727453 242.5 L 318.6571910347091 79.5 L 319.4398633121437 79.5 L 320.22253558957823 26.4 L 321.0052078670128 26.4 L 321.7878801444474 27.8 L 322.5705524218819 27.8 L 323.3532246993165 26.4 L 324.13589697675104 26.4 L 324.9185692541856 83.4 L 325.7012415316202 83.4 L 326.48391380905474 243.6 L 327.2665860864893 243.6 L 328.0492583639239 272.3 L 328.83193064135844 272.3 L 329.614602918793 268 L 330.3972751962276 268 L 331.17994747366214 153.8 L 331.9626197510967 153.8 L 332.7452920285313 32.5 L 333.52796430596584 32.5 L 334.3106365834004 26.9 L 335.093308860835 26.9 L 335.87598113826954 26.5 L 336.6586534157041 26.5 L 337.4413256931387 34.7 L 338.22399797057324 34.7 L 339.0066702480078 162.8 L 339.7893425254424 269 L 340.57201480287694 273.2 L 341.3546870803115 225.7 L 342.1373593577461 225.7 L 342.92003163518064 60.8 L 343.7027039126152 60.8 L 344.4853761900498 27 L 345.26804846748433 27 L 346.0507207449189 27.6 L 346.8333930223535 27.6 L 347.61606529978803 27.4 L 348.3987375772226 27.4 L 349.18140985465715 112.5 L 349.96408213209173 112.5 L 350.7467544095263 257.8 L 351.52942668696085 257.8 L 352.31209896439543 272.8 L 353.09477124183 272.8 L 353.87744351926455 263.3 L 354.66011579669913 263.3 L 355.4427880741337 126.5 L 356.22546035156824 126.5 L 357.00813262900283 29 L 357.7908049064374 29 L 358.57347718387194 27.1 L 359.35614946130653 27.1 L 360.1388217387411 27.4 L 360.92149401617564 50.8 L 361.70416629361023 50.8 L 362.4868385710448 208.1 L 363.26951084847934 208.1 L 364.0521831259139 272.3 L 364.8348554033485 272.3 L 365.61752768078304 272.2 L 366.4001999582176 272.2 L 367.1828722356522 202.5 L 367.96554451308674 202.5 L 368.7482167905213 47.3 L 369.5308890679559 47.3 L 370.31356134539044 26.8 L 371.096233622825 26.8 L 371.8789059002596 27.4 L 372.66157817769414 27.4 L 373.4442504551287 29.7 L 374.22692273256325 29.7 L 375.00959500999784 136.1 L 375.7922672874324 136.1 L 376.57493956486695 265.7 L 377.35761184230154 265.7 L 378.1402841197361 254.1 L 378.92295639717065 254.1 L 379.70562867460524 99.4 L 380.4883009520398 99.4 L 381.27097322947435 27.4 L 382.05364550690894 27.4 L 382.8363177843435 26.7 L 383.61899006177805 26.7 L 384.40166233921263 26.9 L 385.1843346166472 50.9 L 385.96700689408175 50.9 L 386.74967917151633 207 L 387.5323514489509 207 L 388.31502372638545 233.1 L 389.09769600382003 233.1 L 389.8803682812546 197.3 L 390.66304055868915 197.3 L 391.44571283612373 173.7 L 392.2283851135583 173.7 L 393.01105739099285 37.7 L 393.79372966842743 37.7 L 394.576401945862 27.1 L 395.35907422329655 27.1 L 396.14174650073113 26.7 L 396.9244187781657 26.7 L 397.70709105560024 34.3 L 398.48976333303483 34.3 L 399.27243561046936 150.4 L 400.05510788790394 150.4 L 400.83778016533853 262.3 L 401.62045244277306 262.3 L 402.40312472020764 273.3 L 403.1857969976422 273.3 L 403.96846927507676 240.3 L 404.75114155251134 240.3 L 405.5338138299459 76.5 L 406.31648610738046 76.5 L 407.09915838481504 27.3 L 407.8818306622496 27.3 L 408.66450293968416 26.8 L 409.44717521711874 26.8 L 410.2298474945533 27 L 411.01251977198785 27 L 411.79519204942244 73.5 L 412.577864326857 73.5 L 413.36053660429155 235.9 L 414.14320888172614 235.9 L 414.9258811591607 270.8 L 415.70855343659525 270.8 L 416.49122571402984 26.6 L 417.2738979914644 26.6 L 418.05657026889895 27 L 418.83924254633354 27 L 419.6219148237681 44.7 L 420.40458710120265 44.7 L 421.18725937863724 194.4 L 421.9699316560718 194.4 L 422.75260393350635 267.9 L 423.53527621094094 267.9 L 424.31794848837546 247.4 L 425.10062076581005 247.4 L 425.88329304324463 217.7 L 426.66596532067916 217.7 L 427.44863759811375 58.8 L 428.23130987554833 58.8 L 429.01398215298286 27 L 429.79665443041745 27 L 430.57932670785203 26.7 L 431.36199898528656 26.7 L 432.14467126272115 27.4 L 432.92734354015573 27.4 L 433.71001581759026 37.9 L 434.49268809502485 37.9 L 435.27536037245943 159.1 L 436.05803264989396 159.1 L 436.84070492732855 158 L 437.62337720476313 158 L 438.40604948219766 98.6 L 439.18872175963224 98.6 L 439.97139403706683 99.1 L 440.75406631450136 28.7 L 441.53673859193594 28.7 L 442.31941086937053 27.4 L 443.10208314680506 27.4 L 443.88475542423964 27 L 444.6674277016742 27 L 445.45009997910876 28.1 L 446.23277225654334 28.1 L 447.0154445339779 100.5 L 447.79811681141246 100.5 L 448.58078908884704 252.8 L 449.36346136628157 252.8 L 450.14613364371615 271.3 L 450.92880592115074 271.3 L 451.71147819858527 200.5 L 452.49415047601985 200.5 L 453.27682275345444 45.4 L 454.05949503088897 45.4 L 454.84216730832355 26.8 L 455.62483958575814 29 L 456.40751186319267 29 L 457.19018414062725 132.8 L 457.97285641806184 132.8 L 458.75552869549637 263.6 L 459.53820097293095 263.6 L 460.32087325036554 271.7 L 461.10354552780007 271.7 L 461.88621780523465 252.5 L 462.66889008266924 252.5 L 463.45156236010376 98.6 L 464.23423463753835 98.6 L 465.01690691497294 27 L 465.79957919240746 27 L 466.58225146984205 26.6 L 467.36492374727663 26.6 L 468.14759602471116 26.8 L 468.93026830214575 26.8 L 469.71294057958033 67.9 L 470.49561285701486 67.9 L 471.27828513444945 219.6 L 472.06095741188403 219.6 L 472.84362968931856 271.3 L 473.62630196675315 271.3 L 474.4089742441877 251.7 L 475.19164652162226 251.7 L 475.97431879905685 154.9 L 476.7569910764914 154.9 L 477.53966335392596 37.1 L 478.32233563136054 37.1 L 479.1050079087951 26.3 L 479.88768018622966 26.3 L 480.67035246366424 27.6 L 481.4530247410988 27.6 L 482.23569701853336 32.2 L 483.01836929596794 32.2 L 483.8010415734025 152.8 L 484.58371385083706 152.8 L 485.36638612827164 267.3 L 486.14905840570617 267.3 L 486.93173068314076 272.8 L 487.71440296057534 272.8 L 488.49707523800987 239.5 L 489.27974751544446 239.5 L 490.06241979287904 75.6 L 490.84509207031357 75.6 L 491.62776434774815 27 L 492.41043662518274 27 L 493.19310890261727 26.8 L 493.97578118005185 90.7 L 494.75845345748644 90.7 L 495.54112573492097 247.9 L 496.32379801235555 247.9 L 497.10647028979014 272.5 L 497.88914256722467 272.5 L 498.67181484465925 267.3 L 499.4544871220938 267.3 L 500.23715939952837 147.2 L 501.01983167696295 147.2 L 501.8025039543975 31.6 L 502.58517623183207 31.6 L 503.36784850926665 27.4 L 504.1505207867012 27.4 L 504.93319306413576 26.8 L 505.71586534157035 26.8 L 506.4985376190049 42.6 L 507.28120989643946 42.6 L 508.06388217387405 181.1 L 508.8465544513086 181.1 L 509.62922672874316 268.4 L 510.41189900617775 268.4 L 511.1945712836123 272.4 L 511.97724356104686 272.4 L 512.7599158384814 219.8 L 513.542588115916 219.8 L 514.3252603933505 57.5 L 515.1079326707851 57.5 L 515.8906049482197 26.4 L 516.6732772256543 26.4 L 517.4559495030888 26.7 L 518.2386217805234 26.7 L 519.0212940579579 28.8 L 519.8039663353925 28.8 L 520.5866386128271 123.1 L 521.3693108902617 123.1 L 522.1519831676962 260.9 L 522.9346554451308 260.9 L 523.7173277225653 272 L 524.4999999999999 260.8 L 525.2826722774345 260.8 L 526.0653445548691 120.1 L 526.8480168323036 120.1 L 527.6306891097382 28.2 L 528.4133613871727 28.2 L 529.1960336646073 27.4 L 529.9787059420419 27.4 L 530.7613782194765 26.6 L 531.544050496911 125.6 L 532.3267227743456 125.6 L 533.1093950517801 262.5 L 533.8920673292147 262.5 L 534.6747396066493 271.7 L 535.4574118840839 271.7 L 536.2400841615184 196.9 L 537.0227564389529 196.9 L 537.8054287163875 44.1 L 538.5881009938221 44.1 L 539.3707732712567 27.4 L 540.1534455486913 27.4 L 540.9361178261258 26.6 L 541.7187901035603 26.6 L 542.5014623809949 28.6 L 543.2841346584295 28.6 L 544.0668069358641 107.2 L 544.8494792132987 107.2 L 545.6321514907332 253.3 L 546.4148237681677 253.3 L 547.1974960456023 263.8 L 547.9801683230369 263.8 L 548.7628406004715 202 L 549.545512877906 202 L 550.3281851553406 83.4 L 551.1108574327751 26.9 L 551.8935297102097 26.9 L 552.6762019876443 27.4 L 553.4588742650789 27.4 L 554.2415465425134 26.6 L 555.024218819948 26.6 L 555.8068910973825 56.6 L 556.5895633748171 56.6 L 557.3722356522517 217.7 L 558.1549079296863 217.7 L 558.9375802071208 261.3 L 559.7202524845554 261.3 L 560.5029247619899 261.3 L 561.2855970394245 261.3 L 562.0682693168591 172.5 L 562.8509415942937 172.5 L 563.6336138717282 35.6 L 564.4162861491627 35.6 L 565.1989584265973 27.3 L 565.9816307040319 27.3 L 566.7643029814665 27 L 567.546975258901 27 L 568.3296475363356 27.1 L 569.1123198137701 27.1 L 569.8949920912047 215.4 L 570.6776643686393 215.4 L 571.4603366460739 73.4 L 572.2430089235085 73.4 L 573.025681200943 27.1 L 573.8083534783775 27.1 L 574.5910257558121 26.7 L 575.3736980332467 26.7 L 576.1563703106813 27.8 L 576.9390425881159 27.8 L 577.7217148655504 92.1 L 578.5043871429849 92.1 L 579.2870594204195 240.6 L 580.0697316978541 240.6 L 580.8524039752887 269.8 L 581.6350762527233 269.8 L 582.4177485301578 257.2 L 583.2004208075923 257.2 L 583.9830930850269 143.2 L 584.7657653624615 143.2 L 585.5484376398961 31.1 L 586.3311099173307 31.1 L 587.1137821947651 26.3 L 587.8964544721997 26.3 L 588.6791267496343 27.1 L 589.4617990270689 27.1 L 590.2444713045035 41.8 L 591.027143581938 41.8 L 591.8098158593725 188.8 L 592.5924881368071 188.8 L 593.3751604142417 264.9 L 594.1578326916763 264.9 L 594.9405049691109 259.1 L 595.7231772465454 259.1 L 596.5058495239799 218.5 L 597.2885218014145 218.5 L 598.0711940788491 56.9 L 598.8538663562837 56.9 L 599.6365386337183 26.9 L 600.4192109111528 26.9 L 601.2018831885873 27.1 L 601.9845554660219 27.1 L 602.7672277434565 27.6 L 603.5499000208911 27.6 L 604.3325722983257 111.9 L 605.1152445757602 111.9 L 605.8979168531947 272.8 L 606.6805891306293 255.9 L 607.4632614080639 255.9 L 608.2459336854985 27.7 L 609.028605962933 26.7 L 609.8112782403676 26.7 L 610.5939505178021 26.8 L 611.3766227952367 26.8 L 612.1592950726713 56 L 612.9419673501059 56 L 613.7246396275405 206.6 L 614.5073119049749 206.6 L 615.2899841824095 270.3 L 616.0726564598441 270.3 L 616.8553287372787 259.1 L 617.6380010147133 259.1 L 618.4206732921479 188.3 L 619.2033455695823 188.3 L 619.9860178470169 43.5 L 620.7686901244515 43.5 L 621.5513624018861 26.7 L 622.3340346793207 26.7 L 623.1167069567553 27.4 L 623.8993792341897 27.4 L 624.6820515116243 29.5 L 625.4647237890589 29.5 L 626.2473960664935 133.1 L 627.0300683439281 133.1 L 627.8127406213627 263.3 L 628.5954128987971 263.3 L 629.3780851762317 273 L 630.1607574536663 273 L 630.9434297311009 249.8 L 631.7261020085355 249.8 L 632.50877428597 93.4 L 633.2914465634045 93.4 L 634.0741188408391 27.1 L 634.8567911182737 27.1 L 635.6394633957083 26.9 L 636.4221356731429 26.9 L 637.2048079505773 27 L 637.9874802280119 27 L 638.7701525054465 33.8 L 639.5528247828811 33.8 L 640.3354970603157 156.4 L 641.1181693377503 156.4 L 641.9008416151847 265.8 L 642.6835138926193 265.8 L 643.4661861700539 267.1 L 644.2488584474885 267.1 L 645.0315307249231 167.7 L 645.8142030023577 167.7 L 646.5968752797921 26.9 L 647.3795475572267 27.1 L 648.1622198346613 27.1 L 648.9448921120959 35.9 L 649.7275643895305 35.9 L 650.510236666965 155.3 L 651.2929089443995 155.3 L 652.0755812218341 263.3 L 652.8582534992687 263.3 L 653.6409257767033 269.8 L 654.4235980541379 269.8 L 655.2062703315725 232.3 L 655.9889426090069 232.3 L 656.7716148864415 70.3 L 657.5542871638761 70.3 L 658.3369594413107 26.3 L 659.1196317187453 26.3 L 659.9023039961799 27.6 L 660.6849762736143 27.6 L 661.4676485510489 26.4 L 662.2503208284835 26.4 L 663.0329931059181 97.1 L 663.8156653833527 97.1 L 664.5983376607871 250.8 L 665.3810099382217 250.8 L 666.1636822156563 272.7 L 666.9463544930909 272.7 L 667.7290267705255 262 L 668.5116990479601 262 L 669.2943713253945 121.2 L 670.0770436028291 121.2 L 670.8597158802637 28.4 L 671.6423881576983 28.4 L 672.4250604351329 26.8 L 673.2077327125675 26.8 L 673.9904049900019 27.1 L 674.7730772674365 27.1 L 675.5557495448711 46.6 L 676.3384218223057 46.6 L 677.1210940997403 199.7 L 677.9037663771749 199.7 L 678.6864386546093 272.8 L 679.4691109320439 272.1 L 680.2517832094785 272.1 L 681.0344554869131 206.6 L 681.8171277643477 206.6 L 682.5998000417823 49.7 L 683.3824723192167 49.7 L 684.1651445966513 27.1 L 684.9478168740859 111.2 L 685.7304891515205 251.5 L 686.5131614289551 273.4 L 687.2958337063895 273.4 L 688.0785059838241 256.7 L 688.8611782612587 256.7 L 689.6438505386933 108.1 L 690.4265228161279 108.1 L 691.2091950935625 27.9 L 691.9918673709969 27.9 L 692.7745396484315 27.1 L 693.5572119258661 27.1 L 694.3398842033007 26.7 L 695.1225564807353 26.7 L 695.9052287581699 52.7 L 696.6879010356043 52.7 L 697.4705733130389 202.8 L 698.2532455904735 202.8 L 699.0359178679081 270.3 L 699.8185901453427 270.3 L 700.6012624227773 270.9 L 701.3839347002117 270.9 L 702.1666069776463 192.4 L 702.9492792550809 192.4 L 703.7319515325155 41.5 L 704.5146238099501 41.5 L 705.2972960873847 27.6 L 706.0799683648191 27.6 L 706.8626406422537 26.5 L 707.6453129196883 26.5 L 708.4279851971229 31.1 L 709.2106574745575 31.1 L 709.9933297519921 140.6 L 710.7760020294265 140.6 L 711.5586743068611 265.5 L 712.3413465842957 265.5 L 713.1240188617303 272.4 L 713.9066911391649 272.4 L 714.6893634165993 232.1 L 715.4720356940339 232.1 L 716.2547079714685 70.4 L 717.0373802489031 70.4 L 717.8200525263377 27.1 L 718.6027248037723 27.1 L 719.3853970812067 27.1 L 720.1680693586413 27.1 L 720.9507416360759 27 L 721.7334139135105 27 L 722.5160861909451 80.8 L 723.2987584683797 242.3 L 724.0814307458141 273.7 L 724.8641030232487 269.1 L 725.6467753006833 269.1 L 726.4294475781179 165.6 L 727.2121198555525 165.6 L 727.9947921329871 34.8 L 728.7774644104215 34.8 L 729.5601366878561 27 L 730.3428089652907 27 L 731.1254812427253 26.9 L 731.9081535201599 26.9 L 732.6908257975945 38.4 L 733.4734980750289 38.4 L 734.2561703524635 167.6 L 735.0388426298981 167.6 L 735.8215149073327 265.7 L 736.6041871847673 265.7 L 737.3868594622018 273.8 L 738.1695317396363 273.8 L 738.9522040170709 234.3 L 739.7348762945055 234.3 L 740.5175485719401 70 L 741.3002208493747 70 L 742.0828931268092 26.9 L 742.8655654042437 26.9 L 743.6482376816783 26.8 L 744.4309099591129 26.8 L 745.2135822365475 27.3 L 745.9962545139821 27.3 L 746.7789267914166 58.7 L 747.5615990688511 58.7 L 748.3442713462857 220.5 L 749.1269436237203 220.5 L 749.9096159011549 272.3 L 750.6922881785895 272.3 L 751.474960456024 265.8 L 752.2576327334585 265.8 L 753.0403050108931 137.3 L 753.8229772883277 137.3 L 754.6056495657623 29.9 L 755.3883218431969 29.9 L 756.1709941206313 26.9 L 756.9536663980659 26.9 L 757.7363386755005 27.1 L 758.5190109529351 27.1 L 759.3016832303697 48.5 L 760.0843555078043 48.5 L 760.8670277852387 201.2 L 761.6497000626733 152.9 L 762.4323723401079 48.6 L 763.2150446175425 48.6 L 763.9977168949771 27.4 L 764.7803891724116 27.4 L 765.5630614498461 26.8 L 766.3457337272807 26.8 L 767.1284060047153 29.2 L 767.9110782821499 29.2 L 768.6937505595845 130.8 L 769.476422837019 130.8 L 770.2590951144535 263.2 L 771.0417673918881 271.9 L 771.8244396693227 271.9 L 772.6071119467573 243 L 773.3897842241919 243 L 774.1724565016264 106.7 L 774.9551287790609 106.7 L 775.7378010564955 27.6 L 776.5204733339301 27.6 L 777.3031456113647 26.7 L 778.0858178887993 26.7 L 778.8684901662338 27.4 L 779.6511624436683 27.4 L 780.4338347211029 64.1 L 781.2165069985375 64.1 L 781.9991792759721 227.4 L 782.7818515534067 227.4 L 783.5645238308412 272.2 L 784.3471961082757 272.2 L 785.1298683857103 270.9 L 785.9125406631449 270.9 L 786.6952129405795 175.6 L 787.477885218014 175.6 L 788.2605574954486 36.8 L 789.0432297728831 36.8 L 789.8259020503177 27.3 L 790.6085743277523 27.3 L 791.3912466051869 26.7 L 792.1739188826214 26.7 L 792.956591160056 36.3 L 793.7392634374905 36.3 L 794.5219357149251 168.5 L 795.3046079923597 168.5 L 796.0872802697943 269.6 L 796.8699525472288 269.6 L 797.6526248246633 260.2 L 798.4352971020979 260.2 L 799.2179693795325 233.3 L 800.0006416569671 26.7 L 800.7833139344017 26.7 L 801.5659862118363 27.4 L 802.3486584892709 27.4 L 803.1313307667054 26.2 L 803.91400304414 26.2 L 804.6966753215745 65 L 805.4793475990091 65 L 806.2620198764437 226.9 L 807.0446921538783 226.9 L 807.8273644313128 273.1 L 808.6100367087474 273.1 L 809.3927089861819 256.8 L 810.1753812636165 256.8 L 810.9580535410511 116.5 L 811.7407258184857 116.5 L 812.5233980959202 29.7 L 813.3060703733548 29.7 L 814.0887426507893 26 L 814.8714149282239 26 L 815.6540872056585 28.2 L 816.436759483093 28.2 L 817.2194317605276 26.6 L 818.0021040379622 26.6 L 818.7847763153967 52.1 L 819.5674485928313 52.1 L 820.3501208702659 165.6 L 821.1327931477005 165.6 L 821.915465425135 267.3 L 822.6981377025696 267.3 L 823.4808099800041 231.5 L 824.2634822574387 231.5 L 825.0461545348733 66.7 L 825.8288268123079 66.7 L 826.6114990897424 26.9 L 827.394171367177 26.9 L 828.1768436446115 26.3 L 828.9595159220461 26.3 L 829.7421881994807 27.8 L 830.5248604769153 27.8 L 831.3075327543498 63.6 L 832.0902050317843 225.2 L 832.8728773092189 225.2 L 833.6555495866535 237.6 L 834.4382218640881 237.6 L 835.2208941415226 209.4 L 836.0035664189572 209.4 L 836.7862386963917 130.4 L 837.5689109738263 130.4 L 838.3515832512609 27.1 L 839.1342555286955 50.5 L 839.91692780613 206.2 L 840.6996000835646 206.2 L 841.4822723609991 272.2 L 842.2649446384337 272.2 L 843.0476169158683 272.2 L 843.8302891933029 272.2 L 844.6129614707374 210.6 L 845.395633748172 210.6 L 846.1783060256065 51.7 L 846.9609783030411 51.7 L 847.7436505804757 27.1 L 848.5263228579103 27.1 L 849.3089951353448 26.8 L 850.0916674127794 26.8 L 850.8743396902139 29.3 L 851.6570119676485 29.3 L 852.4396842450831 132.1 L 853.2223565225177 132.1 L 854.0050287999522 263 L 854.7877010773867 263 L 855.5703733548213 273.2 L 856.3530456322559 273.2 L 857.1357179096905 250.5 L 857.918390187125 250.5 L 858.7010624645596 94.9 L 859.4837347419941 94.9 L 860.2664070194287 27.4 L 861.0490792968633 27.4 L 861.8317515742979 26.9 L 862.6144238517325 26.9 L 863.397096129167 26.7 L 864.1797684066015 26.7 L 864.9624406840361 69.7 L 865.7451129614707 69.7 L 866.5277852389053 231.7 L 867.3104575163399 231.7 L 868.0931297937744 273.1 L 868.8758020712089 273.1 L 869.6584743486435 272.1 L 870.4411466260781 272.1 L 871.2238189035127 185.2 L 872.0064911809473 185.2 L 872.7891634583818 40.9 L 873.5718357358163 26.7 L 874.3545080132509 26.7 L 875.1371802906855 27.1 L 875.9198525681201 27.1 L 876.7025248455546 160.9 L 877.4851971229892 160.9 L 878.2678694004237 269 L 879.0505416778583 269 L 879.8332139552929 272.5 L 880.6158862327275 272.5 L 881.398558510162 245.8 L 882.1812307875965 245.8 L 882.9639030650311 84.4 L 883.7465753424657 84.4 L 884.5292476199003 26.8 L 885.3119198973349 26.8 L 886.0945921747694 27.6 L 886.8772644522039 27.6 L 887.6599367296385 27.4 L 888.4426090070731 27.4 L 889.2252812845077 83.9 L 890.0079535619423 83.9 L 890.7906258393768 244.8 L 891.5732981168113 244.8 L 892.3559703942459 272.6 L 893.1386426716805 272.6 L 893.9213149491151 266.7 L 894.7039872265497 266.7 L 895.4866595039842 143 L 896.2693317814187 143 L 897.0520040588533 31.3 L 897.8346763362879 31.3 L 898.6173486137225 26.5 L 899.400020891157 26.5 L 900.1826931685916 27.3 L 900.9653654460261 27.3 L 901.7480377234607 38.2 L 902.5307100008953 38.2 L 903.3133822783299 167.3 L 904.0960545557645 221 L 904.8787268331989 221 L 905.6613991106335 228.7 L 906.4440713880681 228.7 L 907.2267436655027 229.5 L 908.0094159429373 229.5 L 908.7920882203719 64.9 L 909.5747604978063 64.9 L 910.3574327752409 27.1 L 911.1401050526755 27.1 L 911.9227773301101 26.3 L 912.7054496075447 26.3 L 913.4881218849793 27.8 L 914.2707941624137 27.8 L 915.0534664398483 265.9 L 915.8361387172829 171.9 L 916.6188109947175 171.9 L 917.4014832721521 93.7 L 918.1841555495866 93.7 L 918.9668278270211 29.8 L 919.7495001044557 29.8 L 920.5321723818903 26.6 L 921.3148446593249 26.6 L 922.0975169367595 26.5 L 922.880189214194 26.5 L 923.6628614916285 32 L 924.4455337690631 32 L 925.2282060464977 116.7 L 926.0108783239323 116.7 L 926.7935506013669 256 L 927.5762228788014 256 L 928.3588951562359 262.8 L 929.1415674336705 262.8 L 929.9242397111051 206.6 L 930.7069119885397 206.6 L 931.4895842659743 50.3 L 932.2722565434087 50.3 L 933.0549288208433 27.4 L 933.8376010982779 27.4 L 934.6202733757125 27.1 L 935.4029456531471 28.9 L 936.1856179305817 28.9 L 936.9682902080161 61.9 L 937.7509624854507 61.9 L 938.5336347628853 91.9 L 939.3163070403199 91.9 L 940.0989793177545 166.9 L 940.881651595189 166.9 L 941.6643238726235 156 L 942.4469961500581 156 L 943.2296684274927 85.2 L 944.0123407049273 85.2 L 944.7950129823619 28 L 945.5776852597965 28 L 946.3603575372309 27.1 L 947.1430298146655 27.1 L 947.9257020921001 27.4 L 948.7083743695347 27.4 L 949.4910466469693 46.4 L 950.2737189244039 46.4 L 951.0563912018383 106.7 L 951.8390634792729 106.7 L 952.6217357567075 109 L 953.4044080341421 123.9 L 954.1870803115767 168.4 L 954.9697525890111 168.4 L 955.7524248664457 38.2 L 956.5350971438803 28.1 L 957.3177694213149 28.1 L 958.1004416987495 27.1 L 958.8831139761841 27.1 L 959.6657862536185 33.5 L 960.4484585310531 33.5 L 961.2311308084877 156 L 962.0138030859223 156 L 962.7964753633569 265.1 L 963.5791476407915 265.1 L 964.3618199182259 269.1 L 965.1444921956605 269.1 L 965.9271644730951 230.7 L 966.7098367505297 230.7 L 967.4925090279643 72 L 968.2751813053989 72 L 969.0578535828333 26.1 L 969.8405258602679 26.1 L 970.6231981377025 27.4 L 971.4058704151371 27.4 L 972.1885426925717 26.5 L 972.9712149700063 26.5 L 973.7538872474407 90.6 L 974.5365595248753 90.6 L 975.3192318023099 190.5 L 976.1019040797445 190.5 L 976.8845763571791 242.8 L 977.6672486346137 242.8 L 978.4499209120481 267.9 L 979.2325931894827 267.9 L 980.0152654669173 157.6 L 980.7979377443519 157.6 L 981.5806100217865 33.2 L 982.3632822992209 33.2 L 983.1459545766555 26.8 L 983.9286268540901 26.8 L 984.7112991315247 27.1 L 985.4939714089593 27.1 L 986.2766436863939 41.3 L 987.0593159638283 41.3 L 987.8419882412629 185.5 L 988.6246605186975 185.5 L 989.4073327961321 270.1 L 990.1900050735667 270.1 L 990.9726773510013 270.9 L 991.7553496284357 227.2 L 992.5380219058703 62 L 993.3206941833049 27.6 L 994.1033664607395 27.6 L 994.8860387381741 26.6 L 995.6687110156087 26.6 L 996.4513832930431 27.9 L 997.2340555704777 27.9 L 998.0167278479123 101.3 L 998.7994001253469 101.3 L 999.5820724027815 246.1 L 1000.3647446802161 246.1 L 1001.1474169576505 268.6 L 1001.9300892350851 268.6 L 1002.7127615125197 242.2 L 1003.4954337899543 242.2 L 1004.2781060673889 113.2 L 1005.0607783448233 113.2 L 1005.8434506222579 28.2 L 1006.6261228996925 28.2 L 1007.4087951771271 26.7 L 1008.1914674545617 26.7 L 1008.9741397319963 27 L 1009.7568120094307 27 L 1010.5394842868653 58.5 L 1011.3221565642999 58.5 L 1012.1048288417345 201.2 L 1012.8875011191691 201.2 L 1013.6701733966037 204.7 L 1014.4528456740381 204.7 L 1015.2355179514727 245.6 L 1016.0181902289073 245.6 L 1016.8008625063419 167.5 L 1017.5835347837765 167.5 L 1018.3662070612111 39.6 L 1019.1488793386455 27.6 L 1019.9315516160801 27.6 L 1020.7142238935147 26.7 L 1021.4968961709493 26.7 L 1022.2795684483839 31.8 L 1023.0622407258185 31.8 L 1023.8449130032529 136.6 L 1024.6275852806875 136.6 L 1025.410257558122 257.5 L 1026.1929298355567 257.5 L 1026.9756021129913 271.1 L 1027.7582743904259 271.1 L 1028.5409466678605 226.9 L 1029.323618945295 226.9 L 1030.1062912227294 27.3 L 1030.888963500164 27.3 L 1031.6716357775986 27.1 L 1032.4543080550332 27.7 L 1033.2369803324677 27.7 L 1034.0196526099023 60.8 L 1034.802324887337 60.8 L 1035.5849971647715 225 L 1036.367669442206 225 L 1037.1503417196407 271.7 L 1037.9330139970752 271.7 L 1038.7156862745098 270.5" stroke="#2f7ed8" stroke-width="1" zIndex="1"></path></g><g class="highcharts-markers" visibility="visible" zIndex="0.1" transform="translate(60,10) scale(1 1)" clip-path="none"><path fill="none" d="M 0.28431372549019507 272.8 L 10.284313725490195 272.8 L 11.06698600292476 265.2 L 11.849658280359327 265.2 L 12.632330557793892 137.1 L 13.415002835228458 137.1 L 14.197675112663024 30.5 L 14.98034739009759 30.5 L 15.763019667532156 26.1 L 16.54569194496672 26.1 L 17.328364222401287 27.3 L 18.11103649983585 27.3 L 18.89370877727042 40.5 L 19.676381054704983 40.5 L 20.45905333213955 181.8 L 21.241725609574114 181.8 L 22.024397887008682 271.6 L 22.807070164443246 271.6 L 23.589742441877814 272.7 L 24.372414719312378 212.1 L 25.155086996746945 212.1 L 25.93775927418151 52.1 L 26.720431551616077 52.1 L 27.50310382905064 27.1 L 28.28577610648521 27.1 L 29.068448383919772 27.4 L 29.85112066135434 27.4 L 30.633792938788904 28 L 31.41646521622347 28 L 32.199137493658036 108.4 L 32.9818097710926 246.6 L 33.76448204852717 273.1 L 34.547154325961735 273.1 L 35.3298266033963 258.3 L 36.11249888083086 258.3 L 36.895171158265434 111.1 L 37.6778434357 111.1 L 38.46051571313456 27.4 L 39.243187990569126 27.4 L 40.0258602680037 27.4 L 40.80853254543826 26.9 L 41.591204822872825 26.9 L 42.37387710030739 59.4 L 43.15654937774196 59.4 L 43.939221655176524 212 L 44.72189393261109 212 L 45.50456621004565 217.4 L 46.287238487480224 217.4 L 47.06991076491479 224.5 L 47.85258304234935 224.5 L 48.635255319783916 188.5 L 49.41792759721849 188.5 L 50.20059987465305 41.4 L 50.983272152087615 41.4 L 51.76594442952218 27.7 L 52.54861670695675 27.7 L 53.331288984391314 26.3 L 54.11396126182588 26.3 L 54.89663353926044 30.6 L 55.67930581669501 30.6 L 56.46197809412958 139.2 L 57.24465037156414 139.2 L 58.027322648998705 264.9 L 58.809994926433276 264.9 L 59.59266720386784 272.9 L 60.375339481302404 272.9 L 61.15801175873697 246.7 L 61.94068403617154 246.7 L 62.723356313606104 86 L 63.50602859104067 86 L 64.28870086847523 27.4 L 65.0713731459098 27.4 L 65.85404542334436 26.8 L 66.63671770077893 26.8 L 67.4193899782135 26.9 L 68.20206225564806 26.9 L 68.98473453308263 72.8 L 69.7674068105172 72.8 L 70.55007908795176 224.5 L 71.33275136538633 271.2 L 72.11542364282089 269.8 L 72.89809592025546 269.8 L 73.68076819769003 164.3 L 74.46344047512459 34.1 L 75.24611275255916 34.1 L 76.02878502999373 26.7 L 76.81145730742828 26.7 L 77.59412958486286 26.5 L 78.37680186229741 26.5 L 79.15947413973198 38.9 L 79.94214641716655 38.9 L 80.72481869460111 179.1 L 81.50749097203568 179.1 L 82.29016324947025 270.2 L 83.07283552690481 270.2 L 83.85550780433938 273.1 L 84.63818008177394 273.1 L 85.42085235920851 230.6 L 86.20352463664308 230.6 L 86.98619691407764 65.4 L 87.76886919151221 65.4 L 88.55154146894678 27.1 L 89.33421374638134 27.1 L 90.11688602381591 26.1 L 90.89955830125047 26.1 L 91.68223057868504 27.6 L 92.46490285611961 27.6 L 93.24757513355416 100 L 94.03024741098874 100 L 94.8129196884233 253 L 95.59559196585786 253 L 96.37826424329243 272.3 L 97.16093652072699 272.3 L 97.94360879816156 265.1 L 98.72628107559613 265.1 L 99.50895335303069 133.9 L 100.29162563046525 133.9 L 101.07429790789982 30.1 L 101.85697018533438 30.1 L 102.63964246276895 26.5 L 103.42231474020352 26.5 L 104.20498701763808 27.3 L 104.98765929507265 27.3 L 105.77033157250722 53.1 L 106.55300384994177 198 L 107.33567612737635 198 L 108.1183484048109 269 L 108.90102068224547 269 L 109.68369295968004 209.9 L 110.4663652371146 209.9 L 111.24903751454917 50.4 L 112.03170979198374 50.4 L 112.8143820694183 26.7 L 113.59705434685287 27.3 L 114.37972662428743 27.3 L 115.162398901722 28.3 L 115.94507117915657 28.3 L 116.72774345659113 114.8 L 117.5104157340257 114.8 L 118.29308801146027 192.6 L 119.07576028889483 192.6 L 119.8584325663294 232.2 L 120.64110484376396 232.2 L 121.42377712119853 255.9 L 122.2064493986331 255.9 L 122.98912167606765 108.6 L 123.77179395350223 108.6 L 124.5544662309368 27.6 L 125.33713850837135 27.6 L 126.11981078580592 26.7 L 126.90248306324048 26.7 L 127.68515534067505 26.3 L 128.46782761810962 26.3 L 129.25049989554418 30.5 L 130.03317217297874 30.5 L 130.81584445041332 107.1 L 131.59851672784788 107.1 L 132.38118900528244 138.3 L 133.16386128271702 138.3 L 133.94653356015158 83.9 L 134.72920583758614 83.9 L 135.51187811502072 103.5 L 136.29455039245528 103.5 L 137.07722266988984 33.2 L 137.85989494732442 33.2 L 138.64256722475898 27.4 L 139.42523950219353 27.4 L 140.20791177962812 26.2 L 140.99058405706268 26.2 L 141.77325633449723 32.5 L 142.5559286119318 32.5 L 143.33860088936638 62.2 L 144.12127316680093 62.2 L 144.9039454442355 100.2 L 145.68661772167007 100.2 L 146.46928999910463 247.4 L 147.2519622765392 247.4 L 148.03463455397377 82.7 L 148.81730683140833 82.7 L 149.5999791088429 26.5 L 150.38265138627747 27.3 L 151.16532366371203 27.3 L 151.9479959411466 26.6 L 152.73066821858117 26.6 L 153.51334049601573 76.6 L 154.2960127734503 76.6 L 155.07868505088484 235.8 L 155.86135732831943 235.8 L 156.64402960575399 259.6 L 157.42670188318854 259.6 L 158.20937416062313 254.9 L 158.99204643805768 254.9 L 159.77471871549224 157.2 L 160.55739099292683 157.2 L 161.34006327036138 33.9 L 162.12273554779594 33.9 L 162.90540782523053 26.5 L 163.68808010266508 26.5 L 164.47075238009964 27.1 L 165.25342465753423 27.1 L 166.03609693496878 27.1 L 166.81876921240334 27.1 L 167.6014414898379 102.4 L 168.38411376727248 102.4 L 169.16678604470704 252.9 L 169.9494583221416 252.9 L 170.73213059957618 271.1 L 171.51480287701074 271.1 L 172.2974751544453 228 L 173.08014743187988 228 L 173.86281970931444 65 L 174.645491986749 65 L 175.42816426418358 26.9 L 176.21083654161814 26.9 L 176.9935088190527 26.9 L 177.77618109648728 26.9 L 178.55885337392183 27.4 L 179.3415256513564 27.4 L 180.12419792879095 104.7 L 180.90687020622553 104.7 L 181.6895424836601 253.7 L 182.47221476109465 253.7 L 183.25488703852923 271.6 L 184.0375593159638 271.6 L 184.82023159339835 262.3 L 185.60290387083293 262.3 L 186.3855761482675 29.1 L 187.16824842570205 29.1 L 187.95092070313663 26.6 L 188.7335929805712 27.1 L 189.51626525800575 27.1 L 190.29893753544033 46.2 L 191.0816098128749 46.2 L 191.86428209030944 145.3 L 192.646954367744 145.3 L 193.4296266451786 244.8 L 194.21229892261314 244.8 L 194.9949712000477 262.4 L 195.7776434774823 262.4 L 196.56031575491684 207.8 L 197.3429880323514 207.8 L 198.12566030978599 50.3 L 198.90833258722054 50.3 L 199.6910048646551 26.5 L 200.47367714208968 26.5 L 201.25634941952424 27.4 L 202.0390216969588 27.4 L 202.82169397439338 26.3 L 203.60436625182794 26.3 L 204.3870385292625 79.5 L 205.16971080669705 79.5 L 205.95238308413164 211.6 L 206.7350553615662 211.6 L 207.51772763900075 243.5 L 208.30039991643534 243.5 L 209.0830721938699 254.9 L 209.86574447130445 254.9 L 210.64841674873904 105.1 L 211.4310890261736 26.8 L 212.21376130360815 26.8 L 212.99643358104274 27.4 L 213.7791058584773 27.4 L 214.56177813591185 27.1 L 215.34445041334644 27.1 L 216.127122690781 65.1 L 216.90979496821555 65.1 L 217.6924672456501 228.6 L 218.4751395230847 228.6 L 219.25781180051925 272.6 L 220.0404840779538 272.6 L 220.8231563553884 270.4 L 221.60582863282295 270.4 L 222.3885009102575 182.5 L 223.1711731876921 182.5 L 223.95384546512665 39.3 L 224.7365177425612 26.3 L 225.5191900199958 27.4 L 226.30186229743035 27.4 L 227.0845345748649 33.1 L 227.8672068522995 33.1 L 228.64987912973405 158.2 L 229.4325514071686 158.2 L 230.21522368460316 267.9 L 230.99789596203775 267.9 L 231.7805682394723 272.8 L 232.56324051690686 272.8 L 233.34591279434144 243.6 L 234.128585071776 243.6 L 234.91125734921056 81.6 L 235.69392962664514 81.6 L 236.4766019040797 26.7 L 237.25927418151426 26.7 L 238.04194645894884 26.9 L 238.8246187363834 26.9 L 239.60729101381796 27.3 L 240.38996329125254 37.1 L 241.1726355686871 37.1 L 241.95530784612166 174.2 L 242.7379801235562 174.2 L 243.5206524009908 269.7 L 244.30332467842535 269.7 L 245.0859969558599 268.3 L 245.8686692332945 268.3 L 246.65134151072905 155.1 L 247.4340137881636 155.1 L 248.2166860655982 32.3 L 248.99935834303275 32.3 L 249.7820306204673 26.8 L 250.5647028979019 26.8 L 251.34737517533645 27 L 252.130047452771 27 L 252.9127197302056 33 L 253.69539200764015 33 L 254.4780642850747 143.9 L 255.26073656250927 143.9 L 256.0434088399438 262.5 L 256.8260811173784 262.5 L 257.608753394813 271.7 L 258.3914256722475 271.7 L 259.1740979496821 226.9 L 259.9567702271167 226.9 L 260.7394425045512 61.9 L 261.5221147819858 61.9 L 262.3047870594204 26.7 L 263.0874593368549 89.9 L 263.8701316142895 246.6 L 264.6528038917241 246.6 L 265.4354761691586 260.9 L 266.2181484465932 260.9 L 267.0008207240278 256.4 L 267.7834930014623 256.4 L 268.5661652788969 127.7 L 269.3488375563315 127.7 L 270.131509833766 29.2 L 270.9141821112006 29.2 L 271.6968543886352 26.4 L 272.4795266660697 26.4 L 273.2621989435043 27.4 L 274.04487122093883 27.4 L 274.8275434983734 43.9 L 275.610215775808 181.7 L 276.39288805324253 181.7 L 277.1755603306771 248.5 L 277.9582326081117 248.5 L 278.74090488554623 258.6 L 279.5235771629808 258.6 L 280.3062494404154 204.5 L 281.0889217178499 204.5 L 281.8715939952845 48.8 L 282.6542662727191 48.8 L 283.4369385501536 26.2 L 284.2196108275882 26.2 L 285.0022831050228 27.4 L 285.7849553824573 27.4 L 286.5676276598919 26.7 L 287.3502999373265 26.7 L 288.132972214761 80.9 L 288.9156444921956 80.9 L 289.6983167696302 235.9 L 290.4809890470647 235.9 L 291.2636613244993 267.6 L 292.0463336019339 267.6 L 292.8290058793684 245.8 L 293.611678156803 245.8 L 294.3943504342376 101.3 L 295.1770227116721 101.3 L 295.9596949891067 26.7 L 296.7423672665413 26.7 L 297.5250395439758 26.9 L 298.3077118214104 26.9 L 299.09038409884494 27.1 L 299.8730563762795 27.1 L 300.6557286537141 60.3 L 301.43840093114864 213.8 L 302.2210732085832 272.1 L 303.0037454860178 272.1 L 303.78641776345233 256.3 L 304.5690900408869 256.3 L 305.3517623183215 170.6 L 306.13443459575603 38.9 L 306.9171068731906 38.9 L 307.6997791506252 26.7 L 308.48245142805973 26.7 L 309.2651237054943 26.7 L 310.0477959829289 26.7 L 310.83046826036343 34.2 L 311.613140537798 34.2 L 312.3958128152326 104.2 L 313.17848509266713 104.2 L 313.9611573701017 89 L 314.7438296475363 89 L 315.52650192497083 224.9 L 316.3091742024054 224.9 L 317.09184647984 242.5 L 317.87451875727453 242.5 L 318.6571910347091 79.5 L 319.4398633121437 79.5 L 320.22253558957823 26.4 L 321.0052078670128 26.4 L 321.7878801444474 27.8 L 322.5705524218819 27.8 L 323.3532246993165 26.4 L 324.13589697675104 26.4 L 324.9185692541856 83.4 L 325.7012415316202 83.4 L 326.48391380905474 243.6 L 327.2665860864893 243.6 L 328.0492583639239 272.3 L 328.83193064135844 272.3 L 329.614602918793 268 L 330.3972751962276 268 L 331.17994747366214 153.8 L 331.9626197510967 153.8 L 332.7452920285313 32.5 L 333.52796430596584 32.5 L 334.3106365834004 26.9 L 335.093308860835 26.9 L 335.87598113826954 26.5 L 336.6586534157041 26.5 L 337.4413256931387 34.7 L 338.22399797057324 34.7 L 339.0066702480078 162.8 L 339.7893425254424 269 L 340.57201480287694 273.2 L 341.3546870803115 225.7 L 342.1373593577461 225.7 L 342.92003163518064 60.8 L 343.7027039126152 60.8 L 344.4853761900498 27 L 345.26804846748433 27 L 346.0507207449189 27.6 L 346.8333930223535 27.6 L 347.61606529978803 27.4 L 348.3987375772226 27.4 L 349.18140985465715 112.5 L 349.96408213209173 112.5 L 350.7467544095263 257.8 L 351.52942668696085 257.8 L 352.31209896439543 272.8 L 353.09477124183 272.8 L 353.87744351926455 263.3 L 354.66011579669913 263.3 L 355.4427880741337 126.5 L 356.22546035156824 126.5 L 357.00813262900283 29 L 357.7908049064374 29 L 358.57347718387194 27.1 L 359.35614946130653 27.1 L 360.1388217387411 27.4 L 360.92149401617564 50.8 L 361.70416629361023 50.8 L 362.4868385710448 208.1 L 363.26951084847934 208.1 L 364.0521831259139 272.3 L 364.8348554033485 272.3 L 365.61752768078304 272.2 L 366.4001999582176 272.2 L 367.1828722356522 202.5 L 367.96554451308674 202.5 L 368.7482167905213 47.3 L 369.5308890679559 47.3 L 370.31356134539044 26.8 L 371.096233622825 26.8 L 371.8789059002596 27.4 L 372.66157817769414 27.4 L 373.4442504551287 29.7 L 374.22692273256325 29.7 L 375.00959500999784 136.1 L 375.7922672874324 136.1 L 376.57493956486695 265.7 L 377.35761184230154 265.7 L 378.1402841197361 254.1 L 378.92295639717065 254.1 L 379.70562867460524 99.4 L 380.4883009520398 99.4 L 381.27097322947435 27.4 L 382.05364550690894 27.4 L 382.8363177843435 26.7 L 383.61899006177805 26.7 L 384.40166233921263 26.9 L 385.1843346166472 50.9 L 385.96700689408175 50.9 L 386.74967917151633 207 L 387.5323514489509 207 L 388.31502372638545 233.1 L 389.09769600382003 233.1 L 389.8803682812546 197.3 L 390.66304055868915 197.3 L 391.44571283612373 173.7 L 392.2283851135583 173.7 L 393.01105739099285 37.7 L 393.79372966842743 37.7 L 394.576401945862 27.1 L 395.35907422329655 27.1 L 396.14174650073113 26.7 L 396.9244187781657 26.7 L 397.70709105560024 34.3 L 398.48976333303483 34.3 L 399.27243561046936 150.4 L 400.05510788790394 150.4 L 400.83778016533853 262.3 L 401.62045244277306 262.3 L 402.40312472020764 273.3 L 403.1857969976422 273.3 L 403.96846927507676 240.3 L 404.75114155251134 240.3 L 405.5338138299459 76.5 L 406.31648610738046 76.5 L 407.09915838481504 27.3 L 407.8818306622496 27.3 L 408.66450293968416 26.8 L 409.44717521711874 26.8 L 410.2298474945533 27 L 411.01251977198785 27 L 411.79519204942244 73.5 L 412.577864326857 73.5 L 413.36053660429155 235.9 L 414.14320888172614 235.9 L 414.9258811591607 270.8 L 415.70855343659525 270.8 L 416.49122571402984 26.6 L 417.2738979914644 26.6 L 418.05657026889895 27 L 418.83924254633354 27 L 419.6219148237681 44.7 L 420.40458710120265 44.7 L 421.18725937863724 194.4 L 421.9699316560718 194.4 L 422.75260393350635 267.9 L 423.53527621094094 267.9 L 424.31794848837546 247.4 L 425.10062076581005 247.4 L 425.88329304324463 217.7 L 426.66596532067916 217.7 L 427.44863759811375 58.8 L 428.23130987554833 58.8 L 429.01398215298286 27 L 429.79665443041745 27 L 430.57932670785203 26.7 L 431.36199898528656 26.7 L 432.14467126272115 27.4 L 432.92734354015573 27.4 L 433.71001581759026 37.9 L 434.49268809502485 37.9 L 435.27536037245943 159.1 L 436.05803264989396 159.1 L 436.84070492732855 158 L 437.62337720476313 158 L 438.40604948219766 98.6 L 439.18872175963224 98.6 L 439.97139403706683 99.1 L 440.75406631450136 28.7 L 441.53673859193594 28.7 L 442.31941086937053 27.4 L 443.10208314680506 27.4 L 443.88475542423964 27 L 444.6674277016742 27 L 445.45009997910876 28.1 L 446.23277225654334 28.1 L 447.0154445339779 100.5 L 447.79811681141246 100.5 L 448.58078908884704 252.8 L 449.36346136628157 252.8 L 450.14613364371615 271.3 L 450.92880592115074 271.3 L 451.71147819858527 200.5 L 452.49415047601985 200.5 L 453.27682275345444 45.4 L 454.05949503088897 45.4 L 454.84216730832355 26.8 L 455.62483958575814 29 L 456.40751186319267 29 L 457.19018414062725 132.8 L 457.97285641806184 132.8 L 458.75552869549637 263.6 L 459.53820097293095 263.6 L 460.32087325036554 271.7 L 461.10354552780007 271.7 L 461.88621780523465 252.5 L 462.66889008266924 252.5 L 463.45156236010376 98.6 L 464.23423463753835 98.6 L 465.01690691497294 27 L 465.79957919240746 27 L 466.58225146984205 26.6 L 467.36492374727663 26.6 L 468.14759602471116 26.8 L 468.93026830214575 26.8 L 469.71294057958033 67.9 L 470.49561285701486 67.9 L 471.27828513444945 219.6 L 472.06095741188403 219.6 L 472.84362968931856 271.3 L 473.62630196675315 271.3 L 474.4089742441877 251.7 L 475.19164652162226 251.7 L 475.97431879905685 154.9 L 476.7569910764914 154.9 L 477.53966335392596 37.1 L 478.32233563136054 37.1 L 479.1050079087951 26.3 L 479.88768018622966 26.3 L 480.67035246366424 27.6 L 481.4530247410988 27.6 L 482.23569701853336 32.2 L 483.01836929596794 32.2 L 483.8010415734025 152.8 L 484.58371385083706 152.8 L 485.36638612827164 267.3 L 486.14905840570617 267.3 L 486.93173068314076 272.8 L 487.71440296057534 272.8 L 488.49707523800987 239.5 L 489.27974751544446 239.5 L 490.06241979287904 75.6 L 490.84509207031357 75.6 L 491.62776434774815 27 L 492.41043662518274 27 L 493.19310890261727 26.8 L 493.97578118005185 90.7 L 494.75845345748644 90.7 L 495.54112573492097 247.9 L 496.32379801235555 247.9 L 497.10647028979014 272.5 L 497.88914256722467 272.5 L 498.67181484465925 267.3 L 499.4544871220938 267.3 L 500.23715939952837 147.2 L 501.01983167696295 147.2 L 501.8025039543975 31.6 L 502.58517623183207 31.6 L 503.36784850926665 27.4 L 504.1505207867012 27.4 L 504.93319306413576 26.8 L 505.71586534157035 26.8 L 506.4985376190049 42.6 L 507.28120989643946 42.6 L 508.06388217387405 181.1 L 508.8465544513086 181.1 L 509.62922672874316 268.4 L 510.41189900617775 268.4 L 511.1945712836123 272.4 L 511.97724356104686 272.4 L 512.7599158384814 219.8 L 513.542588115916 219.8 L 514.3252603933505 57.5 L 515.1079326707851 57.5 L 515.8906049482197 26.4 L 516.6732772256543 26.4 L 517.4559495030888 26.7 L 518.2386217805234 26.7 L 519.0212940579579 28.8 L 519.8039663353925 28.8 L 520.5866386128271 123.1 L 521.3693108902617 123.1 L 522.1519831676962 260.9 L 522.9346554451308 260.9 L 523.7173277225653 272 L 524.4999999999999 260.8 L 525.2826722774345 260.8 L 526.0653445548691 120.1 L 526.8480168323036 120.1 L 527.6306891097382 28.2 L 528.4133613871727 28.2 L 529.1960336646073 27.4 L 529.9787059420419 27.4 L 530.7613782194765 26.6 L 531.544050496911 125.6 L 532.3267227743456 125.6 L 533.1093950517801 262.5 L 533.8920673292147 262.5 L 534.6747396066493 271.7 L 535.4574118840839 271.7 L 536.2400841615184 196.9 L 537.0227564389529 196.9 L 537.8054287163875 44.1 L 538.5881009938221 44.1 L 539.3707732712567 27.4 L 540.1534455486913 27.4 L 540.9361178261258 26.6 L 541.7187901035603 26.6 L 542.5014623809949 28.6 L 543.2841346584295 28.6 L 544.0668069358641 107.2 L 544.8494792132987 107.2 L 545.6321514907332 253.3 L 546.4148237681677 253.3 L 547.1974960456023 263.8 L 547.9801683230369 263.8 L 548.7628406004715 202 L 549.545512877906 202 L 550.3281851553406 83.4 L 551.1108574327751 26.9 L 551.8935297102097 26.9 L 552.6762019876443 27.4 L 553.4588742650789 27.4 L 554.2415465425134 26.6 L 555.024218819948 26.6 L 555.8068910973825 56.6 L 556.5895633748171 56.6 L 557.3722356522517 217.7 L 558.1549079296863 217.7 L 558.9375802071208 261.3 L 559.7202524845554 261.3 L 560.5029247619899 261.3 L 561.2855970394245 261.3 L 562.0682693168591 172.5 L 562.8509415942937 172.5 L 563.6336138717282 35.6 L 564.4162861491627 35.6 L 565.1989584265973 27.3 L 565.9816307040319 27.3 L 566.7643029814665 27 L 567.546975258901 27 L 568.3296475363356 27.1 L 569.1123198137701 27.1 L 569.8949920912047 215.4 L 570.6776643686393 215.4 L 571.4603366460739 73.4 L 572.2430089235085 73.4 L 573.025681200943 27.1 L 573.8083534783775 27.1 L 574.5910257558121 26.7 L 575.3736980332467 26.7 L 576.1563703106813 27.8 L 576.9390425881159 27.8 L 577.7217148655504 92.1 L 578.5043871429849 92.1 L 579.2870594204195 240.6 L 580.0697316978541 240.6 L 580.8524039752887 269.8 L 581.6350762527233 269.8 L 582.4177485301578 257.2 L 583.2004208075923 257.2 L 583.9830930850269 143.2 L 584.7657653624615 143.2 L 585.5484376398961 31.1 L 586.3311099173307 31.1 L 587.1137821947651 26.3 L 587.8964544721997 26.3 L 588.6791267496343 27.1 L 589.4617990270689 27.1 L 590.2444713045035 41.8 L 591.027143581938 41.8 L 591.8098158593725 188.8 L 592.5924881368071 188.8 L 593.3751604142417 264.9 L 594.1578326916763 264.9 L 594.9405049691109 259.1 L 595.7231772465454 259.1 L 596.5058495239799 218.5 L 597.2885218014145 218.5 L 598.0711940788491 56.9 L 598.8538663562837 56.9 L 599.6365386337183 26.9 L 600.4192109111528 26.9 L 601.2018831885873 27.1 L 601.9845554660219 27.1 L 602.7672277434565 27.6 L 603.5499000208911 27.6 L 604.3325722983257 111.9 L 605.1152445757602 111.9 L 605.8979168531947 272.8 L 606.6805891306293 255.9 L 607.4632614080639 255.9 L 608.2459336854985 27.7 L 609.028605962933 26.7 L 609.8112782403676 26.7 L 610.5939505178021 26.8 L 611.3766227952367 26.8 L 612.1592950726713 56 L 612.9419673501059 56 L 613.7246396275405 206.6 L 614.5073119049749 206.6 L 615.2899841824095 270.3 L 616.0726564598441 270.3 L 616.8553287372787 259.1 L 617.6380010147133 259.1 L 618.4206732921479 188.3 L 619.2033455695823 188.3 L 619.9860178470169 43.5 L 620.7686901244515 43.5 L 621.5513624018861 26.7 L 622.3340346793207 26.7 L 623.1167069567553 27.4 L 623.8993792341897 27.4 L 624.6820515116243 29.5 L 625.4647237890589 29.5 L 626.2473960664935 133.1 L 627.0300683439281 133.1 L 627.8127406213627 263.3 L 628.5954128987971 263.3 L 629.3780851762317 273 L 630.1607574536663 273 L 630.9434297311009 249.8 L 631.7261020085355 249.8 L 632.50877428597 93.4 L 633.2914465634045 93.4 L 634.0741188408391 27.1 L 634.8567911182737 27.1 L 635.6394633957083 26.9 L 636.4221356731429 26.9 L 637.2048079505773 27 L 637.9874802280119 27 L 638.7701525054465 33.8 L 639.5528247828811 33.8 L 640.3354970603157 156.4 L 641.1181693377503 156.4 L 641.9008416151847 265.8 L 642.6835138926193 265.8 L 643.4661861700539 267.1 L 644.2488584474885 267.1 L 645.0315307249231 167.7 L 645.8142030023577 167.7 L 646.5968752797921 26.9 L 647.3795475572267 27.1 L 648.1622198346613 27.1 L 648.9448921120959 35.9 L 649.7275643895305 35.9 L 650.510236666965 155.3 L 651.2929089443995 155.3 L 652.0755812218341 263.3 L 652.8582534992687 263.3 L 653.6409257767033 269.8 L 654.4235980541379 269.8 L 655.2062703315725 232.3 L 655.9889426090069 232.3 L 656.7716148864415 70.3 L 657.5542871638761 70.3 L 658.3369594413107 26.3 L 659.1196317187453 26.3 L 659.9023039961799 27.6 L 660.6849762736143 27.6 L 661.4676485510489 26.4 L 662.2503208284835 26.4 L 663.0329931059181 97.1 L 663.8156653833527 97.1 L 664.5983376607871 250.8 L 665.3810099382217 250.8 L 666.1636822156563 272.7 L 666.9463544930909 272.7 L 667.7290267705255 262 L 668.5116990479601 262 L 669.2943713253945 121.2 L 670.0770436028291 121.2 L 670.8597158802637 28.4 L 671.6423881576983 28.4 L 672.4250604351329 26.8 L 673.2077327125675 26.8 L 673.9904049900019 27.1 L 674.7730772674365 27.1 L 675.5557495448711 46.6 L 676.3384218223057 46.6 L 677.1210940997403 199.7 L 677.9037663771749 199.7 L 678.6864386546093 272.8 L 679.4691109320439 272.1 L 680.2517832094785 272.1 L 681.0344554869131 206.6 L 681.8171277643477 206.6 L 682.5998000417823 49.7 L 683.3824723192167 49.7 L 684.1651445966513 27.1 L 684.9478168740859 111.2 L 685.7304891515205 251.5 L 686.5131614289551 273.4 L 687.2958337063895 273.4 L 688.0785059838241 256.7 L 688.8611782612587 256.7 L 689.6438505386933 108.1 L 690.4265228161279 108.1 L 691.2091950935625 27.9 L 691.9918673709969 27.9 L 692.7745396484315 27.1 L 693.5572119258661 27.1 L 694.3398842033007 26.7 L 695.1225564807353 26.7 L 695.9052287581699 52.7 L 696.6879010356043 52.7 L 697.4705733130389 202.8 L 698.2532455904735 202.8 L 699.0359178679081 270.3 L 699.8185901453427 270.3 L 700.6012624227773 270.9 L 701.3839347002117 270.9 L 702.1666069776463 192.4 L 702.9492792550809 192.4 L 703.7319515325155 41.5 L 704.5146238099501 41.5 L 705.2972960873847 27.6 L 706.0799683648191 27.6 L 706.8626406422537 26.5 L 707.6453129196883 26.5 L 708.4279851971229 31.1 L 709.2106574745575 31.1 L 709.9933297519921 140.6 L 710.7760020294265 140.6 L 711.5586743068611 265.5 L 712.3413465842957 265.5 L 713.1240188617303 272.4 L 713.9066911391649 272.4 L 714.6893634165993 232.1 L 715.4720356940339 232.1 L 716.2547079714685 70.4 L 717.0373802489031 70.4 L 717.8200525263377 27.1 L 718.6027248037723 27.1 L 719.3853970812067 27.1 L 720.1680693586413 27.1 L 720.9507416360759 27 L 721.7334139135105 27 L 722.5160861909451 80.8 L 723.2987584683797 242.3 L 724.0814307458141 273.7 L 724.8641030232487 269.1 L 725.6467753006833 269.1 L 726.4294475781179 165.6 L 727.2121198555525 165.6 L 727.9947921329871 34.8 L 728.7774644104215 34.8 L 729.5601366878561 27 L 730.3428089652907 27 L 731.1254812427253 26.9 L 731.9081535201599 26.9 L 732.6908257975945 38.4 L 733.4734980750289 38.4 L 734.2561703524635 167.6 L 735.0388426298981 167.6 L 735.8215149073327 265.7 L 736.6041871847673 265.7 L 737.3868594622018 273.8 L 738.1695317396363 273.8 L 738.9522040170709 234.3 L 739.7348762945055 234.3 L 740.5175485719401 70 L 741.3002208493747 70 L 742.0828931268092 26.9 L 742.8655654042437 26.9 L 743.6482376816783 26.8 L 744.4309099591129 26.8 L 745.2135822365475 27.3 L 745.9962545139821 27.3 L 746.7789267914166 58.7 L 747.5615990688511 58.7 L 748.3442713462857 220.5 L 749.1269436237203 220.5 L 749.9096159011549 272.3 L 750.6922881785895 272.3 L 751.474960456024 265.8 L 752.2576327334585 265.8 L 753.0403050108931 137.3 L 753.8229772883277 137.3 L 754.6056495657623 29.9 L 755.3883218431969 29.9 L 756.1709941206313 26.9 L 756.9536663980659 26.9 L 757.7363386755005 27.1 L 758.5190109529351 27.1 L 759.3016832303697 48.5 L 760.0843555078043 48.5 L 760.8670277852387 201.2 L 761.6497000626733 152.9 L 762.4323723401079 48.6 L 763.2150446175425 48.6 L 763.9977168949771 27.4 L 764.7803891724116 27.4 L 765.5630614498461 26.8 L 766.3457337272807 26.8 L 767.1284060047153 29.2 L 767.9110782821499 29.2 L 768.6937505595845 130.8 L 769.476422837019 130.8 L 770.2590951144535 263.2 L 771.0417673918881 271.9 L 771.8244396693227 271.9 L 772.6071119467573 243 L 773.3897842241919 243 L 774.1724565016264 106.7 L 774.9551287790609 106.7 L 775.7378010564955 27.6 L 776.5204733339301 27.6 L 777.3031456113647 26.7 L 778.0858178887993 26.7 L 778.8684901662338 27.4 L 779.6511624436683 27.4 L 780.4338347211029 64.1 L 781.2165069985375 64.1 L 781.9991792759721 227.4 L 782.7818515534067 227.4 L 783.5645238308412 272.2 L 784.3471961082757 272.2 L 785.1298683857103 270.9 L 785.9125406631449 270.9 L 786.6952129405795 175.6 L 787.477885218014 175.6 L 788.2605574954486 36.8 L 789.0432297728831 36.8 L 789.8259020503177 27.3 L 790.6085743277523 27.3 L 791.3912466051869 26.7 L 792.1739188826214 26.7 L 792.956591160056 36.3 L 793.7392634374905 36.3 L 794.5219357149251 168.5 L 795.3046079923597 168.5 L 796.0872802697943 269.6 L 796.8699525472288 269.6 L 797.6526248246633 260.2 L 798.4352971020979 260.2 L 799.2179693795325 233.3 L 800.0006416569671 26.7 L 800.7833139344017 26.7 L 801.5659862118363 27.4 L 802.3486584892709 27.4 L 803.1313307667054 26.2 L 803.91400304414 26.2 L 804.6966753215745 65 L 805.4793475990091 65 L 806.2620198764437 226.9 L 807.0446921538783 226.9 L 807.8273644313128 273.1 L 808.6100367087474 273.1 L 809.3927089861819 256.8 L 810.1753812636165 256.8 L 810.9580535410511 116.5 L 811.7407258184857 116.5 L 812.5233980959202 29.7 L 813.3060703733548 29.7 L 814.0887426507893 26 L 814.8714149282239 26 L 815.6540872056585 28.2 L 816.436759483093 28.2 L 817.2194317605276 26.6 L 818.0021040379622 26.6 L 818.7847763153967 52.1 L 819.5674485928313 52.1 L 820.3501208702659 165.6 L 821.1327931477005 165.6 L 821.915465425135 267.3 L 822.6981377025696 267.3 L 823.4808099800041 231.5 L 824.2634822574387 231.5 L 825.0461545348733 66.7 L 825.8288268123079 66.7 L 826.6114990897424 26.9 L 827.394171367177 26.9 L 828.1768436446115 26.3 L 828.9595159220461 26.3 L 829.7421881994807 27.8 L 830.5248604769153 27.8 L 831.3075327543498 63.6 L 832.0902050317843 225.2 L 832.8728773092189 225.2 L 833.6555495866535 237.6 L 834.4382218640881 237.6 L 835.2208941415226 209.4 L 836.0035664189572 209.4 L 836.7862386963917 130.4 L 837.5689109738263 130.4 L 838.3515832512609 27.1 L 839.1342555286955 50.5 L 839.91692780613 206.2 L 840.6996000835646 206.2 L 841.4822723609991 272.2 L 842.2649446384337 272.2 L 843.0476169158683 272.2 L 843.8302891933029 272.2 L 844.6129614707374 210.6 L 845.395633748172 210.6 L 846.1783060256065 51.7 L 846.9609783030411 51.7 L 847.7436505804757 27.1 L 848.5263228579103 27.1 L 849.3089951353448 26.8 L 850.0916674127794 26.8 L 850.8743396902139 29.3 L 851.6570119676485 29.3 L 852.4396842450831 132.1 L 853.2223565225177 132.1 L 854.0050287999522 263 L 854.7877010773867 263 L 855.5703733548213 273.2 L 856.3530456322559 273.2 L 857.1357179096905 250.5 L 857.918390187125 250.5 L 858.7010624645596 94.9 L 859.4837347419941 94.9 L 860.2664070194287 27.4 L 861.0490792968633 27.4 L 861.8317515742979 26.9 L 862.6144238517325 26.9 L 863.397096129167 26.7 L 864.1797684066015 26.7 L 864.9624406840361 69.7 L 865.7451129614707 69.7 L 866.5277852389053 231.7 L 867.3104575163399 231.7 L 868.0931297937744 273.1 L 868.8758020712089 273.1 L 869.6584743486435 272.1 L 870.4411466260781 272.1 L 871.2238189035127 185.2 L 872.0064911809473 185.2 L 872.7891634583818 40.9 L 873.5718357358163 26.7 L 874.3545080132509 26.7 L 875.1371802906855 27.1 L 875.9198525681201 27.1 L 876.7025248455546 160.9 L 877.4851971229892 160.9 L 878.2678694004237 269 L 879.0505416778583 269 L 879.8332139552929 272.5 L 880.6158862327275 272.5 L 881.398558510162 245.8 L 882.1812307875965 245.8 L 882.9639030650311 84.4 L 883.7465753424657 84.4 L 884.5292476199003 26.8 L 885.3119198973349 26.8 L 886.0945921747694 27.6 L 886.8772644522039 27.6 L 887.6599367296385 27.4 L 888.4426090070731 27.4 L 889.2252812845077 83.9 L 890.0079535619423 83.9 L 890.7906258393768 244.8 L 891.5732981168113 244.8 L 892.3559703942459 272.6 L 893.1386426716805 272.6 L 893.9213149491151 266.7 L 894.7039872265497 266.7 L 895.4866595039842 143 L 896.2693317814187 143 L 897.0520040588533 31.3 L 897.8346763362879 31.3 L 898.6173486137225 26.5 L 899.400020891157 26.5 L 900.1826931685916 27.3 L 900.9653654460261 27.3 L 901.7480377234607 38.2 L 902.5307100008953 38.2 L 903.3133822783299 167.3 L 904.0960545557645 221 L 904.8787268331989 221 L 905.6613991106335 228.7 L 906.4440713880681 228.7 L 907.2267436655027 229.5 L 908.0094159429373 229.5 L 908.7920882203719 64.9 L 909.5747604978063 64.9 L 910.3574327752409 27.1 L 911.1401050526755 27.1 L 911.9227773301101 26.3 L 912.7054496075447 26.3 L 913.4881218849793 27.8 L 914.2707941624137 27.8 L 915.0534664398483 265.9 L 915.8361387172829 171.9 L 916.6188109947175 171.9 L 917.4014832721521 93.7 L 918.1841555495866 93.7 L 918.9668278270211 29.8 L 919.7495001044557 29.8 L 920.5321723818903 26.6 L 921.3148446593249 26.6 L 922.0975169367595 26.5 L 922.880189214194 26.5 L 923.6628614916285 32 L 924.4455337690631 32 L 925.2282060464977 116.7 L 926.0108783239323 116.7 L 926.7935506013669 256 L 927.5762228788014 256 L 928.3588951562359 262.8 L 929.1415674336705 262.8 L 929.9242397111051 206.6 L 930.7069119885397 206.6 L 931.4895842659743 50.3 L 932.2722565434087 50.3 L 933.0549288208433 27.4 L 933.8376010982779 27.4 L 934.6202733757125 27.1 L 935.4029456531471 28.9 L 936.1856179305817 28.9 L 936.9682902080161 61.9 L 937.7509624854507 61.9 L 938.5336347628853 91.9 L 939.3163070403199 91.9 L 940.0989793177545 166.9 L 940.881651595189 166.9 L 941.6643238726235 156 L 942.4469961500581 156 L 943.2296684274927 85.2 L 944.0123407049273 85.2 L 944.7950129823619 28 L 945.5776852597965 28 L 946.3603575372309 27.1 L 947.1430298146655 27.1 L 947.9257020921001 27.4 L 948.7083743695347 27.4 L 949.4910466469693 46.4 L 950.2737189244039 46.4 L 951.0563912018383 106.7 L 951.8390634792729 106.7 L 952.6217357567075 109 L 953.4044080341421 123.9 L 954.1870803115767 168.4 L 954.9697525890111 168.4 L 955.7524248664457 38.2 L 956.5350971438803 28.1 L 957.3177694213149 28.1 L 958.1004416987495 27.1 L 958.8831139761841 27.1 L 959.6657862536185 33.5 L 960.4484585310531 33.5 L 961.2311308084877 156 L 962.0138030859223 156 L 962.7964753633569 265.1 L 963.5791476407915 265.1 L 964.3618199182259 269.1 L 965.1444921956605 269.1 L 965.9271644730951 230.7 L 966.7098367505297 230.7 L 967.4925090279643 72 L 968.2751813053989 72 L 969.0578535828333 26.1 L 969.8405258602679 26.1 L 970.6231981377025 27.4 L 971.4058704151371 27.4 L 972.1885426925717 26.5 L 972.9712149700063 26.5 L 973.7538872474407 90.6 L 974.5365595248753 90.6 L 975.3192318023099 190.5 L 976.1019040797445 190.5 L 976.8845763571791 242.8 L 977.6672486346137 242.8 L 978.4499209120481 267.9 L 979.2325931894827 267.9 L 980.0152654669173 157.6 L 980.7979377443519 157.6 L 981.5806100217865 33.2 L 982.3632822992209 33.2 L 983.1459545766555 26.8 L 983.9286268540901 26.8 L 984.7112991315247 27.1 L 985.4939714089593 27.1 L 986.2766436863939 41.3 L 987.0593159638283 41.3 L 987.8419882412629 185.5 L 988.6246605186975 185.5 L 989.4073327961321 270.1 L 990.1900050735667 270.1 L 990.9726773510013 270.9 L 991.7553496284357 227.2 L 992.5380219058703 62 L 993.3206941833049 27.6 L 994.1033664607395 27.6 L 994.8860387381741 26.6 L 995.6687110156087 26.6 L 996.4513832930431 27.9 L 997.2340555704777 27.9 L 998.0167278479123 101.3 L 998.7994001253469 101.3 L 999.5820724027815 246.1 L 1000.3647446802161 246.1 L 1001.1474169576505 268.6 L 1001.9300892350851 268.6 L 1002.7127615125197 242.2 L 1003.4954337899543 242.2 L 1004.2781060673889 113.2 L 1005.0607783448233 113.2 L 1005.8434506222579 28.2 L 1006.6261228996925 28.2 L 1007.4087951771271 26.7 L 1008.1914674545617 26.7 L 1008.9741397319963 27 L 1009.7568120094307 27 L 1010.5394842868653 58.5 L 1011.3221565642999 58.5 L 1012.1048288417345 201.2 L 1012.8875011191691 201.2 L 1013.6701733966037 204.7 L 1014.4528456740381 204.7 L 1015.2355179514727 245.6 L 1016.0181902289073 245.6 L 1016.8008625063419 167.5 L 1017.5835347837765 167.5 L 1018.3662070612111 39.6 L 1019.1488793386455 27.6 L 1019.9315516160801 27.6 L 1020.7142238935147 26.7 L 1021.4968961709493 26.7 L 1022.2795684483839 31.8 L 1023.0622407258185 31.8 L 1023.8449130032529 136.6 L 1024.6275852806875 136.6 L 1025.410257558122 257.5 L 1026.1929298355567 257.5 L 1026.9756021129913 271.1 L 1027.7582743904259 271.1 L 1028.5409466678605 226.9 L 1029.323618945295 226.9 L 1030.1062912227294 27.3 L 1030.888963500164 27.3 L 1031.6716357775986 27.1 L 1032.4543080550332 27.7 L 1033.2369803324677 27.7 L 1034.0196526099023 60.8 L 1034.802324887337 60.8 L 1035.5849971647715 225 L 1036.367669442206 225 L 1037.1503417196407 271.7 L 1037.9330139970752 271.7 L 1038.7156862745098 270.5 L 1048.7156862745098 270.5" class="highcharts-tracker highcharts-tracker" stroke-linejoin="round" visibility="visible" stroke-opacity="0.0001" stroke="rgb(192,192,192)" stroke-width="21" zIndex="2" style=""></path></g></g><g class="highcharts-axis-labels" zIndex="7"><text x="70.2843137254902" y="386" style="font-family:&quot;Lucida Grande&quot;, &quot;Lucida Sans Unicode&quot;, Verdana, Arial, Helvetica, sans-serif;font-size:11px;color:#666;cursor:default;line-height:14px;fill:#666;" text-anchor="middle" opacity="1"><tspan x="70.2843137254902">0</tspan></text><text x="148.55154146894677" y="386" style="font-family:&quot;Lucida Grande&quot;, &quot;Lucida Sans Unicode&quot;, Verdana, Arial, Helvetica, sans-serif;font-size:11px;color:#666;cursor:default;line-height:14px;fill:#666;" text-anchor="middle" opacity="1"><tspan x="148.55154146894677">100</tspan></text><text x="226.81876921240334" y="386" style="font-family:&quot;Lucida Grande&quot;, &quot;Lucida Sans Unicode&quot;, Verdana, Arial, Helvetica, sans-serif;font-size:11px;color:#666;cursor:default;line-height:14px;fill:#666;" text-anchor="middle" opacity="1"><tspan x="226.81876921240334">200</tspan></text><text x="305.0859969558599" y="386" style="font-family:&quot;Lucida Grande&quot;, &quot;Lucida Sans Unicode&quot;, Verdana, Arial, Helvetica, sans-serif;font-size:11px;color:#666;cursor:default;line-height:14px;fill:#666;" text-anchor="middle" opacity="1"><tspan x="305.0859969558599">300</tspan></text><text x="383.3532246993165" y="386" style="font-family:&quot;Lucida Grande&quot;, &quot;Lucida Sans Unicode&quot;, Verdana, Arial, Helvetica, sans-serif;font-size:11px;color:#666;cursor:default;line-height:14px;fill:#666;" text-anchor="middle" opacity="1"><tspan x="383.3532246993165">400</tspan></text><text x="461.62045244277306" y="386" style="font-family:&quot;Lucida Grande&quot;, &quot;Lucida Sans Unicode&quot;, Verdana, Arial, Helvetica, sans-serif;font-size:11px;color:#666;cursor:default;line-height:14px;fill:#666;" text-anchor="middle" opacity="1"><tspan x="461.62045244277306">500</tspan></text><text x="539.8876801862297" y="386" style="font-family:&quot;Lucida Grande&quot;, &quot;Lucida Sans Unicode&quot;, Verdana, Arial, Helvetica, sans-serif;font-size:11px;color:#666;cursor:default;line-height:14px;fill:#666;" text-anchor="middle" opacity="1"><tspan x="539.8876801862297">600</tspan></text><text x="618.1549079296863" y="386" style="font-family:&quot;Lucida Grande&quot;, &quot;Lucida Sans Unicode&quot;, Verdana, Arial, Helvetica, sans-serif;font-size:11px;color:#666;cursor:default;line-height:14px;fill:#666;" text-anchor="middle" opacity="1"><tspan x="618.1549079296863">700</tspan></text><text x="696.4221356731429" y="386" style="font-family:&quot;Lucida Grande&quot;, &quot;Lucida Sans Unicode&quot;, Verdana, Arial, Helvetica, sans-serif;font-size:11px;color:#666;cursor:default;line-height:14px;fill:#666;" text-anchor="middle" opacity="1"><tspan x="696.4221356731429">800</tspan></text><text x="774.6893634165993" y="386" style="font-family:&quot;Lucida Grande&quot;, &quot;Lucida Sans Unicode&quot;, Verdana, Arial, Helvetica, sans-serif;font-size:11px;color:#666;cursor:default;line-height:14px;fill:#666;" text-anchor="middle" opacity="1"><tspan x="774.6893634165993">900</tspan></text><text x="852.956591160056" y="386" style="font-family:&quot;Lucida Grande&quot;, &quot;Lucida Sans Unicode&quot;, Verdana, Arial, Helvetica, sans-serif;font-size:11px;color:#666;cursor:default;line-height:14px;fill:#666;" text-anchor="middle" opacity="1"><tspan x="852.956591160056">1,000</tspan></text><text x="931.2238189035127" y="386" style="font-family:&quot;Lucida Grande&quot;, &quot;Lucida Sans Unicode&quot;, Verdana, Arial, Helvetica, sans-serif;font-size:11px;color:#666;cursor:default;line-height:14px;fill:#666;" text-anchor="middle" opacity="1"><tspan x="931.2238189035127">1,100</tspan></text><text x="1009.4910466469693" y="386" style="font-family:&quot;Lucida Grande&quot;, &quot;Lucida Sans Unicode&quot;, Verdana, Arial, Helvetica, sans-serif;font-size:11px;color:#666;cursor:default;line-height:14px;fill:#666;" text-anchor="middle" opacity="1"><tspan x="1009.4910466469693">1,200</tspan></text><text x="1087.7582743904259" y="386" style="font-family:&quot;Lucida Grande&quot;, &quot;Lucida Sans Unicode&quot;, Verdana, Arial, Helvetica, sans-serif;font-size:11px;color:#666;cursor:default;line-height:14px;fill:#666;" text-anchor="middle" opacity="1"><tspan x="1087.7582743904259">1,300</tspan></text></g><g class="highcharts-axis-labels" zIndex="7"><text x="52" y="378.115625" style="font-family:&quot;Lucida Grande&quot;, &quot;Lucida Sans Unicode&quot;, Verdana, Arial, Helvetica, sans-serif;font-size:11px;width:505px;color:#666;cursor:default;line-height:14px;fill:#666;" text-anchor="end" opacity="1"><tspan x="52">0</tspan></text><text x="52" y="317.78229166666665" style="font-family:&quot;Lucida Grande&quot;, &quot;Lucida Sans Unicode&quot;, Verdana, Arial, Helvetica, sans-serif;font-size:11px;width:505px;color:#666;cursor:default;line-height:14px;fill:#666;" text-anchor="end" opacity="1"><tspan x="52">0.1</tspan></text><text x="52" y="257.44895833333334" style="font-family:&quot;Lucida Grande&quot;, &quot;Lucida Sans Unicode&quot;, Verdana, Arial, Helvetica, sans-serif;font-size:11px;width:505px;color:#666;cursor:default;line-height:14px;fill:#666;" text-anchor="end" opacity="1"><tspan x="52">0.2</tspan></text><text x="52" y="197.115625" style="font-family:&quot;Lucida Grande&quot;, &quot;Lucida Sans Unicode&quot;, Verdana, Arial, Helvetica, sans-serif;font-size:11px;width:505px;color:#666;cursor:default;line-height:14px;fill:#666;" text-anchor="end" opacity="1"><tspan x="52">0.3</tspan></text><text x="52" y="136.78229166666662" style="font-family:&quot;Lucida Grande&quot;, &quot;Lucida Sans Unicode&quot;, Verdana, Arial, Helvetica, sans-serif;font-size:11px;width:505px;color:#666;cursor:default;line-height:14px;fill:#666;" text-anchor="end" opacity="1"><tspan x="52">0.4</tspan></text><text x="52" y="76.44895833333331" style="font-family:&quot;Lucida Grande&quot;, &quot;Lucida Sans Unicode&quot;, Verdana, Arial, Helvetica, sans-serif;font-size:11px;width:505px;color:#666;cursor:default;line-height:14px;fill:#666;" text-anchor="end" opacity="1"><tspan x="52">0.5</tspan></text><text x="52" y="16.115625" style="font-family:&quot;Lucida Grande&quot;, &quot;Lucida Sans Unicode&quot;, Verdana, Arial, Helvetica, sans-serif;font-size:11px;width:505px;color:#666;cursor:default;line-height:14px;fill:#666;" text-anchor="end" opacity="1"><tspan x="52">0.6</tspan></text></g><g class="highcharts-tooltip" zIndex="8" style="cursor:default;padding:0;white-space:nowrap;" visibility="hidden" transform="translate(0,0)"><rect rx="3" ry="3" fill="none" x="0.5" y="0.5" width="16" height="16" fill-opacity="0.85" isShadow="true" stroke="black" stroke-opacity="0.049999999999999996" stroke-width="5" transform="translate(1, 1)"></rect><rect rx="3" ry="3" fill="none" x="0.5" y="0.5" width="16" height="16" fill-opacity="0.85" isShadow="true" stroke="black" stroke-opacity="0.09999999999999999" stroke-width="3" transform="translate(1, 1)"></rect><rect rx="3" ry="3" fill="none" x="0.5" y="0.5" width="16" height="16" fill-opacity="0.85" isShadow="true" stroke="black" stroke-opacity="0.15" stroke-width="1" transform="translate(1, 1)"></rect><rect rx="3" ry="3" fill="rgb(255,255,255)" x="0.5" y="0.5" width="16" height="16" fill-opacity="0.85"></rect><text x="8" y="21" style="font-family:&quot;Lucida Grande&quot;, &quot;Lucida Sans Unicode&quot;, Verdana, Arial, Helvetica, sans-serif;font-size:12px;color:#333333;fill:#333333;" zIndex="1"></text></g><text x="1109" y="395" style="font-family:&quot;Lucida Grande&quot;, &quot;Lucida Sans Unicode&quot;, Verdana, Arial, Helvetica, sans-serif;font-size:9px;cursor:pointer;color:#909090;fill:#909090;" text-anchor="end" zIndex="8"><tspan x="1109">Highcharts.com</tspan></text></svg>