<svg xmlns="http://www.w3.org/2000/svg" version="1.1" width="1120" height="400"><desc>Created with Highcharts 3.0.2</desc><defs><clipPath id="highcharts-1"><rect fill="none" x="0" y="0" width="1050" height="361"></rect></clipPath></defs><rect rx="5" ry="5" fill="#FFFFFF" x="0" y="0" width="1120" height="400"></rect><g class="highcharts-grid" zIndex="1"></g><g class="highcharts-grid" zIndex="1"><path fill="none" d="M 60 312.5 L 1110 312.5" stroke="#C0C0C0" stroke-width="1" zIndex="1" opacity="1"></path><path fill="none" d="M 60 251.5 L 1110 251.5" stroke="#C0C0C0" stroke-width="1" zIndex="1" opacity="1"></path><path fill="none" d="M 60 191.5 L 1110 191.5" stroke="#C0C0C0" stroke-width="1" zIndex="1" opacity="1"></path><path fill="none" d="M 60 131.5 L 1110 131.5" stroke="#C0C0C0" stroke-width="1" zIndex="1" opacity="1"></path><path fill="none" d="M 60 70.5 L 1110 70.5" stroke="#C0C0C0" stroke-width="1" zIndex="1" opacity="1"></path><path fill="none" d="M 60 10.5 L 1110 10.5" stroke="#C0C0C0" stroke-width="1" zIndex="1" opacity="1"></path><path fill="none" d="M 60 371.5 L 1110 371.5" stroke="#C0C0C0" stroke-width="1" zIndex="1" opacity="1"></path></g><g class="highcharts-axis" zIndex="2"><path fill="none" d="M 180.5 372 L 180.5 377" stroke="#C0D0E0" stroke-width="1" opacity="1"></path><path fill="none" d="M 291.5 372 L 291.5 377" stroke="#C0D0E0" stroke-width="1" opacity="1"></path><path fill="none" d="M 402.5 372 L 402.5 377" stroke="#C0D0E0" stroke-width="1" opacity="1"></path><path fill="none" d="M 513.5 372 L 513.5 377" stroke="#C0D0E0" stroke-width="1" opacity="1"></path><path fill="none" d="M 623.5 372 L 623.5 377" stroke="#C0D0E0" stroke-width="1" opacity="1"></path><path fill="none" d="M 734.5 372 L 734.5 377" stroke="#C0D0E0" stroke-width="1" opacity="1"></path><path fill="none" d="M 845.5 372 L 845.5 377" stroke="#C0D0E0" stroke-width="1" opacity="1"></path><path fill="none" d="M 956.5 372 L 956.5 377" stroke="#C0D0E0" stroke-width="1" opacity="1"></path><path fill="none" d="M 1067.5 372 L 1067.5 377" stroke="#C0D0E0" stroke-width="1" opacity="1"></path><path fill="none" d="M 69.5 372 L 69.5 377" stroke="#C0D0E0" stroke-width="1" opacity="1"></path><path fill="none" d="M 60 371.5 L 1110 371.5" stroke="#C0D0E0" stroke-width="1" zIndex="7" visibility="visible"></path></g><g class="highcharts-axis" zIndex="2"><text x="24.59375" y="191" style="font-family:&quot;Lucida Grande&quot;, &quot;Lucida Sans Unicode&quot;, Verdana, Arial, Helvetica, sans-serif;font-size:12px;color:#4d759e;font-weight:bold;fill:#4d759e;" zIndex="7" text-anchor="middle" transform="translate(0,0) rotate(270 24.59375 191)" visibility="visible"><tspan x="24.59375">Amperage</tspan></text></g><g class="highcharts-series-group" zIndex="3"><g class="highcharts-series" visibility="visible" zIndex="0.1" transform="translate(60,10) scale(1 1)" clip-path="url(#highcharts-1)"><path fill="none" d="M 10.294117647058826 306.8 L 11.402203507883241 306.8 L 12.510289368707657 263.1 L 13.618375229532074 263.1 L 14.726461090356489 239.5 L 15.834546951180904 239.5 L 16.94263281200532 277.6 L 18.050718672829735 277.6 L 19.158804533654152 280.8 L 20.266890394478565 280.8 L 21.374976255302983 287.2 L 22.4830621161274 287.2 L 23.591147976951813 286.8 L 24.69923383777623 286.8 L 25.807319698600647 287.6 L 26.915405559425064 287.6 L 28.023491420249478 288 L 29.131577281073895 288 L 30.239663141898312 287.9 L 31.347749002722725 287.9 L 32.45583486354714 275.3 L 33.563920724371556 275.3 L 34.67200658519597 274.5 L 35.78009244602039 274.5 L 36.88817830684481 266.6 L 37.996264167669224 266.6 L 39.10435002849364 280.2 L 40.21243588931805 286.5 L 41.32052175014247 286.5 L 42.428607610966885 292.7 L 43.5366934717913 292.7 L 44.64477933261572 311 L 45.75286519344014 311 L 46.86095105426455 294.9 L 47.969036915088964 294.9 L 49.07712277591338 294.7 L 50.1852086367378 294.7 L 51.293294497562215 285.9 L 52.40138035838663 285.9 L 53.50946621921105 287.8 L 54.61755208003546 287.8 L 55.725637940859876 286.9 L 56.83372380168429 286.9 L 57.94180966250871 282.7 L 59.04989552333313 282.7 L 60.157981384157544 280.2 L 61.266067244981954 280.2 L 62.37415310580637 281.6 L 63.48223896663079 281.6 L 64.5903248274552 287.7 L 65.69841068827962 287.7 L 66.80649654910404 280.6 L 67.91458240992846 280.6 L 69.02266827075287 273.6 L 70.13075413157729 273.6 L 71.23883999240171 285.5 L 72.34692585322613 285.5 L 73.45501171405054 288.3 L 74.56309757487496 288.3 L 75.67118343569938 287.5 L 76.7792692965238 287.5 L 77.88735515734821 287 L 78.99544101817263 287 L 80.10352687899703 295.1 L 81.21161273982145 295.1 L 82.31969860064586 309.6 L 83.42778446147028 309.6 L 84.5358703222947 293.1 L 85.64395618311912 293.1 L 86.75204204394353 291.3 L 87.86012790476795 291.3 L 88.96821376559237 286 L 90.07629962641678 286 L 91.1843854872412 287.3 L 92.29247134806562 287.3 L 93.40055720889004 286.9 L 94.50864306971444 286.7 L 95.61672893053886 286.7 L 96.72481479136327 289.5 L 97.83290065218769 289.5 L 98.9409865130121 280 L 100.04907237383652 280 L 101.15715823466094 276.6 L 102.26524409548536 276.6 L 103.37332995630977 272.8 L 104.48141581713419 272.8 L 105.58950167795861 280.5 L 106.69758753878303 280.5 L 107.80567339960743 287.2 L 108.91375926043185 287.2 L 110.02184512125626 287.5 L 111.12993098208068 287.5 L 112.2380168429051 287.1 L 113.34610270372951 287.1 L 114.45418856455393 298.1 L 115.56227442537835 298.1 L 116.67036028620277 307.6 L 117.77844614702718 307.6 L 118.8865320078516 293 L 119.99461786867602 293 L 121.10270372950043 290 L 122.21078959032484 290 L 123.31887545114925 282.4 L 124.42696131197367 287 L 125.53504717279809 287 L 126.6431330336225 287.9 L 127.75121889444692 287.9 L 128.85930475527135 286.9 L 129.96739061609574 286.9 L 131.07547647692016 286.6 L 132.18356233774458 286.6 L 133.291648198569 291.1 L 134.3997340593934 291.1 L 135.50781992021783 280.2 L 136.61590578104224 280.2 L 137.72399164186666 276.3 L 138.83207750269108 276.3 L 139.9401633635155 259 L 141.0482492243399 259 L 142.1563350851643 236.3 L 143.26442094598872 236.3 L 144.37250680681313 280.6 L 145.48059266763755 280.6 L 146.58867852846197 282.7 L 147.6967643892864 300.7 L 148.8048502501108 300.7 L 149.91293611093522 295.9 L 151.02102197175964 295.9 L 152.12910783258405 224.2 L 153.23719369340847 224.2 L 154.3452795542329 183.1 L 155.4533654150573 183.1 L 156.56145127588172 114.2 L 157.66953713670614 114.2 L 158.77762299753056 128.4 L 159.88570885835497 128.4 L 160.9937947191794 153.9 L 162.1018805800038 153.9 L 163.20996644082823 164.3 L 164.31805230165264 164.3 L 165.42613816247706 160.3 L 166.53422402330148 160.3 L 167.6423098841259 169.8 L 168.7503957449503 169.8 L 169.85848160577473 185.9 L 170.96656746659912 185.9 L 172.07465332742353 195 L 173.18273918824795 195 L 174.29082504907237 192.1 L 175.39891090989678 192.1 L 176.5069967707212 175.1 L 177.61508263154562 175.1 L 178.72316849237004 190.3 L 179.83125435319445 190.3 L 180.93934021401887 219.6 L 182.0474260748433 219.6 L 183.1555119356677 226.1 L 184.26359779649212 226.1 L 185.37168365731654 230.3 L 186.47976951814096 230.3 L 187.58785537896537 223.5 L 188.6959412397898 223.5 L 189.8040271006142 190.9 L 190.91211296143862 190.9 L 192.02019882226304 183.7 L 193.12828468308746 183.7 L 194.23637054391187 190 L 195.3444564047363 190 L 196.4525422655607 180.8 L 197.56062812638513 180.8 L 198.66871398720951 172.7 L 199.77679984803393 179.8 L 200.88488570885835 179.8 L 201.99297156968277 259.2 L 203.10105743050718 259.2 L 204.2091432913316 287 L 205.31722915215602 287 L 206.42531501298043 275 L 207.53340087380485 275 L 208.64148673462927 272.2 L 209.74957259545369 272.2 L 210.8576584562781 286 L 211.96574431710252 286 L 213.07383017792694 286.8 L 214.18191603875135 286.8 L 215.29000189957577 286.6 L 216.3980877604002 286.6 L 217.5061736212246 284 L 218.61425948204902 284 L 219.72234534287344 287.9 L 220.83043120369786 287.9 L 221.93851706452227 302.6 L 223.0466029253467 302.6 L 224.1546887861711 299.9 L 225.26277464699552 299.9 L 226.37086050781994 283 L 227.47894636864433 285.2 L 228.58703222946875 285.2 L 229.69511809029316 287.8 L 230.80320395111758 287.8 L 231.911289811942 286.9 L 233.01937567276642 286.9 L 234.12746153359083 286.1 L 235.23554739441525 286.1 L 236.34363325523967 270.7 L 237.45171911606408 270.7 L 238.5598049768885 249.4 L 239.66789083771292 249.4 L 240.77597669853733 244.1 L 241.88406255936175 244.1 L 242.99214842018617 244.7 L 244.1002342810106 244.7 L 245.208320141835 229.6 L 246.31640600265942 229.6 L 247.42449186348384 280.5 L 248.53257772430825 280.5 L 249.64066358513267 280.4 L 250.7487494459571 280.4 L 251.8568353067815 268.2 L 252.96492116760592 268.2 L 254.07300702843034 281.5 L 255.18109288925473 281.5 L 256.28917875007915 286.4 L 257.39726461090356 286.4 L 258.505350471728 287.1 L 259.6134363325524 287.1 L 260.7215221933768 287.7 L 261.82960805420123 287.7 L 262.93769391502565 287.4 L 264.04577977585006 287.4 L 265.1538656366745 286.2 L 266.2619514974989 286.2 L 267.3700373583233 265.7 L 268.47812321914773 265.7 L 269.58620907997215 278.6 L 270.69429494079657 278.6 L 271.802380801621 283.4 L 272.9104666624454 283.4 L 274.0185525232698 271.1 L 275.12663838409424 271.1 L 276.23472424491865 278.7 L 277.34281010574307 278.7 L 278.4508959665675 287.6 L 279.5589818273919 287.6 L 280.6670676882163 287.3 L 281.77515354904074 287.3 L 282.88323940986515 283.7 L 283.9913252706896 283.7 L 285.099411131514 288.9 L 286.2074969923384 307.3 L 287.3155828531628 307.3 L 288.42366871398724 294.1 L 289.53175457481166 294.1 L 290.6398404356361 293.5 L 291.7479262964605 293.5 L 292.8560121572849 281.3 L 293.9640980181093 281.3 L 295.07218387893374 285.7 L 296.18026973975816 285.7 L 297.2883556005826 288.3 L 298.396441461407 288.3 L 299.5045273222314 287 L 300.6126131830558 287 L 301.72069904388024 286.6 L 302.82878490470466 286.6 L 303.9368707655291 288.3 L 305.0449566263535 288.3 L 306.1530424871779 284.6 L 307.26112834800233 284.6 L 308.36921420882675 281.2 L 309.47730006965116 281.2 L 310.5853859304756 281 L 311.6934717913 281 L 312.8015576521244 286.9 L 313.90964351294883 286.9 L 315.01772937377325 288.3 L 316.12581523459767 288 L 317.2339010954221 288 L 318.3419869562465 294.8 L 319.4500728170709 294.8 L 320.55815867789534 307.6 L 321.66624453871975 307.6 L 322.77433039954417 294.2 L 323.8824162603686 294.2 L 324.990502121193 291.9 L 326.0985879820174 291.9 L 327.20667384284184 281.6 L 328.31475970366625 281.6 L 329.4228455644906 286.7 L 330.53093142531503 286.7 L 331.63901728613945 287.8 L 332.74710314696387 287.8 L 333.8551890077883 287.4 L 334.9632748686127 287.4 L 336.0713607294371 287 L 337.17944659026153 287 L 338.28753245108595 290 L 339.39561831191037 290 L 340.5037041727348 280.1 L 341.6117900335592 280.1 L 342.7198758943836 257.4 L 343.82796175520804 257.4 L 344.93604761603245 226 L 346.04413347685687 226 L 347.1522193376813 279.1 L 348.2603051985057 279.1 L 349.3683910593301 282.5 L 350.47647692015454 282.5 L 351.58456278097896 279.3 L 352.6926486418034 279.3 L 353.8007345026278 266.2 L 354.9088203634522 266.2 L 356.0169062242766 282.8 L 357.12499208510104 282.8 L 358.23307794592546 307.6 L 359.3411638067499 307.6 L 360.4492496675743 298.6 L 361.5573355283987 298.6 L 362.6654213892231 291.2 L 363.77350725004754 291.2 L 364.88159311087196 287.6 L 365.9896789716964 286.9 L 367.0977648325208 286.9 L 368.2058506933452 290.4 L 369.31393655416963 290.4 L 370.42202241499405 279.8 L 371.53010827581846 279.8 L 372.6381941366429 279.3 L 373.7462799974673 279.3 L 374.8543658582917 271.6 L 375.96245171911613 271.6 L 377.07053757994055 284.6 L 378.17862344076497 284.6 L 379.2867093015894 275.6 L 380.3947951624138 275.6 L 381.5028810232382 254.6 L 382.61096688406263 254.6 L 383.71905274488705 285.4 L 384.82713860571147 285.4 L 385.93522446653583 302.9 L 387.04331032736025 302.9 L 388.15139618818466 301.9 L 389.2594820490091 301.9 L 390.3675679098335 292.8 L 391.4756537706579 292.8 L 392.58373963148233 289.3 L 393.69182549230675 289.3 L 394.79991135313117 272.6 L 395.9079972139556 272.6 L 397.01608307478 230.1 L 398.1241689356044 230.1 L 399.23225479642883 273.5 L 400.34034065725325 273.5 L 401.44842651807767 287.3 L 402.5565123789021 287.3 L 403.6645982397265 286.1 L 404.7726841005509 286.1 L 405.88076996137534 290.4 L 406.98885582219975 290.4 L 408.09694168302417 281.3 L 409.2050275438486 281.3 L 410.313113404673 278.3 L 411.4211992654974 273.5 L 412.52928512632184 273.5 L 413.63737098714626 286 L 414.7454568479707 286 L 415.8535427087951 288.6 L 416.9616285696195 288.6 L 418.0697144304439 288.1 L 419.17780029126834 283.5 L 420.28588615209276 255.4 L 421.3939720129172 255.4 L 422.5020578737416 251 L 423.610143734566 251 L 424.7182295953904 296.3 L 425.82631545621484 285 L 426.93440131703926 285 L 428.0424871778637 286.3 L 429.1505730386881 286.3 L 430.2586588995125 287.5 L 431.3667447603369 287.5 L 432.47483062116135 288.8 L 433.58291648198576 288.8 L 434.6910023428102 287.7 L 435.7990882036346 287.7 L 436.907174064459 286 L 438.01525992528343 286 L 439.12334578610785 266.5 L 440.23143164693226 266.5 L 441.3395175077567 229.1 L 442.4476033685811 229.1 L 443.55568922940546 224.1 L 444.6637750902299 224.1 L 445.7718609510543 275.4 L 446.8799468118787 275.4 L 447.9880326727031 287.4 L 449.09611853352754 287.4 L 450.20420439435196 288.3 L 451.3122902551764 288.3 L 452.4203761160008 287.2 L 453.5284619768252 287.2 L 454.63654783764963 289.6 L 455.74463369847405 289.6 L 456.85271955929846 307.4 L 457.9608054201229 307.4 L 459.0688912809473 299.1 L 460.1769771417717 299.1 L 461.28506300259613 297.3 L 462.39314886342055 297.3 L 463.50123472424497 287.5 L 464.6093205850694 287.5 L 465.7174064458938 286.3 L 466.8254923067182 286.3 L 467.93357816754263 278.5 L 469.04166402836705 278.5 L 470.14974988919147 283.7 L 471.2578357500159 283.7 L 472.3659216108403 287.2 L 473.4740074716647 287.4 L 474.58209333248914 289.2 L 475.69017919331355 282.7 L 476.79826505413797 282.7 L 477.9063509149624 273.6 L 479.0144367757868 273.6 L 480.1225226366112 277.5 L 481.23060849743564 277.5 L 482.33869435826006 287 L 483.4467802190845 287 L 484.5548660799089 288.6 L 485.6629519407333 288.6 L 486.7710378015577 287.8 L 487.87912366238214 287.8 L 488.98720952320656 291.6 L 490.095295384031 291.6 L 491.2033812448554 308.3 L 492.3114671056798 308.3 L 493.4195529665042 292.5 L 494.52763882732864 292.5 L 495.63572468815306 295.2 L 496.7438105489775 295.2 L 497.8518964098019 286.9 L 498.9599822706263 286.9 L 500.0680681314507 287.7 L 501.1761539922751 287.7 L 502.2842398530995 288 L 503.3923257139239 288 L 504.50041157474834 287.3 L 505.60849743557276 287.3 L 506.7165832963972 287.3 L 507.8246691572216 287.3 L 508.932755018046 288.3 L 510.0408408788704 288.3 L 511.14892673969484 284.6 L 512.2570126005193 284.6 L 513.3650984613437 281.8 L 514.4731843221681 281.8 L 515.5812701829925 273.8 L 516.6893560438169 273.8 L 517.7974419046413 284 L 518.9055277654658 284 L 520.0136136262902 288.8 L 521.1216994871146 288.8 L 522.229785347939 287.4 L 523.3378712087634 287.4 L 524.4459570695878 288.1 L 525.5540429304123 288.1 L 526.6621287912367 293.2 L 527.7702146520611 296.8 L 528.8783005128855 296.8 L 529.9863863737099 294.6 L 531.0944722345344 294.6 L 532.2025580953588 286.9 L 533.3106439561832 286.9 L 534.4187298170076 287.3 L 535.526815677832 287.3 L 536.6349015386564 288.2 L 537.7429873994809 288.2 L 538.8510732603053 288.5 L 539.9591591211297 286.6 L 541.0672449819541 286.6 L 542.1753308427785 290 L 543.2834167036029 290 L 544.3915025644274 264 L 545.4995884252518 264 L 546.6076742860762 237.1 L 547.7157601469006 237.1 L 548.823846007725 267.6 L 549.9319318685494 267.6 L 551.0400177293739 272.7 L 552.1481035901983 272.7 L 553.2561894510227 260.3 L 554.3642753118471 260.3 L 555.4723611726715 279.4 L 556.580447033496 279.4 L 557.6885328943204 276.8 L 558.7966187551448 276.8 L 559.9047046159692 296.3 L 561.0127904767936 296.3 L 562.120876337618 307.2 L 563.2289621984424 307.2 L 564.3370480592669 298 L 565.4451339200913 298 L 566.5532197809157 293.4 L 567.66130564174 293.4 L 568.7693915025644 286.9 L 569.8774773633888 286.9 L 570.9855632242133 288.5 L 572.0936490850377 288.5 L 573.2017349458621 288.6 L 574.3098208066865 288.6 L 575.4179066675109 287.9 L 576.5259925283353 287.9 L 577.6340783891598 286.9 L 578.7421642499842 286.9 L 579.8502501108086 290 L 580.958335971633 290 L 582.0664218324574 282.2 L 583.1745076932818 275.4 L 584.2825935541063 275.4 L 585.3906794149307 284.9 L 586.4987652757551 284.9 L 587.6068511365795 288.6 L 588.7149369974039 288.6 L 589.8230228582283 288.9 L 590.9311087190528 288.9 L 592.0391945798772 287.8 L 593.1472804407016 287.8 L 594.255366301526 300.4 L 595.3634521623504 300.4 L 596.4715380231748 303.6 L 597.5796238839993 303.6 L 598.6877097448237 295.6 L 599.7957956056481 295.6 L 600.9038814664725 290.5 L 602.0119673272969 290.5 L 603.1200531881213 286.9 L 604.2281390489458 286.9 L 605.3362249097702 288.5 L 606.4443107705946 288.5 L 607.552396631419 286.3 L 608.6604824922434 286.3 L 609.7685683530678 284.4 L 610.8766542138923 284.4 L 611.9847400747167 282.7 L 613.0928259355411 282.7 L 614.2009117963655 284.2 L 615.3089976571899 284.2 L 616.4170835180144 276.3 L 617.5251693788388 276.3 L 618.6332552396632 274.5 L 619.7413411004876 274.5 L 620.849426961312 266.9 L 621.9575128221364 266.9 L 623.0655986829609 258.2 L 624.1736845437853 258.2 L 625.2817704046097 216 L 626.3898562654341 216 L 627.4979421262585 272.8 L 628.6060279870829 272.8 L 629.7141138479074 287.3 L 630.8221997087318 287.3 L 631.9302855695562 301.9 L 633.0383714303806 301.9 L 634.146457291205 300.7 L 635.2545431520293 300.7 L 636.3626290128537 288.5 L 637.4707148736782 286.9 L 638.5788007345026 286.9 L 639.686886595327 287 L 640.7949724561514 287 L 641.9030583169758 262.4 L 643.0111441778002 262.4 L 644.1192300386247 276 L 645.2273158994491 276 L 646.3354017602735 287.2 L 647.4434876210979 287.2 L 648.5515734819223 267.7 L 649.6596593427467 267.7 L 650.7677452035712 254.8 L 651.8758310643956 254.8 L 652.98391692522 277.9 L 654.0920027860444 277.9 L 655.2000886468688 276.2 L 656.3081745076933 276.2 L 657.4162603685177 287.3 L 658.5243462293421 287.3 L 659.6324320901665 286.9 L 660.7405179509909 286.9 L 661.8486038118153 289.4 L 662.9566896726398 289.4 L 664.0647755334642 288.1 L 665.1728613942886 288.1 L 666.280947255113 306.7 L 667.3890331159374 306.7 L 668.4971189767618 317.4 L 669.6052048375863 307.8 L 670.7132906984107 307.8 L 671.8213765592351 289.8 L 672.9294624200595 289.8 L 674.0375482808839 287.2 L 675.1456341417083 287.2 L 676.2537200025328 288.5 L 677.3618058633572 288.5 L 678.4698917241816 289.2 L 679.577977585006 289.2 L 680.6860634458304 287.2 L 681.7941493066548 287.2 L 682.9022351674793 287.5 L 684.0103210283037 287.5 L 685.1184068891281 297.2 L 686.2264927499525 297.2 L 687.3345786107769 300.9 L 688.4426644716013 300.9 L 689.5507503324258 280.3 L 690.6588361932502 280.4 L 691.7669220540746 287.5 L 692.875007914899 288.6 L 693.9830937757234 288.6 L 695.0911796365478 288.5 L 696.1992654973723 288.5 L 697.3073513581967 289.6 L 698.4154372190211 289.6 L 699.5235230798455 309.9 L 700.6316089406699 309.9 L 701.7396948014944 317 L 702.8477806623188 317 L 703.9558665231432 305.3 L 705.0639523839676 305.3 L 706.172038244792 288.6 L 707.2801241056164 288.6 L 708.3882099664409 286.9 L 709.4962958272653 286.9 L 710.6043816880897 262.4 L 711.7124675489141 262.4 L 712.8205534097385 267.8 L 713.9286392705629 267.8 L 715.0367251313874 286.5 L 716.1448109922118 286.5 L 717.2528968530362 288.3 L 718.3609827138606 288.3 L 719.469068574685 299.3 L 720.5771544355094 299.3 L 721.6852402963339 298 L 722.7933261571583 298 L 723.9014120179827 277 L 725.0094978788071 277 L 726.1175837396315 282.7 L 727.225669600456 282.7 L 728.3337554612804 288.3 L 729.4418413221048 288.3 L 730.5499271829292 288.8 L 731.6580130437536 288.8 L 732.766098904578 288.5 L 733.8741847654024 288.5 L 734.9822706262269 291.4 L 736.0903564870513 291.4 L 737.1984423478757 312.4 L 738.3065282087001 312.4 L 739.4146140695245 316.3 L 740.522699930349 316.3 L 741.6307857911734 301.5 L 742.7388716519978 301.5 L 743.8469575128222 287.5 L 744.9550433736466 288.5 L 746.063129234471 287 L 747.1712150952955 257.5 L 748.2793009561199 257.5 L 749.3873868169442 262 L 750.4954726777686 262 L 751.603558538593 292.8 L 752.7116443994174 292.8 L 753.8197302602418 272.9 L 754.9278161210663 272.9 L 756.0359019818907 283.3 L 757.1439878427151 283.3 L 758.2520737035395 287.6 L 759.3601595643639 287.6 L 760.4682454251883 289.1 L 761.5763312860128 289.1 L 762.6844171468372 288 L 763.7925030076616 288 L 764.900588868486 294.1 L 766.0086747293104 294.1 L 767.1167605901348 314 L 768.2248464509593 314 L 769.3329323117837 315.6 L 770.4410181726081 315.6 L 771.5491040334325 297.7 L 772.6571898942569 297.7 L 773.7652757550813 288.3 L 774.8733616159058 288.3 L 775.9814474767302 287.3 L 777.0895333375546 287.3 L 778.197619198379 288.9 L 779.3057050592034 288.9 L 780.4137909200279 287.9 L 781.5218767808523 287.9 L 782.6299626416767 282.4 L 783.7380485025011 282.4 L 784.8461343633255 265.1 L 785.9542202241499 265.1 L 787.0623060849744 296 L 788.1703919457988 296 L 789.2784778066232 283.1 L 790.3865636674476 283.1 L 791.494649528272 273.3 L 792.6027353890964 273.3 L 793.7108212499209 279.1 L 794.8189071107453 288.6 L 795.9269929715697 288.6 L 797.0350788323941 287.8 L 798.1431646932185 287.8 L 799.2512505540429 316.6 L 800.3593364148674 316.6 L 801.4674222756918 314.5 L 802.5755081365162 296 L 803.6835939973406 296 L 804.791679858165 287.7 L 805.8997657189894 287.7 L 807.0078515798139 287.2 L 808.1159374406383 287.2 L 809.2240233014627 288.3 L 810.3321091622871 288.3 L 811.4401950231115 287.8 L 812.548280883936 287.8 L 813.6563667447604 274.9 L 814.7644526055848 274.9 L 815.8725384664092 289 L 816.9806243272336 289 L 818.088710188058 302.3 L 819.1967960488824 302.3 L 820.3048819097069 287.5 L 821.4129677705313 287.5 L 822.5210536313557 276.6 L 823.6291394921801 276.6 L 824.7372253530045 286.3 L 825.845311213829 286.3 L 826.9533970746534 288.3 L 828.0614829354778 288.3 L 829.1695687963022 282.9 L 830.2776546571266 282.9 L 831.385740517951 232.5 L 832.4938263787755 232.5 L 833.6019122395999 183.8 L 834.7099981004243 183.8 L 835.8180839612487 192.8 L 836.9261698220731 192.8 L 838.0342556828975 204.5 L 839.142341543722 204.5 L 840.2504274045464 193 L 841.3585132653708 193 L 842.4665991261952 189 L 843.5746849870196 189 L 844.682770847844 182 L 845.7908567086685 182 L 846.8989425694929 175.5 L 848.0070284303173 175.5 L 849.1151142911417 183.2 L 850.2232001519661 183.2 L 851.3312860127905 174.1 L 852.439371873615 174.1 L 853.5474577344394 175.5 L 854.6555435952638 177.1 L 855.7636294560882 177.1 L 856.8717153169126 203.2 L 857.979801177737 203.2 L 859.0878870385615 247.2 L 860.1959728993859 247.2 L 861.3040587602103 250.4 L 862.4121446210346 250.4 L 863.520230481859 224.9 L 864.6283163426834 224.9 L 865.7364022035079 79.3 L 866.8444880643323 79.3 L 867.9525739251567 120.7 L 869.0606597859811 120.7 L 870.1687456468055 202.5 L 871.2768315076299 202.5 L 872.3849173684544 258 L 873.4930032292788 258 L 874.6010890901032 275.3 L 875.7091749509276 275.3 L 876.817260811752 270 L 877.9253466725764 270 L 879.0334325334009 277.8 L 880.1415183942253 277.8 L 881.2496042550497 280.5 L 882.3576901158741 280.5 L 883.4657759766985 280.4 L 884.5738618375229 280.4 L 885.6819476983474 243.7 L 886.7900335591718 243.7 L 887.8981194199962 155.6 L 889.0062052808206 155.6 L 890.114291141645 166.3 L 891.2223770024694 166.3 L 892.3304628632939 178.6 L 893.4385487241183 178.6 L 894.5466345849427 138.6 L 895.6547204457671 -25.9 L 896.7628063065915 -25.9 L 897.870892167416 42.1 L 898.9789780282404 42.1 L 900.0870638890648 182.8 L 901.1951497498892 182.8 L 902.3032356107136 262.3 L 903.411321471538 262.3 L 904.5194073323624 263.6 L 905.6274931931869 263.6 L 906.7355790540113 308.7 L 907.8436649148357 305.7 L 908.9517507756601 283.9 L 910.0598366364845 283.9 L 911.167922497309 283.1 L 912.2760083581334 283.1 L 913.3840942189578 282.5 L 914.4921800797822 282.5 L 915.6002659406066 283.7 L 916.708351801431 283.7 L 917.8164376622555 282.7 L 918.9245235230799 262.4 L 920.0326093839043 262.4 L 921.1406952447287 263.2 L 922.2487811055531 263.2 L 923.3568669663775 271.4 L 924.464952827202 271.4 L 925.5730386880264 270 L 926.6811245488508 270 L 927.7892104096752 277.4 L 928.8972962704996 277.4 L 930.005382131324 281.5 L 931.1134679921485 281.5 L 932.2215538529729 255.6 L 933.3296397137973 255.6 L 934.4377255746217 264.7 L 935.5458114354461 264.7 L 936.6538972962705 272.3 L 937.761983157095 272.3 L 938.8700690179194 288.8 L 939.9781548787438 288.8 L 941.0862407395682 309.8 L 942.1943266003926 309.8 L 943.302412461217 294.5 L 944.4104983220415 294.5 L 945.5185841828659 284 L 946.6266700436903 284 L 947.7347559045147 283.1 L 948.8428417653391 283.1 L 949.9509276261635 283.9 L 951.059013486988 283.9 L 952.1670993478124 282.8 L 953.2751852086368 282.8 L 954.3832710694612 249.8 L 955.4913569302856 249.8 L 956.59944279111 234.9 L 957.7075286519345 234.9 L 958.8156145127589 295.6 L 959.9237003735833 295.6 L 961.0317862344077 297.1 L 962.1398720952321 278.4 L 963.2479579560566 278.4 L 964.356043816881 283.6 L 965.4641296777054 283.6 L 966.5722155385298 283.9 L 967.6803013993542 283.9 L 968.7883872601786 283.4 L 969.896473121003 283.4 L 971.0045589818275 282.7 L 972.1126448426519 282.7 L 973.2207307034763 297.8 L 974.3288165643007 297.8 L 975.436902425125 316.1 L 976.5449882859494 316.1 L 977.6530741467739 299.2 L 978.7611600075983 299.2 L 979.8692458684227 284 L 980.9773317292471 284 L 982.0854175900715 282.4 L 983.193503450896 282.4 L 984.3015893117204 283.9 L 985.4096751725448 283.9 L 986.5177610333692 283.5 L 987.6258468941936 283.5 L 988.733932755018 283.2 L 989.8420186158424 283.2 L 990.9501044766669 278.4 L 992.0581903374913 278.4 L 993.1662761983157 283.5 L 994.2743620591401 286.5 L 995.3824479199645 286.5 L 996.490533780789 272.9 L 997.5986196416134 272.9 L 998.7067055024378 279.3 L 999.8147913632622 279.3 L 1000.9228772240866 284.2 L 1002.030963084911 284.2 L 1003.1390489457355 283.1 L 1004.2471348065599 283.1 L 1005.3552206673843 283.5 L 1006.4633065282087 283.5 L 1007.5713923890331 285.9 L 1008.6794782498575 285.9 L 1009.787564110682 309.7 L 1010.8956499715064 309.7 L 1012.0037358323308 316.2 L 1013.1118216931552 316.2 L 1014.2199075539796 295.7 L 1015.327993414804 295.7 L 1016.4360792756285 283.9 L 1017.5441651364529 283.9 L 1018.6522509972773 282.2 L 1019.7603368581017 282.2 L 1020.8684227189261 279.5 L 1021.9765085797505 279.5 L 1023.084594440575 302.7 L 1024.1926803013994 302.7 L 1025.300766162224 290.7 L 1026.4088520230482 290.7 L 1027.5169378838727 272.8 L 1028.625023744697 272.8 L 1029.7331096055216 281.2 L 1030.8411954663459 281.2 L 1031.9492813271704 282.5 L 1033.0573671879947 282.5 L 1034.165453048819 283.9 L 1035.2735389096435 283.9 L 1036.3816247704679 284.2 L 1037.4897106312924 284.2 L 1038.5977964921167 288.6 L 1039.7058823529412 288.6" stroke="#492970" stroke-width="1" zIndex="1"></path></g><g class="highcharts-markers" visibility="visible" zIndex="0.1" transform="translate(60,10) scale(1 1)" clip-path="none"><path fill="none" d="M 0.29411764705882604 306.8 L 10.294117647058826 306.8 L 11.402203507883241 306.8 L 12.510289368707657 263.1 L 13.618375229532074 263.1 L 14.726461090356489 239.5 L 15.834546951180904 239.5 L 16.94263281200532 277.6 L 18.050718672829735 277.6 L 19.158804533654152 280.8 L 20.266890394478565 280.8 L 21.374976255302983 287.2 L 22.4830621161274 287.2 L 23.591147976951813 286.8 L 24.69923383777623 286.8 L 25.807319698600647 287.6 L 26.915405559425064 287.6 L 28.023491420249478 288 L 29.131577281073895 288 L 30.239663141898312 287.9 L 31.347749002722725 287.9 L 32.45583486354714 275.3 L 33.563920724371556 275.3 L 34.67200658519597 274.5 L 35.78009244602039 274.5 L 36.88817830684481 266.6 L 37.996264167669224 266.6 L 39.10435002849364 280.2 L 40.21243588931805 286.5 L 41.32052175014247 286.5 L 42.428607610966885 292.7 L 43.5366934717913 292.7 L 44.64477933261572 311 L 45.75286519344014 311 L 46.86095105426455 294.9 L 47.969036915088964 294.9 L 49.07712277591338 294.7 L 50.1852086367378 294.7 L 51.293294497562215 285.9 L 52.40138035838663 285.9 L 53.50946621921105 287.8 L 54.61755208003546 287.8 L 55.725637940859876 286.9 L 56.83372380168429 286.9 L 57.94180966250871 282.7 L 59.04989552333313 282.7 L 60.157981384157544 280.2 L 61.266067244981954 280.2 L 62.37415310580637 281.6 L 63.48223896663079 281.6 L 64.5903248274552 287.7 L 65.69841068827962 287.7 L 66.80649654910404 280.6 L 67.91458240992846 280.6 L 69.02266827075287 273.6 L 70.13075413157729 273.6 L 71.23883999240171 285.5 L 72.34692585322613 285.5 L 73.45501171405054 288.3 L 74.56309757487496 288.3 L 75.67118343569938 287.5 L 76.7792692965238 287.5 L 77.88735515734821 287 L 78.99544101817263 287 L 80.10352687899703 295.1 L 81.21161273982145 295.1 L 82.31969860064586 309.6 L 83.42778446147028 309.6 L 84.5358703222947 293.1 L 85.64395618311912 293.1 L 86.75204204394353 291.3 L 87.86012790476795 291.3 L 88.96821376559237 286 L 90.07629962641678 286 L 91.1843854872412 287.3 L 92.29247134806562 287.3 L 93.40055720889004 286.9 L 94.50864306971444 286.7 L 95.61672893053886 286.7 L 96.72481479136327 289.5 L 97.83290065218769 289.5 L 98.9409865130121 280 L 100.04907237383652 280 L 101.15715823466094 276.6 L 102.26524409548536 276.6 L 103.37332995630977 272.8 L 104.48141581713419 272.8 L 105.58950167795861 280.5 L 106.69758753878303 280.5 L 107.80567339960743 287.2 L 108.91375926043185 287.2 L 110.02184512125626 287.5 L 111.12993098208068 287.5 L 112.2380168429051 287.1 L 113.34610270372951 287.1 L 114.45418856455393 298.1 L 115.56227442537835 298.1 L 116.67036028620277 307.6 L 117.77844614702718 307.6 L 118.8865320078516 293 L 119.99461786867602 293 L 121.10270372950043 290 L 122.21078959032484 290 L 123.31887545114925 282.4 L 124.42696131197367 287 L 125.53504717279809 287 L 126.6431330336225 287.9 L 127.75121889444692 287.9 L 128.85930475527135 286.9 L 129.96739061609574 286.9 L 131.07547647692016 286.6 L 132.18356233774458 286.6 L 133.291648198569 291.1 L 134.3997340593934 291.1 L 135.50781992021783 280.2 L 136.61590578104224 280.2 L 137.72399164186666 276.3 L 138.83207750269108 276.3 L 139.9401633635155 259 L 141.0482492243399 259 L 142.1563350851643 236.3 L 143.26442094598872 236.3 L 144.37250680681313 280.6 L 145.48059266763755 280.6 L 146.58867852846197 282.7 L 147.6967643892864 300.7 L 148.8048502501108 300.7 L 149.91293611093522 295.9 L 151.02102197175964 295.9 L 152.12910783258405 224.2 L 153.23719369340847 224.2 L 154.3452795542329 183.1 L 155.4533654150573 183.1 L 156.56145127588172 114.2 L 157.66953713670614 114.2 L 158.77762299753056 128.4 L 159.88570885835497 128.4 L 160.9937947191794 153.9 L 162.1018805800038 153.9 L 163.20996644082823 164.3 L 164.31805230165264 164.3 L 165.42613816247706 160.3 L 166.53422402330148 160.3 L 167.6423098841259 169.8 L 168.7503957449503 169.8 L 169.85848160577473 185.9 L 170.96656746659912 185.9 L 172.07465332742353 195 L 173.18273918824795 195 L 174.29082504907237 192.1 L 175.39891090989678 192.1 L 176.5069967707212 175.1 L 177.61508263154562 175.1 L 178.72316849237004 190.3 L 179.83125435319445 190.3 L 180.93934021401887 219.6 L 182.0474260748433 219.6 L 183.1555119356677 226.1 L 184.26359779649212 226.1 L 185.37168365731654 230.3 L 186.47976951814096 230.3 L 187.58785537896537 223.5 L 188.6959412397898 223.5 L 189.8040271006142 190.9 L 190.91211296143862 190.9 L 192.02019882226304 183.7 L 193.12828468308746 183.7 L 194.23637054391187 190 L 195.3444564047363 190 L 196.4525422655607 180.8 L 197.56062812638513 180.8 L 198.66871398720951 172.7 L 199.77679984803393 179.8 L 200.88488570885835 179.8 L 201.99297156968277 259.2 L 203.10105743050718 259.2 L 204.2091432913316 287 L 205.31722915215602 287 L 206.42531501298043 275 L 207.53340087380485 275 L 208.64148673462927 272.2 L 209.74957259545369 272.2 L 210.8576584562781 286 L 211.96574431710252 286 L 213.07383017792694 286.8 L 214.18191603875135 286.8 L 215.29000189957577 286.6 L 216.3980877604002 286.6 L 217.5061736212246 284 L 218.61425948204902 284 L 219.72234534287344 287.9 L 220.83043120369786 287.9 L 221.93851706452227 302.6 L 223.0466029253467 302.6 L 224.1546887861711 299.9 L 225.26277464699552 299.9 L 226.37086050781994 283 L 227.47894636864433 285.2 L 228.58703222946875 285.2 L 229.69511809029316 287.8 L 230.80320395111758 287.8 L 231.911289811942 286.9 L 233.01937567276642 286.9 L 234.12746153359083 286.1 L 235.23554739441525 286.1 L 236.34363325523967 270.7 L 237.45171911606408 270.7 L 238.5598049768885 249.4 L 239.66789083771292 249.4 L 240.77597669853733 244.1 L 241.88406255936175 244.1 L 242.99214842018617 244.7 L 244.1002342810106 244.7 L 245.208320141835 229.6 L 246.31640600265942 229.6 L 247.42449186348384 280.5 L 248.53257772430825 280.5 L 249.64066358513267 280.4 L 250.7487494459571 280.4 L 251.8568353067815 268.2 L 252.96492116760592 268.2 L 254.07300702843034 281.5 L 255.18109288925473 281.5 L 256.28917875007915 286.4 L 257.39726461090356 286.4 L 258.505350471728 287.1 L 259.6134363325524 287.1 L 260.7215221933768 287.7 L 261.82960805420123 287.7 L 262.93769391502565 287.4 L 264.04577977585006 287.4 L 265.1538656366745 286.2 L 266.2619514974989 286.2 L 267.3700373583233 265.7 L 268.47812321914773 265.7 L 269.58620907997215 278.6 L 270.69429494079657 278.6 L 271.802380801621 283.4 L 272.9104666624454 283.4 L 274.0185525232698 271.1 L 275.12663838409424 271.1 L 276.23472424491865 278.7 L 277.34281010574307 278.7 L 278.4508959665675 287.6 L 279.5589818273919 287.6 L 280.6670676882163 287.3 L 281.77515354904074 287.3 L 282.88323940986515 283.7 L 283.9913252706896 283.7 L 285.099411131514 288.9 L 286.2074969923384 307.3 L 287.3155828531628 307.3 L 288.42366871398724 294.1 L 289.53175457481166 294.1 L 290.6398404356361 293.5 L 291.7479262964605 293.5 L 292.8560121572849 281.3 L 293.9640980181093 281.3 L 295.07218387893374 285.7 L 296.18026973975816 285.7 L 297.2883556005826 288.3 L 298.396441461407 288.3 L 299.5045273222314 287 L 300.6126131830558 287 L 301.72069904388024 286.6 L 302.82878490470466 286.6 L 303.9368707655291 288.3 L 305.0449566263535 288.3 L 306.1530424871779 284.6 L 307.26112834800233 284.6 L 308.36921420882675 281.2 L 309.47730006965116 281.2 L 310.5853859304756 281 L 311.6934717913 281 L 312.8015576521244 286.9 L 313.90964351294883 286.9 L 315.01772937377325 288.3 L 316.12581523459767 288 L 317.2339010954221 288 L 318.3419869562465 294.8 L 319.4500728170709 294.8 L 320.55815867789534 307.6 L 321.66624453871975 307.6 L 322.77433039954417 294.2 L 323.8824162603686 294.2 L 324.990502121193 291.9 L 326.0985879820174 291.9 L 327.20667384284184 281.6 L 328.31475970366625 281.6 L 329.4228455644906 286.7 L 330.53093142531503 286.7 L 331.63901728613945 287.8 L 332.74710314696387 287.8 L 333.8551890077883 287.4 L 334.9632748686127 287.4 L 336.0713607294371 287 L 337.17944659026153 287 L 338.28753245108595 290 L 339.39561831191037 290 L 340.5037041727348 280.1 L 341.6117900335592 280.1 L 342.7198758943836 257.4 L 343.82796175520804 257.4 L 344.93604761603245 226 L 346.04413347685687 226 L 347.1522193376813 279.1 L 348.2603051985057 279.1 L 349.3683910593301 282.5 L 350.47647692015454 282.5 L 351.58456278097896 279.3 L 352.6926486418034 279.3 L 353.8007345026278 266.2 L 354.9088203634522 266.2 L 356.0169062242766 282.8 L 357.12499208510104 282.8 L 358.23307794592546 307.6 L 359.3411638067499 307.6 L 360.4492496675743 298.6 L 361.5573355283987 298.6 L 362.6654213892231 291.2 L 363.77350725004754 291.2 L 364.88159311087196 287.6 L 365.9896789716964 286.9 L 367.0977648325208 286.9 L 368.2058506933452 290.4 L 369.31393655416963 290.4 L 370.42202241499405 279.8 L 371.53010827581846 279.8 L 372.6381941366429 279.3 L 373.7462799974673 279.3 L 374.8543658582917 271.6 L 375.96245171911613 271.6 L 377.07053757994055 284.6 L 378.17862344076497 284.6 L 379.2867093015894 275.6 L 380.3947951624138 275.6 L 381.5028810232382 254.6 L 382.61096688406263 254.6 L 383.71905274488705 285.4 L 384.82713860571147 285.4 L 385.93522446653583 302.9 L 387.04331032736025 302.9 L 388.15139618818466 301.9 L 389.2594820490091 301.9 L 390.3675679098335 292.8 L 391.4756537706579 292.8 L 392.58373963148233 289.3 L 393.69182549230675 289.3 L 394.79991135313117 272.6 L 395.9079972139556 272.6 L 397.01608307478 230.1 L 398.1241689356044 230.1 L 399.23225479642883 273.5 L 400.34034065725325 273.5 L 401.44842651807767 287.3 L 402.5565123789021 287.3 L 403.6645982397265 286.1 L 404.7726841005509 286.1 L 405.88076996137534 290.4 L 406.98885582219975 290.4 L 408.09694168302417 281.3 L 409.2050275438486 281.3 L 410.313113404673 278.3 L 411.4211992654974 273.5 L 412.52928512632184 273.5 L 413.63737098714626 286 L 414.7454568479707 286 L 415.8535427087951 288.6 L 416.9616285696195 288.6 L 418.0697144304439 288.1 L 419.17780029126834 283.5 L 420.28588615209276 255.4 L 421.3939720129172 255.4 L 422.5020578737416 251 L 423.610143734566 251 L 424.7182295953904 296.3 L 425.82631545621484 285 L 426.93440131703926 285 L 428.0424871778637 286.3 L 429.1505730386881 286.3 L 430.2586588995125 287.5 L 431.3667447603369 287.5 L 432.47483062116135 288.8 L 433.58291648198576 288.8 L 434.6910023428102 287.7 L 435.7990882036346 287.7 L 436.907174064459 286 L 438.01525992528343 286 L 439.12334578610785 266.5 L 440.23143164693226 266.5 L 441.3395175077567 229.1 L 442.4476033685811 229.1 L 443.55568922940546 224.1 L 444.6637750902299 224.1 L 445.7718609510543 275.4 L 446.8799468118787 275.4 L 447.9880326727031 287.4 L 449.09611853352754 287.4 L 450.20420439435196 288.3 L 451.3122902551764 288.3 L 452.4203761160008 287.2 L 453.5284619768252 287.2 L 454.63654783764963 289.6 L 455.74463369847405 289.6 L 456.85271955929846 307.4 L 457.9608054201229 307.4 L 459.0688912809473 299.1 L 460.1769771417717 299.1 L 461.28506300259613 297.3 L 462.39314886342055 297.3 L 463.50123472424497 287.5 L 464.6093205850694 287.5 L 465.7174064458938 286.3 L 466.8254923067182 286.3 L 467.93357816754263 278.5 L 469.04166402836705 278.5 L 470.14974988919147 283.7 L 471.2578357500159 283.7 L 472.3659216108403 287.2 L 473.4740074716647 287.4 L 474.58209333248914 289.2 L 475.69017919331355 282.7 L 476.79826505413797 282.7 L 477.9063509149624 273.6 L 479.0144367757868 273.6 L 480.1225226366112 277.5 L 481.23060849743564 277.5 L 482.33869435826006 287 L 483.4467802190845 287 L 484.5548660799089 288.6 L 485.6629519407333 288.6 L 486.7710378015577 287.8 L 487.87912366238214 287.8 L 488.98720952320656 291.6 L 490.095295384031 291.6 L 491.2033812448554 308.3 L 492.3114671056798 308.3 L 493.4195529665042 292.5 L 494.52763882732864 292.5 L 495.63572468815306 295.2 L 496.7438105489775 295.2 L 497.8518964098019 286.9 L 498.9599822706263 286.9 L 500.0680681314507 287.7 L 501.1761539922751 287.7 L 502.2842398530995 288 L 503.3923257139239 288 L 504.50041157474834 287.3 L 505.60849743557276 287.3 L 506.7165832963972 287.3 L 507.8246691572216 287.3 L 508.932755018046 288.3 L 510.0408408788704 288.3 L 511.14892673969484 284.6 L 512.2570126005193 284.6 L 513.3650984613437 281.8 L 514.4731843221681 281.8 L 515.5812701829925 273.8 L 516.6893560438169 273.8 L 517.7974419046413 284 L 518.9055277654658 284 L 520.0136136262902 288.8 L 521.1216994871146 288.8 L 522.229785347939 287.4 L 523.3378712087634 287.4 L 524.4459570695878 288.1 L 525.5540429304123 288.1 L 526.6621287912367 293.2 L 527.7702146520611 296.8 L 528.8783005128855 296.8 L 529.9863863737099 294.6 L 531.0944722345344 294.6 L 532.2025580953588 286.9 L 533.3106439561832 286.9 L 534.4187298170076 287.3 L 535.526815677832 287.3 L 536.6349015386564 288.2 L 537.7429873994809 288.2 L 538.8510732603053 288.5 L 539.9591591211297 286.6 L 541.0672449819541 286.6 L 542.1753308427785 290 L 543.2834167036029 290 L 544.3915025644274 264 L 545.4995884252518 264 L 546.6076742860762 237.1 L 547.7157601469006 237.1 L 548.823846007725 267.6 L 549.9319318685494 267.6 L 551.0400177293739 272.7 L 552.1481035901983 272.7 L 553.2561894510227 260.3 L 554.3642753118471 260.3 L 555.4723611726715 279.4 L 556.580447033496 279.4 L 557.6885328943204 276.8 L 558.7966187551448 276.8 L 559.9047046159692 296.3 L 561.0127904767936 296.3 L 562.120876337618 307.2 L 563.2289621984424 307.2 L 564.3370480592669 298 L 565.4451339200913 298 L 566.5532197809157 293.4 L 567.66130564174 293.4 L 568.7693915025644 286.9 L 569.8774773633888 286.9 L 570.9855632242133 288.5 L 572.0936490850377 288.5 L 573.2017349458621 288.6 L 574.3098208066865 288.6 L 575.4179066675109 287.9 L 576.5259925283353 287.9 L 577.6340783891598 286.9 L 578.7421642499842 286.9 L 579.8502501108086 290 L 580.958335971633 290 L 582.0664218324574 282.2 L 583.1745076932818 275.4 L 584.2825935541063 275.4 L 585.3906794149307 284.9 L 586.4987652757551 284.9 L 587.6068511365795 288.6 L 588.7149369974039 288.6 L 589.8230228582283 288.9 L 590.9311087190528 288.9 L 592.0391945798772 287.8 L 593.1472804407016 287.8 L 594.255366301526 300.4 L 595.3634521623504 300.4 L 596.4715380231748 303.6 L 597.5796238839993 303.6 L 598.6877097448237 295.6 L 599.7957956056481 295.6 L 600.9038814664725 290.5 L 602.0119673272969 290.5 L 603.1200531881213 286.9 L 604.2281390489458 286.9 L 605.3362249097702 288.5 L 606.4443107705946 288.5 L 607.552396631419 286.3 L 608.6604824922434 286.3 L 609.7685683530678 284.4 L 610.8766542138923 284.4 L 611.9847400747167 282.7 L 613.0928259355411 282.7 L 614.2009117963655 284.2 L 615.3089976571899 284.2 L 616.4170835180144 276.3 L 617.5251693788388 276.3 L 618.6332552396632 274.5 L 619.7413411004876 274.5 L 620.849426961312 266.9 L 621.9575128221364 266.9 L 623.0655986829609 258.2 L 624.1736845437853 258.2 L 625.2817704046097 216 L 626.3898562654341 216 L 627.4979421262585 272.8 L 628.6060279870829 272.8 L 629.7141138479074 287.3 L 630.8221997087318 287.3 L 631.9302855695562 301.9 L 633.0383714303806 301.9 L 634.146457291205 300.7 L 635.2545431520293 300.7 L 636.3626290128537 288.5 L 637.4707148736782 286.9 L 638.5788007345026 286.9 L 639.686886595327 287 L 640.7949724561514 287 L 641.9030583169758 262.4 L 643.0111441778002 262.4 L 644.1192300386247 276 L 645.2273158994491 276 L 646.3354017602735 287.2 L 647.4434876210979 287.2 L 648.5515734819223 267.7 L 649.6596593427467 267.7 L 650.7677452035712 254.8 L 651.8758310643956 254.8 L 652.98391692522 277.9 L 654.0920027860444 277.9 L 655.2000886468688 276.2 L 656.3081745076933 276.2 L 657.4162603685177 287.3 L 658.5243462293421 287.3 L 659.6324320901665 286.9 L 660.7405179509909 286.9 L 661.8486038118153 289.4 L 662.9566896726398 289.4 L 664.0647755334642 288.1 L 665.1728613942886 288.1 L 666.280947255113 306.7 L 667.3890331159374 306.7 L 668.4971189767618 317.4 L 669.6052048375863 307.8 L 670.7132906984107 307.8 L 671.8213765592351 289.8 L 672.9294624200595 289.8 L 674.0375482808839 287.2 L 675.1456341417083 287.2 L 676.2537200025328 288.5 L 677.3618058633572 288.5 L 678.4698917241816 289.2 L 679.577977585006 289.2 L 680.6860634458304 287.2 L 681.7941493066548 287.2 L 682.9022351674793 287.5 L 684.0103210283037 287.5 L 685.1184068891281 297.2 L 686.2264927499525 297.2 L 687.3345786107769 300.9 L 688.4426644716013 300.9 L 689.5507503324258 280.3 L 690.6588361932502 280.4 L 691.7669220540746 287.5 L 692.875007914899 288.6 L 693.9830937757234 288.6 L 695.0911796365478 288.5 L 696.1992654973723 288.5 L 697.3073513581967 289.6 L 698.4154372190211 289.6 L 699.5235230798455 309.9 L 700.6316089406699 309.9 L 701.7396948014944 317 L 702.8477806623188 317 L 703.9558665231432 305.3 L 705.0639523839676 305.3 L 706.172038244792 288.6 L 707.2801241056164 288.6 L 708.3882099664409 286.9 L 709.4962958272653 286.9 L 710.6043816880897 262.4 L 711.7124675489141 262.4 L 712.8205534097385 267.8 L 713.9286392705629 267.8 L 715.0367251313874 286.5 L 716.1448109922118 286.5 L 717.2528968530362 288.3 L 718.3609827138606 288.3 L 719.469068574685 299.3 L 720.5771544355094 299.3 L 721.6852402963339 298 L 722.7933261571583 298 L 723.9014120179827 277 L 725.0094978788071 277 L 726.1175837396315 282.7 L 727.225669600456 282.7 L 728.3337554612804 288.3 L 729.4418413221048 288.3 L 730.5499271829292 288.8 L 731.6580130437536 288.8 L 732.766098904578 288.5 L 733.8741847654024 288.5 L 734.9822706262269 291.4 L 736.0903564870513 291.4 L 737.1984423478757 312.4 L 738.3065282087001 312.4 L 739.4146140695245 316.3 L 740.522699930349 316.3 L 741.6307857911734 301.5 L 742.7388716519978 301.5 L 743.8469575128222 287.5 L 744.9550433736466 288.5 L 746.063129234471 287 L 747.1712150952955 257.5 L 748.2793009561199 257.5 L 749.3873868169442 262 L 750.4954726777686 262 L 751.603558538593 292.8 L 752.7116443994174 292.8 L 753.8197302602418 272.9 L 754.9278161210663 272.9 L 756.0359019818907 283.3 L 757.1439878427151 283.3 L 758.2520737035395 287.6 L 759.3601595643639 287.6 L 760.4682454251883 289.1 L 761.5763312860128 289.1 L 762.6844171468372 288 L 763.7925030076616 288 L 764.900588868486 294.1 L 766.0086747293104 294.1 L 767.1167605901348 314 L 768.2248464509593 314 L 769.3329323117837 315.6 L 770.4410181726081 315.6 L 771.5491040334325 297.7 L 772.6571898942569 297.7 L 773.7652757550813 288.3 L 774.8733616159058 288.3 L 775.9814474767302 287.3 L 777.0895333375546 287.3 L 778.197619198379 288.9 L 779.3057050592034 288.9 L 780.4137909200279 287.9 L 781.5218767808523 287.9 L 782.6299626416767 282.4 L 783.7380485025011 282.4 L 784.8461343633255 265.1 L 785.9542202241499 265.1 L 787.0623060849744 296 L 788.1703919457988 296 L 789.2784778066232 283.1 L 790.3865636674476 283.1 L 791.494649528272 273.3 L 792.6027353890964 273.3 L 793.7108212499209 279.1 L 794.8189071107453 288.6 L 795.9269929715697 288.6 L 797.0350788323941 287.8 L 798.1431646932185 287.8 L 799.2512505540429 316.6 L 800.3593364148674 316.6 L 801.4674222756918 314.5 L 802.5755081365162 296 L 803.6835939973406 296 L 804.791679858165 287.7 L 805.8997657189894 287.7 L 807.0078515798139 287.2 L 808.1159374406383 287.2 L 809.2240233014627 288.3 L 810.3321091622871 288.3 L 811.4401950231115 287.8 L 812.548280883936 287.8 L 813.6563667447604 274.9 L 814.7644526055848 274.9 L 815.8725384664092 289 L 816.9806243272336 289 L 818.088710188058 302.3 L 819.1967960488824 302.3 L 820.3048819097069 287.5 L 821.4129677705313 287.5 L 822.5210536313557 276.6 L 823.6291394921801 276.6 L 824.7372253530045 286.3 L 825.845311213829 286.3 L 826.9533970746534 288.3 L 828.0614829354778 288.3 L 829.1695687963022 282.9 L 830.2776546571266 282.9 L 831.385740517951 232.5 L 832.4938263787755 232.5 L 833.6019122395999 183.8 L 834.7099981004243 183.8 L 835.8180839612487 192.8 L 836.9261698220731 192.8 L 838.0342556828975 204.5 L 839.142341543722 204.5 L 840.2504274045464 193 L 841.3585132653708 193 L 842.4665991261952 189 L 843.5746849870196 189 L 844.682770847844 182 L 845.7908567086685 182 L 846.8989425694929 175.5 L 848.0070284303173 175.5 L 849.1151142911417 183.2 L 850.2232001519661 183.2 L 851.3312860127905 174.1 L 852.439371873615 174.1 L 853.5474577344394 175.5 L 854.6555435952638 177.1 L 855.7636294560882 177.1 L 856.8717153169126 203.2 L 857.979801177737 203.2 L 859.0878870385615 247.2 L 860.1959728993859 247.2 L 861.3040587602103 250.4 L 862.4121446210346 250.4 L 863.520230481859 224.9 L 864.6283163426834 224.9 L 865.7364022035079 79.3 L 866.8444880643323 79.3 L 867.9525739251567 120.7 L 869.0606597859811 120.7 L 870.1687456468055 202.5 L 871.2768315076299 202.5 L 872.3849173684544 258 L 873.4930032292788 258 L 874.6010890901032 275.3 L 875.7091749509276 275.3 L 876.817260811752 270 L 877.9253466725764 270 L 879.0334325334009 277.8 L 880.1415183942253 277.8 L 881.2496042550497 280.5 L 882.3576901158741 280.5 L 883.4657759766985 280.4 L 884.5738618375229 280.4 L 885.6819476983474 243.7 L 886.7900335591718 243.7 L 887.8981194199962 155.6 L 889.0062052808206 155.6 L 890.114291141645 166.3 L 891.2223770024694 166.3 L 892.3304628632939 178.6 L 893.4385487241183 178.6 L 894.5466345849427 138.6 L 895.6547204457671 -25.9 L 896.7628063065915 -25.9 L 897.870892167416 42.1 L 898.9789780282404 42.1 L 900.0870638890648 182.8 L 901.1951497498892 182.8 L 902.3032356107136 262.3 L 903.411321471538 262.3 L 904.5194073323624 263.6 L 905.6274931931869 263.6 L 906.7355790540113 308.7 L 907.8436649148357 305.7 L 908.9517507756601 283.9 L 910.0598366364845 283.9 L 911.167922497309 283.1 L 912.2760083581334 283.1 L 913.3840942189578 282.5 L 914.4921800797822 282.5 L 915.6002659406066 283.7 L 916.708351801431 283.7 L 917.8164376622555 282.7 L 918.9245235230799 262.4 L 920.0326093839043 262.4 L 921.1406952447287 263.2 L 922.2487811055531 263.2 L 923.3568669663775 271.4 L 924.464952827202 271.4 L 925.5730386880264 270 L 926.6811245488508 270 L 927.7892104096752 277.4 L 928.8972962704996 277.4 L 930.005382131324 281.5 L 931.1134679921485 281.5 L 932.2215538529729 255.6 L 933.3296397137973 255.6 L 934.4377255746217 264.7 L 935.5458114354461 264.7 L 936.6538972962705 272.3 L 937.761983157095 272.3 L 938.8700690179194 288.8 L 939.9781548787438 288.8 L 941.0862407395682 309.8 L 942.1943266003926 309.8 L 943.302412461217 294.5 L 944.4104983220415 294.5 L 945.5185841828659 284 L 946.6266700436903 284 L 947.7347559045147 283.1 L 948.8428417653391 283.1 L 949.9509276261635 283.9 L 951.059013486988 283.9 L 952.1670993478124 282.8 L 953.2751852086368 282.8 L 954.3832710694612 249.8 L 955.4913569302856 249.8 L 956.59944279111 234.9 L 957.7075286519345 234.9 L 958.8156145127589 295.6 L 959.9237003735833 295.6 L 961.0317862344077 297.1 L 962.1398720952321 278.4 L 963.2479579560566 278.4 L 964.356043816881 283.6 L 965.4641296777054 283.6 L 966.5722155385298 283.9 L 967.6803013993542 283.9 L 968.7883872601786 283.4 L 969.896473121003 283.4 L 971.0045589818275 282.7 L 972.1126448426519 282.7 L 973.2207307034763 297.8 L 974.3288165643007 297.8 L 975.436902425125 316.1 L 976.5449882859494 316.1 L 977.6530741467739 299.2 L 978.7611600075983 299.2 L 979.8692458684227 284 L 980.9773317292471 284 L 982.0854175900715 282.4 L 983.193503450896 282.4 L 984.3015893117204 283.9 L 985.4096751725448 283.9 L 986.5177610333692 283.5 L 987.6258468941936 283.5 L 988.733932755018 283.2 L 989.8420186158424 283.2 L 990.9501044766669 278.4 L 992.0581903374913 278.4 L 993.1662761983157 283.5 L 994.2743620591401 286.5 L 995.3824479199645 286.5 L 996.490533780789 272.9 L 997.5986196416134 272.9 L 998.7067055024378 279.3 L 999.8147913632622 279.3 L 1000.9228772240866 284.2 L 1002.030963084911 284.2 L 1003.1390489457355 283.1 L 1004.2471348065599 283.1 L 1005.3552206673843 283.5 L 1006.4633065282087 283.5 L 1007.5713923890331 285.9 L 1008.6794782498575 285.9 L 1009.787564110682 309.7 L 1010.8956499715064 309.7 L 1012.0037358323308 316.2 L 1013.1118216931552 316.2 L 1014.2199075539796 295.7 L 1015.327993414804 295.7 L 1016.4360792756285 283.9 L 1017.5441651364529 283.9 L 1018.6522509972773 282.2 L 1019.7603368581017 282.2 L 1020.8684227189261 279.5 L 1021.9765085797505 279.5 L 1023.084594440575 302.7 L 1024.1926803013994 302.7 L 1025.300766162224 290.7 L 1026.4088520230482 290.7 L 1027.5169378838727 272.8 L 1028.625023744697 272.8 L 1029.7331096055216 281.2 L 1030.8411954663459 281.2 L 1031.9492813271704 282.5 L 1033.0573671879947 282.5 L 1034.165453048819 283.9 L 1035.2735389096435 283.9 L 1036.3816247704679 284.2 L 1037.4897106312924 284.2 L 1038.5977964921167 288.6 L 1039.7058823529412 288.6 L 1049.7058823529412 288.6" class="highcharts-tracker highcharts-tracker" stroke-linejoin="round" visibility="visible" stroke-opacity="0.0001" stroke="rgb(192,192,192)" stroke-width="21" zIndex="2" style=""></path></g></g><g class="highcharts-axis-labels" zIndex="7"><text x="70.29411764705883" y="386" style="font-family:&quot;Lucida Grande&quot;, &quot;Lucida Sans Unicode&quot;, Verdana, Arial, Helvetica, sans-serif;font-size:11px;color:#666;cursor:default;line-height:14px;fill:#666;" text-anchor="middle" opacity="1"><tspan x="70.29411764705883">0</tspan></text><text x="181.10270372950043" y="386" style="font-family:&quot;Lucida Grande&quot;, &quot;Lucida Sans Unicode&quot;, Verdana, Arial, Helvetica, sans-serif;font-size:11px;color:#666;cursor:default;line-height:14px;fill:#666;" text-anchor="middle" opacity="1"><tspan x="181.10270372950043">100</tspan></text><text x="291.91128981194197" y="386" style="font-family:&quot;Lucida Grande&quot;, &quot;Lucida Sans Unicode&quot;, Verdana, Arial, Helvetica, sans-serif;font-size:11px;color:#666;cursor:default;line-height:14px;fill:#666;" text-anchor="middle" opacity="1"><tspan x="291.91128981194197">200</tspan></text><text x="402.7198758943836" y="386" style="font-family:&quot;Lucida Grande&quot;, &quot;Lucida Sans Unicode&quot;, Verdana, Arial, Helvetica, sans-serif;font-size:11px;color:#666;cursor:default;line-height:14px;fill:#666;" text-anchor="middle" opacity="1"><tspan x="402.7198758943836">300</tspan></text><text x="513.5284619768252" y="386" style="font-family:&quot;Lucida Grande&quot;, &quot;Lucida Sans Unicode&quot;, Verdana, Arial, Helvetica, sans-serif;font-size:11px;color:#666;cursor:default;line-height:14px;fill:#666;" text-anchor="middle" opacity="1"><tspan x="513.5284619768252">400</tspan></text><text x="624.3370480592669" y="386" style="font-family:&quot;Lucida Grande&quot;, &quot;Lucida Sans Unicode&quot;, Verdana, Arial, Helvetica, sans-serif;font-size:11px;color:#666;cursor:default;line-height:14px;fill:#666;" text-anchor="middle" opacity="1"><tspan x="624.3370480592669">500</tspan></text><text x="735.1456341417083" y="386" style="font-family:&quot;Lucida Grande&quot;, &quot;Lucida Sans Unicode&quot;, Verdana, Arial, Helvetica, sans-serif;font-size:11px;color:#666;cursor:default;line-height:14px;fill:#666;" text-anchor="middle" opacity="1"><tspan x="735.1456341417083">600</tspan></text><text x="845.9542202241499" y="386" style="font-family:&quot;Lucida Grande&quot;, &quot;Lucida Sans Unicode&quot;, Verdana, Arial, Helvetica, sans-serif;font-size:11px;color:#666;cursor:default;line-height:14px;fill:#666;" text-anchor="middle" opacity="1"><tspan x="845.9542202241499">700</tspan></text><text x="956.7628063065915" y="386" style="font-family:&quot;Lucida Grande&quot;, &quot;Lucida Sans Unicode&quot;, Verdana, Arial, Helvetica, sans-serif;font-size:11px;color:#666;cursor:default;line-height:14px;fill:#666;" text-anchor="middle" opacity="1"><tspan x="956.7628063065915">800</tspan></text><text x="1067.571392389033" y="386" style="font-family:&quot;Lucida Grande&quot;, &quot;Lucida Sans Unicode&quot;, Verdana, Arial, Helvetica, sans-serif;font-size:11px;color:#666;cursor:default;line-height:14px;fill:#666;" text-anchor="middle" opacity="1"><tspan x="1067.571392389033">900</tspan></text></g><g class="highcharts-axis-labels" zIndex="7"><text x="52" y="378.115625" style="font-family:&quot;Lucida Grande&quot;, &quot;Lucida Sans Unicode&quot;, Verdana, Arial, Helvetica, sans-serif;font-size:11px;width:505px;color:#666;cursor:default;line-height:14px;fill:#666;" text-anchor="end" opacity="1"><tspan x="52">0</tspan></text><text x="52" y="317.78229166666665" style="font-family:&quot;Lucida Grande&quot;, &quot;Lucida Sans Unicode&quot;, Verdana, Arial, Helvetica, sans-serif;font-size:11px;width:505px;color:#666;cursor:default;line-height:14px;fill:#666;" text-anchor="end" opacity="1"><tspan x="52">0.1</tspan></text><text x="52" y="257.44895833333334" style="font-family:&quot;Lucida Grande&quot;, &quot;Lucida Sans Unicode&quot;, Verdana, Arial, Helvetica, sans-serif;font-size:11px;width:505px;color:#666;cursor:default;line-height:14px;fill:#666;" text-anchor="end" opacity="1"><tspan x="52">0.2</tspan></text><text x="52" y="197.115625" style="font-family:&quot;Lucida Grande&quot;, &quot;Lucida Sans Unicode&quot;, Verdana, Arial, Helvetica, sans-serif;font-size:11px;width:505px;color:#666;cursor:default;line-height:14px;fill:#666;" text-anchor="end" opacity="1"><tspan x="52">0.3</tspan></text><text x="52" y="136.78229166666662" style="font-family:&quot;Lucida Grande&quot;, &quot;Lucida Sans Unicode&quot;, Verdana, Arial, Helvetica, sans-serif;font-size:11px;width:505px;color:#666;cursor:default;line-height:14px;fill:#666;" text-anchor="end" opacity="1"><tspan x="52">0.4</tspan></text><text x="52" y="76.44895833333331" style="font-family:&quot;Lucida Grande&quot;, &quot;Lucida Sans Unicode&quot;, Verdana, Arial, Helvetica, sans-serif;font-size:11px;width:505px;color:#666;cursor:default;line-height:14px;fill:#666;" text-anchor="end" opacity="1"><tspan x="52">0.5</tspan></text><text x="52" y="16.115625" style="font-family:&quot;Lucida Grande&quot;, &quot;Lucida Sans Unicode&quot;, Verdana, Arial, Helvetica, sans-serif;font-size:11px;width:505px;color:#666;cursor:default;line-height:14px;fill:#666;" text-anchor="end" opacity="1"><tspan x="52">0.6</tspan></text></g><g class="highcharts-tooltip" zIndex="8" style="cursor:default;padding:0;white-space:nowrap;" visibility="hidden" transform="translate(121,276)" opacity="0"><rect rx="3" ry="3" fill="none" x="0.5" y="0.5" width="312" height="44.203125" fill-opacity="0.85" isShadow="true" stroke="black" stroke-opacity="0.049999999999999996" stroke-width="5" transform="translate(1, 1)"></rect><rect rx="3" ry="3" fill="none" x="0.5" y="0.5" width="312" height="44.203125" fill-opacity="0.85" isShadow="true" stroke="black" stroke-opacity="0.09999999999999999" stroke-width="3" transform="translate(1, 1)"></rect><rect rx="3" ry="3" fill="none" x="0.5" y="0.5" width="312" height="44.203125" fill-opacity="0.85" isShadow="true" stroke="black" stroke-opacity="0.15" stroke-width="1" transform="translate(1, 1)"></rect><rect rx="3" ry="3" fill="rgb(255,255,255)" x="0.5" y="0.5" width="312" height="44.203125" fill-opacity="0.85" stroke="#492970" stroke-width="1" anchorX="-11.212086572168872" anchorY="28.923828125"></rect><text x="8" y="21" style="font-family:&quot;Lucida Grande&quot;, &quot;Lucida Sans Unicode&quot;, Verdana, Arial, Helvetica, sans-serif;font-size:12px;color:#333333;fill:#333333;" zIndex="1"><tspan style="font-size: 10px" x="8">36</tspan><tspan style="fill:#492970" x="8" dy="16">exp9 localStorage 1KB w</tspan><tspan dx="0">: </tspan><tspan style="font-weight:bold" dx="0">0.11151293202105746</tspan></text></g><text x="1110" y="395" style="font-family:&quot;Lucida Grande&quot;, &quot;Lucida Sans Unicode&quot;, Verdana, Arial, Helvetica, sans-serif;font-size:9px;cursor:pointer;color:#909090;fill:#909090;" text-anchor="end" zIndex="8"><tspan x="1110">Highcharts.com</tspan></text></svg>