<svg xmlns="http://www.w3.org/2000/svg" version="1.1" width="1120" height="400"><desc>Created with Highcharts 3.0.2</desc><defs><clipPath id="highcharts-1"><rect fill="none" x="0" y="0" width="1050" height="361"></rect></clipPath></defs><rect rx="5" ry="5" fill="#FFFFFF" x="0" y="0" width="1120" height="400"></rect><g class="highcharts-grid" zIndex="1"></g><g class="highcharts-grid" zIndex="1"><path fill="none" d="M 60 312.5 L 1110 312.5" stroke="#C0C0C0" stroke-width="1" zIndex="1" opacity="1"></path><path fill="none" d="M 60 251.5 L 1110 251.5" stroke="#C0C0C0" stroke-width="1" zIndex="1" opacity="1"></path><path fill="none" d="M 60 191.5 L 1110 191.5" stroke="#C0C0C0" stroke-width="1" zIndex="1" opacity="1"></path><path fill="none" d="M 60 131.5 L 1110 131.5" stroke="#C0C0C0" stroke-width="1" zIndex="1" opacity="1"></path><path fill="none" d="M 60 70.5 L 1110 70.5" stroke="#C0C0C0" stroke-width="1" zIndex="1" opacity="1"></path><path fill="none" d="M 60 10.5 L 1110 10.5" stroke="#C0C0C0" stroke-width="1" zIndex="1" opacity="1"></path><path fill="none" d="M 60 371.5 L 1110 371.5" stroke="#C0C0C0" stroke-width="1" zIndex="1" opacity="1"></path></g><g class="highcharts-axis" zIndex="2"><path fill="none" d="M 142.5 372 L 142.5 377" stroke="#C0D0E0" stroke-width="1" opacity="1"></path><path fill="none" d="M 214.5 372 L 214.5 377" stroke="#C0D0E0" stroke-width="1" opacity="1"></path><path fill="none" d="M 287.5 372 L 287.5 377" stroke="#C0D0E0" stroke-width="1" opacity="1"></path><path fill="none" d="M 359.5 372 L 359.5 377" stroke="#C0D0E0" stroke-width="1" opacity="1"></path><path fill="none" d="M 432.5 372 L 432.5 377" stroke="#C0D0E0" stroke-width="1" opacity="1"></path><path fill="none" d="M 505.5 372 L 505.5 377" stroke="#C0D0E0" stroke-width="1" opacity="1"></path><path fill="none" d="M 577.5 372 L 577.5 377" stroke="#C0D0E0" stroke-width="1" opacity="1"></path><path fill="none" d="M 650.5 372 L 650.5 377" stroke="#C0D0E0" stroke-width="1" opacity="1"></path><path fill="none" d="M 722.5 372 L 722.5 377" stroke="#C0D0E0" stroke-width="1" opacity="1"></path><path fill="none" d="M 795.5 372 L 795.5 377" stroke="#C0D0E0" stroke-width="1" opacity="1"></path><path fill="none" d="M 867.5 372 L 867.5 377" stroke="#C0D0E0" stroke-width="1" opacity="1"></path><path fill="none" d="M 940.5 372 L 940.5 377" stroke="#C0D0E0" stroke-width="1" opacity="1"></path><path fill="none" d="M 1012.5 372 L 1012.5 377" stroke="#C0D0E0" stroke-width="1" opacity="1"></path><path fill="none" d="M 1085.5 372 L 1085.5 377" stroke="#C0D0E0" stroke-width="1" opacity="1"></path><path fill="none" d="M 69.5 372 L 69.5 377" stroke="#C0D0E0" stroke-width="1" opacity="1"></path><path fill="none" d="M 60 371.5 L 1110 371.5" stroke="#C0D0E0" stroke-width="1" zIndex="7" visibility="visible"></path></g><g class="highcharts-axis" zIndex="2"><text x="24.59375" y="191" style="font-family:&quot;Lucida Grande&quot;, &quot;Lucida Sans Unicode&quot;, Verdana, Arial, Helvetica, sans-serif;font-size:12px;color:#4d759e;font-weight:bold;fill:#4d759e;" zIndex="7" text-anchor="middle" transform="translate(0,0) rotate(270 24.59375 191)" visibility="visible"><tspan x="24.59375">Amperage</tspan></text></g><g class="highcharts-series-group" zIndex="3"><g class="highcharts-series" visibility="visible" zIndex="0.1" transform="translate(60,10) scale(1 1)" clip-path="url(#highcharts-1)"><path fill="none" d="M 10.294117647058822 313.3 L 11.019566388923433 313.3 L 11.745015130788042 315.3 L 12.470463872652653 315.3 L 13.195912614517264 298.8 L 13.921361356381874 298.8 L 14.646810098246485 286.3 L 15.372258840111096 286.3 L 16.097707581975705 287.4 L 16.823156323840315 287.4 L 17.548605065704926 287.9 L 18.274053807569537 287.9 L 18.999502549434148 286.2 L 19.72495129129876 286.2 L 20.45040003316337 287.9 L 21.17584877502798 287.9 L 21.90129751689259 289.4 L 22.6267462587572 289.4 L 23.352195000621812 302.1 L 24.077643742486423 293.7 L 24.80309248435103 274.7 L 25.52854122621564 274.7 L 26.25398996808025 284.4 L 26.979438709944862 287 L 27.704887451809473 287 L 28.430336193674083 286.9 L 29.155784935538694 286.9 L 29.881233677403305 287.7 L 30.606682419267916 287.7 L 31.332131161132526 295.5 L 32.057579902997134 295.5 L 32.783028644861744 314.4 L 33.508477386726355 314.4 L 34.233926128590966 314.8 L 34.95937487045558 314.8 L 35.68482361232019 296.1 L 36.4102723541848 296.1 L 37.13572109604941 286.1 L 37.86116983791402 286.1 L 38.58661857977863 287.1 L 39.31206732164324 287.1 L 40.03751606350785 287.5 L 40.76296480537246 287.5 L 41.48841354723707 287.3 L 42.213862289101684 287.3 L 42.939311030966294 286.2 L 43.664759772830905 286.2 L 44.390208514695516 291.3 L 45.11565725656013 291.3 L 45.84110599842474 302.1 L 46.56655474028935 302.1 L 47.29200348215396 289.1 L 48.01745222401857 289.1 L 48.74290096588318 274.9 L 49.46834970774779 274.9 L 50.1937984496124 285.8 L 50.91924719147701 285.8 L 51.64469593334162 287.2 L 52.370144675206234 287.2 L 53.095593417070845 287.1 L 53.82104215893545 287.1 L 54.54649090080006 287.7 L 55.27193964266467 287.7 L 55.99738838452928 298.9 L 56.72283712639389 298.9 L 57.4482858682585 317 L 58.17373461012311 317 L 58.89918335198772 312.9 L 59.624632093852334 245.9 L 60.350080835716945 245.9 L 61.075529577581555 251.3 L 61.800978319446166 251.3 L 62.52642706131078 281.9 L 63.25187580317539 281.9 L 63.97732454504 284.6 L 64.70277328690462 286.1 L 65.42822202876921 286.1 L 66.15367077063382 292.6 L 66.87911951249843 292.6 L 67.60456825436304 302.9 L 68.33001699622766 302.9 L 69.05546573809227 285 L 69.78091447995688 285 L 70.50636322182149 276.6 L 71.2318119636861 276.6 L 71.95726070555071 286.4 L 72.68270944741532 286.4 L 73.40815818927993 287.2 L 74.13360693114454 287.2 L 74.85905567300915 287.1 L 75.58450441487376 287.1 L 76.30995315673837 288.1 L 77.03540189860298 288.1 L 77.7608506404676 301.5 L 78.4862993823322 301.5 L 79.21174812419682 316.6 L 79.93719686606143 316.6 L 80.66264560792604 310 L 81.38809434979065 310 L 82.11354309165526 290.4 L 82.83899183351987 290.4 L 83.56444057538448 286.4 L 84.28988931724909 286.4 L 85.0153380591137 287.7 L 85.74078680097831 287.7 L 86.46623554284292 286.5 L 87.19168428470753 286.5 L 87.91713302657215 261.7 L 88.64258176843676 261.7 L 89.36803051030137 245.9 L 90.09347925216598 245.9 L 90.81892799403059 214.9 L 91.5443767358952 214.9 L 92.26982547775981 191.5 L 92.99527421962442 191.5 L 93.72072296148903 149.5 L 94.44617170335364 149.5 L 95.17162044521825 113.4 L 95.89706918708286 113.4 L 96.62251792894747 113.2 L 97.34796667081208 114.6 L 98.0734154126767 114.6 L 98.7988641545413 104.2 L 99.52431289640592 104.2 L 100.24976163827053 98.9 L 100.97521038013514 98.9 L 101.70065912199975 141.3 L 102.42610786386436 141.3 L 103.15155660572897 124.8 L 103.87700534759358 124.8 L 104.60245408945819 128.8 L 105.3279028313228 128.8 L 106.05335157318741 123.2 L 106.77880031505202 123.2 L 107.50424905691663 119.3 L 108.22969779878125 119.3 L 108.95514654064586 124.9 L 109.68059528251047 124.9 L 110.40604402437508 147.9 L 111.13149276623969 147.9 L 111.85694150810428 135 L 112.5823902499689 135 L 113.3078389918335 195.1 L 114.03328773369812 195.1 L 114.75873647556273 194.6 L 115.48418521742734 194.6 L 116.20963395929195 22.4 L 116.93508270115656 22.4 L 117.66053144302117 142.8 L 118.38598018488578 142.8 L 119.11142892675039 239.7 L 119.836877668615 239.7 L 120.56232641047961 280.8 L 121.28777515234422 280.8 L 122.01322389420883 282.5 L 122.73867263607345 282.5 L 123.46412137793806 272.3 L 124.18957011980267 272.3 L 124.91501886166728 213.8 L 125.64046760353189 213.8 L 126.3659163453965 222.5 L 127.09136508726111 222.5 L 127.81681382912572 218 L 128.54226257099035 218 L 129.26771131285494 182.8 L 129.99316005471957 182.8 L 130.71860879658416 242 L 131.4440575384488 242 L 132.16950628031339 246.1 L 132.894955022178 246.1 L 133.6204037640426 277.1 L 134.34585250590723 277.1 L 135.07130124777183 297.1 L 135.79674998963642 297.1 L 136.52219873150105 272 L 137.24764747336565 276.5 L 137.97309621523027 276.5 L 138.69854495709487 282.2 L 139.4239936989595 282.2 L 140.1494424408241 283.4 L 140.8748911826887 283.4 L 141.6003399245533 283.1 L 142.32578866641794 283.1 L 143.05123740828253 277 L 143.77668615014716 277 L 144.50213489201175 291.5 L 145.22758363387638 291.5 L 145.95303237574097 315.7 L 146.6784811176056 315.7 L 147.4039298594702 299.9 L 148.12937860133482 299.9 L 148.85482734319942 283.5 L 149.58027608506404 283.5 L 150.30572482692864 282.2 L 151.03117356879326 282.2 L 151.75662231065786 282.3 L 152.48207105252249 282.3 L 153.20751979438708 282.4 L 153.9329685362517 282.4 L 154.6584172781163 281.4 L 155.38386601998093 281.4 L 156.10931476184552 270.2 L 156.83476350371015 270.2 L 157.56021224557475 297 L 158.28566098743937 297 L 159.01110972930397 286.2 L 159.7365584711686 286.2 L 160.4620072130332 269.7 L 161.1874559548978 269.7 L 161.9129046967624 278.5 L 162.63835343862704 278.5 L 163.36380218049163 283.7 L 164.08925092235626 282.5 L 164.81469966422085 282.5 L 165.54014840608548 283.1 L 166.26559714795007 278.9 L 166.9910458898147 301.4 L 167.7164946316793 301.4 L 168.44194337354392 313.6 L 169.16739211540852 313.6 L 169.89284085727314 293.9 L 170.61828959913774 293.9 L 171.34373834100236 282.6 L 172.06918708286696 282.6 L 172.79463582473159 282.7 L 173.52008456659618 282.7 L 174.2455333084608 283.3 L 174.9709820503254 283.3 L 175.69643079219003 283.7 L 176.42187953405463 283.7 L 177.14732827591925 280.8 L 177.87277701778385 280.8 L 178.59822575964847 279 L 179.32367450151307 279 L 180.0491232433777 300.1 L 180.7745719852423 300.1 L 181.5000207271069 288.8 L 182.2254694689715 288.8 L 182.9509182108361 267.3 L 183.67636695270073 267.3 L 184.40181569456533 272 L 185.12726443642995 272 L 185.85271317829455 247.1 L 186.57816192015918 247.1 L 187.30361066202377 219.5 L 188.0290594038884 219.5 L 188.754508145753 272.4 L 189.47995688761762 272.4 L 190.20540562948221 289.3 L 190.93085437134684 289.3 L 191.65630311321144 312.2 L 192.38175185507606 312.2 L 193.10720059694066 310.6 L 193.83264933880528 310.6 L 194.55809808066988 251 L 195.2835468225345 260.5 L 196.0089955643991 260.5 L 196.73444430626373 284 L 197.45989304812832 284 L 198.18534178999295 282.3 L 198.91079053185754 282.3 L 199.63623927372217 283.7 L 200.36168801558676 283.7 L 201.0871367574514 280.4 L 201.812585499316 282.7 L 202.5380342411806 301.9 L 203.2634829830452 301.9 L 203.98893172490983 288.2 L 204.71438046677443 288.2 L 205.43982920863905 272.8 L 206.16527795050365 272.8 L 206.89072669236828 281.2 L 207.61617543423287 281.2 L 208.3416241760975 282.9 L 209.0670729179621 282.9 L 209.79252165982672 283.6 L 210.51797040169131 283.6 L 211.24341914355594 283.9 L 211.96886788542054 283.9 L 212.69431662728516 289.5 L 213.41976536914976 289.5 L 214.14521411101438 312.2 L 214.87066285287898 312.2 L 215.5961115947436 308.1 L 216.3215603366082 286.2 L 217.04700907847283 286.2 L 217.77245782033742 279.7 L 218.49790656220205 279.7 L 219.22335530406664 282.5 L 219.94880404593127 282.5 L 220.67425278779587 282.7 L 221.3997015296605 282.7 L 222.1251502715251 283.5 L 222.8505990133897 283.5 L 223.5760477552543 279.6 L 224.30149649711893 279.6 L 225.02694523898353 286.1 L 225.75239398084815 286.1 L 226.47784272271275 302.7 L 227.20329146457738 302.7 L 227.92874020644197 284.3 L 228.65418894830657 284.3 L 229.3796376901712 273.3 L 230.1050864320358 273.3 L 230.83053517390042 282 L 231.555983915765 282 L 232.28143265762964 280.8 L 233.00688139949423 280.8 L 233.73233014135886 267 L 234.45777888322345 267 L 235.18322762508808 280.2 L 235.90867636695268 280.2 L 236.6341251088173 293.4 L 237.3595738506819 287.2 L 238.08502259254652 279.2 L 238.81047133441112 279.2 L 239.53592007627574 283.1 L 240.26136881814034 283.1 L 240.98681756000497 282.8 L 241.71226630186956 282.8 L 242.4377150437342 283.7 L 243.16316378559878 283.7 L 243.8886125274634 278.4 L 244.614061269328 278.4 L 245.33951001119263 290 L 246.06495875305723 290 L 246.79040749492185 301.5 L 247.51585623678645 301.5 L 248.24130497865107 280.1 L 248.96675372051567 280.1 L 249.6922024623803 274.8 L 250.4176512042449 274.8 L 251.14309994610952 282.4 L 251.8685486879741 282.4 L 252.59399742983874 283.5 L 253.31944617170333 283.5 L 254.04489491356796 282.1 L 254.77034365543255 282.1 L 255.49579239729718 283.9 L 256.2212411391618 283.9 L 256.9466898810264 296.7 L 257.672138622891 296.7 L 258.3975873647556 313.7 L 259.12303610662025 313.7 L 259.8484848484848 266.5 L 260.57393359034944 266.5 L 261.29938233221407 269.4 L 262.0248310740787 269.4 L 262.75027981594326 282.4 L 263.4757285578079 283.3 L 264.2011772996725 283.3 L 264.92662604153713 282.9 L 265.6520747834017 282.9 L 266.3775235252663 283.4 L 267.10297226713095 283.4 L 267.8284210089956 276.7 L 268.55386975086014 276.7 L 269.27931849272477 293.4 L 270.0047672345894 293.4 L 270.730215976454 298 L 271.4556647183186 298 L 272.1811134601832 274.8 L 272.90656220204784 283.1 L 273.63201094391246 278.2 L 274.35745968577703 278.2 L 275.08290842764166 253.3 L 275.8083571695063 253.3 L 276.53380591137085 298.6 L 277.2592546532355 298.6 L 277.9847033951001 314.5 L 278.7101521369647 314.5 L 279.4356008788293 300.7 L 280.1610496206939 300.7 L 280.88649836255854 284.9 L 281.61194710442317 284.9 L 282.33739584628773 281.1 L 283.06284458815236 281.1 L 283.788293330017 283.5 L 284.5137420718816 283.5 L 285.2391908137462 282.6 L 285.9646395556108 282.6 L 286.6900882974754 275.7 L 287.41553703934005 275.7 L 288.1409857812046 276.2 L 288.86643452306924 276.2 L 289.59188326493387 297.6 L 290.3173320067985 297.6 L 291.04278074866306 295.3 L 291.7682294905277 295.3 L 292.4936782323923 273 L 293.21912697425694 278.5 L 293.9445757161215 278.5 L 294.67002445798613 282.7 L 295.39547319985076 282.7 L 296.1209219417154 282.9 L 296.84637068357995 282.9 L 297.5718194254446 283.1 L 298.2972681673092 283.1 L 299.0227169091738 284.5 L 299.7481656510384 284.5 L 300.473614392903 304.5 L 301.19906313476764 304.5 L 301.92451187663227 316.8 L 302.64996061849683 316.8 L 303.37540936036146 299.9 L 304.1008581022261 299.9 L 304.8263068440907 283.2 L 305.5517555859553 283.2 L 306.2772043278199 283.1 L 307.0026530696845 283.1 L 307.72810181154915 283.1 L 308.4535505534137 283 L 309.17899929527835 282.7 L 309.90444803714297 282.7 L 310.6298967790076 278.5 L 311.35534552087216 278.5 L 312.0807942627368 300.5 L 312.8062430046014 294.6 L 313.53169174646604 294.6 L 314.2571404883306 272.9 L 314.98258923019523 272.9 L 315.70803797205986 278.8 L 316.4334867139245 278.8 L 317.15893545578905 282.8 L 317.8843841976537 282.8 L 318.6098329395183 283.2 L 319.3352816813829 283.2 L 320.0607304232475 283.3 L 320.7861791651121 283.3 L 321.51162790697674 285.8 L 322.2370766488413 285.8 L 322.96252539070593 304 L 323.68797413257056 304 L 324.4134228744352 273.2 L 325.13887161629975 273.2 L 325.8643203581644 281.7 L 326.589769100029 281.7 L 327.3152178418936 283.2 L 328.0406665837582 283.2 L 328.7661153256228 283.2 L 329.49156406748745 283.2 L 330.21701280935207 283.6 L 330.94246155121664 283.6 L 331.66791029308126 282.1 L 332.3933590349459 282.1 L 333.1188077768105 265.1 L 333.8442565186751 265.1 L 334.5697052605397 273.1 L 335.29515400240433 273.1 L 336.02060274426896 301.5 L 336.7460514861335 301.5 L 337.47150022799815 287.6 L 338.1969489698628 287.6 L 338.9223977117274 271.8 L 339.64784645359197 271.8 L 340.3732951954566 280.4 L 341.0987439373212 280.4 L 341.82419267918584 283.6 L 342.5496414210504 283.6 L 343.27509016291503 282.8 L 344.00053890477966 312.2 L 344.7259876466443 313.7 L 345.45143638850885 313.7 L 346.1768851303735 293.1 L 346.9023338722381 293.1 L 347.6277826141027 282 L 348.3532313559673 282 L 349.0786800978319 283.1 L 349.80412883969655 283.1 L 350.52957758156117 282.7 L 351.25502632342574 282.7 L 351.98047506529036 283.1 L 352.705923807155 283.1 L 353.4313725490196 280 L 354.1568212908842 280 L 354.8822700327488 282.1 L 355.60771877461343 301.5 L 356.33316751647806 301.5 L 357.0586162583426 283.9 L 357.78406500020725 283.9 L 358.5095137420719 272.9 L 359.2349624839365 272.9 L 359.96041122580107 281.5 L 360.6858599676657 281.5 L 361.4113087095303 283.2 L 362.13675745139494 283.2 L 362.8622061932595 282.8 L 363.58765493512414 282.8 L 364.31310367698876 284.3 L 365.0385524188534 284.3 L 365.76400116071795 284.5 L 366.4894499025826 284.5 L 367.2148986444472 303 L 367.94034738631177 303 L 368.6657961281764 311.3 L 369.391244870041 311.3 L 370.11669361190565 289.4 L 370.8421423537702 289.4 L 371.5675910956349 283.1 L 372.2930398374995 283.1 L 373.0184885793641 282.9 L 373.7439373212287 282.9 L 374.46938606309334 282.8 L 375.19483480495796 282.8 L 375.92028354682253 283.2 L 376.64573228868716 283.2 L 377.3711810305518 279.1 L 378.0966297724164 279.1 L 378.822078514281 287 L 379.5475272561456 272.4 L 380.2729759980102 282.1 L 380.99842473987485 282.1 L 381.7238734817394 283.5 L 382.44932222360404 283.5 L 383.17477096546867 282.9 L 383.9002197073333 282.9 L 384.62566844919786 283.9 L 385.3511171910625 287.3 L 386.0765659329271 287.3 L 386.80201467479174 275.9 L 387.5274634166563 275.9 L 388.2529121585209 299.1 L 388.97836090038555 299.1 L 389.7038096422502 287.9 L 390.42925838411475 287.9 L 391.15470712597937 282.9 L 391.880155867844 282.9 L 392.6056046097086 282.7 L 393.3310533515732 282.7 L 394.0565020934378 283 L 394.78195083530244 283 L 395.50739957716706 283.9 L 396.23284831903163 283.9 L 396.95829706089626 277.5 L 397.6837458027609 277.5 L 398.4091945446255 291.5 L 399.1346432864901 291.5 L 399.8600920283547 300.6 L 400.5855407702193 300.6 L 401.31098951208395 279.7 L 402.0364382539485 279.7 L 402.76188699581314 274.3 L 403.48733573767777 274.3 L 404.2127844795424 282.8 L 404.93823322140696 282.8 L 405.6636819632716 283 L 406.3891307051362 283 L 407.11457944700084 282.8 L 407.8400281888654 282.8 L 408.56547693073003 283.1 L 409.29092567259465 283.1 L 410.0163744144592 298.1 L 410.74182315632385 298.1 L 411.46727189818847 316.4 L 412.1927206400531 316.4 L 412.91816938191766 306.5 L 413.6436181237823 306.5 L 414.3690668656469 284.8 L 415.09451560751154 282.4 L 415.8199643493761 282.4 L 416.54541309124073 283.9 L 417.27086183310536 283.9 L 417.99631057497 282.7 L 418.72175931683455 282.7 L 419.4472080586992 276.6 L 420.1726568005638 276.6 L 420.8981055424284 291.1 L 421.623554284293 291.1 L 422.3490030261576 294.6 L 423.07445176802224 294.6 L 423.79990050988687 273.3 L 424.52534925175144 273.3 L 425.25079799361606 276.5 L 425.9762467354807 276.5 L 426.7016954773453 282.4 L 427.4271442192099 282.4 L 428.1525929610745 283.5 L 428.87804170293913 283.5 L 429.60349044480375 282.9 L 430.3289391866683 282.9 L 431.05438792853295 284.3 L 431.7798366703976 284.3 L 432.5052854122622 300.5 L 433.23073415412676 300.5 L 433.9561828959914 317 L 434.681631637856 317 L 435.40708037972064 301.9 L 436.1325291215852 301.9 L 436.85797786344983 284.4 L 437.58342660531446 284.4 L 438.3088753471791 282.7 L 439.03432408904365 282.7 L 439.7597728309083 279.3 L 440.4852215727729 279.3 L 441.2106703146375 277.1 L 441.9361190565021 277.1 L 442.6615677983667 273.6 L 443.38701654023134 273.6 L 444.11246528209597 275.6 L 444.83791402396054 275.6 L 445.56336276582516 297 L 446.2888115076898 295.3 L 447.0142602495544 295.3 L 447.739708991419 271.6 L 448.4651577332836 271.6 L 449.19060647514823 247.9 L 449.91605521701285 247.9 L 450.6415039588774 283.6 L 451.36695270074205 283.6 L 452.0924014426067 277.3 L 452.8178501844713 277.3 L 453.54329892633586 266.5 L 454.2687476682005 266.5 L 454.9941964100651 308.3 L 455.7196451519297 308.3 L 456.4450938937943 295.6 L 457.17054263565893 295.6 L 457.89599137752356 283.1 L 458.6214401193881 283.1 L 459.34688886125275 281.5 L 460.0723376031174 281.5 L 460.797786344982 284 L 461.52323508684657 284 L 462.2486838287112 282.7 L 462.9741325705758 282.7 L 463.69958131244044 282.3 L 464.425030054305 282.3 L 465.15047879616964 278.9 L 465.87592753803426 278.9 L 466.6013762798989 299.6 L 467.32682502176345 299.6 L 468.0522737636281 294.3 L 468.7777225054927 294.3 L 469.50317124735733 271.8 L 470.2286199892219 271.8 L 470.9540687310865 280.2 L 471.67951747295115 280.2 L 472.4049662148158 282.5 L 473.13041495668034 281.9 L 473.85586369854497 281.9 L 474.5813124404096 284.2 L 475.3067611822742 284.2 L 476.0322099241388 281.2 L 476.7576586660034 281.2 L 477.48310740786803 306.5 L 478.20855614973266 306.5 L 478.9340048915972 313.3 L 479.65945363346185 313.3 L 480.3849023753265 292.8 L 481.1103511171911 292.8 L 481.83579985905567 282.2 L 482.5612486009203 282.2 L 483.2866973427849 283.3 L 484.01214608464954 283.3 L 484.7375948265141 282.4 L 485.46304356837874 282.4 L 486.18849231024336 280.2 L 486.913941052108 301 L 487.63938979397255 301 L 488.3648385358372 287.3 L 489.0902872777018 287.3 L 489.81573601956643 268.5 L 490.541184761431 268.5 L 491.2666335032956 277.2 L 491.99208224516025 277.2 L 492.7175309870249 278.9 L 493.44297972888944 278.9 L 494.16842847075407 279.9 L 494.8938772126187 279.9 L 495.6193259544833 278.7 L 496.3447746963479 278.7 L 497.0702234382125 280 L 497.79567218007713 280 L 498.52112092194176 308.7 L 499.2465696638063 308.7 L 499.97201840567095 310.5 L 500.6974671475356 310.5 L 501.42291588940014 271.5 L 502.14836463126477 271.5 L 502.8738133731294 273.4 L 503.599262114994 273.4 L 504.3247108568586 286.9 L 505.0501595987232 286.9 L 505.77560834058784 267.7 L 506.50105708245246 267.7 L 507.22650582431703 261.9 L 507.95195456618166 261.9 L 508.6774033080463 279.4 L 509.4028520499109 279.4 L 510.1283007917755 281.5 L 510.8537495336401 281.5 L 511.5791982755047 302.7 L 512.3046470173693 302.7 L 513.030095759234 284.5 L 513.7555445010986 284.5 L 514.4809932429631 275.6 L 515.2064419848277 275.6 L 515.9318907266924 286.6 L 516.657339468557 286.6 L 517.3827882104216 280.2 L 518.1082369522862 280.2 L 518.8336856941509 257.6 L 519.5591344360155 257.6 L 520.28458317788 272.8 L 521.0100319197446 272.8 L 521.7354806616092 303.9 L 522.4609294034739 305.6 L 523.1863781453385 305.6 L 523.9118268872031 251.8 L 524.6372756290677 251.8 L 525.3627243709324 266 L 526.0881731127969 266 L 526.8136218546615 287.2 L 527.5390705965261 287.2 L 528.2645193383908 288 L 528.9899680802554 288 L 529.71541682212 288.8 L 530.4408655639846 288.8 L 531.1663143058493 286.8 L 531.8917630477138 286.8 L 532.6172117895784 287.7 L 533.342660531443 287.7 L 534.0681092733076 278.4 L 534.7935580151723 278.4 L 535.5190067570369 279.2 L 536.2444554989015 279.2 L 536.9699042407661 277.4 L 537.6953529826307 277.4 L 538.4208017244953 286.7 L 539.1462504663599 286.7 L 539.8716992082245 287.6 L 540.5971479500892 287.6 L 541.3225966919538 288.6 L 542.0480454338184 288.6 L 542.773494175683 289.5 L 543.4989429175475 289.5 L 544.2243916594122 304.1 L 544.9498404012768 304.1 L 545.6752891431414 317.3 L 546.400737885006 308.9 L 547.1261866268707 308.9 L 547.8516353687353 290.1 L 548.5770841105998 290.1 L 549.3025328524644 287.6 L 550.027981594329 287.6 L 550.7534303361937 288.1 L 551.4788790780583 288.1 L 552.2043278199229 287.9 L 552.9297765617875 287.9 L 553.6552253036522 289.2 L 554.3806740455167 289.2 L 555.1061227873813 283.9 L 555.8315715292459 283.9 L 556.5570202711106 275.7 L 557.2824690129752 284.2 L 558.0079177548398 284.2 L 558.7333664967044 285.2 L 559.4588152385691 285.2 L 560.1842639804336 285.1 L 560.9097127222982 285.1 L 561.6351614641628 286.8 L 562.3606102060274 286.8 L 563.0860589478921 284.3 L 563.8115076897567 284.3 L 564.5369564316213 275.1 L 565.262405173486 275.1 L 565.9878539153505 257.7 L 566.7133026572151 257.7 L 567.4387513990797 256.3 L 568.1642001409443 256.3 L 568.889648882809 281.2 L 569.6150976246736 281.2 L 570.3405463665382 284.6 L 571.0659951084028 284.6 L 571.7914438502673 284.3 L 572.516892592132 284.3 L 573.2423413339966 285.9 L 573.9677900758612 285.9 L 574.6932388177258 285.5 L 575.4186875595905 285.5 L 576.1441363014551 279.9 L 576.8695850433197 279.9 L 577.5950337851842 259.7 L 578.3204825270489 259.7 L 579.0459312689135 256.7 L 579.7713800107781 256.7 L 580.4968287526427 268.4 L 581.2222774945074 268.4 L 581.947726236372 272 L 582.6731749782366 272 L 583.3986237201011 279.6 L 584.1240724619657 279.6 L 584.8495212038304 287.6 L 585.574969945695 287.6 L 586.3004186875596 275.5 L 587.0258674294242 234.1 L 587.7513161712889 234.1 L 588.4767649131535 301.1 L 589.202213655018 301.1 L 589.9276623968826 317 L 590.6531111387472 317 L 591.3785598806119 299.6 L 592.1040086224765 299.6 L 592.8294573643411 286.6 L 593.5549061062057 288.8 L 594.2803548480703 288.8 L 595.0058035899349 288.5 L 595.7312523317995 288.5 L 596.4567010736641 289.1 L 597.1821498155288 289.1 L 597.9075985573934 283 L 598.633047299258 283 L 599.3584960411226 272.4 L 600.0839447829871 272.4 L 600.8093935248518 270.8 L 601.5348422667164 270.8 L 602.260291008581 273 L 602.9857397504456 273 L 603.7111884923103 282.6 L 604.4366372341749 282.6 L 605.1620859760395 287.3 L 605.887534717904 287.3 L 606.6129834597687 288.5 L 607.3384322016333 288.5 L 608.0638809434979 288.2 L 608.7893296853625 288.2 L 609.5147784272272 269.1 L 610.2402271690918 269.1 L 610.9656759109564 290.8 L 611.6911246528209 290.8 L 612.4165733946855 315.4 L 613.1420221365502 315.4 L 613.8674708784148 297.7 L 614.5929196202794 297.7 L 615.318368362144 286.3 L 616.0438171040087 286.3 L 616.7692658458733 288 L 617.4947145877378 288 L 618.2201633296024 287.7 L 618.945612071467 287.7 L 619.6710608133317 288.9 L 620.3965095551963 288.9 L 621.1219582970609 287.5 L 621.8474070389256 287.5 L 622.5728557807902 289.6 L 623.2983045226547 289.6 L 624.0237532645193 302.1 L 624.7492020063839 302.1 L 625.4746507482486 293 L 626.2000994901132 293 L 626.9255482319778 275.8 L 627.6509969738424 275.8 L 628.3764457157071 288.1 L 629.1018944575716 289.3 L 629.8273431994362 289.3 L 630.5527919413008 288.8 L 631.2782406831654 288.8 L 632.0036894250301 295.7 L 632.7291381668947 295.7 L 633.4545869087593 309.9 L 634.180035650624 309.9 L 634.9054843924885 310.7 L 635.6309331343531 310.7 L 636.3563818762177 292.8 L 637.0818306180823 292.8 L 637.807279359947 286.6 L 638.5327281018116 286.6 L 639.2581768436762 285.3 L 639.9836255855408 285.3 L 640.7090743274053 262.4 L 641.43452306927 262.4 L 642.1599718111346 279.1 L 642.8854205529992 279.1 L 643.6108692948638 282.8 L 644.3363180367285 282.8 L 645.0617667785931 288.8 L 645.7872155204576 288.8 L 646.5126642623222 302.3 L 647.2381130041869 302.3 L 647.9635617460515 289.5 L 648.6890104879161 289.5 L 649.4144592297807 275.7 L 650.1399079716454 275.7 L 650.86535671351 286.2 L 651.5908054553745 286.2 L 652.3162541972391 287.7 L 653.0417029391037 287.7 L 653.7671516809684 272.4 L 654.492600422833 272.4 L 655.2180491646976 231.5 L 655.9434979065622 290.3 L 656.6689466484269 290.3 L 657.3943953902914 315.7 L 658.119844132156 315.7 L 658.8452928740206 313 L 659.5707416158853 313 L 660.2961903577499 291.6 L 661.0216390996145 291.6 L 661.7470878414791 286.7 L 662.4725365833438 286.7 L 663.1979853252083 288.5 L 663.9234340670729 288.5 L 664.6488828089375 286 L 665.3743315508021 286 L 666.0997802926668 262.7 L 666.8252290345314 262.7 L 667.550677776396 287.6 L 668.2761265182606 287.6 L 669.0015752601252 299.2 L 669.7270240019898 299.2 L 670.4524727438544 283.7 L 671.177921485719 283.7 L 671.9033702275837 275.4 L 672.6288189694483 275.4 L 673.3542677113129 286.9 L 674.0797164531775 286.9 L 674.805165195042 287.8 L 675.5306139369067 287.8 L 676.2560626787713 289.1 L 676.9815114206359 289.4 L 677.7069601625005 289.4 L 678.4324089043652 302.7 L 679.1578576462298 302.7 L 679.8833063880944 316.4 L 680.6087551299589 316.4 L 681.3342038718235 311.2 L 682.0596526136882 311.2 L 682.7851013555528 290.9 L 683.5105500974174 290.9 L 684.235998839282 287.1 L 684.9614475811467 287.1 L 685.6868963230113 288.1 L 686.4123450648758 288.1 L 687.1377938067404 288.8 L 687.8632425486051 288.8 L 688.5886912904697 288.5 L 689.3141400323343 288.5 L 690.0395887741989 288 L 690.7650375160636 288 L 691.4904862579281 295.3 L 692.2159349997927 295.3 L 692.9413837416573 302 L 693.666832483522 302 L 694.3922812253866 281.7 L 695.1177299672512 281.7 L 695.8431787091158 278.2 L 696.5686274509804 278.2 L 697.294076192845 287.7 L 698.0195249347096 287.7 L 698.7449736765742 287.7 L 699.4704224184388 290.1 L 700.1958711603035 290.1 L 700.9213199021681 305.9 L 701.6467686440327 305.9 L 702.3722173858973 317.6 L 703.0976661277618 317.6 L 703.8231148696265 307.6 L 704.5485636114911 307.6 L 705.2740123533557 289.4 L 705.9994610952203 289.4 L 706.724909837085 286.4 L 707.4503585789496 287.3 L 708.1758073208142 287.3 L 708.9012560626787 290.3 L 709.6267048045434 290.3 L 710.352153546408 288.1 L 711.0776022882726 288.1 L 711.8030510301372 287.7 L 712.5284997720019 287.7 L 713.2539485138665 297.7 L 713.9793972557311 297.7 L 714.7048459975956 299.5 L 715.4302947394602 299.5 L 716.1557434813249 248.1 L 716.8811922231895 248.1 L 717.6066409650541 209.2 L 718.3320897069187 209.2 L 719.0575384487834 264.9 L 719.782987190648 264.9 L 720.5084359325125 266.6 L 721.2338846743771 266.6 L 721.9593334162417 233.9 L 722.6847821581064 233.9 L 723.410230899971 281.7 L 724.1356796418356 281.7 L 724.8611283837002 303.6 L 725.5865771255649 303.6 L 726.3120258674294 316.8 L 727.037474609294 316.8 L 727.7629233511586 304.5 L 728.4883720930233 304.5 L 729.2138208348879 287.3 L 729.9392695767525 287.3 L 730.6647183186171 288.3 L 731.3901670604818 288.3 L 732.1156158023463 287.6 L 732.8410645442109 287.6 L 733.5665132860755 288.3 L 734.2919620279401 288.3 L 735.0174107698048 287.8 L 735.7428595116694 287.8 L 736.468308253534 299.9 L 737.1937569953985 298.1 L 737.9192057372632 298.1 L 738.6446544791278 276.8 L 739.3701032209924 276.8 L 740.095551962857 281.3 L 740.8210007047217 281.3 L 741.5464494465863 288.1 L 742.2718981884509 288.1 L 742.9973469303154 288.3 L 743.72279567218 288.3 L 744.4482444140447 288.6 L 745.1736931559093 288.6 L 745.8991418977739 291.9 L 746.6245906396385 291.9 L 747.3500393815032 310.9 L 748.0754881233678 310.9 L 748.8009368652323 315.7 L 749.5263856070969 315.7 L 750.2518343489616 301.9 L 750.9772830908262 301.9 L 751.7027318326908 286.8 L 752.4281805745554 286.8 L 753.15362931642 288.3 L 753.8790780582847 288.3 L 754.6045268001492 287.3 L 755.3299755420138 287.3 L 756.0554242838784 289.5 L 756.7808730257431 289.5 L 757.5063217676077 287.8 L 758.2317705094723 287.8 L 758.9572192513369 279.8 L 759.6826679932016 279.8 L 760.4081167350661 292.7 L 761.1335654769307 292.7 L 761.8590142187953 294.4 L 762.58446296066 294.4 L 763.3099117025246 274.4 L 764.0353604443892 274.4 L 764.7608091862538 283.7 L 765.4862579281184 283.7 L 766.211706669983 287.7 L 766.9371554118476 287.7 L 767.6626041537122 288.3 L 768.3880528955768 288.3 L 769.1135016374415 288.8 L 769.8389503793061 288.8 L 770.5643991211707 298.6 L 771.2898478630353 298.6 L 772.0152966048998 286.9 L 772.7407453467645 286.9 L 773.4661940886291 287.1 L 774.1916428304937 287.1 L 774.9170915723583 288.8 L 775.642540314223 288.8 L 776.3679890560876 288.2 L 777.0934377979522 288.2 L 777.8188865398167 282.3 L 778.5443352816814 265.2 L 779.269784023546 265.2 L 779.9952327654106 299 L 780.7206815072752 299 L 781.4461302491399 290.3 L 782.1715789910045 290.3 L 782.897027732869 273.6 L 783.6224764747336 273.6 L 784.3479252165982 284 L 785.0733739584629 284 L 785.7988227003275 264 L 786.5242714421921 264 L 787.2497201840567 235.1 L 787.9751689259214 235.1 L 788.7006176677859 282.4 L 789.4260664096505 282.4 L 790.1515151515151 295.2 L 790.8769638933798 295.2 L 791.6024126352444 315.4 L 792.327861377109 315.4 L 793.0533101189736 313.9 L 793.7787588608383 313.9 L 794.5042076027028 295.3 L 795.2296563445674 295.3 L 795.955105086432 287 L 796.6805538282966 287 L 797.4060025701613 288.2 L 798.1314513120259 288.2 L 798.8569000538905 288.1 L 799.5823487957551 288.1 L 800.3077975376196 281.2 L 801.0332462794843 281.2 L 801.7586950213489 278.5 L 802.4841437632135 278.5 L 803.2095925050781 292.3 L 803.9350412469428 292.3 L 804.6604899888074 301.9 L 805.385938730672 275.4 L 806.1113874725365 287.8 L 806.8368362144012 287.8 L 807.5622849562658 289.2 L 808.2877336981304 289.2 L 809.013182439995 289.1 L 809.7386311818597 289.1 L 810.4640799237243 299 L 811.1895286655889 299 L 811.9149774074534 315.8 L 812.640426149318 315.8 L 813.3658748911827 313.2 L 814.0913236330473 313.2 L 814.8167723749119 292.4 L 815.5422211167765 292.4 L 816.2676698586412 287.1 L 816.9931186005058 287.1 L 817.7185673423703 287.9 L 818.4440160842349 287.9 L 819.1694648260996 288.6 L 819.8949135679642 288.6 L 820.6203623098288 288.8 L 821.3458110516934 288.8 L 822.071259793558 287.7 L 822.7967085354227 287.7 L 823.5221572772872 292.9 L 824.2476060191518 292.9 L 824.9730547610164 302.3 L 825.6985035028811 302.3 L 826.4239522447457 285 L 827.1494009866103 285 L 827.8748497284749 277.1 L 828.6002984703395 277.1 L 829.3257472122041 286.9 L 830.0511959540687 286.9 L 830.7766446959333 287.7 L 831.502093437798 287.7 L 832.2275421796626 289.5 L 832.9529909215272 289.5 L 833.6784396633918 283.4 L 834.4038884052563 283.4 L 835.129337147121 233.5 L 835.8547858889856 233.5 L 836.5802346308502 196.4 L 837.3056833727148 196.4 L 838.0311321145795 180.1 L 838.7565808564441 180.1 L 839.4820295983087 155.2 L 840.2074783401732 155.2 L 840.9329270820378 144.9 L 841.6583758239025 151.7 L 842.3838245657671 151.7 L 843.1092733076317 159 L 843.8347220494963 159 L 844.560170791361 159.4 L 845.2856195332256 159.4 L 846.0110682750901 168.7 L 846.7365170169547 168.7 L 847.4619657588194 184 L 848.187414500684 184 L 848.9128632425486 193.5 L 849.6383119844132 193.5 L 850.3637607262779 201 L 851.0892094681425 201 L 851.814658210007 199.7 L 852.5401069518716 199.7 L 853.2655556937362 157.5 L 853.9910044356009 157.5 L 854.7164531774655 156.6 L 855.4419019193301 156.6 L 856.1673506611947 159.7 L 856.8927994030594 159.7 L 857.6182481449239 182 L 858.3436968867885 182 L 859.0691456286531 181.7 L 859.7945943705178 181.7 L 860.5200431123824 176.6 L 861.245491854247 176.6 L 861.9709405961116 181.3 L 862.6963893379763 181.3 L 863.4218380798408 188.7 L 864.1472868217054 188.7 L 864.87273556357 187.4 L 865.5981843054346 195.5 L 866.3236330472993 195.5 L 867.0490817891639 208.4 L 867.7745305310285 208.4 L 868.4999792728931 226 L 869.2254280147577 226 L 869.9508767566223 229.2 L 870.6763254984869 229.2 L 871.4017742403515 209.1 L 872.1272229822162 209.1 L 872.8526717240808 177.7 L 873.5781204659454 177.7 L 874.3035692078099 177.7 L 875.0290179496745 177.7 L 875.7544666915392 180.4 L 876.4799154334038 180.4 L 877.2053641752684 189.6 L 877.930812917133 189.6 L 878.6562616589977 51 L 879.3817104008623 51 L 880.1071591427268 135.2 L 880.8326078845914 135.2 L 881.558056626456 212.8 L 882.2835053683207 212.8 L 883.0089541101853 55.9 L 883.7344028520499 55.9 L 884.4598515939145 -2.7 L 885.1853003357792 -2.7 L 885.9107490776437 142.6 L 886.6361978195083 142.6 L 887.3616465613729 166.8 L 888.0870953032376 166.8 L 888.8125440451022 173.2 L 889.5379927869668 173.2 L 890.2634415288314 176.8 L 890.9888902706961 176.8 L 891.7143390125606 183.1 L 892.4397877544252 183.1 L 893.1652364962898 160.2 L 893.8906852381544 160.2 L 894.6161339800191 154.7 L 895.3415827218837 154.7 L 896.0670314637483 168 L 896.792480205613 168 L 897.5179289474775 170 L 898.2433776893421 170 L 898.9688264312067 160.5 L 899.6942751730713 160.5 L 900.419723914936 175.6 L 901.1451726568006 175.6 L 901.8706213986652 181.2 L 902.5960701405298 181.2 L 903.3215188823943 163.5 L 904.046967624259 163.5 L 904.7724163661236 168.5 L 905.4978651079882 168.5 L 906.2233138498528 165.6 L 906.9487625917175 165.6 L 907.6742113335821 153 L 908.3996600754467 167.7 L 909.1251088173112 167.7 L 909.8505575591759 168.2 L 910.5760063010405 168.2 L 911.3014550429051 160 L 912.0269037847697 160 L 912.7523525266344 183 L 913.477801268499 183 L 914.2032500103636 175.2 L 914.9286987522281 175.2 L 915.6541474940927 151.4 L 916.3795962359574 151.4 L 917.105044977822 58.5 L 917.8304937196866 73.7 L 918.5559424615512 73.7 L 919.2813912034159 163.2 L 920.0068399452804 163.2 L 920.732288687145 157.4 L 921.4577374290096 157.4 L 922.1831861708743 172.2 L 922.9086349127389 172.2 L 923.6340836546035 209.2 L 924.3595323964681 209.2 L 925.0849811383328 211.1 L 925.8104298801973 211.1 L 926.5358786220619 187.4 L 927.2613273639265 187.4 L 927.9867761057911 183.8 L 928.7122248476558 183.8 L 929.4376735895204 178.6 L 930.163122331385 178.6 L 930.8885710732496 174.7 L 931.6140198151141 174.7 L 932.3394685569788 159 L 933.0649172988434 159 L 933.790366040708 131.2 L 934.5158147825726 131.2 L 935.2412635244373 170.9 L 935.9667122663019 170.9 L 936.6921610081665 181.3 L 937.417609750031 181.3 L 938.1430584918957 172.9 L 938.8685072337603 172.9 L 939.5939559756249 160 L 940.3194047174895 160 L 941.0448534593542 172.2 L 941.7703022012188 172.2 L 942.4957509430834 172 L 943.2211996849479 172 L 943.9466484268125 173.6 L 944.6720971686772 173.6 L 945.3975459105418 174.7 L 946.1229946524064 174.7 L 946.848443394271 167.6 L 947.5738921361357 167.6 L 948.2993408780003 121.1 L 949.0247896198648 121.1 L 949.7502383617294 197.5 L 950.475687103594 197.5 L 951.2011358454587 267.8 L 951.9265845873233 279.8 L 952.6520333291879 279.8 L 953.3774820710526 285.3 L 954.1029308129172 285.3 L 954.8283795547817 270.4 L 955.5538282966463 270.4 L 956.2792770385109 251.9 L 957.0047257803756 251.9 L 957.7301745222402 287.7 L 958.4556232641048 287.7 L 959.1810720059694 294.2 L 959.9065207478341 294.2 L 960.6319694896986 285.3 L 961.3574182315632 285.3 L 962.0828669734278 273.6 L 962.8083157152925 273.6 L 963.5337644571571 284.2 L 964.2592131990217 284.2 L 964.9846619408863 285.6 L 965.7101106827508 285.6 L 966.4355594246155 286.4 L 967.1610081664801 286.4 L 967.8864569083447 286.2 L 968.6119056502093 286.2 L 969.337354392074 298.7 L 970.0628031339386 298.7 L 970.7882518758032 314.4 L 971.5137006176677 314.4 L 972.2391493595323 309.9 L 972.964598101397 309.9 L 973.6900468432616 291.3 L 974.4154955851262 291.3 L 975.1409443269908 285.5 L 975.8663930688555 285.5 L 976.5918418107201 287.1 L 977.3172905525846 287.1 L 978.0427392944492 285.9 L 978.7681880363139 285.9 L 979.4936367781785 286.5 L 980.2190855200431 286.5 L 980.9445342619077 284.6 L 981.6699830037724 284.6 L 982.395431745637 291.3 L 983.1208804875015 291.3 L 983.8463292293661 140.3 L 984.5717779712307 140.3 L 985.2972267130954 174.7 L 986.02267545496 221.6 L 986.7481241968246 221.6 L 987.4735729386892 244.6 L 988.1990216805539 244.6 L 988.9244704224184 265.5 L 989.649919164283 265.5 L 990.3753679061476 285.8 L 991.1008166480123 285.8 L 991.8262653898769 301.3 L 992.5517141317415 301.3 L 993.2771628736061 314.5 L 994.0026116154708 314.5 L 994.7280603573353 307.6 L 995.4535090991999 307.6 L 996.1789578410645 289.2 L 996.9044065829291 289.2 L 997.6298553247938 286.2 L 998.3553040666584 286.2 L 999.080752808523 285.9 L 999.8062015503876 285.9 L 1000.5316502922522 286.5 L 1001.2570990341168 286.5 L 1001.9825477759814 263.3 L 1002.707996517846 263.3 L 1003.4334452597107 251.7 L 1004.1588940015753 251.7 L 1004.8843427434399 293.2 L 1005.6097914853045 293.2 L 1006.335240227169 299.9 L 1007.0606889690337 299.9 L 1007.7861377108983 278.3 L 1008.5115864527629 278.3 L 1009.2370351946275 276.8 L 1009.9624839364922 276.8 L 1010.6879326783568 286.8 L 1011.4133814202214 286.8 L 1012.1388301620859 286.6 L 1012.8642789039505 286.6 L 1013.5897276458152 285.8 L 1014.3151763876798 285.8 L 1015.0406251295444 287.6 L 1015.766073871409 287.6 L 1016.4915226132737 304.9 L 1017.2169713551382 304.9 L 1017.9424200970028 315.3 L 1018.6678688388674 315.3 L 1019.3933175807321 286.7 L 1020.1187663225967 286.7 L 1020.8442150644613 287 L 1021.5696638063259 287 L 1022.2951125481906 286.1 L 1023.0205612900551 286.1 L 1023.7460100319197 285.8 L 1024.4714587737844 285.8 L 1025.196907515649 295.4 L 1025.9223562575135 298.3 L 1026.6478049993782 298.3 L 1027.3732537412427 275.8 L 1028.0987024831074 275.8 L 1028.824151224972 279.6 L 1029.5495999668367 279.6 L 1030.2750487087012 286 L 1031.000497450566 286 L 1031.7259461924305 286.5 L 1032.451394934295 286.5 L 1033.1768436761597 286.5 L 1033.9022924180242 286.5 L 1034.627741159889 289.6 L 1035.3531899017535 289.6 L 1036.0786386436182 308.3 L 1036.8040873854827 308.3 L 1037.5295361273472 314.5 L 1038.254984869212 314.5 L 1038.9804336110765 301.9 L 1039.7058823529412 301.9" stroke="#2f7ed8" stroke-width="1" zIndex="1"></path></g><g class="highcharts-markers" visibility="visible" zIndex="0.1" transform="translate(60,10) scale(1 1)" clip-path="none"><path fill="none" d="M 0.2941176470588225 313.3 L 10.294117647058822 313.3 L 11.019566388923433 313.3 L 11.745015130788042 315.3 L 12.470463872652653 315.3 L 13.195912614517264 298.8 L 13.921361356381874 298.8 L 14.646810098246485 286.3 L 15.372258840111096 286.3 L 16.097707581975705 287.4 L 16.823156323840315 287.4 L 17.548605065704926 287.9 L 18.274053807569537 287.9 L 18.999502549434148 286.2 L 19.72495129129876 286.2 L 20.45040003316337 287.9 L 21.17584877502798 287.9 L 21.90129751689259 289.4 L 22.6267462587572 289.4 L 23.352195000621812 302.1 L 24.077643742486423 293.7 L 24.80309248435103 274.7 L 25.52854122621564 274.7 L 26.25398996808025 284.4 L 26.979438709944862 287 L 27.704887451809473 287 L 28.430336193674083 286.9 L 29.155784935538694 286.9 L 29.881233677403305 287.7 L 30.606682419267916 287.7 L 31.332131161132526 295.5 L 32.057579902997134 295.5 L 32.783028644861744 314.4 L 33.508477386726355 314.4 L 34.233926128590966 314.8 L 34.95937487045558 314.8 L 35.68482361232019 296.1 L 36.4102723541848 296.1 L 37.13572109604941 286.1 L 37.86116983791402 286.1 L 38.58661857977863 287.1 L 39.31206732164324 287.1 L 40.03751606350785 287.5 L 40.76296480537246 287.5 L 41.48841354723707 287.3 L 42.213862289101684 287.3 L 42.939311030966294 286.2 L 43.664759772830905 286.2 L 44.390208514695516 291.3 L 45.11565725656013 291.3 L 45.84110599842474 302.1 L 46.56655474028935 302.1 L 47.29200348215396 289.1 L 48.01745222401857 289.1 L 48.74290096588318 274.9 L 49.46834970774779 274.9 L 50.1937984496124 285.8 L 50.91924719147701 285.8 L 51.64469593334162 287.2 L 52.370144675206234 287.2 L 53.095593417070845 287.1 L 53.82104215893545 287.1 L 54.54649090080006 287.7 L 55.27193964266467 287.7 L 55.99738838452928 298.9 L 56.72283712639389 298.9 L 57.4482858682585 317 L 58.17373461012311 317 L 58.89918335198772 312.9 L 59.624632093852334 245.9 L 60.350080835716945 245.9 L 61.075529577581555 251.3 L 61.800978319446166 251.3 L 62.52642706131078 281.9 L 63.25187580317539 281.9 L 63.97732454504 284.6 L 64.70277328690462 286.1 L 65.42822202876921 286.1 L 66.15367077063382 292.6 L 66.87911951249843 292.6 L 67.60456825436304 302.9 L 68.33001699622766 302.9 L 69.05546573809227 285 L 69.78091447995688 285 L 70.50636322182149 276.6 L 71.2318119636861 276.6 L 71.95726070555071 286.4 L 72.68270944741532 286.4 L 73.40815818927993 287.2 L 74.13360693114454 287.2 L 74.85905567300915 287.1 L 75.58450441487376 287.1 L 76.30995315673837 288.1 L 77.03540189860298 288.1 L 77.7608506404676 301.5 L 78.4862993823322 301.5 L 79.21174812419682 316.6 L 79.93719686606143 316.6 L 80.66264560792604 310 L 81.38809434979065 310 L 82.11354309165526 290.4 L 82.83899183351987 290.4 L 83.56444057538448 286.4 L 84.28988931724909 286.4 L 85.0153380591137 287.7 L 85.74078680097831 287.7 L 86.46623554284292 286.5 L 87.19168428470753 286.5 L 87.91713302657215 261.7 L 88.64258176843676 261.7 L 89.36803051030137 245.9 L 90.09347925216598 245.9 L 90.81892799403059 214.9 L 91.5443767358952 214.9 L 92.26982547775981 191.5 L 92.99527421962442 191.5 L 93.72072296148903 149.5 L 94.44617170335364 149.5 L 95.17162044521825 113.4 L 95.89706918708286 113.4 L 96.62251792894747 113.2 L 97.34796667081208 114.6 L 98.0734154126767 114.6 L 98.7988641545413 104.2 L 99.52431289640592 104.2 L 100.24976163827053 98.9 L 100.97521038013514 98.9 L 101.70065912199975 141.3 L 102.42610786386436 141.3 L 103.15155660572897 124.8 L 103.87700534759358 124.8 L 104.60245408945819 128.8 L 105.3279028313228 128.8 L 106.05335157318741 123.2 L 106.77880031505202 123.2 L 107.50424905691663 119.3 L 108.22969779878125 119.3 L 108.95514654064586 124.9 L 109.68059528251047 124.9 L 110.40604402437508 147.9 L 111.13149276623969 147.9 L 111.85694150810428 135 L 112.5823902499689 135 L 113.3078389918335 195.1 L 114.03328773369812 195.1 L 114.75873647556273 194.6 L 115.48418521742734 194.6 L 116.20963395929195 22.4 L 116.93508270115656 22.4 L 117.66053144302117 142.8 L 118.38598018488578 142.8 L 119.11142892675039 239.7 L 119.836877668615 239.7 L 120.56232641047961 280.8 L 121.28777515234422 280.8 L 122.01322389420883 282.5 L 122.73867263607345 282.5 L 123.46412137793806 272.3 L 124.18957011980267 272.3 L 124.91501886166728 213.8 L 125.64046760353189 213.8 L 126.3659163453965 222.5 L 127.09136508726111 222.5 L 127.81681382912572 218 L 128.54226257099035 218 L 129.26771131285494 182.8 L 129.99316005471957 182.8 L 130.71860879658416 242 L 131.4440575384488 242 L 132.16950628031339 246.1 L 132.894955022178 246.1 L 133.6204037640426 277.1 L 134.34585250590723 277.1 L 135.07130124777183 297.1 L 135.79674998963642 297.1 L 136.52219873150105 272 L 137.24764747336565 276.5 L 137.97309621523027 276.5 L 138.69854495709487 282.2 L 139.4239936989595 282.2 L 140.1494424408241 283.4 L 140.8748911826887 283.4 L 141.6003399245533 283.1 L 142.32578866641794 283.1 L 143.05123740828253 277 L 143.77668615014716 277 L 144.50213489201175 291.5 L 145.22758363387638 291.5 L 145.95303237574097 315.7 L 146.6784811176056 315.7 L 147.4039298594702 299.9 L 148.12937860133482 299.9 L 148.85482734319942 283.5 L 149.58027608506404 283.5 L 150.30572482692864 282.2 L 151.03117356879326 282.2 L 151.75662231065786 282.3 L 152.48207105252249 282.3 L 153.20751979438708 282.4 L 153.9329685362517 282.4 L 154.6584172781163 281.4 L 155.38386601998093 281.4 L 156.10931476184552 270.2 L 156.83476350371015 270.2 L 157.56021224557475 297 L 158.28566098743937 297 L 159.01110972930397 286.2 L 159.7365584711686 286.2 L 160.4620072130332 269.7 L 161.1874559548978 269.7 L 161.9129046967624 278.5 L 162.63835343862704 278.5 L 163.36380218049163 283.7 L 164.08925092235626 282.5 L 164.81469966422085 282.5 L 165.54014840608548 283.1 L 166.26559714795007 278.9 L 166.9910458898147 301.4 L 167.7164946316793 301.4 L 168.44194337354392 313.6 L 169.16739211540852 313.6 L 169.89284085727314 293.9 L 170.61828959913774 293.9 L 171.34373834100236 282.6 L 172.06918708286696 282.6 L 172.79463582473159 282.7 L 173.52008456659618 282.7 L 174.2455333084608 283.3 L 174.9709820503254 283.3 L 175.69643079219003 283.7 L 176.42187953405463 283.7 L 177.14732827591925 280.8 L 177.87277701778385 280.8 L 178.59822575964847 279 L 179.32367450151307 279 L 180.0491232433777 300.1 L 180.7745719852423 300.1 L 181.5000207271069 288.8 L 182.2254694689715 288.8 L 182.9509182108361 267.3 L 183.67636695270073 267.3 L 184.40181569456533 272 L 185.12726443642995 272 L 185.85271317829455 247.1 L 186.57816192015918 247.1 L 187.30361066202377 219.5 L 188.0290594038884 219.5 L 188.754508145753 272.4 L 189.47995688761762 272.4 L 190.20540562948221 289.3 L 190.93085437134684 289.3 L 191.65630311321144 312.2 L 192.38175185507606 312.2 L 193.10720059694066 310.6 L 193.83264933880528 310.6 L 194.55809808066988 251 L 195.2835468225345 260.5 L 196.0089955643991 260.5 L 196.73444430626373 284 L 197.45989304812832 284 L 198.18534178999295 282.3 L 198.91079053185754 282.3 L 199.63623927372217 283.7 L 200.36168801558676 283.7 L 201.0871367574514 280.4 L 201.812585499316 282.7 L 202.5380342411806 301.9 L 203.2634829830452 301.9 L 203.98893172490983 288.2 L 204.71438046677443 288.2 L 205.43982920863905 272.8 L 206.16527795050365 272.8 L 206.89072669236828 281.2 L 207.61617543423287 281.2 L 208.3416241760975 282.9 L 209.0670729179621 282.9 L 209.79252165982672 283.6 L 210.51797040169131 283.6 L 211.24341914355594 283.9 L 211.96886788542054 283.9 L 212.69431662728516 289.5 L 213.41976536914976 289.5 L 214.14521411101438 312.2 L 214.87066285287898 312.2 L 215.5961115947436 308.1 L 216.3215603366082 286.2 L 217.04700907847283 286.2 L 217.77245782033742 279.7 L 218.49790656220205 279.7 L 219.22335530406664 282.5 L 219.94880404593127 282.5 L 220.67425278779587 282.7 L 221.3997015296605 282.7 L 222.1251502715251 283.5 L 222.8505990133897 283.5 L 223.5760477552543 279.6 L 224.30149649711893 279.6 L 225.02694523898353 286.1 L 225.75239398084815 286.1 L 226.47784272271275 302.7 L 227.20329146457738 302.7 L 227.92874020644197 284.3 L 228.65418894830657 284.3 L 229.3796376901712 273.3 L 230.1050864320358 273.3 L 230.83053517390042 282 L 231.555983915765 282 L 232.28143265762964 280.8 L 233.00688139949423 280.8 L 233.73233014135886 267 L 234.45777888322345 267 L 235.18322762508808 280.2 L 235.90867636695268 280.2 L 236.6341251088173 293.4 L 237.3595738506819 287.2 L 238.08502259254652 279.2 L 238.81047133441112 279.2 L 239.53592007627574 283.1 L 240.26136881814034 283.1 L 240.98681756000497 282.8 L 241.71226630186956 282.8 L 242.4377150437342 283.7 L 243.16316378559878 283.7 L 243.8886125274634 278.4 L 244.614061269328 278.4 L 245.33951001119263 290 L 246.06495875305723 290 L 246.79040749492185 301.5 L 247.51585623678645 301.5 L 248.24130497865107 280.1 L 248.96675372051567 280.1 L 249.6922024623803 274.8 L 250.4176512042449 274.8 L 251.14309994610952 282.4 L 251.8685486879741 282.4 L 252.59399742983874 283.5 L 253.31944617170333 283.5 L 254.04489491356796 282.1 L 254.77034365543255 282.1 L 255.49579239729718 283.9 L 256.2212411391618 283.9 L 256.9466898810264 296.7 L 257.672138622891 296.7 L 258.3975873647556 313.7 L 259.12303610662025 313.7 L 259.8484848484848 266.5 L 260.57393359034944 266.5 L 261.29938233221407 269.4 L 262.0248310740787 269.4 L 262.75027981594326 282.4 L 263.4757285578079 283.3 L 264.2011772996725 283.3 L 264.92662604153713 282.9 L 265.6520747834017 282.9 L 266.3775235252663 283.4 L 267.10297226713095 283.4 L 267.8284210089956 276.7 L 268.55386975086014 276.7 L 269.27931849272477 293.4 L 270.0047672345894 293.4 L 270.730215976454 298 L 271.4556647183186 298 L 272.1811134601832 274.8 L 272.90656220204784 283.1 L 273.63201094391246 278.2 L 274.35745968577703 278.2 L 275.08290842764166 253.3 L 275.8083571695063 253.3 L 276.53380591137085 298.6 L 277.2592546532355 298.6 L 277.9847033951001 314.5 L 278.7101521369647 314.5 L 279.4356008788293 300.7 L 280.1610496206939 300.7 L 280.88649836255854 284.9 L 281.61194710442317 284.9 L 282.33739584628773 281.1 L 283.06284458815236 281.1 L 283.788293330017 283.5 L 284.5137420718816 283.5 L 285.2391908137462 282.6 L 285.9646395556108 282.6 L 286.6900882974754 275.7 L 287.41553703934005 275.7 L 288.1409857812046 276.2 L 288.86643452306924 276.2 L 289.59188326493387 297.6 L 290.3173320067985 297.6 L 291.04278074866306 295.3 L 291.7682294905277 295.3 L 292.4936782323923 273 L 293.21912697425694 278.5 L 293.9445757161215 278.5 L 294.67002445798613 282.7 L 295.39547319985076 282.7 L 296.1209219417154 282.9 L 296.84637068357995 282.9 L 297.5718194254446 283.1 L 298.2972681673092 283.1 L 299.0227169091738 284.5 L 299.7481656510384 284.5 L 300.473614392903 304.5 L 301.19906313476764 304.5 L 301.92451187663227 316.8 L 302.64996061849683 316.8 L 303.37540936036146 299.9 L 304.1008581022261 299.9 L 304.8263068440907 283.2 L 305.5517555859553 283.2 L 306.2772043278199 283.1 L 307.0026530696845 283.1 L 307.72810181154915 283.1 L 308.4535505534137 283 L 309.17899929527835 282.7 L 309.90444803714297 282.7 L 310.6298967790076 278.5 L 311.35534552087216 278.5 L 312.0807942627368 300.5 L 312.8062430046014 294.6 L 313.53169174646604 294.6 L 314.2571404883306 272.9 L 314.98258923019523 272.9 L 315.70803797205986 278.8 L 316.4334867139245 278.8 L 317.15893545578905 282.8 L 317.8843841976537 282.8 L 318.6098329395183 283.2 L 319.3352816813829 283.2 L 320.0607304232475 283.3 L 320.7861791651121 283.3 L 321.51162790697674 285.8 L 322.2370766488413 285.8 L 322.96252539070593 304 L 323.68797413257056 304 L 324.4134228744352 273.2 L 325.13887161629975 273.2 L 325.8643203581644 281.7 L 326.589769100029 281.7 L 327.3152178418936 283.2 L 328.0406665837582 283.2 L 328.7661153256228 283.2 L 329.49156406748745 283.2 L 330.21701280935207 283.6 L 330.94246155121664 283.6 L 331.66791029308126 282.1 L 332.3933590349459 282.1 L 333.1188077768105 265.1 L 333.8442565186751 265.1 L 334.5697052605397 273.1 L 335.29515400240433 273.1 L 336.02060274426896 301.5 L 336.7460514861335 301.5 L 337.47150022799815 287.6 L 338.1969489698628 287.6 L 338.9223977117274 271.8 L 339.64784645359197 271.8 L 340.3732951954566 280.4 L 341.0987439373212 280.4 L 341.82419267918584 283.6 L 342.5496414210504 283.6 L 343.27509016291503 282.8 L 344.00053890477966 312.2 L 344.7259876466443 313.7 L 345.45143638850885 313.7 L 346.1768851303735 293.1 L 346.9023338722381 293.1 L 347.6277826141027 282 L 348.3532313559673 282 L 349.0786800978319 283.1 L 349.80412883969655 283.1 L 350.52957758156117 282.7 L 351.25502632342574 282.7 L 351.98047506529036 283.1 L 352.705923807155 283.1 L 353.4313725490196 280 L 354.1568212908842 280 L 354.8822700327488 282.1 L 355.60771877461343 301.5 L 356.33316751647806 301.5 L 357.0586162583426 283.9 L 357.78406500020725 283.9 L 358.5095137420719 272.9 L 359.2349624839365 272.9 L 359.96041122580107 281.5 L 360.6858599676657 281.5 L 361.4113087095303 283.2 L 362.13675745139494 283.2 L 362.8622061932595 282.8 L 363.58765493512414 282.8 L 364.31310367698876 284.3 L 365.0385524188534 284.3 L 365.76400116071795 284.5 L 366.4894499025826 284.5 L 367.2148986444472 303 L 367.94034738631177 303 L 368.6657961281764 311.3 L 369.391244870041 311.3 L 370.11669361190565 289.4 L 370.8421423537702 289.4 L 371.5675910956349 283.1 L 372.2930398374995 283.1 L 373.0184885793641 282.9 L 373.7439373212287 282.9 L 374.46938606309334 282.8 L 375.19483480495796 282.8 L 375.92028354682253 283.2 L 376.64573228868716 283.2 L 377.3711810305518 279.1 L 378.0966297724164 279.1 L 378.822078514281 287 L 379.5475272561456 272.4 L 380.2729759980102 282.1 L 380.99842473987485 282.1 L 381.7238734817394 283.5 L 382.44932222360404 283.5 L 383.17477096546867 282.9 L 383.9002197073333 282.9 L 384.62566844919786 283.9 L 385.3511171910625 287.3 L 386.0765659329271 287.3 L 386.80201467479174 275.9 L 387.5274634166563 275.9 L 388.2529121585209 299.1 L 388.97836090038555 299.1 L 389.7038096422502 287.9 L 390.42925838411475 287.9 L 391.15470712597937 282.9 L 391.880155867844 282.9 L 392.6056046097086 282.7 L 393.3310533515732 282.7 L 394.0565020934378 283 L 394.78195083530244 283 L 395.50739957716706 283.9 L 396.23284831903163 283.9 L 396.95829706089626 277.5 L 397.6837458027609 277.5 L 398.4091945446255 291.5 L 399.1346432864901 291.5 L 399.8600920283547 300.6 L 400.5855407702193 300.6 L 401.31098951208395 279.7 L 402.0364382539485 279.7 L 402.76188699581314 274.3 L 403.48733573767777 274.3 L 404.2127844795424 282.8 L 404.93823322140696 282.8 L 405.6636819632716 283 L 406.3891307051362 283 L 407.11457944700084 282.8 L 407.8400281888654 282.8 L 408.56547693073003 283.1 L 409.29092567259465 283.1 L 410.0163744144592 298.1 L 410.74182315632385 298.1 L 411.46727189818847 316.4 L 412.1927206400531 316.4 L 412.91816938191766 306.5 L 413.6436181237823 306.5 L 414.3690668656469 284.8 L 415.09451560751154 282.4 L 415.8199643493761 282.4 L 416.54541309124073 283.9 L 417.27086183310536 283.9 L 417.99631057497 282.7 L 418.72175931683455 282.7 L 419.4472080586992 276.6 L 420.1726568005638 276.6 L 420.8981055424284 291.1 L 421.623554284293 291.1 L 422.3490030261576 294.6 L 423.07445176802224 294.6 L 423.79990050988687 273.3 L 424.52534925175144 273.3 L 425.25079799361606 276.5 L 425.9762467354807 276.5 L 426.7016954773453 282.4 L 427.4271442192099 282.4 L 428.1525929610745 283.5 L 428.87804170293913 283.5 L 429.60349044480375 282.9 L 430.3289391866683 282.9 L 431.05438792853295 284.3 L 431.7798366703976 284.3 L 432.5052854122622 300.5 L 433.23073415412676 300.5 L 433.9561828959914 317 L 434.681631637856 317 L 435.40708037972064 301.9 L 436.1325291215852 301.9 L 436.85797786344983 284.4 L 437.58342660531446 284.4 L 438.3088753471791 282.7 L 439.03432408904365 282.7 L 439.7597728309083 279.3 L 440.4852215727729 279.3 L 441.2106703146375 277.1 L 441.9361190565021 277.1 L 442.6615677983667 273.6 L 443.38701654023134 273.6 L 444.11246528209597 275.6 L 444.83791402396054 275.6 L 445.56336276582516 297 L 446.2888115076898 295.3 L 447.0142602495544 295.3 L 447.739708991419 271.6 L 448.4651577332836 271.6 L 449.19060647514823 247.9 L 449.91605521701285 247.9 L 450.6415039588774 283.6 L 451.36695270074205 283.6 L 452.0924014426067 277.3 L 452.8178501844713 277.3 L 453.54329892633586 266.5 L 454.2687476682005 266.5 L 454.9941964100651 308.3 L 455.7196451519297 308.3 L 456.4450938937943 295.6 L 457.17054263565893 295.6 L 457.89599137752356 283.1 L 458.6214401193881 283.1 L 459.34688886125275 281.5 L 460.0723376031174 281.5 L 460.797786344982 284 L 461.52323508684657 284 L 462.2486838287112 282.7 L 462.9741325705758 282.7 L 463.69958131244044 282.3 L 464.425030054305 282.3 L 465.15047879616964 278.9 L 465.87592753803426 278.9 L 466.6013762798989 299.6 L 467.32682502176345 299.6 L 468.0522737636281 294.3 L 468.7777225054927 294.3 L 469.50317124735733 271.8 L 470.2286199892219 271.8 L 470.9540687310865 280.2 L 471.67951747295115 280.2 L 472.4049662148158 282.5 L 473.13041495668034 281.9 L 473.85586369854497 281.9 L 474.5813124404096 284.2 L 475.3067611822742 284.2 L 476.0322099241388 281.2 L 476.7576586660034 281.2 L 477.48310740786803 306.5 L 478.20855614973266 306.5 L 478.9340048915972 313.3 L 479.65945363346185 313.3 L 480.3849023753265 292.8 L 481.1103511171911 292.8 L 481.83579985905567 282.2 L 482.5612486009203 282.2 L 483.2866973427849 283.3 L 484.01214608464954 283.3 L 484.7375948265141 282.4 L 485.46304356837874 282.4 L 486.18849231024336 280.2 L 486.913941052108 301 L 487.63938979397255 301 L 488.3648385358372 287.3 L 489.0902872777018 287.3 L 489.81573601956643 268.5 L 490.541184761431 268.5 L 491.2666335032956 277.2 L 491.99208224516025 277.2 L 492.7175309870249 278.9 L 493.44297972888944 278.9 L 494.16842847075407 279.9 L 494.8938772126187 279.9 L 495.6193259544833 278.7 L 496.3447746963479 278.7 L 497.0702234382125 280 L 497.79567218007713 280 L 498.52112092194176 308.7 L 499.2465696638063 308.7 L 499.97201840567095 310.5 L 500.6974671475356 310.5 L 501.42291588940014 271.5 L 502.14836463126477 271.5 L 502.8738133731294 273.4 L 503.599262114994 273.4 L 504.3247108568586 286.9 L 505.0501595987232 286.9 L 505.77560834058784 267.7 L 506.50105708245246 267.7 L 507.22650582431703 261.9 L 507.95195456618166 261.9 L 508.6774033080463 279.4 L 509.4028520499109 279.4 L 510.1283007917755 281.5 L 510.8537495336401 281.5 L 511.5791982755047 302.7 L 512.3046470173693 302.7 L 513.030095759234 284.5 L 513.7555445010986 284.5 L 514.4809932429631 275.6 L 515.2064419848277 275.6 L 515.9318907266924 286.6 L 516.657339468557 286.6 L 517.3827882104216 280.2 L 518.1082369522862 280.2 L 518.8336856941509 257.6 L 519.5591344360155 257.6 L 520.28458317788 272.8 L 521.0100319197446 272.8 L 521.7354806616092 303.9 L 522.4609294034739 305.6 L 523.1863781453385 305.6 L 523.9118268872031 251.8 L 524.6372756290677 251.8 L 525.3627243709324 266 L 526.0881731127969 266 L 526.8136218546615 287.2 L 527.5390705965261 287.2 L 528.2645193383908 288 L 528.9899680802554 288 L 529.71541682212 288.8 L 530.4408655639846 288.8 L 531.1663143058493 286.8 L 531.8917630477138 286.8 L 532.6172117895784 287.7 L 533.342660531443 287.7 L 534.0681092733076 278.4 L 534.7935580151723 278.4 L 535.5190067570369 279.2 L 536.2444554989015 279.2 L 536.9699042407661 277.4 L 537.6953529826307 277.4 L 538.4208017244953 286.7 L 539.1462504663599 286.7 L 539.8716992082245 287.6 L 540.5971479500892 287.6 L 541.3225966919538 288.6 L 542.0480454338184 288.6 L 542.773494175683 289.5 L 543.4989429175475 289.5 L 544.2243916594122 304.1 L 544.9498404012768 304.1 L 545.6752891431414 317.3 L 546.400737885006 308.9 L 547.1261866268707 308.9 L 547.8516353687353 290.1 L 548.5770841105998 290.1 L 549.3025328524644 287.6 L 550.027981594329 287.6 L 550.7534303361937 288.1 L 551.4788790780583 288.1 L 552.2043278199229 287.9 L 552.9297765617875 287.9 L 553.6552253036522 289.2 L 554.3806740455167 289.2 L 555.1061227873813 283.9 L 555.8315715292459 283.9 L 556.5570202711106 275.7 L 557.2824690129752 284.2 L 558.0079177548398 284.2 L 558.7333664967044 285.2 L 559.4588152385691 285.2 L 560.1842639804336 285.1 L 560.9097127222982 285.1 L 561.6351614641628 286.8 L 562.3606102060274 286.8 L 563.0860589478921 284.3 L 563.8115076897567 284.3 L 564.5369564316213 275.1 L 565.262405173486 275.1 L 565.9878539153505 257.7 L 566.7133026572151 257.7 L 567.4387513990797 256.3 L 568.1642001409443 256.3 L 568.889648882809 281.2 L 569.6150976246736 281.2 L 570.3405463665382 284.6 L 571.0659951084028 284.6 L 571.7914438502673 284.3 L 572.516892592132 284.3 L 573.2423413339966 285.9 L 573.9677900758612 285.9 L 574.6932388177258 285.5 L 575.4186875595905 285.5 L 576.1441363014551 279.9 L 576.8695850433197 279.9 L 577.5950337851842 259.7 L 578.3204825270489 259.7 L 579.0459312689135 256.7 L 579.7713800107781 256.7 L 580.4968287526427 268.4 L 581.2222774945074 268.4 L 581.947726236372 272 L 582.6731749782366 272 L 583.3986237201011 279.6 L 584.1240724619657 279.6 L 584.8495212038304 287.6 L 585.574969945695 287.6 L 586.3004186875596 275.5 L 587.0258674294242 234.1 L 587.7513161712889 234.1 L 588.4767649131535 301.1 L 589.202213655018 301.1 L 589.9276623968826 317 L 590.6531111387472 317 L 591.3785598806119 299.6 L 592.1040086224765 299.6 L 592.8294573643411 286.6 L 593.5549061062057 288.8 L 594.2803548480703 288.8 L 595.0058035899349 288.5 L 595.7312523317995 288.5 L 596.4567010736641 289.1 L 597.1821498155288 289.1 L 597.9075985573934 283 L 598.633047299258 283 L 599.3584960411226 272.4 L 600.0839447829871 272.4 L 600.8093935248518 270.8 L 601.5348422667164 270.8 L 602.260291008581 273 L 602.9857397504456 273 L 603.7111884923103 282.6 L 604.4366372341749 282.6 L 605.1620859760395 287.3 L 605.887534717904 287.3 L 606.6129834597687 288.5 L 607.3384322016333 288.5 L 608.0638809434979 288.2 L 608.7893296853625 288.2 L 609.5147784272272 269.1 L 610.2402271690918 269.1 L 610.9656759109564 290.8 L 611.6911246528209 290.8 L 612.4165733946855 315.4 L 613.1420221365502 315.4 L 613.8674708784148 297.7 L 614.5929196202794 297.7 L 615.318368362144 286.3 L 616.0438171040087 286.3 L 616.7692658458733 288 L 617.4947145877378 288 L 618.2201633296024 287.7 L 618.945612071467 287.7 L 619.6710608133317 288.9 L 620.3965095551963 288.9 L 621.1219582970609 287.5 L 621.8474070389256 287.5 L 622.5728557807902 289.6 L 623.2983045226547 289.6 L 624.0237532645193 302.1 L 624.7492020063839 302.1 L 625.4746507482486 293 L 626.2000994901132 293 L 626.9255482319778 275.8 L 627.6509969738424 275.8 L 628.3764457157071 288.1 L 629.1018944575716 289.3 L 629.8273431994362 289.3 L 630.5527919413008 288.8 L 631.2782406831654 288.8 L 632.0036894250301 295.7 L 632.7291381668947 295.7 L 633.4545869087593 309.9 L 634.180035650624 309.9 L 634.9054843924885 310.7 L 635.6309331343531 310.7 L 636.3563818762177 292.8 L 637.0818306180823 292.8 L 637.807279359947 286.6 L 638.5327281018116 286.6 L 639.2581768436762 285.3 L 639.9836255855408 285.3 L 640.7090743274053 262.4 L 641.43452306927 262.4 L 642.1599718111346 279.1 L 642.8854205529992 279.1 L 643.6108692948638 282.8 L 644.3363180367285 282.8 L 645.0617667785931 288.8 L 645.7872155204576 288.8 L 646.5126642623222 302.3 L 647.2381130041869 302.3 L 647.9635617460515 289.5 L 648.6890104879161 289.5 L 649.4144592297807 275.7 L 650.1399079716454 275.7 L 650.86535671351 286.2 L 651.5908054553745 286.2 L 652.3162541972391 287.7 L 653.0417029391037 287.7 L 653.7671516809684 272.4 L 654.492600422833 272.4 L 655.2180491646976 231.5 L 655.9434979065622 290.3 L 656.6689466484269 290.3 L 657.3943953902914 315.7 L 658.119844132156 315.7 L 658.8452928740206 313 L 659.5707416158853 313 L 660.2961903577499 291.6 L 661.0216390996145 291.6 L 661.7470878414791 286.7 L 662.4725365833438 286.7 L 663.1979853252083 288.5 L 663.9234340670729 288.5 L 664.6488828089375 286 L 665.3743315508021 286 L 666.0997802926668 262.7 L 666.8252290345314 262.7 L 667.550677776396 287.6 L 668.2761265182606 287.6 L 669.0015752601252 299.2 L 669.7270240019898 299.2 L 670.4524727438544 283.7 L 671.177921485719 283.7 L 671.9033702275837 275.4 L 672.6288189694483 275.4 L 673.3542677113129 286.9 L 674.0797164531775 286.9 L 674.805165195042 287.8 L 675.5306139369067 287.8 L 676.2560626787713 289.1 L 676.9815114206359 289.4 L 677.7069601625005 289.4 L 678.4324089043652 302.7 L 679.1578576462298 302.7 L 679.8833063880944 316.4 L 680.6087551299589 316.4 L 681.3342038718235 311.2 L 682.0596526136882 311.2 L 682.7851013555528 290.9 L 683.5105500974174 290.9 L 684.235998839282 287.1 L 684.9614475811467 287.1 L 685.6868963230113 288.1 L 686.4123450648758 288.1 L 687.1377938067404 288.8 L 687.8632425486051 288.8 L 688.5886912904697 288.5 L 689.3141400323343 288.5 L 690.0395887741989 288 L 690.7650375160636 288 L 691.4904862579281 295.3 L 692.2159349997927 295.3 L 692.9413837416573 302 L 693.666832483522 302 L 694.3922812253866 281.7 L 695.1177299672512 281.7 L 695.8431787091158 278.2 L 696.5686274509804 278.2 L 697.294076192845 287.7 L 698.0195249347096 287.7 L 698.7449736765742 287.7 L 699.4704224184388 290.1 L 700.1958711603035 290.1 L 700.9213199021681 305.9 L 701.6467686440327 305.9 L 702.3722173858973 317.6 L 703.0976661277618 317.6 L 703.8231148696265 307.6 L 704.5485636114911 307.6 L 705.2740123533557 289.4 L 705.9994610952203 289.4 L 706.724909837085 286.4 L 707.4503585789496 287.3 L 708.1758073208142 287.3 L 708.9012560626787 290.3 L 709.6267048045434 290.3 L 710.352153546408 288.1 L 711.0776022882726 288.1 L 711.8030510301372 287.7 L 712.5284997720019 287.7 L 713.2539485138665 297.7 L 713.9793972557311 297.7 L 714.7048459975956 299.5 L 715.4302947394602 299.5 L 716.1557434813249 248.1 L 716.8811922231895 248.1 L 717.6066409650541 209.2 L 718.3320897069187 209.2 L 719.0575384487834 264.9 L 719.782987190648 264.9 L 720.5084359325125 266.6 L 721.2338846743771 266.6 L 721.9593334162417 233.9 L 722.6847821581064 233.9 L 723.410230899971 281.7 L 724.1356796418356 281.7 L 724.8611283837002 303.6 L 725.5865771255649 303.6 L 726.3120258674294 316.8 L 727.037474609294 316.8 L 727.7629233511586 304.5 L 728.4883720930233 304.5 L 729.2138208348879 287.3 L 729.9392695767525 287.3 L 730.6647183186171 288.3 L 731.3901670604818 288.3 L 732.1156158023463 287.6 L 732.8410645442109 287.6 L 733.5665132860755 288.3 L 734.2919620279401 288.3 L 735.0174107698048 287.8 L 735.7428595116694 287.8 L 736.468308253534 299.9 L 737.1937569953985 298.1 L 737.9192057372632 298.1 L 738.6446544791278 276.8 L 739.3701032209924 276.8 L 740.095551962857 281.3 L 740.8210007047217 281.3 L 741.5464494465863 288.1 L 742.2718981884509 288.1 L 742.9973469303154 288.3 L 743.72279567218 288.3 L 744.4482444140447 288.6 L 745.1736931559093 288.6 L 745.8991418977739 291.9 L 746.6245906396385 291.9 L 747.3500393815032 310.9 L 748.0754881233678 310.9 L 748.8009368652323 315.7 L 749.5263856070969 315.7 L 750.2518343489616 301.9 L 750.9772830908262 301.9 L 751.7027318326908 286.8 L 752.4281805745554 286.8 L 753.15362931642 288.3 L 753.8790780582847 288.3 L 754.6045268001492 287.3 L 755.3299755420138 287.3 L 756.0554242838784 289.5 L 756.7808730257431 289.5 L 757.5063217676077 287.8 L 758.2317705094723 287.8 L 758.9572192513369 279.8 L 759.6826679932016 279.8 L 760.4081167350661 292.7 L 761.1335654769307 292.7 L 761.8590142187953 294.4 L 762.58446296066 294.4 L 763.3099117025246 274.4 L 764.0353604443892 274.4 L 764.7608091862538 283.7 L 765.4862579281184 283.7 L 766.211706669983 287.7 L 766.9371554118476 287.7 L 767.6626041537122 288.3 L 768.3880528955768 288.3 L 769.1135016374415 288.8 L 769.8389503793061 288.8 L 770.5643991211707 298.6 L 771.2898478630353 298.6 L 772.0152966048998 286.9 L 772.7407453467645 286.9 L 773.4661940886291 287.1 L 774.1916428304937 287.1 L 774.9170915723583 288.8 L 775.642540314223 288.8 L 776.3679890560876 288.2 L 777.0934377979522 288.2 L 777.8188865398167 282.3 L 778.5443352816814 265.2 L 779.269784023546 265.2 L 779.9952327654106 299 L 780.7206815072752 299 L 781.4461302491399 290.3 L 782.1715789910045 290.3 L 782.897027732869 273.6 L 783.6224764747336 273.6 L 784.3479252165982 284 L 785.0733739584629 284 L 785.7988227003275 264 L 786.5242714421921 264 L 787.2497201840567 235.1 L 787.9751689259214 235.1 L 788.7006176677859 282.4 L 789.4260664096505 282.4 L 790.1515151515151 295.2 L 790.8769638933798 295.2 L 791.6024126352444 315.4 L 792.327861377109 315.4 L 793.0533101189736 313.9 L 793.7787588608383 313.9 L 794.5042076027028 295.3 L 795.2296563445674 295.3 L 795.955105086432 287 L 796.6805538282966 287 L 797.4060025701613 288.2 L 798.1314513120259 288.2 L 798.8569000538905 288.1 L 799.5823487957551 288.1 L 800.3077975376196 281.2 L 801.0332462794843 281.2 L 801.7586950213489 278.5 L 802.4841437632135 278.5 L 803.2095925050781 292.3 L 803.9350412469428 292.3 L 804.6604899888074 301.9 L 805.385938730672 275.4 L 806.1113874725365 287.8 L 806.8368362144012 287.8 L 807.5622849562658 289.2 L 808.2877336981304 289.2 L 809.013182439995 289.1 L 809.7386311818597 289.1 L 810.4640799237243 299 L 811.1895286655889 299 L 811.9149774074534 315.8 L 812.640426149318 315.8 L 813.3658748911827 313.2 L 814.0913236330473 313.2 L 814.8167723749119 292.4 L 815.5422211167765 292.4 L 816.2676698586412 287.1 L 816.9931186005058 287.1 L 817.7185673423703 287.9 L 818.4440160842349 287.9 L 819.1694648260996 288.6 L 819.8949135679642 288.6 L 820.6203623098288 288.8 L 821.3458110516934 288.8 L 822.071259793558 287.7 L 822.7967085354227 287.7 L 823.5221572772872 292.9 L 824.2476060191518 292.9 L 824.9730547610164 302.3 L 825.6985035028811 302.3 L 826.4239522447457 285 L 827.1494009866103 285 L 827.8748497284749 277.1 L 828.6002984703395 277.1 L 829.3257472122041 286.9 L 830.0511959540687 286.9 L 830.7766446959333 287.7 L 831.502093437798 287.7 L 832.2275421796626 289.5 L 832.9529909215272 289.5 L 833.6784396633918 283.4 L 834.4038884052563 283.4 L 835.129337147121 233.5 L 835.8547858889856 233.5 L 836.5802346308502 196.4 L 837.3056833727148 196.4 L 838.0311321145795 180.1 L 838.7565808564441 180.1 L 839.4820295983087 155.2 L 840.2074783401732 155.2 L 840.9329270820378 144.9 L 841.6583758239025 151.7 L 842.3838245657671 151.7 L 843.1092733076317 159 L 843.8347220494963 159 L 844.560170791361 159.4 L 845.2856195332256 159.4 L 846.0110682750901 168.7 L 846.7365170169547 168.7 L 847.4619657588194 184 L 848.187414500684 184 L 848.9128632425486 193.5 L 849.6383119844132 193.5 L 850.3637607262779 201 L 851.0892094681425 201 L 851.814658210007 199.7 L 852.5401069518716 199.7 L 853.2655556937362 157.5 L 853.9910044356009 157.5 L 854.7164531774655 156.6 L 855.4419019193301 156.6 L 856.1673506611947 159.7 L 856.8927994030594 159.7 L 857.6182481449239 182 L 858.3436968867885 182 L 859.0691456286531 181.7 L 859.7945943705178 181.7 L 860.5200431123824 176.6 L 861.245491854247 176.6 L 861.9709405961116 181.3 L 862.6963893379763 181.3 L 863.4218380798408 188.7 L 864.1472868217054 188.7 L 864.87273556357 187.4 L 865.5981843054346 195.5 L 866.3236330472993 195.5 L 867.0490817891639 208.4 L 867.7745305310285 208.4 L 868.4999792728931 226 L 869.2254280147577 226 L 869.9508767566223 229.2 L 870.6763254984869 229.2 L 871.4017742403515 209.1 L 872.1272229822162 209.1 L 872.8526717240808 177.7 L 873.5781204659454 177.7 L 874.3035692078099 177.7 L 875.0290179496745 177.7 L 875.7544666915392 180.4 L 876.4799154334038 180.4 L 877.2053641752684 189.6 L 877.930812917133 189.6 L 878.6562616589977 51 L 879.3817104008623 51 L 880.1071591427268 135.2 L 880.8326078845914 135.2 L 881.558056626456 212.8 L 882.2835053683207 212.8 L 883.0089541101853 55.9 L 883.7344028520499 55.9 L 884.4598515939145 -2.7 L 885.1853003357792 -2.7 L 885.9107490776437 142.6 L 886.6361978195083 142.6 L 887.3616465613729 166.8 L 888.0870953032376 166.8 L 888.8125440451022 173.2 L 889.5379927869668 173.2 L 890.2634415288314 176.8 L 890.9888902706961 176.8 L 891.7143390125606 183.1 L 892.4397877544252 183.1 L 893.1652364962898 160.2 L 893.8906852381544 160.2 L 894.6161339800191 154.7 L 895.3415827218837 154.7 L 896.0670314637483 168 L 896.792480205613 168 L 897.5179289474775 170 L 898.2433776893421 170 L 898.9688264312067 160.5 L 899.6942751730713 160.5 L 900.419723914936 175.6 L 901.1451726568006 175.6 L 901.8706213986652 181.2 L 902.5960701405298 181.2 L 903.3215188823943 163.5 L 904.046967624259 163.5 L 904.7724163661236 168.5 L 905.4978651079882 168.5 L 906.2233138498528 165.6 L 906.9487625917175 165.6 L 907.6742113335821 153 L 908.3996600754467 167.7 L 909.1251088173112 167.7 L 909.8505575591759 168.2 L 910.5760063010405 168.2 L 911.3014550429051 160 L 912.0269037847697 160 L 912.7523525266344 183 L 913.477801268499 183 L 914.2032500103636 175.2 L 914.9286987522281 175.2 L 915.6541474940927 151.4 L 916.3795962359574 151.4 L 917.105044977822 58.5 L 917.8304937196866 73.7 L 918.5559424615512 73.7 L 919.2813912034159 163.2 L 920.0068399452804 163.2 L 920.732288687145 157.4 L 921.4577374290096 157.4 L 922.1831861708743 172.2 L 922.9086349127389 172.2 L 923.6340836546035 209.2 L 924.3595323964681 209.2 L 925.0849811383328 211.1 L 925.8104298801973 211.1 L 926.5358786220619 187.4 L 927.2613273639265 187.4 L 927.9867761057911 183.8 L 928.7122248476558 183.8 L 929.4376735895204 178.6 L 930.163122331385 178.6 L 930.8885710732496 174.7 L 931.6140198151141 174.7 L 932.3394685569788 159 L 933.0649172988434 159 L 933.790366040708 131.2 L 934.5158147825726 131.2 L 935.2412635244373 170.9 L 935.9667122663019 170.9 L 936.6921610081665 181.3 L 937.417609750031 181.3 L 938.1430584918957 172.9 L 938.8685072337603 172.9 L 939.5939559756249 160 L 940.3194047174895 160 L 941.0448534593542 172.2 L 941.7703022012188 172.2 L 942.4957509430834 172 L 943.2211996849479 172 L 943.9466484268125 173.6 L 944.6720971686772 173.6 L 945.3975459105418 174.7 L 946.1229946524064 174.7 L 946.848443394271 167.6 L 947.5738921361357 167.6 L 948.2993408780003 121.1 L 949.0247896198648 121.1 L 949.7502383617294 197.5 L 950.475687103594 197.5 L 951.2011358454587 267.8 L 951.9265845873233 279.8 L 952.6520333291879 279.8 L 953.3774820710526 285.3 L 954.1029308129172 285.3 L 954.8283795547817 270.4 L 955.5538282966463 270.4 L 956.2792770385109 251.9 L 957.0047257803756 251.9 L 957.7301745222402 287.7 L 958.4556232641048 287.7 L 959.1810720059694 294.2 L 959.9065207478341 294.2 L 960.6319694896986 285.3 L 961.3574182315632 285.3 L 962.0828669734278 273.6 L 962.8083157152925 273.6 L 963.5337644571571 284.2 L 964.2592131990217 284.2 L 964.9846619408863 285.6 L 965.7101106827508 285.6 L 966.4355594246155 286.4 L 967.1610081664801 286.4 L 967.8864569083447 286.2 L 968.6119056502093 286.2 L 969.337354392074 298.7 L 970.0628031339386 298.7 L 970.7882518758032 314.4 L 971.5137006176677 314.4 L 972.2391493595323 309.9 L 972.964598101397 309.9 L 973.6900468432616 291.3 L 974.4154955851262 291.3 L 975.1409443269908 285.5 L 975.8663930688555 285.5 L 976.5918418107201 287.1 L 977.3172905525846 287.1 L 978.0427392944492 285.9 L 978.7681880363139 285.9 L 979.4936367781785 286.5 L 980.2190855200431 286.5 L 980.9445342619077 284.6 L 981.6699830037724 284.6 L 982.395431745637 291.3 L 983.1208804875015 291.3 L 983.8463292293661 140.3 L 984.5717779712307 140.3 L 985.2972267130954 174.7 L 986.02267545496 221.6 L 986.7481241968246 221.6 L 987.4735729386892 244.6 L 988.1990216805539 244.6 L 988.9244704224184 265.5 L 989.649919164283 265.5 L 990.3753679061476 285.8 L 991.1008166480123 285.8 L 991.8262653898769 301.3 L 992.5517141317415 301.3 L 993.2771628736061 314.5 L 994.0026116154708 314.5 L 994.7280603573353 307.6 L 995.4535090991999 307.6 L 996.1789578410645 289.2 L 996.9044065829291 289.2 L 997.6298553247938 286.2 L 998.3553040666584 286.2 L 999.080752808523 285.9 L 999.8062015503876 285.9 L 1000.5316502922522 286.5 L 1001.2570990341168 286.5 L 1001.9825477759814 263.3 L 1002.707996517846 263.3 L 1003.4334452597107 251.7 L 1004.1588940015753 251.7 L 1004.8843427434399 293.2 L 1005.6097914853045 293.2 L 1006.335240227169 299.9 L 1007.0606889690337 299.9 L 1007.7861377108983 278.3 L 1008.5115864527629 278.3 L 1009.2370351946275 276.8 L 1009.9624839364922 276.8 L 1010.6879326783568 286.8 L 1011.4133814202214 286.8 L 1012.1388301620859 286.6 L 1012.8642789039505 286.6 L 1013.5897276458152 285.8 L 1014.3151763876798 285.8 L 1015.0406251295444 287.6 L 1015.766073871409 287.6 L 1016.4915226132737 304.9 L 1017.2169713551382 304.9 L 1017.9424200970028 315.3 L 1018.6678688388674 315.3 L 1019.3933175807321 286.7 L 1020.1187663225967 286.7 L 1020.8442150644613 287 L 1021.5696638063259 287 L 1022.2951125481906 286.1 L 1023.0205612900551 286.1 L 1023.7460100319197 285.8 L 1024.4714587737844 285.8 L 1025.196907515649 295.4 L 1025.9223562575135 298.3 L 1026.6478049993782 298.3 L 1027.3732537412427 275.8 L 1028.0987024831074 275.8 L 1028.824151224972 279.6 L 1029.5495999668367 279.6 L 1030.2750487087012 286 L 1031.000497450566 286 L 1031.7259461924305 286.5 L 1032.451394934295 286.5 L 1033.1768436761597 286.5 L 1033.9022924180242 286.5 L 1034.627741159889 289.6 L 1035.3531899017535 289.6 L 1036.0786386436182 308.3 L 1036.8040873854827 308.3 L 1037.5295361273472 314.5 L 1038.254984869212 314.5 L 1038.9804336110765 301.9 L 1039.7058823529412 301.9 L 1049.7058823529412 301.9" class="highcharts-tracker highcharts-tracker" stroke-linejoin="round" visibility="visible" stroke-opacity="0.0001" stroke="rgb(192,192,192)" stroke-width="21" zIndex="2" style=""></path></g></g><g class="highcharts-axis-labels" zIndex="7"><text x="70.29411764705883" y="386" style="font-family:&quot;Lucida Grande&quot;, &quot;Lucida Sans Unicode&quot;, Verdana, Arial, Helvetica, sans-serif;font-size:11px;color:#666;cursor:default;line-height:14px;fill:#666;" text-anchor="middle" opacity="1"><tspan x="70.29411764705883">0</tspan></text><text x="142.83899183351986" y="386" style="font-family:&quot;Lucida Grande&quot;, &quot;Lucida Sans Unicode&quot;, Verdana, Arial, Helvetica, sans-serif;font-size:11px;color:#666;cursor:default;line-height:14px;fill:#666;" text-anchor="middle" opacity="1"><tspan x="142.83899183351986">100</tspan></text><text x="215.38386601998093" y="386" style="font-family:&quot;Lucida Grande&quot;, &quot;Lucida Sans Unicode&quot;, Verdana, Arial, Helvetica, sans-serif;font-size:11px;color:#666;cursor:default;line-height:14px;fill:#666;" text-anchor="middle" opacity="1"><tspan x="215.38386601998093">200</tspan></text><text x="287.92874020644194" y="386" style="font-family:&quot;Lucida Grande&quot;, &quot;Lucida Sans Unicode&quot;, Verdana, Arial, Helvetica, sans-serif;font-size:11px;color:#666;cursor:default;line-height:14px;fill:#666;" text-anchor="middle" opacity="1"><tspan x="287.92874020644194">300</tspan></text><text x="360.473614392903" y="386" style="font-family:&quot;Lucida Grande&quot;, &quot;Lucida Sans Unicode&quot;, Verdana, Arial, Helvetica, sans-serif;font-size:11px;color:#666;cursor:default;line-height:14px;fill:#666;" text-anchor="middle" opacity="1"><tspan x="360.473614392903">400</tspan></text><text x="433.0184885793641" y="386" style="font-family:&quot;Lucida Grande&quot;, &quot;Lucida Sans Unicode&quot;, Verdana, Arial, Helvetica, sans-serif;font-size:11px;color:#666;cursor:default;line-height:14px;fill:#666;" text-anchor="middle" opacity="1"><tspan x="433.0184885793641">500</tspan></text><text x="505.56336276582516" y="386" style="font-family:&quot;Lucida Grande&quot;, &quot;Lucida Sans Unicode&quot;, Verdana, Arial, Helvetica, sans-serif;font-size:11px;color:#666;cursor:default;line-height:14px;fill:#666;" text-anchor="middle" opacity="1"><tspan x="505.56336276582516">600</tspan></text><text x="578.1082369522862" y="386" style="font-family:&quot;Lucida Grande&quot;, &quot;Lucida Sans Unicode&quot;, Verdana, Arial, Helvetica, sans-serif;font-size:11px;color:#666;cursor:default;line-height:14px;fill:#666;" text-anchor="middle" opacity="1"><tspan x="578.1082369522862">700</tspan></text><text x="650.6531111387472" y="386" style="font-family:&quot;Lucida Grande&quot;, &quot;Lucida Sans Unicode&quot;, Verdana, Arial, Helvetica, sans-serif;font-size:11px;color:#666;cursor:default;line-height:14px;fill:#666;" text-anchor="middle" opacity="1"><tspan x="650.6531111387472">800</tspan></text><text x="723.1979853252083" y="386" style="font-family:&quot;Lucida Grande&quot;, &quot;Lucida Sans Unicode&quot;, Verdana, Arial, Helvetica, sans-serif;font-size:11px;color:#666;cursor:default;line-height:14px;fill:#666;" text-anchor="middle" opacity="1"><tspan x="723.1979853252083">900</tspan></text><text x="795.7428595116694" y="386" style="font-family:&quot;Lucida Grande&quot;, &quot;Lucida Sans Unicode&quot;, Verdana, Arial, Helvetica, sans-serif;font-size:11px;color:#666;cursor:default;line-height:14px;fill:#666;" text-anchor="middle" opacity="1"><tspan x="795.7428595116694">1,000</tspan></text><text x="868.2877336981304" y="386" style="font-family:&quot;Lucida Grande&quot;, &quot;Lucida Sans Unicode&quot;, Verdana, Arial, Helvetica, sans-serif;font-size:11px;color:#666;cursor:default;line-height:14px;fill:#666;" text-anchor="middle" opacity="1"><tspan x="868.2877336981304">1,100</tspan></text><text x="940.8326078845914" y="386" style="font-family:&quot;Lucida Grande&quot;, &quot;Lucida Sans Unicode&quot;, Verdana, Arial, Helvetica, sans-serif;font-size:11px;color:#666;cursor:default;line-height:14px;fill:#666;" text-anchor="middle" opacity="1"><tspan x="940.8326078845914">1,200</tspan></text><text x="1013.3774820710526" y="386" style="font-family:&quot;Lucida Grande&quot;, &quot;Lucida Sans Unicode&quot;, Verdana, Arial, Helvetica, sans-serif;font-size:11px;color:#666;cursor:default;line-height:14px;fill:#666;" text-anchor="middle" opacity="1"><tspan x="1013.3774820710526">1,300</tspan></text><text x="1085.9223562575135" y="386" style="font-family:&quot;Lucida Grande&quot;, &quot;Lucida Sans Unicode&quot;, Verdana, Arial, Helvetica, sans-serif;font-size:11px;color:#666;cursor:default;line-height:14px;fill:#666;" text-anchor="middle" opacity="1"><tspan x="1085.9223562575135">1,400</tspan></text></g><g class="highcharts-axis-labels" zIndex="7"><text x="52" y="378.115625" style="font-family:&quot;Lucida Grande&quot;, &quot;Lucida Sans Unicode&quot;, Verdana, Arial, Helvetica, sans-serif;font-size:11px;width:505px;color:#666;cursor:default;line-height:14px;fill:#666;" text-anchor="end" opacity="1"><tspan x="52">0</tspan></text><text x="52" y="317.78229166666665" style="font-family:&quot;Lucida Grande&quot;, &quot;Lucida Sans Unicode&quot;, Verdana, Arial, Helvetica, sans-serif;font-size:11px;width:505px;color:#666;cursor:default;line-height:14px;fill:#666;" text-anchor="end" opacity="1"><tspan x="52">0.1</tspan></text><text x="52" y="257.44895833333334" style="font-family:&quot;Lucida Grande&quot;, &quot;Lucida Sans Unicode&quot;, Verdana, Arial, Helvetica, sans-serif;font-size:11px;width:505px;color:#666;cursor:default;line-height:14px;fill:#666;" text-anchor="end" opacity="1"><tspan x="52">0.2</tspan></text><text x="52" y="197.115625" style="font-family:&quot;Lucida Grande&quot;, &quot;Lucida Sans Unicode&quot;, Verdana, Arial, Helvetica, sans-serif;font-size:11px;width:505px;color:#666;cursor:default;line-height:14px;fill:#666;" text-anchor="end" opacity="1"><tspan x="52">0.3</tspan></text><text x="52" y="136.78229166666662" style="font-family:&quot;Lucida Grande&quot;, &quot;Lucida Sans Unicode&quot;, Verdana, Arial, Helvetica, sans-serif;font-size:11px;width:505px;color:#666;cursor:default;line-height:14px;fill:#666;" text-anchor="end" opacity="1"><tspan x="52">0.4</tspan></text><text x="52" y="76.44895833333331" style="font-family:&quot;Lucida Grande&quot;, &quot;Lucida Sans Unicode&quot;, Verdana, Arial, Helvetica, sans-serif;font-size:11px;width:505px;color:#666;cursor:default;line-height:14px;fill:#666;" text-anchor="end" opacity="1"><tspan x="52">0.5</tspan></text><text x="52" y="16.115625" style="font-family:&quot;Lucida Grande&quot;, &quot;Lucida Sans Unicode&quot;, Verdana, Arial, Helvetica, sans-serif;font-size:11px;width:505px;color:#666;cursor:default;line-height:14px;fill:#666;" text-anchor="end" opacity="1"><tspan x="52">0.6</tspan></text></g><g class="highcharts-tooltip" zIndex="8" style="cursor:default;padding:0;white-space:nowrap;" visibility="hidden" transform="translate(167,120)" opacity="0"><rect rx="3" ry="3" fill="none" x="0.5" y="0.5" width="314" height="44.203125" fill-opacity="0.85" isShadow="true" stroke="black" stroke-opacity="0.049999999999999996" stroke-width="5" transform="translate(1, 1)"></rect><rect rx="3" ry="3" fill="none" x="0.5" y="0.5" width="314" height="44.203125" fill-opacity="0.85" isShadow="true" stroke="black" stroke-opacity="0.09999999999999999" stroke-width="3" transform="translate(1, 1)"></rect><rect rx="3" ry="3" fill="none" x="0.5" y="0.5" width="314" height="44.203125" fill-opacity="0.85" isShadow="true" stroke="black" stroke-opacity="0.15" stroke-width="1" transform="translate(1, 1)"></rect><rect rx="3" ry="3" fill="rgb(255,255,255)" x="0.5" y="0.5" width="314" height="44.203125" fill-opacity="0.85" stroke="#c42525" stroke-width="1" anchorX="-11.5" anchorY="29"></rect><text x="8" y="21" style="font-family:&quot;Lucida Grande&quot;, &quot;Lucida Sans Unicode&quot;, Verdana, Arial, Helvetica, sans-serif;font-size:12px;color:#333333;fill:#333333;" zIndex="1"><tspan style="font-size: 10px" x="8">118</tspan><tspan style="fill:#c42525" x="8" dy="16">exp9 localStorage 1MB w</tspan><tspan dx="0">: </tspan><tspan style="font-weight:bold" dx="0">0.36911573968108646</tspan></text></g><text x="1110" y="395" style="font-family:&quot;Lucida Grande&quot;, &quot;Lucida Sans Unicode&quot;, Verdana, Arial, Helvetica, sans-serif;font-size:9px;cursor:pointer;color:#909090;fill:#909090;" text-anchor="end" zIndex="8"><tspan x="1110">Highcharts.com</tspan></text></svg>