<svg xmlns="http://www.w3.org/2000/svg" version="1.1" width="1120" height="400"><desc>Created with Highcharts 3.0.2</desc><defs><clipPath id="highcharts-1"><rect fill="none" x="0" y="0" width="1050" height="361"></rect></clipPath></defs><rect rx="5" ry="5" fill="#FFFFFF" x="0" y="0" width="1120" height="400"></rect><g class="highcharts-grid" zIndex="1"></g><g class="highcharts-grid" zIndex="1"><path fill="none" d="M 60 312.5 L 1110 312.5" stroke="#C0C0C0" stroke-width="1" zIndex="1" opacity="1"></path><path fill="none" d="M 60 251.5 L 1110 251.5" stroke="#C0C0C0" stroke-width="1" zIndex="1" opacity="1"></path><path fill="none" d="M 60 191.5 L 1110 191.5" stroke="#C0C0C0" stroke-width="1" zIndex="1" opacity="1"></path><path fill="none" d="M 60 131.5 L 1110 131.5" stroke="#C0C0C0" stroke-width="1" zIndex="1" opacity="1"></path><path fill="none" d="M 60 70.5 L 1110 70.5" stroke="#C0C0C0" stroke-width="1" zIndex="1" opacity="1"></path><path fill="none" d="M 60 10.5 L 1110 10.5" stroke="#C0C0C0" stroke-width="1" zIndex="1" opacity="1"></path><path fill="none" d="M 60 371.5 L 1110 371.5" stroke="#C0C0C0" stroke-width="1" zIndex="1" opacity="1"></path></g><g class="highcharts-axis" zIndex="2"><path fill="none" d="M 157.5 372 L 157.5 377" stroke="#C0D0E0" stroke-width="1" opacity="1"></path><path fill="none" d="M 244.5 372 L 244.5 377" stroke="#C0D0E0" stroke-width="1" opacity="1"></path><path fill="none" d="M 331.5 372 L 331.5 377" stroke="#C0D0E0" stroke-width="1" opacity="1"></path><path fill="none" d="M 418.5 372 L 418.5 377" stroke="#C0D0E0" stroke-width="1" opacity="1"></path><path fill="none" d="M 505.5 372 L 505.5 377" stroke="#C0D0E0" stroke-width="1" opacity="1"></path><path fill="none" d="M 593.5 372 L 593.5 377" stroke="#C0D0E0" stroke-width="1" opacity="1"></path><path fill="none" d="M 680.5 372 L 680.5 377" stroke="#C0D0E0" stroke-width="1" opacity="1"></path><path fill="none" d="M 767.5 372 L 767.5 377" stroke="#C0D0E0" stroke-width="1" opacity="1"></path><path fill="none" d="M 854.5 372 L 854.5 377" stroke="#C0D0E0" stroke-width="1" opacity="1"></path><path fill="none" d="M 942.5 372 L 942.5 377" stroke="#C0D0E0" stroke-width="1" opacity="1"></path><path fill="none" d="M 1029.5 372 L 1029.5 377" stroke="#C0D0E0" stroke-width="1" opacity="1"></path><path fill="none" d="M 69.5 372 L 69.5 377" stroke="#C0D0E0" stroke-width="1" opacity="1"></path><path fill="none" d="M 60 371.5 L 1110 371.5" stroke="#C0D0E0" stroke-width="1" zIndex="7" visibility="visible"></path></g><g class="highcharts-axis" zIndex="2"><text x="24.59375" y="191" style="font-family:&quot;Lucida Grande&quot;, &quot;Lucida Sans Unicode&quot;, Verdana, Arial, Helvetica, sans-serif;font-size:12px;color:#4d759e;font-weight:bold;fill:#4d759e;" zIndex="7" text-anchor="middle" transform="translate(0,0) rotate(270 24.59375 191)" visibility="visible"><tspan x="24.59375">Amperage</tspan></text></g><g class="highcharts-series-group" zIndex="3"><g class="highcharts-series" visibility="visible" zIndex="0.1" transform="translate(60,10) scale(1 1)" clip-path="url(#highcharts-1)"><path fill="none" d="M 10.294117647058824 291.6 L 13.783649052841477 311.5 L 17.27318045862413 311.5 L 20.762711864406782 317.3 L 24.252243270189435 317.3 L 27.741774675972085 302.7 L 31.231306081754735 302.7 L 34.72083748753739 288.8 L 38.21036889332004 288.5 L 41.699900299102694 288.5 L 45.189431704885344 288.6 L 48.678963110668 288.6 L 52.16849451645065 287.6 L 55.6580259222333 287.6 L 59.14755732801596 288.5 L 62.637088733798606 288.5 L 66.12662013958126 300.8 L 69.6161515453639 300.8 L 73.10568295114656 296.5 L 76.59521435692922 296.5 L 80.08474576271186 277 L 83.57427716849452 277 L 87.06380857427718 285.8 L 90.55333998005983 285.8 L 94.04287138584247 287.6 L 97.53240279162513 287.6 L 101.02193419740779 288.3 L 104.51146560319043 288.3 L 108.00099700897309 288.6 L 111.49052841475574 288.6 L 114.9800598205384 294.1 L 118.46959122632106 294.1 L 121.95912263210371 314.2 L 125.44865403788636 314.2 L 128.938185443669 316.3 L 132.42771684945166 316.3 L 135.9172482552343 299.2 L 139.40677966101697 299.2 L 142.89631106679963 288.5 L 146.38584247258228 288.5 L 149.87537387836494 288.8 L 153.36490528414757 288.8 L 156.85443668993022 288.6 L 160.34396809571288 288.6 L 163.83349950149554 287.3 L 167.3230309072782 287.3 L 170.81256231306085 287.2 L 174.30209371884348 290.3 L 177.79162512462614 290.3 L 181.2811565304088 302.7 L 184.77068793619145 302.7 L 188.2602193419741 293.5 L 191.74975074775676 293.5 L 195.23928215353942 277.7 L 198.72881355932205 277.7 L 202.2183449651047 285.9 L 205.70787637088736 285.9 L 209.19740777667002 292.6 L 212.68693918245268 292.6 L 216.17647058823533 264.9 L 219.66600199401796 264.9 L 223.15553339980062 291.9 L 226.64506480558327 291.9 L 230.13459621136593 289.2 L 233.6241276171486 289.2 L 237.11365902293124 282.8 L 240.60319042871387 282.8 L 244.09272183449653 287.6 L 247.5822532402792 287.6 L 251.07178464606184 287.9 L 254.5613160518445 287.9 L 258.0508474576271 287.6 L 261.5403788634098 287.6 L 265.02991026919244 288.8 L 268.5194416749751 288.8 L 272.00897308075776 291.9 L 275.4985044865404 291.9 L 278.98803589232307 303.2 L 282.4775672981057 289.6 L 285.9670987038884 289.6 L 289.45663010967104 278.5 L 292.9461615154537 278.5 L 296.4356929212363 286.4 L 299.92522432701895 286.4 L 303.4147557328016 289.4 L 306.90428713858427 289.4 L 310.3938185443669 287.9 L 313.8833499501496 287.9 L 317.37288135593224 288 L 320.8624127617149 288 L 324.35194416749755 296.1 L 327.8414755732802 296.1 L 331.33100697906286 258.3 L 334.8205383848455 258.3 L 338.3100697906282 203.4 L 341.7996011964108 203.4 L 345.28913260219343 180.1 L 348.7786640079761 180.1 L 352.26819541375875 184.2 L 355.7577268195414 184.2 L 359.24725822532406 178.9 L 362.7367896311067 178.9 L 366.2263210368894 182.9 L 369.71585244267203 182.9 L 373.2053838484547 168.8 L 376.69491525423734 168.8 L 380.18444666002 196.6 L 383.67397806580266 196.6 L 387.16350947158526 205.2 L 390.6530408773679 205.2 L 394.14257228315057 195 L 397.6321036889332 195 L 401.1216350947159 176.2 L 404.61116650049854 176.2 L 408.1006979062812 205.4 L 411.59022931206385 249.4 L 415.0797607178465 249.4 L 418.56929212362917 253.9 L 422.0588235294118 253.9 L 425.5483549351945 240.2 L 429.03788634097714 240.2 L 432.52741774675974 120.1 L 436.0169491525424 120.1 L 439.50648055832505 146.7 L 442.9960119641077 146.7 L 446.48554336989037 242 L 449.97507477567297 242 L 453.4646061814556 280.1 L 456.9541375872383 280.1 L 460.44366899302094 283.1 L 463.9332003988036 283.1 L 467.42273180458625 283.3 L 470.9122632103689 283.3 L 474.40179461615156 282.2 L 477.8913260219342 282.2 L 481.3808574277168 284.3 L 484.8703888334995 284.3 L 488.35992023928213 252 L 491.8494516450648 252 L 495.33898305084745 192.1 L 498.8285144566301 192.1 L 502.31804586241276 213.8 L 505.8075772681954 213.8 L 509.2971086739781 194.6 L 512.7866400797607 194.6 L 516.2761714855434 136.9 L 519.765702891326 136.9 L 523.2552342971087 -17.4 L 526.7447657028913 -17.4 L 530.234297108674 70.9 L 533.7238285144566 70.9 L 537.2133599202393 212.1 L 540.7028913260219 212.1 L 544.1924227318046 276.2 L 547.6819541375872 276.2 L 551.1714855433698 293.1 L 554.6610169491526 293.1 L 558.1505483549352 307.8 L 561.6400797607179 286.9 L 565.1296111665005 286.9 L 568.6191425722832 282.4 L 572.1086739780658 282.4 L 575.5982053838485 282.6 L 579.0877367896311 282.6 L 582.5772681954138 284.6 L 586.0667996011964 284.6 L 589.5563310069791 283 L 593.0458624127617 283 L 596.5353938185443 271.3 L 600.024925224327 271.3 L 603.5144566301096 288.3 L 607.0039880358923 288.3 L 610.493519441675 299 L 613.9830508474577 299 L 617.4725822532403 275.5 L 620.962113659023 275.5 L 624.4516450648056 277.1 L 627.9411764705883 277.1 L 631.4307078763709 283.6 L 634.9202392821536 283.6 L 638.4097706879362 283.5 L 641.8993020937188 283.5 L 645.3888334995015 283.1 L 648.8783649052841 283.1 L 652.3678963110668 281.2 L 655.8574277168494 281.2 L 659.3469591226321 290 L 662.8364905284147 290 L 666.3260219341975 309.9 L 669.81555333998 297.7 L 673.3050847457628 297.7 L 676.7946161515454 284.3 L 680.2841475573281 284.3 L 683.7736789631107 278.3 L 687.2632103688933 278.3 L 690.752741774676 279.9 L 694.2422731804586 279.9 L 697.7318045862413 282.4 L 701.2213359920239 282.4 L 704.7108673978066 282.5 L 708.2003988035892 282.5 L 711.6899302093719 266.5 L 715.1794616151545 266.5 L 718.6689930209373 292.3 L 722.1585244267199 298.6 L 725.6480558325026 275.9 L 729.1375872382852 275.9 L 732.6271186440678 277.4 L 736.1166500498505 284.2 L 739.6061814556331 284.2 L 743.0957128614158 283.1 L 746.5852442671984 283.1 L 750.0747756729811 284.9 L 753.5643070787637 284.9 L 757.0538384845464 283.7 L 760.543369890329 283.7 L 764.0329012961117 301.2 L 767.5224327018943 301.2 L 771.0119641076769 309.4 L 774.5014955134596 309.4 L 777.9910269192422 299.3 L 781.480558325025 299.3 L 784.9700897308076 282 L 788.4596211365903 282 L 791.9491525423729 282.1 L 795.4386839481556 282.1 L 798.9282153539382 283.5 L 802.4177467597209 283.5 L 805.9072781655035 281.7 L 809.3968095712862 281.7 L 812.8863409770688 248.6 L 816.3758723828514 248.6 L 819.8654037886341 227.6 L 823.3549351944167 227.6 L 826.8444666001994 290 L 830.333998005982 290 L 833.8235294117648 292.5 L 837.3130608175474 292.5 L 840.8025922233301 272.9 L 844.2921236291127 272.9 L 847.7816550348954 280.2 L 851.271186440678 280.2 L 854.7607178464607 284.2 L 858.2502492522433 284.2 L 861.7397806580259 283.4 L 865.2293120638086 283.4 L 868.7188434695912 270.8 L 872.2083748753739 270.8 L 875.6979062811565 244.2 L 879.1874376869392 244.2 L 882.6769690927218 303.9 L 886.1665004985045 303.9 L 889.6560319042871 316.9 L 893.1455633100699 296.9 L 896.6350947158525 283.5 L 900.1246261216352 283.3 L 903.6141575274178 283.3 L 907.1036889332004 283.7 L 910.5932203389831 283.7 L 914.0827517447657 283.9 L 917.5722831505484 283.9 L 921.061814556331 282.1 L 924.5513459621137 282.1 L 928.0408773678963 279 L 931.530408773679 279 L 935.0199401794616 302.2 L 938.5094715852443 302.2 L 941.9990029910269 292.3 L 945.4885343968097 292.3 L 948.9780658025923 273.5 L 952.4675972083749 273.5 L 955.9571286141576 280.6 L 959.4466600199402 280.6 L 962.9361914257229 283.9 L 966.4257228315055 283.9 L 969.9152542372882 283.3 L 973.4047856430708 283.3 L 976.8943170488535 283.7 L 980.3838484546361 283.7 L 983.8733798604188 286.7 L 987.3629112662014 286.7 L 990.8524426719841 311.5 L 994.3419740777667 311.5 L 997.8315054835493 314.1" stroke="#2f7ed8" stroke-width="1" zIndex="1"></path></g><g class="highcharts-markers" visibility="visible" zIndex="0.1" transform="translate(60,10) scale(1 1)" clip-path="none"><path fill="none" d="M 0.29411764705882426 291.6 L 10.294117647058824 291.6 L 13.783649052841477 311.5 L 17.27318045862413 311.5 L 20.762711864406782 317.3 L 24.252243270189435 317.3 L 27.741774675972085 302.7 L 31.231306081754735 302.7 L 34.72083748753739 288.8 L 38.21036889332004 288.5 L 41.699900299102694 288.5 L 45.189431704885344 288.6 L 48.678963110668 288.6 L 52.16849451645065 287.6 L 55.6580259222333 287.6 L 59.14755732801596 288.5 L 62.637088733798606 288.5 L 66.12662013958126 300.8 L 69.6161515453639 300.8 L 73.10568295114656 296.5 L 76.59521435692922 296.5 L 80.08474576271186 277 L 83.57427716849452 277 L 87.06380857427718 285.8 L 90.55333998005983 285.8 L 94.04287138584247 287.6 L 97.53240279162513 287.6 L 101.02193419740779 288.3 L 104.51146560319043 288.3 L 108.00099700897309 288.6 L 111.49052841475574 288.6 L 114.9800598205384 294.1 L 118.46959122632106 294.1 L 121.95912263210371 314.2 L 125.44865403788636 314.2 L 128.938185443669 316.3 L 132.42771684945166 316.3 L 135.9172482552343 299.2 L 139.40677966101697 299.2 L 142.89631106679963 288.5 L 146.38584247258228 288.5 L 149.87537387836494 288.8 L 153.36490528414757 288.8 L 156.85443668993022 288.6 L 160.34396809571288 288.6 L 163.83349950149554 287.3 L 167.3230309072782 287.3 L 170.81256231306085 287.2 L 174.30209371884348 290.3 L 177.79162512462614 290.3 L 181.2811565304088 302.7 L 184.77068793619145 302.7 L 188.2602193419741 293.5 L 191.74975074775676 293.5 L 195.23928215353942 277.7 L 198.72881355932205 277.7 L 202.2183449651047 285.9 L 205.70787637088736 285.9 L 209.19740777667002 292.6 L 212.68693918245268 292.6 L 216.17647058823533 264.9 L 219.66600199401796 264.9 L 223.15553339980062 291.9 L 226.64506480558327 291.9 L 230.13459621136593 289.2 L 233.6241276171486 289.2 L 237.11365902293124 282.8 L 240.60319042871387 282.8 L 244.09272183449653 287.6 L 247.5822532402792 287.6 L 251.07178464606184 287.9 L 254.5613160518445 287.9 L 258.0508474576271 287.6 L 261.5403788634098 287.6 L 265.02991026919244 288.8 L 268.5194416749751 288.8 L 272.00897308075776 291.9 L 275.4985044865404 291.9 L 278.98803589232307 303.2 L 282.4775672981057 289.6 L 285.9670987038884 289.6 L 289.45663010967104 278.5 L 292.9461615154537 278.5 L 296.4356929212363 286.4 L 299.92522432701895 286.4 L 303.4147557328016 289.4 L 306.90428713858427 289.4 L 310.3938185443669 287.9 L 313.8833499501496 287.9 L 317.37288135593224 288 L 320.8624127617149 288 L 324.35194416749755 296.1 L 327.8414755732802 296.1 L 331.33100697906286 258.3 L 334.8205383848455 258.3 L 338.3100697906282 203.4 L 341.7996011964108 203.4 L 345.28913260219343 180.1 L 348.7786640079761 180.1 L 352.26819541375875 184.2 L 355.7577268195414 184.2 L 359.24725822532406 178.9 L 362.7367896311067 178.9 L 366.2263210368894 182.9 L 369.71585244267203 182.9 L 373.2053838484547 168.8 L 376.69491525423734 168.8 L 380.18444666002 196.6 L 383.67397806580266 196.6 L 387.16350947158526 205.2 L 390.6530408773679 205.2 L 394.14257228315057 195 L 397.6321036889332 195 L 401.1216350947159 176.2 L 404.61116650049854 176.2 L 408.1006979062812 205.4 L 411.59022931206385 249.4 L 415.0797607178465 249.4 L 418.56929212362917 253.9 L 422.0588235294118 253.9 L 425.5483549351945 240.2 L 429.03788634097714 240.2 L 432.52741774675974 120.1 L 436.0169491525424 120.1 L 439.50648055832505 146.7 L 442.9960119641077 146.7 L 446.48554336989037 242 L 449.97507477567297 242 L 453.4646061814556 280.1 L 456.9541375872383 280.1 L 460.44366899302094 283.1 L 463.9332003988036 283.1 L 467.42273180458625 283.3 L 470.9122632103689 283.3 L 474.40179461615156 282.2 L 477.8913260219342 282.2 L 481.3808574277168 284.3 L 484.8703888334995 284.3 L 488.35992023928213 252 L 491.8494516450648 252 L 495.33898305084745 192.1 L 498.8285144566301 192.1 L 502.31804586241276 213.8 L 505.8075772681954 213.8 L 509.2971086739781 194.6 L 512.7866400797607 194.6 L 516.2761714855434 136.9 L 519.765702891326 136.9 L 523.2552342971087 -17.4 L 526.7447657028913 -17.4 L 530.234297108674 70.9 L 533.7238285144566 70.9 L 537.2133599202393 212.1 L 540.7028913260219 212.1 L 544.1924227318046 276.2 L 547.6819541375872 276.2 L 551.1714855433698 293.1 L 554.6610169491526 293.1 L 558.1505483549352 307.8 L 561.6400797607179 286.9 L 565.1296111665005 286.9 L 568.6191425722832 282.4 L 572.1086739780658 282.4 L 575.5982053838485 282.6 L 579.0877367896311 282.6 L 582.5772681954138 284.6 L 586.0667996011964 284.6 L 589.5563310069791 283 L 593.0458624127617 283 L 596.5353938185443 271.3 L 600.024925224327 271.3 L 603.5144566301096 288.3 L 607.0039880358923 288.3 L 610.493519441675 299 L 613.9830508474577 299 L 617.4725822532403 275.5 L 620.962113659023 275.5 L 624.4516450648056 277.1 L 627.9411764705883 277.1 L 631.4307078763709 283.6 L 634.9202392821536 283.6 L 638.4097706879362 283.5 L 641.8993020937188 283.5 L 645.3888334995015 283.1 L 648.8783649052841 283.1 L 652.3678963110668 281.2 L 655.8574277168494 281.2 L 659.3469591226321 290 L 662.8364905284147 290 L 666.3260219341975 309.9 L 669.81555333998 297.7 L 673.3050847457628 297.7 L 676.7946161515454 284.3 L 680.2841475573281 284.3 L 683.7736789631107 278.3 L 687.2632103688933 278.3 L 690.752741774676 279.9 L 694.2422731804586 279.9 L 697.7318045862413 282.4 L 701.2213359920239 282.4 L 704.7108673978066 282.5 L 708.2003988035892 282.5 L 711.6899302093719 266.5 L 715.1794616151545 266.5 L 718.6689930209373 292.3 L 722.1585244267199 298.6 L 725.6480558325026 275.9 L 729.1375872382852 275.9 L 732.6271186440678 277.4 L 736.1166500498505 284.2 L 739.6061814556331 284.2 L 743.0957128614158 283.1 L 746.5852442671984 283.1 L 750.0747756729811 284.9 L 753.5643070787637 284.9 L 757.0538384845464 283.7 L 760.543369890329 283.7 L 764.0329012961117 301.2 L 767.5224327018943 301.2 L 771.0119641076769 309.4 L 774.5014955134596 309.4 L 777.9910269192422 299.3 L 781.480558325025 299.3 L 784.9700897308076 282 L 788.4596211365903 282 L 791.9491525423729 282.1 L 795.4386839481556 282.1 L 798.9282153539382 283.5 L 802.4177467597209 283.5 L 805.9072781655035 281.7 L 809.3968095712862 281.7 L 812.8863409770688 248.6 L 816.3758723828514 248.6 L 819.8654037886341 227.6 L 823.3549351944167 227.6 L 826.8444666001994 290 L 830.333998005982 290 L 833.8235294117648 292.5 L 837.3130608175474 292.5 L 840.8025922233301 272.9 L 844.2921236291127 272.9 L 847.7816550348954 280.2 L 851.271186440678 280.2 L 854.7607178464607 284.2 L 858.2502492522433 284.2 L 861.7397806580259 283.4 L 865.2293120638086 283.4 L 868.7188434695912 270.8 L 872.2083748753739 270.8 L 875.6979062811565 244.2 L 879.1874376869392 244.2 L 882.6769690927218 303.9 L 886.1665004985045 303.9 L 889.6560319042871 316.9 L 893.1455633100699 296.9 L 896.6350947158525 283.5 L 900.1246261216352 283.3 L 903.6141575274178 283.3 L 907.1036889332004 283.7 L 910.5932203389831 283.7 L 914.0827517447657 283.9 L 917.5722831505484 283.9 L 921.061814556331 282.1 L 924.5513459621137 282.1 L 928.0408773678963 279 L 931.530408773679 279 L 935.0199401794616 302.2 L 938.5094715852443 302.2 L 941.9990029910269 292.3 L 945.4885343968097 292.3 L 948.9780658025923 273.5 L 952.4675972083749 273.5 L 955.9571286141576 280.6 L 959.4466600199402 280.6 L 962.9361914257229 283.9 L 966.4257228315055 283.9 L 969.9152542372882 283.3 L 973.4047856430708 283.3 L 976.8943170488535 283.7 L 980.3838484546361 283.7 L 983.8733798604188 286.7 L 987.3629112662014 286.7 L 990.8524426719841 311.5 L 994.3419740777667 311.5 L 997.8315054835493 314.1 L 1007.8315054835493 314.1" class="highcharts-tracker highcharts-tracker" stroke-linejoin="round" visibility="visible" stroke-opacity="0.0001" stroke="rgb(192,192,192)" stroke-width="21" zIndex="2" style=""></path></g><g class="highcharts-series" visibility="visible" zIndex="0.1" transform="translate(60,10) scale(1 1)" clip-path="url(#highcharts-1)"><path fill="none" d="M 10.294117647058824 265.8 L 13.783649052841477 272.2 L 17.27318045862413 272.2 L 20.762711864406782 272.8 L 24.252243270189435 272.8 L 27.741774675972085 279.8 L 31.231306081754735 279.8 L 34.72083748753739 284.8 L 38.21036889332004 284.8 L 41.699900299102694 285 L 45.189431704885344 285 L 48.678963110668 265.8 L 52.16849451645065 265.8 L 55.6580259222333 247.6 L 59.14755732801596 247.6 L 62.637088733798606 247 L 66.12662013958126 247 L 69.6161515453639 207.3 L 73.10568295114656 207.3 L 76.59521435692922 247.9 L 80.08474576271186 247.9 L 83.57427716849452 271.6 L 87.06380857427718 271.6 L 90.55333998005983 283.9 L 94.04287138584247 283.9 L 97.53240279162513 284.8 L 101.02193419740779 285 L 104.51146560319043 285 L 108.00099700897309 271.3 L 111.49052841475574 271.3 L 114.9800598205384 260.9 L 118.46959122632106 260.9 L 121.95912263210371 254.8 L 125.44865403788636 254.8 L 128.938185443669 256 L 132.42771684945166 256 L 135.9172482552343 269.6 L 139.40677966101697 269.6 L 142.89631106679963 273.5 L 146.38584247258228 273.5 L 149.87537387836494 283.3 L 153.36490528414757 283.3 L 156.85443668993022 287.8 L 160.34396809571288 287.8 L 163.83349950149554 282 L 167.3230309072782 282 L 170.81256231306085 273.8 L 174.30209371884348 273.8 L 177.79162512462614 312.7 L 181.2811565304088 312.7 L 184.77068793619145 314.5 L 188.2602193419741 314.5 L 191.74975074775676 295 L 195.23928215353942 295 L 198.72881355932205 287.3 L 202.2183449651047 287.3 L 205.70787637088736 287.5 L 209.19740777667002 287.5 L 212.68693918245268 288.2 L 216.17647058823533 288.2 L 219.66600199401796 287.1 L 223.15553339980062 287.1 L 226.64506480558327 270.8 L 230.13459621136593 270.8 L 233.6241276171486 269.8 L 237.11365902293124 269.8 L 240.60319042871387 247.8 L 244.09272183449653 247.8 L 247.5822532402792 200.8 L 251.07178464606184 200.8 L 254.5613160518445 246.8 L 258.0508474576271 246.8 L 261.5403788634098 285.6 L 265.02991026919244 286.9 L 268.5194416749751 286.9 L 272.00897308075776 279.7 L 275.4985044865404 279.7 L 278.98803589232307 278.9 L 282.4775672981057 278.9 L 285.9670987038884 314.6 L 289.45663010967104 314.6 L 292.9461615154537 309.2 L 296.4356929212363 309.2 L 299.92522432701895 291.4 L 303.4147557328016 291.4 L 306.90428713858427 288 L 310.3938185443669 288 L 313.8833499501496 288.6 L 317.37288135593224 288.6 L 320.8624127617149 287.5 L 324.35194416749755 287.5 L 327.8414755732802 285.8 L 331.33100697906286 285.8 L 334.8205383848455 236.2 L 338.3100697906282 236.2 L 341.7996011964108 185.4 L 345.28913260219343 185.4 L 348.7786640079761 196.6 L 352.26819541375875 196.6 L 355.7577268195414 186.8 L 359.24725822532406 186.8 L 362.7367896311067 177.8 L 366.2263210368894 177.8 L 369.71585244267203 180 L 373.2053838484547 180 L 376.69491525423734 177.6 L 380.18444666002 177.6 L 383.67397806580266 156.2 L 387.16350947158526 156.2 L 390.6530408773679 150.8 L 394.14257228315057 150.8 L 397.6321036889332 182.4 L 401.1216350947159 182.4 L 404.61116650049854 219.5 L 408.1006979062812 219.5 L 411.59022931206385 218.6 L 415.0797607178465 218.6 L 418.56929212362917 194.3 L 422.0588235294118 194.3 L 425.5483549351945 235.3 L 429.03788634097714 246.5 L 432.52741774675974 57.9 L 436.0169491525424 186.2 L 439.50648055832505 186.2 L 442.9960119641077 276 L 446.48554336989037 276 L 449.97507477567297 278.8 L 453.4646061814556 278.8 L 456.9541375872383 274 L 460.44366899302094 274 L 463.9332003988036 283.2 L 467.42273180458625 283.2 L 470.9122632103689 283.3 L 474.40179461615156 283.3 L 477.8913260219342 283.4 L 481.3808574277168 283.4 L 484.8703888334995 267.5 L 488.35992023928213 267.5 L 491.8494516450648 214.1 L 495.33898305084745 214.1 L 498.8285144566301 221.5 L 502.31804586241276 221.5 L 505.8075772681954 223.7 L 509.2971086739781 201.6 L 512.7866400797607 201.6 L 516.2761714855434 116.1 L 519.765702891326 116.1 L 523.2552342971087 -18.3 L 526.7447657028913 -18.3 L 530.234297108674 88 L 533.7238285144566 88 L 537.2133599202393 174.7 L 540.7028913260219 174.7 L 544.1924227318046 167.8 L 547.6819541375872 167.8 L 551.1714855433698 255 L 554.6610169491526 255 L 558.1505483549352 300.1 L 561.6400797607179 300.1 L 565.1296111665005 275.5 L 568.6191425722832 275.5 L 572.1086739780658 275.8 L 575.5982053838485 275.8 L 579.0877367896311 282.7 L 582.5772681954138 282.7 L 586.0667996011964 283.3 L 589.5563310069791 283.3 L 593.0458624127617 283.1 L 596.5353938185443 283.1 L 600.024925224327 265.5 L 603.5144566301096 283.5 L 607.0039880358923 315.9 L 610.493519441675 315.9 L 613.9830508474577 304.1 L 617.4725822532403 304.1 L 620.962113659023 285.2 L 624.4516450648056 283.1 L 627.9411764705883 283.1 L 631.4307078763709 283.1 L 634.9202392821536 283.1 L 638.4097706879362 283.9 L 641.8993020937188 283.9 L 645.3888334995015 276.3 L 648.8783649052841 276.3 L 652.3678963110668 258.2 L 655.8574277168494 258.2 L 659.3469591226321 292.8 L 662.8364905284147 292.8 L 666.3260219341975 290.1 L 669.81555333998 290.1 L 673.3050847457628 268.3 L 676.7946161515454 268.3 L 680.2841475573281 278 L 683.7736789631107 278 L 687.2632103688933 283.5 L 690.752741774676 283.5 L 694.2422731804586 283.6 L 697.7318045862413 283.6 L 701.2213359920239 263.6 L 704.7108673978066 263.6 L 708.2003988035892 228.3 L 711.6899302093719 228.3 L 715.1794616151545 286.2 L 718.6689930209373 286.2 L 722.1585244267199 314.9 L 725.6480558325026 314.9 L 729.1375872382852 300.8 L 732.6271186440678 300.8 L 736.1166500498505 284.2 L 739.6061814556331 284.2 L 743.0957128614158 283.1 L 746.5852442671984 283.1 L 750.0747756729811 283.7 L 753.5643070787637 283.7 L 757.0538384845464 284.2 L 760.543369890329 284.2 L 764.0329012961117 273.1 L 767.5224327018943 273.1 L 771.0119641076769 264.5 L 774.5014955134596 274.1 L 777.9910269192422 274.1 L 781.480558325025 279.3 L 784.9700897308076 279.3 L 788.4596211365903 283.5 L 791.9491525423729 283.5 L 795.4386839481556 283.9 L 798.9282153539382 283.9 L 802.4177467597209 281.3 L 805.9072781655035 281.3 L 809.3968095712862 271.3 L 812.8863409770688 271.3 L 816.3758723828514 307.3 L 819.8654037886341 307.3 L 823.3549351944167 314.7 L 826.8444666001994 314.7 L 830.333998005982 294.9 L 833.8235294117648 294.9 L 837.3130608175474 283.2 L 840.8025922233301 283.2 L 844.2921236291127 283.7 L 847.7816550348954 283.7 L 851.271186440678 283.9 L 854.7607178464607 283.9 L 858.2502492522433 282.6 L 861.7397806580259 282.6 L 865.2293120638086 269.8 L 868.7188434695912 269.8 L 872.2083748753739 273.8 L 875.6979062811565 273.8 L 879.1874376869392 300.8 L 882.6769690927218 300.8 L 886.1665004985045 289.4 L 889.6560319042871 289.4 L 893.1455633100699 273.2 L 896.6350947158525 273.2 L 900.1246261216352 280 L 903.6141575274178 280 L 907.1036889332004 283.5 L 910.5932203389831 283.5 L 914.0827517447657 283.9 L 917.5722831505484 278.3 L 921.061814556331 278.3 L 924.5513459621137 273.1 L 928.0408773678963 273.1 L 931.530408773679 310.7 L 935.0199401794616 310.7 L 938.5094715852443 315.6 L 941.9990029910269 315.6 L 945.4885343968097 282.8 L 948.9780658025923 282.8 L 952.4675972083749 283.4 L 955.9571286141576 283.9 L 959.4466600199402 283.9 L 962.9361914257229 283.1 L 966.4257228315055 283.1 L 969.9152542372882 266 L 973.4047856430708 266 L 976.8943170488535 279 L 980.3838484546361 279 L 983.8733798604188 301.9 L 987.3629112662014 301.9 L 990.8524426719841 283.9 L 994.3419740777667 283.9 L 997.8315054835493 257.7 L 1001.321036889332 257.7 L 1004.8105682951146 277.4 L 1008.3000997008974 277.4 L 1011.78963110668 283.2 L 1015.2791625124627 283.2 L 1018.7686939182453 263.2 L 1022.258225324028 263.2 L 1025.7477567298106 239.5 L 1029.2372881355932 239.5 L 1032.726819541376 280 L 1036.2163509471586 280 L 1039.7058823529412 315.3" stroke="#0d233a" stroke-width="1" zIndex="1"></path></g><g class="highcharts-markers" visibility="visible" zIndex="0.1" transform="translate(60,10) scale(1 1)" clip-path="none"><path fill="none" d="M 0.29411764705882426 265.8 L 10.294117647058824 265.8 L 13.783649052841477 272.2 L 17.27318045862413 272.2 L 20.762711864406782 272.8 L 24.252243270189435 272.8 L 27.741774675972085 279.8 L 31.231306081754735 279.8 L 34.72083748753739 284.8 L 38.21036889332004 284.8 L 41.699900299102694 285 L 45.189431704885344 285 L 48.678963110668 265.8 L 52.16849451645065 265.8 L 55.6580259222333 247.6 L 59.14755732801596 247.6 L 62.637088733798606 247 L 66.12662013958126 247 L 69.6161515453639 207.3 L 73.10568295114656 207.3 L 76.59521435692922 247.9 L 80.08474576271186 247.9 L 83.57427716849452 271.6 L 87.06380857427718 271.6 L 90.55333998005983 283.9 L 94.04287138584247 283.9 L 97.53240279162513 284.8 L 101.02193419740779 285 L 104.51146560319043 285 L 108.00099700897309 271.3 L 111.49052841475574 271.3 L 114.9800598205384 260.9 L 118.46959122632106 260.9 L 121.95912263210371 254.8 L 125.44865403788636 254.8 L 128.938185443669 256 L 132.42771684945166 256 L 135.9172482552343 269.6 L 139.40677966101697 269.6 L 142.89631106679963 273.5 L 146.38584247258228 273.5 L 149.87537387836494 283.3 L 153.36490528414757 283.3 L 156.85443668993022 287.8 L 160.34396809571288 287.8 L 163.83349950149554 282 L 167.3230309072782 282 L 170.81256231306085 273.8 L 174.30209371884348 273.8 L 177.79162512462614 312.7 L 181.2811565304088 312.7 L 184.77068793619145 314.5 L 188.2602193419741 314.5 L 191.74975074775676 295 L 195.23928215353942 295 L 198.72881355932205 287.3 L 202.2183449651047 287.3 L 205.70787637088736 287.5 L 209.19740777667002 287.5 L 212.68693918245268 288.2 L 216.17647058823533 288.2 L 219.66600199401796 287.1 L 223.15553339980062 287.1 L 226.64506480558327 270.8 L 230.13459621136593 270.8 L 233.6241276171486 269.8 L 237.11365902293124 269.8 L 240.60319042871387 247.8 L 244.09272183449653 247.8 L 247.5822532402792 200.8 L 251.07178464606184 200.8 L 254.5613160518445 246.8 L 258.0508474576271 246.8 L 261.5403788634098 285.6 L 265.02991026919244 286.9 L 268.5194416749751 286.9 L 272.00897308075776 279.7 L 275.4985044865404 279.7 L 278.98803589232307 278.9 L 282.4775672981057 278.9 L 285.9670987038884 314.6 L 289.45663010967104 314.6 L 292.9461615154537 309.2 L 296.4356929212363 309.2 L 299.92522432701895 291.4 L 303.4147557328016 291.4 L 306.90428713858427 288 L 310.3938185443669 288 L 313.8833499501496 288.6 L 317.37288135593224 288.6 L 320.8624127617149 287.5 L 324.35194416749755 287.5 L 327.8414755732802 285.8 L 331.33100697906286 285.8 L 334.8205383848455 236.2 L 338.3100697906282 236.2 L 341.7996011964108 185.4 L 345.28913260219343 185.4 L 348.7786640079761 196.6 L 352.26819541375875 196.6 L 355.7577268195414 186.8 L 359.24725822532406 186.8 L 362.7367896311067 177.8 L 366.2263210368894 177.8 L 369.71585244267203 180 L 373.2053838484547 180 L 376.69491525423734 177.6 L 380.18444666002 177.6 L 383.67397806580266 156.2 L 387.16350947158526 156.2 L 390.6530408773679 150.8 L 394.14257228315057 150.8 L 397.6321036889332 182.4 L 401.1216350947159 182.4 L 404.61116650049854 219.5 L 408.1006979062812 219.5 L 411.59022931206385 218.6 L 415.0797607178465 218.6 L 418.56929212362917 194.3 L 422.0588235294118 194.3 L 425.5483549351945 235.3 L 429.03788634097714 246.5 L 432.52741774675974 57.9 L 436.0169491525424 186.2 L 439.50648055832505 186.2 L 442.9960119641077 276 L 446.48554336989037 276 L 449.97507477567297 278.8 L 453.4646061814556 278.8 L 456.9541375872383 274 L 460.44366899302094 274 L 463.9332003988036 283.2 L 467.42273180458625 283.2 L 470.9122632103689 283.3 L 474.40179461615156 283.3 L 477.8913260219342 283.4 L 481.3808574277168 283.4 L 484.8703888334995 267.5 L 488.35992023928213 267.5 L 491.8494516450648 214.1 L 495.33898305084745 214.1 L 498.8285144566301 221.5 L 502.31804586241276 221.5 L 505.8075772681954 223.7 L 509.2971086739781 201.6 L 512.7866400797607 201.6 L 516.2761714855434 116.1 L 519.765702891326 116.1 L 523.2552342971087 -18.3 L 526.7447657028913 -18.3 L 530.234297108674 88 L 533.7238285144566 88 L 537.2133599202393 174.7 L 540.7028913260219 174.7 L 544.1924227318046 167.8 L 547.6819541375872 167.8 L 551.1714855433698 255 L 554.6610169491526 255 L 558.1505483549352 300.1 L 561.6400797607179 300.1 L 565.1296111665005 275.5 L 568.6191425722832 275.5 L 572.1086739780658 275.8 L 575.5982053838485 275.8 L 579.0877367896311 282.7 L 582.5772681954138 282.7 L 586.0667996011964 283.3 L 589.5563310069791 283.3 L 593.0458624127617 283.1 L 596.5353938185443 283.1 L 600.024925224327 265.5 L 603.5144566301096 283.5 L 607.0039880358923 315.9 L 610.493519441675 315.9 L 613.9830508474577 304.1 L 617.4725822532403 304.1 L 620.962113659023 285.2 L 624.4516450648056 283.1 L 627.9411764705883 283.1 L 631.4307078763709 283.1 L 634.9202392821536 283.1 L 638.4097706879362 283.9 L 641.8993020937188 283.9 L 645.3888334995015 276.3 L 648.8783649052841 276.3 L 652.3678963110668 258.2 L 655.8574277168494 258.2 L 659.3469591226321 292.8 L 662.8364905284147 292.8 L 666.3260219341975 290.1 L 669.81555333998 290.1 L 673.3050847457628 268.3 L 676.7946161515454 268.3 L 680.2841475573281 278 L 683.7736789631107 278 L 687.2632103688933 283.5 L 690.752741774676 283.5 L 694.2422731804586 283.6 L 697.7318045862413 283.6 L 701.2213359920239 263.6 L 704.7108673978066 263.6 L 708.2003988035892 228.3 L 711.6899302093719 228.3 L 715.1794616151545 286.2 L 718.6689930209373 286.2 L 722.1585244267199 314.9 L 725.6480558325026 314.9 L 729.1375872382852 300.8 L 732.6271186440678 300.8 L 736.1166500498505 284.2 L 739.6061814556331 284.2 L 743.0957128614158 283.1 L 746.5852442671984 283.1 L 750.0747756729811 283.7 L 753.5643070787637 283.7 L 757.0538384845464 284.2 L 760.543369890329 284.2 L 764.0329012961117 273.1 L 767.5224327018943 273.1 L 771.0119641076769 264.5 L 774.5014955134596 274.1 L 777.9910269192422 274.1 L 781.480558325025 279.3 L 784.9700897308076 279.3 L 788.4596211365903 283.5 L 791.9491525423729 283.5 L 795.4386839481556 283.9 L 798.9282153539382 283.9 L 802.4177467597209 281.3 L 805.9072781655035 281.3 L 809.3968095712862 271.3 L 812.8863409770688 271.3 L 816.3758723828514 307.3 L 819.8654037886341 307.3 L 823.3549351944167 314.7 L 826.8444666001994 314.7 L 830.333998005982 294.9 L 833.8235294117648 294.9 L 837.3130608175474 283.2 L 840.8025922233301 283.2 L 844.2921236291127 283.7 L 847.7816550348954 283.7 L 851.271186440678 283.9 L 854.7607178464607 283.9 L 858.2502492522433 282.6 L 861.7397806580259 282.6 L 865.2293120638086 269.8 L 868.7188434695912 269.8 L 872.2083748753739 273.8 L 875.6979062811565 273.8 L 879.1874376869392 300.8 L 882.6769690927218 300.8 L 886.1665004985045 289.4 L 889.6560319042871 289.4 L 893.1455633100699 273.2 L 896.6350947158525 273.2 L 900.1246261216352 280 L 903.6141575274178 280 L 907.1036889332004 283.5 L 910.5932203389831 283.5 L 914.0827517447657 283.9 L 917.5722831505484 278.3 L 921.061814556331 278.3 L 924.5513459621137 273.1 L 928.0408773678963 273.1 L 931.530408773679 310.7 L 935.0199401794616 310.7 L 938.5094715852443 315.6 L 941.9990029910269 315.6 L 945.4885343968097 282.8 L 948.9780658025923 282.8 L 952.4675972083749 283.4 L 955.9571286141576 283.9 L 959.4466600199402 283.9 L 962.9361914257229 283.1 L 966.4257228315055 283.1 L 969.9152542372882 266 L 973.4047856430708 266 L 976.8943170488535 279 L 980.3838484546361 279 L 983.8733798604188 301.9 L 987.3629112662014 301.9 L 990.8524426719841 283.9 L 994.3419740777667 283.9 L 997.8315054835493 257.7 L 1001.321036889332 257.7 L 1004.8105682951146 277.4 L 1008.3000997008974 277.4 L 1011.78963110668 283.2 L 1015.2791625124627 283.2 L 1018.7686939182453 263.2 L 1022.258225324028 263.2 L 1025.7477567298106 239.5 L 1029.2372881355932 239.5 L 1032.726819541376 280 L 1036.2163509471586 280 L 1039.7058823529412 315.3 L 1049.7058823529412 315.3" class="highcharts-tracker highcharts-tracker" stroke-linejoin="round" visibility="visible" stroke-opacity="0.0001" stroke="rgb(192,192,192)" stroke-width="21" zIndex="2" style=""></path></g><g class="highcharts-series" visibility="visible" zIndex="0.1" transform="translate(60,10) scale(1 1)" clip-path="url(#highcharts-1)"><path fill="none" d="M 10.294117647058824 287.5 L 13.783649052841477 287.5 L 17.27318045862413 289.1 L 20.762711864406782 289.1 L 24.252243270189435 300.6 L 27.741774675972085 297.5 L 31.231306081754735 297.5 L 34.72083748753739 277.7 L 38.21036889332004 277.7 L 41.699900299102694 283.9 L 45.189431704885344 283.9 L 48.678963110668 288.6 L 52.16849451645065 288.6 L 55.6580259222333 288.3 L 59.14755732801596 288.3 L 62.637088733798606 288.6 L 66.12662013958126 288.6 L 69.6161515453639 293.1 L 73.10568295114656 293.1 L 76.59521435692922 313.1 L 80.08474576271186 313.1 L 83.57427716849452 317 L 87.06380857427718 317 L 90.55333998005983 301 L 94.04287138584247 301 L 97.53240279162513 288.3 L 101.02193419740779 288.3 L 104.51146560319043 288.1 L 108.00099700897309 288.1 L 111.49052841475574 289.2 L 114.9800598205384 289.2 L 118.46959122632106 288.5 L 121.95912263210371 289.5 L 125.44865403788636 289.5 L 128.938185443669 300.7 L 132.42771684945166 300.7 L 135.9172482552343 244.7 L 139.40677966101697 244.7 L 142.89631106679963 174.4 L 146.38584247258228 174.4 L 149.87537387836494 250.1 L 153.36490528414757 250.1 L 156.85443668993022 285 L 160.34396809571288 285 L 163.83349950149554 287.3 L 167.3230309072782 287.3 L 170.81256231306085 288.2 L 174.30209371884348 288.2 L 177.79162512462614 295.7 L 181.2811565304088 295.7 L 184.77068793619145 314.5 L 188.2602193419741 314.5 L 191.74975074775676 316.3 L 195.23928215353942 316.3 L 198.72881355932205 296.8 L 202.2183449651047 296.8 L 205.70787637088736 277.2 L 209.19740777667002 277.2 L 212.68693918245268 284 L 216.17647058823533 284 L 219.66600199401796 288.5 L 223.15553339980062 288.5 L 226.64506480558327 288.8 L 230.13459621136593 288.8 L 233.6241276171486 287.7 L 237.11365902293124 287.7 L 240.60319042871387 290.3 L 244.09272183449653 290.3 L 247.5822532402792 303.4 L 251.07178464606184 303.4 L 254.5613160518445 291.8 L 258.0508474576271 291.8 L 261.5403788634098 277.4 L 265.02991026919244 277.4 L 268.5194416749751 286 L 272.00897308075776 286 L 275.4985044865404 288.6 L 278.98803589232307 288.6 L 282.4775672981057 292.7 L 285.9670987038884 292.7 L 289.45663010967104 265.6 L 292.9461615154537 265.6 L 296.4356929212363 284.3 L 299.92522432701895 283.5 L 303.4147557328016 283.5 L 306.90428713858427 288.6 L 310.3938185443669 288.6 L 313.8833499501496 287.7 L 317.37288135593224 287.7 L 320.8624127617149 288 L 324.35194416749755 288 L 327.8414755732802 286.6 L 331.33100697906286 286.6 L 334.8205383848455 246.7 L 338.3100697906282 246.7 L 341.7996011964108 196.7 L 345.28913260219343 196.7 L 348.7786640079761 176.5 L 352.26819541375875 176.5 L 355.7577268195414 175.8 L 359.24725822532406 175.8 L 362.7367896311067 189.6 L 366.2263210368894 189.6 L 369.71585244267203 188.5 L 373.2053838484547 188.5 L 376.69491525423734 178.2 L 380.18444666002 178.2 L 383.67397806580266 164.1 L 387.16350947158526 164.1 L 390.6530408773679 157.4 L 394.14257228315057 157.4 L 397.6321036889332 201.5 L 401.1216350947159 201.5 L 404.61116650049854 221.1 L 408.1006979062812 221.1 L 411.59022931206385 189.3 L 415.0797607178465 189.3 L 418.56929212362917 196.8 L 422.0588235294118 196.8 L 425.5483549351945 244.6 L 429.03788634097714 244.6 L 432.52741774675974 251 L 436.0169491525424 251 L 439.50648055832505 235.5 L 442.9960119641077 235.5 L 446.48554336989037 101.6 L 449.97507477567297 101.6 L 453.4646061814556 274 L 456.9541375872383 268.7 L 460.44366899302094 268.7 L 463.9332003988036 228.8 L 467.42273180458625 228.8 L 470.9122632103689 224.1 L 474.40179461615156 278.5 L 477.8913260219342 278.5 L 481.3808574277168 280.2 L 484.8703888334995 280.2 L 488.35992023928213 225.6 L 491.8494516450648 225.6 L 495.33898305084745 221 L 498.8285144566301 221 L 502.31804586241276 221 L 505.8075772681954 221 L 509.2971086739781 153.3 L 512.7866400797607 153.3 L 516.2761714855434 -10 L 519.765702891326 -10 L 523.2552342971087 55.3 L 526.7447657028913 55.3 L 530.234297108674 231.5 L 533.7238285144566 231.5 L 537.2133599202393 283.1 L 540.7028913260219 283.1 L 544.1924227318046 254.7 L 547.6819541375872 254.7 L 551.1714855433698 264.4 L 554.6610169491526 264.4 L 558.1505483549352 300.4 L 561.6400797607179 300.4 L 565.1296111665005 276.8 L 568.6191425722832 276.8 L 572.1086739780658 276 L 575.5982053838485 276 L 579.0877367896311 282.3 L 582.5772681954138 282.3 L 586.0667996011964 283.9 L 589.5563310069791 283.9 L 593.0458624127617 282.8 L 596.5353938185443 282.8 L 600.024925224327 280.4 L 603.5144566301096 280.4 L 607.0039880358923 263.5 L 610.493519441675 263.5 L 613.9830508474577 276.2 L 617.4725822532403 276.2 L 620.962113659023 304.2 L 624.4516450648056 285.7 L 627.9411764705883 282.7 L 631.4307078763709 282.7 L 634.9202392821536 283.4 L 638.4097706879362 283.5 L 641.8993020937188 283.5 L 645.3888334995015 283.2 L 648.8783649052841 283.2 L 652.3678963110668 271.8 L 655.8574277168494 271.8 L 659.3469591226321 283.5 L 662.8364905284147 283.5 L 666.3260219341975 293.4 L 669.81555333998 293.4 L 673.3050847457628 277.8 L 676.7946161515454 277.8 L 680.2841475573281 277.1 L 683.7736789631107 277.1 L 687.2632103688933 283.4 L 690.752741774676 283.4 L 694.2422731804586 283.9 L 697.7318045862413 283.9 L 701.2213359920239 283.7 L 704.7108673978066 283.7 L 708.2003988035892 281.5 L 711.6899302093719 281.5 L 715.1794616151545 295.7 L 718.6689930209373 295.7 L 722.1585244267199 317 L 725.6480558325026 317 L 729.1375872382852 302.2 L 732.6271186440678 302.2 L 736.1166500498505 285.4 L 739.6061814556331 285.4 L 743.0957128614158 282.1 L 746.5852442671984 282.1 L 750.0747756729811 284 L 753.5643070787637 284 L 757.0538384845464 283.7 L 760.543369890329 283.7 L 764.0329012961117 283.1 L 767.5224327018943 283.1 L 771.0119641076769 278.1 L 774.5014955134596 278.1 L 777.9910269192422 291.5 L 781.480558325025 291.5 L 784.9700897308076 295.4 L 788.4596211365903 295.4 L 791.9491525423729 272.4 L 795.4386839481556 284.4 L 798.9282153539382 283.4 L 802.4177467597209 283.4 L 805.9072781655035 285 L 809.3968095712862 285 L 812.8863409770688 306.9 L 816.3758723828514 306.9 L 819.8654037886341 309.3 L 823.3549351944167 309.3 L 826.8444666001994 278.7 L 830.333998005982 278.7 L 833.8235294117648 282 L 837.3130608175474 283.6 L 840.8025922233301 283.6 L 844.2921236291127 284.2 L 847.7816550348954 284.2 L 851.271186440678 283.9 L 854.7607178464607 283.9 L 858.2502492522433 282.4 L 861.7397806580259 282.4 L 865.2293120638086 279.3 L 868.7188434695912 279.3 L 872.2083748753739 286.2 L 875.6979062811565 286.2 L 879.1874376869392 287.8 L 882.6769690927218 287.8 L 886.1665004985045 272.7 L 889.6560319042871 272.7 L 893.1455633100699 280.8 L 896.6350947158525 280.8 L 900.1246261216352 283.5 L 903.6141575274178 283.5 L 907.1036889332004 283.6 L 910.5932203389831 283.6 L 914.0827517447657 283.6 L 917.5722831505484 283.6 L 921.061814556331 269.1 L 924.5513459621137 269.1 L 928.0408773678963 279.3 L 931.530408773679 279.3 L 935.0199401794616 315.2 L 938.5094715852443 315.2 L 941.9990029910269 283.7 L 945.4885343968097 283.4 L 948.9780658025923 283.4 L 952.4675972083749 283.3 L 955.9571286141576 283.3 L 959.4466600199402 283.9 L 962.9361914257229 283.9 L 966.4257228315055 281.3 L 969.9152542372882 301.9 L 973.4047856430708 301.9 L 976.8943170488535 286.8 L 980.3838484546361 286.8 L 983.8733798604188 272.4 L 987.3629112662014 272.4 L 990.8524426719841 266.9 L 994.3419740777667 266.9 L 997.8315054835493 278.9 L 1001.321036889332 278.9 L 1004.8105682951146 283.3 L 1008.3000997008974 283.3 L 1011.78963110668 284.2 L 1015.2791625124627 284.2 L 1018.7686939182453 289.2 L 1022.258225324028 289.2" stroke="#8bbc21" stroke-width="1" zIndex="1"></path></g><g class="highcharts-markers" visibility="visible" zIndex="0.1" transform="translate(60,10) scale(1 1)" clip-path="none"><path fill="none" d="M 0.29411764705882426 287.5 L 10.294117647058824 287.5 L 13.783649052841477 287.5 L 17.27318045862413 289.1 L 20.762711864406782 289.1 L 24.252243270189435 300.6 L 27.741774675972085 297.5 L 31.231306081754735 297.5 L 34.72083748753739 277.7 L 38.21036889332004 277.7 L 41.699900299102694 283.9 L 45.189431704885344 283.9 L 48.678963110668 288.6 L 52.16849451645065 288.6 L 55.6580259222333 288.3 L 59.14755732801596 288.3 L 62.637088733798606 288.6 L 66.12662013958126 288.6 L 69.6161515453639 293.1 L 73.10568295114656 293.1 L 76.59521435692922 313.1 L 80.08474576271186 313.1 L 83.57427716849452 317 L 87.06380857427718 317 L 90.55333998005983 301 L 94.04287138584247 301 L 97.53240279162513 288.3 L 101.02193419740779 288.3 L 104.51146560319043 288.1 L 108.00099700897309 288.1 L 111.49052841475574 289.2 L 114.9800598205384 289.2 L 118.46959122632106 288.5 L 121.95912263210371 289.5 L 125.44865403788636 289.5 L 128.938185443669 300.7 L 132.42771684945166 300.7 L 135.9172482552343 244.7 L 139.40677966101697 244.7 L 142.89631106679963 174.4 L 146.38584247258228 174.4 L 149.87537387836494 250.1 L 153.36490528414757 250.1 L 156.85443668993022 285 L 160.34396809571288 285 L 163.83349950149554 287.3 L 167.3230309072782 287.3 L 170.81256231306085 288.2 L 174.30209371884348 288.2 L 177.79162512462614 295.7 L 181.2811565304088 295.7 L 184.77068793619145 314.5 L 188.2602193419741 314.5 L 191.74975074775676 316.3 L 195.23928215353942 316.3 L 198.72881355932205 296.8 L 202.2183449651047 296.8 L 205.70787637088736 277.2 L 209.19740777667002 277.2 L 212.68693918245268 284 L 216.17647058823533 284 L 219.66600199401796 288.5 L 223.15553339980062 288.5 L 226.64506480558327 288.8 L 230.13459621136593 288.8 L 233.6241276171486 287.7 L 237.11365902293124 287.7 L 240.60319042871387 290.3 L 244.09272183449653 290.3 L 247.5822532402792 303.4 L 251.07178464606184 303.4 L 254.5613160518445 291.8 L 258.0508474576271 291.8 L 261.5403788634098 277.4 L 265.02991026919244 277.4 L 268.5194416749751 286 L 272.00897308075776 286 L 275.4985044865404 288.6 L 278.98803589232307 288.6 L 282.4775672981057 292.7 L 285.9670987038884 292.7 L 289.45663010967104 265.6 L 292.9461615154537 265.6 L 296.4356929212363 284.3 L 299.92522432701895 283.5 L 303.4147557328016 283.5 L 306.90428713858427 288.6 L 310.3938185443669 288.6 L 313.8833499501496 287.7 L 317.37288135593224 287.7 L 320.8624127617149 288 L 324.35194416749755 288 L 327.8414755732802 286.6 L 331.33100697906286 286.6 L 334.8205383848455 246.7 L 338.3100697906282 246.7 L 341.7996011964108 196.7 L 345.28913260219343 196.7 L 348.7786640079761 176.5 L 352.26819541375875 176.5 L 355.7577268195414 175.8 L 359.24725822532406 175.8 L 362.7367896311067 189.6 L 366.2263210368894 189.6 L 369.71585244267203 188.5 L 373.2053838484547 188.5 L 376.69491525423734 178.2 L 380.18444666002 178.2 L 383.67397806580266 164.1 L 387.16350947158526 164.1 L 390.6530408773679 157.4 L 394.14257228315057 157.4 L 397.6321036889332 201.5 L 401.1216350947159 201.5 L 404.61116650049854 221.1 L 408.1006979062812 221.1 L 411.59022931206385 189.3 L 415.0797607178465 189.3 L 418.56929212362917 196.8 L 422.0588235294118 196.8 L 425.5483549351945 244.6 L 429.03788634097714 244.6 L 432.52741774675974 251 L 436.0169491525424 251 L 439.50648055832505 235.5 L 442.9960119641077 235.5 L 446.48554336989037 101.6 L 449.97507477567297 101.6 L 453.4646061814556 274 L 456.9541375872383 268.7 L 460.44366899302094 268.7 L 463.9332003988036 228.8 L 467.42273180458625 228.8 L 470.9122632103689 224.1 L 474.40179461615156 278.5 L 477.8913260219342 278.5 L 481.3808574277168 280.2 L 484.8703888334995 280.2 L 488.35992023928213 225.6 L 491.8494516450648 225.6 L 495.33898305084745 221 L 498.8285144566301 221 L 502.31804586241276 221 L 505.8075772681954 221 L 509.2971086739781 153.3 L 512.7866400797607 153.3 L 516.2761714855434 -10 L 519.765702891326 -10 L 523.2552342971087 55.3 L 526.7447657028913 55.3 L 530.234297108674 231.5 L 533.7238285144566 231.5 L 537.2133599202393 283.1 L 540.7028913260219 283.1 L 544.1924227318046 254.7 L 547.6819541375872 254.7 L 551.1714855433698 264.4 L 554.6610169491526 264.4 L 558.1505483549352 300.4 L 561.6400797607179 300.4 L 565.1296111665005 276.8 L 568.6191425722832 276.8 L 572.1086739780658 276 L 575.5982053838485 276 L 579.0877367896311 282.3 L 582.5772681954138 282.3 L 586.0667996011964 283.9 L 589.5563310069791 283.9 L 593.0458624127617 282.8 L 596.5353938185443 282.8 L 600.024925224327 280.4 L 603.5144566301096 280.4 L 607.0039880358923 263.5 L 610.493519441675 263.5 L 613.9830508474577 276.2 L 617.4725822532403 276.2 L 620.962113659023 304.2 L 624.4516450648056 285.7 L 627.9411764705883 282.7 L 631.4307078763709 282.7 L 634.9202392821536 283.4 L 638.4097706879362 283.5 L 641.8993020937188 283.5 L 645.3888334995015 283.2 L 648.8783649052841 283.2 L 652.3678963110668 271.8 L 655.8574277168494 271.8 L 659.3469591226321 283.5 L 662.8364905284147 283.5 L 666.3260219341975 293.4 L 669.81555333998 293.4 L 673.3050847457628 277.8 L 676.7946161515454 277.8 L 680.2841475573281 277.1 L 683.7736789631107 277.1 L 687.2632103688933 283.4 L 690.752741774676 283.4 L 694.2422731804586 283.9 L 697.7318045862413 283.9 L 701.2213359920239 283.7 L 704.7108673978066 283.7 L 708.2003988035892 281.5 L 711.6899302093719 281.5 L 715.1794616151545 295.7 L 718.6689930209373 295.7 L 722.1585244267199 317 L 725.6480558325026 317 L 729.1375872382852 302.2 L 732.6271186440678 302.2 L 736.1166500498505 285.4 L 739.6061814556331 285.4 L 743.0957128614158 282.1 L 746.5852442671984 282.1 L 750.0747756729811 284 L 753.5643070787637 284 L 757.0538384845464 283.7 L 760.543369890329 283.7 L 764.0329012961117 283.1 L 767.5224327018943 283.1 L 771.0119641076769 278.1 L 774.5014955134596 278.1 L 777.9910269192422 291.5 L 781.480558325025 291.5 L 784.9700897308076 295.4 L 788.4596211365903 295.4 L 791.9491525423729 272.4 L 795.4386839481556 284.4 L 798.9282153539382 283.4 L 802.4177467597209 283.4 L 805.9072781655035 285 L 809.3968095712862 285 L 812.8863409770688 306.9 L 816.3758723828514 306.9 L 819.8654037886341 309.3 L 823.3549351944167 309.3 L 826.8444666001994 278.7 L 830.333998005982 278.7 L 833.8235294117648 282 L 837.3130608175474 283.6 L 840.8025922233301 283.6 L 844.2921236291127 284.2 L 847.7816550348954 284.2 L 851.271186440678 283.9 L 854.7607178464607 283.9 L 858.2502492522433 282.4 L 861.7397806580259 282.4 L 865.2293120638086 279.3 L 868.7188434695912 279.3 L 872.2083748753739 286.2 L 875.6979062811565 286.2 L 879.1874376869392 287.8 L 882.6769690927218 287.8 L 886.1665004985045 272.7 L 889.6560319042871 272.7 L 893.1455633100699 280.8 L 896.6350947158525 280.8 L 900.1246261216352 283.5 L 903.6141575274178 283.5 L 907.1036889332004 283.6 L 910.5932203389831 283.6 L 914.0827517447657 283.6 L 917.5722831505484 283.6 L 921.061814556331 269.1 L 924.5513459621137 269.1 L 928.0408773678963 279.3 L 931.530408773679 279.3 L 935.0199401794616 315.2 L 938.5094715852443 315.2 L 941.9990029910269 283.7 L 945.4885343968097 283.4 L 948.9780658025923 283.4 L 952.4675972083749 283.3 L 955.9571286141576 283.3 L 959.4466600199402 283.9 L 962.9361914257229 283.9 L 966.4257228315055 281.3 L 969.9152542372882 301.9 L 973.4047856430708 301.9 L 976.8943170488535 286.8 L 980.3838484546361 286.8 L 983.8733798604188 272.4 L 987.3629112662014 272.4 L 990.8524426719841 266.9 L 994.3419740777667 266.9 L 997.8315054835493 278.9 L 1001.321036889332 278.9 L 1004.8105682951146 283.3 L 1008.3000997008974 283.3 L 1011.78963110668 284.2 L 1015.2791625124627 284.2 L 1018.7686939182453 289.2 L 1022.258225324028 289.2 L 1032.258225324028 289.2" class="highcharts-tracker highcharts-tracker" stroke-linejoin="round" visibility="visible" stroke-opacity="0.0001" stroke="rgb(192,192,192)" stroke-width="21" zIndex="2" style=""></path></g></g><g class="highcharts-axis-labels" zIndex="7"><text x="70.29411764705883" y="386" style="font-family:&quot;Lucida Grande&quot;, &quot;Lucida Sans Unicode&quot;, Verdana, Arial, Helvetica, sans-serif;font-size:11px;color:#666;cursor:default;line-height:14px;fill:#666;" text-anchor="middle" opacity="1"><tspan x="70.29411764705883">0</tspan></text><text x="157.53240279162515" y="386" style="font-family:&quot;Lucida Grande&quot;, &quot;Lucida Sans Unicode&quot;, Verdana, Arial, Helvetica, sans-serif;font-size:11px;color:#666;cursor:default;line-height:14px;fill:#666;" text-anchor="middle" opacity="1"><tspan x="157.53240279162515">25</tspan></text><text x="244.77068793619145" y="386" style="font-family:&quot;Lucida Grande&quot;, &quot;Lucida Sans Unicode&quot;, Verdana, Arial, Helvetica, sans-serif;font-size:11px;color:#666;cursor:default;line-height:14px;fill:#666;" text-anchor="middle" opacity="1"><tspan x="244.77068793619145">50</tspan></text><text x="332.00897308075776" y="386" style="font-family:&quot;Lucida Grande&quot;, &quot;Lucida Sans Unicode&quot;, Verdana, Arial, Helvetica, sans-serif;font-size:11px;color:#666;cursor:default;line-height:14px;fill:#666;" text-anchor="middle" opacity="1"><tspan x="332.00897308075776">75</tspan></text><text x="419.24725822532406" y="386" style="font-family:&quot;Lucida Grande&quot;, &quot;Lucida Sans Unicode&quot;, Verdana, Arial, Helvetica, sans-serif;font-size:11px;color:#666;cursor:default;line-height:14px;fill:#666;" text-anchor="middle" opacity="1"><tspan x="419.24725822532406">100</tspan></text><text x="506.48554336989037" y="386" style="font-family:&quot;Lucida Grande&quot;, &quot;Lucida Sans Unicode&quot;, Verdana, Arial, Helvetica, sans-serif;font-size:11px;color:#666;cursor:default;line-height:14px;fill:#666;" text-anchor="middle" opacity="1"><tspan x="506.48554336989037">125</tspan></text><text x="593.7238285144566" y="386" style="font-family:&quot;Lucida Grande&quot;, &quot;Lucida Sans Unicode&quot;, Verdana, Arial, Helvetica, sans-serif;font-size:11px;color:#666;cursor:default;line-height:14px;fill:#666;" text-anchor="middle" opacity="1"><tspan x="593.7238285144566">150</tspan></text><text x="680.962113659023" y="386" style="font-family:&quot;Lucida Grande&quot;, &quot;Lucida Sans Unicode&quot;, Verdana, Arial, Helvetica, sans-serif;font-size:11px;color:#666;cursor:default;line-height:14px;fill:#666;" text-anchor="middle" opacity="1"><tspan x="680.962113659023">175</tspan></text><text x="768.2003988035892" y="386" style="font-family:&quot;Lucida Grande&quot;, &quot;Lucida Sans Unicode&quot;, Verdana, Arial, Helvetica, sans-serif;font-size:11px;color:#666;cursor:default;line-height:14px;fill:#666;" text-anchor="middle" opacity="1"><tspan x="768.2003988035892">200</tspan></text><text x="855.4386839481556" y="386" style="font-family:&quot;Lucida Grande&quot;, &quot;Lucida Sans Unicode&quot;, Verdana, Arial, Helvetica, sans-serif;font-size:11px;color:#666;cursor:default;line-height:14px;fill:#666;" text-anchor="middle" opacity="1"><tspan x="855.4386839481556">225</tspan></text><text x="942.6769690927218" y="386" style="font-family:&quot;Lucida Grande&quot;, &quot;Lucida Sans Unicode&quot;, Verdana, Arial, Helvetica, sans-serif;font-size:11px;color:#666;cursor:default;line-height:14px;fill:#666;" text-anchor="middle" opacity="1"><tspan x="942.6769690927218">250</tspan></text><text x="1029.915254237288" y="386" style="font-family:&quot;Lucida Grande&quot;, &quot;Lucida Sans Unicode&quot;, Verdana, Arial, Helvetica, sans-serif;font-size:11px;color:#666;cursor:default;line-height:14px;fill:#666;" text-anchor="middle" opacity="1"><tspan x="1029.915254237288">275</tspan></text></g><g class="highcharts-axis-labels" zIndex="7"><text x="52" y="378.115625" style="font-family:&quot;Lucida Grande&quot;, &quot;Lucida Sans Unicode&quot;, Verdana, Arial, Helvetica, sans-serif;font-size:11px;width:505px;color:#666;cursor:default;line-height:14px;fill:#666;" text-anchor="end" opacity="1"><tspan x="52">0</tspan></text><text x="52" y="317.78229166666665" style="font-family:&quot;Lucida Grande&quot;, &quot;Lucida Sans Unicode&quot;, Verdana, Arial, Helvetica, sans-serif;font-size:11px;width:505px;color:#666;cursor:default;line-height:14px;fill:#666;" text-anchor="end" opacity="1"><tspan x="52">0.1</tspan></text><text x="52" y="257.44895833333334" style="font-family:&quot;Lucida Grande&quot;, &quot;Lucida Sans Unicode&quot;, Verdana, Arial, Helvetica, sans-serif;font-size:11px;width:505px;color:#666;cursor:default;line-height:14px;fill:#666;" text-anchor="end" opacity="1"><tspan x="52">0.2</tspan></text><text x="52" y="197.115625" style="font-family:&quot;Lucida Grande&quot;, &quot;Lucida Sans Unicode&quot;, Verdana, Arial, Helvetica, sans-serif;font-size:11px;width:505px;color:#666;cursor:default;line-height:14px;fill:#666;" text-anchor="end" opacity="1"><tspan x="52">0.3</tspan></text><text x="52" y="136.78229166666662" style="font-family:&quot;Lucida Grande&quot;, &quot;Lucida Sans Unicode&quot;, Verdana, Arial, Helvetica, sans-serif;font-size:11px;width:505px;color:#666;cursor:default;line-height:14px;fill:#666;" text-anchor="end" opacity="1"><tspan x="52">0.4</tspan></text><text x="52" y="76.44895833333331" style="font-family:&quot;Lucida Grande&quot;, &quot;Lucida Sans Unicode&quot;, Verdana, Arial, Helvetica, sans-serif;font-size:11px;width:505px;color:#666;cursor:default;line-height:14px;fill:#666;" text-anchor="end" opacity="1"><tspan x="52">0.5</tspan></text><text x="52" y="16.115625" style="font-family:&quot;Lucida Grande&quot;, &quot;Lucida Sans Unicode&quot;, Verdana, Arial, Helvetica, sans-serif;font-size:11px;width:505px;color:#666;cursor:default;line-height:14px;fill:#666;" text-anchor="end" opacity="1"><tspan x="52">0.6</tspan></text></g><g class="highcharts-tooltip" zIndex="8" style="cursor:default;padding:0;white-space:nowrap;" visibility="hidden" transform="translate(315,229)" opacity="0"><rect rx="3" ry="3" fill="none" x="0.5" y="0.5" width="302" height="44.203125" fill-opacity="0.85" isShadow="true" stroke="black" stroke-opacity="0.049999999999999996" stroke-width="5" transform="translate(1, 1)"></rect><rect rx="3" ry="3" fill="none" x="0.5" y="0.5" width="302" height="44.203125" fill-opacity="0.85" isShadow="true" stroke="black" stroke-opacity="0.09999999999999999" stroke-width="3" transform="translate(1, 1)"></rect><rect rx="3" ry="3" fill="none" x="0.5" y="0.5" width="302" height="44.203125" fill-opacity="0.85" isShadow="true" stroke="black" stroke-opacity="0.15" stroke-width="1" transform="translate(1, 1)"></rect><rect rx="3" ry="3" fill="rgb(255,255,255)" x="0.5" y="0.5" width="302" height="44.203125" fill-opacity="0.85" stroke="#0d233a" stroke-width="1" anchorX="-10.053689439910215" anchorY="28.997662916779518"></rect><text x="8" y="21" style="font-family:&quot;Lucida Grande&quot;, &quot;Lucida Sans Unicode&quot;, Verdana, Arial, Helvetica, sans-serif;font-size:12px;color:#333333;fill:#333333;" zIndex="1"><tspan style="font-size: 10px" x="8">67</tspan><tspan style="fill:#0d233a" x="8" dy="16">exp9 localStorage 1MB r</tspan><tspan dx="0">: </tspan><tspan style="font-weight:bold" dx="0">0.1892729076066224</tspan></text></g><text x="1110" y="395" style="font-family:&quot;Lucida Grande&quot;, &quot;Lucida Sans Unicode&quot;, Verdana, Arial, Helvetica, sans-serif;font-size:9px;cursor:pointer;color:#909090;fill:#909090;" text-anchor="end" zIndex="8"><tspan x="1110">Highcharts.com</tspan></text></svg>