<svg xmlns="http://www.w3.org/2000/svg" version="1.1" width="1102" height="600"><desc>Created with Highcharts 3.0.2</desc><defs><clipPath id="highcharts-1"><rect fill="none" x="0" y="0" width="1032" height="561"></rect></clipPath></defs><rect rx="5" ry="5" fill="#FFFFFF" x="0" y="0" width="1102" height="600"></rect><g class="highcharts-grid" zIndex="1"></g><g class="highcharts-grid" zIndex="1"><path fill="none" d="M 60 502.5 L 1092 502.5" stroke="#C0C0C0" stroke-width="1" zIndex="1" opacity="1"></path><path fill="none" d="M 60 432.5 L 1092 432.5" stroke="#C0C0C0" stroke-width="1" zIndex="1" opacity="1"></path><path fill="none" d="M 60 361.5 L 1092 361.5" stroke="#C0C0C0" stroke-width="1" zIndex="1" opacity="1"></path><path fill="none" d="M 60 291.5 L 1092 291.5" stroke="#C0C0C0" stroke-width="1" zIndex="1" opacity="1"></path><path fill="none" d="M 60 221.5 L 1092 221.5" stroke="#C0C0C0" stroke-width="1" zIndex="1" opacity="1"></path><path fill="none" d="M 60 151.5 L 1092 151.5" stroke="#C0C0C0" stroke-width="1" zIndex="1" opacity="1"></path><path fill="none" d="M 60 80.5 L 1092 80.5" stroke="#C0C0C0" stroke-width="1" zIndex="1" opacity="1"></path><path fill="none" d="M 60 10.5 L 1092 10.5" stroke="#C0C0C0" stroke-width="1" zIndex="1" opacity="1"></path><path fill="none" d="M 60 571.5 L 1092 571.5" stroke="#C0C0C0" stroke-width="1" zIndex="1" opacity="1"></path></g><g class="highcharts-axis" zIndex="2"><path fill="none" d="M 154.5 572 L 154.5 577" stroke="#C0D0E0" stroke-width="1" opacity="1"></path><path fill="none" d="M 238.5 572 L 238.5 577" stroke="#C0D0E0" stroke-width="1" opacity="1"></path><path fill="none" d="M 322.5 572 L 322.5 577" stroke="#C0D0E0" stroke-width="1" opacity="1"></path><path fill="none" d="M 407.5 572 L 407.5 577" stroke="#C0D0E0" stroke-width="1" opacity="1"></path><path fill="none" d="M 491.5 572 L 491.5 577" stroke="#C0D0E0" stroke-width="1" opacity="1"></path><path fill="none" d="M 576.5 572 L 576.5 577" stroke="#C0D0E0" stroke-width="1" opacity="1"></path><path fill="none" d="M 660.5 572 L 660.5 577" stroke="#C0D0E0" stroke-width="1" opacity="1"></path><path fill="none" d="M 745.5 572 L 745.5 577" stroke="#C0D0E0" stroke-width="1" opacity="1"></path><path fill="none" d="M 829.5 572 L 829.5 577" stroke="#C0D0E0" stroke-width="1" opacity="1"></path><path fill="none" d="M 914.5 572 L 914.5 577" stroke="#C0D0E0" stroke-width="1" opacity="1"></path><path fill="none" d="M 998.5 572 L 998.5 577" stroke="#C0D0E0" stroke-width="1" opacity="1"></path><path fill="none" d="M 1083.5 572 L 1083.5 577" stroke="#C0D0E0" stroke-width="1" opacity="1"></path><path fill="none" d="M 69.5 572 L 69.5 577" stroke="#C0D0E0" stroke-width="1" opacity="1"></path><path fill="none" d="M 60 571.5 L 1092 571.5" stroke="#C0D0E0" stroke-width="1" zIndex="7" visibility="visible"></path></g><g class="highcharts-axis" zIndex="2"><text x="24.59375" y="291" style="font-family:&quot;Lucida Grande&quot;, &quot;Lucida Sans Unicode&quot;, Verdana, Arial, Helvetica, sans-serif;font-size:12px;color:#4d759e;font-weight:bold;fill:#4d759e;" zIndex="7" text-anchor="middle" transform="translate(0,0) rotate(270 24.59375 291)" visibility="visible"><tspan x="24.59375">Amperage</tspan></text></g><g class="highcharts-series-group" zIndex="3"><g class="highcharts-series" visibility="visible" zIndex="0.1" transform="translate(60,10) scale(1 1)" clip-path="url(#highcharts-1)"><path fill="none" d="M 10.117647058823529 501.7 L 11.806736718059511 501.7 L 13.495826377295492 510.4 L 15.184916036531474 510.4 L 16.874005695767455 478 L 18.563095355003437 458.2 L 20.25218501423942 458.2 L 21.941274673475398 437.8 L 23.63036433271138 437.8 L 25.319453991947363 429.2 L 27.008543651183345 429.2 L 28.697633310419327 470.3 L 30.38672296965531 470.3 L 32.07581262889129 463.7 L 33.764902288127274 475.9 L 35.45399194736326 490.6 L 37.14308160659923 490.6 L 38.832171265835214 481.2 L 40.521260925071196 481.2 L 42.21035058430718 438.1 L 43.89944024354316 438.1 L 45.58852990277914 469.2 L 47.277619562015126 469.2 L 48.96670922125111 476.1 L 50.65579888048708 476.1 L 52.344888539723065 478 L 54.03397819895905 478 L 55.72306785819503 476.2 L 57.41215751743101 481.8 L 59.101247176666995 481.8 L 60.79033683590298 505.4 L 62.47942649513896 505.4 L 64.16851615437494 507.7 L 65.85760581361092 507.7 L 67.5466954728469 466.7 L 69.23578513208288 466.7 L 70.92487479131886 467.8 L 72.61396445055485 467.8 L 74.30305410979082 473.6 L 75.99214376902681 473.6 L 77.68123342826279 474 L 79.37032308749878 474 L 81.05941274673475 477.4 L 82.74850240597074 477.4 L 84.43759206520672 476.2 L 86.12668172444269 476.2 L 87.81577138367868 478.1 L 89.50486104291465 478.1 L 91.19395070215064 492.1 L 92.88304036138662 492.1 L 94.57213002062261 468.4 L 96.26121967985858 468.4 L 97.95030933909456 445.7 L 99.63939899833055 445.7 L 101.32848865756652 471.7 L 103.01757831680251 471.7 L 104.70666797603849 477.7 L 106.39575763527448 477.7 L 108.08484729451045 477.2 L 109.77393695374643 477.2 L 111.4630266129824 477.5 L 113.1521162722184 477.5 L 114.84120593145437 484.9 L 116.53029559069034 506.6 L 118.21938524992633 503.3 L 119.90847490916231 503.3 L 121.5975645683983 462.6 L 123.28665422763427 436.1 L 124.97574388687026 436.1 L 126.66483354610624 398.4 L 128.35392320534223 398.4 L 130.0430128645782 452.9 L 131.73210252381418 452.9 L 133.42119218305015 475.7 L 135.11028184228616 475.7 L 136.79937150152213 468.4 L 138.4884611607581 468.4 L 140.17755081999408 471.1 L 141.86664047923006 471.1 L 143.55573013846606 450.1 L 145.24481979770204 450.1 L 146.933909456938 358.3 L 148.622999116174 358.3 L 150.31208877541 335.6 L 152.00117843464596 335.6 L 153.69026809388194 357 L 155.37935775311792 357 L 157.0684474123539 364 L 158.7575370715899 364 L 160.44662673082587 359.4 L 162.13571639006184 359.4 L 163.82480604929782 348.8 L 165.51389570853382 348.8 L 167.2029853677698 368.7 L 168.89207502700577 368.7 L 170.58116468624175 400.5 L 172.27025434547772 400.5 L 173.95934400471373 392.8 L 175.6484336639497 392.8 L 177.33752332318568 378.2 L 179.02661298242165 378.2 L 180.71570264165766 357 L 182.40479230089363 357 L 184.0938819601296 364 L 185.78297161936558 364 L 187.47206127860156 405.3 L 189.16115093783756 405.3 L 190.85024059707354 244.9 L 192.5393302563095 244.9 L 194.2284199155455 300.3 L 195.91750957478146 300.3 L 197.60659923401747 388.6 L 199.29568889325344 471.6 L 200.98477855248942 471.6 L 202.6738682117254 470 L 204.3629578709614 469.1 L 206.05204753019737 469.1 L 207.74113718943335 434.5 L 209.43022684866932 434.5 L 211.1193165079053 406.8 L 212.8084061671413 406.8 L 214.49749582637727 385.9 L 216.18658548561325 385.9 L 217.87567514484925 245.9 L 219.56476480408523 245.9 L 221.25385446332123 184.3 L 222.9429441225572 184.3 L 224.63203378179318 411.9 L 226.32112344102916 411.9 L 228.01021310026513 471.1 L 229.69930275950114 471.1 L 231.3883924187371 470.3 L 233.0774820779731 470.3 L 234.76657173720906 447.8 L 236.45566139644507 447.8 L 238.14475105568104 400.9 L 239.83384071491702 400.9 L 241.522930374153 438.7 L 243.21202003338897 438.7 L 244.90110969262497 447.2 L 246.59019935186095 447.2 L 248.27928901109692 464.7 L 249.9683786703329 464.7 L 251.6574683295689 464.4 L 253.34655798880488 464.4 L 255.03564764804085 467.8 L 256.7247373072768 467.8 L 258.41382696651283 466.9 L 260.1029166257488 466.9 L 261.7920062849848 465.2 L 263.4810959442208 465.2 L 265.17018560345673 440.3 L 266.85927526269273 440.3 L 268.5483649219287 440.2 L 270.2374545811647 440.2 L 271.9265442404007 434.9 L 273.61563389963663 434.9 L 275.30472355887264 461 L 276.9938132181086 461 L 278.6829028773446 464.4 L 280.3719925365806 464.4 L 282.06108219581654 448.1 L 283.75017185505254 448.1 L 285.4392615142885 430 L 287.1283511735245 430 L 288.8174408327605 389.2 L 290.50653049199644 389.2 L 292.19562015123245 356.2 L 293.88470981046845 356.2 L 295.5737994697044 318.5 L 297.2628891289404 318.5 L 298.95197878817635 313.8 L 300.64106844741235 326.4 L 302.33015810664835 326.4 L 304.0192477658843 321.7 L 305.7083374251203 321.7 L 307.39742708435625 328 L 309.08651674359226 328 L 310.77560640282826 367.9 L 312.4646960620642 367.9 L 314.1537857213002 414.1 L 315.84287538053616 414.1 L 317.53196503977216 195.3 L 319.22105469900816 195.3 L 320.9101443582441 -80.5 L 322.5992340174801 -80.5 L 324.28832367671606 47.7 L 325.97741333595206 47.7 L 327.66650299518807 271 L 329.355592654424 271 L 331.04468231366 289.9 L 332.733771972896 289.9 L 334.42286163213197 268.7 L 336.111951291368 268.7 L 337.8010409506039 258.8 L 339.4901306098399 258.8 L 341.1792202690759 268.4 L 342.8683099283119 268.4 L 344.5573995875479 255.7 L 346.2464892467838 255.7 L 347.9355789060198 270.5 L 349.62466856525583 270.5 L 351.3137582244918 270.9 L 353.0028478837278 270.9 L 354.69193754296373 286.6 L 356.38102720219973 286.6 L 358.07011686143574 290.2 L 359.7592065206717 290.2 L 361.4482961799077 289.5 L 363.13738583914363 289.5 L 364.82647549837964 309.6 L 366.51556515761564 306.2 L 368.2046548168516 306.2 L 369.8937444760876 290.5 L 371.5828341353236 290.5 L 373.27192379455954 288.7 L 374.96101345379554 288.7 L 376.6501031130315 273.8 L 378.3391927722675 259.7 L 380.0282824315035 259.7 L 381.71737209073945 286.8 L 383.40646174997545 286.8 L 385.0955514092114 286.8 L 386.7846410684474 286.8 L 388.4737307276834 299.4 L 390.16282038691935 299.4 L 391.85191004615535 286.7 L 393.5409997053913 286.7 L 395.2300893646273 267 L 396.9191790238633 267 L 398.60826868309925 282.6 L 400.29735834233526 282.6 L 401.98644800157126 289.1 L 403.6755376608072 289.1 L 405.3646273200432 288.8 L 407.05371697927916 288.8 L 408.74280663851516 284 L 410.43189629775117 284 L 412.1209859569871 288.4 L 413.8100756162231 288.4 L 415.49916527545906 317.2 L 417.18825493469507 317.2 L 418.87734459393107 318.9 L 420.566434253167 318.9 L 422.255523912403 305 L 423.94461357163897 305 L 425.63370323087497 283.3 L 427.322792890111 283.3 L 429.0118825493469 280.3 L 430.7009722085829 280.3 L 432.3900618678189 287.6 L 434.0791515270549 287.6 L 435.7682411862909 288 L 437.4573308455268 288 L 439.14642050476283 288.1 L 440.83551016399883 288.1 L 442.5245998232348 278.2 L 444.2136894824708 278.2 L 445.90277914170673 286 L 447.59186880094273 275.8 L 449.28095846017874 275.8 L 450.9700481194147 284.9 L 452.6591377786507 284.9 L 454.34822743788664 280.9 L 456.03731709712264 280.9 L 457.72640675635864 279.8 L 459.4154964155946 279.8 L 461.1045860748306 288 L 462.79367573406654 288 L 464.48276539330254 294 L 466.17185505253855 294 L 467.8609447117745 311.9 L 469.5500343710105 311.9 L 471.23912403024644 308.7 L 472.92821368948245 308.7 L 474.61730334871845 244.6 L 476.3063930079544 244.6 L 477.9954826671904 262.1 L 479.6845723264264 262.1 L 481.37366198566235 288.1 L 483.06275164489836 288.1 L 484.7518413041343 288 L 486.4409309633703 288 L 488.1300206226063 282.2 L 489.81911028184226 282.2 L 491.50819994107826 275.8 L 493.1972896003142 275.8 L 494.8863792595502 265.4 L 496.5754689187862 265.4 L 498.26455857802216 236.4 L 499.95364823725816 236.4 L 501.6427378964941 259 L 503.3318275557301 262.3 L 505.0209172149661 262.3 L 506.71000687420207 259.1 L 508.39909653343807 259.1 L 510.0881861926741 287.1 L 511.77727585191 287.1 L 513.466365511146 288.4 L 515.155455170382 288.4 L 516.8445448296179 287.1 L 518.533634488854 287.1 L 520.2227241480899 282.6 L 521.9118138073259 282.6 L 523.6009034665619 277.8 L 525.2899931257979 277.8 L 526.9790827850338 322.5 L 528.6681724442699 322.5 L 530.3572621035058 283 L 532.0463517627418 283 L 533.7354414219778 289.7 L 535.4245310812138 289.7 L 537.1136207404497 287.3 L 538.8027103996857 287.3 L 540.4918000589217 286.6 L 542.1808897181577 286.6 L 543.8699793773936 303.7 L 545.5590690366297 303.7 L 547.2481586958656 285.9 L 548.9372483551016 285.9 L 550.6263380143376 277.3 L 552.3154276735736 277.3 L 554.0045173328095 288.2 L 555.6936069920455 288.2 L 557.3826966512815 289.9 L 559.0717863105175 289.9 L 560.7608759697534 286.4 L 562.4499656289895 286.4 L 564.1390552882254 276.8 L 565.8281449474614 276.8 L 567.5172346066975 295.9 L 569.2063242659334 295.9 L 570.8954139251694 313.4 L 572.5845035844054 313.4 L 574.2735932436414 321.3 L 575.9626829028773 321.3 L 577.6517725621133 291.6 L 579.3408622213493 291.6 L 581.0299518805853 276.2 L 582.7190415398212 276.2 L 584.4081311990573 286.3 L 586.0972208582932 286.3 L 587.7863105175292 288.3 L 589.4754001767652 284.9 L 591.1644898360012 284.9 L 592.8535794952371 271.4 L 594.5426691544731 271.4 L 596.2317588137091 278.6 L 597.9208484729451 278.6 L 599.609938132181 307.6 L 601.2990277914171 307.6 L 602.988117450653 286.6 L 604.677207109889 286.6 L 606.366296769125 278.6 L 608.055386428361 278.6 L 609.7444760875969 286.8 L 611.433565746833 286.8 L 613.1226554060689 287.5 L 614.8117450653049 287.5 L 616.5008347245408 288.7 L 618.1899243837769 288.7 L 619.8790140430128 296 L 621.5681037022488 296 L 623.2571933614848 314.6 L 624.9462830207208 314.6 L 626.6353726799567 261.5 L 628.3244623391928 261.5 L 630.0135519984287 264.4 L 631.7026416576647 264.4 L 633.3917313169006 289.7 L 635.0808209761367 289.3 L 636.7699106353726 289.3 L 638.4590002946086 288 L 640.1480899538446 288 L 641.8371796130806 278.4 L 643.5262692723165 278.4 L 645.2153589315526 279.1 L 646.9044485907885 279.1 L 648.5935382500245 290.9 L 650.2826279092606 290.9 L 651.9717175684965 308.1 L 653.6608072277324 308.1 L 655.3498968869684 281.7 L 657.0389865462045 281.7 L 658.7280762054404 243.6 L 660.4171658646763 243.6 L 662.1062555239124 272.4 L 663.7953451831484 272.4 L 665.4844348423843 288.9 L 667.1735245016204 288.9 L 668.8626141608563 289.5 L 670.5517038200923 289.5 L 672.2407934793283 288.7 L 673.9298831385643 288.7 L 675.6189727978002 292.9 L 677.3080624570362 292.9 L 678.9971521162722 318.3 L 680.6862417755082 318.3 L 682.3753314347441 309.1 L 684.0644210939802 309.1 L 685.7535107532161 288.8 L 687.4426004124521 288.8 L 689.1316900716881 288.2 L 690.8207797309241 288.2 L 692.50986939016 282.4 L 694.198959049396 282.4 L 695.888048708632 297.9 L 697.577138367868 297.9 L 699.2662280271039 300.9 L 700.95531768634 300.9 L 702.6444073455759 274.8 L 704.3334970048119 274.8 L 706.0225866640479 280.8 L 707.7116763232839 280.8 L 709.4007659825198 288.1 L 711.0898556417559 288.1 L 712.7789453009918 287.5 L 714.4680349602278 287.5 L 716.1571246194637 277.6 L 717.8462142786998 277.6 L 719.5353039379357 279.5 L 721.2243935971717 279.5 L 722.9134832564077 299.6 L 724.6025729156437 299.6 L 726.2916625748796 318.9 L 727.9807522341157 318.9 L 729.6698418933516 212.3 L 731.3589315525876 212.3 L 733.0480212118235 192.2 L 734.7371108710596 192.2 L 736.4262005302955 278.2 L 738.1152901895315 278.2 L 739.8043798487676 289.7 L 741.4934695080035 289.6 L 743.1825591672394 289.6 L 744.8716488264755 288 L 746.5607384857115 288 L 748.2498281449474 273.3 L 749.9389178041835 273.3 L 751.6280074634194 303.3 L 753.3170971226554 303.3 L 755.0061867818913 303.9 L 756.6952764411274 303.9 L 758.3843661003633 276.2 L 760.0734557595993 276.2 L 761.7625454188353 282.2 L 763.4516350780713 282.2 L 765.1407247373072 281.6 L 766.8298143965433 281.6 L 768.5189040557792 285.4 L 770.2079937150152 285.4 L 771.8970833742511 288.4 L 773.5861730334872 288.4 L 775.2752626927231 308.8 L 776.9643523519591 270.1 L 778.6534420111951 286 L 780.3425316704311 288.4 L 782.031621329667 288.4 L 783.7207109889031 287.8 L 785.409800648139 287.8 L 787.098890307375 286.6 L 788.787979966611 281.8 L 790.477069625847 281.8 L 792.1661592850829 271.2 L 793.8552489443189 271.2 L 795.5443386035549 272.8 L 797.2334282627909 272.8 L 798.9225179220268 308.1 L 800.6116075812629 308.1 L 802.3006972404988 297.8 L 803.9897868997348 297.8 L 805.6788765589708 270.5 L 807.3679662182068 270.5 L 809.0570558774427 273.7 L 810.7461455366787 273.7 L 812.4352351959147 287.5 L 814.1243248551507 287.5 L 815.8134145143866 286.5 L 817.5025041736227 286.5 L 819.1915938328586 285.5 L 820.8806834920946 285.5 L 822.5697731513307 274.2 L 824.2588628105666 274.2 L 825.9479524698025 306.6 L 827.6370421290386 306.6 L 829.3261317882746 323.9 L 831.0152214475105 323.9 L 832.7043111067464 299.8 L 834.3934007659825 299.8 L 836.0824904252185 287.1 L 837.7715800844544 287.1 L 839.4606697436905 284 L 841.1497594029264 284 L 842.8388490621624 275.9 L 844.5279387213984 275.9 L 846.2170283806344 286.5 L 847.9061180398703 286.5 L 849.5952076991063 274.9 L 851.2842973583423 274.9 L 852.9733870175783 279.5 L 854.6624766768142 279.5 L 856.3515663360503 306.4 L 858.0406559952862 306.4 L 859.7297456545222 282.1 L 861.4188353137582 272.8 L 863.1079249729942 284.8 L 864.7970146322301 284.8 L 866.4861042914662 287.3 L 868.1751939507021 284.5 L 869.8642836099381 284.5 L 871.553373269174 270.1 L 873.2424629284101 270.1 L 874.931552587646 281.1 L 876.620642246882 281.1 L 878.309731906118 324 L 879.998821565354 324 L 881.6879112245899 322.4 L 883.377000883826 322.4 L 885.0660905430619 292.7 L 886.7551802022979 292.7 L 888.4442698615339 275.2 L 890.1333595207699 275.2 L 891.8224491800058 284.5 L 893.5115388392418 284.5 L 895.2006284984778 286.4 L 896.8897181577138 286.4 L 898.5788078169497 285.9 L 900.2678974761858 285.9 L 901.9569871354217 266.9 L 903.6460767946577 266.9 L 905.3351664538937 277 L 907.0242561131297 277 L 908.7133457723656 307.5 L 910.4024354316016 307.5 L 912.0915250908376 288.8 L 913.7806147500736 288.8 L 915.4697044093095 275.8 L 917.1587940685456 275.8 L 918.8478837277816 284.3 L 920.5369733870175 284.3 L 922.2260630462536 275.4 L 923.9151527054895 275.4 L 925.6042423647255 284 L 927.2933320239615 284 L 928.9824216831975 276.3 L 930.6715113424334 276.3 L 932.3606010016694 291.2 L 934.0496906609054 291.2 L 935.7387803201414 272.7 L 937.4278699793773 272.7 L 939.1169596386134 284 L 940.8060492978493 284 L 942.4951389570853 290.4 L 944.1842286163213 288.4 L 945.8733182755573 273.8 L 947.5624079347932 273.8 L 949.2514975940292 265.5 L 950.9405872532652 265.5 L 952.6296769125012 297.6 L 954.3187665717371 297.6 L 956.0078562309732 310.3 L 957.6969458902091 310.3 L 959.3860355494451 284.9 L 961.0751252086811 284.9 L 962.7642148679171 267.6 L 964.453304527153 267.6 L 966.1423941863891 283.4 L 967.831483845625 288.5 L 969.520573504861 288.5 L 971.2096631640969 287.2 L 972.898752823333 287.2 L 974.5878424825689 273.9 L 976.2769321418049 273.9 L 977.9660218010409 293.1 L 979.6551114602769 293.1 L 981.3442011195128 323.3 L 983.0332907787489 323.3 L 984.7223804379848 317.2 L 986.4114700972208 317.2 L 988.1005597564567 291.1 L 989.7896494156928 291.1 L 991.4787390749287 288.3 L 993.1678287341647 288.3 L 994.8569183934007 278.2 L 996.5460080526367 278.2 L 998.2350977118726 282.7 L 999.9241873711087 282.7 L 1001.6132770303446 278.2 L 1003.3023666895806 278.2 L 1004.9914563488167 271.4 L 1006.6805460080526 300 L 1008.3696356672885 300 L 1010.0587253265245 300.1 L 1011.7478149857606 300.1 L 1013.4369046449965 273.6 L 1015.1259943042324 273.6 L 1016.8150839634685 280.5 L 1018.5041736227045 280.5" stroke="#2f7ed8" stroke-width="1" zIndex="1"></path></g><g class="highcharts-markers" visibility="visible" zIndex="0.1" transform="translate(60,10) scale(1 1)" clip-path="none"><path fill="none" d="M 0.117647058823529 501.7 L 10.117647058823529 501.7 L 11.806736718059511 501.7 L 13.495826377295492 510.4 L 15.184916036531474 510.4 L 16.874005695767455 478 L 18.563095355003437 458.2 L 20.25218501423942 458.2 L 21.941274673475398 437.8 L 23.63036433271138 437.8 L 25.319453991947363 429.2 L 27.008543651183345 429.2 L 28.697633310419327 470.3 L 30.38672296965531 470.3 L 32.07581262889129 463.7 L 33.764902288127274 475.9 L 35.45399194736326 490.6 L 37.14308160659923 490.6 L 38.832171265835214 481.2 L 40.521260925071196 481.2 L 42.21035058430718 438.1 L 43.89944024354316 438.1 L 45.58852990277914 469.2 L 47.277619562015126 469.2 L 48.96670922125111 476.1 L 50.65579888048708 476.1 L 52.344888539723065 478 L 54.03397819895905 478 L 55.72306785819503 476.2 L 57.41215751743101 481.8 L 59.101247176666995 481.8 L 60.79033683590298 505.4 L 62.47942649513896 505.4 L 64.16851615437494 507.7 L 65.85760581361092 507.7 L 67.5466954728469 466.7 L 69.23578513208288 466.7 L 70.92487479131886 467.8 L 72.61396445055485 467.8 L 74.30305410979082 473.6 L 75.99214376902681 473.6 L 77.68123342826279 474 L 79.37032308749878 474 L 81.05941274673475 477.4 L 82.74850240597074 477.4 L 84.43759206520672 476.2 L 86.12668172444269 476.2 L 87.81577138367868 478.1 L 89.50486104291465 478.1 L 91.19395070215064 492.1 L 92.88304036138662 492.1 L 94.57213002062261 468.4 L 96.26121967985858 468.4 L 97.95030933909456 445.7 L 99.63939899833055 445.7 L 101.32848865756652 471.7 L 103.01757831680251 471.7 L 104.70666797603849 477.7 L 106.39575763527448 477.7 L 108.08484729451045 477.2 L 109.77393695374643 477.2 L 111.4630266129824 477.5 L 113.1521162722184 477.5 L 114.84120593145437 484.9 L 116.53029559069034 506.6 L 118.21938524992633 503.3 L 119.90847490916231 503.3 L 121.5975645683983 462.6 L 123.28665422763427 436.1 L 124.97574388687026 436.1 L 126.66483354610624 398.4 L 128.35392320534223 398.4 L 130.0430128645782 452.9 L 131.73210252381418 452.9 L 133.42119218305015 475.7 L 135.11028184228616 475.7 L 136.79937150152213 468.4 L 138.4884611607581 468.4 L 140.17755081999408 471.1 L 141.86664047923006 471.1 L 143.55573013846606 450.1 L 145.24481979770204 450.1 L 146.933909456938 358.3 L 148.622999116174 358.3 L 150.31208877541 335.6 L 152.00117843464596 335.6 L 153.69026809388194 357 L 155.37935775311792 357 L 157.0684474123539 364 L 158.7575370715899 364 L 160.44662673082587 359.4 L 162.13571639006184 359.4 L 163.82480604929782 348.8 L 165.51389570853382 348.8 L 167.2029853677698 368.7 L 168.89207502700577 368.7 L 170.58116468624175 400.5 L 172.27025434547772 400.5 L 173.95934400471373 392.8 L 175.6484336639497 392.8 L 177.33752332318568 378.2 L 179.02661298242165 378.2 L 180.71570264165766 357 L 182.40479230089363 357 L 184.0938819601296 364 L 185.78297161936558 364 L 187.47206127860156 405.3 L 189.16115093783756 405.3 L 190.85024059707354 244.9 L 192.5393302563095 244.9 L 194.2284199155455 300.3 L 195.91750957478146 300.3 L 197.60659923401747 388.6 L 199.29568889325344 471.6 L 200.98477855248942 471.6 L 202.6738682117254 470 L 204.3629578709614 469.1 L 206.05204753019737 469.1 L 207.74113718943335 434.5 L 209.43022684866932 434.5 L 211.1193165079053 406.8 L 212.8084061671413 406.8 L 214.49749582637727 385.9 L 216.18658548561325 385.9 L 217.87567514484925 245.9 L 219.56476480408523 245.9 L 221.25385446332123 184.3 L 222.9429441225572 184.3 L 224.63203378179318 411.9 L 226.32112344102916 411.9 L 228.01021310026513 471.1 L 229.69930275950114 471.1 L 231.3883924187371 470.3 L 233.0774820779731 470.3 L 234.76657173720906 447.8 L 236.45566139644507 447.8 L 238.14475105568104 400.9 L 239.83384071491702 400.9 L 241.522930374153 438.7 L 243.21202003338897 438.7 L 244.90110969262497 447.2 L 246.59019935186095 447.2 L 248.27928901109692 464.7 L 249.9683786703329 464.7 L 251.6574683295689 464.4 L 253.34655798880488 464.4 L 255.03564764804085 467.8 L 256.7247373072768 467.8 L 258.41382696651283 466.9 L 260.1029166257488 466.9 L 261.7920062849848 465.2 L 263.4810959442208 465.2 L 265.17018560345673 440.3 L 266.85927526269273 440.3 L 268.5483649219287 440.2 L 270.2374545811647 440.2 L 271.9265442404007 434.9 L 273.61563389963663 434.9 L 275.30472355887264 461 L 276.9938132181086 461 L 278.6829028773446 464.4 L 280.3719925365806 464.4 L 282.06108219581654 448.1 L 283.75017185505254 448.1 L 285.4392615142885 430 L 287.1283511735245 430 L 288.8174408327605 389.2 L 290.50653049199644 389.2 L 292.19562015123245 356.2 L 293.88470981046845 356.2 L 295.5737994697044 318.5 L 297.2628891289404 318.5 L 298.95197878817635 313.8 L 300.64106844741235 326.4 L 302.33015810664835 326.4 L 304.0192477658843 321.7 L 305.7083374251203 321.7 L 307.39742708435625 328 L 309.08651674359226 328 L 310.77560640282826 367.9 L 312.4646960620642 367.9 L 314.1537857213002 414.1 L 315.84287538053616 414.1 L 317.53196503977216 195.3 L 319.22105469900816 195.3 L 320.9101443582441 -80.5 L 322.5992340174801 -80.5 L 324.28832367671606 47.7 L 325.97741333595206 47.7 L 327.66650299518807 271 L 329.355592654424 271 L 331.04468231366 289.9 L 332.733771972896 289.9 L 334.42286163213197 268.7 L 336.111951291368 268.7 L 337.8010409506039 258.8 L 339.4901306098399 258.8 L 341.1792202690759 268.4 L 342.8683099283119 268.4 L 344.5573995875479 255.7 L 346.2464892467838 255.7 L 347.9355789060198 270.5 L 349.62466856525583 270.5 L 351.3137582244918 270.9 L 353.0028478837278 270.9 L 354.69193754296373 286.6 L 356.38102720219973 286.6 L 358.07011686143574 290.2 L 359.7592065206717 290.2 L 361.4482961799077 289.5 L 363.13738583914363 289.5 L 364.82647549837964 309.6 L 366.51556515761564 306.2 L 368.2046548168516 306.2 L 369.8937444760876 290.5 L 371.5828341353236 290.5 L 373.27192379455954 288.7 L 374.96101345379554 288.7 L 376.6501031130315 273.8 L 378.3391927722675 259.7 L 380.0282824315035 259.7 L 381.71737209073945 286.8 L 383.40646174997545 286.8 L 385.0955514092114 286.8 L 386.7846410684474 286.8 L 388.4737307276834 299.4 L 390.16282038691935 299.4 L 391.85191004615535 286.7 L 393.5409997053913 286.7 L 395.2300893646273 267 L 396.9191790238633 267 L 398.60826868309925 282.6 L 400.29735834233526 282.6 L 401.98644800157126 289.1 L 403.6755376608072 289.1 L 405.3646273200432 288.8 L 407.05371697927916 288.8 L 408.74280663851516 284 L 410.43189629775117 284 L 412.1209859569871 288.4 L 413.8100756162231 288.4 L 415.49916527545906 317.2 L 417.18825493469507 317.2 L 418.87734459393107 318.9 L 420.566434253167 318.9 L 422.255523912403 305 L 423.94461357163897 305 L 425.63370323087497 283.3 L 427.322792890111 283.3 L 429.0118825493469 280.3 L 430.7009722085829 280.3 L 432.3900618678189 287.6 L 434.0791515270549 287.6 L 435.7682411862909 288 L 437.4573308455268 288 L 439.14642050476283 288.1 L 440.83551016399883 288.1 L 442.5245998232348 278.2 L 444.2136894824708 278.2 L 445.90277914170673 286 L 447.59186880094273 275.8 L 449.28095846017874 275.8 L 450.9700481194147 284.9 L 452.6591377786507 284.9 L 454.34822743788664 280.9 L 456.03731709712264 280.9 L 457.72640675635864 279.8 L 459.4154964155946 279.8 L 461.1045860748306 288 L 462.79367573406654 288 L 464.48276539330254 294 L 466.17185505253855 294 L 467.8609447117745 311.9 L 469.5500343710105 311.9 L 471.23912403024644 308.7 L 472.92821368948245 308.7 L 474.61730334871845 244.6 L 476.3063930079544 244.6 L 477.9954826671904 262.1 L 479.6845723264264 262.1 L 481.37366198566235 288.1 L 483.06275164489836 288.1 L 484.7518413041343 288 L 486.4409309633703 288 L 488.1300206226063 282.2 L 489.81911028184226 282.2 L 491.50819994107826 275.8 L 493.1972896003142 275.8 L 494.8863792595502 265.4 L 496.5754689187862 265.4 L 498.26455857802216 236.4 L 499.95364823725816 236.4 L 501.6427378964941 259 L 503.3318275557301 262.3 L 505.0209172149661 262.3 L 506.71000687420207 259.1 L 508.39909653343807 259.1 L 510.0881861926741 287.1 L 511.77727585191 287.1 L 513.466365511146 288.4 L 515.155455170382 288.4 L 516.8445448296179 287.1 L 518.533634488854 287.1 L 520.2227241480899 282.6 L 521.9118138073259 282.6 L 523.6009034665619 277.8 L 525.2899931257979 277.8 L 526.9790827850338 322.5 L 528.6681724442699 322.5 L 530.3572621035058 283 L 532.0463517627418 283 L 533.7354414219778 289.7 L 535.4245310812138 289.7 L 537.1136207404497 287.3 L 538.8027103996857 287.3 L 540.4918000589217 286.6 L 542.1808897181577 286.6 L 543.8699793773936 303.7 L 545.5590690366297 303.7 L 547.2481586958656 285.9 L 548.9372483551016 285.9 L 550.6263380143376 277.3 L 552.3154276735736 277.3 L 554.0045173328095 288.2 L 555.6936069920455 288.2 L 557.3826966512815 289.9 L 559.0717863105175 289.9 L 560.7608759697534 286.4 L 562.4499656289895 286.4 L 564.1390552882254 276.8 L 565.8281449474614 276.8 L 567.5172346066975 295.9 L 569.2063242659334 295.9 L 570.8954139251694 313.4 L 572.5845035844054 313.4 L 574.2735932436414 321.3 L 575.9626829028773 321.3 L 577.6517725621133 291.6 L 579.3408622213493 291.6 L 581.0299518805853 276.2 L 582.7190415398212 276.2 L 584.4081311990573 286.3 L 586.0972208582932 286.3 L 587.7863105175292 288.3 L 589.4754001767652 284.9 L 591.1644898360012 284.9 L 592.8535794952371 271.4 L 594.5426691544731 271.4 L 596.2317588137091 278.6 L 597.9208484729451 278.6 L 599.609938132181 307.6 L 601.2990277914171 307.6 L 602.988117450653 286.6 L 604.677207109889 286.6 L 606.366296769125 278.6 L 608.055386428361 278.6 L 609.7444760875969 286.8 L 611.433565746833 286.8 L 613.1226554060689 287.5 L 614.8117450653049 287.5 L 616.5008347245408 288.7 L 618.1899243837769 288.7 L 619.8790140430128 296 L 621.5681037022488 296 L 623.2571933614848 314.6 L 624.9462830207208 314.6 L 626.6353726799567 261.5 L 628.3244623391928 261.5 L 630.0135519984287 264.4 L 631.7026416576647 264.4 L 633.3917313169006 289.7 L 635.0808209761367 289.3 L 636.7699106353726 289.3 L 638.4590002946086 288 L 640.1480899538446 288 L 641.8371796130806 278.4 L 643.5262692723165 278.4 L 645.2153589315526 279.1 L 646.9044485907885 279.1 L 648.5935382500245 290.9 L 650.2826279092606 290.9 L 651.9717175684965 308.1 L 653.6608072277324 308.1 L 655.3498968869684 281.7 L 657.0389865462045 281.7 L 658.7280762054404 243.6 L 660.4171658646763 243.6 L 662.1062555239124 272.4 L 663.7953451831484 272.4 L 665.4844348423843 288.9 L 667.1735245016204 288.9 L 668.8626141608563 289.5 L 670.5517038200923 289.5 L 672.2407934793283 288.7 L 673.9298831385643 288.7 L 675.6189727978002 292.9 L 677.3080624570362 292.9 L 678.9971521162722 318.3 L 680.6862417755082 318.3 L 682.3753314347441 309.1 L 684.0644210939802 309.1 L 685.7535107532161 288.8 L 687.4426004124521 288.8 L 689.1316900716881 288.2 L 690.8207797309241 288.2 L 692.50986939016 282.4 L 694.198959049396 282.4 L 695.888048708632 297.9 L 697.577138367868 297.9 L 699.2662280271039 300.9 L 700.95531768634 300.9 L 702.6444073455759 274.8 L 704.3334970048119 274.8 L 706.0225866640479 280.8 L 707.7116763232839 280.8 L 709.4007659825198 288.1 L 711.0898556417559 288.1 L 712.7789453009918 287.5 L 714.4680349602278 287.5 L 716.1571246194637 277.6 L 717.8462142786998 277.6 L 719.5353039379357 279.5 L 721.2243935971717 279.5 L 722.9134832564077 299.6 L 724.6025729156437 299.6 L 726.2916625748796 318.9 L 727.9807522341157 318.9 L 729.6698418933516 212.3 L 731.3589315525876 212.3 L 733.0480212118235 192.2 L 734.7371108710596 192.2 L 736.4262005302955 278.2 L 738.1152901895315 278.2 L 739.8043798487676 289.7 L 741.4934695080035 289.6 L 743.1825591672394 289.6 L 744.8716488264755 288 L 746.5607384857115 288 L 748.2498281449474 273.3 L 749.9389178041835 273.3 L 751.6280074634194 303.3 L 753.3170971226554 303.3 L 755.0061867818913 303.9 L 756.6952764411274 303.9 L 758.3843661003633 276.2 L 760.0734557595993 276.2 L 761.7625454188353 282.2 L 763.4516350780713 282.2 L 765.1407247373072 281.6 L 766.8298143965433 281.6 L 768.5189040557792 285.4 L 770.2079937150152 285.4 L 771.8970833742511 288.4 L 773.5861730334872 288.4 L 775.2752626927231 308.8 L 776.9643523519591 270.1 L 778.6534420111951 286 L 780.3425316704311 288.4 L 782.031621329667 288.4 L 783.7207109889031 287.8 L 785.409800648139 287.8 L 787.098890307375 286.6 L 788.787979966611 281.8 L 790.477069625847 281.8 L 792.1661592850829 271.2 L 793.8552489443189 271.2 L 795.5443386035549 272.8 L 797.2334282627909 272.8 L 798.9225179220268 308.1 L 800.6116075812629 308.1 L 802.3006972404988 297.8 L 803.9897868997348 297.8 L 805.6788765589708 270.5 L 807.3679662182068 270.5 L 809.0570558774427 273.7 L 810.7461455366787 273.7 L 812.4352351959147 287.5 L 814.1243248551507 287.5 L 815.8134145143866 286.5 L 817.5025041736227 286.5 L 819.1915938328586 285.5 L 820.8806834920946 285.5 L 822.5697731513307 274.2 L 824.2588628105666 274.2 L 825.9479524698025 306.6 L 827.6370421290386 306.6 L 829.3261317882746 323.9 L 831.0152214475105 323.9 L 832.7043111067464 299.8 L 834.3934007659825 299.8 L 836.0824904252185 287.1 L 837.7715800844544 287.1 L 839.4606697436905 284 L 841.1497594029264 284 L 842.8388490621624 275.9 L 844.5279387213984 275.9 L 846.2170283806344 286.5 L 847.9061180398703 286.5 L 849.5952076991063 274.9 L 851.2842973583423 274.9 L 852.9733870175783 279.5 L 854.6624766768142 279.5 L 856.3515663360503 306.4 L 858.0406559952862 306.4 L 859.7297456545222 282.1 L 861.4188353137582 272.8 L 863.1079249729942 284.8 L 864.7970146322301 284.8 L 866.4861042914662 287.3 L 868.1751939507021 284.5 L 869.8642836099381 284.5 L 871.553373269174 270.1 L 873.2424629284101 270.1 L 874.931552587646 281.1 L 876.620642246882 281.1 L 878.309731906118 324 L 879.998821565354 324 L 881.6879112245899 322.4 L 883.377000883826 322.4 L 885.0660905430619 292.7 L 886.7551802022979 292.7 L 888.4442698615339 275.2 L 890.1333595207699 275.2 L 891.8224491800058 284.5 L 893.5115388392418 284.5 L 895.2006284984778 286.4 L 896.8897181577138 286.4 L 898.5788078169497 285.9 L 900.2678974761858 285.9 L 901.9569871354217 266.9 L 903.6460767946577 266.9 L 905.3351664538937 277 L 907.0242561131297 277 L 908.7133457723656 307.5 L 910.4024354316016 307.5 L 912.0915250908376 288.8 L 913.7806147500736 288.8 L 915.4697044093095 275.8 L 917.1587940685456 275.8 L 918.8478837277816 284.3 L 920.5369733870175 284.3 L 922.2260630462536 275.4 L 923.9151527054895 275.4 L 925.6042423647255 284 L 927.2933320239615 284 L 928.9824216831975 276.3 L 930.6715113424334 276.3 L 932.3606010016694 291.2 L 934.0496906609054 291.2 L 935.7387803201414 272.7 L 937.4278699793773 272.7 L 939.1169596386134 284 L 940.8060492978493 284 L 942.4951389570853 290.4 L 944.1842286163213 288.4 L 945.8733182755573 273.8 L 947.5624079347932 273.8 L 949.2514975940292 265.5 L 950.9405872532652 265.5 L 952.6296769125012 297.6 L 954.3187665717371 297.6 L 956.0078562309732 310.3 L 957.6969458902091 310.3 L 959.3860355494451 284.9 L 961.0751252086811 284.9 L 962.7642148679171 267.6 L 964.453304527153 267.6 L 966.1423941863891 283.4 L 967.831483845625 288.5 L 969.520573504861 288.5 L 971.2096631640969 287.2 L 972.898752823333 287.2 L 974.5878424825689 273.9 L 976.2769321418049 273.9 L 977.9660218010409 293.1 L 979.6551114602769 293.1 L 981.3442011195128 323.3 L 983.0332907787489 323.3 L 984.7223804379848 317.2 L 986.4114700972208 317.2 L 988.1005597564567 291.1 L 989.7896494156928 291.1 L 991.4787390749287 288.3 L 993.1678287341647 288.3 L 994.8569183934007 278.2 L 996.5460080526367 278.2 L 998.2350977118726 282.7 L 999.9241873711087 282.7 L 1001.6132770303446 278.2 L 1003.3023666895806 278.2 L 1004.9914563488167 271.4 L 1006.6805460080526 300 L 1008.3696356672885 300 L 1010.0587253265245 300.1 L 1011.7478149857606 300.1 L 1013.4369046449965 273.6 L 1015.1259943042324 273.6 L 1016.8150839634685 280.5 L 1018.5041736227045 280.5 L 1028.5041736227045 280.5" class="highcharts-tracker highcharts-tracker" stroke-linejoin="round" visibility="visible" stroke-opacity="0.0001" stroke="rgb(192,192,192)" stroke-width="21" zIndex="2" style=""></path></g><g class="highcharts-series" visibility="visible" zIndex="0.1" transform="translate(60,10) scale(1 1)" clip-path="url(#highcharts-1)"><path fill="none" d="M 10.117647058823529 487.6 L 11.806736718059511 487.6 L 13.495826377295492 476.5 L 15.184916036531474 476.5 L 16.874005695767455 476.4 L 18.563095355003437 476.4 L 20.25218501423942 461.7 L 21.941274673475398 461.7 L 23.63036433271138 428.8 L 25.319453991947363 428.8 L 27.008543651183345 467 L 28.697633310419327 467 L 30.38672296965531 460.3 L 32.07581262889129 460.3 L 33.764902288127274 455.6 L 35.45399194736326 455.6 L 37.14308160659923 455.6 L 38.832171265835214 455.6 L 40.521260925071196 460.9 L 42.21035058430718 460.9 L 43.89944024354316 474.1 L 45.58852990277914 474.1 L 47.277619562015126 477.1 L 48.96670922125111 477.1 L 50.65579888048708 476 L 52.344888539723065 477.4 L 54.03397819895905 477.4 L 55.72306785819503 486.7 L 57.41215751743101 486.7 L 59.101247176666995 508.7 L 60.79033683590298 474.9 L 62.47942649513896 422.5 L 64.16851615437494 422.5 L 65.85760581361092 433.8 L 67.5466954728469 433.8 L 69.23578513208288 471.8 L 70.92487479131886 471.8 L 72.61396445055485 469.4 L 74.30305410979082 469.4 L 75.99214376902681 480.9 L 77.68123342826279 480.9 L 79.37032308749878 492.2 L 81.05941274673475 492.2 L 82.74850240597074 476 L 84.43759206520672 476 L 86.12668172444269 464.5 L 87.81577138367868 464.5 L 89.50486104291465 475.5 L 91.19395070215064 475.5 L 92.88304036138662 476.7 L 94.57213002062261 476.7 L 96.26121967985858 474.3 L 97.95030933909456 474.3 L 99.63939899833055 471 L 101.32848865756652 485.8 L 103.01757831680251 485.8 L 104.70666797603849 507.2 L 106.39575763527448 507.2 L 108.08484729451045 503.4 L 109.77393695374643 503.4 L 111.4630266129824 481.2 L 113.1521162722184 481.2 L 114.84120593145437 476.4 L 116.53029559069034 476.4 L 118.21938524992633 476.5 L 119.90847490916231 476.5 L 121.5975645683983 477.3 L 123.28665422763427 477.3 L 124.97574388687026 476 L 126.66483354610624 476 L 128.35392320534223 476.5 L 130.0430128645782 476.5 L 131.73210252381418 483.4 L 133.42119218305015 483.4 L 135.11028184228616 492.5 L 136.79937150152213 492.5 L 138.4884611607581 473.4 L 140.17755081999408 473.4 L 141.86664047923006 466 L 143.55573013846606 475.9 L 145.24481979770204 476.9 L 146.933909456938 476.9 L 148.622999116174 476.1 L 150.31208877541 476.1 L 152.00117843464596 476.9 L 153.69026809388194 494.7 L 155.37935775311792 494.7 L 157.0684474123539 509 L 158.7575370715899 509 L 160.44662673082587 501.1 L 162.13571639006184 501.1 L 163.82480604929782 479.9 L 165.51389570853382 479.9 L 167.2029853677698 475.6 L 168.89207502700577 475.6 L 170.58116468624175 477.2 L 172.27025434547772 477.2 L 173.95934400471373 476.8 L 175.6484336639497 476.8 L 177.33752332318568 475.9 L 179.02661298242165 475.9 L 180.71570264165766 475.7 L 182.40479230089363 475.7 L 184.0938819601296 480.9 L 185.78297161936558 480.9 L 187.47206127860156 448.9 L 189.16115093783756 448.9 L 190.85024059707354 454.4 L 192.5393302563095 454.4 L 194.2284199155455 460.3 L 195.91750957478146 460.3 L 197.60659923401747 473.1 L 199.29568889325344 473.1 L 200.98477855248942 477.4 L 202.6738682117254 477.4 L 204.3629578709614 476.9 L 206.05204753019737 476.9 L 207.74113718943335 477.5 L 209.43022684866932 477.5 L 211.1193165079053 499.9 L 212.8084061671413 499.9 L 214.49749582637727 509.7 L 216.18658548561325 509.7 L 217.87567514484925 498.3 L 219.56476480408523 498.3 L 221.25385446332123 472.3 L 222.9429441225572 472.3 L 224.63203378179318 411.5 L 226.32112344102916 472.1 L 228.01021310026513 472.1 L 229.69930275950114 457.9 L 231.3883924187371 457.9 L 233.0774820779731 456.5 L 234.76657173720906 456.5 L 236.45566139644507 452.4 L 238.14475105568104 452.4 L 239.83384071491702 385.5 L 241.522930374153 385.5 L 243.21202003338897 308.6 L 244.90110969262497 308.6 L 246.59019935186095 300.6 L 248.27928901109692 300.6 L 249.9683786703329 396.3 L 251.6574683295689 396.3 L 253.34655798880488 447.5 L 255.03564764804085 447.5 L 256.7247373072768 374.4 L 258.41382696651283 374.4 L 260.1029166257488 376.5 L 261.7920062849848 376.5 L 263.4810959442208 411.5 L 265.17018560345673 411.5 L 266.85927526269273 398.1 L 268.5483649219287 398.1 L 270.2374545811647 401.8 L 271.9265442404007 401.8 L 273.61563389963663 396.7 L 275.30472355887264 396.7 L 276.9938132181086 412.3 L 278.6829028773446 412.3 L 280.3719925365806 469.1 L 282.06108219581654 469.1 L 283.75017185505254 450.4 L 285.4392615142885 450.4 L 287.1283511735245 453.2 L 288.8174408327605 453.2 L 290.50653049199644 452 L 292.19562015123245 425.2 L 293.88470981046845 425.2 L 295.5737994697044 460.4 L 297.2628891289404 460.4 L 298.95197878817635 463.1 L 300.64106844741235 463.1 L 302.33015810664835 466.2 L 304.0192477658843 466.2 L 305.7083374251203 456.4 L 307.39742708435625 456.4 L 309.08651674359226 454.4 L 310.77560640282826 453.9 L 312.4646960620642 453.9 L 314.1537857213002 427.4 L 315.84287538053616 427.4 L 317.53196503977216 442.8 L 319.22105469900816 442.8 L 320.9101443582441 458.6 L 322.5992340174801 458.6 L 324.28832367671606 467.2 L 325.97741333595206 467.2 L 327.66650299518807 463.9 L 329.355592654424 463.9 L 331.04468231366 448.5 L 332.733771972896 448.5 L 334.42286163213197 441.7 L 336.111951291368 441.7 L 337.8010409506039 398 L 339.4901306098399 398 L 341.1792202690759 371.5 L 342.8683099283119 371.5 L 344.5573995875479 358.6 L 346.2464892467838 358.6 L 347.9355789060198 359.8 L 349.62466856525583 359.8 L 351.3137582244918 393 L 353.0028478837278 393 L 354.69193754296373 381.4 L 356.38102720219973 381.4 L 358.07011686143574 390.5 L 359.7592065206717 390.5 L 361.4482961799077 388 L 363.13738583914363 388 L 364.82647549837964 384.8 L 366.51556515761564 384.8 L 368.2046548168516 380.3 L 369.8937444760876 380.3 L 371.5828341353236 258.2 L 373.27192379455954 258.2 L 374.96101345379554 73 L 376.6501031130315 73 L 378.3391927722675 56 L 380.0282824315035 56 L 381.71737209073945 53.4 L 383.40646174997545 55.9 L 385.0955514092114 55.9 L 386.7846410684474 44.7 L 388.4737307276834 44.7 L 390.16282038691935 37.6 L 391.85191004615535 49 L 393.5409997053913 49.2 L 395.2300893646273 49.2 L 396.9191790238633 50.9 L 398.60826868309925 50.9 L 400.29735834233526 50.9 L 401.98644800157126 50.9 L 403.6755376608072 48.8 L 405.3646273200432 48.8 L 407.05371697927916 41.1 L 408.74280663851516 41.1 L 410.43189629775117 34.5 L 412.1209859569871 34.5 L 413.8100756162231 35.1 L 415.49916527545906 35.1 L 417.18825493469507 42.7 L 418.87734459393107 42.7 L 420.566434253167 51.7 L 422.255523912403 51.7 L 423.94461357163897 50.9 L 425.63370323087497 50.9 L 427.322792890111 48.6 L 429.0118825493469 48.6 L 430.7009722085829 46.8 L 432.3900618678189 46.8 L 434.0791515270549 41.4 L 435.7682411862909 41.4 L 437.4573308455268 33.3 L 439.14642050476283 33.3 L 440.83551016399883 33.8 L 442.5245998232348 33.8 L 444.2136894824708 34.2 L 445.90277914170673 34.2 L 447.59186880094273 45.8 L 449.28095846017874 45.8 L 450.9700481194147 47.5 L 452.6591377786507 47.5 L 454.34822743788664 49.5 L 456.03731709712264 49.5 L 457.72640675635864 46.5 L 459.4154964155946 43.3 L 461.1045860748306 43.3 L 462.79367573406654 33.3 L 464.48276539330254 33.3 L 466.17185505253855 30.9 L 467.8609447117745 30.9 L 469.5500343710105 31.6 L 471.23912403024644 31.6 L 472.92821368948245 41.5 L 474.61730334871845 38.5 L 476.3063930079544 34.6 L 477.9954826671904 34.6 L 479.6845723264264 35.5 L 481.37366198566235 35.5 L 483.06275164489836 31.1 L 484.7518413041343 31.1 L 486.4409309633703 30.4 L 488.1300206226063 34.8 L 489.81911028184226 34.8 L 491.50819994107826 44.9 L 493.1972896003142 44.9 L 494.8863792595502 45.2 L 496.5754689187862 45.2 L 498.26455857802216 45 L 499.95364823725816 45 L 501.6427378964941 44.1 L 503.3318275557301 44.1 L 505.0209172149661 39.5 L 506.71000687420207 39.5 L 508.39909653343807 23.3 L 510.0881861926741 23.3 L 511.77727585191 23.1 L 513.466365511146 23.1 L 515.155455170382 32.3 L 516.8445448296179 32.3 L 518.533634488854 47.1 L 520.2227241480899 47.1 L 521.9118138073259 51.7 L 523.6009034665619 51.7 L 525.2899931257979 50.9 L 526.9790827850338 50.9 L 528.6681724442699 49.4 L 530.3572621035058 49.4 L 532.0463517627418 46.3 L 533.7354414219778 46.3 L 535.4245310812138 29.2 L 537.1136207404497 29.2 L 538.8027103996857 22.6 L 540.4918000589217 22.6 L 542.1808897181577 31.7 L 543.8699793773936 31.7 L 545.5590690366297 42 L 547.2481586958656 42 L 548.9372483551016 49.4 L 550.6263380143376 49.4 L 552.3154276735736 48.5 L 554.0045173328095 48.5 L 555.6936069920455 50.2 L 557.3826966512815 50.9 L 559.0717863105175 38.5 L 560.7608759697534 21.5 L 562.4499656289895 21.5 L 564.1390552882254 26.9 L 565.8281449474614 26.9 L 567.5172346066975 34.6 L 569.2063242659334 34.6 L 570.8954139251694 47.1 L 572.5845035844054 47.1 L 574.2735932436414 48.7 L 575.9626829028773 48.7 L 577.6517725621133 45.9 L 579.3408622213493 45.9 L 581.0299518805853 39.1 L 582.7190415398212 39.1 L 584.4081311990573 36.6 L 586.0972208582932 36.6 L 587.7863105175292 24.9 L 589.4754001767652 24.9 L 591.1644898360012 22.4 L 592.8535794952371 22.4 L 594.5426691544731 28.9 L 596.2317588137091 28.9 L 597.9208484729451 37.7 L 599.609938132181 37.7 L 601.2990277914171 46.7 L 602.988117450653 46.7 L 604.677207109889 47.1 L 606.366296769125 47.1 L 608.055386428361 45.8 L 609.7444760875969 45.8 L 611.433565746833 45.2 L 613.1226554060689 45.2 L 614.8117450653049 32 L 616.5008347245408 32 L 618.1899243837769 19.3 L 619.8790140430128 19.3 L 621.5681037022488 26.9 L 623.2571933614848 26.9 L 624.9462830207208 34 L 626.6353726799567 34 L 628.3244623391928 43.1 L 630.0135519984287 43.1 L 631.7026416576647 43.1 L 633.3917313169006 43.1 L 635.0808209761367 47.1 L 636.7699106353726 47.1 L 638.4590002946086 47.1 L 640.1480899538446 30.7 L 641.8371796130806 30.7 L 643.5262692723165 42.3 L 645.2153589315526 42.3 L 646.9044485907885 47.4 L 648.5935382500245 47.4 L 650.2826279092606 46.1 L 651.9717175684965 46.1 L 653.6608072277324 44.4 L 655.3498968869684 44.4 L 657.0389865462045 42.3 L 658.7280762054404 42.3 L 660.4171658646763 31.2 L 662.1062555239124 31.2 L 663.7953451831484 21.2 L 665.4844348423843 21.2 L 667.1735245016204 25.8 L 668.8626141608563 25.8 L 670.5517038200923 33.6 L 672.2407934793283 33.6 L 673.9298831385643 44.7 L 675.6189727978002 44.7 L 677.3080624570362 46.5 L 678.9971521162722 46.5 L 680.6862417755082 45.2 L 682.3753314347441 45.3 L 684.0644210939802 45.3 L 685.7535107532161 35.2 L 687.4426004124521 35.2 L 689.1316900716881 22.9 L 690.8207797309241 22.9 L 692.50986939016 24 L 694.198959049396 24 L 695.888048708632 28.4 L 697.577138367868 28.4 L 699.2662280271039 40.1 L 700.95531768634 40.1 L 702.6444073455759 42.3 L 704.3334970048119 42.3 L 706.0225866640479 43.5 L 707.7116763232839 43.5 L 709.4007659825198 44.9 L 711.0898556417559 42.4 L 712.7789453009918 42.4 L 714.4680349602278 27.5 L 716.1571246194637 27.5 L 717.8462142786998 22.2 L 719.5353039379357 22.2 L 721.2243935971717 27.1 L 722.9134832564077 35.5 L 724.6025729156437 41.9 L 726.2916625748796 41.9 L 727.9807522341157 43.3 L 729.6698418933516 43.3 L 731.3589315525876 41.8 L 733.0480212118235 41.8 L 734.7371108710596 40.5 L 736.4262005302955 40.5 L 738.1152901895315 35.4 L 739.8043798487676 35.4 L 741.4934695080035 22.3 L 743.1825591672394 22.3 L 744.8716488264755 24.3 L 746.5607384857115 24.3 L 748.2498281449474 30.7 L 749.9389178041835 39.8 L 751.6280074634194 39.8 L 753.3170971226554 44.4 L 755.0061867818913 44.4 L 756.6952764411274 42.3 L 758.3843661003633 42.3 L 760.0734557595993 44.2 L 761.7625454188353 44.2 L 763.4516350780713 39.5 L 765.1407247373072 39.5 L 766.8298143965433 23.6 L 768.5189040557792 23.6 L 770.2079937150152 22.4 L 771.8970833742511 22.4 L 773.5861730334872 26.6 L 775.2752626927231 26.6 L 776.9643523519591 35.6 L 778.6534420111951 35.6 L 780.3425316704311 42.2 L 782.031621329667 42.2 L 783.7207109889031 42.7 L 785.409800648139 42.7 L 787.098890307375 46.7 L 788.787979966611 46.7 L 790.477069625847 43.4 L 792.1661592850829 43.4 L 793.8552489443189 32.7 L 795.5443386035549 32.7 L 797.2334282627909 20.5 L 798.9225179220268 20.5 L 800.6116075812629 24.4 L 802.3006972404988 24.4 L 803.9897868997348 29.3 L 805.6788765589708 43.3 L 807.3679662182068 42.3 L 809.0570558774427 42.3 L 810.7461455366787 38.7 L 812.4352351959147 38.7 L 814.1243248551507 24.2 L 815.8134145143866 24.2 L 817.5025041736227 24 L 819.1915938328586 24 L 820.8806834920946 32 L 822.5697731513307 32 L 824.2588628105666 43.7 L 825.9479524698025 43.7 L 827.6370421290386 48.7 L 829.3261317882746 48.7 L 831.0152214475105 47.4 L 832.7043111067464 47.4 L 834.3934007659825 47.6 L 836.0824904252185 45.4 L 837.7715800844544 45.4 L 839.4606697436905 30 L 841.1497594029264 30 L 842.8388490621624 20.2 L 844.5279387213984 20.2 L 846.2170283806344 27.1 L 847.9061180398703 27.1 L 849.5952076991063 36.4 L 851.2842973583423 36.4 L 852.9733870175783 47 L 854.6624766768142 47 L 856.3515663360503 44.9 L 858.0406559952862 44.9 L 859.7297456545222 46.8 L 861.4188353137582 46.8 L 863.1079249729942 45.2 L 864.7970146322301 45.2 L 866.4861042914662 36.4 L 868.1751939507021 36.4 L 869.8642836099381 23.5 L 871.553373269174 23.5 L 873.2424629284101 23.9 L 874.931552587646 23.9 L 876.620642246882 26.7 L 878.309731906118 26.7 L 879.998821565354 38.8 L 881.6879112245899 38.8 L 883.377000883826 42.4 L 885.0660905430619 41.7 L 886.7551802022979 41.7 L 888.4442698615339 27.3 L 890.1333595207699 27.3 L 891.8224491800058 22.2 L 893.5115388392418 22.2 L 895.2006284984778 25.4 L 896.8897181577138 25.4 L 898.5788078169497 35.4 L 900.2678974761858 35.4 L 901.9569871354217 46.1 L 903.6460767946577 46.6 L 905.3351664538937 46.6 L 907.0242561131297 46.1 L 908.7133457723656 46.1 L 910.4024354316016 43.6 L 912.0915250908376 43.6 L 913.7806147500736 33.8 L 915.4697044093095 33.8 L 917.1587940685456 21.1 L 918.8478837277816 21.1 L 920.5369733870175 25.2 L 922.2260630462536 25.2 L 923.9151527054895 31.6 L 925.6042423647255 31.6 L 927.2933320239615 42.8 L 928.9824216831975 42.8 L 930.6715113424334 41.1 L 932.3606010016694 41.1 L 934.0496906609054 42 L 935.7387803201414 42 L 937.4278699793773 43 L 939.1169596386134 43 L 940.8060492978493 36.6 L 942.4951389570853 36.6 L 944.1842286163213 22.9 L 945.8733182755573 22.9 L 947.5624079347932 22.3 L 949.2514975940292 22.3 L 950.9405872532652 33.3 L 952.6296769125012 33.3 L 954.3187665717371 44.2 L 956.0078562309732 44.2 L 957.6969458902091 50.1 L 959.3860355494451 50.1 L 961.0751252086811 50.7 L 962.7642148679171 50.7 L 964.453304527153 49 L 966.1423941863891 49 L 967.831483845625 44.5 L 969.520573504861 44.5 L 971.2096631640969 35.5 L 972.898752823333 35.5 L 974.5878424825689 44.9 L 976.2769321418049 44.9 L 977.9660218010409 44.9 L 979.6551114602769 44.9 L 981.3442011195128 45.6 L 983.0332907787489 45.6 L 984.7223804379848 45.9 L 986.4114700972208 45.9 L 988.1005597564567 38.1 L 989.7896494156928 38.1 L 991.4787390749287 23.4 L 993.1678287341647 23.4 L 994.8569183934007 23.3 L 996.5460080526367 23.3 L 998.2350977118726 29.7 L 999.9241873711087 29.7 L 1001.6132770303446 39.8 L 1003.3023666895806 39.8 L 1004.9914563488167 43.6 L 1006.6805460080526 43.6 L 1008.3696356672885 44.5 L 1010.0587253265245 44.5 L 1011.7478149857606 46.2 L 1013.4369046449965 46.2 L 1015.1259943042324 43.7 L 1016.8150839634685 43.7 L 1018.5041736227045 30.6 L 1020.1932632819404 30.6 L 1021.8823529411765 21.2" stroke="#c42525" stroke-width="1" zIndex="1"></path></g><g class="highcharts-markers" visibility="visible" zIndex="0.1" transform="translate(60,10) scale(1 1)" clip-path="none"><path fill="none" d="M 0.117647058823529 487.6 L 10.117647058823529 487.6 L 11.806736718059511 487.6 L 13.495826377295492 476.5 L 15.184916036531474 476.5 L 16.874005695767455 476.4 L 18.563095355003437 476.4 L 20.25218501423942 461.7 L 21.941274673475398 461.7 L 23.63036433271138 428.8 L 25.319453991947363 428.8 L 27.008543651183345 467 L 28.697633310419327 467 L 30.38672296965531 460.3 L 32.07581262889129 460.3 L 33.764902288127274 455.6 L 35.45399194736326 455.6 L 37.14308160659923 455.6 L 38.832171265835214 455.6 L 40.521260925071196 460.9 L 42.21035058430718 460.9 L 43.89944024354316 474.1 L 45.58852990277914 474.1 L 47.277619562015126 477.1 L 48.96670922125111 477.1 L 50.65579888048708 476 L 52.344888539723065 477.4 L 54.03397819895905 477.4 L 55.72306785819503 486.7 L 57.41215751743101 486.7 L 59.101247176666995 508.7 L 60.79033683590298 474.9 L 62.47942649513896 422.5 L 64.16851615437494 422.5 L 65.85760581361092 433.8 L 67.5466954728469 433.8 L 69.23578513208288 471.8 L 70.92487479131886 471.8 L 72.61396445055485 469.4 L 74.30305410979082 469.4 L 75.99214376902681 480.9 L 77.68123342826279 480.9 L 79.37032308749878 492.2 L 81.05941274673475 492.2 L 82.74850240597074 476 L 84.43759206520672 476 L 86.12668172444269 464.5 L 87.81577138367868 464.5 L 89.50486104291465 475.5 L 91.19395070215064 475.5 L 92.88304036138662 476.7 L 94.57213002062261 476.7 L 96.26121967985858 474.3 L 97.95030933909456 474.3 L 99.63939899833055 471 L 101.32848865756652 485.8 L 103.01757831680251 485.8 L 104.70666797603849 507.2 L 106.39575763527448 507.2 L 108.08484729451045 503.4 L 109.77393695374643 503.4 L 111.4630266129824 481.2 L 113.1521162722184 481.2 L 114.84120593145437 476.4 L 116.53029559069034 476.4 L 118.21938524992633 476.5 L 119.90847490916231 476.5 L 121.5975645683983 477.3 L 123.28665422763427 477.3 L 124.97574388687026 476 L 126.66483354610624 476 L 128.35392320534223 476.5 L 130.0430128645782 476.5 L 131.73210252381418 483.4 L 133.42119218305015 483.4 L 135.11028184228616 492.5 L 136.79937150152213 492.5 L 138.4884611607581 473.4 L 140.17755081999408 473.4 L 141.86664047923006 466 L 143.55573013846606 475.9 L 145.24481979770204 476.9 L 146.933909456938 476.9 L 148.622999116174 476.1 L 150.31208877541 476.1 L 152.00117843464596 476.9 L 153.69026809388194 494.7 L 155.37935775311792 494.7 L 157.0684474123539 509 L 158.7575370715899 509 L 160.44662673082587 501.1 L 162.13571639006184 501.1 L 163.82480604929782 479.9 L 165.51389570853382 479.9 L 167.2029853677698 475.6 L 168.89207502700577 475.6 L 170.58116468624175 477.2 L 172.27025434547772 477.2 L 173.95934400471373 476.8 L 175.6484336639497 476.8 L 177.33752332318568 475.9 L 179.02661298242165 475.9 L 180.71570264165766 475.7 L 182.40479230089363 475.7 L 184.0938819601296 480.9 L 185.78297161936558 480.9 L 187.47206127860156 448.9 L 189.16115093783756 448.9 L 190.85024059707354 454.4 L 192.5393302563095 454.4 L 194.2284199155455 460.3 L 195.91750957478146 460.3 L 197.60659923401747 473.1 L 199.29568889325344 473.1 L 200.98477855248942 477.4 L 202.6738682117254 477.4 L 204.3629578709614 476.9 L 206.05204753019737 476.9 L 207.74113718943335 477.5 L 209.43022684866932 477.5 L 211.1193165079053 499.9 L 212.8084061671413 499.9 L 214.49749582637727 509.7 L 216.18658548561325 509.7 L 217.87567514484925 498.3 L 219.56476480408523 498.3 L 221.25385446332123 472.3 L 222.9429441225572 472.3 L 224.63203378179318 411.5 L 226.32112344102916 472.1 L 228.01021310026513 472.1 L 229.69930275950114 457.9 L 231.3883924187371 457.9 L 233.0774820779731 456.5 L 234.76657173720906 456.5 L 236.45566139644507 452.4 L 238.14475105568104 452.4 L 239.83384071491702 385.5 L 241.522930374153 385.5 L 243.21202003338897 308.6 L 244.90110969262497 308.6 L 246.59019935186095 300.6 L 248.27928901109692 300.6 L 249.9683786703329 396.3 L 251.6574683295689 396.3 L 253.34655798880488 447.5 L 255.03564764804085 447.5 L 256.7247373072768 374.4 L 258.41382696651283 374.4 L 260.1029166257488 376.5 L 261.7920062849848 376.5 L 263.4810959442208 411.5 L 265.17018560345673 411.5 L 266.85927526269273 398.1 L 268.5483649219287 398.1 L 270.2374545811647 401.8 L 271.9265442404007 401.8 L 273.61563389963663 396.7 L 275.30472355887264 396.7 L 276.9938132181086 412.3 L 278.6829028773446 412.3 L 280.3719925365806 469.1 L 282.06108219581654 469.1 L 283.75017185505254 450.4 L 285.4392615142885 450.4 L 287.1283511735245 453.2 L 288.8174408327605 453.2 L 290.50653049199644 452 L 292.19562015123245 425.2 L 293.88470981046845 425.2 L 295.5737994697044 460.4 L 297.2628891289404 460.4 L 298.95197878817635 463.1 L 300.64106844741235 463.1 L 302.33015810664835 466.2 L 304.0192477658843 466.2 L 305.7083374251203 456.4 L 307.39742708435625 456.4 L 309.08651674359226 454.4 L 310.77560640282826 453.9 L 312.4646960620642 453.9 L 314.1537857213002 427.4 L 315.84287538053616 427.4 L 317.53196503977216 442.8 L 319.22105469900816 442.8 L 320.9101443582441 458.6 L 322.5992340174801 458.6 L 324.28832367671606 467.2 L 325.97741333595206 467.2 L 327.66650299518807 463.9 L 329.355592654424 463.9 L 331.04468231366 448.5 L 332.733771972896 448.5 L 334.42286163213197 441.7 L 336.111951291368 441.7 L 337.8010409506039 398 L 339.4901306098399 398 L 341.1792202690759 371.5 L 342.8683099283119 371.5 L 344.5573995875479 358.6 L 346.2464892467838 358.6 L 347.9355789060198 359.8 L 349.62466856525583 359.8 L 351.3137582244918 393 L 353.0028478837278 393 L 354.69193754296373 381.4 L 356.38102720219973 381.4 L 358.07011686143574 390.5 L 359.7592065206717 390.5 L 361.4482961799077 388 L 363.13738583914363 388 L 364.82647549837964 384.8 L 366.51556515761564 384.8 L 368.2046548168516 380.3 L 369.8937444760876 380.3 L 371.5828341353236 258.2 L 373.27192379455954 258.2 L 374.96101345379554 73 L 376.6501031130315 73 L 378.3391927722675 56 L 380.0282824315035 56 L 381.71737209073945 53.4 L 383.40646174997545 55.9 L 385.0955514092114 55.9 L 386.7846410684474 44.7 L 388.4737307276834 44.7 L 390.16282038691935 37.6 L 391.85191004615535 49 L 393.5409997053913 49.2 L 395.2300893646273 49.2 L 396.9191790238633 50.9 L 398.60826868309925 50.9 L 400.29735834233526 50.9 L 401.98644800157126 50.9 L 403.6755376608072 48.8 L 405.3646273200432 48.8 L 407.05371697927916 41.1 L 408.74280663851516 41.1 L 410.43189629775117 34.5 L 412.1209859569871 34.5 L 413.8100756162231 35.1 L 415.49916527545906 35.1 L 417.18825493469507 42.7 L 418.87734459393107 42.7 L 420.566434253167 51.7 L 422.255523912403 51.7 L 423.94461357163897 50.9 L 425.63370323087497 50.9 L 427.322792890111 48.6 L 429.0118825493469 48.6 L 430.7009722085829 46.8 L 432.3900618678189 46.8 L 434.0791515270549 41.4 L 435.7682411862909 41.4 L 437.4573308455268 33.3 L 439.14642050476283 33.3 L 440.83551016399883 33.8 L 442.5245998232348 33.8 L 444.2136894824708 34.2 L 445.90277914170673 34.2 L 447.59186880094273 45.8 L 449.28095846017874 45.8 L 450.9700481194147 47.5 L 452.6591377786507 47.5 L 454.34822743788664 49.5 L 456.03731709712264 49.5 L 457.72640675635864 46.5 L 459.4154964155946 43.3 L 461.1045860748306 43.3 L 462.79367573406654 33.3 L 464.48276539330254 33.3 L 466.17185505253855 30.9 L 467.8609447117745 30.9 L 469.5500343710105 31.6 L 471.23912403024644 31.6 L 472.92821368948245 41.5 L 474.61730334871845 38.5 L 476.3063930079544 34.6 L 477.9954826671904 34.6 L 479.6845723264264 35.5 L 481.37366198566235 35.5 L 483.06275164489836 31.1 L 484.7518413041343 31.1 L 486.4409309633703 30.4 L 488.1300206226063 34.8 L 489.81911028184226 34.8 L 491.50819994107826 44.9 L 493.1972896003142 44.9 L 494.8863792595502 45.2 L 496.5754689187862 45.2 L 498.26455857802216 45 L 499.95364823725816 45 L 501.6427378964941 44.1 L 503.3318275557301 44.1 L 505.0209172149661 39.5 L 506.71000687420207 39.5 L 508.39909653343807 23.3 L 510.0881861926741 23.3 L 511.77727585191 23.1 L 513.466365511146 23.1 L 515.155455170382 32.3 L 516.8445448296179 32.3 L 518.533634488854 47.1 L 520.2227241480899 47.1 L 521.9118138073259 51.7 L 523.6009034665619 51.7 L 525.2899931257979 50.9 L 526.9790827850338 50.9 L 528.6681724442699 49.4 L 530.3572621035058 49.4 L 532.0463517627418 46.3 L 533.7354414219778 46.3 L 535.4245310812138 29.2 L 537.1136207404497 29.2 L 538.8027103996857 22.6 L 540.4918000589217 22.6 L 542.1808897181577 31.7 L 543.8699793773936 31.7 L 545.5590690366297 42 L 547.2481586958656 42 L 548.9372483551016 49.4 L 550.6263380143376 49.4 L 552.3154276735736 48.5 L 554.0045173328095 48.5 L 555.6936069920455 50.2 L 557.3826966512815 50.9 L 559.0717863105175 38.5 L 560.7608759697534 21.5 L 562.4499656289895 21.5 L 564.1390552882254 26.9 L 565.8281449474614 26.9 L 567.5172346066975 34.6 L 569.2063242659334 34.6 L 570.8954139251694 47.1 L 572.5845035844054 47.1 L 574.2735932436414 48.7 L 575.9626829028773 48.7 L 577.6517725621133 45.9 L 579.3408622213493 45.9 L 581.0299518805853 39.1 L 582.7190415398212 39.1 L 584.4081311990573 36.6 L 586.0972208582932 36.6 L 587.7863105175292 24.9 L 589.4754001767652 24.9 L 591.1644898360012 22.4 L 592.8535794952371 22.4 L 594.5426691544731 28.9 L 596.2317588137091 28.9 L 597.9208484729451 37.7 L 599.609938132181 37.7 L 601.2990277914171 46.7 L 602.988117450653 46.7 L 604.677207109889 47.1 L 606.366296769125 47.1 L 608.055386428361 45.8 L 609.7444760875969 45.8 L 611.433565746833 45.2 L 613.1226554060689 45.2 L 614.8117450653049 32 L 616.5008347245408 32 L 618.1899243837769 19.3 L 619.8790140430128 19.3 L 621.5681037022488 26.9 L 623.2571933614848 26.9 L 624.9462830207208 34 L 626.6353726799567 34 L 628.3244623391928 43.1 L 630.0135519984287 43.1 L 631.7026416576647 43.1 L 633.3917313169006 43.1 L 635.0808209761367 47.1 L 636.7699106353726 47.1 L 638.4590002946086 47.1 L 640.1480899538446 30.7 L 641.8371796130806 30.7 L 643.5262692723165 42.3 L 645.2153589315526 42.3 L 646.9044485907885 47.4 L 648.5935382500245 47.4 L 650.2826279092606 46.1 L 651.9717175684965 46.1 L 653.6608072277324 44.4 L 655.3498968869684 44.4 L 657.0389865462045 42.3 L 658.7280762054404 42.3 L 660.4171658646763 31.2 L 662.1062555239124 31.2 L 663.7953451831484 21.2 L 665.4844348423843 21.2 L 667.1735245016204 25.8 L 668.8626141608563 25.8 L 670.5517038200923 33.6 L 672.2407934793283 33.6 L 673.9298831385643 44.7 L 675.6189727978002 44.7 L 677.3080624570362 46.5 L 678.9971521162722 46.5 L 680.6862417755082 45.2 L 682.3753314347441 45.3 L 684.0644210939802 45.3 L 685.7535107532161 35.2 L 687.4426004124521 35.2 L 689.1316900716881 22.9 L 690.8207797309241 22.9 L 692.50986939016 24 L 694.198959049396 24 L 695.888048708632 28.4 L 697.577138367868 28.4 L 699.2662280271039 40.1 L 700.95531768634 40.1 L 702.6444073455759 42.3 L 704.3334970048119 42.3 L 706.0225866640479 43.5 L 707.7116763232839 43.5 L 709.4007659825198 44.9 L 711.0898556417559 42.4 L 712.7789453009918 42.4 L 714.4680349602278 27.5 L 716.1571246194637 27.5 L 717.8462142786998 22.2 L 719.5353039379357 22.2 L 721.2243935971717 27.1 L 722.9134832564077 35.5 L 724.6025729156437 41.9 L 726.2916625748796 41.9 L 727.9807522341157 43.3 L 729.6698418933516 43.3 L 731.3589315525876 41.8 L 733.0480212118235 41.8 L 734.7371108710596 40.5 L 736.4262005302955 40.5 L 738.1152901895315 35.4 L 739.8043798487676 35.4 L 741.4934695080035 22.3 L 743.1825591672394 22.3 L 744.8716488264755 24.3 L 746.5607384857115 24.3 L 748.2498281449474 30.7 L 749.9389178041835 39.8 L 751.6280074634194 39.8 L 753.3170971226554 44.4 L 755.0061867818913 44.4 L 756.6952764411274 42.3 L 758.3843661003633 42.3 L 760.0734557595993 44.2 L 761.7625454188353 44.2 L 763.4516350780713 39.5 L 765.1407247373072 39.5 L 766.8298143965433 23.6 L 768.5189040557792 23.6 L 770.2079937150152 22.4 L 771.8970833742511 22.4 L 773.5861730334872 26.6 L 775.2752626927231 26.6 L 776.9643523519591 35.6 L 778.6534420111951 35.6 L 780.3425316704311 42.2 L 782.031621329667 42.2 L 783.7207109889031 42.7 L 785.409800648139 42.7 L 787.098890307375 46.7 L 788.787979966611 46.7 L 790.477069625847 43.4 L 792.1661592850829 43.4 L 793.8552489443189 32.7 L 795.5443386035549 32.7 L 797.2334282627909 20.5 L 798.9225179220268 20.5 L 800.6116075812629 24.4 L 802.3006972404988 24.4 L 803.9897868997348 29.3 L 805.6788765589708 43.3 L 807.3679662182068 42.3 L 809.0570558774427 42.3 L 810.7461455366787 38.7 L 812.4352351959147 38.7 L 814.1243248551507 24.2 L 815.8134145143866 24.2 L 817.5025041736227 24 L 819.1915938328586 24 L 820.8806834920946 32 L 822.5697731513307 32 L 824.2588628105666 43.7 L 825.9479524698025 43.7 L 827.6370421290386 48.7 L 829.3261317882746 48.7 L 831.0152214475105 47.4 L 832.7043111067464 47.4 L 834.3934007659825 47.6 L 836.0824904252185 45.4 L 837.7715800844544 45.4 L 839.4606697436905 30 L 841.1497594029264 30 L 842.8388490621624 20.2 L 844.5279387213984 20.2 L 846.2170283806344 27.1 L 847.9061180398703 27.1 L 849.5952076991063 36.4 L 851.2842973583423 36.4 L 852.9733870175783 47 L 854.6624766768142 47 L 856.3515663360503 44.9 L 858.0406559952862 44.9 L 859.7297456545222 46.8 L 861.4188353137582 46.8 L 863.1079249729942 45.2 L 864.7970146322301 45.2 L 866.4861042914662 36.4 L 868.1751939507021 36.4 L 869.8642836099381 23.5 L 871.553373269174 23.5 L 873.2424629284101 23.9 L 874.931552587646 23.9 L 876.620642246882 26.7 L 878.309731906118 26.7 L 879.998821565354 38.8 L 881.6879112245899 38.8 L 883.377000883826 42.4 L 885.0660905430619 41.7 L 886.7551802022979 41.7 L 888.4442698615339 27.3 L 890.1333595207699 27.3 L 891.8224491800058 22.2 L 893.5115388392418 22.2 L 895.2006284984778 25.4 L 896.8897181577138 25.4 L 898.5788078169497 35.4 L 900.2678974761858 35.4 L 901.9569871354217 46.1 L 903.6460767946577 46.6 L 905.3351664538937 46.6 L 907.0242561131297 46.1 L 908.7133457723656 46.1 L 910.4024354316016 43.6 L 912.0915250908376 43.6 L 913.7806147500736 33.8 L 915.4697044093095 33.8 L 917.1587940685456 21.1 L 918.8478837277816 21.1 L 920.5369733870175 25.2 L 922.2260630462536 25.2 L 923.9151527054895 31.6 L 925.6042423647255 31.6 L 927.2933320239615 42.8 L 928.9824216831975 42.8 L 930.6715113424334 41.1 L 932.3606010016694 41.1 L 934.0496906609054 42 L 935.7387803201414 42 L 937.4278699793773 43 L 939.1169596386134 43 L 940.8060492978493 36.6 L 942.4951389570853 36.6 L 944.1842286163213 22.9 L 945.8733182755573 22.9 L 947.5624079347932 22.3 L 949.2514975940292 22.3 L 950.9405872532652 33.3 L 952.6296769125012 33.3 L 954.3187665717371 44.2 L 956.0078562309732 44.2 L 957.6969458902091 50.1 L 959.3860355494451 50.1 L 961.0751252086811 50.7 L 962.7642148679171 50.7 L 964.453304527153 49 L 966.1423941863891 49 L 967.831483845625 44.5 L 969.520573504861 44.5 L 971.2096631640969 35.5 L 972.898752823333 35.5 L 974.5878424825689 44.9 L 976.2769321418049 44.9 L 977.9660218010409 44.9 L 979.6551114602769 44.9 L 981.3442011195128 45.6 L 983.0332907787489 45.6 L 984.7223804379848 45.9 L 986.4114700972208 45.9 L 988.1005597564567 38.1 L 989.7896494156928 38.1 L 991.4787390749287 23.4 L 993.1678287341647 23.4 L 994.8569183934007 23.3 L 996.5460080526367 23.3 L 998.2350977118726 29.7 L 999.9241873711087 29.7 L 1001.6132770303446 39.8 L 1003.3023666895806 39.8 L 1004.9914563488167 43.6 L 1006.6805460080526 43.6 L 1008.3696356672885 44.5 L 1010.0587253265245 44.5 L 1011.7478149857606 46.2 L 1013.4369046449965 46.2 L 1015.1259943042324 43.7 L 1016.8150839634685 43.7 L 1018.5041736227045 30.6 L 1020.1932632819404 30.6 L 1021.8823529411765 21.2 L 1031.8823529411766 21.2" class="highcharts-tracker highcharts-tracker" stroke-linejoin="round" visibility="visible" stroke-opacity="0.0001" stroke="rgb(192,192,192)" stroke-width="21" zIndex="2" style=""></path></g></g><g class="highcharts-axis-labels" zIndex="7"><text x="70.11764705882354" y="586" style="font-family:&quot;Lucida Grande&quot;, &quot;Lucida Sans Unicode&quot;, Verdana, Arial, Helvetica, sans-serif;font-size:11px;color:#666;cursor:default;line-height:14px;fill:#666;" text-anchor="middle" opacity="1"><tspan x="70.11764705882354">0</tspan></text><text x="154.5721300206226" y="586" style="font-family:&quot;Lucida Grande&quot;, &quot;Lucida Sans Unicode&quot;, Verdana, Arial, Helvetica, sans-serif;font-size:11px;color:#666;cursor:default;line-height:14px;fill:#666;" text-anchor="middle" opacity="1"><tspan x="154.5721300206226">50</tspan></text><text x="239.02661298242165" y="586" style="font-family:&quot;Lucida Grande&quot;, &quot;Lucida Sans Unicode&quot;, Verdana, Arial, Helvetica, sans-serif;font-size:11px;color:#666;cursor:default;line-height:14px;fill:#666;" text-anchor="middle" opacity="1"><tspan x="239.02661298242165">100</tspan></text><text x="323.4810959442208" y="586" style="font-family:&quot;Lucida Grande&quot;, &quot;Lucida Sans Unicode&quot;, Verdana, Arial, Helvetica, sans-serif;font-size:11px;color:#666;cursor:default;line-height:14px;fill:#666;" text-anchor="middle" opacity="1"><tspan x="323.4810959442208">150</tspan></text><text x="407.9355789060198" y="586" style="font-family:&quot;Lucida Grande&quot;, &quot;Lucida Sans Unicode&quot;, Verdana, Arial, Helvetica, sans-serif;font-size:11px;color:#666;cursor:default;line-height:14px;fill:#666;" text-anchor="middle" opacity="1"><tspan x="407.9355789060198">200</tspan></text><text x="492.3900618678189" y="586" style="font-family:&quot;Lucida Grande&quot;, &quot;Lucida Sans Unicode&quot;, Verdana, Arial, Helvetica, sans-serif;font-size:11px;color:#666;cursor:default;line-height:14px;fill:#666;" text-anchor="middle" opacity="1"><tspan x="492.3900618678189">250</tspan></text><text x="576.8445448296179" y="586" style="font-family:&quot;Lucida Grande&quot;, &quot;Lucida Sans Unicode&quot;, Verdana, Arial, Helvetica, sans-serif;font-size:11px;color:#666;cursor:default;line-height:14px;fill:#666;" text-anchor="middle" opacity="1"><tspan x="576.8445448296179">300</tspan></text><text x="661.2990277914171" y="586" style="font-family:&quot;Lucida Grande&quot;, &quot;Lucida Sans Unicode&quot;, Verdana, Arial, Helvetica, sans-serif;font-size:11px;color:#666;cursor:default;line-height:14px;fill:#666;" text-anchor="middle" opacity="1"><tspan x="661.2990277914171">350</tspan></text><text x="745.7535107532161" y="586" style="font-family:&quot;Lucida Grande&quot;, &quot;Lucida Sans Unicode&quot;, Verdana, Arial, Helvetica, sans-serif;font-size:11px;color:#666;cursor:default;line-height:14px;fill:#666;" text-anchor="middle" opacity="1"><tspan x="745.7535107532161">400</tspan></text><text x="830.2079937150152" y="586" style="font-family:&quot;Lucida Grande&quot;, &quot;Lucida Sans Unicode&quot;, Verdana, Arial, Helvetica, sans-serif;font-size:11px;color:#666;cursor:default;line-height:14px;fill:#666;" text-anchor="middle" opacity="1"><tspan x="830.2079937150152">450</tspan></text><text x="914.6624766768142" y="586" style="font-family:&quot;Lucida Grande&quot;, &quot;Lucida Sans Unicode&quot;, Verdana, Arial, Helvetica, sans-serif;font-size:11px;color:#666;cursor:default;line-height:14px;fill:#666;" text-anchor="middle" opacity="1"><tspan x="914.6624766768142">500</tspan></text><text x="999.1169596386134" y="586" style="font-family:&quot;Lucida Grande&quot;, &quot;Lucida Sans Unicode&quot;, Verdana, Arial, Helvetica, sans-serif;font-size:11px;color:#666;cursor:default;line-height:14px;fill:#666;" text-anchor="middle" opacity="1"><tspan x="999.1169596386134">550</tspan></text><text x="1083.5714426004124" y="586" style="font-family:&quot;Lucida Grande&quot;, &quot;Lucida Sans Unicode&quot;, Verdana, Arial, Helvetica, sans-serif;font-size:11px;color:#666;cursor:default;line-height:14px;fill:#666;" text-anchor="middle" opacity="1"><tspan x="1083.5714426004124">600</tspan></text></g><g class="highcharts-axis-labels" zIndex="7"><text x="52" y="578.115625" style="font-family:&quot;Lucida Grande&quot;, &quot;Lucida Sans Unicode&quot;, Verdana, Arial, Helvetica, sans-serif;font-size:11px;width:496px;color:#666;cursor:default;line-height:14px;fill:#666;" text-anchor="end" opacity="1"><tspan x="52">0</tspan></text><text x="52" y="507.865625" style="font-family:&quot;Lucida Grande&quot;, &quot;Lucida Sans Unicode&quot;, Verdana, Arial, Helvetica, sans-serif;font-size:11px;width:496px;color:#666;cursor:default;line-height:14px;fill:#666;" text-anchor="end" opacity="1"><tspan x="52">0.1</tspan></text><text x="52" y="437.615625" style="font-family:&quot;Lucida Grande&quot;, &quot;Lucida Sans Unicode&quot;, Verdana, Arial, Helvetica, sans-serif;font-size:11px;width:496px;color:#666;cursor:default;line-height:14px;fill:#666;" text-anchor="end" opacity="1"><tspan x="52">0.2</tspan></text><text x="52" y="367.365625" style="font-family:&quot;Lucida Grande&quot;, &quot;Lucida Sans Unicode&quot;, Verdana, Arial, Helvetica, sans-serif;font-size:11px;width:496px;color:#666;cursor:default;line-height:14px;fill:#666;" text-anchor="end" opacity="1"><tspan x="52">0.3</tspan></text><text x="52" y="297.115625" style="font-family:&quot;Lucida Grande&quot;, &quot;Lucida Sans Unicode&quot;, Verdana, Arial, Helvetica, sans-serif;font-size:11px;width:496px;color:#666;cursor:default;line-height:14px;fill:#666;" text-anchor="end" opacity="1"><tspan x="52">0.4</tspan></text><text x="52" y="226.865625" style="font-family:&quot;Lucida Grande&quot;, &quot;Lucida Sans Unicode&quot;, Verdana, Arial, Helvetica, sans-serif;font-size:11px;width:496px;color:#666;cursor:default;line-height:14px;fill:#666;" text-anchor="end" opacity="1"><tspan x="52">0.5</tspan></text><text x="52" y="156.615625" style="font-family:&quot;Lucida Grande&quot;, &quot;Lucida Sans Unicode&quot;, Verdana, Arial, Helvetica, sans-serif;font-size:11px;width:496px;color:#666;cursor:default;line-height:14px;fill:#666;" text-anchor="end" opacity="1"><tspan x="52">0.6</tspan></text><text x="52" y="86.36562500000005" style="font-family:&quot;Lucida Grande&quot;, &quot;Lucida Sans Unicode&quot;, Verdana, Arial, Helvetica, sans-serif;font-size:11px;width:496px;color:#666;cursor:default;line-height:14px;fill:#666;" text-anchor="end" opacity="1"><tspan x="52">0.7</tspan></text><text x="52" y="16.115625" style="font-family:&quot;Lucida Grande&quot;, &quot;Lucida Sans Unicode&quot;, Verdana, Arial, Helvetica, sans-serif;font-size:11px;width:496px;color:#666;cursor:default;line-height:14px;fill:#666;" text-anchor="end" opacity="1"><tspan x="52">0.8</tspan></text></g><g class="highcharts-tooltip" zIndex="8" style="cursor:default;padding:0;white-space:nowrap;" visibility="hidden" transform="translate(0,0)"><rect rx="3" ry="3" fill="none" x="0.5" y="0.5" width="16" height="16" fill-opacity="0.85" isShadow="true" stroke="black" stroke-opacity="0.049999999999999996" stroke-width="5" transform="translate(1, 1)"></rect><rect rx="3" ry="3" fill="none" x="0.5" y="0.5" width="16" height="16" fill-opacity="0.85" isShadow="true" stroke="black" stroke-opacity="0.09999999999999999" stroke-width="3" transform="translate(1, 1)"></rect><rect rx="3" ry="3" fill="none" x="0.5" y="0.5" width="16" height="16" fill-opacity="0.85" isShadow="true" stroke="black" stroke-opacity="0.15" stroke-width="1" transform="translate(1, 1)"></rect><rect rx="3" ry="3" fill="rgb(255,255,255)" x="0.5" y="0.5" width="16" height="16" fill-opacity="0.85"></rect><text x="8" y="21" style="font-family:&quot;Lucida Grande&quot;, &quot;Lucida Sans Unicode&quot;, Verdana, Arial, Helvetica, sans-serif;font-size:12px;color:#333333;fill:#333333;" zIndex="1"></text></g><text x="1092" y="595" style="font-family:&quot;Lucida Grande&quot;, &quot;Lucida Sans Unicode&quot;, Verdana, Arial, Helvetica, sans-serif;font-size:9px;cursor:pointer;color:#909090;fill:#909090;" text-anchor="end" zIndex="8"><tspan x="1092">Highcharts.com</tspan></text></svg>