<?xml version="1.0" encoding="UTF-8" standalone="no"?>
<svg width="1131px" height="404px" viewBox="0 0 1131 404" version="1.1" xmlns="http://www.w3.org/2000/svg" xmlns:xlink="http://www.w3.org/1999/xlink" xmlns:sketch="http://www.bohemiancoding.com/sketch/ns">
    <!-- Generator: Sketch 3.1.1 (8761) - http://www.bohemiancoding.com/sketch -->
    <title>Untitled 2</title>
    <desc>Created with Sketch.</desc>
    <defs>
        <rect id="path-1" x="0" y="0" width="1050" height="361"></rect>
    </defs>
    <g id="Page-1" stroke="none" stroke-width="1" fill="none" fill-rule="evenodd" sketch:type="MSPage">
        <g id="standBy" sketch:type="MSLayerGroup" transform="translate(1.000000, 1.000000)">
            <rect id="Rectangle-path" fill="#FFFFFF" sketch:type="MSShapeGroup" x="0" y="2" width="1120" height="400" rx="5"></rect>
            <g id="Group" transform="translate(60.000000, 13.000000)" stroke="#C0C0C0" sketch:type="MSShapeGroup">
                <path d="M0,301.5 L1050,301.5" id="Shape"></path>
                <path d="M0,240.5 L1050,240.5" id="Shape"></path>
                <path d="M0,180.5 L1050,180.5" id="Shape"></path>
                <path d="M0,120.5 L1050,120.5" id="Shape"></path>
                <path d="M0,59.5 L1050,59.5" id="Shape"></path>
                <path d="M0,-0.5 L1050,-0.5" id="Shape"></path>
                <path d="M0,360.5 L1050,360.5" id="Shape"></path>
            </g>
            <g id="Group" transform="translate(60.000000, 374.000000)" stroke="#C0D0E0" sketch:type="MSShapeGroup">
                <path d="M112.5,0 L112.5,5" id="Shape"></path>
                <path d="M215.5,0 L215.5,5" id="Shape"></path>
                <path d="M318.5,0 L318.5,5" id="Shape"></path>
                <path d="M421.5,0 L421.5,5" id="Shape"></path>
                <path d="M525.5,0 L525.5,5" id="Shape"></path>
                <path d="M628.5,0 L628.5,5" id="Shape"></path>
                <path d="M731.5,0 L731.5,5" id="Shape"></path>
                <path d="M834.5,0 L834.5,5" id="Shape"></path>
                <path d="M937.5,0 L937.5,5" id="Shape"></path>
                <path d="M1040.5,0 L1040.5,5" id="Shape"></path>
                <path d="M9.5,0 L9.5,5" id="Shape"></path>
                <path d="M0,-0.5 L1050,-0.5" id="Shape"></path>
            </g>
            <g id="Group" transform="translate(7.000000, 202.406250) rotate(270.000000) translate(-7.000000, -202.406250) translate(-21.000000, 195.406250)" font-size="12" font-family="Helvetica" fill="#4D759E" sketch:type="MSTextLayer" font-weight="normal">
                <text id="Amperage">
                    <tspan x="-0.40625" y="11" fill="#000000">Amperage</tspan>
                </text>
            </g>
            <g id="Group" transform="translate(0.000000, 2.000000)">
                <g id="Clipped">
                    <mask id="mask-2" sketch:name="Rectangle-path" fill="white">
                        <use xlink:href="#path-1"></use>
                    </mask>
                    <g id="Rectangle-path"></g>
                    <g id="Group" mask="url(#mask-2)" stroke="#2F7ED8" stroke-width="5" sketch:type="MSShapeGroup">
                        <g transform="translate(70.000000, 340.000000)" id="Shape">
                            <path d="M0.294117647,20.8 L0.809338751,20.8 L1.32455985,20.5 L1.83978096,20.5 L2.35500206,20.5 L2.87022316,20.5 L3.38544427,20.5 L3.90066537,20.5 L4.41588647,20.7 L4.93110758,20.7 L5.44632868,21 L5.96154979,21 L6.47677089,20.9 L6.99199199,20.9 L7.5072131,21.1 L8.0224342,20.5 L8.5376553,20.5 L9.05287641,20.9 L9.56809751,20.9 L10.0833186,19.6 L10.5985397,19.6 L11.1137608,21.3 L11.6289819,21.3 L12.144203,20.2 L12.6594241,20.2 L13.1746452,20.5 L13.6898663,20.5 L14.2050874,20.2 L14.7203085,20.2 L15.2355296,21.4 L15.7507508,21.4 L16.2659719,20.5 L16.781193,20.5 L17.2964141,20.5 L17.8116352,20.5 L18.3268563,20.6 L18.8420774,20.6 L19.3572985,21.1 L19.8725196,21.1 L20.3877407,21.3 L20.9029618,20.2 L21.4181829,20.2 L21.933404,20.7 L22.4486251,20.7 L22.9638462,20.2 L23.4790673,20.2 L23.9942884,20.9 L24.5095095,20.9 L25.0247306,20.4 L25.5399517,20.4 L26.0551728,20.8 L26.5703939,20.8 L27.085615,20.2 L27.6008361,20.2 L28.1160572,20.8 L28.6312783,20.8 L29.1464994,20.8 L29.6617205,20.8 L30.1769416,20.9 L30.6921628,20.9 L31.2073839,21 L31.722605,21 L32.2378261,20.6 L32.7530472,20.6 L33.2682683,20.9 L33.7834894,20.9 L34.2987105,20.5 L34.8139316,20.5 L35.3291527,20.5 L35.8443738,20.5 L36.3595949,21 L36.874816,20.5 L37.3900371,20.5 L37.9052582,20.5 L38.4204793,20.5 L38.9357004,20.4 L39.4509215,20.4 L39.9661426,21.2 L40.4813637,21.2 L40.9965848,21 L41.5118059,21 L42.027027,20.5 L42.5422481,20.5 L43.0574692,20.9 L43.5726903,20.9 L44.0879114,20.9 L44.6031325,20.9 L45.1183536,21.2 L45.6335748,21.2 L46.1487959,20.5 L46.664017,20.5 L47.1792381,21.1 L47.6944592,21.1 L48.2096803,20.9 L48.7249014,20.9 L49.2401225,20.5 L49.7553436,20.5 L50.2705647,20.5 L50.7857858,20.5 L51.3010069,20.5 L51.816228,21.3 L52.3314491,21.3 L52.8466702,20.5 L53.3618913,20.5 L53.8771124,21 L54.3923335,21 L54.9075546,21.5 L55.4227757,21.5 L55.9379968,20.8 L56.4532179,20.8 L56.968439,20.7 L57.4836601,20.7 L57.9988812,20.5 L58.5141023,20.5 L59.0293234,20.7 L59.5445445,20.7 L60.0597656,21 L60.5749868,21 L61.0902079,19.9 L61.605429,19.9 L62.1206501,21.5 L62.6358712,21.5 L63.1510923,20.1 L63.6663134,20.1 L64.1815345,20.8 L64.6967556,20.8 L65.2119767,20.6 L65.7271978,20.6 L66.2424189,20.8 L66.75764,20.8 L67.2728611,20.6 L67.7880822,20.6 L68.3033033,21.3 L68.8185244,21.3 L69.3337455,20.5 L69.8489666,20.5 L70.3641877,20.1 L70.8794088,20.1 L71.3946299,21.2 L71.909851,20.5 L72.4250721,20.5 L72.9402932,21 L73.4555143,21 L73.9707354,20.1 L74.4859565,20.1 L75.0011776,20.2 L75.5163988,20.2 L76.0316199,20.9 L76.546841,20.9 L77.0620621,21.3 L77.5772832,21.3 L78.0925043,20.8 L78.6077254,20.8 L79.1229465,21 L79.6381676,21 L80.1533887,20.1 L80.6686098,20.1 L81.1838309,21.9 L81.699052,21.9 L82.2142731,20.7 L82.7294942,20.7 L83.2447153,20.5 L83.7599364,20.5 L84.2751575,20.6 L84.7903786,20.6 L85.3055997,20.3 L85.8208208,21 L86.3360419,21 L86.851263,20.6 L87.3664841,20.6 L87.8817052,20.7 L88.3969263,20.7 L88.9121474,20.9 L89.4273685,20.9 L89.9425896,20.3 L90.4578108,20.3 L90.9730319,21.5 L91.488253,21.5 L92.0034741,20.2 L92.5186952,20.2 L93.0339163,21.5 L93.5491374,21.5 L94.0643585,20.9 L94.5795796,20.9 L95.0948007,20 L95.6100218,20 L96.1252429,20.3 L96.640464,21.2 L97.1556851,20.6 L97.6709062,20.6 L98.1861273,20.6 L98.7013484,20.6 L99.2165695,20.2 L99.7317906,20.2 L100.247012,20.8 L100.762233,20.8 L101.277454,20.9 L101.792675,20.9 L102.307896,20.9 L102.823117,20.3 L103.338338,20.3 L103.853559,20.4 L104.368781,20.4 L104.884002,21.7 L105.399223,21.7 L105.914444,20.6 L106.429665,20.6 L106.944886,20.9 L107.460107,20.9 L107.975328,19.5 L108.490549,19.5 L109.00577,20.9 L109.520992,20.9 L110.036213,21 L110.551434,21 L111.066655,20.6 L111.581876,20.6 L112.097097,20.5 L112.612318,20.5 L113.127539,20.5 L113.64276,20.5 L114.157982,20.5 L114.673203,20.5 L115.188424,20.8 L115.703645,20.8 L116.218866,21.3 L116.734087,21.3 L117.249308,20.4 L117.764529,20.4 L118.27975,20.8 L118.794971,20.8 L119.310193,20.7 L119.825414,20.7 L120.340635,20.5 L120.855856,20.5 L121.371077,20.9 L121.886298,20.1 L122.401519,21.1 L122.91674,20.3 L123.431961,20.3 L123.947182,20.5 L124.462404,20.5 L124.977625,20.5 L125.492846,20.5 L126.008067,21.1 L126.523288,21.1 L127.038509,20.4 L127.55373,20.4 L128.068951,21.4 L128.584172,21.4 L129.099394,19.8 L129.614615,19.8 L130.129836,21.9 L130.645057,21.9 L131.160278,20.9 L131.675499,20.9 L132.19072,20.2 L132.705941,20.2 L133.221162,20.7 L133.736383,20.7 L134.251605,20.6 L134.766826,20.6 L135.282047,20.9 L135.797268,20.9 L136.312489,20.5 L136.82771,20.5 L137.342931,20 L137.858152,20 L138.373373,20.6 L138.888594,20.6 L139.403816,21.1 L139.919037,21.1 L140.434258,20.7 L140.949479,20.7 L141.4647,20.8 L141.979921,20.8 L142.495142,20.2 L143.010363,20.2 L143.525584,17.1 L144.040806,17.1 L144.556027,16.8 L145.071248,16.8 L145.586469,15.9 L146.10169,15.9 L146.616911,15.2 L147.132132,15.6 L147.647353,15.6 L148.162574,16.4 L148.677795,16.4 L149.193017,19 L149.708238,19 L150.223459,20.8 L150.73868,20.8 L151.253901,19.8 L151.769122,19.8 L152.284343,22 L152.799564,22 L153.314785,20.6 L153.830006,20.6 L154.345228,21.1 L154.860449,21.1 L155.37567,20.6 L155.890891,20.6 L156.406112,20.8 L156.921333,20.8 L157.436554,20.5 L157.951775,20.5 L158.466996,20.9 L158.982218,20.9 L159.497439,20.5 L160.01266,20.5 L160.527881,21 L161.043102,21 L161.558323,19.8 L162.073544,19.8 L162.588765,20.9 L163.103986,20.9 L163.619207,20.5 L164.134429,20.5 L164.64965,20.8 L165.164871,20.8 L165.680092,20.5 L166.195313,20.6 L166.710534,20.6 L167.225755,21.4 L167.740976,21.4 L168.256197,20.7 L168.771418,20.7 L169.28664,20.4 L169.801861,20.4 L170.317082,20.9 L170.832303,20.9 L171.347524,20.8 L171.862745,20.8 L172.377966,20.4 L172.893187,20.4 L173.408408,21 L173.92363,21 L174.438851,20.6 L174.954072,20.6 L175.469293,20.9 L175.984514,20.9 L176.499735,21.6 L177.014956,21.6 L177.530177,21 L178.045398,21 L178.560619,20.7 L179.075841,20.7 L179.591062,20 L180.106283,20 L180.621504,21.2 L181.136725,21.2 L181.651946,20.5 L182.167167,20.5 L182.682388,20.9 L183.197609,20.9 L183.71283,19.9 L184.228052,19.9 L184.743273,20.2 L185.258494,20.2 L185.773715,21 L186.288936,21 L186.804157,20.5 L187.319378,20.5 L187.834599,21.1 L188.34982,21.1 L188.865042,19.5 L189.380263,19.5 L189.895484,21.4 L190.410705,21.4 L190.925926,20.8 L191.441147,20.8 L191.956368,20.9 L192.471589,20.9 L192.98681,20.4 L193.502031,20.4 L194.017253,20 L194.532474,20 L195.047695,21.2 L195.562916,21.2 L196.078137,20.5 L196.593358,20.5 L197.108579,20.8 L197.6238,20.6 L198.139021,20.6 L198.654242,21.5 L199.169464,21.5 L199.684685,20.9 L200.199906,20.9 L200.715127,20.5 L201.230348,20.5 L201.745569,20.9 L202.26079,20.9 L202.776011,20.8 L203.291232,20.8 L203.806454,20.6 L204.321675,20.6 L204.836896,20.9 L205.352117,20.9 L205.867338,20.3 L206.382559,20.3 L206.89778,20.5 L207.413001,20.5 L207.928222,20.5 L208.443443,21.1 L208.958665,21.1 L209.473886,21 L209.989107,21 L210.504328,20.2 L211.019549,20.2 L211.53477,20.9 L212.049991,20.9 L212.565212,21.8 L213.080433,21.8 L213.595654,20.8 L214.110876,20.8 L214.626097,19.9 L215.141318,19.9 L215.656539,20.5 L216.17176,20.5 L216.686981,20.9 L217.202202,20.9 L217.717423,20.4 L218.232644,20.4 L218.747866,21.2 L219.263087,21.2 L219.778308,20.2 L220.293529,20.2 L220.80875,20.2 L221.323971,20.2 L221.839192,21.3 L222.354413,21.3 L222.869634,20.5 L223.384855,20.5 L223.900077,21.2 L224.415298,21.2 L224.930519,20.5 L225.44574,20.5 L225.960961,21.2 L226.476182,21.2 L226.991403,20.5 L227.506624,20.8 L228.021845,20.8 L228.537066,20.7 L229.052288,20.7 L229.567509,20.9 L230.08273,20.9 L230.597951,20.5 L231.113172,20.5 L231.628393,19.7 L232.143614,19.7 L232.658835,21.7 L233.174056,21.7 L233.689278,20.5 L234.204499,20.5 L234.71972,20.9 L235.234941,20.9 L235.750162,20.5 L236.265383,20.5 L236.780604,20.5 L237.295825,20.5 L237.811046,20.9 L238.326267,20.9 L238.841489,21.2 L239.35671,21.2 L239.871931,19.8 L240.387152,19.8 L240.902373,20.5 L241.417594,20.5 L241.932815,21.2 L242.448036,21.2 L242.963257,20.2 L243.478478,20.2 L243.9937,20.6 L244.508921,20.6 L245.024142,20.5 L245.539363,20.5 L246.054584,20.1 L246.569805,20.1 L247.085026,21.5 L247.600247,21.5 L248.115468,20.7 L248.63069,20.7 L249.145911,21.2 L249.661132,21.2 L250.176353,21.1 L250.691574,21.1 L251.206795,21.1 L251.722016,21 L252.237237,21 L252.752458,20.3 L253.267679,20.3 L253.782901,20.6 L254.298122,20.6 L254.813343,20.6 L255.328564,20.6 L255.843785,20.6 L256.359006,20.6 L256.874227,21 L257.389448,21 L257.904669,20.2 L258.41989,20.2 L258.935112,20.9 L259.450333,20.9 L259.965554,21 L260.480775,21 L260.995996,20.1 L261.511217,20.1 L262.026438,21.2 L262.541659,21.2 L263.05688,21.1 L263.572102,21.1 L264.087323,20.8 L264.602544,20.8 L265.117765,20.5 L265.632986,20.5 L266.148207,20.4 L266.663428,20.4 L267.178649,21 L267.69387,20.7 L268.209091,20.7 L268.724313,20.9 L269.239534,20.9 L269.754755,20.2 L270.269976,20.2 L270.785197,20.7 L271.300418,20.7 L271.815639,20.8 L272.33086,20.8 L272.846081,20.8 L273.361302,20.9 L273.876524,20.5 L274.391745,20.5 L274.906966,21.2 L275.422187,21.2 L275.937408,20.9 L276.452629,20.9 L276.96785,20.9 L277.483071,20.9 L277.998292,20.6 L278.513514,20.6 L279.028735,20.1 L279.543956,20.1 L280.059177,20.9 L280.574398,20.9 L281.089619,21 L281.60484,21 L282.120061,19.8 L282.635282,20.7 L283.150503,20.7 L283.665725,20.5 L284.180946,20.5 L284.696167,21.3 L285.211388,21.3 L285.726609,20.5 L286.24183,20.5 L286.757051,21.2 L287.272272,21.2 L287.787493,20 L288.302714,20 L288.817936,21.7 L289.333157,21.7 L289.848378,20.4 L290.363599,20.4 L290.87882,20.4 L291.394041,20.4 L291.909262,21.4 L292.424483,21.4 L292.939704,19.4 L293.454926,19.4 L293.970147,17.8 L294.485368,17.8 L295.000589,15.2 L295.51581,15.2 L296.031031,17.7 L296.546252,17.7 L297.061473,21.1 L297.576694,21.1 L298.091915,20.5 L298.607137,20.6 L299.122358,21.2 L299.637579,21.2 L300.1528,20.8 L300.668021,20.8 L301.183242,21 L301.698463,20.5 L302.213684,20.5 L302.728905,20 L303.244126,20 L303.759348,21.3 L304.274569,21.3 L304.78979,20.7 L305.305011,20.7 L305.820232,20.5 L306.335453,20.5 L306.850674,19.8 L307.365895,19.8 L307.881116,20.6 L308.396338,20.6 L308.911559,21.1 L309.42678,21.1 L309.942001,21.1 L310.457222,21.1 L310.972443,20.5 L311.487664,20.5 L312.002885,20.3 L312.518106,20.3 L313.033327,20.9 L313.548549,20.9 L314.06377,21 L314.578991,21 L315.094212,20.1 L315.609433,20.1 L316.124654,20.7 L316.639875,20.7 L317.155096,20.3 L317.670317,20.3 L318.185538,21 L318.70076,21 L319.215981,20.4 L319.731202,20.4 L320.246423,20.9 L320.761644,20.9 L321.276865,20.6 L321.792086,20.6 L322.307307,20.8 L322.822528,20.8 L323.33775,21 L323.852971,21.1 L324.368192,20.5 L324.883413,20.5 L325.398634,20.1 L325.913855,20.1 L326.429076,21.2 L326.944297,21.2 L327.459518,19.9 L327.974739,19.9 L328.489961,21.2 L329.005182,20.2 L329.520403,20.2 L330.035624,20.7 L330.550845,20.7 L331.066066,20.5 L331.581287,20.5 L332.096508,20.5 L332.611729,20.5 L333.12695,20.8 L333.642172,20.8 L334.157393,20.5 L334.672614,20.5 L335.187835,20.5 L335.703056,20.5 L336.218277,20.9 L336.733498,20.9 L337.248719,20.4 L337.76394,20.4 L338.279162,20.2 L338.794383,20.2 L339.309604,20.6 L339.824825,20.6 L340.340046,20.5 L340.855267,20.5 L341.370488,21.2 L341.885709,21.2 L342.40093,20.2 L342.916151,20.2 L343.431373,20.3 L343.946594,20.3 L344.461815,20.7 L344.977036,20.7 L345.492257,20.5 L346.007478,20.5 L346.522699,21.1 L347.03792,21.1 L347.553141,20.3 L348.068362,20.3 L348.583584,21.4 L349.098805,20.2 L349.614026,21 L350.129247,21 L350.644468,20.6 L351.159689,20.6 L351.67491,20.6 L352.190131,20.6 L352.705352,20.5 L353.220574,20.5 L353.735795,20.4 L354.251016,20.4 L354.766237,21.1 L355.281458,21.1 L355.796679,20.6 L356.3119,20.6 L356.827121,20.5 L357.342342,20.5 L357.857563,20.2 L358.372785,20.2 L358.888006,22 L359.403227,22 L359.918448,20.2 L360.433669,20.2 L360.94889,21.2 L361.464111,21.2 L361.979332,19.7 L362.494553,19.7 L363.009774,20.5 L363.524996,20.5 L364.040217,20.9 L364.555438,20.9 L365.070659,21.1 L365.58588,21.1 L366.101101,20 L366.616322,20 L367.131543,21.1 L367.646764,21.1 L368.161986,20.3 L368.677207,20.3 L369.192428,21.2 L369.707649,21.2 L370.22287,21.1 L370.738091,21.1 L371.253312,20.7 L371.768533,20.7 L372.283754,20.3 L372.798975,21.3 L373.314197,21.3 L373.829418,21 L374.344639,20.1 L374.85986,20.1 L375.375081,21.6 L375.890302,21.6 L376.405523,20.2 L376.920744,20.2 L377.435965,20.3 L377.951186,20.3 L378.466408,21.2 L378.981629,21.2 L379.49685,20.6 L380.012071,20.6 L380.527292,20.9 L381.042513,20.9 L381.557734,21.4 L382.072955,21.4 L382.588176,20.4 L383.103398,20.4 L383.618619,20.9 L384.13384,20.9 L384.649061,20.5 L385.164282,20.5 L385.679503,20.5 L386.194724,20.5 L386.709945,20.7 L387.225166,20.8 L387.740387,20.8 L388.255609,21 L388.77083,21 L389.286051,20.1 L389.801272,20.1 L390.316493,20.2 L390.831714,20.2 L391.346935,21.6 L391.862156,21.6 L392.377377,20.8 L392.892598,20.8 L393.40782,20.9 L393.923041,20.9 L394.438262,20.5 L394.953483,20.5 L395.468704,20 L395.983925,20 L396.499146,21.8 L397.014367,21.8 L397.529588,20.3 L398.04481,20.3 L398.560031,20.2 L399.075252,20.2 L399.590473,20.5 L400.105694,20.5 L400.620915,20.5 L401.136136,20.5 L401.651357,21 L402.166578,21 L402.681799,20.2 L403.197021,20.2 L403.712242,20.8 L404.227463,20.8 L404.742684,20.6 L405.257905,20.6 L405.773126,21.6 L406.288347,20.4 L406.803568,20.4 L407.318789,21.9 L407.83401,21.9 L408.349232,19.8 L408.864453,19.8 L409.379674,20.9 L409.894895,20.9 L410.410116,21 L410.925337,21 L411.440558,19.7 L411.955779,19.7 L412.471,21.7 L412.986222,21.7 L413.501443,20 L414.016664,20 L414.531885,16.1 L415.047106,16.1 L415.562327,14 L416.077548,14 L416.592769,14 L417.10799,14 L417.623211,19.8 L418.138433,19.8 L418.653654,20.6 L419.168875,20.6 L419.684096,20.9 L420.199317,20.9 L420.714538,21.1 L421.229759,21.1 L421.74498,21 L422.260201,21 L422.775422,20.5 L423.290644,20.5 L423.805865,20.1 L424.321086,20.1 L424.836307,20.6 L425.351528,20.6 L425.866749,20.4 L426.38197,20.4 L426.897191,21 L427.412412,21 L427.927634,20.4 L428.442855,20.4 L428.958076,21.5 L429.473297,21.5 L429.988518,20.7 L430.503739,20.7 L431.01896,20.6 L431.534181,20.6 L432.049402,20.8 L432.564623,20.8 L433.079845,20.8 L433.595066,20.8 L434.110287,20.1 L434.625508,20.1 L435.140729,21.2 L435.65595,21.2 L436.171171,20.3 L436.686392,20.3 L437.201613,20.3 L437.716834,20.3 L438.232056,20.5 L438.747277,20.5 L439.262498,21 L439.777719,21 L440.29294,20.5 L440.808161,20.5 L441.323382,20.4 L441.838603,16.5 L442.353824,16.5 L442.869046,17.3 L443.384267,17.3 L443.899488,17.8 L444.414709,17.8 L444.92993,19.9 L445.445151,19.9 L445.960372,20.4 L446.475593,20.4 L446.990814,21 L447.506035,21 L448.021257,20.5 L448.536478,20.5 L449.051699,20.1 L449.56692,20.1 L450.082141,20.5 L450.597362,21.2 L451.112583,21.2 L451.627804,20.2 L452.143025,20.2 L452.658246,21.4 L453.173468,21.4 L453.688689,20.7 L454.20391,20.7 L454.719131,20.5 L455.234352,20.5 L455.749573,20.6 L456.264794,20.6 L456.780015,20.5 L457.295236,20.5 L457.810458,20.2 L458.325679,20.2 L458.8409,20.8 L459.356121,20.8 L459.871342,20.3 L460.386563,20.3 L460.901784,20.1 L461.417005,20.1 L461.932226,21 L462.447447,21 L462.962669,20.8 L463.47789,20.8 L463.993111,21.4 L464.508332,21.4 L465.023553,20.2 L465.538774,20.2 L466.053995,21.2 L466.569216,21.2 L467.084437,20.5 L467.599658,20.5 L468.11488,21.9 L468.630101,21.9 L469.145322,20.9 L469.660543,20.9 L470.175764,20.5 L470.690985,20.5 L471.206206,19.8 L471.721427,19.8 L472.236648,21.6 L472.75187,21.6 L473.267091,20.5 L473.782312,20.5 L474.297533,20.2 L474.812754,20.2 L475.327975,20.9 L475.843196,20.5 L476.358417,20.5 L476.873638,20.9 L477.388859,20.9 L477.904081,20.8 L478.419302,20.8 L478.934523,20.9 L479.449744,20.9 L479.964965,20.9 L480.480186,20.6 L480.995407,20.6 L481.510628,20.5 L482.025849,20.5 L482.54107,20.8 L483.056292,20.8 L483.571513,20.5 L484.086734,20.5 L484.601955,21 L485.117176,21 L485.632397,20.4 L486.147618,20.4 L486.662839,20.6 L487.17806,20.6 L487.693282,21.1 L488.208503,21.1 L488.723724,21.2 L489.238945,21.2 L489.754166,20.4 L490.269387,20.4 L490.784608,21.2 L491.299829,21.2 L491.81505,20.9 L492.330271,20.9 L492.845493,20.8 L493.360714,20.8 L493.875935,20 L494.391156,20 L494.906377,20.5 L495.421598,20.5 L495.936819,21.1 L496.45204,21.1 L496.967261,20.8 L497.482482,20.8 L497.997704,20.5 L498.512925,20.5 L499.028146,19.8 L499.543367,19.8 L500.058588,21.6 L500.573809,20.6 L501.08903,20.6 L501.604251,20.6 L502.119472,20.5 L502.634694,20.5 L503.149915,21.2 L503.665136,21.2 L504.180357,20.6 L504.695578,20.6 L505.210799,20.2 L505.72602,20.2 L506.241241,20.5 L506.756462,20.9 L507.271683,20.9 L507.786905,20.7 L508.302126,20.7 L508.817347,20.5 L509.332568,20.5 L509.847789,20.8 L510.36301,20.8 L510.878231,20.3 L511.393452,20.3 L511.908673,21.1 L512.423894,21.1 L512.939116,20.9 L513.454337,20.9 L513.969558,20.9 L514.484779,20.9 L515,20.9 L515.515221,20.9 L516.030442,20.5 L516.545663,20.5 L517.060884,20.5 L517.576106,20.5 L518.091327,21.1 L518.606548,21.1 L519.121769,20.4 L519.63699,20.4 L520.152211,20.9 L520.667432,20.9 L521.182653,20.5 L521.697874,20.5 L522.213095,20.5 L522.728317,20.5 L523.243538,20.6 L523.758759,20.6 L524.27398,20.7 L524.789201,20.7 L525.304422,21.4 L525.819643,19.8 L526.334864,21 L526.850085,20.9 L527.365306,20.9 L527.880528,20.7 L528.395749,20.7 L528.91097,20.9 L529.426191,20.9 L529.941412,19.8 L530.456633,19.8 L530.971854,21 L531.487075,21 L532.002296,21 L532.517518,21 L533.032739,20.9 L533.54796,20.9 L534.063181,19.9 L534.578402,19.9 L535.093623,21.3 L535.608844,21.3 L536.124065,20.4 L536.639286,20.4 L537.154507,20.9 L537.669729,20.9 L538.18495,20.9 L538.700171,20.9 L539.215392,20.6 L539.730613,20.6 L540.245834,21.2 L540.761055,21.2 L541.276276,20.9 L541.791497,20.9 L542.306718,20.5 L542.82194,20.5 L543.337161,20.9 L543.852382,20.9 L544.367603,20.4 L544.882824,20.4 L545.398045,21.2 L545.913266,21.2 L546.428487,20.5 L546.943708,20.5 L547.45893,20.6 L547.974151,20.6 L548.489372,21 L549.004593,21 L549.519814,20.5 L550.035035,20.5 L550.550256,20.7 L551.065477,20.5 L551.580698,20.8 L552.095919,20.8 L552.611141,20.5 L553.126362,20.5 L553.641583,20.2 L554.156804,20.2 L554.672025,20.9 L555.187246,20.9 L555.702467,21 L556.217688,21 L556.732909,20.3 L557.24813,20.3 L557.763352,20.5 L558.278573,20.7 L558.793794,20.7 L559.309015,20.9 L559.824236,20.9 L560.339457,21.2 L560.854678,21.2 L561.369899,20.7 L561.88512,20.7 L562.400342,20.6 L562.915563,20.6 L563.430784,20.5 L563.946005,20.5 L564.461226,21.4 L564.976447,21.4 L565.491668,20.5 L566.006889,20.5 L566.52211,20.2 L567.037331,20.2 L567.552553,20.1 L568.067774,20.1 L568.582995,21.3 L569.098216,21.3 L569.613437,20.7 L570.128658,20.7 L570.643879,20.5 L571.1591,20.6 L571.674321,20.6 L572.189542,20.1 L572.704764,20.1 L573.219985,21.1 L573.735206,21.1 L574.250427,21.2 L574.765648,21.2 L575.280869,21 L575.79609,21 L576.311311,21.7 L576.826532,21.7 L577.341754,20.4 L577.856975,20.4 L578.372196,20.5 L578.887417,20.5 L579.402638,20.9 L579.917859,20.9 L580.43308,20.9 L580.948301,20.9 L581.463522,20.2 L581.978743,20.2 L582.493965,20.5 L583.009186,20.5 L583.524407,20.5 L584.039628,20.5 L584.554849,21.2 L585.07007,21.2 L585.585291,20.8 L586.100512,20.8 L586.615733,20.8 L587.130954,20.8 L587.646176,20.5 L588.161397,20.5 L588.676618,21.7 L589.191839,21.7 L589.70706,20.6 L590.222281,20.6 L590.737502,20.5 L591.252723,20.5 L591.767944,19.3 L592.283166,16.2 L592.798387,16.2 L593.313608,16.7 L593.828829,16.7 L594.34405,18.2 L594.859271,18.2 L595.374492,20.1 L595.889713,20.1 L596.404934,20.9 L596.920155,20.9 L597.435377,20.5 L597.950598,20.5 L598.465819,21.3 L598.98104,21.3 L599.496261,20.3 L600.011482,20.3 L600.526703,21.1 L601.041924,21.1 L601.557145,20.3 L602.072366,20.3 L602.587588,20.8 L603.102809,20.8 L603.61803,20 L604.133251,20 L604.648472,21.2 L605.163693,21.2 L605.678914,20.2 L606.194135,20.2 L606.709356,20.6 L607.224578,20.6 L607.739799,20.7 L608.25502,20.6 L608.770241,20.6 L609.285462,21.4 L609.800683,21.4 L610.315904,20.9 L610.831125,20.9 L611.346346,21.1 L611.861567,21.1 L612.376789,20.7 L612.89201,20.7 L613.407231,21.1 L613.922452,21.1 L614.437673,21 L614.952894,21 L615.468115,20 L615.983336,20 L616.498557,20.5 L617.013778,20.5 L617.529,20.6 L618.044221,20.6 L618.559442,21.1 L619.074663,21.1 L619.589884,20.5 L620.105105,20.5 L620.620326,19.7 L621.135547,19.7 L621.650768,20.5 L622.16599,20.5 L622.681211,21.2 L623.196432,21.2 L623.711653,21 L624.226874,21 L624.742095,20.1 L625.257316,20.1 L625.772537,20.9 L626.287758,20.9 L626.802979,20.5 L627.318201,21.2 L627.833422,21.2 L628.348643,20.8 L628.863864,20.8 L629.379085,20.5 L629.894306,20.5 L630.409527,21.1 L630.924748,21.1 L631.439969,20.7 L631.95519,20.7 L632.470412,21.2 L632.985633,21.2 L633.500854,20.9 L634.016075,20.9 L634.531296,20.8 L635.046517,20.8 L635.561738,20.6 L636.076959,20.6 L636.59218,20.7 L637.107402,20.7 L637.622623,20.1 L638.137844,20.1 L638.653065,20.9 L639.168286,20.9 L639.683507,20.5 L640.198728,20.5 L640.713949,20.7 L641.22917,20.7 L641.744391,20.5 L642.259613,20.5 L642.774834,19.8 L643.290055,19.8 L643.805276,21.6 L644.320497,21.6 L644.835718,20.9 L645.350939,20.9 L645.86616,20.9 L646.381381,20.9 L646.896602,20.6 L647.411824,20.6 L647.927045,20.2 L648.442266,20.2 L648.957487,21.4 L649.472708,21.4 L649.987929,20.9 L650.50315,20.2 L651.018371,20.2 L651.533592,20.5 L652.048814,20.2 L652.564035,20.2 L653.079256,20.8 L653.594477,20.8 L654.109698,20.9 L654.624919,20.9 L655.14014,20.9 L655.655361,20.9 L656.170582,20.8 L656.685803,20.8 L657.201025,20.7 L657.716246,20.7 L658.231467,20.5 L658.746688,20.5 L659.261909,21.1 L659.77713,21.1 L660.292351,21.3 L660.807572,21.3 L661.322793,20.2 L661.838014,20.2 L662.353236,20.9 L662.868457,20.9 L663.383678,20.3 L663.898899,20.3 L664.41412,21 L664.929341,21 L665.444562,20.2 L665.959783,20.2 L666.475004,20.9 L666.990226,20.9 L667.505447,20.3 L668.020668,20.3 L668.535889,21.3 L669.05111,21.3 L669.566331,20.9 L670.081552,20.9 L670.596773,20.5 L671.111994,20.5 L671.627215,20.8 L672.142437,20.8 L672.657658,20.9 L673.172879,20.9 L673.6881,20.9 L674.203321,20.1 L674.718542,20.1 L675.233763,20.9 L675.748984,20.9 L676.264205,21 L676.779426,21 L677.294648,20.5 L677.809869,20.5 L678.32509,21.5 L678.840311,21.5 L679.355532,21 L679.870753,21 L680.385974,20.7 L680.901195,20.7 L681.416416,20.6 L681.931638,20.6 L682.446859,20.7 L682.96208,20.7 L683.477301,20.8 L683.992522,20.8 L684.507743,20.6 L685.022964,20.6 L685.538185,20.3 L686.053406,20.3 L686.568627,20.5 L687.083849,20.5 L687.59907,20.8 L688.114291,20.8 L688.629512,20.5 L689.144733,20.5 L689.659954,20.9 L690.175175,20.9 L690.690396,20.3 L691.205617,21.1 L691.720838,21.1 L692.23606,21 L692.751281,21 L693.266502,20.6 L693.781723,20.6 L694.296944,20.6 L694.812165,20.6 L695.327386,20.7 L695.842607,20.7 L696.357828,20.4 L696.87305,20.4 L697.388271,20.7 L697.903492,20.7 L698.418713,20.2 L698.933934,20.2 L699.449155,21.5 L699.964376,21.5 L700.479597,20.7 L700.994818,20.7 L701.510039,19.8 L702.025261,19.8 L702.540482,21.5 L703.055703,21.5 L703.570924,20.5 L704.086145,20.5 L704.601366,22 L705.116587,22 L705.631808,20.1 L706.147029,20.1 L706.66225,20.4 L707.177472,20.4 L707.692693,20.9 L708.207914,20.9 L708.723135,20.6 L709.238356,20.6 L709.753577,20.9 L710.268798,19.8 L710.784019,19.8 L711.29924,21.5 L711.814462,21.5 L712.329683,20.7 L712.844904,20.7 L713.360125,20.4 L713.875346,20.4 L714.390567,20.5 L714.905788,20.5 L715.421009,20.7 L715.93623,20.7 L716.451451,20.9 L716.966673,20.9 L717.481894,21.3 L717.997115,21.3 L718.512336,20.7 L719.027557,20.7 L719.542778,20.3 L720.057999,20.3 L720.57322,20.2 L721.088441,20.2 L721.603662,20.9 L722.118884,20.9 L722.634105,20.6 L723.149326,20.6 L723.664547,20.5 L724.179768,20.5 L724.694989,20.6 L725.21021,20.6 L725.725431,20.4 L726.240652,20.4 L726.755874,20.9 L727.271095,20.9 L727.786316,20.5 L728.301537,20.5 L728.816758,21.1 L729.331979,21.1 L729.8472,20.8 L730.362421,20.8 L730.877642,20.5 L731.392863,20.5 L731.908085,20.8 L732.423306,20.8 L732.938527,20.4 L733.453748,20.4 L733.968969,20.5 L734.48419,20.5 L734.999411,20.5 L735.514632,20.5 L736.029853,21.2 L736.545074,21.2 L737.060296,20.5 L737.575517,20.5 L738.090738,18.3 L738.605959,18.3 L739.12118,17.9 L739.636401,17.9 L740.151622,16.3 L740.666843,16.3 L741.182064,18.6 L741.697286,18.6 L742.212507,20.4 L742.727728,20.4 L743.242949,20.8 L743.75817,20.8 L744.273391,20.5 L744.788612,20.5 L745.303833,20.4 L745.819054,20.4 L746.334275,20.3 L746.849497,21.6 L747.364718,21.6 L747.879939,20.2 L748.39516,20.2 L748.910381,20.5 L749.425602,20.5 L749.940823,20.9 L750.456044,20.9 L750.971265,20.5 L751.486486,20.5 L752.001708,21.4 L752.516929,21.4 L753.03215,21.2 L753.547371,21.2 L754.062592,20.5 L754.577813,20.5 L755.093034,20.6 L755.608255,20.6 L756.123476,21.2 L756.638698,21.2 L757.153919,20.2 L757.66914,20.2 L758.184361,20.2 L758.699582,20.2 L759.214803,21.2 L759.730024,21.2 L760.245245,20.5 L760.760466,20.4 L761.275687,20.4 L761.790909,20.5 L762.30613,20.5 L762.821351,20.6 L763.336572,20.6 L763.851793,21.4 L764.367014,21.4 L764.882235,21 L765.397456,21 L765.912677,21.2 L766.427898,21.2 L766.94312,19.8 L767.458341,19.8 L767.973562,20.5 L768.488783,20.5 L769.004004,21.1 L769.519225,21.1 L770.034446,20.9 L770.549667,20.9 L771.064888,20.5 L771.58011,20.5 L772.095331,19.4 L772.610552,19.4 L773.125773,21.8 L773.640994,21.8 L774.156215,20.5 L774.671436,20.5 L775.186657,20.3 L775.701878,20.3 L776.217099,21.3 L776.732321,21.3 L777.247542,20.5 L777.762763,20.5 L778.277984,20.8 L778.793205,20.8 L779.308426,20.8 L779.823647,20.5 L780.338868,20.5 L780.854089,20.9 L781.36931,20.9 L781.884532,20.4 L782.399753,20.4 L782.914974,21 L783.430195,21 L783.945416,20.2 L784.460637,20.2 L784.975858,20.9 L785.491079,20.9 L786.0063,20.5 L786.521522,20.5 L787.036743,20.5 L787.551964,20.5 L788.067185,20.5 L788.582406,20.5 L789.097627,21 L789.612848,21 L790.128069,21.1 L790.64329,21.1 L791.158511,20.8 L791.673733,20.8 L792.188954,20.1 L792.704175,20.1 L793.219396,20.7 L793.734617,20.7 L794.249838,20.9 L794.765059,20.9 L795.28028,20.6 L795.795501,20.6 L796.310722,20.5 L796.825944,20.5 L797.341165,20.4 L797.856386,20.4 L798.371607,21.2 L798.886828,21.2 L799.402049,20.9 L799.91727,20.9 L800.432491,20.5 L800.947712,20.5 L801.462934,20.8 L801.978155,20.8 L802.493376,21.2 L803.008597,21.2 L803.523818,20.7 L804.039039,20.2 L804.55426,21.2 L805.069481,21.2 L805.584702,20.2 L806.099923,20.2 L806.615145,20.6 L807.130366,20.6 L807.645587,20.2 L808.160808,20.2 L808.676029,20.3 L809.19125,20.3 L809.706471,21.2 L810.221692,21.2 L810.736913,20.2 L811.252134,20.2 L811.767356,20.9 L812.282577,20.9 L812.797798,21.2 L813.313019,21.2 L813.82824,20.5 L814.343461,20.5 L814.858682,20.7 L815.373903,20.7 L815.889124,20.6 L816.404346,20.6 L816.919567,20.7 L817.434788,20.7 L817.950009,20.5 L818.46523,20.9 L818.980451,20.9 L819.495672,20 L820.010893,20 L820.526114,20.9 L821.041335,20.9 L821.556557,21 L822.071778,21 L822.586999,20.7 L823.10222,20.7 L823.617441,20.5 L824.132662,20.5 L824.647883,20.5 L825.163104,20.5 L825.678325,22.2 L826.193546,22.2 L826.708768,21 L827.223989,21 L827.73921,20.5 L828.254431,20.5 L828.769652,20.3 L829.284873,20.3 L829.800094,20.6 L830.315315,20.6 L830.830536,20 L831.345758,20 L831.860979,21.3 L832.3762,21.3 L832.891421,20.5 L833.406642,20.5 L833.921863,19.8 L834.437084,19.8 L834.952305,21 L835.467526,21 L835.982747,20.8 L836.497969,20.8 L837.01319,20.9 L837.528411,20.9 L838.043632,20.6 L838.558853,20.6 L839.074074,20.5 L839.589295,20.5 L840.104516,20.2 L840.619737,20.2 L841.134958,21.2 L841.65018,21.2 L842.165401,20.4 L842.680622,20.4 L843.195843,20.6 L843.711064,20.6 L844.226285,20.3 L844.741506,20.3 L845.256727,21.5 L845.771948,21.5 L846.28717,20 L846.802391,20 L847.317612,21.4 L847.832833,21.4 L848.348054,20.3 L848.863275,20.3 L849.378496,21.4 L849.893717,21.4 L850.408938,21.1 L850.924159,21.1 L851.439381,20.4 L851.954602,20.4 L852.469823,21.1 L852.985044,21.1 L853.500265,20.3 L854.015486,20.5 L854.530707,20.3 L855.045928,20.3 L855.561149,21 L856.07637,21 L856.591592,20.8 L857.106813,20.8 L857.622034,20.8 L858.137255,20.8 L858.652476,19.9 L859.167697,19.9 L859.682918,21.2 L860.198139,21.2 L860.71336,21.1 L861.228582,21.1 L861.743803,20.3 L862.259024,20.3 L862.774245,20.3 L863.289466,20.3 L863.804687,20.5 L864.319908,20.5 L864.835129,21.3 L865.35035,21.3 L865.865571,20.1 L866.380793,20.1 L866.896014,21 L867.411235,20 L867.926456,20 L868.441677,20.9 L868.956898,20.9 L869.472119,21.2 L869.98734,21.2 L870.502561,20.7 L871.017782,20.7 L871.533004,20.6 L872.048225,20.6 L872.563446,21.1 L873.078667,21.1 L873.593888,20.6 L874.109109,20.6 L874.62433,21.2 L875.139551,21.2 L875.654772,20.2 L876.169994,20.2 L876.685215,21 L877.200436,21 L877.715657,20.5 L878.230878,20.5 L878.746099,20.9 L879.26132,20.5 L879.776541,20.2 L880.291762,20.2 L880.806983,20.2 L881.322205,20.2 L881.837426,-0.1 L882.352647,-0.1 L882.867868,9.4 L883.383089,9.4 L883.89831,21.2 L884.413531,21.2 L884.928752,20.5 L885.443973,20.5 L885.959194,17.4 L886.474416,17.4 L886.989637,14.3 L887.504858,14.3 L888.020079,11.5 L888.5353,15.1 L889.050521,15.1 L889.565742,17.2 L890.080963,17.2 L890.596184,18.1 L891.111406,18.1 L891.626627,20.7 L892.141848,20.7 L892.657069,20.5 L893.17229,20.5 L893.687511,20.9 L894.202732,20.9 L894.717953,20.8 L895.233174,20.8 L895.748395,21 L896.263617,21 L896.778838,20.3 L897.294059,20.3 L897.80928,21.3 L898.324501,21.3 L898.839722,21 L899.354943,21 L899.870164,20 L900.385385,20 L900.900606,21.6 L901.415828,21.6 L901.931049,20.5 L902.44627,20.5 L902.961491,20.6 L903.476712,20.6 L903.991933,20.5 L904.507154,20.6 L905.022375,20.9 L905.537596,20.9 L906.052818,20.3 L906.568039,20.3 L907.08326,21.7 L907.598481,21.7 L908.113702,20.2 L908.628923,20.2 L909.144144,21 L909.659365,21 L910.174586,20.3 L910.689807,20.3 L911.205029,20.2 L911.72025,20.2 L912.235471,21 L912.750692,21 L913.265913,20.9 L913.781134,20.9 L914.296355,20.6 L914.811576,20.6 L915.326797,19.9 L915.842018,19.9 L916.35724,21.2 L916.872461,21.2 L917.387682,20.9 L917.902903,20.9 L918.418124,20.9 L918.933345,20.9 L919.448566,20.5 L919.963787,20.9 L920.479008,20.9 L920.99423,21.6 L921.509451,21.6 L922.024672,20.3 L922.539893,20.3 L923.055114,20.6 L923.570335,20.6 L924.085556,21.3 L924.600777,21.3 L925.115998,20 L925.631219,20 L926.146441,21.5 L926.661662,21.5 L927.176883,20.3 L927.692104,20.3 L928.207325,20.5 L928.722546,20.5 L929.237767,20.7 L929.752988,20.5 L930.268209,20.6 L930.78343,20.6 L931.298652,20.7 L931.813873,20.7 L932.329094,21.6 L932.844315,20.9 L933.359536,20.9 L933.874757,20.6 L934.389978,20.6 L934.905199,20.5 L935.42042,20.5 L935.935642,20.5 L936.450863,20.5 L936.966084,20.8 L937.481305,20.8 L937.996526,20.9 L938.511747,20.9 L939.026968,19.7 L939.542189,19.7 L940.05741,20.4 L940.572631,20.4 L941.087853,21.5 L941.603074,21.5 L942.118295,20.6 L942.633516,20.6 L943.148737,20.7 L943.663958,20.7 L944.179179,20.5 L944.6944,20.5 L945.209621,21.4 L945.724842,21.4 L946.240064,20.9 L946.755285,20.9 L947.270506,20.9 L947.785727,20.9 L948.300948,20.5 L948.816169,20.5 L949.33139,20.2 L949.846611,20.2 L950.361832,21.2 L950.877054,21.2 L951.392275,20.5 L951.907496,20.5 L952.422717,20.6 L952.937938,20.6 L953.453159,20.7 L953.96838,20.7 L954.483601,19.8 L954.998822,21.2 L955.514043,20.7 L956.029265,21 L956.544486,21 L957.059707,20.9 L957.574928,20.9 L958.090149,20.7 L958.60537,20.7 L959.120591,21 L959.635812,21 L960.151033,20 L960.666254,20 L961.181476,21.2 L961.696697,21.2 L962.211918,20.5 L962.727139,20.5 L963.24236,20.5 L963.757581,20.5 L964.272802,20.2 L964.788023,20.2 L965.303244,20.8 L965.818466,20.8 L966.333687,20.5 L966.848908,20.5 L967.364129,20.9 L967.87935,20.9 L968.394571,20.6 L968.909792,20.6 L969.425013,20.5 L969.940234,20.5 L970.455455,21.6 L970.970677,21.6 L971.485898,20.8 L972.001119,20.8 L972.51634,20.7 L973.031561,20.7 L973.546782,20.5 L974.062003,20.5 L974.577224,19.8 L975.092445,19.8 L975.607666,21.6 L976.122888,21.6 L976.638109,20.5 L977.15333,20.5 L977.668551,20.5 L978.183772,20.9 L978.698993,20.9 L979.214214,20.2 L979.729435,20.2 L980.244656,21 L980.759878,21 L981.275099,21 L981.79032,19.8 L982.305541,19.8 L982.820762,21.3 L983.335983,21.3 L983.851204,20.5 L984.366425,20.5 L984.881646,20.4 L985.396867,20.4 L985.912089,20.1 L986.42731,20.1 L986.942531,21.2 L987.457752,21.2 L987.972973,20.8 L988.488194,20.8 L989.003415,20.5 L989.518636,20.5 L990.033857,20.6 L990.549078,20.6 L991.0643,20.6 L991.579521,20.6 L992.094742,21 L992.609963,21 L993.125184,21.1 L993.640405,21.1 L994.155626,20.3 L994.670847,20.3 L995.186068,21.2 L995.70129,21.2 L996.216511,20.5 L996.731732,20.5 L997.246953,21 L997.762174,21 L998.277395,20.8 L998.792616,20.8 L999.307837,20.5 L999.823058,20.5 L1000.33828,20.7 L1000.8535,20.7 L1001.36872,20.6 L1001.88394,20.6 L1002.39916,20.9 L1002.91438,20.9 L1003.42961,20.2 L1003.94483,20.2 L1004.46005,20.3 L1004.97527,20.3 L1005.49049,20.2 L1006.00571,21.5 L1006.52093,21.5 L1007.03615,20 L1007.55137,20 L1008.0666,21.9 L1008.58182,21.9 L1009.09704,20.2 L1009.61226,20.2 L1010.12748,20.9 L1010.6427,20.9 L1011.15792,19.8 L1011.67314,19.8 L1012.18836,20.9 L1012.70359,20.9 L1013.21881,20.9 L1013.73403,20.9 L1014.24925,20.5 L1014.76447,20.5 L1015.27969,20.5 L1015.79491,20.5 L1016.31013,19.9 L1016.82535,19.9 L1017.34058,21.6 L1017.8558,21.6 L1018.37102,21.2 L1018.88624,21.2 L1019.40146,20.5 L1019.91668,20.5 L1020.4319,21.1 L1020.94712,21.1 L1021.46234,20.8 L1021.97757,20.8 L1022.49279,20.7 L1023.00801,20.7 L1023.52323,20.9 L1024.03845,20.9 L1024.55367,20.1 L1025.06889,20.1 L1025.58411,21.2 L1026.09933,21.2 L1026.61456,20.7 L1027.12978,20.7 L1027.645,20.2 L1028.16022,20.2 L1028.67544,20.5 L1029.19066,20.5 L1029.70588,20.5"></path>
                        </g>
                    </g>
                </g>
                <g transform="translate(60.000000, 340.000000)" id="Shape" stroke-opacity="0.0001" stroke="#C0C0C0" stroke-width="21" sketch:type="MSShapeGroup">
                    <path d="M0.294117647,20.8 L10.2941176,20.8 L10.8093388,20.8 L11.3245599,20.5 L11.839781,20.5 L12.3550021,20.5 L12.8702232,20.5 L13.3854443,20.5 L13.9006654,20.5 L14.4158865,20.7 L14.9311076,20.7 L15.4463287,21 L15.9615498,21 L16.4767709,20.9 L16.991992,20.9 L17.5072131,21.1 L18.0224342,20.5 L18.5376553,20.5 L19.0528764,20.9 L19.5680975,20.9 L20.0833186,19.6 L20.5985397,19.6 L21.1137608,21.3 L21.6289819,21.3 L22.144203,20.2 L22.6594241,20.2 L23.1746452,20.5 L23.6898663,20.5 L24.2050874,20.2 L24.7203085,20.2 L25.2355296,21.4 L25.7507508,21.4 L26.2659719,20.5 L26.781193,20.5 L27.2964141,20.5 L27.8116352,20.5 L28.3268563,20.6 L28.8420774,20.6 L29.3572985,21.1 L29.8725196,21.1 L30.3877407,21.3 L30.9029618,20.2 L31.4181829,20.2 L31.933404,20.7 L32.4486251,20.7 L32.9638462,20.2 L33.4790673,20.2 L33.9942884,20.9 L34.5095095,20.9 L35.0247306,20.4 L35.5399517,20.4 L36.0551728,20.8 L36.5703939,20.8 L37.085615,20.2 L37.6008361,20.2 L38.1160572,20.8 L38.6312783,20.8 L39.1464994,20.8 L39.6617205,20.8 L40.1769416,20.9 L40.6921628,20.9 L41.2073839,21 L41.722605,21 L42.2378261,20.6 L42.7530472,20.6 L43.2682683,20.9 L43.7834894,20.9 L44.2987105,20.5 L44.8139316,20.5 L45.3291527,20.5 L45.8443738,20.5 L46.3595949,21 L46.874816,20.5 L47.3900371,20.5 L47.9052582,20.5 L48.4204793,20.5 L48.9357004,20.4 L49.4509215,20.4 L49.9661426,21.2 L50.4813637,21.2 L50.9965848,21 L51.5118059,21 L52.027027,20.5 L52.5422481,20.5 L53.0574692,20.9 L53.5726903,20.9 L54.0879114,20.9 L54.6031325,20.9 L55.1183536,21.2 L55.6335748,21.2 L56.1487959,20.5 L56.664017,20.5 L57.1792381,21.1 L57.6944592,21.1 L58.2096803,20.9 L58.7249014,20.9 L59.2401225,20.5 L59.7553436,20.5 L60.2705647,20.5 L60.7857858,20.5 L61.3010069,20.5 L61.816228,21.3 L62.3314491,21.3 L62.8466702,20.5 L63.3618913,20.5 L63.8771124,21 L64.3923335,21 L64.9075546,21.5 L65.4227757,21.5 L65.9379968,20.8 L66.4532179,20.8 L66.968439,20.7 L67.4836601,20.7 L67.9988812,20.5 L68.5141023,20.5 L69.0293234,20.7 L69.5445445,20.7 L70.0597656,21 L70.5749868,21 L71.0902079,19.9 L71.605429,19.9 L72.1206501,21.5 L72.6358712,21.5 L73.1510923,20.1 L73.6663134,20.1 L74.1815345,20.8 L74.6967556,20.8 L75.2119767,20.6 L75.7271978,20.6 L76.2424189,20.8 L76.75764,20.8 L77.2728611,20.6 L77.7880822,20.6 L78.3033033,21.3 L78.8185244,21.3 L79.3337455,20.5 L79.8489666,20.5 L80.3641877,20.1 L80.8794088,20.1 L81.3946299,21.2 L81.909851,20.5 L82.4250721,20.5 L82.9402932,21 L83.4555143,21 L83.9707354,20.1 L84.4859565,20.1 L85.0011776,20.2 L85.5163988,20.2 L86.0316199,20.9 L86.546841,20.9 L87.0620621,21.3 L87.5772832,21.3 L88.0925043,20.8 L88.6077254,20.8 L89.1229465,21 L89.6381676,21 L90.1533887,20.1 L90.6686098,20.1 L91.1838309,21.9 L91.699052,21.9 L92.2142731,20.7 L92.7294942,20.7 L93.2447153,20.5 L93.7599364,20.5 L94.2751575,20.6 L94.7903786,20.6 L95.3055997,20.3 L95.8208208,21 L96.3360419,21 L96.851263,20.6 L97.3664841,20.6 L97.8817052,20.7 L98.3969263,20.7 L98.9121474,20.9 L99.4273685,20.9 L99.9425896,20.3 L100.457811,20.3 L100.973032,21.5 L101.488253,21.5 L102.003474,20.2 L102.518695,20.2 L103.033916,21.5 L103.549137,21.5 L104.064358,20.9 L104.57958,20.9 L105.094801,20 L105.610022,20 L106.125243,20.3 L106.640464,21.2 L107.155685,20.6 L107.670906,20.6 L108.186127,20.6 L108.701348,20.6 L109.21657,20.2 L109.731791,20.2 L110.247012,20.8 L110.762233,20.8 L111.277454,20.9 L111.792675,20.9 L112.307896,20.9 L112.823117,20.3 L113.338338,20.3 L113.853559,20.4 L114.368781,20.4 L114.884002,21.7 L115.399223,21.7 L115.914444,20.6 L116.429665,20.6 L116.944886,20.9 L117.460107,20.9 L117.975328,19.5 L118.490549,19.5 L119.00577,20.9 L119.520992,20.9 L120.036213,21 L120.551434,21 L121.066655,20.6 L121.581876,20.6 L122.097097,20.5 L122.612318,20.5 L123.127539,20.5 L123.64276,20.5 L124.157982,20.5 L124.673203,20.5 L125.188424,20.8 L125.703645,20.8 L126.218866,21.3 L126.734087,21.3 L127.249308,20.4 L127.764529,20.4 L128.27975,20.8 L128.794971,20.8 L129.310193,20.7 L129.825414,20.7 L130.340635,20.5 L130.855856,20.5 L131.371077,20.9 L131.886298,20.1 L132.401519,21.1 L132.91674,20.3 L133.431961,20.3 L133.947182,20.5 L134.462404,20.5 L134.977625,20.5 L135.492846,20.5 L136.008067,21.1 L136.523288,21.1 L137.038509,20.4 L137.55373,20.4 L138.068951,21.4 L138.584172,21.4 L139.099394,19.8 L139.614615,19.8 L140.129836,21.9 L140.645057,21.9 L141.160278,20.9 L141.675499,20.9 L142.19072,20.2 L142.705941,20.2 L143.221162,20.7 L143.736383,20.7 L144.251605,20.6 L144.766826,20.6 L145.282047,20.9 L145.797268,20.9 L146.312489,20.5 L146.82771,20.5 L147.342931,20 L147.858152,20 L148.373373,20.6 L148.888594,20.6 L149.403816,21.1 L149.919037,21.1 L150.434258,20.7 L150.949479,20.7 L151.4647,20.8 L151.979921,20.8 L152.495142,20.2 L153.010363,20.2 L153.525584,17.1 L154.040806,17.1 L154.556027,16.8 L155.071248,16.8 L155.586469,15.9 L156.10169,15.9 L156.616911,15.2 L157.132132,15.6 L157.647353,15.6 L158.162574,16.4 L158.677795,16.4 L159.193017,19 L159.708238,19 L160.223459,20.8 L160.73868,20.8 L161.253901,19.8 L161.769122,19.8 L162.284343,22 L162.799564,22 L163.314785,20.6 L163.830006,20.6 L164.345228,21.1 L164.860449,21.1 L165.37567,20.6 L165.890891,20.6 L166.406112,20.8 L166.921333,20.8 L167.436554,20.5 L167.951775,20.5 L168.466996,20.9 L168.982218,20.9 L169.497439,20.5 L170.01266,20.5 L170.527881,21 L171.043102,21 L171.558323,19.8 L172.073544,19.8 L172.588765,20.9 L173.103986,20.9 L173.619207,20.5 L174.134429,20.5 L174.64965,20.8 L175.164871,20.8 L175.680092,20.5 L176.195313,20.6 L176.710534,20.6 L177.225755,21.4 L177.740976,21.4 L178.256197,20.7 L178.771418,20.7 L179.28664,20.4 L179.801861,20.4 L180.317082,20.9 L180.832303,20.9 L181.347524,20.8 L181.862745,20.8 L182.377966,20.4 L182.893187,20.4 L183.408408,21 L183.92363,21 L184.438851,20.6 L184.954072,20.6 L185.469293,20.9 L185.984514,20.9 L186.499735,21.6 L187.014956,21.6 L187.530177,21 L188.045398,21 L188.560619,20.7 L189.075841,20.7 L189.591062,20 L190.106283,20 L190.621504,21.2 L191.136725,21.2 L191.651946,20.5 L192.167167,20.5 L192.682388,20.9 L193.197609,20.9 L193.71283,19.9 L194.228052,19.9 L194.743273,20.2 L195.258494,20.2 L195.773715,21 L196.288936,21 L196.804157,20.5 L197.319378,20.5 L197.834599,21.1 L198.34982,21.1 L198.865042,19.5 L199.380263,19.5 L199.895484,21.4 L200.410705,21.4 L200.925926,20.8 L201.441147,20.8 L201.956368,20.9 L202.471589,20.9 L202.98681,20.4 L203.502031,20.4 L204.017253,20 L204.532474,20 L205.047695,21.2 L205.562916,21.2 L206.078137,20.5 L206.593358,20.5 L207.108579,20.8 L207.6238,20.6 L208.139021,20.6 L208.654242,21.5 L209.169464,21.5 L209.684685,20.9 L210.199906,20.9 L210.715127,20.5 L211.230348,20.5 L211.745569,20.9 L212.26079,20.9 L212.776011,20.8 L213.291232,20.8 L213.806454,20.6 L214.321675,20.6 L214.836896,20.9 L215.352117,20.9 L215.867338,20.3 L216.382559,20.3 L216.89778,20.5 L217.413001,20.5 L217.928222,20.5 L218.443443,21.1 L218.958665,21.1 L219.473886,21 L219.989107,21 L220.504328,20.2 L221.019549,20.2 L221.53477,20.9 L222.049991,20.9 L222.565212,21.8 L223.080433,21.8 L223.595654,20.8 L224.110876,20.8 L224.626097,19.9 L225.141318,19.9 L225.656539,20.5 L226.17176,20.5 L226.686981,20.9 L227.202202,20.9 L227.717423,20.4 L228.232644,20.4 L228.747866,21.2 L229.263087,21.2 L229.778308,20.2 L230.293529,20.2 L230.80875,20.2 L231.323971,20.2 L231.839192,21.3 L232.354413,21.3 L232.869634,20.5 L233.384855,20.5 L233.900077,21.2 L234.415298,21.2 L234.930519,20.5 L235.44574,20.5 L235.960961,21.2 L236.476182,21.2 L236.991403,20.5 L237.506624,20.8 L238.021845,20.8 L238.537066,20.7 L239.052288,20.7 L239.567509,20.9 L240.08273,20.9 L240.597951,20.5 L241.113172,20.5 L241.628393,19.7 L242.143614,19.7 L242.658835,21.7 L243.174056,21.7 L243.689278,20.5 L244.204499,20.5 L244.71972,20.9 L245.234941,20.9 L245.750162,20.5 L246.265383,20.5 L246.780604,20.5 L247.295825,20.5 L247.811046,20.9 L248.326267,20.9 L248.841489,21.2 L249.35671,21.2 L249.871931,19.8 L250.387152,19.8 L250.902373,20.5 L251.417594,20.5 L251.932815,21.2 L252.448036,21.2 L252.963257,20.2 L253.478478,20.2 L253.9937,20.6 L254.508921,20.6 L255.024142,20.5 L255.539363,20.5 L256.054584,20.1 L256.569805,20.1 L257.085026,21.5 L257.600247,21.5 L258.115468,20.7 L258.63069,20.7 L259.145911,21.2 L259.661132,21.2 L260.176353,21.1 L260.691574,21.1 L261.206795,21.1 L261.722016,21 L262.237237,21 L262.752458,20.3 L263.267679,20.3 L263.782901,20.6 L264.298122,20.6 L264.813343,20.6 L265.328564,20.6 L265.843785,20.6 L266.359006,20.6 L266.874227,21 L267.389448,21 L267.904669,20.2 L268.41989,20.2 L268.935112,20.9 L269.450333,20.9 L269.965554,21 L270.480775,21 L270.995996,20.1 L271.511217,20.1 L272.026438,21.2 L272.541659,21.2 L273.05688,21.1 L273.572102,21.1 L274.087323,20.8 L274.602544,20.8 L275.117765,20.5 L275.632986,20.5 L276.148207,20.4 L276.663428,20.4 L277.178649,21 L277.69387,20.7 L278.209091,20.7 L278.724313,20.9 L279.239534,20.9 L279.754755,20.2 L280.269976,20.2 L280.785197,20.7 L281.300418,20.7 L281.815639,20.8 L282.33086,20.8 L282.846081,20.8 L283.361302,20.9 L283.876524,20.5 L284.391745,20.5 L284.906966,21.2 L285.422187,21.2 L285.937408,20.9 L286.452629,20.9 L286.96785,20.9 L287.483071,20.9 L287.998292,20.6 L288.513514,20.6 L289.028735,20.1 L289.543956,20.1 L290.059177,20.9 L290.574398,20.9 L291.089619,21 L291.60484,21 L292.120061,19.8 L292.635282,20.7 L293.150503,20.7 L293.665725,20.5 L294.180946,20.5 L294.696167,21.3 L295.211388,21.3 L295.726609,20.5 L296.24183,20.5 L296.757051,21.2 L297.272272,21.2 L297.787493,20 L298.302714,20 L298.817936,21.7 L299.333157,21.7 L299.848378,20.4 L300.363599,20.4 L300.87882,20.4 L301.394041,20.4 L301.909262,21.4 L302.424483,21.4 L302.939704,19.4 L303.454926,19.4 L303.970147,17.8 L304.485368,17.8 L305.000589,15.2 L305.51581,15.2 L306.031031,17.7 L306.546252,17.7 L307.061473,21.1 L307.576694,21.1 L308.091915,20.5 L308.607137,20.6 L309.122358,21.2 L309.637579,21.2 L310.1528,20.8 L310.668021,20.8 L311.183242,21 L311.698463,20.5 L312.213684,20.5 L312.728905,20 L313.244126,20 L313.759348,21.3 L314.274569,21.3 L314.78979,20.7 L315.305011,20.7 L315.820232,20.5 L316.335453,20.5 L316.850674,19.8 L317.365895,19.8 L317.881116,20.6 L318.396338,20.6 L318.911559,21.1 L319.42678,21.1 L319.942001,21.1 L320.457222,21.1 L320.972443,20.5 L321.487664,20.5 L322.002885,20.3 L322.518106,20.3 L323.033327,20.9 L323.548549,20.9 L324.06377,21 L324.578991,21 L325.094212,20.1 L325.609433,20.1 L326.124654,20.7 L326.639875,20.7 L327.155096,20.3 L327.670317,20.3 L328.185538,21 L328.70076,21 L329.215981,20.4 L329.731202,20.4 L330.246423,20.9 L330.761644,20.9 L331.276865,20.6 L331.792086,20.6 L332.307307,20.8 L332.822528,20.8 L333.33775,21 L333.852971,21.1 L334.368192,20.5 L334.883413,20.5 L335.398634,20.1 L335.913855,20.1 L336.429076,21.2 L336.944297,21.2 L337.459518,19.9 L337.974739,19.9 L338.489961,21.2 L339.005182,20.2 L339.520403,20.2 L340.035624,20.7 L340.550845,20.7 L341.066066,20.5 L341.581287,20.5 L342.096508,20.5 L342.611729,20.5 L343.12695,20.8 L343.642172,20.8 L344.157393,20.5 L344.672614,20.5 L345.187835,20.5 L345.703056,20.5 L346.218277,20.9 L346.733498,20.9 L347.248719,20.4 L347.76394,20.4 L348.279162,20.2 L348.794383,20.2 L349.309604,20.6 L349.824825,20.6 L350.340046,20.5 L350.855267,20.5 L351.370488,21.2 L351.885709,21.2 L352.40093,20.2 L352.916151,20.2 L353.431373,20.3 L353.946594,20.3 L354.461815,20.7 L354.977036,20.7 L355.492257,20.5 L356.007478,20.5 L356.522699,21.1 L357.03792,21.1 L357.553141,20.3 L358.068362,20.3 L358.583584,21.4 L359.098805,20.2 L359.614026,21 L360.129247,21 L360.644468,20.6 L361.159689,20.6 L361.67491,20.6 L362.190131,20.6 L362.705352,20.5 L363.220574,20.5 L363.735795,20.4 L364.251016,20.4 L364.766237,21.1 L365.281458,21.1 L365.796679,20.6 L366.3119,20.6 L366.827121,20.5 L367.342342,20.5 L367.857563,20.2 L368.372785,20.2 L368.888006,22 L369.403227,22 L369.918448,20.2 L370.433669,20.2 L370.94889,21.2 L371.464111,21.2 L371.979332,19.7 L372.494553,19.7 L373.009774,20.5 L373.524996,20.5 L374.040217,20.9 L374.555438,20.9 L375.070659,21.1 L375.58588,21.1 L376.101101,20 L376.616322,20 L377.131543,21.1 L377.646764,21.1 L378.161986,20.3 L378.677207,20.3 L379.192428,21.2 L379.707649,21.2 L380.22287,21.1 L380.738091,21.1 L381.253312,20.7 L381.768533,20.7 L382.283754,20.3 L382.798975,21.3 L383.314197,21.3 L383.829418,21 L384.344639,20.1 L384.85986,20.1 L385.375081,21.6 L385.890302,21.6 L386.405523,20.2 L386.920744,20.2 L387.435965,20.3 L387.951186,20.3 L388.466408,21.2 L388.981629,21.2 L389.49685,20.6 L390.012071,20.6 L390.527292,20.9 L391.042513,20.9 L391.557734,21.4 L392.072955,21.4 L392.588176,20.4 L393.103398,20.4 L393.618619,20.9 L394.13384,20.9 L394.649061,20.5 L395.164282,20.5 L395.679503,20.5 L396.194724,20.5 L396.709945,20.7 L397.225166,20.8 L397.740387,20.8 L398.255609,21 L398.77083,21 L399.286051,20.1 L399.801272,20.1 L400.316493,20.2 L400.831714,20.2 L401.346935,21.6 L401.862156,21.6 L402.377377,20.8 L402.892598,20.8 L403.40782,20.9 L403.923041,20.9 L404.438262,20.5 L404.953483,20.5 L405.468704,20 L405.983925,20 L406.499146,21.8 L407.014367,21.8 L407.529588,20.3 L408.04481,20.3 L408.560031,20.2 L409.075252,20.2 L409.590473,20.5 L410.105694,20.5 L410.620915,20.5 L411.136136,20.5 L411.651357,21 L412.166578,21 L412.681799,20.2 L413.197021,20.2 L413.712242,20.8 L414.227463,20.8 L414.742684,20.6 L415.257905,20.6 L415.773126,21.6 L416.288347,20.4 L416.803568,20.4 L417.318789,21.9 L417.83401,21.9 L418.349232,19.8 L418.864453,19.8 L419.379674,20.9 L419.894895,20.9 L420.410116,21 L420.925337,21 L421.440558,19.7 L421.955779,19.7 L422.471,21.7 L422.986222,21.7 L423.501443,20 L424.016664,20 L424.531885,16.1 L425.047106,16.1 L425.562327,14 L426.077548,14 L426.592769,14 L427.10799,14 L427.623211,19.8 L428.138433,19.8 L428.653654,20.6 L429.168875,20.6 L429.684096,20.9 L430.199317,20.9 L430.714538,21.1 L431.229759,21.1 L431.74498,21 L432.260201,21 L432.775422,20.5 L433.290644,20.5 L433.805865,20.1 L434.321086,20.1 L434.836307,20.6 L435.351528,20.6 L435.866749,20.4 L436.38197,20.4 L436.897191,21 L437.412412,21 L437.927634,20.4 L438.442855,20.4 L438.958076,21.5 L439.473297,21.5 L439.988518,20.7 L440.503739,20.7 L441.01896,20.6 L441.534181,20.6 L442.049402,20.8 L442.564623,20.8 L443.079845,20.8 L443.595066,20.8 L444.110287,20.1 L444.625508,20.1 L445.140729,21.2 L445.65595,21.2 L446.171171,20.3 L446.686392,20.3 L447.201613,20.3 L447.716834,20.3 L448.232056,20.5 L448.747277,20.5 L449.262498,21 L449.777719,21 L450.29294,20.5 L450.808161,20.5 L451.323382,20.4 L451.838603,16.5 L452.353824,16.5 L452.869046,17.3 L453.384267,17.3 L453.899488,17.8 L454.414709,17.8 L454.92993,19.9 L455.445151,19.9 L455.960372,20.4 L456.475593,20.4 L456.990814,21 L457.506035,21 L458.021257,20.5 L458.536478,20.5 L459.051699,20.1 L459.56692,20.1 L460.082141,20.5 L460.597362,21.2 L461.112583,21.2 L461.627804,20.2 L462.143025,20.2 L462.658246,21.4 L463.173468,21.4 L463.688689,20.7 L464.20391,20.7 L464.719131,20.5 L465.234352,20.5 L465.749573,20.6 L466.264794,20.6 L466.780015,20.5 L467.295236,20.5 L467.810458,20.2 L468.325679,20.2 L468.8409,20.8 L469.356121,20.8 L469.871342,20.3 L470.386563,20.3 L470.901784,20.1 L471.417005,20.1 L471.932226,21 L472.447447,21 L472.962669,20.8 L473.47789,20.8 L473.993111,21.4 L474.508332,21.4 L475.023553,20.2 L475.538774,20.2 L476.053995,21.2 L476.569216,21.2 L477.084437,20.5 L477.599658,20.5 L478.11488,21.9 L478.630101,21.9 L479.145322,20.9 L479.660543,20.9 L480.175764,20.5 L480.690985,20.5 L481.206206,19.8 L481.721427,19.8 L482.236648,21.6 L482.75187,21.6 L483.267091,20.5 L483.782312,20.5 L484.297533,20.2 L484.812754,20.2 L485.327975,20.9 L485.843196,20.5 L486.358417,20.5 L486.873638,20.9 L487.388859,20.9 L487.904081,20.8 L488.419302,20.8 L488.934523,20.9 L489.449744,20.9 L489.964965,20.9 L490.480186,20.6 L490.995407,20.6 L491.510628,20.5 L492.025849,20.5 L492.54107,20.8 L493.056292,20.8 L493.571513,20.5 L494.086734,20.5 L494.601955,21 L495.117176,21 L495.632397,20.4 L496.147618,20.4 L496.662839,20.6 L497.17806,20.6 L497.693282,21.1 L498.208503,21.1 L498.723724,21.2 L499.238945,21.2 L499.754166,20.4 L500.269387,20.4 L500.784608,21.2 L501.299829,21.2 L501.81505,20.9 L502.330271,20.9 L502.845493,20.8 L503.360714,20.8 L503.875935,20 L504.391156,20 L504.906377,20.5 L505.421598,20.5 L505.936819,21.1 L506.45204,21.1 L506.967261,20.8 L507.482482,20.8 L507.997704,20.5 L508.512925,20.5 L509.028146,19.8 L509.543367,19.8 L510.058588,21.6 L510.573809,20.6 L511.08903,20.6 L511.604251,20.6 L512.119472,20.5 L512.634694,20.5 L513.149915,21.2 L513.665136,21.2 L514.180357,20.6 L514.695578,20.6 L515.210799,20.2 L515.72602,20.2 L516.241241,20.5 L516.756462,20.9 L517.271683,20.9 L517.786905,20.7 L518.302126,20.7 L518.817347,20.5 L519.332568,20.5 L519.847789,20.8 L520.36301,20.8 L520.878231,20.3 L521.393452,20.3 L521.908673,21.1 L522.423894,21.1 L522.939116,20.9 L523.454337,20.9 L523.969558,20.9 L524.484779,20.9 L525,20.9 L525.515221,20.9 L526.030442,20.5 L526.545663,20.5 L527.060884,20.5 L527.576106,20.5 L528.091327,21.1 L528.606548,21.1 L529.121769,20.4 L529.63699,20.4 L530.152211,20.9 L530.667432,20.9 L531.182653,20.5 L531.697874,20.5 L532.213095,20.5 L532.728317,20.5 L533.243538,20.6 L533.758759,20.6 L534.27398,20.7 L534.789201,20.7 L535.304422,21.4 L535.819643,19.8 L536.334864,21 L536.850085,20.9 L537.365306,20.9 L537.880528,20.7 L538.395749,20.7 L538.91097,20.9 L539.426191,20.9 L539.941412,19.8 L540.456633,19.8 L540.971854,21 L541.487075,21 L542.002296,21 L542.517518,21 L543.032739,20.9 L543.54796,20.9 L544.063181,19.9 L544.578402,19.9 L545.093623,21.3 L545.608844,21.3 L546.124065,20.4 L546.639286,20.4 L547.154507,20.9 L547.669729,20.9 L548.18495,20.9 L548.700171,20.9 L549.215392,20.6 L549.730613,20.6 L550.245834,21.2 L550.761055,21.2 L551.276276,20.9 L551.791497,20.9 L552.306718,20.5 L552.82194,20.5 L553.337161,20.9 L553.852382,20.9 L554.367603,20.4 L554.882824,20.4 L555.398045,21.2 L555.913266,21.2 L556.428487,20.5 L556.943708,20.5 L557.45893,20.6 L557.974151,20.6 L558.489372,21 L559.004593,21 L559.519814,20.5 L560.035035,20.5 L560.550256,20.7 L561.065477,20.5 L561.580698,20.8 L562.095919,20.8 L562.611141,20.5 L563.126362,20.5 L563.641583,20.2 L564.156804,20.2 L564.672025,20.9 L565.187246,20.9 L565.702467,21 L566.217688,21 L566.732909,20.3 L567.24813,20.3 L567.763352,20.5 L568.278573,20.7 L568.793794,20.7 L569.309015,20.9 L569.824236,20.9 L570.339457,21.2 L570.854678,21.2 L571.369899,20.7 L571.88512,20.7 L572.400342,20.6 L572.915563,20.6 L573.430784,20.5 L573.946005,20.5 L574.461226,21.4 L574.976447,21.4 L575.491668,20.5 L576.006889,20.5 L576.52211,20.2 L577.037331,20.2 L577.552553,20.1 L578.067774,20.1 L578.582995,21.3 L579.098216,21.3 L579.613437,20.7 L580.128658,20.7 L580.643879,20.5 L581.1591,20.6 L581.674321,20.6 L582.189542,20.1 L582.704764,20.1 L583.219985,21.1 L583.735206,21.1 L584.250427,21.2 L584.765648,21.2 L585.280869,21 L585.79609,21 L586.311311,21.7 L586.826532,21.7 L587.341754,20.4 L587.856975,20.4 L588.372196,20.5 L588.887417,20.5 L589.402638,20.9 L589.917859,20.9 L590.43308,20.9 L590.948301,20.9 L591.463522,20.2 L591.978743,20.2 L592.493965,20.5 L593.009186,20.5 L593.524407,20.5 L594.039628,20.5 L594.554849,21.2 L595.07007,21.2 L595.585291,20.8 L596.100512,20.8 L596.615733,20.8 L597.130954,20.8 L597.646176,20.5 L598.161397,20.5 L598.676618,21.7 L599.191839,21.7 L599.70706,20.6 L600.222281,20.6 L600.737502,20.5 L601.252723,20.5 L601.767944,19.3 L602.283166,16.2 L602.798387,16.2 L603.313608,16.7 L603.828829,16.7 L604.34405,18.2 L604.859271,18.2 L605.374492,20.1 L605.889713,20.1 L606.404934,20.9 L606.920155,20.9 L607.435377,20.5 L607.950598,20.5 L608.465819,21.3 L608.98104,21.3 L609.496261,20.3 L610.011482,20.3 L610.526703,21.1 L611.041924,21.1 L611.557145,20.3 L612.072366,20.3 L612.587588,20.8 L613.102809,20.8 L613.61803,20 L614.133251,20 L614.648472,21.2 L615.163693,21.2 L615.678914,20.2 L616.194135,20.2 L616.709356,20.6 L617.224578,20.6 L617.739799,20.7 L618.25502,20.6 L618.770241,20.6 L619.285462,21.4 L619.800683,21.4 L620.315904,20.9 L620.831125,20.9 L621.346346,21.1 L621.861567,21.1 L622.376789,20.7 L622.89201,20.7 L623.407231,21.1 L623.922452,21.1 L624.437673,21 L624.952894,21 L625.468115,20 L625.983336,20 L626.498557,20.5 L627.013778,20.5 L627.529,20.6 L628.044221,20.6 L628.559442,21.1 L629.074663,21.1 L629.589884,20.5 L630.105105,20.5 L630.620326,19.7 L631.135547,19.7 L631.650768,20.5 L632.16599,20.5 L632.681211,21.2 L633.196432,21.2 L633.711653,21 L634.226874,21 L634.742095,20.1 L635.257316,20.1 L635.772537,20.9 L636.287758,20.9 L636.802979,20.5 L637.318201,21.2 L637.833422,21.2 L638.348643,20.8 L638.863864,20.8 L639.379085,20.5 L639.894306,20.5 L640.409527,21.1 L640.924748,21.1 L641.439969,20.7 L641.95519,20.7 L642.470412,21.2 L642.985633,21.2 L643.500854,20.9 L644.016075,20.9 L644.531296,20.8 L645.046517,20.8 L645.561738,20.6 L646.076959,20.6 L646.59218,20.7 L647.107402,20.7 L647.622623,20.1 L648.137844,20.1 L648.653065,20.9 L649.168286,20.9 L649.683507,20.5 L650.198728,20.5 L650.713949,20.7 L651.22917,20.7 L651.744391,20.5 L652.259613,20.5 L652.774834,19.8 L653.290055,19.8 L653.805276,21.6 L654.320497,21.6 L654.835718,20.9 L655.350939,20.9 L655.86616,20.9 L656.381381,20.9 L656.896602,20.6 L657.411824,20.6 L657.927045,20.2 L658.442266,20.2 L658.957487,21.4 L659.472708,21.4 L659.987929,20.9 L660.50315,20.2 L661.018371,20.2 L661.533592,20.5 L662.048814,20.2 L662.564035,20.2 L663.079256,20.8 L663.594477,20.8 L664.109698,20.9 L664.624919,20.9 L665.14014,20.9 L665.655361,20.9 L666.170582,20.8 L666.685803,20.8 L667.201025,20.7 L667.716246,20.7 L668.231467,20.5 L668.746688,20.5 L669.261909,21.1 L669.77713,21.1 L670.292351,21.3 L670.807572,21.3 L671.322793,20.2 L671.838014,20.2 L672.353236,20.9 L672.868457,20.9 L673.383678,20.3 L673.898899,20.3 L674.41412,21 L674.929341,21 L675.444562,20.2 L675.959783,20.2 L676.475004,20.9 L676.990226,20.9 L677.505447,20.3 L678.020668,20.3 L678.535889,21.3 L679.05111,21.3 L679.566331,20.9 L680.081552,20.9 L680.596773,20.5 L681.111994,20.5 L681.627215,20.8 L682.142437,20.8 L682.657658,20.9 L683.172879,20.9 L683.6881,20.9 L684.203321,20.1 L684.718542,20.1 L685.233763,20.9 L685.748984,20.9 L686.264205,21 L686.779426,21 L687.294648,20.5 L687.809869,20.5 L688.32509,21.5 L688.840311,21.5 L689.355532,21 L689.870753,21 L690.385974,20.7 L690.901195,20.7 L691.416416,20.6 L691.931638,20.6 L692.446859,20.7 L692.96208,20.7 L693.477301,20.8 L693.992522,20.8 L694.507743,20.6 L695.022964,20.6 L695.538185,20.3 L696.053406,20.3 L696.568627,20.5 L697.083849,20.5 L697.59907,20.8 L698.114291,20.8 L698.629512,20.5 L699.144733,20.5 L699.659954,20.9 L700.175175,20.9 L700.690396,20.3 L701.205617,21.1 L701.720838,21.1 L702.23606,21 L702.751281,21 L703.266502,20.6 L703.781723,20.6 L704.296944,20.6 L704.812165,20.6 L705.327386,20.7 L705.842607,20.7 L706.357828,20.4 L706.87305,20.4 L707.388271,20.7 L707.903492,20.7 L708.418713,20.2 L708.933934,20.2 L709.449155,21.5 L709.964376,21.5 L710.479597,20.7 L710.994818,20.7 L711.510039,19.8 L712.025261,19.8 L712.540482,21.5 L713.055703,21.5 L713.570924,20.5 L714.086145,20.5 L714.601366,22 L715.116587,22 L715.631808,20.1 L716.147029,20.1 L716.66225,20.4 L717.177472,20.4 L717.692693,20.9 L718.207914,20.9 L718.723135,20.6 L719.238356,20.6 L719.753577,20.9 L720.268798,19.8 L720.784019,19.8 L721.29924,21.5 L721.814462,21.5 L722.329683,20.7 L722.844904,20.7 L723.360125,20.4 L723.875346,20.4 L724.390567,20.5 L724.905788,20.5 L725.421009,20.7 L725.93623,20.7 L726.451451,20.9 L726.966673,20.9 L727.481894,21.3 L727.997115,21.3 L728.512336,20.7 L729.027557,20.7 L729.542778,20.3 L730.057999,20.3 L730.57322,20.2 L731.088441,20.2 L731.603662,20.9 L732.118884,20.9 L732.634105,20.6 L733.149326,20.6 L733.664547,20.5 L734.179768,20.5 L734.694989,20.6 L735.21021,20.6 L735.725431,20.4 L736.240652,20.4 L736.755874,20.9 L737.271095,20.9 L737.786316,20.5 L738.301537,20.5 L738.816758,21.1 L739.331979,21.1 L739.8472,20.8 L740.362421,20.8 L740.877642,20.5 L741.392863,20.5 L741.908085,20.8 L742.423306,20.8 L742.938527,20.4 L743.453748,20.4 L743.968969,20.5 L744.48419,20.5 L744.999411,20.5 L745.514632,20.5 L746.029853,21.2 L746.545074,21.2 L747.060296,20.5 L747.575517,20.5 L748.090738,18.3 L748.605959,18.3 L749.12118,17.9 L749.636401,17.9 L750.151622,16.3 L750.666843,16.3 L751.182064,18.6 L751.697286,18.6 L752.212507,20.4 L752.727728,20.4 L753.242949,20.8 L753.75817,20.8 L754.273391,20.5 L754.788612,20.5 L755.303833,20.4 L755.819054,20.4 L756.334275,20.3 L756.849497,21.6 L757.364718,21.6 L757.879939,20.2 L758.39516,20.2 L758.910381,20.5 L759.425602,20.5 L759.940823,20.9 L760.456044,20.9 L760.971265,20.5 L761.486486,20.5 L762.001708,21.4 L762.516929,21.4 L763.03215,21.2 L763.547371,21.2 L764.062592,20.5 L764.577813,20.5 L765.093034,20.6 L765.608255,20.6 L766.123476,21.2 L766.638698,21.2 L767.153919,20.2 L767.66914,20.2 L768.184361,20.2 L768.699582,20.2 L769.214803,21.2 L769.730024,21.2 L770.245245,20.5 L770.760466,20.4 L771.275687,20.4 L771.790909,20.5 L772.30613,20.5 L772.821351,20.6 L773.336572,20.6 L773.851793,21.4 L774.367014,21.4 L774.882235,21 L775.397456,21 L775.912677,21.2 L776.427898,21.2 L776.94312,19.8 L777.458341,19.8 L777.973562,20.5 L778.488783,20.5 L779.004004,21.1 L779.519225,21.1 L780.034446,20.9 L780.549667,20.9 L781.064888,20.5 L781.58011,20.5 L782.095331,19.4 L782.610552,19.4 L783.125773,21.8 L783.640994,21.8 L784.156215,20.5 L784.671436,20.5 L785.186657,20.3 L785.701878,20.3 L786.217099,21.3 L786.732321,21.3 L787.247542,20.5 L787.762763,20.5 L788.277984,20.8 L788.793205,20.8 L789.308426,20.8 L789.823647,20.5 L790.338868,20.5 L790.854089,20.9 L791.36931,20.9 L791.884532,20.4 L792.399753,20.4 L792.914974,21 L793.430195,21 L793.945416,20.2 L794.460637,20.2 L794.975858,20.9 L795.491079,20.9 L796.0063,20.5 L796.521522,20.5 L797.036743,20.5 L797.551964,20.5 L798.067185,20.5 L798.582406,20.5 L799.097627,21 L799.612848,21 L800.128069,21.1 L800.64329,21.1 L801.158511,20.8 L801.673733,20.8 L802.188954,20.1 L802.704175,20.1 L803.219396,20.7 L803.734617,20.7 L804.249838,20.9 L804.765059,20.9 L805.28028,20.6 L805.795501,20.6 L806.310722,20.5 L806.825944,20.5 L807.341165,20.4 L807.856386,20.4 L808.371607,21.2 L808.886828,21.2 L809.402049,20.9 L809.91727,20.9 L810.432491,20.5 L810.947712,20.5 L811.462934,20.8 L811.978155,20.8 L812.493376,21.2 L813.008597,21.2 L813.523818,20.7 L814.039039,20.2 L814.55426,21.2 L815.069481,21.2 L815.584702,20.2 L816.099923,20.2 L816.615145,20.6 L817.130366,20.6 L817.645587,20.2 L818.160808,20.2 L818.676029,20.3 L819.19125,20.3 L819.706471,21.2 L820.221692,21.2 L820.736913,20.2 L821.252134,20.2 L821.767356,20.9 L822.282577,20.9 L822.797798,21.2 L823.313019,21.2 L823.82824,20.5 L824.343461,20.5 L824.858682,20.7 L825.373903,20.7 L825.889124,20.6 L826.404346,20.6 L826.919567,20.7 L827.434788,20.7 L827.950009,20.5 L828.46523,20.9 L828.980451,20.9 L829.495672,20 L830.010893,20 L830.526114,20.9 L831.041335,20.9 L831.556557,21 L832.071778,21 L832.586999,20.7 L833.10222,20.7 L833.617441,20.5 L834.132662,20.5 L834.647883,20.5 L835.163104,20.5 L835.678325,22.2 L836.193546,22.2 L836.708768,21 L837.223989,21 L837.73921,20.5 L838.254431,20.5 L838.769652,20.3 L839.284873,20.3 L839.800094,20.6 L840.315315,20.6 L840.830536,20 L841.345758,20 L841.860979,21.3 L842.3762,21.3 L842.891421,20.5 L843.406642,20.5 L843.921863,19.8 L844.437084,19.8 L844.952305,21 L845.467526,21 L845.982747,20.8 L846.497969,20.8 L847.01319,20.9 L847.528411,20.9 L848.043632,20.6 L848.558853,20.6 L849.074074,20.5 L849.589295,20.5 L850.104516,20.2 L850.619737,20.2 L851.134958,21.2 L851.65018,21.2 L852.165401,20.4 L852.680622,20.4 L853.195843,20.6 L853.711064,20.6 L854.226285,20.3 L854.741506,20.3 L855.256727,21.5 L855.771948,21.5 L856.28717,20 L856.802391,20 L857.317612,21.4 L857.832833,21.4 L858.348054,20.3 L858.863275,20.3 L859.378496,21.4 L859.893717,21.4 L860.408938,21.1 L860.924159,21.1 L861.439381,20.4 L861.954602,20.4 L862.469823,21.1 L862.985044,21.1 L863.500265,20.3 L864.015486,20.5 L864.530707,20.3 L865.045928,20.3 L865.561149,21 L866.07637,21 L866.591592,20.8 L867.106813,20.8 L867.622034,20.8 L868.137255,20.8 L868.652476,19.9 L869.167697,19.9 L869.682918,21.2 L870.198139,21.2 L870.71336,21.1 L871.228582,21.1 L871.743803,20.3 L872.259024,20.3 L872.774245,20.3 L873.289466,20.3 L873.804687,20.5 L874.319908,20.5 L874.835129,21.3 L875.35035,21.3 L875.865571,20.1 L876.380793,20.1 L876.896014,21 L877.411235,20 L877.926456,20 L878.441677,20.9 L878.956898,20.9 L879.472119,21.2 L879.98734,21.2 L880.502561,20.7 L881.017782,20.7 L881.533004,20.6 L882.048225,20.6 L882.563446,21.1 L883.078667,21.1 L883.593888,20.6 L884.109109,20.6 L884.62433,21.2 L885.139551,21.2 L885.654772,20.2 L886.169994,20.2 L886.685215,21 L887.200436,21 L887.715657,20.5 L888.230878,20.5 L888.746099,20.9 L889.26132,20.5 L889.776541,20.2 L890.291762,20.2 L890.806983,20.2 L891.322205,20.2 L891.837426,-0.1 L892.352647,-0.1 L892.867868,9.4 L893.383089,9.4 L893.89831,21.2 L894.413531,21.2 L894.928752,20.5 L895.443973,20.5 L895.959194,17.4 L896.474416,17.4 L896.989637,14.3 L897.504858,14.3 L898.020079,11.5 L898.5353,15.1 L899.050521,15.1 L899.565742,17.2 L900.080963,17.2 L900.596184,18.1 L901.111406,18.1 L901.626627,20.7 L902.141848,20.7 L902.657069,20.5 L903.17229,20.5 L903.687511,20.9 L904.202732,20.9 L904.717953,20.8 L905.233174,20.8 L905.748395,21 L906.263617,21 L906.778838,20.3 L907.294059,20.3 L907.80928,21.3 L908.324501,21.3 L908.839722,21 L909.354943,21 L909.870164,20 L910.385385,20 L910.900606,21.6 L911.415828,21.6 L911.931049,20.5 L912.44627,20.5 L912.961491,20.6 L913.476712,20.6 L913.991933,20.5 L914.507154,20.6 L915.022375,20.9 L915.537596,20.9 L916.052818,20.3 L916.568039,20.3 L917.08326,21.7 L917.598481,21.7 L918.113702,20.2 L918.628923,20.2 L919.144144,21 L919.659365,21 L920.174586,20.3 L920.689807,20.3 L921.205029,20.2 L921.72025,20.2 L922.235471,21 L922.750692,21 L923.265913,20.9 L923.781134,20.9 L924.296355,20.6 L924.811576,20.6 L925.326797,19.9 L925.842018,19.9 L926.35724,21.2 L926.872461,21.2 L927.387682,20.9 L927.902903,20.9 L928.418124,20.9 L928.933345,20.9 L929.448566,20.5 L929.963787,20.9 L930.479008,20.9 L930.99423,21.6 L931.509451,21.6 L932.024672,20.3 L932.539893,20.3 L933.055114,20.6 L933.570335,20.6 L934.085556,21.3 L934.600777,21.3 L935.115998,20 L935.631219,20 L936.146441,21.5 L936.661662,21.5 L937.176883,20.3 L937.692104,20.3 L938.207325,20.5 L938.722546,20.5 L939.237767,20.7 L939.752988,20.5 L940.268209,20.6 L940.78343,20.6 L941.298652,20.7 L941.813873,20.7 L942.329094,21.6 L942.844315,20.9 L943.359536,20.9 L943.874757,20.6 L944.389978,20.6 L944.905199,20.5 L945.42042,20.5 L945.935642,20.5 L946.450863,20.5 L946.966084,20.8 L947.481305,20.8 L947.996526,20.9 L948.511747,20.9 L949.026968,19.7 L949.542189,19.7 L950.05741,20.4 L950.572631,20.4 L951.087853,21.5 L951.603074,21.5 L952.118295,20.6 L952.633516,20.6 L953.148737,20.7 L953.663958,20.7 L954.179179,20.5 L954.6944,20.5 L955.209621,21.4 L955.724842,21.4 L956.240064,20.9 L956.755285,20.9 L957.270506,20.9 L957.785727,20.9 L958.300948,20.5 L958.816169,20.5 L959.33139,20.2 L959.846611,20.2 L960.361832,21.2 L960.877054,21.2 L961.392275,20.5 L961.907496,20.5 L962.422717,20.6 L962.937938,20.6 L963.453159,20.7 L963.96838,20.7 L964.483601,19.8 L964.998822,21.2 L965.514043,20.7 L966.029265,21 L966.544486,21 L967.059707,20.9 L967.574928,20.9 L968.090149,20.7 L968.60537,20.7 L969.120591,21 L969.635812,21 L970.151033,20 L970.666254,20 L971.181476,21.2 L971.696697,21.2 L972.211918,20.5 L972.727139,20.5 L973.24236,20.5 L973.757581,20.5 L974.272802,20.2 L974.788023,20.2 L975.303244,20.8 L975.818466,20.8 L976.333687,20.5 L976.848908,20.5 L977.364129,20.9 L977.87935,20.9 L978.394571,20.6 L978.909792,20.6 L979.425013,20.5 L979.940234,20.5 L980.455455,21.6 L980.970677,21.6 L981.485898,20.8 L982.001119,20.8 L982.51634,20.7 L983.031561,20.7 L983.546782,20.5 L984.062003,20.5 L984.577224,19.8 L985.092445,19.8 L985.607666,21.6 L986.122888,21.6 L986.638109,20.5 L987.15333,20.5 L987.668551,20.5 L988.183772,20.9 L988.698993,20.9 L989.214214,20.2 L989.729435,20.2 L990.244656,21 L990.759878,21 L991.275099,21 L991.79032,19.8 L992.305541,19.8 L992.820762,21.3 L993.335983,21.3 L993.851204,20.5 L994.366425,20.5 L994.881646,20.4 L995.396867,20.4 L995.912089,20.1 L996.42731,20.1 L996.942531,21.2 L997.457752,21.2 L997.972973,20.8 L998.488194,20.8 L999.003415,20.5 L999.518636,20.5 L1000.03386,20.6 L1000.54908,20.6 L1001.0643,20.6 L1001.57952,20.6 L1002.09474,21 L1002.60996,21 L1003.12518,21.1 L1003.64041,21.1 L1004.15563,20.3 L1004.67085,20.3 L1005.18607,21.2 L1005.70129,21.2 L1006.21651,20.5 L1006.73173,20.5 L1007.24695,21 L1007.76217,21 L1008.2774,20.8 L1008.79262,20.8 L1009.30784,20.5 L1009.82306,20.5 L1010.33828,20.7 L1010.8535,20.7 L1011.36872,20.6 L1011.88394,20.6 L1012.39916,20.9 L1012.91438,20.9 L1013.42961,20.2 L1013.94483,20.2 L1014.46005,20.3 L1014.97527,20.3 L1015.49049,20.2 L1016.00571,21.5 L1016.52093,21.5 L1017.03615,20 L1017.55137,20 L1018.0666,21.9 L1018.58182,21.9 L1019.09704,20.2 L1019.61226,20.2 L1020.12748,20.9 L1020.6427,20.9 L1021.15792,19.8 L1021.67314,19.8 L1022.18836,20.9 L1022.70359,20.9 L1023.21881,20.9 L1023.73403,20.9 L1024.24925,20.5 L1024.76447,20.5 L1025.27969,20.5 L1025.79491,20.5 L1026.31013,19.9 L1026.82535,19.9 L1027.34058,21.6 L1027.8558,21.6 L1028.37102,21.2 L1028.88624,21.2 L1029.40146,20.5 L1029.91668,20.5 L1030.4319,21.1 L1030.94712,21.1 L1031.46234,20.8 L1031.97757,20.8 L1032.49279,20.7 L1033.00801,20.7 L1033.52323,20.9 L1034.03845,20.9 L1034.55367,20.1 L1035.06889,20.1 L1035.58411,21.2 L1036.09933,21.2 L1036.61456,20.7 L1037.12978,20.7 L1037.645,20.2 L1038.16022,20.2 L1038.67544,20.5 L1039.19066,20.5 L1039.70588,20.5 L1049.70588,20.5"></path>
                </g>
            </g>
            <g id="Group" transform="translate(65.000000, 378.000000)" font-size="20" font-family="Helvetica" fill="#666666" sketch:type="MSTextLayer" font-weight="normal">
                <text id="0">
                    <tspan x="-0.205882353" y="19" fill="#000000">0</tspan>
                </text>
                <text id="200">
                    <tspan x="89.8383383" y="19" fill="#000000">200</tspan>
                </text>
                <text id="400">
                    <tspan x="192.882559" y="19" fill="#000000">400</tspan>
                </text>
                <text id="600">
                    <tspan x="295.92678" y="19" fill="#000000">600</tspan>
                </text>
                <text id="800">
                    <tspan x="398.971" y="19" fill="#000000">800</tspan>
                </text>
                <text id="1,000">
                    <tspan x="497.515221" y="19" fill="#000000">1,000</tspan>
                </text>
                <text id="1,200">
                    <tspan x="600.559442" y="19" fill="#000000">1,200</tspan>
                </text>
                <text id="1,400">
                    <tspan x="703.603662" y="19" fill="#000000">1,400</tspan>
                </text>
                <text id="1,600">
                    <tspan x="806.647883" y="19" fill="#000000">1,600</tspan>
                </text>
                <text id="1,800">
                    <tspan x="909.692104" y="19" fill="#000000">1,800</tspan>
                </text>
                <text id="2,000">
                    <tspan x="1012.73632" y="19" fill="#000000">2,000</tspan>
                </text>
            </g>
            <g id="Group" transform="translate(29.000000, 0.000000)" font-size="20" font-family="Helvetica" fill="#666666" sketch:type="MSTextLayer" font-weight="normal">
                <text id="0">
                    <tspan x="9" y="381.115625" fill="#000000">0</tspan>
                </text>
                <text id="0.1">
                    <tspan x="0" y="320.782292" fill="#000000">0.1</tspan>
                </text>
                <text id="0.2">
                    <tspan x="0" y="260.448958" fill="#000000">0.2</tspan>
                </text>
                <text id="0.3">
                    <tspan x="0" y="200.115625" fill="#000000">0.3</tspan>
                </text>
                <text id="0.4">
                    <tspan x="0" y="139.782292" fill="#000000">0.4</tspan>
                </text>
                <text id="0.5">
                    <tspan x="0" y="79.4489583" fill="#000000">0.5</tspan>
                </text>
                <text id="0.6">
                    <tspan x="0" y="19.115625" fill="#000000">0.6</tspan>
                </text>
            </g>
            <text id="Highcharts.com" opacity="0.1" fill="#909090" sketch:type="MSTextLayer" font-family="Helvetica" font-size="9" font-weight="normal">
                <tspan x="1047" y="397" fill="#000000">Highcharts.com</tspan>
            </text>
        </g>
    </g>
</svg>