<svg xmlns="http://www.w3.org/2000/svg" version="1.1" width="1119" height="400"><desc>Created with Highcharts 3.0.2</desc><defs><clipPath id="highcharts-1"><rect fill="none" x="0" y="0" width="1049" height="361"></rect></clipPath></defs><rect rx="5" ry="5" fill="#FFFFFF" x="0" y="0" width="1119" height="400"></rect><g class="highcharts-grid" zIndex="1"></g><g class="highcharts-grid" zIndex="1"><path fill="none" d="M 60 312.5 L 1109 312.5" stroke="#C0C0C0" stroke-width="1" zIndex="1" opacity="1"></path><path fill="none" d="M 60 251.5 L 1109 251.5" stroke="#C0C0C0" stroke-width="1" zIndex="1" opacity="1"></path><path fill="none" d="M 60 191.5 L 1109 191.5" stroke="#C0C0C0" stroke-width="1" zIndex="1" opacity="1"></path><path fill="none" d="M 60 131.5 L 1109 131.5" stroke="#C0C0C0" stroke-width="1" zIndex="1" opacity="1"></path><path fill="none" d="M 60 70.5 L 1109 70.5" stroke="#C0C0C0" stroke-width="1" zIndex="1" opacity="1"></path><path fill="none" d="M 60 10.5 L 1109 10.5" stroke="#C0C0C0" stroke-width="1" zIndex="1" opacity="1"></path><path fill="none" d="M 60 371.5 L 1109 371.5" stroke="#C0C0C0" stroke-width="1" zIndex="1" opacity="1"></path></g><g class="highcharts-axis" zIndex="2"><path fill="none" d="M 162.5 372 L 162.5 377" stroke="#C0D0E0" stroke-width="1" opacity="1"></path><path fill="none" d="M 254.5 372 L 254.5 377" stroke="#C0D0E0" stroke-width="1" opacity="1"></path><path fill="none" d="M 347.5 372 L 347.5 377" stroke="#C0D0E0" stroke-width="1" opacity="1"></path><path fill="none" d="M 439.5 372 L 439.5 377" stroke="#C0D0E0" stroke-width="1" opacity="1"></path><path fill="none" d="M 532.5 372 L 532.5 377" stroke="#C0D0E0" stroke-width="1" opacity="1"></path><path fill="none" d="M 69.5 372 L 69.5 377" stroke="#C0D0E0" stroke-width="1" opacity="1"></path><path fill="none" d="M 624.5 372 L 624.5 377" stroke="#C0D0E0" stroke-width="1" opacity="1"></path><path fill="none" d="M 717.5 372 L 717.5 377" stroke="#C0D0E0" stroke-width="1" opacity="1"></path><path fill="none" d="M 809.5 372 L 809.5 377" stroke="#C0D0E0" stroke-width="1" opacity="1"></path><path fill="none" d="M 902.5 372 L 902.5 377" stroke="#C0D0E0" stroke-width="1" opacity="1"></path><path fill="none" d="M 994.5 372 L 994.5 377" stroke="#C0D0E0" stroke-width="1" opacity="1"></path><path fill="none" d="M 1087.5 372 L 1087.5 377" stroke="#C0D0E0" stroke-width="1" opacity="1"></path><path fill="none" d="M 60 371.5 L 1109 371.5" stroke="#C0D0E0" stroke-width="1" zIndex="7" visibility="visible"></path></g><g class="highcharts-axis" zIndex="2"><text x="24.59375" y="191" style="font-family:&quot;Lucida Grande&quot;, &quot;Lucida Sans Unicode&quot;, Verdana, Arial, Helvetica, sans-serif;font-size:12px;color:#4d759e;font-weight:bold;fill:#4d759e;" zIndex="7" text-anchor="middle" transform="translate(0,0) rotate(270 24.59375 191)" visibility="visible"><tspan x="24.59375">Amperage</tspan></text></g><g class="highcharts-series-group" zIndex="3"><g class="highcharts-series" visibility="visible" zIndex="0.1" transform="translate(60,10) scale(1 1)" clip-path="url(#highcharts-1)"><path fill="none" d="M 10.284313725490199 315 L 12.134010438707861 293.7 L 13.983707151925522 293.7 L 15.833403865143184 288.8 L 17.683100578360847 288.8 L 19.532797291578508 288.1 L 21.38249400479617 288.1 L 23.23219071801383 289.2 L 25.081887431231493 289.2 L 26.931584144449154 289 L 28.781280857666815 289 L 30.63097757088448 289.6 L 32.48067428410214 289.6 L 34.330370997319804 293.1 L 36.180067710537465 293.1 L 38.029764423755125 285.6 L 39.879461136972786 285.6 L 41.72915785019045 261.1 L 43.578854563408115 261.1 L 45.428551276625775 274.4 L 47.278247989843436 274.4 L 49.1279447030611 286.8 L 50.97764141627876 286.8 L 52.82733812949642 288 L 54.67703484271408 288 L 56.52673155593174 282.3 L 58.37642826914941 282.3 L 60.22612498236707 287.6 L 62.07582169558473 287.6 L 63.92551840880239 302.6 L 65.77521512202006 302.6 L 67.62491183523771 317.3 L 69.47460854845538 317.3 L 71.32430526167303 312.9 L 73.1740019748907 312.9 L 75.02369868810835 293.2 L 76.87339540132602 293.2 L 78.72309211454368 259.8 L 80.57278882776134 265.8 L 82.42248554097901 265.8 L 84.27218225419666 272.8 L 86.12187896741433 272.8 L 87.97157568063199 234.2 L 89.82127239384965 234.2 L 91.67096910706731 278.4 L 93.52066582028498 278.4 L 95.37036253350264 290.3 L 97.2200592467203 303 L 99.06975595993796 283.4 L 100.91945267315562 283.4 L 102.76914938637329 278.1 L 104.61884609959094 278.1 L 106.46854281280861 289.4 L 108.31823952602626 288.5 L 110.16793623924393 288.5 L 112.0176329524616 289.2 L 113.86732966567925 289.2 L 115.71702637889692 288.6 L 117.56672309211457 288.6 L 119.41641980533224 282.9 L 121.2661165185499 282.9 L 123.11581323176756 312.2 L 124.96550994498523 312.2 L 126.81520665820288 297.3 L 128.66490337142054 297.3 L 130.5146000846382 260.8 L 132.36429679785587 260.8 L 134.21399351107354 283.7 L 136.06369022429118 283.7 L 137.91338693750885 279.6 L 139.76308365072651 279.6 L 141.61278036394418 282.8 L 143.46247707716185 282.8 L 145.3121737903795 286.9 L 147.16187050359716 286.9 L 149.01156721681483 288.3 L 150.8612639300325 288.3 L 152.71096064325013 297.5 L 154.5606573564678 297.5 L 156.41035406968547 302.2 L 158.26005078290314 302.2 L 160.1097474961208 275.4 L 161.95944420933844 275.4 L 163.8091409225561 223.7 L 165.65883763577378 223.7 L 167.50853434899145 198 L 169.35823106220911 198 L 171.20792777542675 199.2 L 173.05762448864442 199.2 L 174.9073212018621 202 L 176.75701791507976 202 L 178.6067146282974 204.8 L 180.45641134151506 204.8 L 182.30610805473273 228.6 L 184.1558047679504 228.6 L 186.00550148116807 238.3 L 187.8551981943857 155 L 189.70489490760338 155 L 191.55459162082104 134.1 L 193.4042883340387 134.1 L 195.25398504725635 150.8 L 197.10368176047402 150.8 L 198.95337847369169 167.1 L 200.80307518690935 167.1 L 202.65277190012702 126.1 L 204.50246861334466 126.1 L 206.35216532656233 119.3 L 208.20186203978 119.3 L 210.05155875299766 128.4 L 211.9012554662153 128.4 L 213.75095217943297 169.2 L 215.60064889265064 169.2 L 217.4503456058683 180.5 L 219.30004231908597 180.5 L 221.14973903230361 182.2 L 222.99943574552128 182.2 L 224.84913245873895 187.7 L 226.69882917195662 187.7 L 228.54852588517429 189.3 L 230.39822259839192 189.3 L 232.2479193116096 192 L 234.09761602482726 192 L 235.94731273804493 198.2 L 237.79700945126257 198.2 L 239.64670616448024 216.4 L 241.4964028776979 216.4 L 243.34609959091557 215.8 L 245.19579630413324 215.8 L 247.04549301735088 211.1 L 248.89518973056855 211.1 L 250.7448864437862 192.4 L 252.59458315700388 192.4 L 254.44427987022152 198.1 L 256.2939765834392 198.1 L 258.14367329665686 189.1 L 259.9933700098745 189.1 L 261.8430667230922 173.7 L 263.69276343630986 190.3 L 265.5424601495275 190.3 L 267.39215686274514 194.3 L 269.2418535759628 194.3 L 271.0915502891805 210 L 272.94124700239814 210 L 274.7909437156158 203.7 L 276.6406404288335 203.7 L 278.49033714205115 196.5 L 280.3400338552688 196.5 L 282.1897305684865 200.8 L 284.0394272817041 200.8 L 285.88912399492176 198.1 L 287.73882070813943 198.1 L 289.5885174213571 222.3 L 291.43821413457476 222.3 L 293.28791084779243 265.3 L 295.1376075610101 265.3 L 296.98730427422777 266.5 L 298.83700098744544 266.5 L 300.68669770066305 137 L 302.5363944138807 -40.5 L 304.3860911270984 -40.5 L 306.23578784031605 34.5 L 308.0854845535337 34.5 L 309.9351812667514 134.9 L 311.78487797996905 134.9 L 313.6345746931867 163.5 L 315.4842714064044 163.5 L 317.33396811962206 192.6 L 319.18366483283967 192.6 L 321.03336154605734 275.8 L 322.883058259275 275.8 L 324.73275497249267 293.2 L 326.58245168571034 293.2 L 328.432148398928 271.6 L 330.2818451121457 271.6 L 332.13154182536334 273.9 L 333.981238538581 273.9 L 335.8309352517986 214.1 L 337.6806319650163 214.1 L 339.53032867823396 215.8 L 341.3800253914516 215.8 L 343.2297221046693 264.7 L 345.07941881788696 264.7 L 346.9291155311046 263.1 L 348.7788122443223 263.1 L 350.62850895753996 229.5 L 352.4782056707576 229.5 L 354.32790238397524 223.8 L 356.1775990971929 223.8 L 358.0272958104106 203.5 L 359.87699252362825 203.5 L 361.7266892368459 157.8 L 363.5763859500636 157.8 L 365.42608266328125 8.8 L 367.2757793764989 8.8 L 369.1254760897165 222.7 L 370.9751728029342 222.7 L 372.82486951615186 274.7 L 374.67456622936953 245.3 L 376.5242629425872 245.3 L 378.37395965580487 295.7 L 380.22365636902254 295.7 L 382.0733530822402 287.3 L 383.92304979545787 287.3 L 385.7727465086755 271.6 L 387.62244322189315 271.6 L 389.4721399351108 281.5 L 391.3218366483285 281.5 L 393.17153336154615 281.3 L 395.0212300747638 281.3 L 396.8709267879815 267.9 L 398.72062350119916 267.9 L 400.5703202144168 270 L 402.42001692763444 270 L 404.2697136408521 280.4 L 406.11941035406977 280.4 L 407.96910706728744 303.6 L 409.8188037805051 303.6 L 411.6685004937228 313.9 L 413.51819720694044 313.9 L 415.3678939201581 293.8 L 417.2175906333758 293.8 L 419.0672873465934 283.5 L 420.91698405981106 283.5 L 422.7666807730287 271.6 L 424.6163774862464 271.6 L 426.46607419946406 229.6 L 428.3157709126817 229.6 L 430.1654676258994 269.6 L 432.01516433911706 269.6 L 433.86486105233473 274 L 435.7145577655524 274 L 437.56425447877 273.9 L 439.4139511919877 273.9 L 441.26364790520535 277 L 443.113344618423 277 L 444.9630413316407 261.3 L 446.81273804485835 261.3 L 448.662434758076 270 L 450.5121314712937 270 L 452.36182818451135 281.9 L 454.21152489772896 281.9 L 456.06122161094663 282.1 L 457.9109183241643 282.1 L 459.76061503738197 314.5 L 461.61031175059964 314.5 L 463.4600084638173 312.1 L 465.30970517703497 312.1 L 467.15940189025264 289.8 L 469.0090986034703 289.8 L 470.8587953166879 282 L 472.7084920299056 282 L 474.55818874312325 266.4 L 476.4078854563409 275.8 L 478.2575821695586 275.8 L 480.10727888277626 280 L 481.9569755959939 280 L 483.8066723092116 277.4 L 485.65636902242926 277.4 L 487.50606573564687 283.5 L 489.35576244886454 283.5 L 491.2054591620822 301.2 L 493.0551558752999 301.2 L 494.90485258851754 283.7 L 496.7545493017352 283.7 L 498.6042460149529 274.7 L 500.45394272817055 274.7 L 502.3036394413882 283.1 L 504.1533361546058 283.1 L 506.0030328678235 281.9 L 507.85272958104116 281.9 L 509.7024262942588 282.1 L 511.5521230074765 282.1 L 513.4018197206941 282.8 L 515.2515164339118 282.8 L 517.1012131471294 293.7 L 518.9509098603471 293.7 L 520.8006065735648 304.4 L 522.6503032867824 304.4" stroke="#2f7ed8" stroke-width="1" zIndex="1"></path></g><g class="highcharts-markers" visibility="visible" zIndex="0.1" transform="translate(60,10) scale(1 1)" clip-path="none"><path fill="none" d="M 0.2843137254901986 315 L 10.284313725490199 315 L 12.134010438707861 293.7 L 13.983707151925522 293.7 L 15.833403865143184 288.8 L 17.683100578360847 288.8 L 19.532797291578508 288.1 L 21.38249400479617 288.1 L 23.23219071801383 289.2 L 25.081887431231493 289.2 L 26.931584144449154 289 L 28.781280857666815 289 L 30.63097757088448 289.6 L 32.48067428410214 289.6 L 34.330370997319804 293.1 L 36.180067710537465 293.1 L 38.029764423755125 285.6 L 39.879461136972786 285.6 L 41.72915785019045 261.1 L 43.578854563408115 261.1 L 45.428551276625775 274.4 L 47.278247989843436 274.4 L 49.1279447030611 286.8 L 50.97764141627876 286.8 L 52.82733812949642 288 L 54.67703484271408 288 L 56.52673155593174 282.3 L 58.37642826914941 282.3 L 60.22612498236707 287.6 L 62.07582169558473 287.6 L 63.92551840880239 302.6 L 65.77521512202006 302.6 L 67.62491183523771 317.3 L 69.47460854845538 317.3 L 71.32430526167303 312.9 L 73.1740019748907 312.9 L 75.02369868810835 293.2 L 76.87339540132602 293.2 L 78.72309211454368 259.8 L 80.57278882776134 265.8 L 82.42248554097901 265.8 L 84.27218225419666 272.8 L 86.12187896741433 272.8 L 87.97157568063199 234.2 L 89.82127239384965 234.2 L 91.67096910706731 278.4 L 93.52066582028498 278.4 L 95.37036253350264 290.3 L 97.2200592467203 303 L 99.06975595993796 283.4 L 100.91945267315562 283.4 L 102.76914938637329 278.1 L 104.61884609959094 278.1 L 106.46854281280861 289.4 L 108.31823952602626 288.5 L 110.16793623924393 288.5 L 112.0176329524616 289.2 L 113.86732966567925 289.2 L 115.71702637889692 288.6 L 117.56672309211457 288.6 L 119.41641980533224 282.9 L 121.2661165185499 282.9 L 123.11581323176756 312.2 L 124.96550994498523 312.2 L 126.81520665820288 297.3 L 128.66490337142054 297.3 L 130.5146000846382 260.8 L 132.36429679785587 260.8 L 134.21399351107354 283.7 L 136.06369022429118 283.7 L 137.91338693750885 279.6 L 139.76308365072651 279.6 L 141.61278036394418 282.8 L 143.46247707716185 282.8 L 145.3121737903795 286.9 L 147.16187050359716 286.9 L 149.01156721681483 288.3 L 150.8612639300325 288.3 L 152.71096064325013 297.5 L 154.5606573564678 297.5 L 156.41035406968547 302.2 L 158.26005078290314 302.2 L 160.1097474961208 275.4 L 161.95944420933844 275.4 L 163.8091409225561 223.7 L 165.65883763577378 223.7 L 167.50853434899145 198 L 169.35823106220911 198 L 171.20792777542675 199.2 L 173.05762448864442 199.2 L 174.9073212018621 202 L 176.75701791507976 202 L 178.6067146282974 204.8 L 180.45641134151506 204.8 L 182.30610805473273 228.6 L 184.1558047679504 228.6 L 186.00550148116807 238.3 L 187.8551981943857 155 L 189.70489490760338 155 L 191.55459162082104 134.1 L 193.4042883340387 134.1 L 195.25398504725635 150.8 L 197.10368176047402 150.8 L 198.95337847369169 167.1 L 200.80307518690935 167.1 L 202.65277190012702 126.1 L 204.50246861334466 126.1 L 206.35216532656233 119.3 L 208.20186203978 119.3 L 210.05155875299766 128.4 L 211.9012554662153 128.4 L 213.75095217943297 169.2 L 215.60064889265064 169.2 L 217.4503456058683 180.5 L 219.30004231908597 180.5 L 221.14973903230361 182.2 L 222.99943574552128 182.2 L 224.84913245873895 187.7 L 226.69882917195662 187.7 L 228.54852588517429 189.3 L 230.39822259839192 189.3 L 232.2479193116096 192 L 234.09761602482726 192 L 235.94731273804493 198.2 L 237.79700945126257 198.2 L 239.64670616448024 216.4 L 241.4964028776979 216.4 L 243.34609959091557 215.8 L 245.19579630413324 215.8 L 247.04549301735088 211.1 L 248.89518973056855 211.1 L 250.7448864437862 192.4 L 252.59458315700388 192.4 L 254.44427987022152 198.1 L 256.2939765834392 198.1 L 258.14367329665686 189.1 L 259.9933700098745 189.1 L 261.8430667230922 173.7 L 263.69276343630986 190.3 L 265.5424601495275 190.3 L 267.39215686274514 194.3 L 269.2418535759628 194.3 L 271.0915502891805 210 L 272.94124700239814 210 L 274.7909437156158 203.7 L 276.6406404288335 203.7 L 278.49033714205115 196.5 L 280.3400338552688 196.5 L 282.1897305684865 200.8 L 284.0394272817041 200.8 L 285.88912399492176 198.1 L 287.73882070813943 198.1 L 289.5885174213571 222.3 L 291.43821413457476 222.3 L 293.28791084779243 265.3 L 295.1376075610101 265.3 L 296.98730427422777 266.5 L 298.83700098744544 266.5 L 300.68669770066305 137 L 302.5363944138807 -40.5 L 304.3860911270984 -40.5 L 306.23578784031605 34.5 L 308.0854845535337 34.5 L 309.9351812667514 134.9 L 311.78487797996905 134.9 L 313.6345746931867 163.5 L 315.4842714064044 163.5 L 317.33396811962206 192.6 L 319.18366483283967 192.6 L 321.03336154605734 275.8 L 322.883058259275 275.8 L 324.73275497249267 293.2 L 326.58245168571034 293.2 L 328.432148398928 271.6 L 330.2818451121457 271.6 L 332.13154182536334 273.9 L 333.981238538581 273.9 L 335.8309352517986 214.1 L 337.6806319650163 214.1 L 339.53032867823396 215.8 L 341.3800253914516 215.8 L 343.2297221046693 264.7 L 345.07941881788696 264.7 L 346.9291155311046 263.1 L 348.7788122443223 263.1 L 350.62850895753996 229.5 L 352.4782056707576 229.5 L 354.32790238397524 223.8 L 356.1775990971929 223.8 L 358.0272958104106 203.5 L 359.87699252362825 203.5 L 361.7266892368459 157.8 L 363.5763859500636 157.8 L 365.42608266328125 8.8 L 367.2757793764989 8.8 L 369.1254760897165 222.7 L 370.9751728029342 222.7 L 372.82486951615186 274.7 L 374.67456622936953 245.3 L 376.5242629425872 245.3 L 378.37395965580487 295.7 L 380.22365636902254 295.7 L 382.0733530822402 287.3 L 383.92304979545787 287.3 L 385.7727465086755 271.6 L 387.62244322189315 271.6 L 389.4721399351108 281.5 L 391.3218366483285 281.5 L 393.17153336154615 281.3 L 395.0212300747638 281.3 L 396.8709267879815 267.9 L 398.72062350119916 267.9 L 400.5703202144168 270 L 402.42001692763444 270 L 404.2697136408521 280.4 L 406.11941035406977 280.4 L 407.96910706728744 303.6 L 409.8188037805051 303.6 L 411.6685004937228 313.9 L 413.51819720694044 313.9 L 415.3678939201581 293.8 L 417.2175906333758 293.8 L 419.0672873465934 283.5 L 420.91698405981106 283.5 L 422.7666807730287 271.6 L 424.6163774862464 271.6 L 426.46607419946406 229.6 L 428.3157709126817 229.6 L 430.1654676258994 269.6 L 432.01516433911706 269.6 L 433.86486105233473 274 L 435.7145577655524 274 L 437.56425447877 273.9 L 439.4139511919877 273.9 L 441.26364790520535 277 L 443.113344618423 277 L 444.9630413316407 261.3 L 446.81273804485835 261.3 L 448.662434758076 270 L 450.5121314712937 270 L 452.36182818451135 281.9 L 454.21152489772896 281.9 L 456.06122161094663 282.1 L 457.9109183241643 282.1 L 459.76061503738197 314.5 L 461.61031175059964 314.5 L 463.4600084638173 312.1 L 465.30970517703497 312.1 L 467.15940189025264 289.8 L 469.0090986034703 289.8 L 470.8587953166879 282 L 472.7084920299056 282 L 474.55818874312325 266.4 L 476.4078854563409 275.8 L 478.2575821695586 275.8 L 480.10727888277626 280 L 481.9569755959939 280 L 483.8066723092116 277.4 L 485.65636902242926 277.4 L 487.50606573564687 283.5 L 489.35576244886454 283.5 L 491.2054591620822 301.2 L 493.0551558752999 301.2 L 494.90485258851754 283.7 L 496.7545493017352 283.7 L 498.6042460149529 274.7 L 500.45394272817055 274.7 L 502.3036394413882 283.1 L 504.1533361546058 283.1 L 506.0030328678235 281.9 L 507.85272958104116 281.9 L 509.7024262942588 282.1 L 511.5521230074765 282.1 L 513.4018197206941 282.8 L 515.2515164339118 282.8 L 517.1012131471294 293.7 L 518.9509098603471 293.7 L 520.8006065735648 304.4 L 522.6503032867824 304.4 L 532.6503032867824 304.4" class="highcharts-tracker highcharts-tracker" stroke-linejoin="round" visibility="visible" stroke-opacity="0.0001" stroke="rgb(192,192,192)" stroke-width="21" zIndex="2" style=""></path></g><g class="highcharts-series" visibility="visible" zIndex="0.1" transform="translate(60,10) scale(1 1)" clip-path="url(#highcharts-1)"><path fill="none" d="M 10.284313725490199 362 L 12.134010438707861 362 L 13.983707151925522 362 L 15.833403865143184 362 L 17.683100578360847 362 L 19.532797291578508 362 L 21.38249400479617 362 L 23.23219071801383 362 L 25.081887431231493 362 L 26.931584144449154 362 L 28.781280857666815 362 L 30.63097757088448 362 L 32.48067428410214 362 L 34.330370997319804 362 L 36.180067710537465 362 L 38.029764423755125 362 L 39.879461136972786 362 L 41.72915785019045 362 L 43.578854563408115 362 L 45.428551276625775 362 L 47.278247989843436 362 L 49.1279447030611 362 L 50.97764141627876 362 L 52.82733812949642 362 L 54.67703484271408 362 L 56.52673155593174 362 L 58.37642826914941 362 L 60.22612498236707 362 L 62.07582169558473 362 L 63.92551840880239 362 L 65.77521512202006 362 L 67.62491183523771 362 L 69.47460854845538 362 L 71.32430526167303 362 L 73.1740019748907 362 L 75.02369868810835 362 L 76.87339540132602 362 L 78.72309211454368 362 L 80.57278882776134 362 L 82.42248554097901 362 L 84.27218225419666 362 L 86.12187896741433 362 L 87.97157568063199 362 L 89.82127239384965 362 L 91.67096910706731 362 L 93.52066582028498 362 L 95.37036253350264 362 L 97.2200592467203 362 L 99.06975595993796 362 L 100.91945267315562 362 L 102.76914938637329 362 L 104.61884609959094 362 L 106.46854281280861 362 L 108.31823952602626 362 L 110.16793623924393 362 L 112.0176329524616 362 L 113.86732966567925 362 L 115.71702637889692 362 L 117.56672309211457 362 L 119.41641980533224 362 L 121.2661165185499 362 L 123.11581323176756 362 L 124.96550994498523 362 L 126.81520665820288 362 L 128.66490337142054 362 L 130.5146000846382 362 L 132.36429679785587 362 L 134.21399351107354 362 L 136.06369022429118 362 L 137.91338693750885 362 L 139.76308365072651 362 L 141.61278036394418 362 L 143.46247707716185 362 L 145.3121737903795 362 L 147.16187050359716 362 L 149.01156721681483 362 L 150.8612639300325 362 L 152.71096064325013 362 L 154.5606573564678 362 L 156.41035406968547 362 L 158.26005078290314 362 L 160.1097474961208 362 L 161.95944420933844 362 L 163.8091409225561 362 L 165.65883763577378 362 L 167.50853434899145 362 L 169.35823106220911 362 L 171.20792777542675 362 L 173.05762448864442 362 L 174.9073212018621 362 L 176.75701791507976 362 L 178.6067146282974 362 L 180.45641134151506 362 L 182.30610805473273 362 L 184.1558047679504 362 L 186.00550148116807 362 L 187.8551981943857 362 L 189.70489490760338 362 L 191.55459162082104 362 L 193.4042883340387 362 L 195.25398504725635 362 L 197.10368176047402 362 L 198.95337847369169 362 L 200.80307518690935 362 L 202.65277190012702 362 L 204.50246861334466 362 L 206.35216532656233 362 L 208.20186203978 362 L 210.05155875299766 362 L 211.9012554662153 362 L 213.75095217943297 362 L 215.60064889265064 362 L 217.4503456058683 362 L 219.30004231908597 362 L 221.14973903230361 362 L 222.99943574552128 362 L 224.84913245873895 362 L 226.69882917195662 362 L 228.54852588517429 362 L 230.39822259839192 362 L 232.2479193116096 362 L 234.09761602482726 362 L 235.94731273804493 362 L 237.79700945126257 362 L 239.64670616448024 362 L 241.4964028776979 362 L 243.34609959091557 362 L 245.19579630413324 362 L 247.04549301735088 362 L 248.89518973056855 362 L 250.7448864437862 362 L 252.59458315700388 362 L 254.44427987022152 362 L 256.2939765834392 362 L 258.14367329665686 362 L 259.9933700098745 362 L 261.8430667230922 362 L 263.69276343630986 362 L 265.5424601495275 362 L 267.39215686274514 362 L 269.2418535759628 362 L 271.0915502891805 362 L 272.94124700239814 362 L 274.7909437156158 362 L 276.6406404288335 362 L 278.49033714205115 362 L 280.3400338552688 362 L 282.1897305684865 362 L 284.0394272817041 362 L 285.88912399492176 362 L 287.73882070813943 362 L 289.5885174213571 362 L 291.43821413457476 362 L 293.28791084779243 362 L 295.1376075610101 362 L 296.98730427422777 362 L 298.83700098744544 362 L 300.68669770066305 362 L 302.5363944138807 362 L 304.3860911270984 362 L 306.23578784031605 362 L 308.0854845535337 362 L 309.9351812667514 362 L 311.78487797996905 362 L 313.6345746931867 362 L 315.4842714064044 362 L 317.33396811962206 362 L 319.18366483283967 362 L 321.03336154605734 362 L 322.883058259275 362 L 324.73275497249267 362 L 326.58245168571034 362 L 328.432148398928 362 L 330.2818451121457 362 L 332.13154182536334 362 L 333.981238538581 362 L 335.8309352517986 362 L 337.6806319650163 362 L 339.53032867823396 362 L 341.3800253914516 362 L 343.2297221046693 362 L 345.07941881788696 362 L 346.9291155311046 362 L 348.7788122443223 362 L 350.62850895753996 362 L 352.4782056707576 362 L 354.32790238397524 362 L 356.1775990971929 362 L 358.0272958104106 362 L 359.87699252362825 362 L 361.7266892368459 362 L 363.5763859500636 362 L 365.42608266328125 362 L 367.2757793764989 362 L 369.1254760897165 362 L 370.9751728029342 362 L 372.82486951615186 362 L 374.67456622936953 362 L 376.5242629425872 362 L 378.37395965580487 362 L 380.22365636902254 362 L 382.0733530822402 362 L 383.92304979545787 362 L 385.7727465086755 362 L 387.62244322189315 362 L 389.4721399351108 362 L 391.3218366483285 362 L 393.17153336154615 362 L 395.0212300747638 362 L 396.8709267879815 362 L 398.72062350119916 362 L 400.5703202144168 362 L 402.42001692763444 362 L 404.2697136408521 362 L 406.11941035406977 362 L 407.96910706728744 362 L 409.8188037805051 362 L 411.6685004937228 362 L 413.51819720694044 362 L 415.3678939201581 362 L 417.2175906333758 362 L 419.0672873465934 362 L 420.91698405981106 362 L 422.7666807730287 362 L 424.6163774862464 362 L 426.46607419946406 362 L 428.3157709126817 362 L 430.1654676258994 362 L 432.01516433911706 362 L 433.86486105233473 362 L 435.7145577655524 362 L 437.56425447877 362 L 439.4139511919877 362 L 441.26364790520535 362 L 443.113344618423 362 L 444.9630413316407 362 L 446.81273804485835 362 L 448.662434758076 362 L 450.5121314712937 362 L 452.36182818451135 362 L 454.21152489772896 362 L 456.06122161094663 362 L 457.9109183241643 362 L 459.76061503738197 362 L 461.61031175059964 362 L 463.4600084638173 362 L 465.30970517703497 362 L 467.15940189025264 362 L 469.0090986034703 362 L 470.8587953166879 362 L 472.7084920299056 362 L 474.55818874312325 362 L 476.4078854563409 362 L 478.2575821695586 362 L 480.10727888277626 362 L 481.9569755959939 362 L 483.8066723092116 362 L 485.65636902242926 362 L 487.50606573564687 362 L 489.35576244886454 362 L 491.2054591620822 362 L 493.0551558752999 362 L 494.90485258851754 362 L 496.7545493017352 362 L 498.6042460149529 362 L 500.45394272817055 362 L 502.3036394413882 362 L 504.1533361546058 362 L 506.0030328678235 362 L 507.85272958104116 362 L 509.7024262942588 362 L 511.5521230074765 362 L 513.4018197206941 362 L 515.2515164339118 362 L 517.1012131471294 362 L 518.9509098603471 314.8 L 520.8006065735648 316.4 L 522.6503032867824 316.4 L 524.5000000000001 297.8 L 526.3496967132178 297.8 L 528.1993934264354 289 L 530.0490901396531 289 L 531.8987868528708 287.3 L 533.7484835660885 287.3 L 535.5981802793061 255.3 L 537.4478769925238 255.3 L 539.2975737057415 227.8 L 541.1472704189591 280.7 L 542.9969671321768 291.4 L 544.8466638453945 291.4 L 546.696360558612 303.8 L 548.5460572718297 277.6 L 550.3957539850473 277.6 L 552.245450698265 256.1 L 554.0951474114827 256.1 L 555.9448441247004 281.2 L 557.794540837918 281.2 L 559.6442375511357 285.6 L 561.4939342643534 285.6 L 563.343630977571 276.4 L 565.1933276907887 276.4 L 567.0430244040064 272.2 L 568.892721117224 272.2 L 570.7424178304417 286.3 L 572.5921145436594 286.3 L 574.441811256877 256.5 L 576.2915079700947 256.5 L 578.1412046833124 274 L 579.9909013965299 274 L 581.8405981097476 289.8 L 583.6902948229653 289.8 L 585.5399915361829 285.3 L 587.3896882494006 285.3 L 589.2393849626183 288.1 L 591.0890816758359 288.1 L 592.9387783890536 283.9 L 594.7884751022713 283.9 L 596.6381718154889 259.4 L 598.4878685287066 259.4 L 600.3375652419243 280.3 L 602.1872619551419 280.3 L 604.0369586683596 288.3 L 605.8866553815773 288.3 L 607.7363520947949 302 L 609.5860488080126 302 L 611.4357455212303 287.8 L 613.2854422344479 287.8 L 615.1351389476655 276.5 L 616.9848356608832 276.5 L 618.8345323741008 283.1 L 620.6842290873185 283.1 L 622.5339258005362 227.9 L 624.3836225137538 227.9 L 626.2333192269715 196.1 L 628.0830159401892 196.1 L 629.9327126534068 202.9 L 631.7824093666245 240.8 L 633.6321060798422 240.8 L 635.4818027930598 228.8 L 637.3314995062775 228.8 L 639.1811962194952 185.4 L 641.0308929327128 185.4 L 642.8805896459305 150.1 L 644.7302863591482 137.5 L 646.5799830723658 137.5 L 648.4296797855834 135.9 L 650.2793764988011 135.9 L 652.1290732120187 121.2 L 653.9787699252364 121.2 L 655.8284666384541 112.5 L 657.6781633516717 112.5 L 659.5278600648894 126.4 L 661.3775567781071 126.4 L 663.2272534913247 170.8 L 665.0769502045424 170.8 L 666.9266469177601 176.1 L 668.7763436309777 176.1 L 670.6260403441954 176.7 L 672.4757370574131 176.7 L 674.3254337706308 186.3 L 676.1751304838484 186.3 L 678.0248271970661 184.8 L 679.8745239102838 184.8 L 681.7242206235013 183.7 L 683.573917336719 183.7 L 685.4236140499366 187.7 L 687.2733107631543 187.7 L 689.123007476372 205.6 L 690.9727041895896 205.6 L 692.8224009028073 227.3 L 694.672097616025 227.3 L 696.5217943292427 211.7 L 698.3714910424603 211.7 L 700.221187755678 192.6 L 702.0708844688957 192.6 L 703.9205811821133 188.4 L 705.770277895331 180.5 L 707.6199746085487 180.5 L 709.4696713217663 171.6 L 711.319368034984 171.6 L 713.1690647482017 185 L 715.0187614614192 185 L 716.8684581746369 186.1 L 718.7181548878546 186.1 L 720.5678516010722 196.8 L 722.4175483142899 193.9 L 724.2672450275076 189.3 L 726.1169417407252 189.3 L 727.9666384539429 190.4 L 729.8163351671606 190.4 L 731.6660318803782 189.8 L 733.5157285935959 189.8 L 735.3654253068136 193.4 L 737.2151220200312 193.4 L 739.0648187332489 191.5 L 740.9145154464666 191.5 L 742.7642121596842 199.9 L 744.6139088729019 199.9 L 746.4636055861196 221.6 L 748.3133022993372 221.6 L 750.1629990125548 226.6 L 752.0126957257725 226.6 L 753.8623924389901 251.1 L 755.7120891522078 249.8 L 757.5617858654255 249.8 L 759.4114825786431 251.5 L 761.2611792918608 251.5 L 763.1108760050785 202.8 L 764.9605727182961 202.8 L 766.8102694315138 5.6 L 768.6599661447315 5.6 L 770.5096628579491 -23.8 L 772.3593595711668 -23.8 L 774.2090562843845 155.4 L 776.0587529976021 155.4 L 777.9084497108198 210.6 L 779.7581464240375 210.6 L 781.6078431372551 198.8 L 783.4575398504727 198.8 L 785.3072365636904 179.3 L 787.156933276908 179.3 L 789.0066299901257 181.3 L 790.8563267033434 181.3 L 792.706023416561 182.6 L 794.5557201297787 182.6 L 796.4054168429964 182.7 L 798.255113556214 182.7 L 800.1048102694317 190.8 L 801.9545069826494 190.8 L 803.804203695867 198.3 L 805.6539004090847 198.3 L 807.5035971223024 222.5 L 809.35329383552 222.5 L 811.2029905487377 218.7 L 813.0526872619554 212.1 L 814.902383975173 200.3 L 816.7520806883906 199.1 L 818.6017774016083 199.1 L 820.4514741148259 197.1 L 822.3011708280436 197.1 L 824.1508675412613 122.2 L 826.000564254479 122.2 L 827.8502609676966 -18 L 829.6999576809143 -18 L 831.549654394132 82.1 L 833.3993511073496 82.1 L 835.2490478205673 196.1 L 837.098744533785 196.1 L 838.9484412470026 120.3 L 840.7981379602203 120.3 L 842.647834673438 140.9 L 844.4975313866556 140.9 L 846.3472280998733 236.2 L 848.196924813091 236.2 L 850.0466215263086 283.4 L 851.8963182395262 283.4 L 853.7460149527438 278.1 L 855.5957116659615 278.1 L 857.4454083791792 266.1 L 859.2951050923969 266.1 L 861.1448018056145 256.2 L 862.9944985188322 256.2 L 864.8441952320499 216.5 L 866.6938919452675 216.5 L 868.5435886584852 225.9 L 870.3932853717029 225.9 L 872.2429820849205 211.4 L 874.0926787981382 211.4 L 875.9423755113559 168.4 L 877.7920722245735 168.4 L 879.6417689377912 34.7 L 881.4914656510089 34.7 L 883.3411623642265 54 L 885.1908590774441 54 L 887.0405557906618 218.9 L 888.8902525038794 218.9 L 890.7399492170971 268.8 L 892.5896459303148 268.8 L 894.4393426435324 247.3 L 896.2890393567501 247.3 L 898.1387360699678 290.7 L 899.9884327831854 290.7 L 901.8381294964031 292.7 L 903.6878262096208 283.4 L 905.5375229228384 275 L 907.3872196360561 270.4 L 909.2369163492738 270.4 L 911.0866130624914 277 L 912.9363097757091 277 L 914.7860064889268 301.4 L 916.6357032021444 301.4 L 918.485399915362 311.9 L 920.3350966285797 311.9 L 922.1847933417973 278.5 L 924.034490055015 278.5 L 925.8841867682327 279.3 L 927.7338834814503 279.3 L 929.583580194668 283.1 L 931.4332769078857 283.1 L 933.2829736211033 278.4 L 935.132670334321 278.4 L 936.9823670475387 260.2 L 938.8320637607563 260.2 L 940.681760473974 267.1 L 942.5314571871917 267.1 L 944.3811539004093 273.4 L 946.230850613627 273.4 L 948.0805473268446 289.2 L 949.9302440400622 289.2 L 951.7799407532799 257.9 L 953.6296374664976 257.9 L 955.4793341797151 265.3 L 957.3290308929328 265.3 L 959.1787276061505 275.8 L 961.0284243193681 275.8 L 962.8781210325858 279.1 L 964.7278177458035 279.1 L 966.5775144590211 269.8 L 968.4272111722388 269.8 L 970.2769078854565 271.8 L 972.1266045986741 271.8 L 973.9763013118918 281.2 L 975.8259980251095 281.2 L 977.6756947383271 303.7 L 979.5253914515448 311.1 L 981.3750881647625 311.1 L 983.2247848779801 291.5 L 985.0744815911978 291.5 L 986.9241783044155 283.3 L 988.773875017633 283.3 L 990.6235717308507 281.9 L 992.4732684440684 281.9 L 994.322965157286 261.8 L 996.1726618705037 261.8 L 998.0223585837214 260.3 L 999.872055296939 260.3 L 1001.7217520101567 273.5 L 1003.5714487233744 273.5 L 1005.421145436592 302.3 L 1007.2708421498097 302.3 L 1009.1205388630274 284 L 1010.970235576245 284 L 1012.8199322894627 272.6 L 1014.6696290026804 272.6 L 1016.519325715898 281.7 L 1018.3690224291157 281.7 L 1020.2187191423334 280.8 L 1022.0684158555509 280.8 L 1023.9181125687686 267.1 L 1025.7678092819863 267.1 L 1027.617505995204 275.4 L 1029.4672027084216 275.4 L 1031.3168994216394 292.5 L 1033.166596134857 292.5 L 1035.0162928480747 314.1 L 1036.8659895612923 314.1 L 1038.71568627451 311.3" stroke="#910000" stroke-width="1" zIndex="1"></path></g><g class="highcharts-markers" visibility="visible" zIndex="0.1" transform="translate(60,10) scale(1 1)" clip-path="none"><path fill="none" d="M 0.2843137254901986 362 L 10.284313725490199 362 L 12.134010438707861 362 L 13.983707151925522 362 L 15.833403865143184 362 L 17.683100578360847 362 L 19.532797291578508 362 L 21.38249400479617 362 L 23.23219071801383 362 L 25.081887431231493 362 L 26.931584144449154 362 L 28.781280857666815 362 L 30.63097757088448 362 L 32.48067428410214 362 L 34.330370997319804 362 L 36.180067710537465 362 L 38.029764423755125 362 L 39.879461136972786 362 L 41.72915785019045 362 L 43.578854563408115 362 L 45.428551276625775 362 L 47.278247989843436 362 L 49.1279447030611 362 L 50.97764141627876 362 L 52.82733812949642 362 L 54.67703484271408 362 L 56.52673155593174 362 L 58.37642826914941 362 L 60.22612498236707 362 L 62.07582169558473 362 L 63.92551840880239 362 L 65.77521512202006 362 L 67.62491183523771 362 L 69.47460854845538 362 L 71.32430526167303 362 L 73.1740019748907 362 L 75.02369868810835 362 L 76.87339540132602 362 L 78.72309211454368 362 L 80.57278882776134 362 L 82.42248554097901 362 L 84.27218225419666 362 L 86.12187896741433 362 L 87.97157568063199 362 L 89.82127239384965 362 L 91.67096910706731 362 L 93.52066582028498 362 L 95.37036253350264 362 L 97.2200592467203 362 L 99.06975595993796 362 L 100.91945267315562 362 L 102.76914938637329 362 L 104.61884609959094 362 L 106.46854281280861 362 L 108.31823952602626 362 L 110.16793623924393 362 L 112.0176329524616 362 L 113.86732966567925 362 L 115.71702637889692 362 L 117.56672309211457 362 L 119.41641980533224 362 L 121.2661165185499 362 L 123.11581323176756 362 L 124.96550994498523 362 L 126.81520665820288 362 L 128.66490337142054 362 L 130.5146000846382 362 L 132.36429679785587 362 L 134.21399351107354 362 L 136.06369022429118 362 L 137.91338693750885 362 L 139.76308365072651 362 L 141.61278036394418 362 L 143.46247707716185 362 L 145.3121737903795 362 L 147.16187050359716 362 L 149.01156721681483 362 L 150.8612639300325 362 L 152.71096064325013 362 L 154.5606573564678 362 L 156.41035406968547 362 L 158.26005078290314 362 L 160.1097474961208 362 L 161.95944420933844 362 L 163.8091409225561 362 L 165.65883763577378 362 L 167.50853434899145 362 L 169.35823106220911 362 L 171.20792777542675 362 L 173.05762448864442 362 L 174.9073212018621 362 L 176.75701791507976 362 L 178.6067146282974 362 L 180.45641134151506 362 L 182.30610805473273 362 L 184.1558047679504 362 L 186.00550148116807 362 L 187.8551981943857 362 L 189.70489490760338 362 L 191.55459162082104 362 L 193.4042883340387 362 L 195.25398504725635 362 L 197.10368176047402 362 L 198.95337847369169 362 L 200.80307518690935 362 L 202.65277190012702 362 L 204.50246861334466 362 L 206.35216532656233 362 L 208.20186203978 362 L 210.05155875299766 362 L 211.9012554662153 362 L 213.75095217943297 362 L 215.60064889265064 362 L 217.4503456058683 362 L 219.30004231908597 362 L 221.14973903230361 362 L 222.99943574552128 362 L 224.84913245873895 362 L 226.69882917195662 362 L 228.54852588517429 362 L 230.39822259839192 362 L 232.2479193116096 362 L 234.09761602482726 362 L 235.94731273804493 362 L 237.79700945126257 362 L 239.64670616448024 362 L 241.4964028776979 362 L 243.34609959091557 362 L 245.19579630413324 362 L 247.04549301735088 362 L 248.89518973056855 362 L 250.7448864437862 362 L 252.59458315700388 362 L 254.44427987022152 362 L 256.2939765834392 362 L 258.14367329665686 362 L 259.9933700098745 362 L 261.8430667230922 362 L 263.69276343630986 362 L 265.5424601495275 362 L 267.39215686274514 362 L 269.2418535759628 362 L 271.0915502891805 362 L 272.94124700239814 362 L 274.7909437156158 362 L 276.6406404288335 362 L 278.49033714205115 362 L 280.3400338552688 362 L 282.1897305684865 362 L 284.0394272817041 362 L 285.88912399492176 362 L 287.73882070813943 362 L 289.5885174213571 362 L 291.43821413457476 362 L 293.28791084779243 362 L 295.1376075610101 362 L 296.98730427422777 362 L 298.83700098744544 362 L 300.68669770066305 362 L 302.5363944138807 362 L 304.3860911270984 362 L 306.23578784031605 362 L 308.0854845535337 362 L 309.9351812667514 362 L 311.78487797996905 362 L 313.6345746931867 362 L 315.4842714064044 362 L 317.33396811962206 362 L 319.18366483283967 362 L 321.03336154605734 362 L 322.883058259275 362 L 324.73275497249267 362 L 326.58245168571034 362 L 328.432148398928 362 L 330.2818451121457 362 L 332.13154182536334 362 L 333.981238538581 362 L 335.8309352517986 362 L 337.6806319650163 362 L 339.53032867823396 362 L 341.3800253914516 362 L 343.2297221046693 362 L 345.07941881788696 362 L 346.9291155311046 362 L 348.7788122443223 362 L 350.62850895753996 362 L 352.4782056707576 362 L 354.32790238397524 362 L 356.1775990971929 362 L 358.0272958104106 362 L 359.87699252362825 362 L 361.7266892368459 362 L 363.5763859500636 362 L 365.42608266328125 362 L 367.2757793764989 362 L 369.1254760897165 362 L 370.9751728029342 362 L 372.82486951615186 362 L 374.67456622936953 362 L 376.5242629425872 362 L 378.37395965580487 362 L 380.22365636902254 362 L 382.0733530822402 362 L 383.92304979545787 362 L 385.7727465086755 362 L 387.62244322189315 362 L 389.4721399351108 362 L 391.3218366483285 362 L 393.17153336154615 362 L 395.0212300747638 362 L 396.8709267879815 362 L 398.72062350119916 362 L 400.5703202144168 362 L 402.42001692763444 362 L 404.2697136408521 362 L 406.11941035406977 362 L 407.96910706728744 362 L 409.8188037805051 362 L 411.6685004937228 362 L 413.51819720694044 362 L 415.3678939201581 362 L 417.2175906333758 362 L 419.0672873465934 362 L 420.91698405981106 362 L 422.7666807730287 362 L 424.6163774862464 362 L 426.46607419946406 362 L 428.3157709126817 362 L 430.1654676258994 362 L 432.01516433911706 362 L 433.86486105233473 362 L 435.7145577655524 362 L 437.56425447877 362 L 439.4139511919877 362 L 441.26364790520535 362 L 443.113344618423 362 L 444.9630413316407 362 L 446.81273804485835 362 L 448.662434758076 362 L 450.5121314712937 362 L 452.36182818451135 362 L 454.21152489772896 362 L 456.06122161094663 362 L 457.9109183241643 362 L 459.76061503738197 362 L 461.61031175059964 362 L 463.4600084638173 362 L 465.30970517703497 362 L 467.15940189025264 362 L 469.0090986034703 362 L 470.8587953166879 362 L 472.7084920299056 362 L 474.55818874312325 362 L 476.4078854563409 362 L 478.2575821695586 362 L 480.10727888277626 362 L 481.9569755959939 362 L 483.8066723092116 362 L 485.65636902242926 362 L 487.50606573564687 362 L 489.35576244886454 362 L 491.2054591620822 362 L 493.0551558752999 362 L 494.90485258851754 362 L 496.7545493017352 362 L 498.6042460149529 362 L 500.45394272817055 362 L 502.3036394413882 362 L 504.1533361546058 362 L 506.0030328678235 362 L 507.85272958104116 362 L 509.7024262942588 362 L 511.5521230074765 362 L 513.4018197206941 362 L 515.2515164339118 362 L 517.1012131471294 362 L 518.9509098603471 314.8 L 520.8006065735648 316.4 L 522.6503032867824 316.4 L 524.5000000000001 297.8 L 526.3496967132178 297.8 L 528.1993934264354 289 L 530.0490901396531 289 L 531.8987868528708 287.3 L 533.7484835660885 287.3 L 535.5981802793061 255.3 L 537.4478769925238 255.3 L 539.2975737057415 227.8 L 541.1472704189591 280.7 L 542.9969671321768 291.4 L 544.8466638453945 291.4 L 546.696360558612 303.8 L 548.5460572718297 277.6 L 550.3957539850473 277.6 L 552.245450698265 256.1 L 554.0951474114827 256.1 L 555.9448441247004 281.2 L 557.794540837918 281.2 L 559.6442375511357 285.6 L 561.4939342643534 285.6 L 563.343630977571 276.4 L 565.1933276907887 276.4 L 567.0430244040064 272.2 L 568.892721117224 272.2 L 570.7424178304417 286.3 L 572.5921145436594 286.3 L 574.441811256877 256.5 L 576.2915079700947 256.5 L 578.1412046833124 274 L 579.9909013965299 274 L 581.8405981097476 289.8 L 583.6902948229653 289.8 L 585.5399915361829 285.3 L 587.3896882494006 285.3 L 589.2393849626183 288.1 L 591.0890816758359 288.1 L 592.9387783890536 283.9 L 594.7884751022713 283.9 L 596.6381718154889 259.4 L 598.4878685287066 259.4 L 600.3375652419243 280.3 L 602.1872619551419 280.3 L 604.0369586683596 288.3 L 605.8866553815773 288.3 L 607.7363520947949 302 L 609.5860488080126 302 L 611.4357455212303 287.8 L 613.2854422344479 287.8 L 615.1351389476655 276.5 L 616.9848356608832 276.5 L 618.8345323741008 283.1 L 620.6842290873185 283.1 L 622.5339258005362 227.9 L 624.3836225137538 227.9 L 626.2333192269715 196.1 L 628.0830159401892 196.1 L 629.9327126534068 202.9 L 631.7824093666245 240.8 L 633.6321060798422 240.8 L 635.4818027930598 228.8 L 637.3314995062775 228.8 L 639.1811962194952 185.4 L 641.0308929327128 185.4 L 642.8805896459305 150.1 L 644.7302863591482 137.5 L 646.5799830723658 137.5 L 648.4296797855834 135.9 L 650.2793764988011 135.9 L 652.1290732120187 121.2 L 653.9787699252364 121.2 L 655.8284666384541 112.5 L 657.6781633516717 112.5 L 659.5278600648894 126.4 L 661.3775567781071 126.4 L 663.2272534913247 170.8 L 665.0769502045424 170.8 L 666.9266469177601 176.1 L 668.7763436309777 176.1 L 670.6260403441954 176.7 L 672.4757370574131 176.7 L 674.3254337706308 186.3 L 676.1751304838484 186.3 L 678.0248271970661 184.8 L 679.8745239102838 184.8 L 681.7242206235013 183.7 L 683.573917336719 183.7 L 685.4236140499366 187.7 L 687.2733107631543 187.7 L 689.123007476372 205.6 L 690.9727041895896 205.6 L 692.8224009028073 227.3 L 694.672097616025 227.3 L 696.5217943292427 211.7 L 698.3714910424603 211.7 L 700.221187755678 192.6 L 702.0708844688957 192.6 L 703.9205811821133 188.4 L 705.770277895331 180.5 L 707.6199746085487 180.5 L 709.4696713217663 171.6 L 711.319368034984 171.6 L 713.1690647482017 185 L 715.0187614614192 185 L 716.8684581746369 186.1 L 718.7181548878546 186.1 L 720.5678516010722 196.8 L 722.4175483142899 193.9 L 724.2672450275076 189.3 L 726.1169417407252 189.3 L 727.9666384539429 190.4 L 729.8163351671606 190.4 L 731.6660318803782 189.8 L 733.5157285935959 189.8 L 735.3654253068136 193.4 L 737.2151220200312 193.4 L 739.0648187332489 191.5 L 740.9145154464666 191.5 L 742.7642121596842 199.9 L 744.6139088729019 199.9 L 746.4636055861196 221.6 L 748.3133022993372 221.6 L 750.1629990125548 226.6 L 752.0126957257725 226.6 L 753.8623924389901 251.1 L 755.7120891522078 249.8 L 757.5617858654255 249.8 L 759.4114825786431 251.5 L 761.2611792918608 251.5 L 763.1108760050785 202.8 L 764.9605727182961 202.8 L 766.8102694315138 5.6 L 768.6599661447315 5.6 L 770.5096628579491 -23.8 L 772.3593595711668 -23.8 L 774.2090562843845 155.4 L 776.0587529976021 155.4 L 777.9084497108198 210.6 L 779.7581464240375 210.6 L 781.6078431372551 198.8 L 783.4575398504727 198.8 L 785.3072365636904 179.3 L 787.156933276908 179.3 L 789.0066299901257 181.3 L 790.8563267033434 181.3 L 792.706023416561 182.6 L 794.5557201297787 182.6 L 796.4054168429964 182.7 L 798.255113556214 182.7 L 800.1048102694317 190.8 L 801.9545069826494 190.8 L 803.804203695867 198.3 L 805.6539004090847 198.3 L 807.5035971223024 222.5 L 809.35329383552 222.5 L 811.2029905487377 218.7 L 813.0526872619554 212.1 L 814.902383975173 200.3 L 816.7520806883906 199.1 L 818.6017774016083 199.1 L 820.4514741148259 197.1 L 822.3011708280436 197.1 L 824.1508675412613 122.2 L 826.000564254479 122.2 L 827.8502609676966 -18 L 829.6999576809143 -18 L 831.549654394132 82.1 L 833.3993511073496 82.1 L 835.2490478205673 196.1 L 837.098744533785 196.1 L 838.9484412470026 120.3 L 840.7981379602203 120.3 L 842.647834673438 140.9 L 844.4975313866556 140.9 L 846.3472280998733 236.2 L 848.196924813091 236.2 L 850.0466215263086 283.4 L 851.8963182395262 283.4 L 853.7460149527438 278.1 L 855.5957116659615 278.1 L 857.4454083791792 266.1 L 859.2951050923969 266.1 L 861.1448018056145 256.2 L 862.9944985188322 256.2 L 864.8441952320499 216.5 L 866.6938919452675 216.5 L 868.5435886584852 225.9 L 870.3932853717029 225.9 L 872.2429820849205 211.4 L 874.0926787981382 211.4 L 875.9423755113559 168.4 L 877.7920722245735 168.4 L 879.6417689377912 34.7 L 881.4914656510089 34.7 L 883.3411623642265 54 L 885.1908590774441 54 L 887.0405557906618 218.9 L 888.8902525038794 218.9 L 890.7399492170971 268.8 L 892.5896459303148 268.8 L 894.4393426435324 247.3 L 896.2890393567501 247.3 L 898.1387360699678 290.7 L 899.9884327831854 290.7 L 901.8381294964031 292.7 L 903.6878262096208 283.4 L 905.5375229228384 275 L 907.3872196360561 270.4 L 909.2369163492738 270.4 L 911.0866130624914 277 L 912.9363097757091 277 L 914.7860064889268 301.4 L 916.6357032021444 301.4 L 918.485399915362 311.9 L 920.3350966285797 311.9 L 922.1847933417973 278.5 L 924.034490055015 278.5 L 925.8841867682327 279.3 L 927.7338834814503 279.3 L 929.583580194668 283.1 L 931.4332769078857 283.1 L 933.2829736211033 278.4 L 935.132670334321 278.4 L 936.9823670475387 260.2 L 938.8320637607563 260.2 L 940.681760473974 267.1 L 942.5314571871917 267.1 L 944.3811539004093 273.4 L 946.230850613627 273.4 L 948.0805473268446 289.2 L 949.9302440400622 289.2 L 951.7799407532799 257.9 L 953.6296374664976 257.9 L 955.4793341797151 265.3 L 957.3290308929328 265.3 L 959.1787276061505 275.8 L 961.0284243193681 275.8 L 962.8781210325858 279.1 L 964.7278177458035 279.1 L 966.5775144590211 269.8 L 968.4272111722388 269.8 L 970.2769078854565 271.8 L 972.1266045986741 271.8 L 973.9763013118918 281.2 L 975.8259980251095 281.2 L 977.6756947383271 303.7 L 979.5253914515448 311.1 L 981.3750881647625 311.1 L 983.2247848779801 291.5 L 985.0744815911978 291.5 L 986.9241783044155 283.3 L 988.773875017633 283.3 L 990.6235717308507 281.9 L 992.4732684440684 281.9 L 994.322965157286 261.8 L 996.1726618705037 261.8 L 998.0223585837214 260.3 L 999.872055296939 260.3 L 1001.7217520101567 273.5 L 1003.5714487233744 273.5 L 1005.421145436592 302.3 L 1007.2708421498097 302.3 L 1009.1205388630274 284 L 1010.970235576245 284 L 1012.8199322894627 272.6 L 1014.6696290026804 272.6 L 1016.519325715898 281.7 L 1018.3690224291157 281.7 L 1020.2187191423334 280.8 L 1022.0684158555509 280.8 L 1023.9181125687686 267.1 L 1025.7678092819863 267.1 L 1027.617505995204 275.4 L 1029.4672027084216 275.4 L 1031.3168994216394 292.5 L 1033.166596134857 292.5 L 1035.0162928480747 314.1 L 1036.8659895612923 314.1 L 1038.71568627451 311.3 L 1048.71568627451 311.3" class="highcharts-tracker highcharts-tracker" stroke-linejoin="round" visibility="visible" stroke-opacity="0.0001" stroke="rgb(192,192,192)" stroke-width="21" zIndex="2" style=""></path></g></g><g class="highcharts-axis-labels" zIndex="7"><text x="70.2843137254902" y="386" style="font-family:&quot;Lucida Grande&quot;, &quot;Lucida Sans Unicode&quot;, Verdana, Arial, Helvetica, sans-serif;font-size:11px;color:#666;cursor:default;line-height:14px;fill:#666;" text-anchor="middle" opacity="1"><tspan x="70.2843137254902">0</tspan></text><text x="162.76914938637327" y="386" style="font-family:&quot;Lucida Grande&quot;, &quot;Lucida Sans Unicode&quot;, Verdana, Arial, Helvetica, sans-serif;font-size:11px;color:#666;cursor:default;line-height:14px;fill:#666;" text-anchor="middle" opacity="1"><tspan x="162.76914938637327">50</tspan></text><text x="255.25398504725635" y="386" style="font-family:&quot;Lucida Grande&quot;, &quot;Lucida Sans Unicode&quot;, Verdana, Arial, Helvetica, sans-serif;font-size:11px;color:#666;cursor:default;line-height:14px;fill:#666;" text-anchor="middle" opacity="1"><tspan x="255.25398504725635">100</tspan></text><text x="347.73882070813943" y="386" style="font-family:&quot;Lucida Grande&quot;, &quot;Lucida Sans Unicode&quot;, Verdana, Arial, Helvetica, sans-serif;font-size:11px;color:#666;cursor:default;line-height:14px;fill:#666;" text-anchor="middle" opacity="1"><tspan x="347.73882070813943">150</tspan></text><text x="440.22365636902254" y="386" style="font-family:&quot;Lucida Grande&quot;, &quot;Lucida Sans Unicode&quot;, Verdana, Arial, Helvetica, sans-serif;font-size:11px;color:#666;cursor:default;line-height:14px;fill:#666;" text-anchor="middle" opacity="1"><tspan x="440.22365636902254">200</tspan></text><text x="532.7084920299055" y="386" style="font-family:&quot;Lucida Grande&quot;, &quot;Lucida Sans Unicode&quot;, Verdana, Arial, Helvetica, sans-serif;font-size:11px;color:#666;cursor:default;line-height:14px;fill:#666;" text-anchor="middle" opacity="1"><tspan x="532.7084920299055">250</tspan></text><text x="625.1933276907887" y="386" style="font-family:&quot;Lucida Grande&quot;, &quot;Lucida Sans Unicode&quot;, Verdana, Arial, Helvetica, sans-serif;font-size:11px;color:#666;cursor:default;line-height:14px;fill:#666;" text-anchor="middle" opacity="1"><tspan x="625.1933276907887">300</tspan></text><text x="717.6781633516717" y="386" style="font-family:&quot;Lucida Grande&quot;, &quot;Lucida Sans Unicode&quot;, Verdana, Arial, Helvetica, sans-serif;font-size:11px;color:#666;cursor:default;line-height:14px;fill:#666;" text-anchor="middle" opacity="1"><tspan x="717.6781633516717">350</tspan></text><text x="810.1629990125548" y="386" style="font-family:&quot;Lucida Grande&quot;, &quot;Lucida Sans Unicode&quot;, Verdana, Arial, Helvetica, sans-serif;font-size:11px;color:#666;cursor:default;line-height:14px;fill:#666;" text-anchor="middle" opacity="1"><tspan x="810.1629990125548">400</tspan></text><text x="902.647834673438" y="386" style="font-family:&quot;Lucida Grande&quot;, &quot;Lucida Sans Unicode&quot;, Verdana, Arial, Helvetica, sans-serif;font-size:11px;color:#666;cursor:default;line-height:14px;fill:#666;" text-anchor="middle" opacity="1"><tspan x="902.647834673438">450</tspan></text><text x="995.132670334321" y="386" style="font-family:&quot;Lucida Grande&quot;, &quot;Lucida Sans Unicode&quot;, Verdana, Arial, Helvetica, sans-serif;font-size:11px;color:#666;cursor:default;line-height:14px;fill:#666;" text-anchor="middle" opacity="1"><tspan x="995.132670334321">500</tspan></text><text x="1087.617505995204" y="386" style="font-family:&quot;Lucida Grande&quot;, &quot;Lucida Sans Unicode&quot;, Verdana, Arial, Helvetica, sans-serif;font-size:11px;color:#666;cursor:default;line-height:14px;fill:#666;" text-anchor="middle" opacity="1"><tspan x="1087.617505995204">550</tspan></text></g><g class="highcharts-axis-labels" zIndex="7"><text x="52" y="378.115625" style="font-family:&quot;Lucida Grande&quot;, &quot;Lucida Sans Unicode&quot;, Verdana, Arial, Helvetica, sans-serif;font-size:11px;width:505px;color:#666;cursor:default;line-height:14px;fill:#666;" text-anchor="end" opacity="1"><tspan x="52">0</tspan></text><text x="52" y="317.78229166666665" style="font-family:&quot;Lucida Grande&quot;, &quot;Lucida Sans Unicode&quot;, Verdana, Arial, Helvetica, sans-serif;font-size:11px;width:505px;color:#666;cursor:default;line-height:14px;fill:#666;" text-anchor="end" opacity="1"><tspan x="52">0.1</tspan></text><text x="52" y="257.44895833333334" style="font-family:&quot;Lucida Grande&quot;, &quot;Lucida Sans Unicode&quot;, Verdana, Arial, Helvetica, sans-serif;font-size:11px;width:505px;color:#666;cursor:default;line-height:14px;fill:#666;" text-anchor="end" opacity="1"><tspan x="52">0.2</tspan></text><text x="52" y="197.115625" style="font-family:&quot;Lucida Grande&quot;, &quot;Lucida Sans Unicode&quot;, Verdana, Arial, Helvetica, sans-serif;font-size:11px;width:505px;color:#666;cursor:default;line-height:14px;fill:#666;" text-anchor="end" opacity="1"><tspan x="52">0.3</tspan></text><text x="52" y="136.78229166666662" style="font-family:&quot;Lucida Grande&quot;, &quot;Lucida Sans Unicode&quot;, Verdana, Arial, Helvetica, sans-serif;font-size:11px;width:505px;color:#666;cursor:default;line-height:14px;fill:#666;" text-anchor="end" opacity="1"><tspan x="52">0.4</tspan></text><text x="52" y="76.44895833333331" style="font-family:&quot;Lucida Grande&quot;, &quot;Lucida Sans Unicode&quot;, Verdana, Arial, Helvetica, sans-serif;font-size:11px;width:505px;color:#666;cursor:default;line-height:14px;fill:#666;" text-anchor="end" opacity="1"><tspan x="52">0.5</tspan></text><text x="52" y="16.115625" style="font-family:&quot;Lucida Grande&quot;, &quot;Lucida Sans Unicode&quot;, Verdana, Arial, Helvetica, sans-serif;font-size:11px;width:505px;color:#666;cursor:default;line-height:14px;fill:#666;" text-anchor="end" opacity="1"><tspan x="52">0.6</tspan></text></g><g class="highcharts-tooltip" zIndex="8" style="cursor:default;padding:0;white-space:nowrap;" visibility="hidden" transform="translate(113,316)" opacity="0"><rect rx="3" ry="3" fill="none" x="0.5" y="0.5" width="156" height="44.203125" fill-opacity="0.85" isShadow="true" stroke="black" stroke-opacity="0.049999999999999996" stroke-width="5" transform="translate(1, 1)"></rect><rect rx="3" ry="3" fill="none" x="0.5" y="0.5" width="156" height="44.203125" fill-opacity="0.85" isShadow="true" stroke="black" stroke-opacity="0.09999999999999999" stroke-width="3" transform="translate(1, 1)"></rect><rect rx="3" ry="3" fill="none" x="0.5" y="0.5" width="156" height="44.203125" fill-opacity="0.85" isShadow="true" stroke="black" stroke-opacity="0.15" stroke-width="1" transform="translate(1, 1)"></rect><rect rx="3" ry="3" fill="rgb(255,255,255)" x="0.5" y="0.5" width="156" height="44.203125" fill-opacity="0.85" stroke="#910000" stroke-width="1" anchorX="-11.574612663793388" anchorY="55.838592916727066"></rect><text x="8" y="21" style="font-family:&quot;Lucida Grande&quot;, &quot;Lucida Sans Unicode&quot;, Verdana, Arial, Helvetica, sans-serif;font-size:12px;color:#333333;fill:#333333;" zIndex="1"><tspan style="font-size: 10px" x="8">16</tspan><tspan style="fill:#910000" x="8" dy="16">exp2 text shadow (+)</tspan><tspan dx="0">: </tspan><tspan style="font-weight:bold" dx="0">0</tspan></text></g><text x="1109" y="395" style="font-family:&quot;Lucida Grande&quot;, &quot;Lucida Sans Unicode&quot;, Verdana, Arial, Helvetica, sans-serif;font-size:9px;cursor:pointer;color:#909090;fill:#909090;" text-anchor="end" zIndex="8"><tspan x="1109">Highcharts.com</tspan></text></svg>